<svg xmlns="http://www.w3.org/2000/svg" xmlns:xlink="http://www.w3.org/1999/xlink" viewBox="0 0 671.45 399.71"><defs><style>.cls-1{fill:#fafafa;}.cls-2{fill:#f5f5f5;}.cls-3{fill:#ebebeb;}.cls-4{fill:#e0e0e0;}.cls-5{fill:url(#linear-gradient);}.cls-6{fill:url(#linear-gradient-2);}.cls-7{fill:url(#linear-gradient-3);}.cls-8{fill:#52c783;}.cls-9{fill:url(#linear-gradient-4);}.cls-10{fill:url(#linear-gradient-5);}.cls-11{fill:url(#linear-gradient-6);}.cls-12{fill:url(#linear-gradient-7);}.cls-13{fill:url(#linear-gradient-8);}.cls-14{fill:url(#linear-gradient-9);}.cls-15{fill:#263238;}.cls-16{fill:#455a64;}.cls-17{fill:#b78876;}.cls-18{fill:#aa6550;}.cls-19{fill:#0050ff;}.cls-20,.cls-30{opacity:0.2;}.cls-21,.cls-23{opacity:0.5;}.cls-22,.cls-23,.cls-33{fill:#fff;}.cls-23,.cls-24,.cls-30,.cls-33{isolation:isolate;}.cls-24,.cls-33{opacity:0.3;}.cls-25{fill:url(#linear-gradient-10);}.cls-26{fill:#ffbe9d;}.cls-27{fill:#ffb29d;}.cls-28{fill:#eb9078;}.cls-29{opacity:0.4;}.cls-31{fill:url(#linear-gradient-11);}.cls-32{fill:#eb996e;}.cls-34{fill:url(#linear-gradient-12);}</style><linearGradient id="linear-gradient" x1="664.93" y1="308.98" x2="644.45" y2="318.77" gradientUnits="userSpaceOnUse"><stop offset="0" stop-color="#9af5b1"/><stop offset="1" stop-color="#22a15f"/></linearGradient><linearGradient id="linear-gradient-2" x1="647.54" y1="246.52" x2="639.29" y2="284.43" xlink:href="#linear-gradient"/><linearGradient id="linear-gradient-3" x1="599.38" y1="258.14" x2="624.45" y2="288.71" xlink:href="#linear-gradient"/><linearGradient id="linear-gradient-4" x1="661.83" y1="342.49" x2="625.6" y2="387.43" gradientUnits="userSpaceOnUse"><stop offset="0" stop-color="#eaf2ff"/><stop offset="1" stop-color="#b5cbee"/></linearGradient><linearGradient id="linear-gradient-5" x1="652.87" y1="335.27" x2="616.64" y2="380.21" xlink:href="#linear-gradient-4"/><linearGradient id="linear-gradient-6" x1="669.79" y1="348.9" x2="633.56" y2="393.84" xlink:href="#linear-gradient-4"/><linearGradient id="linear-gradient-7" x1="671.28" y1="350.1" x2="635.05" y2="395.05" xlink:href="#linear-gradient-4"/><linearGradient id="linear-gradient-8" x1="31.3" y1="204.01" x2="35.43" y2="317.29" gradientUnits="userSpaceOnUse"><stop offset="0" stop-color="#b1ffbe"/><stop offset="1" stop-color="#309d65"/></linearGradient><linearGradient id="linear-gradient-9" x1="51.5" y1="341.59" x2="29.48" y2="362.22" xlink:href="#linear-gradient-4"/><linearGradient id="linear-gradient-10" x1="222.89" y1="192.07" x2="140.12" y2="235.18" gradientUnits="userSpaceOnUse"><stop offset="0" stop-color="#d7e4fa"/><stop offset="1" stop-color="#6180ba"/></linearGradient><linearGradient id="linear-gradient-11" x1="481.54" y1="194.9" x2="454.02" y2="238.24" xlink:href="#linear-gradient-10"/><linearGradient id="linear-gradient-12" x1="291.64" y1="70.99" x2="252.2" y2="70.31" gradientUnits="userSpaceOnUse"><stop offset="0" stop-color="#ffd25f"/><stop offset="1" stop-color="#ff9b3f"/></linearGradient></defs><g id="Layer_2" data-name="Layer 2"><g id="Layer_1-2" data-name="Layer 1"><g id="freepik--background-complete--inject-8"><rect class="cls-1" x="503.13" y="12.09" width="108.79" height="202.19"/><polygon class="cls-2" points="611.92 14.47 503.13 152.86 503.13 12.09 611.92 12.09 611.92 14.47"/><rect class="cls-3" x="503.13" y="70.26" width="111.15" height="2.15"/><rect class="cls-3" x="503.13" y="118.4" width="111.15" height="2.15"/><rect class="cls-3" x="503.13" y="166.55" width="111.15" height="2.15"/><rect class="cls-3" x="554.77" y="71.34" width="5.5" height="148.68"/><rect class="cls-3" x="524.08" y="12.09" width="2.49" height="59.24"/><rect class="cls-3" x="545.55" y="12.09" width="2.49" height="59.24"/><rect class="cls-3" x="567.03" y="12.09" width="2.49" height="59.24"/><rect class="cls-3" x="588.51" y="12.09" width="2.49" height="59.24"/><rect class="cls-2" x="493.29" y="2.22" width="5.06" height="219.79"/><polygon class="cls-4" points="622.99 222.62 617.93 220.68 617.93 2.22 622.99 2.22 622.99 222.62"/><rect class="cls-4" x="493.29" width="129.7" height="5.86"/><rect class="cls-4" x="489.71" y="223.34" width="136.71" height="5.46"/><polygon class="cls-3" points="617.93 220.68 626.41 223.34 489.71 223.34 498.35 220.68 617.93 220.68"/><path class="cls-5" d="M646.07,307.55c4.84-2.49,10.53-2.82,15.9-1.93,2.88.48,5.89,1.34,7.85,3.51s2.34,6,.08,7.84a7.53,7.53,0,0,1-4.95,1.25c-4.2-.05-8.86-.79-12.22,1.74-1.91,1.44-3.19,3.84-5.48,4.55a5.41,5.41,0,0,1-6-2.65,9.36,9.36,0,0,1-.67-6.83A10.44,10.44,0,0,1,646.07,307.55Z"/><path class="cls-6" d="M635,286.17c3,4.22,8.7,2.82,11.36.25s3.79-6.32,4.82-9.88c2.34-8.14,4.7-16.68,3-25a13.87,13.87,0,0,0-3.19-6.79,7.26,7.26,0,0,0-6.86-2.29c-2.9.77-4.7,3.61-6,6.31a59.56,59.56,0,0,0-5.88,25.53c0,4.12.47,8.43,2.79,11.83"/><path class="cls-7" d="M626.88,292.23c3.21-3.81,3.82-9.37,2.39-14.14s-4.66-8.83-8.38-12.15a45,45,0,0,0-15-8.85,16,16,0,0,0-6.75-1.14,7.12,7.12,0,0,0-5.66,3.42c-1.57,3-.06,6.66,1.58,9.64a114.68,114.68,0,0,0,9.85,15c3,3.81,6.33,7.56,10.83,9.28s9.17,1.52,11.56-1.6"/><path class="cls-8" d="M634.8,349.87a9.54,9.54,0,0,0,.26-1.92c.14-1.4.31-3.15.51-5.24a69.42,69.42,0,0,1,1.18-7.68,59.66,59.66,0,0,1,2.79-9.06,33.56,33.56,0,0,1,4.63-8.21A17.5,17.5,0,0,1,650,312.9a16.54,16.54,0,0,1,4.93-1.54,8.71,8.71,0,0,0,1.91-.27,7.87,7.87,0,0,0-1.94,0,14.79,14.79,0,0,0-5.14,1.33,17.2,17.2,0,0,0-6.15,4.88,33,33,0,0,0-4.8,8.37,54.57,54.57,0,0,0-2.77,9.21,65.67,65.67,0,0,0-1,7.78c-.17,2.22-.23,4-.26,5.27A9,9,0,0,0,634.8,349.87Z"/><path class="cls-8" d="M635.16,345.8a4.39,4.39,0,0,0,.05-.89v-2.55c0-2.21,0-5.41.12-9.35.19-7.9.87-16.4,2.18-28.38,1.25-11.27,2.92-24.38,4.68-32.9.38-1.94.76-3.69,1.11-5.22s.64-2.85.92-3.92.44-1.82.59-2.47a.45.45,0,0,0,.37-.52.45.45,0,0,0-.52-.37.45.45,0,0,0,0,.89c-.19.64-.44,1.44-.74,2.44s-.66,2.37-1,3.89-.82,3.26-1.23,5.2a288.71,288.71,0,0,0-4.91,30.53c-1.32,12-1.91,22.94-2,30.86,0,3.95,0,7.16.13,9.37.07,1,.12,1.87.16,2.54A4,4,0,0,0,635.16,345.8Z"/><path class="cls-8" d="M635.21,324.8a16.87,16.87,0,0,0,0-2.66c-.1-1.71-.33-4.18-.81-7.2a94.2,94.2,0,0,0-2.35-10.5A83.21,83.21,0,0,0,627.63,292a66.08,66.08,0,0,0-12.89-20.08,33.35,33.35,0,0,0-3-2.82c-.47-.39-.88-.78-1.3-1.09l-1.17-.82a18.08,18.08,0,0,0-2.24-1.43c-.13.17,3.17,2.12,7.34,6.55a69.62,69.62,0,0,1,12.57,20,96,96,0,0,1,4.41,12.31c1.15,3.86,1.92,7.4,2.5,10.39a66.21,66.21,0,0,1,1,7.14A20.07,20.07,0,0,0,635.21,324.8Z"/><polygon class="cls-9" points="614.83 361.95 616.94 390.89 654.13 390.89 656.24 361.95 614.83 361.95"/><rect class="cls-10" x="611.24" y="350.54" width="49.44" height="11.41"/><polygon class="cls-11" points="611.24 389.79 611.24 392.95 613.56 392.95 659.86 392.95 659.86 389.79 611.24 389.79"/><polygon class="cls-12" points="615.84 398.51 613.56 392.95 658.09 392.95 655.43 398.51 615.84 398.51"/><path class="cls-2" d="M655.55,371.41a1.06,1.06,0,0,1-.17.26l-.56.74-2.19,2.77-.1.12-.09-.12-5.3-7.38h.31l-5.24,7.41-.16.24-.19-.22-6.23-7.37H636l-.35.43-5.55,7-.19.23-.17-.24-5.22-7.48h.3l-6.45,7.36-.12.13-.08-.15c-.85-1.43-1.53-2.57-2-3.39l-.51-.91a1.37,1.37,0,0,1-.16-.32,2.68,2.68,0,0,1,.21.29l.58.87L618.4,375h-.2l6.35-7.44.16-.19.15.2c1.6,2.25,3.38,4.73,5.29,7.39h-.36l5.54-7c.12-.15.24-.29.34-.43l.18-.22.18.22,6.2,7.41h-.35c1.91-2.67,3.7-5.15,5.29-7.38l.16-.22.15.22c2.1,3,3.88,5.53,5.21,7.44h-.19l2.25-2.7.61-.7C655.47,371.48,655.54,371.4,655.55,371.41Z"/><path class="cls-2" d="M656.76,361.8c0,.12-9.32.23-20.81.23s-20.81-.11-20.81-.23,9.31-.24,20.81-.24S656.76,361.63,656.76,361.8Z"/><path class="cls-2" d="M658.63,393.26c0,.13-10.13.23-22.62.23s-22.61-.1-22.61-.23S623.52,393,636,393,658.63,393.13,658.63,393.26Z"/><path class="cls-13" d="M29.28,187.6s-7.57-.54-6.87,16.45,2.43,26,2.43,26-.23,3.77-3.14,3-8.41-4.41-11.13-1.66-1.81,7.2,1.92,12.34S24,260.47,24.68,261.52s1,3-1.11,2.77-16-4.92-17.88,1.84S16.63,285.52,18,286.93s1.44,2.29.88,3.14-5.09-1.18-9.12-2.37S.8,285.85.06,289.84,4.94,305.51,26,317.78l10.11,5,9.57-6.1c19.69-14.32,24.11-26.5,23-30.39s-5.92-2.75-9.81-1.17-8.2,4.06-8.84,3.27-.65-1.68.57-3.21,12.63-15.35,10.12-21.89-15.94-.44-18-.05-2-1.55-1.38-2.65,7.14-13.33,10.33-18.79,3.76-9.93.68-12.48-8.07,1.75-10.9,2.77-3.43-2.7-3.43-2.7.82-9.18-.19-26.16-8.66-15.63-8.66-15.63"/><path class="cls-4" d="M29.88,202.8v.36a4.94,4.94,0,0,0,.08,1c.07.94.16,2.29.28,4,.23,3.48.53,8.53.87,14.77.69,12.47,1.5,29.71,2.34,48.75s1.6,36.29,2.22,48.77c.32,6.22.57,11.27.75,14.77.09,1.73.15,3.08.2,4v1a2,2,0,0,1,0,.35v-.35a5.72,5.72,0,0,0-.08-1c-.06-.93-.15-2.28-.27-4-.23-3.48-.53-8.53-.88-14.77-.65-12.38-1.46-29.65-2.29-48.65S31.5,235.52,30.88,223c-.32-6.22-.58-11.27-.75-14.77-.09-1.74-.16-3.09-.2-4v-1.05Z"/><path class="cls-4" d="M18.05,236.91a2.65,2.65,0,0,1,.63.52c.39.35.93.88,1.6,1.54,1.34,1.32,3.13,3.2,5.07,5.3l5,5.41,1.5,1.64a2.85,2.85,0,0,1,.53.62,3.11,3.11,0,0,1-.63-.52c-.39-.35-.94-.88-1.6-1.55-1.32-1.33-3.09-3.23-5-5.33s-3.65-3.93-5-5.38l-1.52-1.62A3.84,3.84,0,0,1,18.05,236.91Z"/><path class="cls-4" d="M33.33,251.61c-.07-.08,3.63-4,8.26-8.65s8.46-8.45,8.54-8.38-3.62,4-8.26,8.65S33.41,251.68,33.33,251.61Z"/><path class="cls-4" d="M33.29,280.91a4,4,0,0,1,.71-.44l2-1.11c1.66-.94,4-2.25,6.45-3.77s4.7-3,6.29-4l1.89-1.26a3.75,3.75,0,0,1,.72-.42,4.14,4.14,0,0,1-.63.55c-.43.33-1,.8-1.82,1.36-1.56,1.12-3.75,2.62-6.25,4.15s-4.82,2.8-6.53,3.68l-2,1A3.45,3.45,0,0,1,33.29,280.91Z"/><path class="cls-4" d="M16.54,270.66a3,3,0,0,1,.7.33c.44.23,1.06.58,1.83,1,1.54.87,3.65,2.1,6,3.48s4.41,2.65,5.91,3.59c.76.46,1.36.85,1.77,1.12a3.18,3.18,0,0,1,.63.46,3.19,3.19,0,0,1-.7-.33l-1.84-1c-1.54-.87-3.65-2.1-6-3.48s-4.41-2.65-5.92-3.59l-1.77-1.12A3.9,3.9,0,0,1,16.54,270.66Z"/><path class="cls-4" d="M13.22,296.52a5.66,5.66,0,0,1,.89.44l2.35,1.29c2,1.11,4.7,2.67,7.69,4.41s5.69,3.34,7.64,4.51l2.29,1.41a3.77,3.77,0,0,1,.81.56,5.2,5.2,0,0,1-.89-.43l-2.37-1.3c-2-1.11-4.7-2.67-7.69-4.41s-5.69-3.34-7.64-4.51L14,297.09A4,4,0,0,1,13.22,296.52Z"/><path class="cls-4" d="M34.46,308.69a6.44,6.44,0,0,1,.88-.59l2.46-1.5c2.07-1.26,4.93-3,8-5s5.88-3.92,7.87-5.31L56,294.65a5.26,5.26,0,0,1,.9-.57,6.7,6.7,0,0,1-.81.69c-.53.42-1.31,1-2.29,1.74-2,1.45-4.7,3.39-7.82,5.41s-6,3.75-8.11,5c-1,.6-1.91,1.08-2.52,1.39A5.74,5.74,0,0,1,34.46,308.69Z"/><polygon class="cls-14" points="49.66 326.14 21.68 326.14 30.81 395.26 40.53 395.26 49.66 326.14"/><path class="cls-2" d="M23.13,334.64s0,.1.15.24a1.94,1.94,0,0,0,.68.49,3.36,3.36,0,0,0,3-.37c1.13-.62,2.11-1.84,3.63-2.38a7.87,7.87,0,0,1,5.14.1A22.08,22.08,0,0,1,40.52,335a34.82,34.82,0,0,0,3.9,2.09,10.72,10.72,0,0,0,2.87.83,5.52,5.52,0,0,0,.81.06h.29a14.54,14.54,0,0,1-3.89-1.22,37.57,37.57,0,0,1-3.81-2.15,21.42,21.42,0,0,0-4.87-2.4,8.28,8.28,0,0,0-5.43-.06,7.25,7.25,0,0,0-2.05,1.27,17.51,17.51,0,0,1-1.6,1.24,3.28,3.28,0,0,1-2.72.47A2.88,2.88,0,0,1,23.13,334.64Z"/><path class="cls-2" d="M24.15,347.37a8.8,8.8,0,0,1,.66-.74,6.28,6.28,0,0,1,2.24-1.42,10.12,10.12,0,0,1,3.89-.59,41.92,41.92,0,0,1,4.87.67,16.46,16.46,0,0,0,5,.2,13.35,13.35,0,0,0,3.92-1.12,12.44,12.44,0,0,0,2.36-1.4,3.19,3.19,0,0,0,.75-.67,27.88,27.88,0,0,1-3.21,1.78,14.59,14.59,0,0,1-3.84,1,17.23,17.23,0,0,1-4.86-.24A36.93,36.93,0,0,0,31,344.2a10,10,0,0,0-4,.71,5.78,5.78,0,0,0-2.25,1.6,3.75,3.75,0,0,0-.42.62C24.17,347.28,24.14,347.36,24.15,347.37Z"/><path class="cls-2" d="M46.49,354.18a2.46,2.46,0,0,0-.77-.4,8.28,8.28,0,0,0-2.32-.49,14.76,14.76,0,0,0-3.51.2c-1.3.21-2.7.57-4.17.88a17.66,17.66,0,0,1-4.17.47,9.17,9.17,0,0,1-3.3-.71,7.67,7.67,0,0,1-2.51-1.87,2.34,2.34,0,0,0,.47.73,5.91,5.91,0,0,0,1.9,1.43,9.11,9.11,0,0,0,3.43.84,17,17,0,0,0,4.27-.44c1.49-.32,2.88-.69,4.15-.92a15.76,15.76,0,0,1,3.42-.29A13.12,13.12,0,0,1,46.49,354.18Z"/><path class="cls-2" d="M26.63,363.8a4.54,4.54,0,0,1,2.72-.27,12.45,12.45,0,0,1,2.84,1.06,10.77,10.77,0,0,0,3.69,1A11,11,0,0,0,42.57,364a8.71,8.71,0,0,0,1.67-1.28c.34-.36.52-.57.49-.59a21.63,21.63,0,0,1-2.32,1.59,11.46,11.46,0,0,1-6.49,1.38c-2.65-.15-4.68-1.73-6.52-1.94a4.11,4.11,0,0,0-2.11.18A1.5,1.5,0,0,0,26.63,363.8Z"/><path class="cls-2" d="M28.18,377a5.36,5.36,0,0,0,2.34-.47c1.4-.47,3.14-1.54,5.18-2.35a8.38,8.38,0,0,1,3-.62,5.46,5.46,0,0,1,2.39.54,5.4,5.4,0,0,1,1.73,1.49,1.28,1.28,0,0,0-.27-.59,3.63,3.63,0,0,0-1.31-1.18,5.37,5.37,0,0,0-2.54-.69,8.69,8.69,0,0,0-3.14.62c-2.1.84-3.79,1.95-5.13,2.48S28.17,377,28.18,377Z"/><path class="cls-2" d="M29.55,383.21a6.63,6.63,0,0,0,1.78.58,33.15,33.15,0,0,0,4.42.74,32.08,32.08,0,0,0,4.49.13,6.06,6.06,0,0,0,1.85-.22c0-.14-2.83,0-6.29-.36S29.63,383.08,29.55,383.21Z"/></g><g id="freepik--Floor--inject-8"><path class="cls-15" d="M667.1,397.17c0,.14-149.35.26-333.53.26S0,397.31,0,397.17s149.32-.27,333.57-.27S667.1,397,667.1,397.17Z"/></g><g id="freepik--character-1--inject-8"><rect class="cls-16" x="134.74" y="297.1" width="7.31" height="87.63"/><path class="cls-16" d="M189.46,297.1H84.85A11.36,11.36,0,0,1,96.2,285.74h81.91a11.36,11.36,0,0,1,11.35,11.36Z"/><path class="cls-15" d="M144.82,297.32a38.24,38.24,0,0,1-6.42.27,38.29,38.29,0,0,1-6.42-.27,38.29,38.29,0,0,1,6.42-.27A38.24,38.24,0,0,1,144.82,297.32Z"/><path class="cls-16" d="M170.39,392.67h-1a31.13,31.13,0,0,0-62.25,0h-1a32.16,32.16,0,0,1,64.31-1.13c0,.37,0,.75,0,1.13Z"/><path class="cls-15" d="M111.42,392.09a4.83,4.83,0,1,1-4.83-4.83h0a4.82,4.82,0,0,1,4.83,4.81Z"/><path class="cls-16" d="M174.9,392.31a4.82,4.82,0,1,1-4.82-4.82,4.82,4.82,0,0,1,4.82,4.82Z"/><path class="cls-16" d="M170.08,384.73c0,.15-14,.27-31.25.27s-31.25-.12-31.25-.27,14-.27,31.25-.27S170.08,384.58,170.08,384.73Z"/><path class="cls-16" d="M82.47,210.34v64.51a15.32,15.32,0,0,0,15.3,15.32h49.72l-6.75-79.83a6.83,6.83,0,0,0-6.83-6.83H89.29a6.82,6.82,0,0,0-6.82,6.82Z"/><path class="cls-15" d="M100,285.74a4.05,4.05,0,0,1-.56-.61,20.27,20.27,0,0,1-1.43-1.87,30.16,30.16,0,0,1-3.88-7.76,31.07,31.07,0,0,1-1.33-5.86,55.77,55.77,0,0,1-.21-6.84V247.07c0-11.14.06-21.22.08-28.58,0-3.62.06-6.57.08-8.66v-2.36a4.52,4.52,0,0,1,0-.82,3.77,3.77,0,0,1,0,.82v2.36c0,2.09,0,5,.08,8.66,0,7.36,0,17.44.08,28.58V262.8a55.6,55.6,0,0,0,.21,6.83,31.37,31.37,0,0,0,5,13.56c.56.85,1,1.5,1.35,1.93A2.38,2.38,0,0,1,100,285.74Z"/><path class="cls-15" d="M127.1,285.55a10.4,10.4,0,0,1-1.58.11l-4.3.11c-3.64.08-8.66.14-14.21.18l-7.82.05a26.69,26.69,0,0,0-6.3.57,10.44,10.44,0,0,0-3.8,1.82c-.81.6-1.17,1.05-1.21,1s.07-.12.25-.33a6.51,6.51,0,0,1,.83-.83,9.89,9.89,0,0,1,3.84-2,25.43,25.43,0,0,1,6.38-.7c2.4-.06,5-.06,7.82-.09h14.22l4.31.05A8.22,8.22,0,0,1,127.1,285.55Z"/><path class="cls-17" d="M237.89,176.55l-4.85,5-9.71-10.34,3.23-5.53c.17-.71.35-1.5.52-2.39a9.43,9.43,0,0,0,.06-3.18,14.52,14.52,0,0,0-1-3.83c-.56-1.07.44-2.28,1.41-1.79s2.59,3.4,2.81,7.31,3.74-1.07,5-2.86,5.61-7.13,6.47-7.15c1.26,0,1.53,1.34.18,3.1s-5,7.32-4.06,8h0a4.73,4.73,0,0,1,4.8,2.7c.83,1.76,1.74,4.25.88,5.33A61,61,0,0,1,237.89,176.55Z"/><polygon class="cls-17" points="223.33 171.18 188.46 199.89 202.46 219.45 233.04 181.53 223.33 171.18"/><path class="cls-18" d="M241.32,163.7a13.26,13.26,0,0,1-1.73,1.94l-2,2-1.18,1.16a2.43,2.43,0,0,1-1.74.87,1.23,1.23,0,0,1-1-.55,1.76,1.76,0,0,1-.25-1,2.84,2.84,0,0,1,.82-1.61,27,27,0,0,1,2-2,9.73,9.73,0,0,1,2.11-1.55,21.32,21.32,0,0,1-1.86,1.82c-.57.56-1.23,1.25-1.92,2a2.46,2.46,0,0,0-.67,1.32.89.89,0,0,0,.73,1,2.1,2.1,0,0,0,1.36-.72l1.2-1.15,2.07-1.93A12.77,12.77,0,0,1,241.32,163.7Z"/><path class="cls-18" d="M242.63,166.22A10.66,10.66,0,0,1,241,168.1L239.05,170c-.37.36-.72.74-1.17,1.13a2.88,2.88,0,0,1-.79.48,1.36,1.36,0,0,1-1.05,0,1.51,1.51,0,0,1-.74-1.77,3.5,3.5,0,0,1,.91-1.45,23.9,23.9,0,0,1,2-1.9,9.06,9.06,0,0,1,2-1.49,19.72,19.72,0,0,1-1.78,1.76,25.7,25.7,0,0,0-1.87,2,3.24,3.24,0,0,0-.77,1.25,1,1,0,0,0,.46,1.17c.4.19.91-.08,1.31-.41s.78-.73,1.15-1.08l2-1.85A12.11,12.11,0,0,1,242.63,166.22Z"/><path class="cls-18" d="M244,168.61a10.53,10.53,0,0,1-1.59,1.81l-1.83,1.86a7.92,7.92,0,0,1-1.19,1.05,1.78,1.78,0,0,1-.87.33,1.24,1.24,0,0,1-1-.35,1.67,1.67,0,0,1-.28-1.82,4.43,4.43,0,0,1,1-1.31,25,25,0,0,1,1.9-1.81,8.46,8.46,0,0,1,2-1.42,17.05,17.05,0,0,1-1.71,1.69c-.53.51-1.15,1.14-1.8,1.87a4.64,4.64,0,0,0-.84,1.17,1.18,1.18,0,0,0,.18,1.26.94.94,0,0,0,1.2,0,6.67,6.67,0,0,0,1.12-1l1.91-1.77A11.58,11.58,0,0,1,244,168.61Z"/><path class="cls-18" d="M232.9,174.64a12,12,0,0,1,.24-1.46,7.44,7.44,0,0,0-2.23-6.37c-.65-.63-1.14-.93-1.1-1a2.85,2.85,0,0,1,1.34.73,6.61,6.61,0,0,1,2.13,3,6.72,6.72,0,0,1,.22,3.69C233.28,174.17,233,174.67,232.9,174.64Z"/><path class="cls-19" d="M164,203.67l5.2,52.24L105,257.3l.35-42.05L100.7,179c3-17,26.82-18.13,26.82-18.13l18.67-.3a32.82,32.82,0,0,1,18.36,4.07s19,10.32,18.77,36.52"/><path class="cls-19" d="M105.63,170.16c-5.6,5.35-11,16.09-9,37.61l29.84-1.23-.84-29.44a10,10,0,0,0-3.85-7.6h0A12.47,12.47,0,0,0,105.63,170.16Z"/><path class="cls-1" d="M168,248.43a3,3,0,0,1-.53.4,9.18,9.18,0,0,1-1.74.81,13.63,13.63,0,0,1-7,.27c-2.94-.53-6.2-2-9.94-3a33.32,33.32,0,0,0-12.5-.78c-4.47.52-8.45,2.17-12.09,3.58a37.78,37.78,0,0,1-10,2.8,16.45,16.45,0,0,1-7-.68,12.38,12.38,0,0,1-1.74-.79,3,3,0,0,1-.56-.36,16.33,16.33,0,0,0,2.37,1,16.92,16.92,0,0,0,6.86.51,38.23,38.23,0,0,0,9.88-2.87c3.61-1.44,7.65-3.13,12.19-3.66a33.3,33.3,0,0,1,12.69.83c1.91.5,3.65,1.16,5.29,1.73a39.09,39.09,0,0,0,4.6,1.36,13.93,13.93,0,0,0,6.85-.1A13.56,13.56,0,0,0,168,248.43Z"/><g class="cls-20"><path d="M105.06,248.06l.26.2a23.68,23.68,0,0,0,24.81,2.39c3-1.55,5.69-3.77,8.9-4.87,4.55-1.55,9.53-.65,14.28.11s10.42,1.27,14.72-.89l-.56-6.59L105.22,240"/></g><path class="cls-19" d="M168.14,393.48l-.15-6.24-16.69.57.1,9.75,1,.07c4.58.26,23.34,1,26.41.09C182.27,396.69,168.14,393.48,168.14,393.48Z"/><g class="cls-21"><path class="cls-22" d="M157.43,397.44a5.92,5.92,0,0,0-2-3.66,4.82,4.82,0,0,0-4.07-1.12l.06,4.66Z"/></g><path class="cls-23" d="M175,395.29s5,1.44,4.33,2.25-19.6.77-28,0v-.37l22.15.24S174.08,395.33,175,395.29Z"/><path class="cls-15" d="M151.16,397.17h1.11l3,.14c2.55.09,6.08.18,10,.2s7.43-.06,10-.14l3-.12h-3c-2.56,0-6.08.09-10,.07s-7.42-.08-10-.14l-3-.07h-1.11Z"/><path class="cls-15" d="M173.56,397.69a4.63,4.63,0,0,1,1.57-2.6,2.73,2.73,0,0,0-1.6,2.6Z"/><path class="cls-15" d="M168.63,395.19a2.09,2.09,0,0,0,.53-.64c.24-.38.4-.71.35-.74s-.28.25-.52.63A2.08,2.08,0,0,0,168.63,395.19Z"/><path class="cls-15" d="M167.32,394.47a2.45,2.45,0,0,0,.59-.39c.29-.26.49-.5.45-.54s-.3.14-.59.39S167.28,394.43,167.32,394.47Z"/><path class="cls-15" d="M166.47,392.9a3.93,3.93,0,0,0,1.74,0,2.13,2.13,0,0,0-.87-.11A1.86,1.86,0,0,0,166.47,392.9Z"/><path class="cls-15" d="M166.18,391.8a1.72,1.72,0,0,0,1,.29,1.8,1.8,0,0,0,1-.13,4.76,4.76,0,0,0-1-.07A5.55,5.55,0,0,0,166.18,391.8Z"/><path class="cls-15" d="M169.23,393.74a3.2,3.2,0,0,0,1.07,0,5.51,5.51,0,0,0,1.14-.24,3.42,3.42,0,0,0,.65-.27.54.54,0,0,0,.26-.33.41.41,0,0,0-.16-.43,2,2,0,0,0-2.42.57,2.05,2.05,0,0,0-.35.71.71.71,0,0,0,0,.29,3.08,3.08,0,0,1,.49-.91,1.9,1.9,0,0,1,.91-.59,1.68,1.68,0,0,1,1.28.09c.17.12.1.32-.09.43a2.66,2.66,0,0,1-.6.26,6.82,6.82,0,0,1-1.1.28C169.63,393.71,169.23,393.7,169.23,393.74Z"/><path class="cls-15" d="M169.51,393.8a1.07,1.07,0,0,0,.12-.74,1.49,1.49,0,0,0-.29-.78,1.06,1.06,0,0,0-.89-.55.44.44,0,0,0-.33.49,1.4,1.4,0,0,0,.18.48,2.93,2.93,0,0,0,.51.65,1.62,1.62,0,0,0,.61.43,7.25,7.25,0,0,1-.51-.53,4.83,4.83,0,0,1-.44-.64c-.15-.23-.25-.63,0-.68s.54.24.7.46a1.58,1.58,0,0,1,.3.69A4.35,4.35,0,0,1,169.51,393.8Z"/><path class="cls-15" d="M151.51,392.63q.62,0,1.23,0a5.2,5.2,0,0,1,4.35,3.48c.25.72.27,1.2.31,1.19a.91.91,0,0,0,0-.33,3.42,3.42,0,0,0-.18-.9,5.07,5.07,0,0,0-4.46-3.58,4.71,4.71,0,0,0-.92,0A1.92,1.92,0,0,0,151.51,392.63Z"/><path class="cls-15" d="M159.52,395.8a10,10,0,0,0,2.43.25,9.43,9.43,0,0,0,2.43-.19c0-.06-1.09,0-2.43,0S159.53,395.8,159.52,395.8Z"/><path class="cls-15" d="M156.26,395.8s.09.23.2.48.17.47.23.47.09-.27,0-.55A.65.65,0,0,0,156.26,395.8Z"/><path class="cls-15" d="M155,394.28a1.09,1.09,0,0,0,.24.38c.17.17.34.29.38.25s-.07-.21-.24-.39S155.08,394.24,155,394.28Z"/><path class="cls-15" d="M153.28,393.57c0,.06.24.06.48.15s.42.21.46.18-.09-.27-.4-.37S153.27,393.52,153.28,393.57Z"/><path class="cls-15" d="M152,393.24c0,.05.08.14.22.19s.26.06.28,0-.07-.14-.21-.19S152.05,393.19,152,393.24Z"/><polygon class="cls-24" points="151.34 391.72 168.12 391.02 168.12 390.34 151.3 390.34 151.34 391.72"/><path class="cls-19" d="M222.86,392.59l-.16-6.39-17.07.6.1,10,1,.07c4.7.27,23.9,1,27,.1C237.31,395.87,222.86,392.59,222.86,392.59Z"/><g class="cls-21"><path class="cls-22" d="M211.89,396.64a6,6,0,0,0-2.06-3.74,4.92,4.92,0,0,0-4.2-1.1l.06,4.77Z"/></g><path class="cls-23" d="M229.92,394.45s5.06,1.47,4.43,2.3-20.06.79-28.63,0v-.38l22.67.25S228.93,394.49,229.92,394.45Z"/><path class="cls-15" d="M205.48,396.37h.29l.84.06,3.09.14c2.62.1,6.23.19,10.22.2s7.6,0,10.21-.13l3.09-.12.84,0h-.84l-3.09.06c-2.62,0-6.23.09-10.21.08s-7.6-.08-10.21-.15l-3.1-.07h-.84Z"/><path class="cls-15" d="M228.4,396.9a8.62,8.62,0,0,1,.59-1.48,7.38,7.38,0,0,1,1-1.18,2.78,2.78,0,0,0-1.64,2.66Z"/><path class="cls-15" d="M223.39,394.34a2.16,2.16,0,0,0,.54-.65c.25-.39.41-.74.36-.77s-.29.27-.54.66S223.34,394.31,223.39,394.34Z"/><path class="cls-15" d="M222,393.61a2.64,2.64,0,0,0,.6-.4c.29-.26.5-.51.47-.56s-.31.14-.6.4S222,393.56,222,393.61Z"/><path class="cls-15" d="M221.15,392a2,2,0,0,0,.88.11,1.91,1.91,0,0,0,.89-.09,2,2,0,0,0-.88-.11A1.93,1.93,0,0,0,221.15,392Z"/><path class="cls-15" d="M220.85,390.86a2.51,2.51,0,0,0,2,.16,4.76,4.76,0,0,0-1-.07A8.26,8.26,0,0,0,220.85,390.86Z"/><path class="cls-15" d="M224,392.85a2.86,2.86,0,0,0,1.09,0,6.58,6.58,0,0,0,1.17-.25,3.06,3.06,0,0,0,.67-.28.63.63,0,0,0,.27-.33.42.42,0,0,0-.17-.44,2,2,0,0,0-2.84,1.31.71.71,0,0,0,0,.29,3.63,3.63,0,0,1,.5-.93,1.93,1.93,0,0,1,.94-.6,1.63,1.63,0,0,1,1.3.09c.18.13.11.33-.09.45a4.14,4.14,0,0,1-.61.26,8.51,8.51,0,0,1-1.13.29A7,7,0,0,0,224,392.85Z"/><path class="cls-15" d="M224.25,392.91a1,1,0,0,0,.13-.76,1.66,1.66,0,0,0-.3-.8,1.08,1.08,0,0,0-.9-.56.43.43,0,0,0-.34.5h0a1.33,1.33,0,0,0,.18.48,3.43,3.43,0,0,0,.52.67,1.71,1.71,0,0,0,.62.44,5.54,5.54,0,0,1-.52-.54,4.27,4.27,0,0,1-.45-.66c-.15-.23-.25-.65,0-.7s.55.25.72.47a1.68,1.68,0,0,1,.31.71A3,3,0,0,1,224.25,392.91Z"/><path class="cls-15" d="M205.84,391.72c.42,0,.84,0,1.25,0a5.52,5.52,0,0,1,2.74,1.14,5.41,5.41,0,0,1,1.71,2.43c.26.73.28,1.22.32,1.21a1,1,0,0,0,0-.34,3.66,3.66,0,0,0-.18-.92,5.17,5.17,0,0,0-4.57-3.66,4.92,4.92,0,0,0-.94,0C206,391.67,205.83,391.7,205.84,391.72Z"/><path class="cls-15" d="M214,395a14.2,14.2,0,0,0,5,.06c0-.06-1.12,0-2.49,0S214,394.93,214,395Z"/><path class="cls-15" d="M210.7,395a3.58,3.58,0,0,0,.2.5c.11.26.18.48.23.47s.09-.27,0-.56S210.73,394.93,210.7,395Z"/><path class="cls-15" d="M209.44,393.41a1.12,1.12,0,0,0,.25.39c.18.18.35.29.39.26s-.07-.22-.24-.4S209.49,393.37,209.44,393.41Z"/><path class="cls-15" d="M207.63,392.69c0,.06.24.05.49.14s.43.22.47.19-.1-.28-.41-.38S207.63,392.63,207.63,392.69Z"/><path class="cls-15" d="M206.37,392.35s.08.14.22.19.27.06.29,0-.08-.14-.22-.2S206.39,392.29,206.37,392.35Z"/><polygon class="cls-24" points="205.66 390.79 222.83 390.07 222.83 389.37 205.62 389.37 205.66 390.79"/><path class="cls-15" d="M208.56,256.52l-68.17-.86,14.24,32,39.1.3a4.93,4.93,0,0,1,4.9,4.73l4.2,98,26.37-2-2.67-112.22a20.68,20.68,0,0,0-18-20Z"/><path class="cls-15" d="M143.78,290.33l2.9,101.25,32.7-2.33s-1.81-95.5-4.25-121.72C173.45,249.59,105,257.3,105,257.3c-1,35.73,38.79,33,38.79,33"/><path class="cls-16" d="M143.39,282.41a38.27,38.27,0,0,1,.52,9.13,38.79,38.79,0,0,1-.52-9.13Z"/><path class="cls-16" d="M142.2,255.85a1.88,1.88,0,0,1,.58,0h1.67c1.45,0,3.54.11,6.13.26s5.67.37,9.07.88a26.53,26.53,0,0,1,10.51,3.81,11.6,11.6,0,0,1,2.25,2,7.52,7.52,0,0,1,1.47,2.52,25.43,25.43,0,0,1,1.09,5.31,86.61,86.61,0,0,1,.37,9.11v7.8a2.81,2.81,0,0,1,0,.58,2.8,2.8,0,0,1-.09-.58c0-.38-.08-.94-.11-1.66-.08-1.45-.13-3.55-.18-6.14s-.1-5.67-.49-9.05a25.61,25.61,0,0,0-1.08-5.19,8.7,8.7,0,0,0-3.54-4.22,26.47,26.47,0,0,0-10.28-3.72c-3.37-.53-6.44-.8-9-1l-6.11-.43-1.67-.14A4.2,4.2,0,0,1,142.2,255.85Z"/><path class="cls-15" d="M96.57,207.8a2.26,2.26,0,0,0,.52,0h1.49l5.48-.2c4.63-.2,11-.5,18.07-.86l3.62-.19H126v-.24c0-6.18-.07-11.64-.09-15.65,0-1.91-.05-3.47-.07-4.63v-1.25a1.62,1.62,0,0,0,0-.44,1.3,1.3,0,0,0,0,.44V186c0,1.16,0,2.72-.08,4.63,0,4,0,9.47-.08,15.65l.23-.25-3.61.18c-7.06.37-13.44.73-18.07,1l-5.47.37-1.48.12A1.78,1.78,0,0,0,96.57,207.8Z"/><path class="cls-15" d="M110.42,165.44a18.42,18.42,0,0,1,3.48-.11,12.38,12.38,0,0,1,7.38,3.54,14.52,14.52,0,0,1,3.79,7.33c.43,2.12.34,3.48.44,3.48a3,3,0,0,0,.1-1,13.23,13.23,0,0,0-.19-2.59,14,14,0,0,0-3.78-7.63,12.09,12.09,0,0,0-7.71-3.54,9.47,9.47,0,0,0-2.6.18A2.69,2.69,0,0,0,110.42,165.44Z"/><path class="cls-15" d="M164,180.49a14.8,14.8,0,0,0-.18,2.82v6.89c0,2.69.11,4.85.15,6.74v-.39c0-1.89.09-4.2.15-6.75s0-4.89,0-6.59A13.74,13.74,0,0,0,164,180.49Z"/><path class="cls-17" d="M100,207.8l.71,29.42a11.2,11.2,0,0,0,11.78,10.57,10.58,10.58,0,0,0,1.78-.24l44.47-12.3,3.34-16.45-41.59,8-.53-20Z"/><path class="cls-18" d="M115.83,234a2.72,2.72,0,0,1-.14-1.41,6.82,6.82,0,0,1,3.64-5.54c.79-.4,1.33-.48,1.35-.42A8.52,8.52,0,0,0,115.83,234Z"/><path class="cls-1" d="M125.23,188.05v.35a7,7,0,0,1-.26,1,8.45,8.45,0,0,1-2,3.19,8.75,8.75,0,0,1-5,2.56,14.78,14.78,0,0,1-6.77-1,25.15,25.15,0,0,0-6.5-1.66,9,9,0,0,0-5.19,1.28,9.65,9.65,0,0,0-2.74,2.43c-.53.7-.75,1.14-.79,1.11s0-.12.12-.33a7.2,7.2,0,0,1,.51-.9,8.91,8.91,0,0,1,2.71-2.62,9.22,9.22,0,0,1,5.4-1.45,24.85,24.85,0,0,1,6.64,1.64,14.92,14.92,0,0,0,6.54,1,8.6,8.6,0,0,0,4.78-2.35,9.07,9.07,0,0,0,2.09-3C125.08,188.52,125.18,188,125.23,188.05Z"/><path class="cls-1" d="M122.44,169.8a2.37,2.37,0,0,1-.52.66,11.77,11.77,0,0,1-1.71,1.52,14.69,14.69,0,0,1-14.41,1.82,12.76,12.76,0,0,1-2-1.06,2.37,2.37,0,0,1-.66-.52c0-.08,1,.59,2.82,1.24A15.47,15.47,0,0,0,120,171.73C121.57,170.65,122.37,169.8,122.44,169.8Z"/><path class="cls-1" d="M178,180.8a8.43,8.43,0,0,0-1.57-1.53,8.71,8.71,0,0,0-5.66-1.43c-2.53.14-5.32,1.48-8.14,3.3-1.42.89-2.89,1.9-4.51,2.8a17.22,17.22,0,0,1-5.38,2.05,11,11,0,0,1-5.73-.54,27,27,0,0,1-4.77-2.4c-2.87-1.77-5.53-3.31-8-3.7a8.26,8.26,0,0,0-5.73,1,7.55,7.55,0,0,0-1.63,1.46,3.23,3.23,0,0,1,.3-.49,5.74,5.74,0,0,1,1.22-1.14,8.28,8.28,0,0,1,5.9-1.18c2.61.35,5.35,1.91,8.22,3.65a28.55,28.55,0,0,0,4.7,2.33,10.55,10.55,0,0,0,5.48.51,17,17,0,0,0,5.21-2c1.6-.88,3.06-1.88,4.51-2.77,2.85-1.81,5.73-3.16,8.37-3.26a8.76,8.76,0,0,1,5.8,1.63,5.28,5.28,0,0,1,1.16,1.2A1.73,1.73,0,0,1,178,180.8Z"/><path class="cls-1" d="M164,165a7.52,7.52,0,0,1-2.1,1.23,19,19,0,0,1-11.57,1.26,7.6,7.6,0,0,1-2.32-.75,30.13,30.13,0,0,0,8.15.51A30.09,30.09,0,0,0,164,165Z"/><path class="cls-1" d="M155.74,209.5a9.09,9.09,0,0,0-1.2-.83,8.27,8.27,0,0,0-3.76-1.06,13.46,13.46,0,0,0-5.7,1.11c-2.07.8-4.21,2-6.63,3a23.7,23.7,0,0,1-13.07,1.67,14.89,14.89,0,0,1-3.84-1.25,8,8,0,0,1-1-.53c-.21-.13-.32-.2-.31-.22A21.89,21.89,0,0,0,125.4,213a24.27,24.27,0,0,0,12.82-1.78c2.37-1,4.53-2.19,6.65-3a13.28,13.28,0,0,1,5.9-1,7.89,7.89,0,0,1,3.86,1.26,4.8,4.8,0,0,1,.85.7C155.63,209.38,155.75,209.49,155.74,209.5Z"/><path class="cls-17" d="M139.63,173.55h0a10.63,10.63,0,0,0,10.65-10.63v-.12c0-3.7-.1-6.9-.1-6.9s8.55-.79,9.18-9.25.36-28,.36-28h0a29.51,29.51,0,0,0-29.81,1.9l-1.31.89L129,163A10.65,10.65,0,0,0,139.63,173.55Z"/><path class="cls-18" d="M150.2,155.8A19.58,19.58,0,0,1,139.36,152s2.23,6.26,10.73,6Z"/><path class="cls-17" d="M130.78,130.8c-.15-.05-5.35-.73-4.86,5.41s6.53,3.62,6.53,3.44S130.78,130.8,130.78,130.8Z"/><path class="cls-18" d="M130.39,137.6a1.82,1.82,0,0,1-.27.19,1.16,1.16,0,0,1-.8.08,2.67,2.67,0,0,1-1.42-2.28,3.74,3.74,0,0,1,.18-1.56,1.24,1.24,0,0,1,.74-.88.53.53,0,0,1,.65.24c.1.16.07.29.1.3s.13-.12.06-.37a.69.69,0,0,0-.27-.36.87.87,0,0,0-.61-.11,1.52,1.52,0,0,0-1,1,3.56,3.56,0,0,0-.23,1.74,2.75,2.75,0,0,0,1.77,2.53,1.1,1.1,0,0,0,1-.24A.32.32,0,0,0,130.39,137.6Z"/><path class="cls-15" d="M159.78,120.08c2.09-.51,2.84-3.64,2.77-5.79a6,6,0,0,0-3.53-5,7.7,7.7,0,0,0-6.27.1,6.77,6.77,0,0,0-13.37.37c-.2-1.63-2-2.55-3.7-2.65a5.4,5.4,0,0,0-4.46,1.64,3.34,3.34,0,0,0,0,4.46,7.55,7.55,0,0,0-5.26,1.26,5.57,5.57,0,0,0-2.34,4.75,4.44,4.44,0,0,0,3.31,4c.62.13.78-.29,1.11.25a5.05,5.05,0,0,1,.24,1.77,24.5,24.5,0,0,0,.35,5.8,2.34,2.34,0,0,1,3,1.32,6.78,6.78,0,0,1,.34,3.54c.52.79,1.83.55,2.4-.2A4.42,4.42,0,0,0,135,133l.12-9.8a3.34,3.34,0,0,0,3.16,0,3.26,3.26,0,0,0,1.66-2.68,6.47,6.47,0,0,0,9.15-.12,6.8,6.8,0,0,0,.85-1.09,15.37,15.37,0,0,0,3.22,2.13,5.16,5.16,0,0,0,3.76.33c1.22-.42,2.94-.32,2.92-1.62"/><path class="cls-15" d="M157.49,132.17a1.18,1.18,0,0,1-1.15,1.2,1.12,1.12,0,0,1-1.21-1v0a1.2,1.2,0,0,1,1.14-1.2,1.14,1.14,0,0,1,1.23,1.06Z"/><path class="cls-15" d="M157.75,130.8c-.15.15-1.05-.51-2.33-.51s-2.21.64-2.35.49.08-.35.49-.65a3.24,3.24,0,0,1,1.88-.58,3.06,3.06,0,0,1,1.85.6C157.69,130.49,157.82,130.8,157.75,130.8Z"/><path class="cls-15" d="M145,132.47a1.18,1.18,0,0,1-1.15,1.2,1.13,1.13,0,0,1-1.2-1.06h0a1.19,1.19,0,0,1,1.14-1.2A1.15,1.15,0,0,1,145,132.47Z"/><path class="cls-15" d="M145.19,131.08c-.15.15-1.05-.51-2.33-.51s-2.21.64-2.35.48.08-.34.49-.64a3.24,3.24,0,0,1,1.88-.58,3.06,3.06,0,0,1,1.85.6C145.13,130.73,145.26,131,145.19,131.08Z"/><path class="cls-15" d="M149.82,140.55a8.74,8.74,0,0,1,2.08-.37c.33,0,.63-.1.69-.32a1.59,1.59,0,0,0-.22-1c-.3-.79-.63-1.62-1-2.49a43.37,43.37,0,0,1-2.17-6.49,41.15,41.15,0,0,1,2.69,6.3c.32.88.63,1.71.92,2.5A2,2,0,0,1,153,140a.81.81,0,0,1-.54.48,2.52,2.52,0,0,1-.55.08A8,8,0,0,1,149.82,140.55Z"/><path class="cls-15" d="M146.06,141.43c.21,0,.22,1.38,1.4,2.36s2.67.84,2.68,1-.33.27-1,.29a3.48,3.48,0,0,1-2.23-.78,3,3,0,0,1-1.08-2C145.82,141.8,146,141.43,146.06,141.43Z"/><path class="cls-15" d="M145.52,126.07c-.13.35-1.4.18-2.9.36s-2.71.59-2.91.28c-.09-.15.12-.47.61-.81a5,5,0,0,1,4.42-.49C145.3,125.63,145.57,125.9,145.52,126.07Z"/><path class="cls-15" d="M157.28,127.14c-.23.29-1.11,0-2.17,0s-2,.19-2.16-.11.05-.44.44-.72a3.05,3.05,0,0,1,1.76-.47,3,3,0,0,1,1.73.58C157.25,126.7,157.38,127,157.28,127.14Z"/><path class="cls-16" d="M123.11,118.3a2.33,2.33,0,0,0,.4.91,4.3,4.3,0,0,0,2.48,1.33,10,10,0,0,0,4.52.18A5.3,5.3,0,0,0,133,119.4a2.82,2.82,0,0,0,.92-2.74,1.33,1.33,0,0,0-1.15-.88.9.9,0,0,0-1,.81v0a3.12,3.12,0,0,0,2,2.75,4.75,4.75,0,0,0,3.84,0,7.85,7.85,0,0,0,3.26-2.64,3.66,3.66,0,0,0,.77-2,1.49,1.49,0,0,0-1.08-1.52,1.92,1.92,0,0,0-1.93.51,2.49,2.49,0,0,0-.54,2.05,4.17,4.17,0,0,0,3.24,3,6.85,6.85,0,0,0,4.81-.54,6.43,6.43,0,0,0,3.24-3.54,2.43,2.43,0,0,0-.17-2.18,1.36,1.36,0,0,0-1.82-.53,1.91,1.91,0,0,0-.91,1.81,3.68,3.68,0,0,0,.91,2,6.34,6.34,0,0,0,3.77,2.15c2.84.48,5.85-1.25,6.57-3.7a2.36,2.36,0,0,0-1.38-2.9,2,2,0,0,0-2.38,1.53s0,.06,0,.09a3.59,3.59,0,0,0,.72,2.9,4.58,4.58,0,0,0,2.25,1.57,4.05,4.05,0,0,0,4.16-1A4.51,4.51,0,0,0,162.4,114a8.27,8.27,0,0,0,.11-1,2.8,2.8,0,0,1,0,1,4.58,4.58,0,0,1-1.34,2.6,4.21,4.21,0,0,1-1.83,1.11,4.27,4.27,0,0,1-2.55,0,4.94,4.94,0,0,1-2.44-1.65,4,4,0,0,1-.81-3.18,2.65,2.65,0,0,1,1-1.55,2.13,2.13,0,0,1,1.9-.37,2.76,2.76,0,0,1,1.68,3.39,5.52,5.52,0,0,1-2.68,3.24,6.65,6.65,0,0,1-4.39.82,6.82,6.82,0,0,1-4.07-2.3,4.14,4.14,0,0,1-1-2.28,2.42,2.42,0,0,1,1.16-2.29,1.74,1.74,0,0,1,1.39-.16,2.09,2.09,0,0,1,1.1.84,2.89,2.89,0,0,1,.24,2.63,6.89,6.89,0,0,1-3.5,3.85,7.34,7.34,0,0,1-5.17.56,5.67,5.67,0,0,1-2.31-1.19,3.8,3.8,0,0,1-1.31-2.25,3,3,0,0,1,.68-2.47,2.38,2.38,0,0,1,2.37-.53,1.89,1.89,0,0,1,1.07.76,2.11,2.11,0,0,1,.36,1.24,4.22,4.22,0,0,1-.87,2.23,8.48,8.48,0,0,1-3.48,2.79,5.25,5.25,0,0,1-4.2-.07,4.41,4.41,0,0,1-1.6-1.28,2.81,2.81,0,0,1-.61-1.91,1.41,1.41,0,0,1,.48-.92,1.33,1.33,0,0,1,1-.27,1.69,1.69,0,0,1,1.45,1.14,3.13,3.13,0,0,1-1,3.1,5.72,5.72,0,0,1-2.6,1.36,10,10,0,0,1-4.64-.26,4.32,4.32,0,0,1-2.52-1.47,1.86,1.86,0,0,1-.3-.71A.86.86,0,0,1,123.11,118.3Z"/><polygon class="cls-25" points="135.96 235.24 213.53 235.24 226.32 185.7 161.6 185.7 151.36 232.01 135.96 232.37 135.96 235.24"/></g><g id="freepik--character-3--inject-8"><rect class="cls-16" x="523.98" y="294.94" width="7.31" height="87.63"/><path class="cls-15" d="M475.88,298.9H580.49a11.35,11.35,0,0,0-11.35-11.35H487.23A11.35,11.35,0,0,0,475.88,298.9Z"/><path class="cls-15" d="M520.53,299.13a78.52,78.52,0,0,0,12.83,0A76.34,76.34,0,0,0,520.53,299.13Z"/><path class="cls-16" d="M495.63,390.51h1a31.13,31.13,0,0,1,62.25,0h1a32.16,32.16,0,1,0-64.31-1.13v1.13Z"/><path class="cls-15" d="M554.63,392.11a4.83,4.83,0,1,0,4.83-4.83,4.83,4.83,0,0,0-4.83,4.83Z"/><path class="cls-16" d="M491.09,391.44a4.83,4.83,0,1,0,4.84-4.82h0a4.82,4.82,0,0,0-4.82,4.82Z"/><path class="cls-16" d="M496,382.57c0,.15,14,.27,31.25.27s31.25-.12,31.25-.27-14-.27-31.25-.27S496,382.42,496,382.57Z"/><path class="cls-15" d="M583.57,208.18v64.51A15.32,15.32,0,0,1,568.25,288H518.54l6.75-79.83a6.83,6.83,0,0,1,6.83-6.83h44.62a6.83,6.83,0,0,1,6.83,6.83Z"/><path class="cls-16" d="M566,287.55l.12-.19.36-.53c.33-.46.8-1.14,1.37-2a33.58,33.58,0,0,0,3.7-8.22,31.72,31.72,0,0,0,1.23-6.1,59,59,0,0,0,.2-7.16V246.86c0-11.68.06-22.25.08-30,0-3.8.06-6.89.08-9.08v-2.47a6.11,6.11,0,0,1,0-.86,4.12,4.12,0,0,1,0,.86v2.47c0,2.19.05,5.28.09,9.08,0,7.71,0,18.28.07,30v16.49a59.84,59.84,0,0,1-.25,7.21,32.47,32.47,0,0,1-1.3,6.16,32.09,32.09,0,0,1-3.89,8.22c-.6.89-1.09,1.56-1.45,2A3.9,3.9,0,0,1,566,287.55Z"/><path class="cls-16" d="M538.93,287.58a8.38,8.38,0,0,1,1.58-.09l4.3-.05H559c2.77,0,5.42,0,7.82.09a25.38,25.38,0,0,1,6.38.7,10,10,0,0,1,3.84,2,5.49,5.49,0,0,1,.83.84c.18.2.27.31.25.32s-.4-.39-1.21-1a10.11,10.11,0,0,0-3.8-1.81,26.13,26.13,0,0,0-6.3-.58L559,288c-5.55,0-10.57-.1-14.21-.17l-4.3-.12A9.3,9.3,0,0,1,538.93,287.58Z"/><path class="cls-26" d="M563.29,223.14c-1.17-9.67-2.72-17.91-2.72-17.91H539.63s2.6,12.26,2,15.11c-.5,2.47-41.11,4.12-51.69,4.28-.63-.47-1.55.32-2.36-.39a8.4,8.4,0,0,1-1.8-2.22,13,13,0,0,1-1.45-3.28,1.08,1.08,0,0,0-1.21-.95,1.09,1.09,0,0,0-.79.49c-.42.91.06,3.93,2.07,6.84s-3.26,1.4-5.19.89-8-1.83-8.6-1.35c-.92.71-.34,1.85,1.6,2.32s7.65,2.3,7.34,3.33-10.1-1.75-10.1-1.75-2-.94-2.4.24c-.72,2.13,9.9,4.28,10.91,4.46.71.13.41,1.26-.34,1.09s-9.71-3-10.46-.83c-.58,1.65,8.72,1.85,10.26,3.49s-7-.88-7.53.72c-.19.6,3.38.88,8.51,1.6a133.14,133.14,0,0,0,15.85.56c11.9.66,53.94,1.52,62.92.89C567.63,240,563.69,226.46,563.29,223.14Z"/><path class="cls-27" d="M438.33,173s-5.77-5.89-6.89-6.12-11.93-5.66-11.93-5.66a1.85,1.85,0,0,0,.14,2.61l.18.15c1.6,1.27,5.38,3.56,5.38,3.56l-2.67,5.27s2.56,8.55,3,8.38.9-1.68.9-1.68l-.81-2.7,5.23,4.37,2.27-.26Z"/><path class="cls-28" d="M433.88,170.16a25,25,0,0,1-3.64-1.77h0l-2.85-.76.32-.22a3.63,3.63,0,0,0,.76,2.4,9.19,9.19,0,0,0,2.91,2.42l.19.1-.07.19a6.44,6.44,0,0,0-.12,4c.28,1,.59,1.49.54,1.52a3.29,3.29,0,0,1-.81-1.43,6.3,6.3,0,0,1-.06-4.24l.12.29a9,9,0,0,1-3.12-2.54,4,4,0,0,1-.84-2.75v-.3l.29.08,2.83.85h0A26.67,26.67,0,0,1,433.88,170.16Z"/><path class="cls-27" d="M424.22,172.89a31.17,31.17,0,0,0,2.24,6.56,4.83,4.83,0,0,0,1-2.09"/><path class="cls-28" d="M427.48,177.36a3.18,3.18,0,0,1-.84,2.23l-.21.28-.17-.33c-.35-.69-.66-1.39-.94-2.11a12.71,12.71,0,0,1-1.1-4.54c.15,0,.66,2,1.58,4.35.3.78.6,1.5.87,2.11l-.38,0A13.27,13.27,0,0,0,427.48,177.36Z"/><path class="cls-28" d="M427.63,169a8.36,8.36,0,0,1,1,2.22,10.24,10.24,0,0,1,.62,2.61,6.61,6.61,0,0,1-.46,3.29,5,5,0,0,1-.75,1.23l-.26.3-.17-.36a27,27,0,0,1-1.68-4.69,6.81,6.81,0,0,1-.33-2,68,68,0,0,0,2.47,6.44h-.43a4.27,4.27,0,0,0,.67-1.1,8.26,8.26,0,0,0,0-5.59A19.13,19.13,0,0,1,427.63,169Z"/><polygon class="cls-27" points="438.33 172.99 479.31 200.73 467.35 215.68 433.17 180.86 438.33 172.99"/><path class="cls-19" d="M481.86,391.8l-.2-10.08,18.87-.51L501,396l-1.17.11c-5.2.43-26.47,1.81-30,.85C465.93,395.8,481.86,391.8,481.86,391.8Z"/><g class="cls-21"><path class="cls-22" d="M494.14,395.94a6.59,6.59,0,0,1,2.3-4.09,6.34,6.34,0,0,1,4.37-1.49l.15,5.27Z"/></g><g class="cls-29"><path class="cls-22" d="M474.08,394s-5.57,1.77-4.85,2.68,22.27.31,31.76-.78l-.05-.42-25.12.91S475.18,394,474.08,394Z"/></g><path class="cls-15" d="M501.24,395.46h-.32l-.93.08-3.43.24c-2.89.18-6.9.38-11.32.51s-8.43.15-11.33.13l-3.43-.05h-1.26a.86.86,0,0,1,.32,0h4.37c2.9,0,6.9-.07,11.33-.2s8.42-.3,11.31-.44l3.43-.17h.93A1.39,1.39,0,0,1,501.24,395.46Z"/><path class="cls-15" d="M475.83,396.68a7.42,7.42,0,0,0-.68-1.62,7.71,7.71,0,0,0-1.21-1.28,2.55,2.55,0,0,1,1.4,1.16A2.52,2.52,0,0,1,475.83,396.68Z"/><path class="cls-15" d="M481.32,393.7a2.39,2.39,0,0,1-.61-.71c-.28-.43-.48-.8-.43-.83s.33.28.62.71S481.37,393.67,481.32,393.7Z"/><path class="cls-15" d="M482.83,392.85s-.35-.14-.68-.42-.57-.56-.53-.6.35.14.68.42S482.87,392.8,482.83,392.85Z"/><path class="cls-15" d="M483.74,391c0,.07-.43.14-1,.16a2.27,2.27,0,0,1-1-.08,2.44,2.44,0,0,1,1-.15A2.25,2.25,0,0,1,483.74,391Z"/><path class="cls-15" d="M484,389.8a2,2,0,0,1-1.09.35,1.86,1.86,0,0,1-1.14-.12,6.07,6.07,0,0,1,1.12-.11A7,7,0,0,1,484,389.8Z"/><path class="cls-15" d="M480.63,392.07a3.57,3.57,0,0,1-1.22,0,7.28,7.28,0,0,1-1.3-.25,4.16,4.16,0,0,1-.74-.28.71.71,0,0,1-.31-.37.46.46,0,0,1,.17-.49,2.22,2.22,0,0,1,2.77.57,2.17,2.17,0,0,1,.41.8q.09.31,0,.33a3,3,0,0,0-.58-1,2.23,2.23,0,0,0-1-.65,1.9,1.9,0,0,0-1.44.14c-.19.15-.11.37.11.5a4.12,4.12,0,0,0,.69.27,10.78,10.78,0,0,0,1.25.29C480.17,392.05,480.63,392,480.63,392.07Z"/><path class="cls-15" d="M480.32,392.14a1.29,1.29,0,0,1-.16-.84,2,2,0,0,1,.31-.89,1.22,1.22,0,0,1,1-.65.48.48,0,0,1,.39.55,1.39,1.39,0,0,1-.19.55,3.61,3.61,0,0,1-.55.75,1.72,1.72,0,0,1-.68.51s.23-.23.55-.62a3.07,3.07,0,0,0,.49-.74c.16-.26.26-.72,0-.77s-.61.29-.79.54a2.09,2.09,0,0,0-.32.79A4.52,4.52,0,0,0,480.32,392.14Z"/><path class="cls-15" d="M500.71,390.31s-.54,0-1.39.09a5.88,5.88,0,0,0-4.83,4.07c-.27.82-.28,1.36-.33,1.36a2.41,2.41,0,0,1,0-.38,8.37,8.37,0,0,1,.18-1,5.92,5.92,0,0,1,1.84-2.86,5.7,5.7,0,0,1,3.13-1.32,4.18,4.18,0,0,1,1,0C500.63,390.26,500.71,390.29,500.71,390.31Z"/><path class="cls-15" d="M498.54,382.51a35.77,35.77,0,0,1,.27,3.87,27.91,27.91,0,0,1,0,3.88,66.77,66.77,0,0,1-.31-7.75Z"/><path class="cls-15" d="M491.71,394.16a10.1,10.1,0,0,1-2.74.35,10.74,10.74,0,0,1-2.77-.14c0-.07,1.24,0,2.76-.09A25,25,0,0,1,491.71,394.16Z"/><path class="cls-15" d="M495.41,394.06s-.09.26-.21.55-.18.53-.24.53-.11-.29,0-.62S495.37,394,495.41,394.06Z"/><path class="cls-15" d="M496.76,392.28a1.2,1.2,0,0,1-.26.45c-.19.2-.38.33-.43.29s.07-.24.26-.45S496.71,392.24,496.76,392.28Z"/><path class="cls-15" d="M498.73,391.44c0,.06-.26.06-.54.17s-.47.26-.52.22.1-.31.44-.43S498.75,391.38,498.73,391.44Z"/><path class="cls-15" d="M500.14,391c0,.06-.08.16-.24.23s-.3.07-.32,0,.08-.16.24-.23S500.12,391,500.14,391Z"/><path class="cls-19" d="M436.29,337.8l4.34-9,17.06,8.09-6.26,13.35-1.09-.44c-4.83-2-24.42-10.35-27.12-12.8C420.25,334.23,436.29,337.8,436.29,337.8Z"/><g class="cls-21"><path class="cls-22" d="M445.34,347.13a6.55,6.55,0,0,1,3.9-2.6,6.35,6.35,0,0,1,4.58.65L451.56,350Z"/></g><g class="cls-29"><path class="cls-22" d="M428.33,336.33s-5.77-.94-5.54.2,19.72,10.35,28.67,13.67l.16-.4L428.8,339.24S429.3,336.8,428.33,336.33Z"/></g><path class="cls-15" d="M451.89,349.92l-.26-.12-.87-.34-3.16-1.34c-2.66-1.14-6.32-2.78-10.33-4.66s-7.58-3.69-10.16-5l-3-1.59-.82-.45-.28-.17a1,1,0,0,1,.3.13l.84.41,3.07,1.53c2.6,1.29,6.19,3.06,10.19,4.95s7.65,3.54,10.29,4.72l3.14,1.4.85.39Z"/><path class="cls-15" d="M428.68,339.51a8.54,8.54,0,0,0,.12-1.75,7.14,7.14,0,0,0-.5-1.69,2.42,2.42,0,0,1,.73,1.66A2.53,2.53,0,0,1,428.68,339.51Z"/><path class="cls-15" d="M434.92,339.34a2.19,2.19,0,0,1-.23-.91,2.13,2.13,0,0,1,0-.94c.07,0,.17.4.23.91S435,339.33,434.92,339.34Z"/><path class="cls-15" d="M436.63,339.26a1.63,1.63,0,0,1-.41-.68c-.17-.4-.26-.75-.2-.78s.24.28.41.69S436.71,339.24,436.63,339.26Z"/><path class="cls-15" d="M438.29,338.06a2.24,2.24,0,0,1-1-.3c-.49-.23-.87-.46-.85-.52a2.22,2.22,0,0,1,.95.31A2.59,2.59,0,0,1,438.29,338.06Z"/><path class="cls-15" d="M439.12,337.07a1.93,1.93,0,0,1-1.13-.18,2.45,2.45,0,0,1-1-.62,5.13,5.13,0,0,1,1,.41A7.17,7.17,0,0,1,439.12,337.07Z"/><path class="cls-15" d="M435.05,337.58a3.85,3.85,0,0,1-1.1-.53,7.7,7.7,0,0,1-1-.81,4.29,4.29,0,0,1-.54-.59.72.72,0,0,1-.11-.47.48.48,0,0,1,.33-.38,2.21,2.21,0,0,1,2.21,1.77,2,2,0,0,1,0,.9c0,.2-.09.31-.11.31a3.13,3.13,0,0,0-.05-1.18,2.22,2.22,0,0,0-.65-1.05,1.87,1.87,0,0,0-1.35-.53c-.24.05-.27.29-.13.49a4.44,4.44,0,0,0,.5.56,8.81,8.81,0,0,0,1,.83C434.63,337.34,435.06,337.54,435.05,337.58Z"/><path class="cls-15" d="M434.74,337.5a1.27,1.27,0,0,1,.23-.82,2,2,0,0,1,.68-.66,1.19,1.19,0,0,1,1.18-.13.48.48,0,0,1,.1.66,1.27,1.27,0,0,1-.42.41,4.31,4.31,0,0,1-.83.42,1.61,1.61,0,0,1-.84.14,6.72,6.72,0,0,0,.78-.3,3.66,3.66,0,0,0,.77-.44c.26-.16.56-.52.31-.7a1.07,1.07,0,0,0-.95.12,2.06,2.06,0,0,0-.64.57A3.85,3.85,0,0,0,434.74,337.5Z"/><path class="cls-15" d="M453.75,345.09a7.56,7.56,0,0,0-1.28-.56,6,6,0,0,0-6.16,1.45c-.6.61-.86,1.09-.9,1.07a1,1,0,0,1,.17-.35,5.13,5.13,0,0,1,.62-.83,5.73,5.73,0,0,1,6.32-1.49,4.51,4.51,0,0,1,.93.47A2.29,2.29,0,0,1,453.75,345.09Z"/><path class="cls-15" d="M455.34,337.15a31,31,0,0,1-1.51,3.57,30.38,30.38,0,0,1-1.72,3.48,35,35,0,0,1,1.51-3.57A32.12,32.12,0,0,1,455.34,337.15Z"/><path class="cls-15" d="M444,344.45a10.16,10.16,0,0,1-2.61-.93,11.24,11.24,0,0,1-2.4-1.38c0-.06,1.12.54,2.5,1.17S444,344.39,444,344.45Z"/><path class="cls-15" d="M447.33,346c0,.06-.21.19-.44.4s-.4.39-.46.36,0-.31.31-.54S447.31,346,447.33,346Z"/><path class="cls-15" d="M449.33,345.06c0,.06-.17.18-.43.28s-.49.12-.52.06.18-.18.44-.28S449.31,345,449.33,345.06Z"/><path class="cls-15" d="M451.47,345.2c0,.05-.26-.06-.55-.09a3.19,3.19,0,0,0-.57,0,.7.7,0,0,1,.59-.19C451.3,345,451.52,345.15,451.47,345.2Z"/><path class="cls-15" d="M452.92,345.46c0,.07-.15.11-.32.1s-.29-.08-.29-.14.14-.1.31-.09S452.92,345.4,452.92,345.46Z"/><path class="cls-15" d="M561,204.9a206.3,206.3,0,0,1-21.87.08A207.21,207.21,0,0,1,561,204.9Z"/><path class="cls-19" d="M560.74,206l-4-20.13c-3-16.47-26-17.61-26-17.61l-18.12-.29s-13.44-1.81-21.73,7.54c-8.58,9.68-19.12,21.11-19.12,21.11l8,20.25,19.07-15.73a19.61,19.61,0,0,0-2.56,9.15c0,5.37,5.6,7.84,5.6,7.84l1.71,16.33-5.66,26.38,59.19-2.37a58.86,58.86,0,0,0-8.73-24.87l1.1-27.59Z"/><path class="cls-15" d="M496.7,206.53a16.73,16.73,0,0,1,.71-2.72c.25-.83.56-1.82.94-2.91.19-.54.4-1.11.64-1.69.13-.32.3-.59.38-.85a2.34,2.34,0,0,0,.11-.87,12.91,12.91,0,0,0-.28-1.85q-.18-.91-.33-1.77c-.19-1.08-.36-2.08-.52-3a13.23,13.23,0,0,1-.34-2.8,13.52,13.52,0,0,1,.74,2.72c.2.91.41,1.91.65,3q.17.86.36,1.77a11.37,11.37,0,0,1,.3,2,2.92,2.92,0,0,1-.14,1.06c-.12.36-.29.63-.4.89-.25.57-.46,1.12-.67,1.66l-1,2.85A11.63,11.63,0,0,1,496.7,206.53Z"/><g class="cls-20"><path d="M536,188.85c.74,11.23,1.17,21.57,1.39,32.81a8.33,8.33,0,0,0,4.22-1.32C542.21,215.54,538.63,201,536,188.85Z"/></g><path class="cls-16" d="M557.24,255.8s-77.38-16.21-84.88-12.66-42,89-42,89l27.82,12,29.94-72.57s54.18,19.79,63.64,17.82S557.24,255.8,557.24,255.8Z"/><path class="cls-16" d="M522.63,260.33c-1.19.39-45.95,18.79-49.11,24.71s4.6,104.14,4.6,104.14h25.51l-1.58-87.3,49.69-12.59Z"/><path class="cls-15" d="M552,289.49a3,3,0,0,1-.73-.09l-2.08-.37c-1.81-.33-4.42-.85-7.63-1.53-6.43-1.36-15.27-3.41-24.91-6.17-4.82-1.4-9.37-2.85-13.48-4.26s-7.77-2.82-10.79-4.12c-1.52-.61-2.88-1.22-4.07-1.76s-2.21-1-3-1.43l-1.89-.95a3.43,3.43,0,0,1-.64-.37,3.38,3.38,0,0,1,.69.26l1.94.86c.83.38,1.86.83,3.06,1.33s2.56,1.09,4.09,1.68c3,1.24,6.72,2.56,10.81,4s8.66,2.82,13.47,4.21c9.62,2.76,18.44,4.87,24.84,6.33l7.58,1.71,2.06.47A3.13,3.13,0,0,1,552,289.49Z"/><path class="cls-15" d="M473.56,307.6a8,8,0,0,1-.23-1.47c-.12-1.06-.26-2.41-.43-4s-.35-3.76-.55-6a27,27,0,0,1,0-7.4,11.66,11.66,0,0,1,3.72-6.4,19.7,19.7,0,0,1,5.09-3.28c1.57-.72,2.88-1.17,3.78-1.49a7.09,7.09,0,0,1,1.43-.41c0,.1-2,.8-5,2.27a20.47,20.47,0,0,0-4.9,3.3,11.21,11.21,0,0,0-3.51,6.12,28.38,28.38,0,0,0,0,7.25c.16,2.22.31,4.25.43,6s.18,3,.24,4A6.38,6.38,0,0,1,473.56,307.6Z"/><path class="cls-15" d="M495.9,299.17a18.05,18.05,0,0,1,6,2.65,10,10,0,0,1-3.13-1.06A9.62,9.62,0,0,1,495.9,299.17Z"/><path class="cls-15" d="M498.14,296.48a33.44,33.44,0,0,1,2,2.87c1.15,1.54,2.32,2.61,2.21,2.74a9.17,9.17,0,0,1-4.24-5.61Z"/><path class="cls-15" d="M507.92,300.51a.92.92,0,0,1-.4.4,3,3,0,0,1-1.47.35,16.72,16.72,0,0,0-2.12.05,1.47,1.47,0,0,0-1.26,1.62c0,3.74-.15,6.81-.32,6.8a39,39,0,0,1-.27-6.83,2.46,2.46,0,0,1,.49-1.45,2,2,0,0,1,1.27-.67,12.54,12.54,0,0,1,2.21.07A3.63,3.63,0,0,0,507.92,300.51Z"/><polygon class="cls-30" points="501.81 242.6 554.56 246.84 552.31 240.94 502.33 240.22 501.81 242.6"/><path class="cls-15" d="M503.17,120.8c-3.87,1.25-8.36,3.82-6.13,15.93,1,5.33,2.22,10.76,5.79,14.83a2.52,2.52,0,0,0,2.07,1.14,2.6,2.6,0,0,0,1.43-1c4.06-4.42,7.52-9.65,8.62-15.55s-.55-12.56-5.2-16.36"/><path class="cls-27" d="M510.63,173.34c-.13-5.57-.36-11.54-.36-11.54s-8.48-1.07-8.85-9.72-.45-23.81-.45-23.81L517.52,116l11.62,16,.29,41a9.4,9.4,0,0,1-9.33,9.47H520A9.41,9.41,0,0,1,510.63,173.34Z"/><path class="cls-28" d="M510.23,161.8a20.67,20.67,0,0,0,11.22-3.68s-2.64,6.3-11.08,5.8Z"/><path class="cls-28" d="M511,151.72a1,1,0,0,1,.45-1.34,1,1,0,0,1,.55-.1,1.6,1.6,0,0,1,1.62-1.41,1.81,1.81,0,0,1,1.64,1.47,2.09,2.09,0,0,1-.92,2,2.48,2.48,0,0,1-2.28.17,1.83,1.83,0,0,1-1.15-1.36"/><path class="cls-15" d="M503,139.13a1.19,1.19,0,0,0,1.15,1.19,1.13,1.13,0,0,0,1.22-1v0a1.2,1.2,0,0,0-1.14-1.2,1.14,1.14,0,0,0-1.22,1Z"/><path class="cls-15" d="M502.73,137.8c.15.16,1-.51,2.33-.51s2.21.65,2.35.49-.08-.35-.49-.65a3.31,3.31,0,0,0-1.88-.58,3.17,3.17,0,0,0-1.85.6C502.79,137.44,502.63,137.72,502.73,137.8Z"/><path class="cls-15" d="M515.5,139.43a1.19,1.19,0,0,0,1.15,1.19,1.13,1.13,0,0,0,1.22-1v0a1.2,1.2,0,0,0-1.14-1.2,1.15,1.15,0,0,0-1.23,1.07Z"/><path class="cls-15" d="M515.29,138c.15.15,1.05-.51,2.32-.51s2.22.64,2.36.49-.08-.35-.49-.65a3.38,3.38,0,0,0-1.85-.56,3.17,3.17,0,0,0-1.85.6C515.35,137.68,515.22,138,515.29,138Z"/><path class="cls-15" d="M510.63,147.5a8.48,8.48,0,0,0-2.07-.37c-.33,0-.64-.1-.69-.32a1.66,1.66,0,0,1,.22-1c.3-.79.62-1.62,1-2.48a42.74,42.74,0,0,0,2.17-6.5,43.82,43.82,0,0,0-2.69,6.31c-.32.87-.63,1.7-.92,2.5a2,2,0,0,0-.17,1.28.82.82,0,0,0,.54.47,2.09,2.09,0,0,0,.55.08A7.9,7.9,0,0,0,510.63,147.5Z"/><path class="cls-15" d="M514.41,148.39c-.2,0-.21,1.37-1.39,2.36s-2.67.83-2.68,1,.33.27,1,.29a3.48,3.48,0,0,0,2.23-.78,3,3,0,0,0,1.08-2C514.63,148.72,514.51,148.38,514.41,148.39Z"/><path class="cls-15" d="M514.72,135.18c.12.34,1.4.18,2.9.36s2.71.59,2.91.28c.08-.15-.13-.48-.61-.81a4.91,4.91,0,0,0-2.16-.76,4.77,4.77,0,0,0-2.27.27C514.94,134.74,514.63,135,514.72,135.18Z"/><path class="cls-15" d="M503.2,134.09c.23.29,1.11,0,2.17,0s2,.19,2.16-.11c.09-.15,0-.44-.45-.71a2.94,2.94,0,0,0-1.75-.48,3,3,0,0,0-1.73.58C503.23,133.65,503.1,134,503.2,134.09Z"/><path class="cls-15" d="M521.42,134.48a6.65,6.65,0,0,0,4.21-1.5c.77,2,.75,4.3,1.45,6.36s2.35,10.58,4.51,10.26c2-.3,3.38-8.89,3.89-10.82,1.39-5.36-.36-11.25-3.91-15.49-4.23-5-11.27-9.31-17.81-8.84a14.75,14.75,0,0,0-8.13,2.85s-3.53,2.73-3.24,6.2c.41,4.85,7.48,8,12.33,7.82l.7.67A8.41,8.41,0,0,0,521.42,134.48Z"/><path class="cls-15" d="M500.88,132.89A7.12,7.12,0,0,0,503.3,129a21.69,21.69,0,0,0,.56-4.61c0-.45-.05-1-.48-1.14s-.77.32-1,.7a15,15,0,0,0-1.53,9.37c.09-.09-.29.24-.2.15"/><path class="cls-15" d="M532.2,168.8a10.21,10.21,0,0,0,3.38-8.83c-.31-2.49-1.54-4.86-1.42-7.36.09-2,1-3.79,1.66-5.67a19.68,19.68,0,0,0,.75-9.54c-.43-2.52-1.45-5.09-3.53-6.58s-5.35-1.45-6.88.59l-.74.23a20.77,20.77,0,0,0,2.64,22.11,11.34,11.34,0,0,0,.19,15.21,12.43,12.43,0,0,0-1.56,12.43l.07.15a10.94,10.94,0,0,0-.37,14.6,10.89,10.89,0,0,0-3.68,6.33,5.91,5.91,0,0,0,3.06,6.12,7,7,0,0,0,1.88,11.8,22.15,22.15,0,0,1,3.57-2.91,3.68,3.68,0,0,1-1.64-1.58,4.6,4.6,0,0,0,2.77.87l-1.2-5.44a7,7,0,0,0-1-2.8,1.07,1.07,0,0,0-.14-.16,6.52,6.52,0,0,0,3.11-3.37c1.08-2.79.33-6-1.11-8.63,1.52-3.13,3-6.42,3-9.9a10.41,10.41,0,0,0-1-4.59,12.93,12.93,0,0,0,2.15-7A6.68,6.68,0,0,0,532.2,168.8Z"/><path class="cls-16" d="M531.1,196.08a2.86,2.86,0,0,1-2.32.86,2.92,2.92,0,0,1-2.35-.79c.07-.14,1.06.3,2.34.27S531,195.94,531.1,196.08Z"/><path class="cls-16" d="M533.35,183.69a19.93,19.93,0,0,0-5,4.29,20.93,20.93,0,0,0-2.88,5.89,5.41,5.41,0,0,1,.3-2,13,13,0,0,1,5.73-7.44A4.9,4.9,0,0,1,533.35,183.69Z"/><path class="cls-16" d="M532.35,182a3.65,3.65,0,0,1-4.57,0c.07-.14,1,.29,2.29.28S532.28,181.86,532.35,182Z"/><path class="cls-16" d="M533.91,180.3a13.31,13.31,0,0,0-4.81-9.68,3.64,3.64,0,0,1,1.42.89,10.33,10.33,0,0,1,3.53,7.12A3.51,3.51,0,0,1,533.91,180.3Z"/><path class="cls-16" d="M532.63,167.39c.12.07-.41.9-1.49,1.32s-2,.18-2,0,.87-.15,1.81-.52S532.5,167.29,532.63,167.39Z"/><path class="cls-16" d="M529.52,168a3.53,3.53,0,0,1-1.1-1.84,8,8,0,0,1,.23-5.17,13.84,13.84,0,0,1,2.82-4.33,7.2,7.2,0,0,1,1.57-1.45,10.07,10.07,0,0,1-1.29,1.69,16.06,16.06,0,0,0-2.61,4.28,8.44,8.44,0,0,0-.37,4.87A17,17,0,0,0,529.52,168Z"/><path class="cls-16" d="M533.11,154a4.2,4.2,0,0,1-4.66-.95c.09-.12,1,.44,2.29.69S533.08,153.8,533.11,154Z"/><path class="cls-16" d="M537.11,140.22a5.57,5.57,0,0,1-2.3.16,11.12,11.12,0,0,1-9-5.94,5.62,5.62,0,0,1-.76-2.18c.08,0,.36.81,1.08,2a12,12,0,0,0,8.75,5.76C536.23,140.21,537.11,140.13,537.11,140.22Z"/><path class="cls-16" d="M536.34,145.36a1.82,1.82,0,0,1-.66.43,4.07,4.07,0,0,1-2.16.2,10.37,10.37,0,0,1-5.88-3.82,13.19,13.19,0,0,1-2.84-6.43,11,11,0,0,1-.1-2.14,2.59,2.59,0,0,1,.12-.78c.1,0,0,1.12.34,2.86a13.9,13.9,0,0,0,2.89,6.16,10.74,10.74,0,0,0,5.53,3.79A4.66,4.66,0,0,0,536.34,145.36Z"/><path class="cls-16" d="M534.49,129.53a4,4,0,0,1-1,.47,10.85,10.85,0,0,1-2.93.67,12.12,12.12,0,0,1-4.52-.44,11.73,11.73,0,0,1-5-2.81l.26.06a13.08,13.08,0,0,1-14.7-4.35,12.61,12.61,0,0,1-1.87-3.34c-.12-.33-.22-.66-.31-1s-.07-.35,0-.36a17.35,17.35,0,0,0,2.51,4.46,12.92,12.92,0,0,0,10.86,4.75,12.56,12.56,0,0,0,3.39-.65h.15l.11.1a11.67,11.67,0,0,0,4.72,2.75,12.47,12.47,0,0,0,4.37.54A17.81,17.81,0,0,0,534.49,129.53Z"/><path class="cls-16" d="M530.63,122.56a3.74,3.74,0,0,1-1,.17c-.67.08-1.64.17-2.84.28l-4.21.34a26.78,26.78,0,0,1-5.22,0,17.69,17.69,0,0,1-8.74-3.53,16.13,16.13,0,0,1-2.11-1.94,3.69,3.69,0,0,1-.63-.84,36.4,36.4,0,0,0,3,2.49,18.56,18.56,0,0,0,8.58,3.3,29.18,29.18,0,0,0,5.12,0l4.23-.23c1.2-.06,2.18-.1,2.85-.11A4.48,4.48,0,0,1,530.63,122.56Z"/><path class="cls-16" d="M531.08,207.37a3.24,3.24,0,0,1-2.53,1.09,3.16,3.16,0,0,1-2.64-.78,17.75,17.75,0,0,0,2.61.26A18.57,18.57,0,0,0,531.08,207.37Z"/><path class="cls-16" d="M529.07,208.9a11.74,11.74,0,0,1,.14-1.57,10.17,10.17,0,0,0-2.11-7c-.59-.76-1-1.16-1-1.23a3.27,3.27,0,0,1,1.27,1,8.87,8.87,0,0,1,1.91,3.38,8.5,8.5,0,0,1,.28,3.88A3.14,3.14,0,0,1,529.07,208.9Z"/><path class="cls-27" d="M563.29,223.14c-1.17-9.67-2.72-17.91-2.72-17.91H539.63s2.6,12.26,2,15.11c-.5,2.47-41.11,4.12-51.69,4.28-.63-.47-1.55.32-2.36-.39a8.4,8.4,0,0,1-1.8-2.22,13,13,0,0,1-1.45-3.28,1.08,1.08,0,0,0-1.21-.95,1.09,1.09,0,0,0-.79.49c-.42.91.06,3.93,2.07,6.84s-3.26,1.4-5.19.89-8-1.83-8.6-1.35c-.92.71-.34,1.85,1.6,2.32s7.65,2.3,7.34,3.33-10.1-1.75-10.1-1.75-2-.94-2.4.24c-.72,2.13,9.9,4.28,10.91,4.46.71.13.41,1.26-.34,1.09s-9.71-3-10.46-.83c-.58,1.65,8.72,1.85,10.26,3.49s-7-.88-7.53.72c-.19.6,3.38.88,8.51,1.6a133.14,133.14,0,0,0,15.85.56c11.9.66,53.94,1.52,62.92.89C567.63,240,563.69,226.46,563.29,223.14Z"/><polygon class="cls-31" points="424.31 184.76 441.56 235.15 519.64 235.15 519.06 232.55 487.49 231.58 472.94 184.73 424.31 184.76"/><path class="cls-22" d="M458.91,208.43c.52,2.06-.37,4.08-2,4.51s-3.33-.89-3.84-3,.36-4.08,2-4.51S458.4,206.36,458.91,208.43Z"/></g><g id="freepik--Desk--inject-8"><polygon class="cls-15" points="117.32 235.14 117.32 241.67 318.62 241.67 318.62 388.91 364.12 388.91 364.12 241.67 564.95 241.67 564.95 235.14 117.32 235.14"/></g><g id="freepik--character-2--inject-8"><polygon class="cls-32" points="311.09 392.47 310.08 342.04 329.4 338.84 326.36 392.25 311.09 392.47"/><path class="cls-19" d="M327.18,392.7l-.05-1.78-16.76.42.1,5.87h1c4.61.15,23.46.45,26.52-.56C341.44,395.58,327.18,392.7,327.18,392.7Z"/><g class="cls-29"><path class="cls-22" d="M316.52,396.94a5.72,5.72,0,0,0-2.21-3.51,5.65,5.65,0,0,0-3.93-1.13l.11,4.67Z"/></g><g class="cls-29"><path class="cls-22" d="M334.15,394.35s5,1.32,4.41,2.16-19.66,1.25-28.09.7v-.38l22.24-.29S333.18,394.42,334.15,394.35Z"/></g><path class="cls-15" d="M310.23,396.8h1.11l3,.06h10c3.89,0,7.45-.24,10-.39l3-.19.82-.06h-.83l-3,.13c-2.56.11-6.1.24-10,.32s-7.46.11-10,.11h-3.86Z"/><path class="cls-15" d="M332.73,396.8a4.37,4.37,0,0,1,1.54-2.64A2.71,2.71,0,0,0,332.73,396.8Z"/><path class="cls-15" d="M327.75,394.4a3.65,3.65,0,0,0,.51-.65c.24-.39.39-.73.34-.75s-.28.26-.51.65S327.7,394.37,327.75,394.4Z"/><path class="cls-15" d="M326.38,393.72a2.4,2.4,0,0,0,.58-.41c.28-.27.48-.51.44-.55s-.3.14-.58.41S326.34,393.68,326.38,393.72Z"/><path class="cls-15" d="M325.49,392.16a1.84,1.84,0,0,0,.87.09,1.76,1.76,0,0,0,.88-.11,3.88,3.88,0,0,0-1.75,0Z"/><path class="cls-15" d="M325.17,391.06a1.69,1.69,0,0,0,1,.26,1.64,1.64,0,0,0,1-.16,5.57,5.57,0,0,0-1,0A4.78,4.78,0,0,0,325.17,391.06Z"/><path class="cls-15" d="M328.28,392.94a3.2,3.2,0,0,0,1.07,0,5.56,5.56,0,0,0,1.14-.27,2.93,2.93,0,0,0,.65-.29.54.54,0,0,0,.26-.33.4.4,0,0,0-.18-.43,2,2,0,0,0-2.42.63,1.89,1.89,0,0,0-.33.72.71.71,0,0,0,0,.29,3.48,3.48,0,0,1,.47-.92,1.93,1.93,0,0,1,.9-.62,1.67,1.67,0,0,1,1.28.06c.17.12.11.32-.08.44a2.88,2.88,0,0,1-.59.27,6.62,6.62,0,0,1-1.1.31A8.51,8.51,0,0,0,328.28,392.94Z"/><path class="cls-15" d="M328.56,393a1,1,0,0,0,.11-.75,1.79,1.79,0,0,0-.31-.77,1.09,1.09,0,0,0-.91-.53.43.43,0,0,0-.32.5,1.2,1.2,0,0,0,.2.48,3.55,3.55,0,0,0,.52.64,1.55,1.55,0,0,0,.62.42,6.75,6.75,0,0,1-.52-.52,3.72,3.72,0,0,1-.46-.64c-.16-.22-.27-.63,0-.68s.55.23.72.44a2,2,0,0,1,.32.69A4.34,4.34,0,0,1,328.56,393Z"/><path class="cls-15" d="M310.47,392.25a8,8,0,0,1,1.23,0,5.46,5.46,0,0,1,2.72,1,5.16,5.16,0,0,1,1.73,2.34c.27.71.31,1.19.35,1.18a.91.91,0,0,0,0-.33,3.91,3.91,0,0,0-.2-.9,5.25,5.25,0,0,0-1.75-2.45,5.08,5.08,0,0,0-2.83-1,4.61,4.61,0,0,0-.91,0A1.5,1.5,0,0,0,310.47,392.25Z"/><path class="cls-15" d="M318.63,395.27a14.28,14.28,0,0,0,4.88-.06c0-.06-1.1,0-2.44,0A17.78,17.78,0,0,0,318.63,395.27Z"/><path class="cls-15" d="M315.32,395.33s.09.23.21.48.18.47.24.46.08-.26-.06-.55S315.35,395.29,315.32,395.33Z"/><path class="cls-15" d="M314.05,393.8a1,1,0,0,0,.25.38c.18.17.35.28.39.24s-.07-.22-.25-.39A.82.82,0,0,0,314.05,393.8Z"/><path class="cls-15" d="M312.27,393.16c0,.06.23,0,.48.13s.43.21.47.17-.1-.26-.41-.36S312.25,393.11,312.27,393.16Z"/><path class="cls-15" d="M311,392.86c0,.05.08.14.22.19s.26.05.28,0-.08-.13-.22-.18S311,392.8,311,392.86Z"/><polygon class="cls-26" points="332.34 392.15 331.02 341.02 350.44 338.84 347.91 392.03 332.34 392.15"/><path class="cls-19" d="M280.57,248.8c18.93.12,37.88.25,56.73,2,7.52.68,15.65,1.93,20.88,7.37,4.9,5.1,6,12.63,6.94,19.64l8.26,64.13a295.71,295.71,0,0,1-78.55-2.49q.3-23.83.55-47.67l.42-7.46-29.17-1.95Z"/><path class="cls-1" d="M344.92,273.61a47.32,47.32,0,0,1,4.24-9.06A48.86,48.86,0,0,1,344.92,273.61Z"/><path class="cls-1" d="M354.33,295.06a18,18,0,0,1-2.84-3.26,19,19,0,0,1-2.43-3.59,17.7,17.7,0,0,1,2.84,3.27A18.07,18.07,0,0,1,354.33,295.06Z"/><path class="cls-1" d="M351,307.7a30.84,30.84,0,0,1-5.75,5.43,15.53,15.53,0,0,1,2.7-2.91A15,15,0,0,1,351,307.7Z"/><path class="cls-1" d="M365,320.41a36.18,36.18,0,0,1-2.08-8.33A35.19,35.19,0,0,1,365,320.41Z"/><path class="cls-1" d="M353.22,333.88a14.25,14.25,0,0,1-1.49-3.42,13.92,13.92,0,0,1-1-3.58,25.67,25.67,0,0,1,2.5,7Z"/><path class="cls-1" d="M338.32,299.15a37.49,37.49,0,0,1-2,8.55,38.52,38.52,0,0,1,2-8.55Z"/><rect class="cls-15" x="319.26" y="229.34" width="77.01" height="3.75"/><polygon class="cls-15" points="408.21 233.09 422.65 178.96 362.52 178.96 349.44 233.09 408.21 233.09"/><polygon class="cls-2" points="353.04 228.99 406.76 228.99 419.27 181.46 365.27 181.46 353.04 228.99"/><polygon class="cls-4" points="366.61 190.67 363.28 204.13 398.89 204.13 402.69 190.67 366.61 190.67"/><path class="cls-16" d="M395.18,188.89c0,.15-6.25.26-13.95.26s-14-.11-14-.26,6.25-.26,14-.26S395.18,188.8,395.18,188.89Z"/><path class="cls-15" d="M379,193.24a60.4,60.4,0,0,1-11.25,0A60.4,60.4,0,0,1,379,193.24Z"/><path class="cls-15" d="M388,193a25.72,25.72,0,0,1-7.33,0A25.72,25.72,0,0,1,388,193Z"/><path class="cls-16" d="M398.15,195.68c0,.15-6.89.26-15.38.26s-15.39-.11-15.39-.26,6.89-.26,15.39-.26S398.15,195.54,398.15,195.68Z"/><path class="cls-19" d="M376.72,197.91a47.75,47.75,0,0,1-10,0A47.75,47.75,0,0,1,376.72,197.91Z"/><path class="cls-16" d="M395.39,201.09c0,.15-6.39.26-14.27.26s-14.27-.11-14.27-.26,6.39-.26,14.27-.26S395.39,201,395.39,201.09Z"/><path class="cls-16" d="M374.38,208a59.44,59.44,0,0,1-11,0A59.44,59.44,0,0,1,374.38,208Z"/><path class="cls-15" d="M383.83,208a27.21,27.21,0,0,1-7.54-.06A27.2,27.2,0,0,1,383.83,208Z"/><path class="cls-15" d="M389.13,207.8c0,.14-.71.26-1.59.26s-1.59-.12-1.59-.26.71-.26,1.59-.26S389.13,207.64,389.13,207.8Z"/><path class="cls-19" d="M367.06,210.8c0,.14-.78.26-1.75.26s-1.75-.12-1.75-.26.78-.26,1.75-.26S367.06,210.61,367.06,210.8Z"/><path class="cls-15" d="M377.57,210.8a33.65,33.65,0,0,1-8.39,0A33.65,33.65,0,0,1,377.57,210.8Z"/><path class="cls-16" d="M402.63,210.43c0,.15-5,.26-11.2.26s-11.19-.11-11.19-.26,5-.26,11.19-.26S402.63,210.29,402.63,210.43Z"/><path class="cls-15" d="M366.53,213.62c0,.14-.81.26-1.8.26s-1.81-.12-1.81-.26.81-.27,1.81-.27S366.53,213.47,366.53,213.62Z"/><path class="cls-15" d="M372.05,213.51a9.23,9.23,0,0,1-4.35,0,9.23,9.23,0,0,1,4.35,0Z"/><path class="cls-16" d="M388.5,213.3a95.07,95.07,0,0,1-14.12,0A95.07,95.07,0,0,1,388.5,213.3Z"/><path class="cls-16" d="M379.79,218.28a69.56,69.56,0,0,1-8.54.26,69.56,69.56,0,0,1-8.54-.26,71.6,71.6,0,0,1,8.54-.26A71.6,71.6,0,0,1,379.79,218.28Z"/><path class="cls-19" d="M389.77,218.07a28.73,28.73,0,0,1-7.75,0A28.73,28.73,0,0,1,389.77,218.07Z"/><path class="cls-15" d="M404.57,218.07a78.64,78.64,0,0,1-12.84,0A78.64,78.64,0,0,1,404.57,218.07Z"/><path class="cls-15" d="M401.12,188.68c0,.14-.59.26-1.32.26s-1.33-.12-1.33-.26.59-.26,1.33-.26S401.12,188.54,401.12,188.68Z"/><path class="cls-19" d="M374.06,186.88a16.32,16.32,0,0,1-5.83,0A16.32,16.32,0,0,1,374.06,186.88Z"/><path class="cls-3" d="M418.37,184.88h-54l.91-3.42h54Z"/><circle class="cls-1" cx="367.54" cy="183.19" r="0.59"/><circle class="cls-1" cx="369.58" cy="183.19" r="0.59"/><circle class="cls-1" cx="371.61" cy="183.19" r="0.59"/><path class="cls-26" d="M307.63,204.8,315.34,228c2.08,6.27,7.56,7.35,14.17,7.35H372.4V225.8l-39.18-5.59-9.39-23.91Z"/><path class="cls-26" d="M377.07,223.8l3.4-1.61s3.67-7.09,4.51-6.8,1.09,2.37-.38,5.62l4.52-1.29s9.8,4.53,9.37,5.14a2.26,2.26,0,0,1-2.95,1.23,2.13,2.13,0,0,1-.42-.23c-2.14-1.09-4.93-2.37-4.93-2.37L384.9,225l6.81.86,6.41,5.83a3.13,3.13,0,0,1-3.92-.09l-16.64,3.57-5.21.3V225.8Z"/><path class="cls-32" d="M394.2,231.51c-.07,0-.38-.45-1-1.1a5,5,0,0,0-1.21-.94,4.85,4.85,0,0,0-1.8-.47,25.76,25.76,0,0,1-5-.85,25.18,25.18,0,0,1,5.06.33,5,5,0,0,1,2,.58,4.58,4.58,0,0,1,1.25,1.11A2.89,2.89,0,0,1,394.2,231.51Z"/><path class="cls-32" d="M391.63,232.17c-.06,0-.12-.34-.58-.44s-1.24-.18-2-.26a16.09,16.09,0,0,1-2.93-.3,6.12,6.12,0,0,1,3-.22,9.24,9.24,0,0,1,2.09.43.82.82,0,0,1,.51.53A.56.56,0,0,1,391.63,232.17Z"/><path class="cls-26" d="M276.5,119.38l-2.33,47.17,20.2,1.91L295.48,157s7.13,1.76,9.29-4.83c1.38-4.22,2.61-37.19,2.61-37.19Z"/><path class="cls-15" d="M309.13,120.5c.55,4.41-5.62,7-5.62,7l-1.08,10.44a20,20,0,0,0-2.9,0c.52-4.9-5.79-3.94-6.43-.6s3,5.36,3,5.36c-2.53,3.88-3.55,5.92-7.13,9.55-3.88,3.93-6,4.25-10,4.13l-4.41-.2s-1.57-3.77-2.72-12.67c-.56-4.29-3.9-9.9-2.95-16.87,2.74-19.84,21.74-17.76,21.74-17.76C300.46,109.16,307.83,110.25,309.13,120.5Z"/><path class="cls-15" d="M294.63,109.46c4.29.11,8.72.44,12.49,2.5s6.78,7.55,6,11.76c-.71.13-1.49.42-2.2.55-.29-.53-.65-2.49-.95-3,0,.85-.26,2.74-.25,3.58-1.25.35-2.23-.35-3.49,0a27.45,27.45,0,0,0-3.33-9.11"/><path class="cls-19" d="M309.16,208.64l3.89,12.64,23.24-5.48c-.76-2.34-7.2-17.12-13.83-33.66a28.42,28.42,0,0,0-21.7-17.49,123.63,123.63,0,0,0-20.05-2c-11.73.13-26.94,5.06-29.26,16.57-1.78,8.78,2.17,23.13,2.17,42l-2.78,39.58,58.32,2-5.91-34.72Z"/><g class="cls-20"><path d="M249.37,216.51c7.32,1.49,14.84,0,22.3-.46,4.52-.27,9.54-.76,13.11,2,2.84,2.21,4,5.91,4.8,9.41,1.78,7.58,3,23.26,3.84,37.89a27.55,27.55,0,0,0,15.21,23.09c2.33,1.16,8.48,1.2,8.52,2l-59.8,2.45Z"/></g><rect class="cls-16" x="284.68" y="295.44" width="7.31" height="87.63"/><path class="cls-16" d="M223.3,210.38v64.51a15.32,15.32,0,0,0,15.32,15.32h43V210.38a6.83,6.83,0,0,0-6.83-6.83H230.13A6.83,6.83,0,0,0,223.3,210.38Z"/><path class="cls-16" d="M339.4,295.44H234.78a11.36,11.36,0,0,1,11.36-11.35H328a11.36,11.36,0,0,1,11.36,11.35Z"/><path class="cls-15" d="M281.63,282.58a1.4,1.4,0,0,1,0,.5,5.55,5.55,0,0,1-.17,1.41,7.71,7.71,0,0,1-6.12,5.82,30.11,30.11,0,0,1-4.14.16h-9.4c-6.67,0-12.71,0-17.08-.06l-5.17-.08-1.41-.05a1.38,1.38,0,0,1-.49-.06,2,2,0,0,1,.49-.05h1.41l5.17-.09c4.37-.06,10.41-.09,17.08-.1h9.4a32.34,32.34,0,0,0,4.06-.1,7.33,7.33,0,0,0,3.17-1.34,7.63,7.63,0,0,0,2.83-4.1A18.12,18.12,0,0,1,281.63,282.58Z"/><path class="cls-15" d="M294.75,295.67a76.34,76.34,0,0,1-12.83,0A76.34,76.34,0,0,1,294.75,295.67Z"/><path class="cls-16" d="M326.63,290.8a19.18,19.18,0,0,1-.65-3.08c-.35-2-.82-4.87-1.37-8.43s-1-7.89-3-12.17a29.32,29.32,0,0,0-3.88-6.2,27.79,27.79,0,0,0-5.83-5.26,26.07,26.07,0,0,0-7.07-3.4,26.36,26.36,0,0,0-7.22-1.25c-4.73-.11-9-.09-12.65-.15s-6.53-.11-8.54-.18a16.53,16.53,0,0,1-3.14-.21,18.35,18.35,0,0,1,3.14-.21c2-.06,4.93-.12,8.54-.17s7.89-.13,12.69-.07a27.11,27.11,0,0,1,7.49,1.23,26.83,26.83,0,0,1,7.36,3.52,27.92,27.92,0,0,1,6,5.48,29.56,29.56,0,0,1,4,6.47c.24.56.44,1.12.65,1.67.11.28.21.55.31.83l.24.83c.15.56.3,1.1.45,1.64a15.58,15.58,0,0,1,.29,1.61c.37,2.12.56,4.07.81,5.86.46,3.58.82,6.48,1,8.48A16.81,16.81,0,0,1,326.63,290.8Z"/><path class="cls-16" d="M320.33,391h-1a31.12,31.12,0,0,0-62.24,0h-1a32.16,32.16,0,0,1,64.32,0Z"/><path class="cls-15" d="M261.35,392.62a4.82,4.82,0,1,1-4.82-4.82,4.82,4.82,0,0,1,4.82,4.82Z"/><path class="cls-15" d="M324.87,392a4.82,4.82,0,1,1-4.82-4.82,4.82,4.82,0,0,1,4.82,4.82Z"/><path class="cls-16" d="M320,383.08c0,.15-14,.27-31.25.27s-31.26-.12-31.26-.27,14-.27,31.26-.27S320,382.93,320,383.08Z"/><path class="cls-15" d="M275.33,156.22a68.93,68.93,0,0,0,11.93-.38,25.89,25.89,0,0,0,12.2-5.58c2-1.85,2.53-2.82,2.65-6.7l.32-5.65-5.68-15.52-14.52-1.2-13.45,6.15-1.22,20.35a8,8,0,0,0,7.45,8.52Z"/><path class="cls-15" d="M301,145.9c0,2.31-2.09,4-4,5.29s-4.13,2.62-4.7,4.87c-1.12,4.36,4.55,7.66,5.08,12.13.4,3.26-2,6.1-3.51,9a18.49,18.49,0,0,0-.46,15.8c-6.11.53-12.26,1.06-18.4,1.29L270.74,186l-3.16,8.44a102,102,0,0,1-16.09-1.32c3.16-2.5,3.4-7.15,3.2-11.17s-1-11.16,1.7-14.18c1.85-2.08,4.74-3,6.64-5,2.75-2.94,1.44-4.1.09-7.3a22.06,22.06,0,0,1-1.38-11.94c.63-4,3.12-7.39,5.13-10.9s2.12-6,3.23-10.86"/><path class="cls-15" d="M268.94,121.19a14,14,0,0,1-10.75,7.22,8.56,8.56,0,0,0,7.12,1,17,17,0,0,1-6.91,4c.87,2.24,3.53,3.2,5.92,3.37a16.6,16.6,0,0,0,11.81-3.91,15.12,15.12,0,0,0,3.6-16.41"/><path class="cls-15" d="M273.27,120.21a5.48,5.48,0,0,0,5-3.41,9.16,9.16,0,0,0,.12-6.32,7,7,0,0,0-3.35-4.55c-2.11-1-4.69-.21-6.56,1.19a9.88,9.88,0,0,0-4,6.88,7.94,7.94,0,0,0,3.18,7.16,6.61,6.61,0,0,0,7.66-.14"/><path class="cls-16" d="M260.91,135.8a20.41,20.41,0,0,0,4.91.69,15.15,15.15,0,0,0,5.25-1,13.86,13.86,0,0,0,8.64-9.19,15.11,15.11,0,0,0,.65-5.3,19.63,19.63,0,0,0-1-4.86,1.73,1.73,0,0,1,.18.31,8.26,8.26,0,0,1,.4.92,13.18,13.18,0,0,1,.79,3.61,15,15,0,0,1-.56,5.46,14,14,0,0,1-8.94,9.5,15.07,15.07,0,0,1-5.41.9,13.74,13.74,0,0,1-3.65-.56,9.06,9.06,0,0,1-1-.34A.94.94,0,0,1,260.91,135.8Z"/><path class="cls-16" d="M268.92,131.36a14.2,14.2,0,0,0,6.84-8.93,3.9,3.9,0,0,1-.22,1.73,10.85,10.85,0,0,1-5,6.54A4.12,4.12,0,0,1,268.92,131.36Z"/><path class="cls-16" d="M265.52,111.85a2.29,2.29,0,0,1,.39-.78,5.82,5.82,0,0,1,1.76-1.63,6.62,6.62,0,0,1,3.44-.94,7.13,7.13,0,0,1,4.12,1.45,8.09,8.09,0,0,1,2.68,3.44,9.07,9.07,0,0,1,.67,3.49,8.93,8.93,0,0,1-.29,2.36,2.38,2.38,0,0,1-.3.82,22.42,22.42,0,0,0,.22-3.17,9.44,9.44,0,0,0-.75-3.31,7.68,7.68,0,0,0-2.54-3.21,6.74,6.74,0,0,0-3.81-1.39,6.48,6.48,0,0,0-3.25.78A7.8,7.8,0,0,0,265.52,111.85Z"/><path class="cls-16" d="M280.49,119.2c.08,0,.77,1.37,2.1,3.5a16.71,16.71,0,0,0,2.76,3.39,9.79,9.79,0,0,0,4.67,2.38,30.14,30.14,0,0,0,5.35.54,23.82,23.82,0,0,0,4.39-.11,9.87,9.87,0,0,0,3.76-1.38,3,3,0,0,1-.85.7,8.22,8.22,0,0,1-2.85,1,21.46,21.46,0,0,1-4.46.23,27.82,27.82,0,0,1-5.46-.51A10,10,0,0,1,285,126.4a16.53,16.53,0,0,1-2.74-3.54,28.81,28.81,0,0,1-1.39-2.67A4.28,4.28,0,0,1,280.49,119.2Z"/><path class="cls-16" d="M280.49,119.2a8.52,8.52,0,0,1,.55,1.14c.33.73.83,1.79,1.49,3.07s1.47,2.81,2.4,4.47A32.69,32.69,0,0,0,288.3,133a17,17,0,0,0,4.65,4,12.36,12.36,0,0,0,9.31,1.26,1.62,1.62,0,0,1-.3.15,6.61,6.61,0,0,1-.89.29,10.26,10.26,0,0,1-3.45.23,12.88,12.88,0,0,1-4.91-1.51,16.85,16.85,0,0,1-4.81-4,30.34,30.34,0,0,1-3.39-5.27c-.91-1.68-1.7-3.22-2.31-4.53s-1.07-2.4-1.35-3.17A4.86,4.86,0,0,1,280.49,119.2Z"/><path class="cls-16" d="M278.47,117.8a5.9,5.9,0,0,1,1.06-1,26,26,0,0,1,3.23-2.16,22.17,22.17,0,0,1,5.38-2.15,17.43,17.43,0,0,1,7.08-.28,14,14,0,0,1,6.49,2.85,12.54,12.54,0,0,1,3.53,4.6,10.62,10.62,0,0,1,.9,3.8,6.37,6.37,0,0,1,0,1.07c0,.24-.05.36-.07.36a12.06,12.06,0,0,0-4.63-9.45,13.8,13.8,0,0,0-6.27-2.72,17.38,17.38,0,0,0-6.89.24,23.48,23.48,0,0,0-5.31,2,33.54,33.54,0,0,0-3.29,2A9.31,9.31,0,0,1,278.47,117.8Z"/><path class="cls-16" d="M291.17,109a18.13,18.13,0,0,0-11.2,6.25,5.14,5.14,0,0,1,1.09-1.62,14,14,0,0,1,3.68-3,13.7,13.7,0,0,1,4.47-1.57A5,5,0,0,1,291.17,109Z"/><path class="cls-19" d="M270,122.35a14.43,14.43,0,0,0,2.62.24,7.1,7.1,0,0,0,6.92-7.26,6.93,6.93,0,0,0-.17-1.36,13.84,13.84,0,0,0-.86-2.49,2.1,2.1,0,0,1,.46.57,6.17,6.17,0,0,1,.76,1.84,7.2,7.2,0,0,1-5.09,8.82,7.65,7.65,0,0,1-2,.24,6.46,6.46,0,0,1-2-.29A2.12,2.12,0,0,1,270,122.35Z"/><path class="cls-16" d="M279.37,193.42a4.42,4.42,0,0,1-.34-.69c-.2-.46-.49-1.14-.85-2a40.74,40.74,0,0,1-2.36-7.72,20.53,20.53,0,0,1-.25-5.59,14.48,14.48,0,0,1,1.95-6.13c1.16-1.94,2.91-3.68,3.38-6s-.5-4.8-1.75-7c-.62-1.13-1.31-2.2-1.95-3.31a30.16,30.16,0,0,1-1.65-3.38,13.78,13.78,0,0,1-1.12-7,13,13,0,0,1,2.73-5.82,20.72,20.72,0,0,0,2.84-4.71,17.53,17.53,0,0,0,1-4.41,32.91,32.91,0,0,0,.21-3.44V124a4.82,4.82,0,0,1,0-.76,3.91,3.91,0,0,1,.07.76c0,.5.07,1.24.08,2.19a28.68,28.68,0,0,1-.12,3.47,17.18,17.18,0,0,1-1,4.52,20.47,20.47,0,0,1-2.83,4.82,12.7,12.7,0,0,0-2.6,5.63,13.42,13.42,0,0,0,1.11,6.76,29,29,0,0,0,1.63,3.31c.62,1.09,1.32,2.17,2,3.31a17.41,17.41,0,0,1,1.56,3.57,7.77,7.77,0,0,1,.23,3.8,9,9,0,0,1-1.52,3.35c-.66,1-1.37,1.89-1.95,2.83a14.31,14.31,0,0,0-1.93,5.92,21,21,0,0,0,.18,5.49,44.89,44.89,0,0,0,2.19,7.71c.32.85.57,1.54.76,2A4.87,4.87,0,0,1,279.37,193.42Z"/><path class="cls-15" d="M271.63,135.88a2.44,2.44,0,0,1-.35.55L270.21,138a24.65,24.65,0,0,0-3.18,6,13,13,0,0,0-.68,4.59,10.35,10.35,0,0,0,.46,2.53,16.12,16.12,0,0,0,1.14,2.5c.88,1.66,2.09,3.44,2.19,5.66a6.17,6.17,0,0,1-.79,3.17,11.53,11.53,0,0,1-2,2.66,52.56,52.56,0,0,0-4.59,4.49,9.53,9.53,0,0,0-1.9,5.44,26.81,26.81,0,0,0,.37,5.37,39.51,39.51,0,0,1,.5,4.73,10.84,10.84,0,0,1-1.66,6.63,6,6,0,0,1-1.28,1.38,2.86,2.86,0,0,1-.4.28c-.09.06-.14.09-.15.08a8.6,8.6,0,0,0,1.66-1.85,10.8,10.8,0,0,0,1.46-6.5,38.8,38.8,0,0,0-.56-4.68,27.74,27.74,0,0,1-.42-5.46,9.9,9.9,0,0,1,2-5.73,52,52,0,0,1,4.61-4.54c1.51-1.53,2.75-3.43,2.67-5.46s-1.21-3.76-2.1-5.44a16.25,16.25,0,0,1-1.16-2.59,9.94,9.94,0,0,1-.45-2.65,13.08,13.08,0,0,1,.68-4.77,23,23,0,0,1,3.37-6c.48-.65.87-1.14,1.15-1.47A5.11,5.11,0,0,1,271.63,135.88Z"/><path class="cls-16" d="M290.38,192.8a.34.34,0,0,1-.17-.08q-.24-.14-.48-.3a6.31,6.31,0,0,1-1.49-1.6,10.59,10.59,0,0,1-1.13-7.79,38.71,38.71,0,0,1,1.6-5.28,27.71,27.71,0,0,0,1.61-6,19.39,19.39,0,0,0-.38-6.83,20.89,20.89,0,0,0-3-6.73,23.61,23.61,0,0,1-3.31-6.76,22,22,0,0,1-.48-7c.34-4.46,1.2-8.38,1.1-11.73a17,17,0,0,0-1.63-7.65,18.28,18.28,0,0,0-1.61-2.4A8.39,8.39,0,0,1,282.8,125a16.38,16.38,0,0,1,1.81,7.74c.15,3.39-.67,7.36-1,11.76a21.85,21.85,0,0,0,.49,6.84,23.37,23.37,0,0,0,3.27,6.62,21.45,21.45,0,0,1,3,6.88,19.62,19.62,0,0,1,.36,7,28.18,28.18,0,0,1-1.68,6.12,39.27,39.27,0,0,0-1.65,5.2,10.55,10.55,0,0,0,.94,7.61A7.45,7.45,0,0,0,290.38,192.8Z"/><path class="cls-19" d="M348.73,392.68l-.05-1.78-16.77.41.11,5.87,1,.05c4.61.15,23.46.44,26.51-.56C363,395.55,348.73,392.68,348.73,392.68Z"/><g class="cls-29"><path class="cls-22" d="M338.07,396.92a5.72,5.72,0,0,0-2.21-3.51,5.6,5.6,0,0,0-3.93-1.13L332,397Z"/></g><g class="cls-29"><path class="cls-22" d="M355.7,394.33s5,1.32,4.4,2.15-19.66,1.26-28.08.7v-.37l22.23-.3S354.73,394.39,355.7,394.33Z"/></g><path class="cls-15" d="M331.78,396.8h1.11l3,.07c2.56,0,6.1,0,10-.05s7.45-.23,10-.38l3-.19.83-.07h-.83l-3,.13c-2.56.11-6.1.24-10,.32s-7.45.1-10,.1H332A1.17,1.17,0,0,0,331.78,396.8Z"/><path class="cls-15" d="M354.27,396.8a7.77,7.77,0,0,1,.54-1.46,6.65,6.65,0,0,1,1-1.18,2.7,2.7,0,0,0-1.55,2.64Z"/><path class="cls-15" d="M349.29,394.38a3.43,3.43,0,0,0,.52-.65,2,2,0,0,0,.34-.76,3.89,3.89,0,0,0-.52.65A2.17,2.17,0,0,0,349.29,394.38Z"/><path class="cls-15" d="M347.93,393.7a2.4,2.4,0,0,0,.58-.41c.28-.27.48-.51.44-.55s-.3.14-.58.4S347.89,393.66,347.93,393.7Z"/><path class="cls-15" d="M347,392.14a3.85,3.85,0,1,0,.87-.11A1.86,1.86,0,0,0,347,392.14Z"/><path class="cls-15" d="M346.72,391a1.63,1.63,0,0,0,1,.27,1.73,1.73,0,0,0,1-.16,5.57,5.57,0,0,0-1,0A6.65,6.65,0,0,0,346.72,391Z"/><path class="cls-15" d="M349.83,392.91a2.75,2.75,0,0,0,1.07,0,5.56,5.56,0,0,0,1.14-.27,2.93,2.93,0,0,0,.65-.29.51.51,0,0,0,.25-.34.41.41,0,0,0-.17-.42,2,2,0,0,0-2.42.63,1.89,1.89,0,0,0-.33.72v.29a2.89,2.89,0,0,1,.46-.93,2,2,0,0,1,.91-.61,1.67,1.67,0,0,1,1.28.06c.17.12.11.32-.08.44a2.88,2.88,0,0,1-.59.27,6.62,6.62,0,0,1-1.1.31C350.24,392.87,349.83,392.88,349.83,392.91Z"/><path class="cls-15" d="M350.11,393a1,1,0,0,0,.11-.75,1.93,1.93,0,0,0-.31-.77,1.09,1.09,0,0,0-.91-.53.43.43,0,0,0-.32.5,1.18,1.18,0,0,0,.19.48,4,4,0,0,0,.52.63,1.66,1.66,0,0,0,.63.42,5,5,0,0,1-.52-.52,3.69,3.69,0,0,1-.47-.63c-.15-.22-.26-.63,0-.68s.55.23.72.44a1.49,1.49,0,0,1,.31.69A3.49,3.49,0,0,1,350.11,393Z"/><path class="cls-15" d="M332,392.23a8,8,0,0,1,1.23,0,5.2,5.2,0,0,1,4.45,3.39c.27.71.31,1.19.34,1.18s0-.12,0-.34a4.6,4.6,0,0,0-.21-.89,5,5,0,0,0-1.74-2.45,5.16,5.16,0,0,0-2.83-1,4.71,4.71,0,0,0-.92,0A.94.94,0,0,0,332,392.23Z"/><path class="cls-15" d="M340.14,395.24a8.69,8.69,0,0,0,2.44.19,9.42,9.42,0,0,0,2.43-.25,20,20,0,0,0-2.44.05C341.22,395.28,340.14,395.18,340.14,395.24Z"/><path class="cls-15" d="M336.86,395.31l.21.48c.11.25.19.46.24.46s.09-.27-.05-.55S336.9,395.27,336.86,395.31Z"/><path class="cls-15" d="M335.63,393.8a1.12,1.12,0,0,0,.25.39c.18.18.35.27.39.23s-.08-.21-.25-.38A1.09,1.09,0,0,0,335.63,393.8Z"/><path class="cls-15" d="M333.82,393.14c0,.06.23.05.48.13s.43.21.47.17-.1-.27-.41-.36S333.8,393.09,333.82,393.14Z"/><path class="cls-15" d="M332.55,392.8a.48.48,0,0,0,.22.18.52.52,0,0,0,.29,0s-.08-.14-.22-.19A.48.48,0,0,0,332.55,392.8Z"/><path class="cls-15" d="M325.2,335.7c-.14,0,.36-9,1.12-20s1.49-19.9,1.63-19.9-.35,8.95-1.11,20S325.34,335.71,325.2,335.7Z"/><path class="cls-15" d="M334.84,338a13.18,13.18,0,0,1-.17-1.65c-.07-1.16-.17-2.67-.3-4.5-.24-3.81-.61-9-1.13-14.84s-1.09-11-1.53-14.8c-.2-1.83-.38-3.34-.51-4.48a11.48,11.48,0,0,1-.12-1.66,10,10,0,0,1,.32,1.63c.18,1.05.41,2.57.68,4.46.52,3.78,1.15,9,1.68,14.8s.83,11.06,1,14.87c.08,1.9.12,3.44.14,4.51A9.22,9.22,0,0,1,334.84,338Z"/><g class="cls-20"><path d="M338.88,294.88A46.09,46.09,0,0,1,307.7,318c-2.72.54-5.7.79-8.1-.6-3.27-1.9-4.28-6.17-4.24-9.95s0-8.94,0-12.55Z"/></g><path class="cls-15" d="M280.75,230.94c0-.14,5-.92,11.18-1.73s11.23-1.35,11.24-1.21-5,.92-11.17,1.73S280.77,231.08,280.75,230.94Z"/><path class="cls-15" d="M296,229.09a9.11,9.11,0,0,1-1.69-1.14l-1.7-1.35a2.25,2.25,0,0,1-.85-1.16,1.59,1.59,0,0,1,.55-1.5,1.84,1.84,0,0,1,1.5-.46,2.27,2.27,0,0,1,1.26.68,3.32,3.32,0,0,1,.89,2.13,4.34,4.34,0,0,1-.23,2.05c-.09,0,0-.8-.13-2a3,3,0,0,0-.87-1.83,1.48,1.48,0,0,0-2.08-.17,1.09,1.09,0,0,0-.39,1,1.8,1.8,0,0,0,.66.9l1.67,1.43A7.58,7.58,0,0,1,296,229.09Z"/><path class="cls-15" d="M295.35,229.14a3.62,3.62,0,0,1,.47-1.67,7.8,7.8,0,0,1,1-1.6,6.82,6.82,0,0,1,.79-.82,1.88,1.88,0,0,1,1.28-.43.76.76,0,0,1,.66.5.92.92,0,0,1-.06.76,4.2,4.2,0,0,1-.7.93,7.44,7.44,0,0,1-1.45,1.23,3.56,3.56,0,0,1-1.58.72c0-.08.55-.37,1.36-1a8.61,8.61,0,0,0,1.31-1.25,3.68,3.68,0,0,0,.6-.82c.13-.28,0-.51-.2-.54-.64-.05-1.2.57-1.65,1a9,9,0,0,0-1.07,1.46A14.69,14.69,0,0,1,295.35,229.14Z"/><path class="cls-1" d="M326.89,339.55a54.26,54.26,0,0,1,3.84-9.84,25.14,25.14,0,0,1-1.68,5A26.87,26.87,0,0,1,326.89,339.55Z"/><path class="cls-1" d="M309.24,334.31a14.82,14.82,0,0,1-4.14-2.82,15.26,15.26,0,0,1-3.38-3.7c.11-.1,1.65,1.52,3.72,3.31S309.33,334.18,309.24,334.31Z"/><path class="cls-1" d="M314.76,311.33a14.17,14.17,0,0,1-2.45-3,14.83,14.83,0,0,1-2-3.3,27.65,27.65,0,0,1,4.45,6.3Z"/><path class="cls-1" d="M305.88,279.48a21.94,21.94,0,0,1-3.11-3.49,21.14,21.14,0,0,1-2.69-3.81,21,21,0,0,1,3.1,3.49A20.7,20.7,0,0,1,305.88,279.48Z"/><path class="cls-1" d="M327.47,275.44a21.13,21.13,0,0,1-4.63.44,21.91,21.91,0,0,1-4.65-.07,20,20,0,0,1,4.63-.45A20.66,20.66,0,0,1,327.47,275.44Z"/><path class="cls-1" d="M332.47,262.5a12.56,12.56,0,0,1-2-3,13.12,13.12,0,0,1-1.54-3.28,12.27,12.27,0,0,1,2,3A13.28,13.28,0,0,1,332.47,262.5Z"/><path class="cls-1" d="M310,259.71a13.87,13.87,0,0,1-3.3,1.84,14.29,14.29,0,0,1-3.53,1.37A27.5,27.5,0,0,1,310,259.71Z"/><path class="cls-1" d="M297.36,260.71q-4.39-3-8.56-6.41a34.41,34.41,0,0,1,8.56,6.41Z"/><path class="cls-1" d="M296.21,236.47c.05.15-2.24,1-4.9,2.32s-4.68,2.73-4.77,2.6a22.22,22.22,0,0,1,9.67-4.92Z"/><path class="cls-1" d="M291.9,218.62a19,19,0,0,1-3.32-2.94,20.19,20.19,0,0,1-2.95-3.31,19,19,0,0,1,3.32,2.94A18.21,18.21,0,0,1,291.9,218.62Z"/><path class="cls-1" d="M304.57,205.42a11.55,11.55,0,0,1-2.7,2.12,11.06,11.06,0,0,1-3,1.68,22.58,22.58,0,0,1,5.68-3.8Z"/><path class="cls-1" d="M294.34,203.09a16.14,16.14,0,0,1-2.79-2.93,15.69,15.69,0,0,1-2.39-3.27,15.87,15.87,0,0,1,2.79,2.94A15.28,15.28,0,0,1,294.34,203.09Z"/><path class="cls-1" d="M310.23,184a31.23,31.23,0,0,1-3.94,2.24,33.49,33.49,0,0,1-4,2.16A13.69,13.69,0,0,1,306,185.8,14.42,14.42,0,0,1,310.23,184Z"/><path class="cls-1" d="M318.63,195.92a14.4,14.4,0,0,1,.9-3.77,14.66,14.66,0,0,1,1.39-3.61A29,29,0,0,1,318.63,195.92Z"/><path class="cls-1" d="M322.38,209.53a10.76,10.76,0,0,1-3.84-1.77,10.53,10.53,0,0,1-3.19-2.75c.1-.11,1.54,1.08,3.48,2.32S322.43,209.39,322.38,209.53Z"/><path class="cls-1" d="M299.52,177a22.15,22.15,0,0,1,2.21-4.13,21.74,21.74,0,0,1,2.65-3.87,19.85,19.85,0,0,1-2.21,4.14A21.66,21.66,0,0,1,299.52,177Z"/><path class="cls-1" d="M276.69,199a28.77,28.77,0,0,1-5.45-.79,28.31,28.31,0,0,1-5.36-1.3,28.54,28.54,0,0,1,5.45.79A28.13,28.13,0,0,1,276.69,199Z"/></g><g id="freepik--Charts--inject-8"><rect class="cls-2" x="348.46" y="110.34" width="74.16" height="56.16"/><rect class="cls-19" x="402.93" y="123.56" width="8.66" height="34.5"/><rect class="cls-19" x="388.68" y="120.94" width="8.66" height="37.11"/><rect class="cls-19" x="374.87" y="125.54" width="8.66" height="32.51"/><rect class="cls-33" x="374.87" y="125.54" width="8.66" height="32.51"/><rect class="cls-19" x="360.85" y="130.61" width="8.66" height="27.44"/><rect class="cls-19" x="402.93" y="123.56" width="8.66" height="34.5"/><path class="cls-15" d="M418.17,158.18c0,.14-14.24.26-31.81.26s-31.8-.12-31.8-.26,14.24-.26,31.8-.26S418.17,158,418.17,158.18Z"/><path class="cls-15" d="M414.55,125.69c0,.06-1-.12-2.77,0a16.52,16.52,0,0,0-7.15,2.11,15.18,15.18,0,0,0-4,3.27c-1.24,1.39-2.35,3.07-3.67,4.75a13.64,13.64,0,0,1-5.12,4.32,18.5,18.5,0,0,1-7,1.39c-2.46.09-4.85,0-7.14.07a33.43,33.43,0,0,0-6.53.89,19.43,19.43,0,0,0-5.47,2.27,14.25,14.25,0,0,0-3.81,3.45,12.17,12.17,0,0,0-2.57,6.92,17,17,0,0,0,.29,2.75,7.83,7.83,0,0,1-.5-2.75,12.14,12.14,0,0,1,2.49-7.14,14.23,14.23,0,0,1,3.87-3.59A19.36,19.36,0,0,1,371,142a32.31,32.31,0,0,1,6.63-.94c2.32-.11,4.71,0,7.14-.08a18.33,18.33,0,0,0,6.86-1.33,13.27,13.27,0,0,0,5-4.16c1.31-1.64,2.43-3.33,3.71-4.74a15.69,15.69,0,0,1,4.13-3.3,16.09,16.09,0,0,1,7.32-2,13,13,0,0,1,2.07.11A3.82,3.82,0,0,1,414.55,125.69Z"/><path class="cls-15" d="M349.19,134a1.77,1.77,0,0,1-.46,0h-6.46l-18.28-.3h-.22V106.67c0-14.36.06-27.36.08-36.82,0-4.68.06-8.48.08-11.16,0-1.28,0-2.3.05-3V54.9a1.22,1.22,0,0,1,0-.27.62.62,0,0,1,0,.27v3.79c0,2.68,0,6.48.09,11.16,0,9.46,0,22.46.07,36.82v26.85l-.22-.22,18.28.48,5.11.17,1.34.06A2.45,2.45,0,0,1,349.19,134Z"/><path class="cls-15" d="M457.72,91.36a4.62,4.62,0,0,1-.65,0H455.2l-6.89.08-22.73.08H412.42l.24-.23c0,5.56-.07,10.28-.1,13.69,0,1.62-.05,2.93-.07,3.9v1a.18.18,0,1,1-.08.35.18.18,0,0,1-.13-.21.19.19,0,0,1,.13-.14v-1c0-1,0-2.28-.06-3.9,0-3.41-.06-8.13-.1-13.69V91.1h13.4l22.73.07,6.89.09h1.87A2.82,2.82,0,0,1,457.72,91.36Z"/><path class="cls-15" d="M348.46,153a1.09,1.09,0,0,1-.36,0H343L328.15,153,279,152.6,240,152.21h-.14l-.06-.13L231,131.8l-2.41-5.64-.62-1.49a4.56,4.56,0,0,1-.18-.52,3.23,3.23,0,0,1,.25.49c.16.36.38.85.67,1.47.58,1.32,1.42,3.21,2.49,5.62,2.14,4.88,5.18,11.84,8.85,20.23l-.2-.13,39.08.3,49.11.52,14.89.22,4,.09h1.05A1.27,1.27,0,0,1,348.46,153Z"/><path class="cls-4" d="M247.12,152.25a4.55,4.55,0,1,1-4.55-4.55h.06A4.55,4.55,0,0,1,247.12,152.25Z"/><path class="cls-16" d="M231.09,126.08H203.72a6.94,6.94,0,0,1-6.94-6.94h0a6.94,6.94,0,0,1,6.94-6.94h27.37a6.94,6.94,0,0,1,6.94,6.94h0a6.94,6.94,0,0,1-6.94,6.94Z"/><rect class="cls-2" x="214.48" y="49.46" width="63.75" height="42.33"/><rect class="cls-34" x="249.34" y="62.22" width="42.33" height="16.81"/><path class="cls-4" d="M241.52,62.94a93.37,93.37,0,0,1-9.9.26,93.69,93.69,0,0,1-9.91-.26,96.45,96.45,0,0,1,9.91-.26A96.1,96.1,0,0,1,241.52,62.94Z"/><path class="cls-4" d="M241.52,66a90.78,90.78,0,0,1-9.9.27,91.1,91.1,0,0,1-9.91-.27,96.55,96.55,0,0,1,9.92-.21A96,96,0,0,1,241.52,66Z"/><path class="cls-4" d="M241.52,69.09a96.1,96.1,0,0,1-9.9.26,96.45,96.45,0,0,1-9.91-.26,93.83,93.83,0,0,1,9.92-.29A93.26,93.26,0,0,1,241.52,69.09Z"/><path class="cls-4" d="M241.52,72.16a96.1,96.1,0,0,1-9.9.26,96.45,96.45,0,0,1-9.91-.26,93.69,93.69,0,0,1,9.91-.26A93.37,93.37,0,0,1,241.52,72.16Z"/><path class="cls-4" d="M241.52,75.23a96.1,96.1,0,0,1-9.9.26,96.45,96.45,0,0,1-9.91-.26,93.69,93.69,0,0,1,9.91-.26A93.37,93.37,0,0,1,241.52,75.23Z"/><path class="cls-4" d="M233.35,78.3a33.28,33.28,0,0,1-5.82.26,33.33,33.33,0,0,1-5.82-.26,32.38,32.38,0,0,1,5.82-.26A32.34,32.34,0,0,1,233.35,78.3Z"/><path class="cls-4" d="M277.72,55.67c0,.15-14.16.26-31.62.26s-31.62-.11-31.62-.26,14.15-.26,31.62-.26S277.72,55.53,277.72,55.67Z"/><path class="cls-15" d="M392.33,94.33a3.53,3.53,0,0,1,0-.46V92.58c0-1.16,0-2.79-.06-4.84,0-4.18-.06-10.07-.11-17.12l.22.23H368.67l.26-.26h0V94.28l-.23-.22,17.12.11,4.84.06h.09l-4.79.06-17.26.12h-.22V70.49h0l.26-.26h23.94v.22c-.05,7.11-.09,13-.12,17.26,0,2,0,3.64-.06,4.79v1.25A1.69,1.69,0,0,1,392.33,94.33Z"/><rect class="cls-4" x="397.18" y="60.47" width="11.86" height="11.86"/><path class="cls-16" d="M488.93,98.3H461.56a6.94,6.94,0,0,1-6.94-6.94h0a6.94,6.94,0,0,1,6.92-6.94h27.39a6.94,6.94,0,0,1,6.94,6.94h0a6.94,6.94,0,0,1-6.94,6.94Z"/><circle class="cls-4" cx="412.29" cy="91.45" r="4.55"/><circle class="cls-4" cx="324.49" cy="132.89" r="4.55"/><path class="cls-16" d="M310.31,48.73h27.37a6.94,6.94,0,0,1,6.94,6.94h0a6.94,6.94,0,0,1-6.94,6.94H310.31a6.94,6.94,0,0,1-6.94-6.94h0A6.94,6.94,0,0,1,310.31,48.73Z"/></g></g></g></svg>