<svg width="1098" height="1173" viewBox="0 0 1098 1173" fill="none" xmlns="http://www.w3.org/2000/svg">
<g clip-path="url(#clip0_442_3)">
<path d="M786.62 481C925.453 481 1038 368.627 1038 230.008C1038 91.3887 925.453 -20.9844 786.62 -20.9844C647.787 -20.9844 535.241 91.3887 535.241 230.008C535.241 368.627 647.787 481 786.62 481Z" fill="url(#paint0_linear_442_3)"/>
<path d="M255.644 886.476C217.463 813.821 204.118 730.662 217.649 649.707C231.18 568.752 270.842 494.454 330.574 438.169C390.306 381.883 466.823 346.705 548.43 338.011C630.036 329.317 712.245 347.586 782.492 390.025C852.739 432.463 907.16 496.738 937.439 573.026C967.717 649.314 972.188 733.419 950.167 812.487C928.145 891.555 880.844 961.238 815.492 1010.89C750.14 1060.53 670.331 1087.42 588.262 1087.42H0" stroke="black" stroke-width="30" stroke-miterlimit="10"/>
<path d="M178.317 922.539L322.337 830.2L296.49 948.388L178.317 922.539Z" fill="black"/>
<path d="M732.775 150.446C703.693 106.127 661.532 71.9661 612.148 52.7087C562.765 33.4513 508.61 30.0533 457.207 42.9869C405.804 55.9204 359.705 84.5434 325.313 124.88C290.92 165.216 269.942 215.264 265.292 268.07C262.284 303.165 266.527 338.504 277.757 371.889" stroke="black" stroke-width="30" stroke-miterlimit="10"/>
<path d="M649.743 177.845L803.834 103.467L763.973 217.71L649.743 177.845Z" fill="black"/>
<path d="M839.188 1087.42H1023.91" stroke="black" stroke-width="30" stroke-miterlimit="10"/>
<path d="M1012.43 1001.92V1173L1098 1087.49L1012.43 1001.92Z" fill="black"/>
</g>
<defs>
<linearGradient id="paint0_linear_442_3" x1="786.62" y1="-20.9844" x2="786.62" y2="481" gradientUnits="userSpaceOnUse">
<stop stop-color="#B1FFBE"/>
<stop offset="0.444" stop-color="#5CDB8E"/>
<stop offset="1" stop-color="#149654"/>
</linearGradient>
<clipPath id="clip0_442_3">
<rect width="1098" height="1173" fill="white"/>
</clipPath>
</defs>
</svg>
