<svg xmlns="http://www.w3.org/2000/svg" viewBox="0 0 2888.89 1524.44"><defs><style>.cls-1{fill:#fff;}.cls-2{fill:#ebf3fa;}.cls-3{fill:#e2eef9;}.cls-4{fill:#deedff;}.cls-5{fill:#c7ddea;}.cls-6{fill:#d7e9f2;}.cls-7{fill:#f99746;}.cls-8{fill:#ffb278;}.cls-9{fill:#c2d9ef;}.cls-10{fill:#9abedb;}.cls-11{fill:#d3e3ef;}.cls-12{fill:#d1a586;}.cls-13{fill:#e5bd9e;}.cls-14{fill:#dfb697;}.cls-15{fill:#a0795f;}.cls-16{fill:#ffb27d;}.cls-17{fill:#c65447;}.cls-18{fill:#aa413e;}.cls-19{fill:#b5453c;}.cls-20{fill:#ed975d;}.cls-21{fill:#699dee;}.cls-22{fill:#4a75cb;}.cls-23{fill:#1c468a;}.cls-24{fill:#163560;}.cls-25,.cls-46{fill:#e37970;}.cls-26{fill:#2b478b;}.cls-27{fill:#e7f1fd;}.cls-28{fill:#c45446;}.cls-29{fill:#233862;}.cls-30{fill:#ed7d2b;}.cls-31{fill:#c69d7f;}.cls-32{fill:#e0b594;}.cls-33{fill:#f4a269;}.cls-34{fill:#9e332e;}.cls-35{fill:#6bb7bf;}.cls-36{fill:#599dad;}.cls-37{fill:#d86713;}.cls-38{fill:#f1a34f;}.cls-39{fill:#e78b37;}.cls-40{fill:#ee9849;}.cls-41{fill:#e9f3fe;}.cls-42{fill:#afcdfb;}.cls-43{fill:#e49963;}.cls-44{fill:#e58638;}.cls-45{fill:#dde3f2;}.cls-46{opacity:0.2;}.cls-47{fill:#b2cee7;}.cls-48{fill:#82b378;}.cls-49{fill:#a8d29f;}.cls-50{fill:#ffb973;}.cls-51{fill:#2e3552;}</style></defs><g id="Layer_2" data-name="Layer 2"><g id="Слой_2" data-name="Слой 2"><rect class="cls-1" width="2888.89" height="1524.44"/><path class="cls-2" d="M2626.93,1334.78l-2403.21-.62s-1.49-1.35-4.18-4q-1.6-1.56-3.77-3.72c-3.79-3.8-8.79-9-14.66-15.44-2.29-2.5-4.71-5.21-7.23-8.09a605.11,605.11,0,0,1-38.74-49.21q-5.22-7.35-10.48-15.31l-.44-.66c-1.15-1.74-2.3-3.51-3.46-5.29h0q-2.56-4-5.1-8c-6.22-10-12.39-20.59-18.33-31.72l-1.11-2.1q-6.19-11.68-12-24.16c-.33-.69-.65-1.39-1-2.1-.45-1-.89-2-1.34-2.95l-1.13-2.54c-1-2.11-1.87-4.24-2.78-6.38l-.27-.63c-.26-.59-.51-1.19-.77-1.79-2.83-6.74-5.55-13.62-8.11-20.63q-1.86-5-3.59-10.16a424.38,424.38,0,0,1-12.9-46c-2.49-11.35-4.54-23-6-34.81,0-.19,0-.38-.07-.57a368.92,368.92,0,0,1-2.89-53.4c1.53-80,29.84-168.17,106-258.32,38.75-45.85,78.55-83.7,118.9-114.42a609.62,609.62,0,0,1,51.47-35.24c85.93-52.46,173.39-75,257.79-75.89,3.41,0,6.82,0,10.21,0,99.66.95,194.75,31.64,277.54,78.13,53,29.76,167.39,25.22,296.83-48.84q25.38-14.53,51.45-32.72c43-30.08,86.87-67.94,130.15-114.8q4-4.33,8-8.77,30.68-34,60.65-74.23c.38-.53.77-1.05,1.16-1.55q9.4-12.54,19.78-24.19c156.5-176.09,472.5-204.57,727.27-116q26.2,9.1,51.47,19.85c59.65,25.39,114.8,57.6,162.26,96.17q14.4,11.7,27.84,24.19a481.57,481.57,0,0,1,66.5,75.78q3.06,4.35,6,8.77c65.24,97.91,88.92,219.94,45.43,362.55C2451.7,1034.65,2809,1045.19,2626.93,1334.78Z"/><polygon class="cls-3" points="2104.32 800.75 2104.32 739.85 2086.47 739.85 2086.47 635.13 1990.78 635.13 1990.78 739.85 1901.32 739.85 1901.32 569.22 1802.6 569.22 1802.6 679.98 1780.09 679.98 1780.09 547.75 1681.36 547.75 1681.36 795.68 1556.51 795.68 1556.51 940.27 1509.86 940.27 1509.86 875.9 1402.71 875.9 1402.71 913.97 1341.19 913.97 1341.19 743.54 1265.19 743.54 1265.19 869.69 1189.19 869.69 1189.19 1331.91 1265.19 1331.91 1330.33 1331.91 1341.19 1331.91 1402.71 1331.91 1437.48 1331.91 1493.18 1331.91 1509.86 1331.91 1556.51 1331.91 1600.34 1331.91 1681.36 1331.91 1706.18 1331.91 1755.55 1331.91 1780.09 1331.91 1802.6 1331.91 1854.27 1331.91 1889.45 1331.91 1901.32 1331.91 1990.78 1331.91 2084.87 1331.91 2086.47 1331.91 2104.32 1331.91 2180.56 1331.91 2180.56 800.75 2104.32 800.75"/><polygon class="cls-3" points="1199.28 884.88 1199.28 1331.25 325.88 1331.25 325.88 942.82 392.83 942.82 392.83 836.81 459.78 836.81 459.78 980.03 513.98 980.03 513.98 948.03 608.4 948.03 608.4 1002.13 649.49 1002.13 649.49 880.63 759.48 880.63 759.48 672.27 846.45 672.27 846.45 783.4 866.29 783.4 866.29 690.31 953.26 690.31 953.26 833.7 1032.09 833.7 1032.09 745.71 1116.39 745.71 1116.39 833.7 1132.11 833.7 1132.11 884.88 1199.28 884.88"/><path class="cls-4" d="M2232,177.48V1328.61h-51.47v-1171Q2206.76,166.74,2232,177.48Z"/><path class="cls-4" d="M339.73,576.54v752.07H288.26V611.78A609.62,609.62,0,0,1,339.73,576.54Z"/><path class="cls-4" d="M1233.55,497.19v831.42H1182.1V529.91Q1207.48,515.38,1233.55,497.19Z"/><path class="cls-5" d="M1575,1183.17h-39c3.62-29.7,9.54-49.32,9.63-49.61a2.5,2.5,0,0,0,.1-.72s1.33-8.14-12.63-8.33c-13-.18-19.33,5.2-20.48,7.17-3.66-16.68-8.78-30.5-15.09-32.46a32.09,32.09,0,0,0-9.11-1.2c-.33-1-1.16-3.13-2.48-3.64a1.7,1.7,0,0,0-.49-.08,41.22,41.22,0,0,1-2.71-8.69c0-.14.09-.28.13-.43,5.12-6.85,8.11-21.08,5.71-23.56-8.89-9.19-40.46-3.23-28.27,7.62-.14.39-.27.78-.37,1.17-1,3.69.43,22.44,5.06,22.93a31.69,31.69,0,0,0,3.62-.1c.07,1,.19,2.42.33,4.13l-1.78.43a12.15,12.15,0,0,0-5.23,4.48h0s-15.75,8.22-17.81,16-9.63,45.27-12.54,47.89-36.37,8.73-36.37,8.73a13.13,13.13,0,0,0-1,1.27c-2.3-1.26-6-3.17-7.52-3.4-2.1-.31-11.3,7.31-11.84,9.3-1,.66-1.62,1.14-1.62,1.14h-5.15v-1.43h-10l0,0,5.18,0c-.44,0-3.8-.08-4.27-2.61a3.24,3.24,0,0,1-.06-.64c0-.4.17-2.47.47-5.72.07-.83.16-1.73.25-2.71.17-1.84.36-3.94.58-6.21l.15-1.1h68.17l3.87-2.28h0l-5.2-19.48h0l-.28-1.08h.06l-22.52-84.09,0-.07H1265.41v.08l-2,.68,25.33,106.24h41.82l-1.31,15.61s-.7,4.82,2.88,4.82h5.73v0H1204.74l.22,0h.47a2,2,0,0,0,2-2.21l-2.1-20.94h37.45l11.17-91H1131.05l-9.6,78.21c-1.78-6.57-3.18-12.07-3.18-12.07-1-2.52-5-16.78-7-18.93h0a10,10,0,0,0-4.32-2,4.45,4.45,0,0,0,.66-2.73c-.45-5.52,6-5.06,9.94-11.41,3.46-5.55-2.71-6.95.59-15.92,2.42-6.57-3.88-8.17-3.69-13.65,0,0-.81-10.22-15.49-7.56-3.89.7-6.55-6.23-12.91-3.76-13.69,5.31-14.49-1.7-18.45,8.14-1.65,4.12-12.18,8.92-9,16s-2.17,11.91,1.61,17.49c2,2.89,1.16,8,10.39,8.23a10.26,10.26,0,0,1,5,2.13c-3,.58-6.88,1.66-9.61,3.57h0a9.34,9.34,0,0,0-1.69,1.48l-.08.09a9.72,9.72,0,0,0-1.67,3.33h0s-2,5.27-4.12,12a31.94,31.94,0,0,0-7.45-.71c-.34,0-.67,0-1,0-.72,0-1.47,0-2.24,0-12.5.18-11.32,8-11.32,8a2.84,2.84,0,0,0,.09.7c.08.26,4.83,17.25,8.1,43.38H998.55a7.68,7.68,0,0,0-7.66,7.67h0a7.67,7.67,0,0,0,7.66,7.66h31.63l-.28,2.08-8.89,66.26-8.32,61.94a1.24,1.24,0,0,0,1.25,1.38,1.75,1.75,0,0,0,1.74-1.43l9.65-54.64,10.78-61.12h0l2.55-14.47h7.57c.94,11,1.51,23,1.39,35.75v.16a2,2,0,0,0-.09.55v1.27a2,2,0,0,0,0,.34c0,.2,0,.39,0,.56h.18a2,2,0,0,0,1.75,1.07h.45a.69.69,0,0,0,0,.24c0,.44,2.92,35-8.37,91.4h2.1c15.53-45.23,14.79-85,14.12-91.64h10.33a1,1,0,0,0,0,.24c0,.44,2.92,35-8.37,91.4h2.11c15.53-45.23,14.79-85,14.12-91.64h40.32c-.67,6.62-1.42,46.41,14.11,91.64h2.11c-11.29-56.37-8.39-91-8.37-91.4a.69.69,0,0,0,0-.24h10.21c-.67,6.62-1.41,46.41,14.12,91.64h2.11c-8.1-40.41-8.9-69.63-8.69-83.09.22,2.39.48,5,.89,7.64,1.67,10.7,29.58,54,29.58,54l.73.21c.3,1.1.57,2.1.76,2.89.59,2.4-.28,5.08-1,7.12a13.67,13.67,0,0,0-.94,3.45c-.31,3.42,4.44,4.25,10,4.52s3.84,1.41,11.39,2.77,10.57-.7,11.11-1.72c.24-.43-.46-1-1.65-1.62.83.08,1.7.15,2.6.19,5.5.27,3.84,1.4,11.38,2.77s10.58-.7,11.12-1.72-3-2.32-6.76-3.92l-1.41-.61c-4.21-1.85-6.57-5.62-9.85-9.12-1.41-1.51-2.79-4.51-3.87-7.34a6.42,6.42,0,0,0,1.7-.81s-20.58-94.32-33.41-102.41c-1.84-1.16-4.81-2-8.56-2.72.19-.18-.47-.91-1.51-1.85h271.18c-20.92,4.57-42.74,10.45-46.44,15.71-7.42,10.54-19,100.31-19,100.31l.32.09c-4.74,5.43-12.45,8.43-17.44,9.3-6.17,1.08-6.31,6.16-6.31,6.16l21.11.13s16.54,0,17,0c2.35-.17,3.58-8.75,4.1-13.85a9.41,9.41,0,0,0,1-.3s27.59-71.13,29.82-78.82a3.45,3.45,0,0,1,2.23-2,2.15,2.15,0,0,0,.8.16h5.5a.71.71,0,0,0-.06.25c0,.09.13,1.44.23,4a13.05,13.05,0,0,0-3.06,6.49c-.53,4.86.21,22.34,1,38.19-1.19,10.75-3,23.1-5.69,36.85a34.23,34.23,0,0,1-8.47,2.78c-6.18,1.08-6.31,6.16-6.31,6.16l12.92.08v0h2.35l0,0,5.83,0H1441v0c1.55,0,2.62,0,2.73,0,2.81-.21,4-12.48,4.33-16.38a3.55,3.55,0,0,0,1.44-.83s.47-6.38,1.09-15.12a255.36,255.36,0,0,0,6.45-51.39c6.81-3,21.55-7.63,33.56-11h11.14c-.75,6.85-1.58,48,15.75,94.81h2.35c-12.6-58.32-9.36-94.11-9.34-94.56a1,1,0,0,0,0-.25h11.52c-.75,6.85-1.57,48,15.75,94.81H1540c-12.6-58.32-9.36-94.11-9.34-94.56a.71.71,0,0,0-.06-.25h.59a2.13,2.13,0,0,0,1.85-1.11h.22c0-.2,0-.42,0-.65a2.22,2.22,0,0,0,0-.37v-1.15a2,2,0,0,0-.09-.6v-.22c-.12-11.57.36-22.59,1.19-32.79H1542l2.09,11.86,12.32,69.82,8.57,48.55a1.75,1.75,0,0,0,1.74,1.43,1.24,1.24,0,0,0,1.25-1.38l-6.34-47.21-10.69-79.65-.45-3.42H1575a7.67,7.67,0,0,0,7.66-7.66h0A7.68,7.68,0,0,0,1575,1183.17Zm-283.27-22.74Zm-128.86,19.39a1.71,1.71,0,0,0-1.67,1.22,1.68,1.68,0,0,0,1.62,2.13h-27.32c-1.46-1.52-2.87-3-4.11-4.36.27-.39.54-.77.78-1.14,1.23-1.87,2.1-3.42,2.44-3.79,1-1.11-4-3.31-6.11-5-.67-.53-2-4.18-3.39-8.9H1180l-.51,15.77a4.17,4.17,0,0,1-4.17,4h-12.5Zm32.88,125.92c.58,2,1.13,4,1.46,5.4.59,2.4-.28,5.08-1,7.12a13.67,13.67,0,0,0-.94,3.45,2.94,2.94,0,0,0,.08,1c-3.74-2-6-5.46-9.1-8.74a17.41,17.41,0,0,1-2.71-4.54,5.88,5.88,0,0,0,1.32-.62s-2-11-5-25.9c7.69,11.94,15.14,22.58,15.14,22.58Zm-85.61-131.9a20.07,20.07,0,0,0,1.34,2.33,34.91,34.91,0,0,0,4.81,5.63c.52.5,1,1,1.55,1.37h-1.07c1.41,0-4.38-4.88-7-5.68,0-.6.1-1.23.17-1.9h0C1110,1175,1110,1174.45,1110.12,1173.84Zm21.28,24.66h0Zm27.23.92h.07l.21,0Zm-9.93-.67c1.08,0,4.31.13,5.21.28h0c-5-.33-10.42-.49-16-.53h9.39A5.87,5.87,0,0,0,1148.7,1198.75Zm309.91-38.28c3.05,10.77,3.17,17.82,2.62,22.7h-16.4A255.87,255.87,0,0,0,1458.61,1160.47Zm-66.85,22.7Zm33.07,135.38c1-3.08,1.87-6.11,2.7-9.11.13,2.16.22,3.42.22,3.42s1,.19,2.62.44A22.68,22.68,0,0,1,1424.83,1318.55Z"/><path class="cls-6" d="M2745.51,1181.85h-39.34c3.66-30,9.63-49.78,9.73-50.06a2.57,2.57,0,0,0,.1-.73s1.33-8.21-12.75-8.41c-13.12-.18-19.51,5.25-20.67,7.24-3.69-16.83-8.85-30.78-15.22-32.75a32.72,32.72,0,0,0-9.2-1.22c-.33-1-1.16-3.15-2.49-3.67a1.85,1.85,0,0,0-.5-.07,41.88,41.88,0,0,1-2.74-8.78c.05-.14.09-.28.13-.43,5.18-6.91,8.19-21.27,5.77-23.77-9-9.27-40.83-3.26-28.53,7.68-.14.4-.27.8-.37,1.19-1,3.72.44,22.63,5.11,23.14a33.83,33.83,0,0,0,3.64-.11c.08,1,.2,2.45.34,4.17l-1.8.44a12.16,12.16,0,0,0-5.27,4.52h0s-15.89,8.29-18,16.1-9.71,45.67-12.65,48.32-36.7,8.81-36.7,8.81a14.74,14.74,0,0,0-1,1.28c-2.32-1.27-6-3.2-7.59-3.43-2.12-.31-11.4,7.37-11.95,9.38-1,.67-1.63,1.16-1.63,1.16h-5.2v-1.45h-10.07l0,0,5.23,0c-.44,0-3.84-.08-4.31-2.63a3.34,3.34,0,0,1-.06-.65c0-.4.18-2.49.47-5.77.08-.84.16-1.75.25-2.73.17-1.87.37-4,.59-6.28l.15-1.11h68.79l3.9-2.29h0l-5.24-19.65h0l-.29-1.08h.06l-22.72-84.85,0-.07H2433.15v.07l-2.05.69,25.56,107.19h42.2l-1.33,15.76s-.7,4.86,2.91,4.87h5.78v0H2371.93l.22,0h.48a2,2,0,0,0,2-2.23l-2.13-21.12h37.8l11.27-91.82h-124l-9.69,78.92c-1.79-6.63-3.2-12.18-3.2-12.18-1-2.54-5-16.93-7-19.1h0c-.77-.84-2.51-1.49-4.35-2a4.58,4.58,0,0,0,.67-2.76c-.46-5.57,6-5.1,10-11.51,3.49-5.59-2.73-7,.6-16,2.43-6.64-3.92-8.25-3.73-13.79,0,0-.81-10.3-15.63-7.62-3.92.7-6.61-6.28-13-3.79-13.81,5.36-14.62-1.72-18.61,8.21-1.68,4.16-12.3,9-9,16.19s-2.19,12,1.63,17.64c2,2.92,1.17,8.12,10.48,8.31a10.41,10.41,0,0,1,5,2.14c-3,.59-6.94,1.68-9.69,3.61h0a9.41,9.41,0,0,0-1.7,1.49l-.07.09a9.69,9.69,0,0,0-1.7,3.37h0s-2,5.3-4.16,12.11a33,33,0,0,0-7.51-.72l-1,0c-.73,0-1.48,0-2.26,0-12.61.19-11.42,8.12-11.42,8.12a2.86,2.86,0,0,0,.09.71c.08.26,4.88,17.4,8.17,43.78h-46.48a7.76,7.76,0,0,0-7.74,7.73h0a7.76,7.76,0,0,0,7.74,7.74h31.91l-.28,2.1-9,66.85-8.39,62.49a1.25,1.25,0,0,0,1.26,1.4,1.77,1.77,0,0,0,1.76-1.45l9.73-55.13,10.88-61.67h0l2.57-14.59H2212c1,11.06,1.52,23.21,1.4,36.06v.17a2,2,0,0,0-.09.55v1.28a1.86,1.86,0,0,0,0,.34c0,.21,0,.4,0,.57h.18a2,2,0,0,0,1.76,1.08h.46a.69.69,0,0,0-.05.24c0,.44,2.94,35.35-8.45,92.22h2.13c15.67-45.64,14.92-85.78,14.24-92.46h10.43a.69.69,0,0,0,0,.24c0,.44,2.94,35.35-8.45,92.22h2.13c15.67-45.64,14.92-85.78,14.24-92.46h40.69c-.68,6.68-1.43,46.82,14.24,92.46H2299c-11.39-56.87-8.46-91.78-8.45-92.22a.69.69,0,0,0-.05-.24h10.3c-.67,6.68-1.42,46.82,14.25,92.46h2.12c-8.16-40.77-9-70.25-8.76-83.84.22,2.41.48,5,.9,7.71,1.68,10.8,29.84,54.51,29.84,54.51l.74.22c.31,1.11.58,2.11.77,2.91.6,2.42-.28,5.13-1.06,7.19a13.5,13.5,0,0,0-1,3.48c-.32,3.45,4.48,4.28,10,4.56s3.87,1.42,11.49,2.79,10.67-.7,11.22-1.73c.23-.44-.47-1-1.67-1.64.84.09,1.72.15,2.62.19,5.55.28,3.87,1.42,11.49,2.8s10.67-.71,11.22-1.74-3.05-2.34-6.83-4l-1.42-.62c-4.25-1.86-6.63-5.67-9.94-9.2-1.42-1.52-2.81-4.55-3.9-7.41a5.86,5.86,0,0,0,1.71-.82s-20.76-95.16-33.71-103.33c-1.85-1.17-4.85-2.07-8.63-2.74.19-.18-.48-.92-1.53-1.86h273.62c-21.1,4.6-43.11,10.54-46.85,15.85-7.49,10.63-19.14,101.21-19.14,101.21l.32.08c-4.79,5.48-12.56,8.52-17.6,9.39-6.23,1.09-6.36,6.22-6.36,6.22l21.3.13s16.69,0,17.14,0c2.37-.17,3.61-8.83,4.14-14a7.18,7.18,0,0,0,1-.3s27.84-71.77,30.1-79.53a3.46,3.46,0,0,1,2.25-2,2.08,2.08,0,0,0,.8.16h5.55a.58.58,0,0,0-.05.26c0,.08.12,1.45.22,4a13.1,13.1,0,0,0-3.08,6.55c-.54,4.91.21,22.54,1.06,38.54-1.2,10.85-3,23.3-5.75,37.17a34.07,34.07,0,0,1-8.55,2.81c-6.22,1.09-6.36,6.22-6.36,6.22l13,.08a.43.43,0,0,0,0,0H2590v0l5.89,0h14.38v0c1.56,0,2.64,0,2.75,0,2.84-.21,4.06-12.6,4.37-16.53a3.65,3.65,0,0,0,1.45-.83s.49-6.44,1.11-15.26a257,257,0,0,0,6.5-51.85c6.87-3,21.75-7.71,33.87-11.16h11.23c-.75,6.91-1.59,48.45,15.9,95.67h2.37c-12.71-58.85-9.44-95-9.43-95.41a.58.58,0,0,0,0-.26H2692c-.75,6.91-1.59,48.45,15.9,95.67h2.37c-12.71-58.85-9.44-95-9.43-95.41a.58.58,0,0,0,0-.26h.59a2.15,2.15,0,0,0,1.87-1.11h.22c0-.2,0-.42,0-.65a2.33,2.33,0,0,0,0-.38v-1.16a2,2,0,0,0-.1-.6v-.22c-.12-11.68.36-22.8,1.2-33.08h7.6l2.11,12,12.43,70.45,8.64,49a1.79,1.79,0,0,0,1.77,1.45,1.26,1.26,0,0,0,1.26-1.4l-6.4-47.63-10.78-80.36-.47-3.45h24.75a7.76,7.76,0,0,0,7.73-7.74h0A7.75,7.75,0,0,0,2745.51,1181.85Zm-285.83-22.95Zm-130,19.56a1.73,1.73,0,0,0-1.69,1.23,1.7,1.7,0,0,0,1.64,2.16h-27.56c-1.48-1.54-2.9-3-4.15-4.41.27-.39.54-.78.78-1.15,1.25-1.88,2.13-3.45,2.46-3.82,1-1.12-4.08-3.34-6.16-5-.67-.54-2-4.22-3.42-9H2347l-.52,15.91a4.2,4.2,0,0,1-4.2,4.07h-12.62Zm33.17,127.06c.59,2.06,1.14,4.06,1.48,5.45.6,2.42-.28,5.12-1.06,7.18a13.5,13.5,0,0,0-.95,3.48,3,3,0,0,0,.09,1c-3.78-2-6.09-5.5-9.19-8.82a17.94,17.94,0,0,1-2.74-4.58,5.53,5.53,0,0,0,1.34-.63s-2-11.12-5.08-26.13c7.76,12,15.28,22.79,15.28,22.79Zm265.26-146.58c3.08,10.87,3.2,18,2.64,22.91h-16.55A258.4,258.4,0,0,0,2628.09,1158.94Zm-67.45,22.91h0ZM2594,1318.44c1-3.1,1.88-6.17,2.71-9.19.14,2.18.22,3.45.22,3.45s1,.19,2.66.45A23.24,23.24,0,0,1,2594,1318.44Z"/><path class="cls-5" d="M106.34,1128.68h0l-.3-1.14h.06l-24-89.53,0-.08H66.24c0,.19,0,.38.07.57,1.5,11.85,3.55,23.46,6,34.81a424.38,424.38,0,0,0,12.9,46q1.73,5.13,3.59,10.16c2.56,7,5.28,13.89,8.11,20.63.26.6.51,1.2.77,1.79h10l4.11-2.41ZM269.4,1176a8.18,8.18,0,0,0-5.77-2.4H222.12c3.86-31.62,10.17-52.53,10.27-52.83a2.52,2.52,0,0,0,.1-.77s1.42-8.66-13.44-8.87c-13.85-.2-20.59,5.53-21.82,7.63-3.9-17.75-9.35-32.48-16.06-34.56a34.8,34.8,0,0,0-9.71-1.27c-.36-1.1-1.23-3.33-2.64-3.87a1.35,1.35,0,0,0-.52-.09,43.19,43.19,0,0,1-2.89-9.26c.05-.15.09-.29.15-.46,5.45-7.29,8.63-22.44,6.08-25.08-9.48-9.79-43.08-3.44-30.11,8.11-.16.42-.28.83-.4,1.25-1.08,3.93.46,23.89,5.4,24.42a34.57,34.57,0,0,0,3.85-.11c.08,1,.21,2.58.35,4.39l-1.89.46c-2.6.94-4.59,3.37-5.58,4.78a78.47,78.47,0,0,0-8.66,5.4c-4.46,3.21-9.21,7.47-10.31,11.59-2.2,8.24-10.24,48.2-13.35,51-1,.86-5,2.08-10.17,3.36l1.13,2.54c.45,1,.89,2,1.34,2.95.33.71.65,1.41,1,2.1q5.77,12.45,12,24.16l1.11,2.1c5.94,11.13,12.11,21.71,18.33,31.72q2.53,4.08,5.1,8h0c1.16,1.78,2.31,3.55,3.46,5.29l.44.66c8.08-2.91,19.41-6.43,29.07-9.18H185.6c-.65,5.91-1.36,36,8.28,73.7,2.52,2.88,4.94,5.59,7.23,8.09-9-50.68-6.2-81.1-6.18-81.52a.68.68,0,0,0-.07-.27h12.28c-.8,7.3-1.68,51.13,16.77,101h2.5c-13.41-62.09-10-100.2-9.95-100.68a.86.86,0,0,0-.05-.27H217a2.26,2.26,0,0,0,2-1.17h.23c0-.22,0-.46,0-.7a1.31,1.31,0,0,0,.05-.39v-1.23a2.59,2.59,0,0,0-.1-.63c0-.09,0-.18,0-.24-.12-12.33.39-24.06,1.27-34.91h8l2.23,12.63,13.11,74.34,9.12,51.69a1.88,1.88,0,0,0,1.86,1.53,1.31,1.31,0,0,0,1.32-1.48l-6.75-50.26L238,1193.6l-.49-3.63h26.11A8.15,8.15,0,0,0,269.4,1176Zm-126.88-2.4H125a273.82,273.82,0,0,0,14.68-24.17C143,1160.94,143.09,1168.44,142.52,1173.64Z"/><path class="cls-7" d="M2074.71,304.27V497.69c0,1.69,0,3.36-.06,5-.36,15.09-2.34,26.68-4.71,26.68h-.68c-2.2,0-4.06-10-4.6-23.46,0-1.11-.09-2.24-.11-3.4,0-.08,0-.16,0-.24,0-1.49-.05-3-.05-4.55V303.38C2067.94,303.6,2071.34,303.9,2074.71,304.27Z"/><path class="cls-7" d="M2066.94,502.19c-37.2,0-67.36,31.89-67.36,71.23h134.73C2134.31,534.08,2104.15,502.19,2066.94,502.19Z"/><path class="cls-8" d="M2072.31,503.06a27.26,27.26,0,0,0-5.92-.65c-24.24,0-43.89,31.79-43.89,71h11.84C2034.34,537.45,2050.87,507.73,2072.31,503.06Z"/><path class="cls-7" d="M1578.06,304.27V497.69c0,1.69,0,3.36-.06,5-.36,15.09-2.34,26.68-4.71,26.68h-.68c-2.2,0-4-10-4.6-23.46,0-1.11-.09-2.24-.11-3.4,0-.08,0-.16,0-.24,0-1.49,0-3,0-4.55V303.38Q1573,303.71,1578.06,304.27Z"/><path class="cls-7" d="M1570.3,502.19c-37.21,0-67.37,31.89-67.37,71.23h134.73C1637.66,534.08,1607.5,502.19,1570.3,502.19Z"/><path class="cls-8" d="M1575.66,503.06a27.17,27.17,0,0,0-5.91-.65c-24.24,0-43.89,31.79-43.89,71h11.83C1537.69,537.45,1554.22,507.73,1575.66,503.06Z"/><path class="cls-7" d="M607.73,500.62v38.75c0,1.68,0,3.36-.06,5v0C607.31,559.43,605.34,571,603,571h-.68c-2.2,0-4-10-4.59-23.46v0c-.06-1.1-.09-2.24-.11-3.38,0-.08,0-.16,0-.25h0c0-1.48-.05-3-.05-4.54V500.65C600.93,500.61,604.34,500.6,607.73,500.62Z"/><path class="cls-7" d="M600,543.87c-37.2,0-67.36,31.89-67.36,71.23H667.33C667.33,575.76,637.17,543.87,600,543.87Z"/><path class="cls-8" d="M605.34,544.74a27.88,27.88,0,0,0-5.92-.64c-24.24,0-43.89,31.79-43.89,71h11.83C567.36,579.13,583.89,549.42,605.34,544.74Z"/><path class="cls-9" d="M2191.62,1303.12h570.45a127.47,127.47,0,0,1-78.58,27.07H1872.7c-70.57,0-128.3-57.73-128.3-128.3v-417c0-70.57,57.73-128.31,128.3-128.31h810.79a127.7,127.7,0,0,1,85.84,33.17H2191.62c-60.28,0-109.59,49.31-109.59,109.59v394.19C2082,1253.81,2131.34,1303.12,2191.62,1303.12Z"/><path class="cls-10" d="M2206,1303.12H2770.3a125.23,125.23,0,0,1-77.73,27.07h-802c-69.81,0-126.92-57.73-126.92-128.3v-417c0-70.57,57.11-128.31,126.92-128.31h802a125.56,125.56,0,0,1,84.91,33.17H2206c-59.63,0-108.41,49.31-108.41,109.59v394.19C2097.6,1253.81,2146.38,1303.12,2206,1303.12Z"/><path class="cls-11" d="M2488.62,373.62H1371.69q30.68-34,60.65-74.23c.38-.53.77-1.05,1.16-1.55q9.4-12.54,19.78-24.19h941q14.4,11.7,27.84,24.19A481.57,481.57,0,0,1,2488.62,373.62Z"/><path class="cls-12" d="M1585.94,1100.18c1.34-33,4.22-61.62,7.68-81.61,5.51-31.86,10.47-50.19,10.53-50.39.73-2.8,11.21-14.14,34.53-13.79s21.1,15.22,21.1,15.22h0a4.6,4.6,0,0,1-.17,1.32c-.22.77-21.62,78.37-20.7,178.56,0,1.41.17,3.84.08,5.46,0,0-54,1.39-54,0C1583.06,1146.19,1584,1121.93,1585.94,1100.18Z"/><path class="cls-13" d="M1579.14,1149c0,1.39.76,2.51,1.66,2.51h0c.9,0,1.61-1.14,1.62-2.51h46.3c0,1.39.76,2.51,1.66,2.51h0c.91,0,1.64-1.18,1.63-2.59a698,698,0,0,1,3.84-79.1c6.15-58.94,17.53-98.34,17.69-98.88a4.67,4.67,0,0,0,.17-1.33s2.21-14.86-21.1-15.22-33.8,11-34.53,13.8c0,.14-2.85,10.52-6.59,29.19-1.23,6.18-2.57,13.27-3.94,21.19-3.45,20-6.34,48.66-7.68,81.6C1578,1121.93,1577.26,1140.24,1579.14,1149Z"/><path class="cls-14" d="M1579.14,1149c0,1.39.76,2.51,1.66,2.51h0c.9,0,1.61-1.14,1.62-2.51h46.3c0,1.39.76,2.51,1.66,2.51h0c.91,0,1.64-1.18,1.63-2.59a698,698,0,0,1,3.84-79.1c-7.66-37.4-37.24-66-44.36-72.44-1.23,6.18-2.57,13.27-3.94,21.19-3.45,20-6.34,48.66-7.68,81.6C1578,1121.93,1577.26,1140.24,1579.14,1149Z"/><path class="cls-12" d="M1625.83,1148.48h-.11l-.08-.08a.25.25,0,0,1-.07-.21h0v-.12c-.07-1.88-3.91-2.25-10.1-2.25l-4.44,0c-1.77,0-3.66.05-5.63.05a124.83,124.83,0,0,1-21.38-1.54c-5-.87-1.62-39.14,1.91-74.95.61-6.08,1.08-10.89,1.29-13.72,2.27-30,15.6-84.52,15.72-85,.58-2.24,8.58-10.73,25.93-10.45,6.52.1,11.15,1.71,13.77,4.8a9.2,9.2,0,0,1,2.18,6.82,3.7,3.7,0,0,1-.14,1c-.07.3-12,70.19-14,87-3.33,28.57-4.55,87.24-4.57,88.12v.38Zm-10.36-3.19c5.43,0,8.89.28,10.12,1.55.2-8.61,1.48-60.59,4.55-87,2-17.21,14-86.88,14-87.1a3.11,3.11,0,0,0,.12-.9,8.86,8.86,0,0,0-2.07-6.46c-2.51-2.95-7-4.5-13.36-4.59h-.78c-16.51,0-24.07,7.93-24.63,10.06-.13.5-13.4,54.48-15.7,84.85-.21,2.84-.69,7.64-1.29,13.73-2.35,23.86-7.25,73.52-2.35,74.38a124.52,124.52,0,0,0,21.29,1.52c2,0,3.85,0,5.63,0Z"/><path class="cls-13" d="M1635.47,1151.51H1453.94s4.23-17.11,109.36-14.56C1637.7,1138.76,1635.47,1151.51,1635.47,1151.51Z"/><path class="cls-12" d="M1650.25,1330.19c-21-106.55-15.64-171.93-15.61-172.75,0-1.64-3-3.13-4.6-3.19s-8.91-.48-9.75.92c-1.1,1.84-5.34,82.4,26,175Z"/><path class="cls-12" d="M1480.75,1330.19c21-106.55,15.64-171.93,15.61-172.75,0-1.64,3-3.13,4.6-3.19s8.91-.48,9.75.92c1.1,1.84,5.34,82.4-26,175Z"/><path class="cls-15" d="M1447.16,1330.19c21-106.55,15.64-171.93,15.61-172.75,0-1.64,3-3.13,4.6-3.19s8.91-.48,9.75.92c1.1,1.84,5.34,82.4-26,175Z"/><path class="cls-15" d="M1616.43,1330.19c-21-106.55-15.64-171.93-15.61-172.75,0-1.64-3-3.13-4.6-3.19s-8.91-.48-9.75.92c-1.1,1.84-5.34,82.4,26,175Z"/><rect class="cls-12" x="1450.12" y="1147.09" width="188.96" height="9.88" rx="3.72" transform="translate(3089.2 2304.06) rotate(180)"/><path class="cls-16" d="M1419.16,993.25c-7.71-4.48-11.54-8.09-17.16-8.9s-15.76-1.44-17.18-3.58c-3.47-5.23-7.12-15.46-4.56-14.8s12.17,7.29,15.2,6.26-4.61-3.48-2.78-5,10.24,2.24,12.17,6.53c.67,1.5,24.57,8.93,24.57,8.93Z"/><path class="cls-16" d="M1528.24,1265.58a5.34,5.34,0,0,1,1,5.73v0c-1.39,3.83-6,8.09-11.27,12.36-.67.54-1.28,1-1.8,1.5-.14.12-.28.24-.41.37l-.31.28c-5,4.56-3.09,5.61-12,14.87-10.14,10.55-17.12,10.74-19.11,9.77-1.68-.81,1.74-6.41,5.52-12.7l.55-.92,1.5-2.52c4.44-7.57,3.3-11.12,2.25-22.39-.86-9.15-14.24-51.14-14.24-51.14l19.43-3.34s5.85,33.43,12.3,38.58c3.45,2.74,7.3,2.78,10.62,4.81l.69.44A25.33,25.33,0,0,1,1528.24,1265.58Z"/><path class="cls-17" d="M1528.24,1265.58a5.34,5.34,0,0,1,1,5.73v0c-1.7,3.82-6.15,8.07-11.28,12.32-.67.55-1.27,1.07-1.79,1.54-.14.12-.28.24-.41.37l-.31.28c-5,4.56-3.09,5.61-12,14.87-10.14,10.55-17.12,10.74-19.11,9.77-1.68-.81,1.74-6.41,5.52-12.7a43.2,43.2,0,0,0,18.07-13.32c6.11-7.79,10.18-17.8,14.34-23.6l.69.44A25.33,25.33,0,0,1,1528.24,1265.58Z"/><path class="cls-16" d="M1371.56,1253.44c-1.2,6-9.75,5-19.3,2.67s-7.28.44-20.88-1.07-17.71-6.57-18.13-8.59c-.37-1.8,6.35-2.43,13.55-3.26l2.73-.32c8.14-1,14.09-6.27,21.48-10.59,7-4.08,17.45-20.72,17.45-20.72l18.64,1.48s-9.78,14.86-13.57,21.32c-2.22,3.8-2.1,8.83-1.83,12.71A23.85,23.85,0,0,1,1371.56,1253.44Z"/><path class="cls-17" d="M1352.26,1256.11c-9.56-2.34-7.28.44-20.88-1.07s-17.71-6.57-18.13-8.59c-.37-1.8,6.35-2.43,13.55-3.26l.07.14a38.31,38.31,0,0,0,19.47,6.05c9.22.23,19-2.42,25.36-2.31a23.85,23.85,0,0,1-.14,6.37C1370.36,1259.44,1361.81,1258.44,1352.26,1256.11Z"/><path class="cls-18" d="M1443,1134.23l40.18,108.13a36.83,36.83,0,0,0,12.09-1.1c5.45-1.57,11.69-5.69,11.69-5.69s-10-103.83-28.24-125.43S1443,1134.23,1443,1134.23Z"/><path class="cls-17" d="M1601.94,1090.48s-115.46-39-141.21-30.73-103.07,162.12-103.07,162.12,1.75,2.33,6.51,4.11c4.43,1.66,15.16,1.56,15.16,1.56s69.77-59.81,78.08-77.25,11.62-34.06,19.93-32.4,107.15,40.7,129.58,17.45,16.56-53.48,16.56-53.48Z"/><path class="cls-19" d="M1531.38,908.86c-1.84-3.8-3.91-10.56-4.91-22.62.15,1.2,2.23,16.4,8.07,25,24,15.76,70,68.4,69.13,78.38,0,0,16.21-27.5,16.49-27.66,0,0,29.9-38-5.54-59.81-18-11.07-17.92-25.28-17.17-37.62s-4.91-65.48-41-51.58c0,0-5.79-2.57-8.38-2.18a7.08,7.08,0,0,1,3.2,1.51c-4.19-.24-10.17.07-15.16,2.9C1522.88,822.71,1511.05,890.15,1531.38,908.86Z"/><path class="cls-16" d="M1536,912c-.12.05,11.6,6.14,20.41,3.73,8.29-2.26,13.7-13,13.59-13-3.51-.7-4.52-5.52-4.45-26.25l-1.59.31-26.67,5.29s.6,8.39.62,16.3C1537.89,905,1537.49,911.32,1536,912Z"/><path class="cls-20" d="M1537.25,882.08s.6,8.39.62,16.3c14.93-.42,22.82-14,26.05-21.59Z"/><path class="cls-19" d="M1566.68,873.89s7.82-12.36,9.7-22.93c1.34-7.55-2.5-35.52-30.61-31.5a38.25,38.25,0,0,0-15.84,6c-6.1,4.12-14.91,13-5.06,37.43l2.55,8.25Z"/><path class="cls-16" d="M1532.26,889.57s35.32.58,35.35-21.42,4.6-36.75-18-38-26.94,7.09-28.73,14.43S1523.07,888.85,1532.26,889.57Z"/><path class="cls-19" d="M1533.57,829.56s9.67,25.81,24.51,29.63,21.28-.16,21.28-.16a42.09,42.09,0,0,1-13.75-24.83S1540.86,817.27,1533.57,829.56Z"/><path class="cls-19" d="M1536,831.65s-7.22,5.77-9,11.37-2.55,17.14-5.91,16.75c0,0-7.29-17.55.9-27.48C1530.65,821.77,1536,831.65,1536,831.65Z"/><path class="cls-21" d="M1614.62,1007.06c3.48-14.61-8.37-43-20.74-66.43-11.22-21.27-22.88-38.52-23.92-37.9-29.61,17.57-32.28,3-32.28,3s-26.89,3.57-34.51,16.68c-10.53,18.12-22,72.52-33.27,71.71-5.17-.37-57.23-19.93-57.23-19.93s-8.67,8.12-7,18.09c0,0,25.7,17.21,47.44,28.19,11.5,5.81,21.88,9.88,26.77,8.73,9.9-2.34,25.37-25.29,33.72-38.8l.06-.09c10.67,60.38-3.84,74.13,3.51,80.49,7.75,6.72,18.82-3.2,43.19,7.36,16,6.94,38.16,17,53.09,18.7,7.83.92,13.68-.44,15.58-5.73C1634.56,1075.72,1608,1034.91,1614.62,1007.06Z"/><path class="cls-1" d="M1540.11,876.23s-.66,2.79-7.61,2.36c0,0-5.84-.36-5.66-3.43C1526.84,875.16,1532.5,873,1540.11,876.23Z"/><path class="cls-22" d="M1629,1091.09c-1.9,5.29-7.75,6.65-15.58,5.73-10.33-4.5-55-21.79-54.47-33.51.74-17.35,8.58-17.91,3-39.32-4.44-17.2,36.8-49.17,43.38-56.12,12.37,23.47,12.71,24.58,9.23,39.19C1608,1034.91,1634.56,1075.72,1629,1091.09Z"/><path class="cls-22" d="M1513.59,990.36c-8.35,13.51-23.82,36.46-33.72,38.8-4.89,1.15-15.27-2.92-26.77-8.73,8.39,2.17,16.54,2.11,24.46,1.34,8.58-.83,11.08-11.35,24.64-27.13C1511,984.4,1513.16,987,1513.59,990.36Z"/><path class="cls-16" d="M1555,1023.57s-7.48-5.81-14.54-4.43-10.52,6.23-10.24,8.45,4,8.44,9.41,9,20.77-3.32,20.77-3.32Z"/><path class="cls-21" d="M1570,902.73s28.79,1.77,38.75,15.67c14,19.57,38.4,99.45,31.75,117.73l-87.59-.37s-2.12-9.93.83-14.72,51-12.56,53.17-14.77-27.69-43.2-27.69-49.84S1570,902.73,1570,902.73Z"/><polygon class="cls-23" points="1542.49 1056.89 1436.45 1056.89 1417.33 990.23 1523.21 990.23 1542.49 1056.89"/><rect class="cls-24" x="1436.81" y="1054.29" width="138.63" height="2.6"/><path class="cls-24" d="M1470.12,1022.48c-.67-2.35.68-4.25,3-4.25a6.08,6.08,0,0,1,5.46,4.25c.67,2.34-.69,4.24-3,4.24A6.08,6.08,0,0,1,1470.12,1022.48Z"/><polygon class="cls-17" points="1233.01 1056.89 1339.05 1056.89 1358.16 990.23 1252.29 990.23 1233.01 1056.89"/><rect class="cls-17" x="1200.06" y="1054.29" width="138.63" height="2.6" transform="translate(2538.74 2111.19) rotate(180)"/><path class="cls-18" d="M1305.38,1022.48c.67-2.35-.69-4.25-3-4.25a6.08,6.08,0,0,0-5.46,4.25c-.67,2.34.68,4.24,3,4.24A6.09,6.09,0,0,0,1305.38,1022.48Z"/><path class="cls-16" d="M1262,937.5s10.77-8.8,14.64-8.84,11.21-2,10.92-.72-6.48,2.9-5.41,3.48,10.05-1.84,12.57-.39,8.41,7.44,3.67,10.06-18.95,6.76-22.62,6.28-12-1.06-12-1.06Z"/><polygon class="cls-16" points="1124.5 1264.65 1133.53 1302.67 1147.05 1302.59 1147.54 1264.65 1124.5 1264.65"/><polygon class="cls-16" points="1238.25 1266.27 1264.32 1302.18 1273.95 1289.82 1258.49 1261.26 1238.25 1266.27"/><path class="cls-24" d="M1185.6,806.5h0a1.37,1.37,0,0,0,0-.28c-.17-1.89-.39-3.76-.64-5.63h0a125.14,125.14,0,0,0-3.24-16.08c-.78-2.8-1.64-5.43-2.56-7.79l-.41-1.05h0c-2.2-5.37-4.71-9.22-7.27-10.67-4.67-2.66-10.26-2.94-14.17-2.72a6.66,6.66,0,0,1,3-1.41c-2.43-.37-7.84,2-7.84,2-33.76-13-39.07,36.69-38.35,48.24s-11.35,15.32-28.91,24.41c-33.51,17.36-36.45,40.6-36.45,40.6.26.16.54.34.82.54,1.67-2.82,5.09-8.11,8-8.91a118.2,118.2,0,0,0-4.65,11.31c4.23,3.22,10,8.1,16.29,13.57h0c8.38,7.31,17.59,15.65,25,22.41-.06-2.31,0-5.58.88-7.31l1.4,8.47.19,1.11c4.7,4.32,8.41,7.77,10.29,9.54l.52.48.84.79c-.27-3,3.89-10,10.41-18.6.45-.6.92-1.21,1.4-1.83,2.1-2.72,4.41-5.58,6.88-8.51.89-1.06,1.78-2.12,2.71-3.19h0c.74-.87,1.49-1.73,2.27-2.6h0c1.83-2.07,3.71-4.15,5.62-6.23,5-5.39,10.13-10.71,15.19-15.53,7.35-7,14.43-13,20.17-16.81.21-.32.42-.64.61-1a35.31,35.31,0,0,0,2.77-5.69c.24-.6.46-1.22.67-1.83a82.86,82.86,0,0,0,3.47-14.61,85.21,85.21,0,0,1-2.4,14.89q-.33,1.18-.66,2.19h0a31.5,31.5,0,0,1-1.5,3.79,21.62,21.62,0,0,0,2.71-3.06,24.6,24.6,0,0,0,1.52-2.37C1185.76,837.35,1187,821.62,1185.6,806.5Z"/><path class="cls-16" d="M1171.6,855.56c.11.05-10.85,5.74-19.09,3.49-7.75-2.12-12.82-12.17-12.71-12.19,3.28-.65,4.23-5.17,4.16-24.55l1.49.29,25,4.94s-.57,7.86-.58,15.25C1169.8,849,1170.18,854.9,1171.6,855.56Z"/><path class="cls-25" d="M1143.38,773.12s12.31-13.11,27.76-.67C1171.14,772.45,1162.15,770.89,1143.38,773.12Z"/><path class="cls-20" d="M1170.4,827.54s-.57,7.86-.58,15.25c-14-.39-21.35-13.13-24.37-20.19Z"/><path class="cls-24" d="M1142.87,819.88s-7.32-11.56-9.08-21.45c-1.25-7.06,2.34-33.22,28.64-29.46a35.87,35.87,0,0,1,14.82,5.6c5.7,3.86,13.94,12.19,4.73,35l-2.39,7.71Z"/><path class="cls-26" d="M1269.87,1279.84l-13.23.4-14.32.44s-33.07-36.82-51.62-95.86c-.44-1.37-.89-2.76-1.38-4.16-10.15-29.61-31.2-66.77-42.29-100.4q-2.65-8-4.77-15.18c-.46-1.53-.9-3-1.32-4.51-8.18-28.4-10.55-47-12.73-67l80.1.64S1221.24,1130.29,1269.87,1279.84Z"/><path class="cls-27" d="M1197.1,948.21c-.21,38.12,5.59,54.47,5.59,54.47s-34.3,17.43-75.06,4.6c-.48-.15-33.75-7.74-33.75-7.74.69-1.55,6.75-27.23,7.42-28.65,8.6-18.48,15.14-26.58,16.16-32.26a121.2,121.2,0,0,0,1-31.94,256.55,256.55,0,0,0-9.88-50.14c11.1-2.53,21.78-6.84,33.34-11.18,2.66,3.32,10.51,6.65,17.56,6.49,8.12-.18,10.75-3.65,10.33-7.45,8.65,4.82,15.55,9.36,15.55,9.36,7.36,12.78,22.27,25.18,23.35,44.77C1209,903.36,1197.1,947.15,1197.1,948.21Z"/><path class="cls-16" d="M1175.07,834.55s-33,.54-33.07-20-4.3-34.37,16.79-35.59,25.21,6.63,26.89,13.5S1183.66,833.87,1175.07,834.55Z"/><path class="cls-24" d="M1173.84,778.42s-9,24.14-22.93,27.71S1131,806,1131,806a39.32,39.32,0,0,0,12.86-23.23S1167,766.92,1173.84,778.42Z"/><path class="cls-24" d="M1171.6,780.38s6.76,5.39,8.4,10.63,2.39,16,5.54,15.66c0,0,6.81-16.41-.85-25.7C1176.57,771.13,1171.6,780.38,1171.6,780.38Z"/><path class="cls-16" d="M1133.07,1300.55a36.6,36.6,0,0,1-1.72,15.58s-2.22,10.09,7.72,10.28,12.37-.75,11.24-6.94-3.26-16.88-3.26-16.88Z"/><path class="cls-28" d="M1151.62,1332.4h-21.75c-.89-4.48,1.08-14,1.4-15.85,0-.14,0-.24.06-.31a.65.65,0,0,1,0-.1c11.24,10.3,18.28-.27,18.28-.27l0,.06C1151.3,1320,1151.65,1330.82,1151.62,1332.4Z"/><path class="cls-16" d="M1297.88,1320.48s-18.31-20.32-23.93-30.66l-13.62,7,30.44,28.59,7.12-.94Z"/><path class="cls-28" d="M1309.51,1332.4h-23c-3.39,0-6.1-5.63-9.75-12.94-1.5-3-4.85-4.63-8.29-5.54l.09,18.48h-5.32l-4.89-19.54c-3.25-6-.26-11.36,2-16.07,2.65,0,9.79,1.81,23.32,17,4.45,5,9.36,6.79,14.23,6.64a1,1,0,0,0,.2.11C1309.33,1325.65,1309.51,1332.4,1309.51,1332.4Z"/><path class="cls-29" d="M1256.64,1280.24l-14.32.44s-33.07-36.82-51.62-95.86c-.44-1.37-.89-2.76-1.38-4.16-10.15-29.61-31.2-66.77-42.29-100.4q-2.65-8-4.77-15.18c-.46-1.53-.9-3-1.32-4.51l11.79-9s35.41,57.35,46.38,111.31C1208.63,1209.81,1246.77,1266.21,1256.64,1280.24Z"/><path class="cls-26" d="M1154,1168c.2,26.24-1.12,86.58-4.54,111.56h-12.68c-7,0-10.51-.11-10.51-.11-8.58-43.43-14.68-79.36-19.12-110.33-3.64-25.41-6.88-47.19-9.37-65.95s-4.25-34.68-4.87-48c-.1-2.1-.17-4.15-.21-6.13s-.05-3.94,0-5.82l69.2-6.75C1161,1082.39,1153.85,1152.71,1154,1168Z"/><path class="cls-29" d="M1136.74,1279.52c-7,0-10.51-.11-10.51-.11-8.58-43.43-14.68-79.36-19.12-110.33-3.64-25.41-6.88-47.19-9.37-65.95s-4.25-34.68-4.87-48l25.39,14.94s-16.21,5.72-10,49S1128.13,1273.39,1136.74,1279.52Z"/><path class="cls-7" d="M1140,1054.68s-4.87,17.61-21.74,15.36-40.85-12.37-40.85-12.37,7.21-22.77,16.17-52.69c10.85-36.23,13.55-87.13,19.88-116.59,1.78-8.25,13.73-10.93,14.18-15.87l14.27-27.15s20.58,46.83,21.71,58.64S1140,1054.68,1140,1054.68Z"/><path class="cls-30" d="M1128.21,938.77c-.75,19.12-7.44,51.72-34.31,66.06l-.32.15c10.85-36.23,10.71-71,17-100.43C1125.07,901.54,1128.62,928.25,1128.21,938.77Z"/><path class="cls-28" d="M1302.72,927.34h-25.91c0,.13,0,.62-.07,1.32-.1,2.34-.27,6.94-.24,7.37.37,5.49,4.19,8.52,7.89,10h0l.06,0a17.53,17.53,0,0,0,2.56.77,15.62,15.62,0,0,0,1.75.27,8.92,8.92,0,0,0,1,0,13,13,0,0,0,5.32-1.14,13.11,13.11,0,0,0,7.75-11.92V929A12.75,12.75,0,0,0,1302.72,927.34Z"/><path class="cls-25" d="M1300.6,927.34h-3.51a12.74,12.74,0,0,1,.1,1.63v5.09a13,13,0,0,1-7.75,11.92,13.62,13.62,0,0,1-2.43.82c-.37.08-.74.14-1.12.2a12.79,12.79,0,0,0,1.76.12,10.31,10.31,0,0,0,1.11,0A12.64,12.64,0,0,0,1293,946a13.23,13.23,0,0,0,5.84-5.16h0a13.34,13.34,0,0,0,1.31-2.9,12.91,12.91,0,0,0,.58-3.85V929A12.74,12.74,0,0,0,1300.6,927.34Z"/><rect class="cls-28" x="1284.44" y="945.98" width="10.66" height="1.6" transform="translate(2579.55 1893.56) rotate(180)"/><path class="cls-7" d="M1265.33,932.74s-37.13,12.37-41.77,11.34-11.27-51.34-14.85-68.58c-4.62-22.21-22.21-26.62-22.21-26.62l-16.7-4.47s19.12,47.23,19.68,56.78,2.25,156.3,2.25,156.3-1.13,6.74,11.8,3.93,16.31-5.62,16.31-5.62-5.61-41-8.24-77.44c13.17-2.25,55.53-23.71,55.53-23.71C1273.71,944.32,1265.33,932.74,1265.33,932.74Z"/><path class="cls-16" d="M1098.29,982.5s14.61-2.58,18.22,1,8.59,18.9,4.47,19.76-13.75-9.62-16.16-8.76-6.76,2.17-7.79-.12-8.25-9-8.25-9Z"/><path class="cls-16" d="M1109,978.71s-8.94,3.9-10.66,3.79,3.78,3.43,3.78,3.43l2.75-2.63S1109.75,981.81,1109,978.71Z"/><path class="cls-7" d="M1141.91,845.37s-32.48,1.43-40.3,8.69-54.61,63.34-55.38,78,41,56.47,41,56.47,11.61-2.8,16.63-10.1c0,0-25.91-46.2-24.36-48.22s45.44-38,49-30C1131.63,907.11,1141.91,845.37,1141.91,845.37Z"/><path class="cls-31" d="M1129.06,1071.38l-7.38,41.84h0l-20.39,115.55-18.23,103.3a3.33,3.33,0,0,1-3.3,2.71,2.33,2.33,0,0,1-2.36-2.61l15.72-117.11,16.81-125.25,2.54-18.9Z"/><path class="cls-15" d="M1121.68,1113.22c1-18-11.75-23.41-11.75-23.41l2.54-18.9,16.59.47Z"/><path class="cls-31" d="M1698.33,1334.78a3.33,3.33,0,0,1-3.3-2.71l-16.2-91.78-23.29-132-6.51-36.91,16.59-.47,2.88,21.43,20.21,150.57,12,89.26A2.34,2.34,0,0,1,1698.33,1334.78Z"/><path class="cls-15" d="M1668.5,1092.34c-10.75,4.74-13,16-13,16l-6.51-36.91,16.59-.47Z"/><rect class="cls-32" x="1032.25" y="1056.89" width="678.18" height="28.98" rx="12.49"/><path class="cls-7" d="M2161.61,1258.46c-6.38,23.08-53.57,36.67-105.2,44.64H1863.79c-46.44-22-46.37-48.2-50.1-120.6C1806,1033,1887.34,960.78,1923.62,972.7c1.5.49,3,1,4.6,1.65,10.54,4.1,22.35,11.34,33.84,28.58,0,0,36,58.1,65.72,92.76,9.55,11.16,18.45,19.9,25.25,23.47a1.08,1.08,0,0,0,.24.12c.36.19.72.35,1.07.51,15.72,7,37.88,21.54,58.11,39.94h0C2143.85,1188.26,2170.61,1225.92,2161.61,1258.46Z"/><path class="cls-30" d="M2112.45,1159.73c-27,8-166,46.83-198.73,5.69-23.68-29.8-8.93-106.13,4.15-155.52,5.36-20.25,32.13-24.85,43.84-7.49l.35.52s36,58.1,65.72,92.76c8.59,11,17,19.39,25.25,23.47a1.08,1.08,0,0,0,.24.12c.35.19.72.35,1.07.51C2070.06,1126.75,2092.22,1141.33,2112.45,1159.73Z"/><path class="cls-33" d="M2036.86,1021.63s7.9,11.68,12.4,36.25c3.95,21.52,7.4,29.46,13.1,33.87s37.44,17.44,37.44,17.44l-2.38,5.56s-46.52-6.33-51.74-14.11-25.15-53.71-23.6-64.29S2036.86,1021.63,2036.86,1021.63Z"/><path class="cls-16" d="M2150.78,1278.27c-.42,4.53,5.9,5.64,13.22,6s5.1,1.86,15.12,3.68,14.05-.93,14.77-2.28-4-3.09-9-5.21l-1.87-.81c-5.6-2.46-8.73-7.47-13.09-12.12-4.13-4.41-8-18.51-8-18.51l-13.63-2.9s3.83,12.69,5.16,18.1c.78,3.19-.37,6.75-1.4,9.46A18.15,18.15,0,0,0,2150.78,1278.27Z"/><path class="cls-17" d="M2164,1284.27c7.31.36,5.1,1.86,15.12,3.68s14.05-.93,14.77-2.28-4-3.09-9-5.21l-.08.09a28.55,28.55,0,0,1-15.18.18c-6.63-1.8-13.05-5.77-17.62-7a18.15,18.15,0,0,0-1.25,4.59C2150.36,1282.8,2156.68,1283.91,2164,1284.27Z"/><path class="cls-24" d="M2015.11,1116.7s90.53-6.81,107.58,4,44.38,136,44.38,136a11.17,11.17,0,0,1-5.46,1.76c-3.5.38-11.22-1.68-11.22-1.68s-39.29-56.06-42-70.19-2.09-26.72-8.4-27.06-84.84,9.55-96.72-11.38-2.06-41.65-2.06-41.65Z"/><path class="cls-16" d="M2116.14,1292.81c-.42,4.53,5.9,5.64,13.21,6s5.11,1.86,15.13,3.68,14.05-.93,14.77-2.28-4-3.08-9-5.21c-.63-.26-1.25-.54-1.88-.81-5.59-2.46-8.73-7.47-13.08-12.12-4.13-4.4-8-18.5-8-18.5l-13.63-2.91s3.83,12.69,5.16,18.1c.78,3.19-.38,6.75-1.4,9.46A17.74,17.74,0,0,0,2116.14,1292.81Z"/><path class="cls-17" d="M2129.35,1298.81c7.32.37,5.11,1.86,15.13,3.68s14.05-.93,14.77-2.28-4-3.08-9-5.21l-.08.09a28.57,28.57,0,0,1-15.18.18c-6.64-1.8-13.05-5.77-17.62-7a17.74,17.74,0,0,0-1.25,4.59C2115.72,1297.34,2122,1298.45,2129.35,1298.81Z"/><path class="cls-23" d="M1997.38,1122.32s80.42,3.8,97,15.21,39.05,137.68,39.05,137.68a11.15,11.15,0,0,1-5.51,1.55c-3.52.24-11.15-2.12-11.15-2.12s-37.08-57.55-39.29-71.77-1.05-26.79-7.33-27.37-85.16,6.24-96.22-15.14S1997.38,1122.32,1997.38,1122.32Z"/><path class="cls-19" d="M2026,945.34c-3.57-2.36-8-2.89-11.13-2.91a5.36,5.36,0,0,1,2.46-1c-1.91-.41-6.34,1.21-6.34,1.21-26.14-12.12-33,27.09-33,36.3s-.69,19.78-14.63,27.11c-27.42,14.44-7.08,44.18-7.08,44.18.2.14,10.89,21.38,10.89,21.38-.18-7.46,36.63-44.31,55.26-54.83,4.77-6.11,7.07-17.31,7.24-18.19-1.34,8.91-3.21,13.83-4.77,16.57C2041,1002.29,2035.5,951.58,2026,945.34Z"/><path class="cls-16" d="M2022,1011.43c-.46-.19-1-.4-1.55-.6,0-1.19.1-2.46.19-3.75.4-5.88,1.27-12.09,1.27-12.09l-19.57-5.25-1.16-.31a60.92,60.92,0,0,1-3.84,18.52c-2,.1-3.31.22-3.31.22-.33,1.17,8.31,19.05,19.73,19.52C2017.47,1027.84,2027.7,1013.82,2022,1011.43Z"/><path class="cls-33" d="M2021.88,995s-.87,6.21-1.27,12.09c-11.08-1.05-16.27-11.57-18.3-17.34Z"/><path class="cls-19" d="M2000.41,987.45s-5.21-9.58-6.08-17.53c-.62-5.67,3.62-26.27,24.32-21.89a28.39,28.39,0,0,1,11.47,5.24c4.33,3.36,10.44,10.42,1.91,28.07l-2.31,6Z"/><path class="cls-16" d="M2025.21,1000.81s-26.28-1.32-25.21-17.68-1.59-27.54,15.23-27.39,19.68,6.61,20.65,12.15S2032.08,1000.73,2025.21,1000.81Z"/><path class="cls-19" d="M2027.22,956.14s-8.47,18.71-19.69,20.81-15.81-1.18-15.81-1.18A31.28,31.28,0,0,0,2003.17,958S2022.4,946.65,2027.22,956.14Z"/><path class="cls-19" d="M2025.33,957.58s5.08,4.64,6.11,8.89,1,12.86,3.57,12.74c0,0,6.29-12.68.69-20.46C2029.77,950.49,2025.33,957.58,2025.33,957.58Z"/><path class="cls-23" d="M2051.51,1118.07c-2.13,2.54-8.77,3.33-15.86,4.49-5.59.92-11.46,2.08-15.63,4.53-9.47,5.56-40.43,24.36-49.5,23.51-3.52-.33-2.86-7-.73-16,3.35-14.07,10.37-33.61,10.37-42.1,0-4.64,1.55-15.61,3.61-28.16.16-1,.34-2,.51-3.06,4.07-24.39,9.72-53.15,9.72-53.15s6.29,13.73,18.56,13.73,9.41-10.47,9.41-10.47,11.19,1.32,13.84,4.16,9.35,15.16,10.68,18.52c0,0,.27,4.27-10.31,6.31,0,0,2.58,11.6,2.89,19.33.22,5.71-3.9,23.58-5.09,34.7-.42,3.94-.47,7,.17,8.43.81,1.79,3.46,3.58,6.47,5.34C2046.6,1111.7,2054,1115.05,2051.51,1118.07Z"/><path class="cls-24" d="M2040.62,1108.22c6.79,11.57-18.41,15-22.58,17.5-9.48,5.57-38.45,25.73-47.52,24.88-3.52-.33-2.86-7-.73-16,3.35-14.07,10.37-33.61,10.37-42.1,0-4.64,1.55-15.61,3.61-28.16l10.92-10.48s11.7,30.24,22.85,35.2a94.52,94.52,0,0,0,16.44,5.35c-.42,3.94-.47,7,.17,8.43C2035,1104.67,2037.61,1106.46,2040.62,1108.22Z"/><path class="cls-16" d="M1990.64,1017.22s-9.34-5.67-18.36,5.09,6.41,87.65,19.79,91.6c14.86,4.39,57.78-.7,57.78-.7l-.82-6.71s-45.7-8.76-47.6-11.2S1995.39,1018.46,1990.64,1017.22Z"/><path class="cls-23" d="M1994,1008.17s-19.18,1.73-24.75,8-7.19,23.4-7.19,23.4,16.88,13.63,37.23,8.34Z"/><rect class="cls-34" x="2054.33" y="1116.8" width="25.33" height="2.99"/><path class="cls-34" d="M2074.28,1119.38c.25-1,23.29-37.16,23.29-37.16h51.25l-25.71,36.19Z"/><path class="cls-19" d="M2076.44,1119.79c.25-1,23.36-37.57,23.36-37.57h49l-24.46,37.57Z"/><path class="cls-34" d="M2119.66,1101.13a4.1,4.1,0,0,1-3.57,2.65,1.82,1.82,0,0,1-1.74-2.65,4.09,4.09,0,0,1,3.57-2.66A1.83,1.83,0,0,1,2119.66,1101.13Z"/><path class="cls-16" d="M2045.3,1106.1s14.87-2.88,16.55-2.16,11,9.12,10.08,10.8-4.8,2.88-9.12,1.44-13.67-2.16-15.35-4.32A14.1,14.1,0,0,1,2045.3,1106.1Z"/><path class="cls-12" d="M379,1177.21c-.91-22-2.86-41-5.2-54.36-3.72-21.23-7.07-33.45-7.11-33.58-.49-1.86-7.57-9.42-23.32-9.18s-14.25,10.14-14.25,10.14h0a3.25,3.25,0,0,0,.11.88c.15.51,14.61,52.21,14,119,0,.94-.11,2.56-.05,3.63,0,0,36.5.93,36.51,0C381,1207.87,380.36,1191.71,379,1177.21Z"/><path class="cls-13" d="M383.62,1209.74c0,.93-.51,1.67-1.11,1.67h0c-.6,0-1.09-.75-1.09-1.67H350.12c0,.93-.51,1.67-1.11,1.67h0c-.62,0-1.11-.78-1.1-1.72a458.06,458.06,0,0,0-2.6-52.7c-4.15-39.27-11.84-65.52-12-65.88a3.25,3.25,0,0,1-.11-.88s-1.49-9.91,14.25-10.14,22.84,7.32,23.33,9.19c0,.09,1.92,7,4.44,19.44.84,4.12,1.74,8.85,2.67,14.13,2.33,13.31,4.28,32.41,5.19,54.36C384.43,1191.7,384.9,1203.91,383.62,1209.74Z"/><path class="cls-14" d="M383.62,1209.74c0,.93-.51,1.67-1.11,1.67h0c-.6,0-1.09-.75-1.09-1.67H350.12c0,.93-.51,1.67-1.11,1.67h0c-.62,0-1.11-.78-1.1-1.72a458.06,458.06,0,0,0-2.6-52.7c5.18-24.92,25.16-44,30-48.27.84,4.12,1.74,8.85,2.67,14.13,2.33,13.31,4.28,32.41,5.19,54.36C384.43,1191.7,384.9,1203.91,383.62,1209.74Z"/><path class="cls-12" d="M352,1209.4l-.11-.1v-.18c0-.59-.87-39.94-3.09-58.71-1.32-11.17-9.41-57.77-9.46-58a2.23,2.23,0,0,1-.09-.71,6,6,0,0,1,1.44-4.48c1.76-2.08,4.9-3.17,9.33-3.23h.53c11.36,0,16.59,5.5,17,7,.08.28,9.06,36.27,10.62,56.6.14,1.88.46,5.09.87,9.15,2.38,23.85,4.65,49.34,1.29,49.92a85.08,85.08,0,0,1-14.44,1c-1.33,0-2.61,0-3.81,0l-3,0c-4.18,0-6.78.25-6.82,1.5v.06h0c0,.09,0,.2-.16.2Zm-1.45-125H350c-4.32.07-7.37,1.11-9.06,3.11a5.78,5.78,0,0,0-1.36,4.23,2.3,2.3,0,0,0,.08.63c0,.14,8.12,46.59,9.48,58,2.05,17.33,2.93,52.19,3.07,57.94.83-.86,3.17-1,6.84-1l3,0c1.2,0,2.47,0,3.8,0h0a85.29,85.29,0,0,0,14.38-1c3.31-.57,0-33.64-1.59-49.54-.4-4.06-.73-7.27-.87-9.15-1.56-20.35-10.52-56.21-10.61-56.54C366.83,1089.65,361.73,1084.37,350.57,1084.37Z"/><path class="cls-13" d="M345.58,1211.42H468.19s-2.85-11.4-73.86-9.7C344.07,1202.92,345.58,1211.42,345.58,1211.42Z"/><path class="cls-12" d="M335.6,1330.46c14.21-71,10.56-114.55,10.54-115.1,0-1.09,2-2.08,3.11-2.12s6-.32,6.58.62c.75,1.22,3.61,54.89-17.58,116.6Z"/><path class="cls-12" d="M450.08,1330.46c-14.22-71-10.56-114.55-10.54-115.1,0-1.09-2-2.08-3.11-2.12s-6-.32-6.58.62c-.75,1.22-3.61,54.89,17.58,116.6Z"/><path class="cls-15" d="M472.77,1330.46c-14.22-71-10.56-114.55-10.54-115.1,0-1.09-2-2.08-3.11-2.12s-6-.32-6.59.62c-.74,1.22-3.6,54.89,17.59,116.6Z"/><path class="cls-15" d="M358.44,1330.46c14.22-71,10.56-114.55,10.54-115.1,0-1.09,2-2.08,3.11-2.12s6-.32,6.58.62c.75,1.22,3.61,54.89-17.58,116.6Z"/><rect class="cls-12" x="343.14" y="1208.47" width="127.64" height="6.58" rx="2.49"/><path class="cls-16" d="M443,1133.89s22.41,25.61,27,25.19,7.54-1.91,11.62,0c2.93,1.37,12.2,8.82,9.71,8.32s-7-1.07-8.17-1.18c-1.64-.15-4.27-.19-6-.5-1.13-.2-5.2-.31-6.56-.36-5.9-.19-33.8-16.49-33.8-16.49Z"/><path class="cls-23" d="M427.43,1003.89s-1-12.86-19.51-9.52c-4.89.89-8.25-7.83-16.25-4.73-17.24,6.69-18.25-2.14-23.23,10.26-2.09,5.19-15.35,11.23-11.3,20.2s-2.72,15,2,22c2.46,3.64,1.46,10.14,13.08,10.37,5.79.12,14.8,10.84,21.3,12.79s26-.86,25.27-9.78c-.58-7,7.53-6.37,12.51-14.36,4.36-7-3.41-8.75.74-20C435.13,1012.82,427.19,1010.8,427.43,1003.89Z"/><path class="cls-16" d="M529.1,1320.22c-.39,4.3,5.6,5.34,12.53,5.69s4.84,1.76,14.34,3.49,13.32-.88,14-2.17-3.81-2.92-8.52-4.93l-1.78-.77c-5.3-2.33-8.27-7.09-12.4-11.49-3.92-4.18-7.64-17.54-7.64-17.54l-12.91-2.76s3.63,12,4.88,17.16c.75,3-.35,6.4-1.32,9A17.1,17.1,0,0,0,529.1,1320.22Z"/><path class="cls-17" d="M541.63,1325.91c6.94.34,4.84,1.76,14.34,3.49s13.32-.88,14-2.17-3.81-2.92-8.52-4.93l-.07.08a27.06,27.06,0,0,1-14.4.17c-6.29-1.71-12.37-5.46-16.7-6.68a17.1,17.1,0,0,0-1.19,4.35C528.71,1324.52,534.7,1325.56,541.63,1325.91Z"/><path class="cls-24" d="M400.49,1167.06s85.82-6.46,102,3.74,42.07,129,42.07,129a10.57,10.57,0,0,1-5.17,1.67c-3.32.36-10.64-1.59-10.64-1.59s-37.24-53.15-39.86-66.54-2-25.33-8-25.65-80.43,9-91.69-10.79-2-39.48-2-39.48Z"/><path class="cls-16" d="M499.57,1320.7c-.39,4.3,5.6,5.35,12.53,5.69s4.84,1.77,14.34,3.49,13.32-.88,14-2.16-3.81-2.93-8.52-4.94l-1.78-.77c-5.3-2.33-8.27-7.08-12.4-11.49-3.92-4.17-7.63-17.54-7.63-17.54l-12.92-2.76s3.63,12,4.88,17.17c.75,3-.35,6.39-1.32,9A16.92,16.92,0,0,0,499.57,1320.7Z"/><path class="cls-17" d="M512.1,1326.39c6.94.35,4.84,1.77,14.34,3.49s13.32-.88,14-2.16-3.81-2.93-8.52-4.94l-.07.08a27.06,27.06,0,0,1-14.4.17c-6.29-1.7-12.37-5.46-16.7-6.67a16.92,16.92,0,0,0-1.19,4.34C499.18,1325,505.17,1326.05,512.1,1326.39Z"/><path class="cls-23" d="M387,1159.08s76.24,3.61,92,14.42S516,1304,516,1304a10.49,10.49,0,0,1-5.23,1.46c-3.34.23-10.57-2-10.57-2s-35.15-54.56-37.25-68-1-25.39-6.95-25.94-80.72,5.91-91.2-14.35S387,1159.08,387,1159.08Z"/><path class="cls-16" d="M364.17,1061.67a.58.58,0,0,1,.1-.12,11.66,11.66,0,0,1,2.13-1.86l0,0h0c6.23-4.35,17.36-5.28,17.36-5.28h0s1.21-.11,3.14-.2a57.72,57.72,0,0,0,3.64-17.56l1.1.3,18.55,5s-.82,5.89-1.21,11.46c-.08,1.22-.14,2.43-.17,3.55.53.2,1,.39,1.47.58h0s10.61,1.25,13.12,3.94,7.52,20.67,8.79,23.85l-71.42,1.17S359,1067.78,364.17,1061.67Z"/><path class="cls-35" d="M452.77,1134c-.42.46-1.52,2.42-3.07,4.77q-.69,1.07-1.5,2.19c-2.27,3.14-5.14,6.41-8.1,7.56a5.57,5.57,0,0,1-3.36.31c-1.67-.41-4.34-2.3-7-4.85a43.52,43.52,0,0,1-6.06-7.09A24.89,24.89,0,0,1,422,1134c-.1.76-.19,1.48-.27,2.17v0c-.39,3.73-.45,6.65.16,8,.78,1.69,3.3,3.38,6.14,5,5.66,3.3,12.72,6.48,10.32,9.35-2,2.4-8.31,3.14-15,4.25-5.29.87-10.85,2-14.81,4.3l-.47.27c-9.5,5.6-38,22.81-46.46,22-3.33-.32-2.71-6.68-.69-15.14,3.18-13.33,9.84-31.85,9.84-39.9,0-4.4-9.87-47.94-9.87-47.94s-1.8-18.65,3.36-24.76l2.23-2h0c.33.18,21.91,12.34,34.51,13s22.48-11.26,22.48-11.26c2.51,2.7,7.53,20.66,8.79,23.84,0,0,10.25,40.43,12.86,42.52S454,1132.65,452.77,1134Z"/><path class="cls-33" d="M410.22,1041.89s-.82,5.89-1.21,11.46c-10.5-1-15.42-11-17.34-16.43Z"/><path class="cls-16" d="M413.38,1047.4s-24.92-1.24-23.9-16.75-1.51-26.11,14.44-26,18.65,6.26,19.57,11.51S419.89,1047.33,413.38,1047.4Z"/><path class="cls-23" d="M414.43,1010.21s-6-1.39-7.9,1.5-.56,4.52-4.9,5.74-5.82,1.13-5.39,4.17-4.36,5.3-4.57,7.73a4.26,4.26,0,0,1-4.12,3.82c-1.91.18-1-31.36,6.35-32.75s14.51.26,16.68,2S414.43,1010.21,414.43,1010.21Z"/><path class="cls-23" d="M414.43,1010.21s5.79-.41,6.83,2.89-.34,4.09,1.13,6.08.63,5.55.63,5.55,11.45-21.1-.63-22.49S410.64,1003.31,414.43,1010.21Z"/><path class="cls-36" d="M449.7,1138.81q-.69,1.07-1.5,2.19c-2.27,3.14-5.14,6.41-8.1,7.56a5.57,5.57,0,0,1-3.36.31c-1.67-.41-4.34-2.3-7-4.85a43.52,43.52,0,0,1-6.06-7.09A24.89,24.89,0,0,1,422,1134c-.1.76-.19,1.48-.27,2.17v-3.52s1.4-61.77,3.53-34.61C426.78,1117.93,441.79,1132.46,449.7,1138.81Z"/><path class="cls-36" d="M374.23,1096.3S343.62,1149,408,1167.4l.48-.28c4-2.32,9.52-3.42,14.81-4.29,6.74-1.11,13-1.85,15-4.26,2.4-2.87-4.65-6-10.32-9.34-2.85-1.67-8.84-3.28-9.62-5C417.77,1142.92,374.23,1096.3,374.23,1096.3Z"/><path class="cls-31" d="M333.67,1154.94l-4.92,27.87h0l-13.58,77L303,1328.59a2.21,2.21,0,0,1-2.2,1.81,1.55,1.55,0,0,1-1.57-1.74l10.47-78,11.2-83.43,1.69-12.59Z"/><path class="cls-15" d="M328.75,1182.81c.65-12-7.82-15.59-7.82-15.59l1.69-12.59,11.05.31Z"/><path class="cls-31" d="M997,1330.4a2.21,2.21,0,0,1-2.2-1.81L984,1267.46l-15.51-87.93-4.34-24.59,11-.31,1.92,14.27,13.46,100.3,8,59.46A1.56,1.56,0,0,1,997,1330.4Z"/><path class="cls-15" d="M977.09,1168.9c-7.16,3.16-8.63,10.63-8.63,10.63l-4.34-24.59,11-.31Z"/><path class="cls-32" d="M1007.39,1164.6H281.45a9.68,9.68,0,0,1-9.65-9.66h0a9.68,9.68,0,0,1,9.65-9.65h725.94a9.68,9.68,0,0,1,9.66,9.65h0A9.69,9.69,0,0,1,1007.39,1164.6Z"/><polygon class="cls-37" points="585.9 1116.12 434.25 1116.12 448.32 1001.51 599.97 1001.51 585.9 1116.12"/><polygon class="cls-38" points="603.11 1001.52 589.04 1116.12 437.39 1116.12 440.6 1089.99 451.46 1001.52 603.11 1001.52"/><path class="cls-39" d="M603.11,1001.52l-14.06,114.6H437.39L440.6,1090c125.18,7.55,129.26-71.48,128.7-88.47Z"/><path class="cls-37" d="M531.84,1051c-.37-3.65-2.28-7.28-5.91-7.73l-6.38,0a6.59,6.59,0,0,0-7.39,6.33l-2.8,86.38a5.25,5.25,0,0,1-5.25,5.08H488.37a2.16,2.16,0,0,0-2.11,1.54,2.12,2.12,0,0,0,2,2.69h49.33l.28,0h.59a2.53,2.53,0,0,0,2.53-2.78Z"/><path class="cls-38" d="M535.33,1051c-.37-3.65-2.27-7.28-5.91-7.73l-6.38,0a6.59,6.59,0,0,0-7.39,6.33l-2.8,86.38a5.25,5.25,0,0,1-5.25,5.08H491.86a2.16,2.16,0,0,0-2.11,1.54,2.12,2.12,0,0,0,2,2.69h49.33a2.4,2.4,0,0,0,.28,0H542a2.53,2.53,0,0,0,2.54-2.78Z"/><path class="cls-37" d="M706.3,1039.18l-8.41,100s-.88,6.06,3.63,6.07c7.41,0,36.89,0,36.89,0s-5.57-1.26-5.51-4.1c.08-3.35,9.83-102.91,9.83-102.91Z"/><path class="cls-40" d="M740.81,1143.44c-1.46,0-29.62.09-36.84,0-3.15,0-3.7-2.8-3.73-4.58a9,9,0,0,1,.1-1.49l.22-2.6.56-6.63.49-5.85.63-7.52.53-6.35,6-71.05,36.43-.95s-4.1,41.67-7,72c-.32,3.38-.63,6.62-.92,9.65-.09,1-.18,1.91-.26,2.83-.27,2.87-.52,5.5-.73,7.83-.12,1.22-.22,2.36-.31,3.41-.38,4.09-.59,6.7-.6,7.2a4.12,4.12,0,0,0,.08.81C736,1143.33,740.26,1143.44,740.81,1143.44Z"/><polygon class="cls-38" points="617.82 984.77 638.3 1067.05 641.11 1078.32 650.65 1116.65 827.9 1116.65 792.74 984.77 617.82 984.77"/><polygon class="cls-40" points="617.82 984.77 614.98 985.72 646.87 1119.51 650.65 1116.65 617.82 984.77"/><polygon class="cls-37" points="646.87 1119.51 823.04 1119.51 827.9 1116.65 650.65 1116.65 646.87 1119.51"/><rect class="cls-38" x="708.74" y="1143.48" width="38.14" height="1.81" transform="translate(1455.62 2288.77) rotate(180)"/><polygon class="cls-38" points="819.32 1092.35 790.55 986.51 617.53 986.51 617.53 984.77 792.74 984.77 821.4 1092.11 819.32 1092.35"/><polygon class="cls-37" points="737.18 1119.51 736.99 1120.9 701.12 1128.14 701.61 1122.29 701.84 1119.51 737.18 1119.51"/><path class="cls-39" d="M740.81,1143.44c-1.46,0-29.62.09-36.84,0-3.15,0-3.7-2.8-3.73-4.58l35.71-6.72c-.38,4.09-.59,6.7-.6,7.2a4.12,4.12,0,0,0,.08.81C736,1143.33,740.26,1143.44,740.81,1143.44Z"/><polygon class="cls-39" points="728.51 1089.95 650.65 1116.65 641.11 1078.32 728.51 1089.95"/><polygon class="cls-21" points="617.82 984.77 792.74 984.77 821.12 1090.76 643.3 1090.76 617.82 984.77"/><path class="cls-37" d="M744,1104.16a6,6,0,0,0-5.62-4.71,3.77,3.77,0,0,0-3.79,4.71,6,6,0,0,0,5.62,4.7A3.76,3.76,0,0,0,744,1104.16Z"/><polygon class="cls-41" points="812.87 1086.17 649.09 1086.17 630.54 1012.28 629.12 1006.61 627.91 1001.78 625.06 990.45 786.48 990.45 789.6 1001.78 790.94 1006.61 792.5 1012.28 812.87 1086.17"/><polygon class="cls-42" points="789.6 1001.78 627.91 1001.78 625.06 990.45 786.48 990.45 789.6 1001.78"/><path class="cls-41" d="M631.74,995.57a1.07,1.07,0,0,1,1.06-1.42,1.93,1.93,0,0,1,1.77,1.42,1.06,1.06,0,0,1-1.06,1.41A1.93,1.93,0,0,1,631.74,995.57Z"/><path class="cls-41" d="M636.45,995.57a1.07,1.07,0,0,1,1.06-1.42,2,2,0,0,1,1.77,1.42,1.06,1.06,0,0,1-1.06,1.41A1.92,1.92,0,0,1,636.45,995.57Z"/><path class="cls-41" d="M641.52,995.57a1.07,1.07,0,0,1,1.06-1.42,2,2,0,0,1,1.77,1.42,1.07,1.07,0,0,1-1.06,1.41A1.92,1.92,0,0,1,641.52,995.57Z"/><path class="cls-42" d="M671.38,1027.24H646.69a1.9,1.9,0,0,1-1.73-1.38h0a1.05,1.05,0,0,1,1-1.39h24.69a1.91,1.91,0,0,1,1.73,1.39h0A1,1,0,0,1,671.38,1027.24Z"/><path class="cls-42" d="M672.7,1032.53H648a1.91,1.91,0,0,1-1.74-1.39h0a1.05,1.05,0,0,1,1-1.39H672a1.91,1.91,0,0,1,1.73,1.39h0A1.05,1.05,0,0,1,672.7,1032.53Z"/><path class="cls-42" d="M674,1037.81h-24.7a1.89,1.89,0,0,1-1.73-1.39h0a1,1,0,0,1,1-1.38h24.7a1.9,1.9,0,0,1,1.73,1.38h0A1.05,1.05,0,0,1,674,1037.81Z"/><path class="cls-42" d="M715.54,1027.24h-24.7a1.9,1.9,0,0,1-1.73-1.38h0a1.05,1.05,0,0,1,1-1.39h24.7a1.91,1.91,0,0,1,1.73,1.39h0A1,1,0,0,1,715.54,1027.24Z"/><path class="cls-42" d="M716.85,1032.53H692.16a1.91,1.91,0,0,1-1.73-1.39h0a1.05,1.05,0,0,1,1-1.39h24.69a1.91,1.91,0,0,1,1.74,1.39h0A1.06,1.06,0,0,1,716.85,1032.53Z"/><path class="cls-42" d="M718.17,1037.81H693.48a1.9,1.9,0,0,1-1.74-1.39h0a1,1,0,0,1,1-1.38h24.69a1.9,1.9,0,0,1,1.73,1.38h0A1.05,1.05,0,0,1,718.17,1037.81Z"/><path class="cls-42" d="M758,1027.24H733.31a1.9,1.9,0,0,1-1.73-1.38h0a1.05,1.05,0,0,1,1-1.39h24.69a1.91,1.91,0,0,1,1.74,1.39h0A1,1,0,0,1,758,1027.24Z"/><path class="cls-42" d="M759.32,1032.53H734.63a1.91,1.91,0,0,1-1.74-1.39h0a1.05,1.05,0,0,1,1-1.39h24.7a1.91,1.91,0,0,1,1.73,1.39h0A1.05,1.05,0,0,1,759.32,1032.53Z"/><path class="cls-42" d="M760.64,1037.81h-24.7a1.89,1.89,0,0,1-1.73-1.39h0a1,1,0,0,1,1-1.38H760a1.9,1.9,0,0,1,1.73,1.38h0A1.05,1.05,0,0,1,760.64,1037.81Z"/><path class="cls-42" d="M780.85,1009.34l1.22,4.88a1.24,1.24,0,0,1-1.22,1.63H641.15a2.22,2.22,0,0,1-2-1.63l-1.22-4.88a1.23,1.23,0,0,1,1.22-1.62h139.7A2.22,2.22,0,0,1,780.85,1009.34Z"/><path class="cls-38" d="M738.15,1007.72l2,8.13h-99a2.22,2.22,0,0,1-2-1.63l-1.22-4.88a1.23,1.23,0,0,1,1.22-1.62Z"/><path class="cls-21" d="M757.64,1010.91H756.1l-.16-.62h2.37l.14.54-.8,2.75h-.81Z"/><path class="cls-21" d="M759.12,1011.93c-.24-.95.17-1.7,1-1.7a2.1,2.1,0,0,1,1.88,1.7c.24,1-.16,1.7-1,1.7A2.08,2.08,0,0,1,759.12,1011.93Zm2.18,0c-.15-.59-.55-1-1-1s-.6.43-.45,1,.55,1.05,1,1.05S761.45,1012.54,761.3,1011.93Z"/><path class="cls-21" d="M762.31,1011.09a.62.62,0,0,1,.6-.84,1.08,1.08,0,0,1,1,.84.61.61,0,0,1-.59.84A1.08,1.08,0,0,1,762.31,1011.09Zm2.53-.8h.56l-1.58,3.29h-.56Zm-1.42.8c-.06-.22-.23-.41-.42-.41s-.25.19-.19.41.22.42.41.42S763.47,1011.31,763.42,1011.09Zm1.33,1.68a.62.62,0,0,1,.6-.84,1.08,1.08,0,0,1,1,.84.61.61,0,0,1-.59.84A1.08,1.08,0,0,1,764.75,1012.77Zm1.11,0c-.06-.22-.23-.41-.42-.41s-.25.19-.19.41.22.42.41.42S765.91,1013,765.86,1012.77Z"/><path class="cls-42" d="M726.56,1076.32H714.18a4.31,4.31,0,0,1-3.94-3.15l-6-24a2.38,2.38,0,0,1,2.36-3.15H719a4.31,4.31,0,0,1,3.93,3.15l6,24A2.37,2.37,0,0,1,726.56,1076.32Z"/><path class="cls-42" d="M748,1076.32H735.61a4.29,4.29,0,0,1-3.93-3.15l-6-24a2.38,2.38,0,0,1,2.37-3.15h12.38a4.29,4.29,0,0,1,3.93,3.15l6,24A2.38,2.38,0,0,1,748,1076.32Z"/><path class="cls-42" d="M769,1076.32H756.64a4.31,4.31,0,0,1-3.93-3.15l-6-24a2.37,2.37,0,0,1,2.36-3.15h12.38a4.31,4.31,0,0,1,3.94,3.15l6,24A2.37,2.37,0,0,1,769,1076.32Z"/><path class="cls-42" d="M702.09,1076.32H660.16a7.21,7.21,0,0,1-6.59-5.28l-4.93-19.75c-.72-2.92,1.05-5.28,4-5.28h41.93a7.2,7.2,0,0,1,6.59,5.28l4.93,19.75C706.77,1074,705,1076.32,702.09,1076.32Z"/><path class="cls-21" d="M694,1053.59H654.83a1.64,1.64,0,0,1-1.5-1.2h0a.91.91,0,0,1,.9-1.2H693.4a1.64,1.64,0,0,1,1.5,1.2h0A.91.91,0,0,1,694,1053.59Z"/><path class="cls-21" d="M695.15,1058.21H656a1.64,1.64,0,0,1-1.5-1.2h0a.91.91,0,0,1,.9-1.2h39.17a1.64,1.64,0,0,1,1.5,1.2h0A.91.91,0,0,1,695.15,1058.21Z"/><path class="cls-21" d="M696.3,1062.83H657.13a1.64,1.64,0,0,1-1.5-1.2h0a.91.91,0,0,1,.9-1.2h39.18a1.65,1.65,0,0,1,1.5,1.2h0A.91.91,0,0,1,696.3,1062.83Z"/><path class="cls-21" d="M667.66,1068h-9.24a1.64,1.64,0,0,1-1.5-1.2h0a.91.91,0,0,1,.9-1.2h9.24a1.64,1.64,0,0,1,1.5,1.2h0A.91.91,0,0,1,667.66,1068Z"/><path class="cls-24" d="M842,1201.6s-22.13,11-23.44,22.92,3.46,84.09,3.46,84.09,23.23,4.39,27.33.12c0,0,5.78-77.25,4.76-80.73s63.73-22.54,69.49-22.42S842,1201.6,842,1201.6Z"/><path class="cls-24" d="M847.6,1308.29s-1.35,21.8-5.57,22.11c-.56,0-21.39,0-21.39,0l-26.59-.16s.17-6.4,8-7.76,20.78-6.82,25.49-17.09C832.44,1294.63,847.6,1308.29,847.6,1308.29Z"/><path class="cls-24" d="M773,1308.29s-1.35,21.8-5.56,22.11c-.57,0-21.4,0-21.4,0l-26.59-.16s.18-6.4,8-7.76,20.78-6.82,25.49-17.09C757.81,1294.63,773,1308.29,773,1308.29Z"/><path class="cls-23" d="M935.17,1162.78l-.45.13a8,8,0,0,0-4.08-5.22c-16.41-9.29-47.66-3-47.66-3s-100.82,16.38-110.16,29.65-23.89,126.33-23.89,126.33,17.63,4.6,24.92,1.87c0,0,34.75-89.58,37.56-99.27,2.44-8.4,50.37-2.27,74.55-4,14.5-.45,37.18-1.49,43.34-3.64C938.58,1202.47,935.17,1162.78,935.17,1162.78Z"/><path class="cls-43" d="M899.43,1041.65l-8.38,10.43-15.85.78c-.16-1.51-.71-8.08-1.18-13.69-.37-4.58-.69-8.52-.69-8.52L890.08,1016c0,.1.87,5,1,5.68C893.33,1034.28,899.43,1041.65,899.43,1041.65Z"/><path class="cls-44" d="M871.62,1037.77c.35-.12,21.43-5.17,23.64-4.31s3.33,5.3,3.33,5.3l-34.36,5.91S867.18,1039.37,871.62,1037.77Z"/><path class="cls-43" d="M868.89,1032.16s22.48,1,22.9-13,3.61-23.31-10.72-24.55-17.28,4-18.56,8.65S863.06,1031.53,868.89,1032.16Z"/><path class="cls-24" d="M863,1001.81s5.29,14.78,8.25,13.3,5.66-2.71,6.4,2-2.21,11.09,7.64,9.36,17.18-30.22,13.3-34.23C887.38,980.63,847.6,988.14,863,1001.81Z"/><path class="cls-40" d="M935.17,1162.78c-5.67,6.7-53.93,5-68.07-.7a10.33,10.33,0,0,1-2.48-1.34c-8.32-6.65,10.44-12.49-10.53-63.18,0,0,0,0,0-.08-15-36.42.91-48.23,11-54.06,0,0,28.75-8.84,44.83-3.86C930.73,1046,941.26,1155.57,935.17,1162.78Z"/><path class="cls-44" d="M884.43,1137.9c-1,6.9-6.51,23.93-17.33,24.18a10.33,10.33,0,0,1-2.48-1.34c-8.32-6.65,10.44-12.49-10.53-63.18,0,0,0,0,0-.08,3.5-2.4,9.19-5.13,12.88-1C872.6,1102.92,885.41,1130.76,884.43,1137.9Z"/><path class="cls-43" d="M782.29,1137.81s-9.06-5.24-12-5.67-16.78,11.34-14.74,12.24,12.51-3.51,14-2.6,2.69,3.45,4.35,3.48,7.24,0,7.24,0Z"/><path class="cls-40" d="M865,1043.42s-19.83,10.34-22.43,20.09-12.13,57-15.79,60.32-45.81,11-45.81,11-4.93,5.48-3.38,10.47h65.86s29.68-42.93,27.57-59.12S865,1043.42,865,1043.42Z"/><path class="cls-13" d="M952.24,1207.28H815.42s3.19-11.79,82.42-10C953.92,1198.49,952.24,1207.28,952.24,1207.28Z"/><path class="cls-12" d="M963.37,1330.45c-15.86-73.45-11.78-118.52-11.76-119.09,0-1.13-2.24-2.15-3.46-2.19s-6.72-.33-7.35.63c-.83,1.27-4,56.8,19.61,120.65Z"/><path class="cls-12" d="M835.63,1330.45c15.87-73.45,11.79-118.52,11.77-119.09,0-1.13,2.24-2.15,3.46-2.19s6.72-.33,7.35.63c.83,1.27,4,56.8-19.62,120.65Z"/><path class="cls-15" d="M810.32,1330.45c15.86-73.45,11.78-118.52,11.76-119.09,0-1.13,2.24-2.15,3.47-2.19s6.71-.33,7.35.63c.83,1.27,4,56.8-19.62,120.65Z"/><path class="cls-15" d="M937.89,1330.45C922,1257,926.1,1211.93,926.12,1211.36c0-1.13-2.23-2.15-3.46-2.19s-6.72-.33-7.35.63c-.83,1.27-4,56.8,19.62,120.65Z"/><rect class="cls-12" x="812.54" y="1204.23" width="142.42" height="6.81" rx="2.68" transform="translate(1767.5 2415.28) rotate(180)"/><path class="cls-12" d="M914.91,1171.89c1-22.71,3.18-42.47,5.79-56.24,4.15-22,7.89-34.6,7.93-34.74.55-1.93,8.45-9.75,26-9.5s15.9,10.49,15.9,10.49h0a3,3,0,0,1-.13.91c-.16.53-16.29,54-15.6,123.08,0,1,.13,2.64.06,3.76,0,0-40.72,1-40.73,0C912.74,1203.61,913.43,1186.89,914.91,1171.89Z"/><path class="cls-23" d="M753.37,1145.29s11-8.52,16.48-5.84,6.81,5.84,6.81,5.84Z"/><path class="cls-16" d="M407.75,1139.49s10.43-2.38,13.73-1.37,10.61,7.14,8.83,7.16-8.82-3.31-9.92-2.67-6.05,3.2-9.26,1.92S407.75,1139.49,407.75,1139.49Z"/><path class="cls-35" d="M362.05,1065.41s-10.23,27-11.47,41.93c-1.92,23.27-1.82,37.81-1.82,37.81s6.6.28,23.44,0,36.6,0,36.6,0,5.06-4.91-1.84-8.67-36-10.65-35.24-13.55l10.74-43.31Z"/><path class="cls-23" d="M412.69,1145.29s6.18-4.33,10.51-3.23a21.48,21.48,0,0,1,7.11,3.22Z"/><path class="cls-32" d="M2362,1170.39H2190.18a9.91,9.91,0,0,1-9.88-9.88h0a9.91,9.91,0,0,1,9.88-9.88H2362a9.91,9.91,0,0,1,9.88,9.88h0A9.91,9.91,0,0,1,2362,1170.39Z"/><path class="cls-31" d="M2247.81,1170.32l-5.45,21.25h0l-15,58.7-13.43,52.46a2.38,2.38,0,0,1-2.43,1.38c-1.06,0-1.88-.62-1.74-1.33l11.58-59.48,12.4-63.62,1.87-9.6Z"/><path class="cls-15" d="M2242.36,1191.57c.72-9.13-8.65-11.89-8.65-11.89l1.87-9.6,12.23.24Z"/><path class="cls-31" d="M2311.11,1170.32l5.44,21.25h0l15,58.7,13.44,52.46a2.38,2.38,0,0,0,2.43,1.38c1.06,0,1.88-.62,1.74-1.33l-11.59-59.48-12.39-63.62-1.87-9.6Z"/><path class="cls-15" d="M2316.55,1191.57c-.71-9.13,8.66-11.89,8.66-11.89l-1.87-9.6-12.23.24Z"/><path class="cls-7" d="M2334.91,1304.06s-38.9-33.18-5.19-96.21,151.7-81,176.61-128.45L2499,1316.31Z"/><path class="cls-9" d="M2828.68,784.89v417c0,70.57-57.73,128.3-128.3,128.3H1889.6a127.47,127.47,0,0,1-78.59-27.07h570.45c60.28,0,109.59-49.31,109.59-109.59V799.34c0-60.28-49.31-109.59-109.59-109.59,0,0-466.48-1.79-554.45,0-35.92.73-52.75,44.09-52.75,44.09,6.58-54.72,82.4-77.26,115.34-77.26h810.78C2771,656.58,2828.68,714.32,2828.68,784.89Z"/><polygon class="cls-28" points="2339.87 1120.57 2339.54 1127.98 2338.86 1143.49 2338.56 1150.63 2318.88 1150.63 2318.43 1143.49 2317.47 1127.98 2317.01 1120.57 2339.87 1120.57"/><polygon class="cls-45" points="2340.24 1115.56 2316.94 1115.56 2315.97 1120.57 2340.9 1120.57 2340.24 1115.56"/><polygon class="cls-25" points="2339.54 1127.98 2338.86 1143.49 2318.43 1143.49 2317.47 1127.98 2339.54 1127.98"/><path class="cls-25" d="M2240.35,1122.69l-.13,3-.1,2.24-.63,14.28,0,1.22-.31,7.14h-19.68l-.44-7.14-.08-1.22L2218,1128l-.14-2.24-.25-4,0-.13s4.59-.83,7.34.93,5.76-1.68,8.27-.67,2.67,2.25,4.67,1.42A9.88,9.88,0,0,1,2240.35,1122.69Z"/><polygon class="cls-46" points="2240.44 1120.57 2240.35 1122.69 2240.22 1125.74 2240.11 1127.98 2239.49 1142.26 2239.44 1143.48 2239.13 1150.63 2219.45 1150.63 2219.01 1143.48 2218.93 1142.26 2218.04 1127.98 2217.9 1125.74 2217.65 1121.69 2217.58 1120.57 2240.44 1120.57"/><path class="cls-46" d="M2240.56,1120.56c0-.11,0-.23,0-.35a11.46,11.46,0,0,0-22.91,0c0,.12,0,.24,0,.35Z"/><path class="cls-28" d="M2227.13,1148.81l-1-.12c.06-.63,3.27-43,3.76-45.82a5.43,5.43,0,0,1,3.69-4.06l.06,0,16-2.84.17,1-16,2.83a4.44,4.44,0,0,0-3,3.27C2230.39,1105.83,2227.15,1148.66,2227.13,1148.81Z"/><polygon class="cls-28" points="2240.22 1125.74 2240.11 1127.98 2239.49 1142.26 2218.93 1142.26 2218.04 1127.98 2217.9 1125.74 2240.22 1125.74"/><path class="cls-47" d="M2828.68,1168.16v33.73c0,70.57-57.73,128.3-128.3,128.3H1889.6c-29.55,0-55.11-10.14-76.86-27.09l568.72,0a109.69,109.69,0,0,0,91.76-49.87C2610.25,1261,2761.53,1199.44,2828.68,1168.16Z"/><path class="cls-48" d="M2678.64,1238.34s-14.69-17.14-.9-28c0,0,10.07-6.1,18.28-5.61,0,0-11.64,19.52-7.87,21.46s11.4-22.68,11.4-22.68,22.92-2.22,30.29,1.32c0,0-19.59,16-15.47,17s25.3-14.78,25.3-14.78,21.33,3.63,20.19,16.64-8.49,17-11.72,16.69-22.13-7.56-22.54-4.92,11,11.3,18.93,11.71c0,0-15,16.58-25,11.8s-10.85-12.38-17.08-15.22-11.55-2.84-9,.06,13.85,5.72,17.41,12,6.76,10.55-3.58,9-27.15-9.12-27.89-17.78Z"/><path class="cls-48" d="M2749.38,1224s-57.94-2.23-70.74,14.34a41.88,41.88,0,0,1-11.53,16.19l-1.36,3.7s10-10.58,13.63-11.22C2679.38,1247,2673.76,1226.48,2749.38,1224Z"/><path class="cls-48" d="M2667.11,1254.53s-12.44,9.2-13.3,25.63l2.25.21s4-17,11.15-23.64S2667.11,1254.53,2667.11,1254.53Z"/><path class="cls-49" d="M2627.26,1216.78s23.38-13.09,12.47-30.86c0,0-8.73-10.9-18.07-13.71,0,0,5,26.49,0,27.12s-3.43-29.93-3.43-29.93-24.63-11.84-34.29-10.9c0,0,15.27,25.87,10.29,25.24s-22.13-26.8-22.13-26.8-25.25-4.68-29.3,10.28,2.49,22.44,6.23,23.38,27.74.62,27.12,3.74-16.83,8.1-25.87,5.3c0,0,10,24.62,23.06,23.37s17.15-9.35,25.25-10,14,1.56,10,3.74-17.76.71-24.31,6.28-11.84,9,.32,11.49,34,.93,38.33-8.42Z"/><path class="cls-48" d="M2554.33,1171.9s65.46,21.19,72.93,44.88c0,0-.31,10.6,6.24,22.75v4.68s-6.86-15.9-10.6-18.08C2622.9,1226.13,2637.55,1205.56,2554.33,1171.9Z"/><path class="cls-48" d="M2633.5,1239.53s10.09,15.33,4.34,34l-2.6-.7s2.52-20.55-2.76-30.89S2633.5,1239.53,2633.5,1239.53Z"/><path class="cls-49" d="M2664.45,1198.73s-30.81-17.26-16.43-40.68c0,0,11.5-14.38,23.83-18.07,0,0-6.57,34.92,0,35.74s4.52-39.44,4.52-39.44,32.46-15.62,45.19-14.38c0,0-20.13,34.1-13.56,33.28s29.17-35.34,29.17-35.34,33.28-6.16,38.62,13.56-3.28,29.58-8.21,30.82-36.57.82-35.75,4.93,22.19,10.68,34.1,7c0,0-13.14,32.46-30.4,30.81s-22.6-12.32-33.28-13.14-18.49,2-13.14,4.93,23.41.94,32,8.27,15.61,11.86-.41,15.15-44.78,1.23-50.53-11.1Z"/><path class="cls-48" d="M2760.59,1139.56s-86.28,27.94-96.14,59.17c0,0,.42,14-8.21,30v6.16s9-21,14-23.83C2670.21,1211.05,2650.9,1183.94,2760.59,1139.56Z"/><path class="cls-48" d="M2656.24,1228.72s-13.31,20.2-5.72,44.8l3.42-.92s-3.32-27.09,3.64-40.72S2656.24,1228.72,2656.24,1228.72Z"/><path class="cls-38" d="M2663.42,1326.86a60.37,60.37,0,0,0,60.36-60.36H2603.06A60.36,60.36,0,0,0,2663.42,1326.86Z"/><path class="cls-50" d="M2678.27,1326.39a60.34,60.34,0,0,1-67.86-59.89h15A60.36,60.36,0,0,0,2678.27,1326.39Z"/><path class="cls-38" d="M2724.61,1329.93H2602.22a7.45,7.45,0,0,1,7.45-7.45h107.49a7.45,7.45,0,0,1,7.45,7.45Z"/><rect class="cls-37" x="2601.07" y="1266.5" width="124.08" height="1.85"/><rect class="cls-51" x="61.68" y="1330.2" width="2762.23" height="7.33" rx="3.13"/></g></g></svg>