<svg xmlns="http://www.w3.org/2000/svg" viewBox="0 0 642.06 411.7"><defs><style>.cls-1{isolation:isolate;}.cls-2,.cls-29{fill:#a2d4f9;}.cls-2{opacity:0.35;}.cls-3{fill:#fff;}.cls-4{fill:#ea5854;}.cls-5{fill:#f97068;}.cls-6{fill:#0058c6;}.cls-7{fill:#0e35af;}.cls-8{fill:#7db6f4;}.cls-9{fill:#57aff7;}.cls-10{fill:#afd9ff;}.cls-11{fill:#ff777a;}.cls-12{fill:#f7f7f7;}.cls-13{fill:#dcf1ff;}.cls-14{fill:#252384;}.cls-15{fill:#0c0835;}.cls-16{fill:#dcedff;}.cls-17{fill:#ffc5c7;}.cls-18{fill:#fe8a8b;}.cls-19{fill:#ffa6a4;}.cls-20{fill:#cb3034;}.cls-21{fill:#c31f2a;}.cls-22{fill:#fb8384;}.cls-23{fill:#261b60;}.cls-24{fill:#ffdcdc;}.cls-25{fill:#001e7f;}.cls-26{opacity:0.25;mix-blend-mode:multiply;}.cls-27{fill:#00264f;}.cls-28{fill:#b4dff9;}.cls-30{fill:#fafdff;}</style></defs><g class="cls-1"><g id="Layer_2" data-name="Layer 2"><g id="OBJECTS"><path class="cls-2" d="M19.73,289.13l35.53,45.62A64.35,64.35,0,0,0,106,359.57H546.85a64.36,64.36,0,0,0,44.44-17.81l7.59-7.25A123.45,123.45,0,0,0,618.64,180.3h0A64.36,64.36,0,0,1,609.35,140h0A104.15,104.15,0,0,0,528,27.8L429.6,6.24A269.28,269.28,0,0,0,212.06,52.65c-11.4,8.41-19.52,14-20.77,14-2.53-.07-40.47,5.94-76.86,11.82a82.07,82.07,0,0,0-69,79.61h0a64.41,64.41,0,0,1-19.65,45.19h0A64.37,64.37,0,0,0,19.73,289.13Z"/><path class="cls-3" d="M632.13,106.33a18.69,18.69,0,0,0-12.22-10.87A23.68,23.68,0,0,0,573.19,91a18.68,18.68,0,0,0-19,10.57,23.68,23.68,0,0,0-34,4.74Z"/><path class="cls-3" d="M108.67,167.12a12.57,12.57,0,0,0-8.21-7.3,15.9,15.9,0,0,0-31.37-3,13.59,13.59,0,0,0-1.44-.08,12.52,12.52,0,0,0-11.33,7.18,15.88,15.88,0,0,0-22.83,3.18Z"/><path class="cls-3" d="M203.73,55.63a9.11,9.11,0,0,1,6-5.29,11.53,11.53,0,0,1,22.75-2.16,8.94,8.94,0,0,1,1-.06,9.08,9.08,0,0,1,8.21,5.2,11.53,11.53,0,0,1,16.56,2.31Z"/><path class="cls-4" d="M200.29,94.46V84.61A3.65,3.65,0,0,0,196.63,81h-9.37a47,47,0,0,0-8.43-19.48l6.88-6.89a3.65,3.65,0,0,0,0-5.17l-7-7a3.67,3.67,0,0,0-5.17,0l-7.26,7.26a46.93,46.93,0,0,0-19.11-7.07V31.54a3.66,3.66,0,0,0-3.66-3.66h-9.84a3.66,3.66,0,0,0-3.66,3.66V43.39a46.94,46.94,0,0,0-17.43,8l-8.93-8.93a3.67,3.67,0,0,0-5.18,0l-7,7a3.65,3.65,0,0,0,0,5.17l9.3,9.3A47.42,47.42,0,0,0,94.1,81H80.63A3.64,3.64,0,0,0,77,84.61v9.85a3.65,3.65,0,0,0,3.65,3.66H94.1a47.32,47.32,0,0,0,6.75,17l-9.3,9.3a3.65,3.65,0,0,0,0,5.17l7,7a3.68,3.68,0,0,0,5.18,0l8.93-8.93a47,47,0,0,0,17.43,8v11.84a3.66,3.66,0,0,0,3.66,3.66h9.84a3.66,3.66,0,0,0,3.66-3.66v-11.1a46.94,46.94,0,0,0,19.11-7.08l7.26,7.25a3.65,3.65,0,0,0,5.17,0l7-7a3.65,3.65,0,0,0,0-5.17l-6.88-6.89a47.3,47.3,0,0,0,8.43-19.46h9.37A3.66,3.66,0,0,0,200.29,94.46ZM162,103.17a25.27,25.27,0,0,1-9.68,8.84,24.35,24.35,0,0,1-6.68,2.36,25.33,25.33,0,0,1-18.63-3.5,25.27,25.27,0,0,1-8.85-9.67,24.92,24.92,0,0,1-2-5.12,25.34,25.34,0,0,1,0-13.09,24.69,24.69,0,0,1,2-5.13A25.32,25.32,0,0,1,127,68.19a25.4,25.4,0,0,1,18.63-3.5,24.35,24.35,0,0,1,6.68,2.36A25.34,25.34,0,0,1,162,75.89a25.29,25.29,0,0,1,0,27.28Z"/><path class="cls-5" d="M196.63,81h-9.37a47,47,0,0,0-8.43-19.48l6.88-6.89a3.65,3.65,0,0,0,0-5.17l-7-7a3.67,3.67,0,0,0-5.17,0l-7.26,7.26a46.93,46.93,0,0,0-19.11-7.07V31.54a3.66,3.66,0,0,0-3.66-3.66h-9.84a3.66,3.66,0,0,0-3.66,3.66V43.39a46.94,46.94,0,0,0-17.43,8l-8.93-8.93a3.67,3.67,0,0,0-5.18,0l-7,7a3.65,3.65,0,0,0,0,5.17l9.3,9.3A47.42,47.42,0,0,0,94.1,81H92.85a71.77,71.77,0,0,0,26.72,22.57,24.32,24.32,0,0,1-3.37-7.45,25.34,25.34,0,0,1,0-13.09,24.69,24.69,0,0,1,2-5.13A25.32,25.32,0,0,1,127,68.19a25.4,25.4,0,0,1,18.63-3.5,24.35,24.35,0,0,1,6.68,2.36A25.34,25.34,0,0,1,162,75.89a25.29,25.29,0,0,1,0,27.28,25.28,25.28,0,0,1-7.4,7.49,71,71,0,0,0,31.95-9.45c.26-1,.5-2,.69-3.09h4.22a72.44,72.44,0,0,0,8.81-7.2V84.61A3.65,3.65,0,0,0,196.63,81Z"/><rect class="cls-6" x="277.54" y="326.05" width="80.44" height="52.51"/><rect class="cls-7" x="277.54" y="326.05" width="80.44" height="23.31"/><path class="cls-6" d="M144.48,89.54H491a19.27,19.27,0,0,1,19.27,19.27V308.06a0,0,0,0,1,0,0H125.21a0,0,0,0,1,0,0V108.81A19.27,19.27,0,0,1,144.48,89.54Z"/><rect class="cls-8" x="138.63" y="112.26" width="358.25" height="185.57"/><path class="cls-9" d="M125.21,297.83h385.1a0,0,0,0,1,0,0v19.45A19.27,19.27,0,0,1,491,336.55H144.48a19.27,19.27,0,0,1-19.27-19.27V297.83a0,0,0,0,1,0,0Z"/><circle class="cls-6" cx="317.76" cy="318.76" r="7.29"/><path class="cls-9" d="M462.85,388.06H172.67a4.84,4.84,0,0,1-4.84-4.84h0A14.16,14.16,0,0,1,182,369.06H453.53a14.16,14.16,0,0,1,14.16,14.16h0A4.84,4.84,0,0,1,462.85,388.06Z"/><rect class="cls-10" x="401.76" y="140.15" width="79.42" height="19.86" rx="2.19"/><polygon class="cls-11" points="412.95 153.37 409.91 154.76 410.3 151.44 408.03 148.98 411.31 148.32 412.95 145.4 414.6 148.32 417.87 148.98 415.61 151.44 415.99 154.76 412.95 153.37"/><polygon class="cls-11" points="427.21 153.37 424.17 154.76 424.56 151.44 422.3 148.98 425.57 148.32 427.21 145.4 428.86 148.32 432.13 148.98 429.87 151.44 430.25 154.76 427.21 153.37"/><polygon class="cls-11" points="441.47 153.37 438.43 154.76 438.82 151.44 436.56 148.98 439.83 148.32 441.47 145.4 443.12 148.32 446.39 148.98 444.13 151.44 444.51 154.76 441.47 153.37"/><polygon class="cls-11" points="455.73 153.37 452.69 154.76 453.08 151.44 450.81 148.98 454.09 148.32 455.73 145.4 457.38 148.32 460.65 148.98 458.39 151.44 458.77 154.76 455.73 153.37"/><polygon class="cls-12" points="469.99 153.37 466.95 154.76 467.34 151.44 465.07 148.98 468.35 148.32 469.99 145.4 471.63 148.32 474.91 148.98 472.65 151.44 473.03 154.76 469.99 153.37"/><rect class="cls-10" x="154.33" y="128.6" width="88.77" height="27.61" rx="4.38"/><circle class="cls-11" cx="169.11" cy="142.41" r="7.74" transform="translate(-27.37 243.76) rotate(-67.39)"/><path class="cls-12" d="M163.91,148.13a7.69,7.69,0,0,0,10.39,0,5.22,5.22,0,0,0-3.25-4.43,3.22,3.22,0,1,0-3.89,0A5.22,5.22,0,0,0,163.91,148.13Z"/><rect class="cls-13" x="182.46" y="138.37" width="41.25" height="1.48"/><rect class="cls-13" x="182.46" y="141.67" width="53.61" height="1.48"/><rect class="cls-13" x="182.46" y="144.97" width="53.61" height="1.48"/><rect class="cls-10" x="154.33" y="167.12" width="50.62" height="12.66" rx="2.19"/><rect class="cls-10" x="154.33" y="185.01" width="50.62" height="12.66" rx="2.19"/><rect class="cls-13" x="154.33" y="202.9" width="50.62" height="12.66" rx="2.19"/><rect class="cls-11" x="212.66" y="185.01" width="50.62" height="12.66" rx="2.19"/><rect class="cls-10" x="212.66" y="202.9" width="50.62" height="12.66" rx="2.19"/><rect class="cls-11" x="430.56" y="191.34" width="50.62" height="12.66" rx="2.19"/><rect class="cls-10" x="430.56" y="209.23" width="50.62" height="12.66" rx="2.19"/><rect class="cls-13" x="430.56" y="227.12" width="50.62" height="12.66" rx="2.19"/><path class="cls-14" d="M257,124.7c-2.29,57.72-29.14,63.57,0,105.21S386.5,256.8,388.2,225.27s-19.48-50.52-5.6-90S257,124.7,257,124.7Z"/><path class="cls-15" d="M264.51,140.06c-3.39,26.24-12.39,52.12-7.76,66.34,0,0,.5-16,3.5-19.86,0,0-3,22.46,6.17,40.68S374.48,242,374.48,242s2-20,0-34.41-5.88-20.07-7-27.82c0,0,6.1,12.59,8.47,17.41S378.65,209,378.65,209s.65-12.85-4.36-22.68-2-36.94-.53-47.49-69.75-23-77.51-18.81S264.51,140.06,264.51,140.06Z"/><path class="cls-3" d="M287.48,211.33c-34.37,11.64-59,16-66.15,38.49s-17.11,48-17.11,48H436.67s-11.51-52.94-24.11-61.71-61.92-23.46-77-26S287.48,211.33,287.48,211.33Z"/><path class="cls-16" d="M382.23,262.22s.88,21.07-2.2,35.61h7.88Z"/><path class="cls-16" d="M259.92,270.52s-.67,16.16,1.69,27.31h-6Z"/><path class="cls-16" d="M232.28,243.4c3-7.94,12.74-17.26,12.75-17.27-11.8,5.42-20.06,12.18-23.7,23.69-7.13,22.47-17.11,48-17.11,48H223C222.15,273.9,229.27,251.35,232.28,243.4Z"/><path class="cls-6" d="M329.54,255s-16.71-1.1-26.84-8.77-8.77-15.34-8.77-15.34-7.4.54-10.14,0S285,201.82,301,201.3s49.45,6.11,53.56,6.33,17.67,12.37,14.25,27.76c-.55,2.47-7.17-4.47-10.18-.91S353.11,253.11,329.54,255Z"/><path class="cls-7" d="M324,250.43a84.29,84.29,0,0,1-29.11-39.9c-1.43-4.19,1-6.52,5.42-7.24Z"/><path class="cls-7" d="M330.39,254.49c11.76-7.53,22.58-26,25.87-32.18s3.42-12-6.65-13S330.39,254.49,330.39,254.49Z"/><path class="cls-17" d="M351.11,171.76c-3,24.44-4.76,37.51,3.41,47.65,0,0-14.56,29.59-25,35.62,0,0-24.93-17.81-31.78-46.31a34.75,34.75,0,0,0,4.66-15.61c.55-9.32-.82-25.48-.82-25.48Z"/><path class="cls-18" d="M344.73,236.91c-15.2,18.41-30.87,2.87-36.69-5A95.58,95.58,0,0,0,329.54,255C334.34,252.25,340,244.49,344.73,236.91Z"/><path class="cls-18" d="M302.42,193.11A35.4,35.4,0,0,1,298,208.33c11.28-2,35.48-6.64,50.65-12.05.23-6.7,1.24-14.69,2.46-24.52l-30.2-2.52L301.63,168C301.82,170.4,302.92,184.6,302.42,193.11Z"/><path class="cls-19" d="M390.49,109.49c1-15.42,1.22-29.44-10.81-47.42s-9.48,29.46-9.29,30,10.67,20.54,10.67,20.54Z"/><path class="cls-5" d="M383.7,133.89c-1.53,8.86-.49,16.18,3.76,16.91s8.93-5.86,10.46-14.72-.68-16.65-4.93-17.38S385.23,125,383.7,133.89Z"/><path class="cls-20" d="M392,139.57l-2.68,1.09-2.62,7.27s-.45.9-1,2.06a3.68,3.68,0,0,0,1.74.81c3.76.65,7.86-4.46,9.81-11.8C393.89,140.76,392,139.57,392,139.57Z"/><path class="cls-5" d="M379.77,106.61c3.29-.61,12.64,1.87,13.71,6.7,2.41,11-1.6,36.46-9,42.75-2.68,2.29-10.15,1.83-12.8,1C365,155,365,144.26,367.43,130S375.19,107.46,379.77,106.61Z"/><path class="cls-20" d="M392,139.57c-3.43,2.47-5.2,0-5.2,0-2.32,4.94-6.59,4.93-12,5.66l-3-1.59s-2.95,2.17-5.71,4.13c.49,4.91,2.17,8.25,5.61,9.3,2.65.82,10.12,1.28,12.8-1C387.75,153.31,390.33,146.86,392,139.57Z"/><path class="cls-19" d="M393.48,113.31c-1.07-4.83-10.42-7.31-13.71-6.7a5.14,5.14,0,0,0-.83.23c6-.44,9.21,3.79,9.9,8.63s0,26.77-7.11,36.44c-.91,1.24-2.48,4.84-7.77,5.61,3.36.44,8.45.35,10.56-1.46C391.88,149.77,395.89,124.29,393.48,113.31Z"/><path class="cls-5" d="M392,139.57c-3.43,2.47-5.2,0-5.2,0h0c-1.13,4.73-2.77,9.18-5.08,12.33-.91,1.24-2.48,4.84-7.77,5.61,3.36.44,8.45.35,10.56-1.46C387.75,153.31,390.33,146.86,392,139.57Z"/><path class="cls-20" d="M380.27,132c-1.34,7.74-4.1,13.73-6.17,13.37s-2.67-6.92-1.34-14.66,4.1-13.72,6.17-13.37S381.6,124.25,380.27,132Z"/><path class="cls-17" d="M276.7,156.6c.1.22.19.45.29.68,3.37,7.76,9.45,15.85,15.4,21.91,8.79,9,20.71,16.74,33.36,18.44,13.59,1.82,26.06-5.74,35.15-15.44a34.83,34.83,0,0,0,8.79-15.95c1.44-6.38.66-13.21,1.7-19.72.56-3.5,2-6.8,3.15-10.14,3.63-10.25,5.45-21.73,4.2-32.75-.52-4.58-1.27-11.15-3.75-15.12-2.85-4.57-9.44-8.17-13.89-11-14.27-8.93-33.18-12.2-49.4-7.15-16.57,5.16-30.08,18.44-37.06,34.15-3.33,7.48-5.26,14.84-3.64,22.9C273,137.5,272.7,146.92,276.7,156.6Z"/><path class="cls-18" d="M273.38,118.84s25.75,7.08,48.49,0,30.46-21.32,32.35-28.72c0,0,18.58,14.56,22.29,36.05,0,0,1.28-38.15-10.57-42.9s-36.67-11-39.41-8.49-48.77,28.77-48.77,28.77Z"/><path class="cls-15" d="M299.59,119.38A50.23,50.23,0,0,1,305.4,117a31.59,31.59,0,0,1,6.22-1.43,17.48,17.48,0,0,1,6.49,0c3.09.84,4.32,1.46,5.82,2.88l-.1.28a30.39,30.39,0,0,1-3.18,0l-3-.17c-2-.07-3.88-.55-5.89-.55a39.72,39.72,0,0,0-6,.49c-2,.28-4,.75-6.06,1.21Z"/><path class="cls-15" d="M366.62,120a23.21,23.21,0,0,0-5.93-1.66,31.73,31.73,0,0,0-6.07-.31c-2,.1-4,.64-6,.76a59.76,59.76,0,0,1-6.27.27l-.1-.28a14.3,14.3,0,0,1,5.86-2.94,18.85,18.85,0,0,1,6.53-.21A27.62,27.62,0,0,1,361,116.9a21.2,21.2,0,0,1,5.73,2.86Z"/><ellipse class="cls-15" cx="312.12" cy="130.91" rx="1.96" ry="4"/><ellipse class="cls-15" cx="353.29" cy="131.1" rx="1.88" ry="4"/><path class="cls-18" d="M338.68,150.14a7.45,7.45,0,0,1-2.91,3.71,5.07,5.07,0,0,1-4.58.49c-2.38-1-3-3.78.2-3.16a11,11,0,0,0,3.75.22C335.8,151.31,338.39,150.89,338.68,150.14Z"/><path class="cls-21" d="M315.11,161c8.14,1,27.77,1.53,34.18,1.21-2.62,8.7-9.07,17.23-17.92,16.92C322.3,178.82,317,170.09,315.11,161Z"/><path class="cls-22" d="M342.08,174.63c-6.82-5.75-11.75-.83-11.75-.83-1.56-1.06-5.86-2.84-9.64-.29a14.78,14.78,0,0,0,7.88,5.23l3.05.4A14.58,14.58,0,0,0,342.08,174.63Z"/><path class="cls-3" d="M317.23,161.25a20.88,20.88,0,0,0,.86,4.3A47.32,47.32,0,0,0,345.85,167a44.55,44.55,0,0,0,.75-4.67C339.25,162.42,325.13,162,317.23,161.25Z"/><path class="cls-19" d="M367.83,178a9,9,0,0,1-1.94,0c-6.22-.84-9.55-1.31-9.55-1.31l.38-2.73s3.33.47,9.54,1.31c5.73.78,13.08-8.32,15-19a1.39,1.39,0,0,1,1.55-1.15h0a1.37,1.37,0,0,1,1.17,1.58C382,167.87,374.58,177.41,367.83,178Z"/><path class="cls-5" d="M383.68,155.46a1.46,1.46,0,0,1,0,.29c-2,11.3-9.43,20.84-16.17,21.38a9.63,9.63,0,0,1-1.94,0l-9.11-1.25-.1.76s3.33.47,9.55,1.31a9,9,0,0,0,1.94,0c6.75-.54,14.16-10.08,16.17-21.38A1.3,1.3,0,0,0,383.68,155.46Z"/><path class="cls-14" d="M356.49,178.15,351,177.4a3.45,3.45,0,0,1-2.95-3.88h0a3.45,3.45,0,0,1,3.88-2.94l5.46.74a3.45,3.45,0,0,1,2.95,3.88h0A3.45,3.45,0,0,1,356.49,178.15Z"/><path class="cls-23" d="M359.57,172.51a3.1,3.1,0,0,1,0,.68h0a3.43,3.43,0,0,1-3.87,2.95l-4.78-.65a3.44,3.44,0,0,1-2.75-2.22c0,.09-.05.17-.06.25h0A3.45,3.45,0,0,0,351,177.4l5.46.75a3.45,3.45,0,0,0,3.88-3h0A3.46,3.46,0,0,0,359.57,172.51Z"/><path class="cls-14" d="M349,83.39s27.39,11.5,27.67,49c0,0,21.91-24.11,9-60.28s-50.14-34.79-50.14-34.79Z"/><path class="cls-23" d="M349,83.39s26.72,11.25,27.63,47.71v-.63c-.45-36.79-13.2-46.56-25.81-53.26l-3,2.15Z"/><path class="cls-14" d="M271.83,116.81s75.52,4.38,81.55-34-13.33-47.67-22.83-48.59-28-3.11-43.84,12.24-33.5,24.66-31.53,74.34Z"/><path class="cls-15" d="M270.26,106.42c3.29-1.83,6.58-3.71,9.76-5.78s6.34-4.19,9.41-6.44a199.49,199.49,0,0,0,17.74-14.49A198.53,198.53,0,0,1,290.8,95.9q-4.31,3.84-8.88,7.42c-3,2.41-6.19,4.65-9.39,6.85Z"/><path class="cls-15" d="M313.19,49.75c-17.89,9.69-37.57,33-37.95,52.25,0,0-7.57-7-3.59-17.09s15.7-21.23,22.19-26S313.19,49.75,313.19,49.75Z"/><path class="cls-15" d="M276.33,108.56c-2.4-6.21-.76-27.41,0-33.44s3-10.62,3.21-11.75-.28-1.47-.28-1.47C291.72,42.73,309.41,40,327.34,34.37l-1-.5c-10.14-.81-25.87-.69-39.6,12.62-15.83,15.36-33.5,24.66-31.53,74.34l16.65-4s25.83,1.5,48.48-4.93C295.12,116.83,278.72,114.78,276.33,108.56Z"/><path class="cls-15" d="M344,82.72c-7.4,11.55-16.56,22.33-51.53,27.36-23.3,3.34-27-1.44-27-1.44s40.66-2.71,57.08-11S344,82.72,344,82.72Z"/><path class="cls-19" d="M277,62.81c4.53-13.24,27.22-28.19,53.52-28.56a54.66,54.66,0,0,0-29.22,2.56c-15.71,5.85-27,15.38-33.24,26.14S277,62.81,277,62.81Z"/><path class="cls-5" d="M300,40.39c-14.38,5.76-22.37,18-22.37,18-.73.09-7.29,1.31-7.39,1.33-.75,1.08-1.46,2.17-2.1,3.28-.22.38-.41.74-.58,1.07,2.06-.14,5.07-.28,5.87.07a3.66,3.66,0,0,0,2-.15c1-.65,1.65-1.13,1.65-1.13,4.53-13.24,27.22-28.19,53.52-28.56C321.7,34.14,314.33,34.64,300,40.39Z"/><path class="cls-19" d="M273.52,109.49c-1.24-24.6,2.23-41.38,5.34-45.95s-9.64-2.58-12.19,1c-1.66,2.32-7.27,21.89-5.21,45.11S273.52,109.49,273.52,109.49Z"/><path class="cls-5" d="M276.57,60.89c1.1.42,1.42,1,.64,2.15s-4,11.6-4.79,20.78-.41,18.81-.6,19.91-8.21,3.12-10.63,2c.06,1.3.15,2.6.27,3.92.15,1.72.35,3.17.58,4.41,2.44.27,5.83.39,8.92.44a49.18,49.18,0,0,0,2.56-5c-1.24-24.6,2.23-41.38,5.34-45.95C280.12,61.7,278.78,60.92,276.57,60.89Z"/><path class="cls-5" d="M271.4,108.3c-3.22-1-12.78.55-14.33,5.25-3.53,10.68-2.17,36.43,4.5,43.45,2.43,2.55,9.91,2.86,12.63,2.32,6.9-1.36,8-12,7.05-26.5S275.86,109.61,271.4,108.3Z"/><path class="cls-20" d="M261.57,157c2.43,2.55,9.91,2.86,12.63,2.32,4-.78,6-4.66,6.87-10.54-3.32,2.85-11.81,1.93-16.1,0,0,0,.71-12.82-1.57-20.05A158.26,158.26,0,0,0,256.87,146C257.93,150.81,259.49,154.81,261.57,157Z"/><path class="cls-19" d="M270.23,133.57c.87,12.9-2.17,23.61-6.8,23.92s-9.09-9.89-10-22.79,2.18-23.61,6.81-23.92S269.36,120.67,270.23,133.57Z"/><path class="cls-5" d="M264.33,139s-5.92.74-8.2,9.69c1.91,5.51,4.57,9,7.3,8.8,2.35-.16,4.29-3,5.52-7.47a19.88,19.88,0,0,1-4-1.25S265.49,146.69,264.33,139Z"/><path class="cls-5" d="M264.2,135.08c.65,9.66-1.1,17.37-5.4,17.66s-8.32-7.3-9-17,2.3-17.73,6.61-18S263.55,125.41,264.2,135.08Z"/><path class="cls-20" d="M257.72,149.4c-2,.13-3.87-1-5.57-3.12,1.71,4.08,4.13,6.63,6.65,6.46,3.7-.25,5.51-6,5.53-13.74C263.41,145.1,261.23,149.16,257.72,149.4Z"/><path class="cls-17" d="M466.45,185.67c-.89,3.29,1.94,6.21,2.85,6.76s7.13,3.1,11,3.19,9.5-8,7.49-9-16.07-1.92-17.63-1.92A11.62,11.62,0,0,0,466.45,185.67Z"/><path class="cls-3" d="M476.65,183.93c1,9.87,4.39,17.54,5.62,17.67s13.47-4,16.87-5.48.79-24.65-1.29-24.24-6.89,4.85-10.76,7S476.65,183.93,476.65,183.93Z"/><path class="cls-16" d="M496,188c-1.29,2-11.15,7-16.5,8.8,1.08,2.92,2.16,4.71,2.75,4.77,1.06.12,10.18-2.88,14.92-4.68A67.59,67.59,0,0,0,496,188Z"/><path class="cls-17" d="M466.47,185.21c-.38,3.91,3.11,4.48,7.4,3.47s11.87-10.5,15.25-14.79S498.78,162,500,161.26s4-1,6.58-4.91.13-11.94-.9-12.9-10.66,2.25-11.87,3.86,0,10.32-.39,11.42-9.06,10-12.71,12.23S466.75,182.38,466.47,185.21Z"/><path class="cls-18" d="M500.41,149.91c1.15-.55,1.59-3,.87-2.6s-1.95.43-3.59.41a12.68,12.68,0,0,1-2.31-.17,13.93,13.93,0,0,0-.3,2S499.26,150.46,500.41,149.91Z"/><path class="cls-18" d="M507.69,150.48c-.58-1.25-1-2.2-1-2.2l-6.92,6.23a37.37,37.37,0,0,0-3.72-2.93l-.64,1a19.31,19.31,0,0,1,1.51,6.43s.91,1.1,1.46,1.19c0,0-7.72,11-12.56,16.34s-8.17,10-10.37,11.48c4.39-2.42,10.7-10.33,13.7-14.14,3.38-4.3,9.66-11.94,10.89-12.63s4-1,6.58-4.91A9.48,9.48,0,0,0,507.69,150.48Z"/><path class="cls-15" d="M494.18,151.1c0,.64,6.06,6.21,6.68,6.85a1,1,0,0,0,.69,0c1.82-1.5,10.27-15,10.44-15.54s-4.46-5.12-5.88-6.37a1.35,1.35,0,0,0-1.2.14C503.21,138.44,494.14,150.28,494.18,151.1Z"/><path class="cls-14" d="M494.87,151.1c0,.64,6.06,6.21,6.68,6.85s10.95-15,11.13-15.54-5-5-6.45-6.29a.42.42,0,0,0-.63.06C503.91,138.44,494.83,150.28,494.87,151.1Z"/><path class="cls-9" d="M496,150.19c0,.59,5.66,5.8,6.25,6.4s10.24-14,10.41-14.54-4.7-4.72-6-5.88a.4.4,0,0,0-.6.06C504.47,138.34,496,149.41,496,150.19Z"/><path class="cls-17" d="M500.43,142.55a8,8,0,0,0,2.57-3.32c.16-.69.14-1.3-.39-1.44s-2.33,2-3.19,2.65-2,2-1.62,2.85,2.19.55,2.39.41S500.43,142.55,500.43,142.55Z"/><path class="cls-18" d="M502.91,138c.26.78-2,3.9-3.9,4.8l.62.77.71-.16a6.56,6.56,0,0,0,.09-.83,8,8,0,0,0,2.57-3.32A1.49,1.49,0,0,0,502.91,138Z"/><path class="cls-17" d="M497.89,145.7c1.78-.91,3.11-.81,4.07-1.19s1.23-1.81.62-2-4.52.38-5.55.82-1.65,2.5-1.65,2.5Z"/><path class="cls-18" d="M498.72,144.64a2.22,2.22,0,0,1-1.31,0c0,.37-.37.56-.81,1.1l1.29,0c1.78-.91,3.11-.81,4.07-1.19a1.51,1.51,0,0,0,.86-1C502.35,144.34,499.69,144.45,498.72,144.64Z"/><path class="cls-17" d="M493.82,147.31c.82,1.27,5.35.72,6.26.58s1.52-.7,1.47-1.28c-.1-1.16-6-1-6.54-.77S493.82,147.31,493.82,147.31Z"/><path class="cls-18" d="M501.5,146.89a7.07,7.07,0,0,1-3.77,1.09,16.2,16.2,0,0,1-2.38,0,18.33,18.33,0,0,0,4.73-.13A1.63,1.63,0,0,0,501.5,146.89Z"/><path class="cls-24" d="M515.9,407.7c.27,2.4,1.23,3.29,4.73,3.76s8.63.42,11.3-2.19,4.31-5.61,4.52-6.91.14-2.74.55-3.43,2.58-1.11,2.31-4.93S515.9,407.7,515.9,407.7Z"/><path class="cls-5" d="M538.52,384.93c-.39-5.31-13-3.26-13-1.14s-3,11-5.91,13.74h0c-3.79,1.72-5.22,6-3.69,10.17,1.3,3.5,11,2.66,13.36,1.37s4.88-4.92,5.61-6.84h0c.53-1.14.76-2.82,1.92-4.26s1.78-1.16,2.33-2.87S538.91,390.23,538.52,384.93Z"/><path class="cls-24" d="M527.78,384.7c-1.21,5.47-3.82,9-3,9.67s5.47,1.4,6.36,0,2.41-7.31,2.41-9.67S527.78,384.7,527.78,384.7Z"/><path class="cls-5" d="M500,389.19a16.5,16.5,0,0,0-1.67-9.85c-2-4-1.92-4.31-4.25-4.72S483.23,373,483.23,373a14.09,14.09,0,0,1-6.44,6.71c-5,2.74-6,3.7-9.25,3.7s-10.33.38-7.53,8.91c0,0,2.26,1,7.92.93s11.42-.5,13.47-1.28,4.2-1.18,5.44-.68,5.25.32,7.53,0A21.54,21.54,0,0,0,500,389.19Z"/><path class="cls-24" d="M473.11,381.38a.57.57,0,0,0-.28.85c.67,1,2.07,2.19,2.82,1.93.91-.32,5.15-3.52,7.4-5.48,1.05-.91,2.05-2.65,1.46-3.47s-2.15-1.78-2.79-1.28-1.87,2.91-4.47,5.06A13.15,13.15,0,0,1,473.11,381.38Z"/><path class="cls-24" d="M460,392.36c5.62.54,18.55-.55,21.19-1.24s4.08-1.85,6.62-.89,10.34-.55,11.57-1,.89,1.45,0,1.65-6.5,1.39-9.38,1.65-3-1.86-6.44-.28-9,1.57-11.5,1.57-9.53.55-10.83,0S460,392.36,460,392.36Z"/><path class="cls-7" d="M524.46,385c3.84,1,14.8.68,15.34-.83s-1.5-25.2-1.5-32.73-2.61-26.17-2.19-28.22.41-3.57-.28-7.13-1-44.84-4.24-72.64l-42.74,4s-6.85,26.3-7.4,44.93.09,27.58,0,30.32,1.16,5.48,1.45,7.68-.08,18.44-.45,24.29-.63,16.62-1.23,17.9,12.92,3.83,14.75,2.92,1.83-1.1,1.83-10.59,1.27-32.33,1.27-36.35,1.28-4.75.73-6.76,1.47-11.14,3.47-17.9,4.39-14.06,4.39-14.06,5.66,36.53,7.49,38.72,1.46,7.85,2.55,11.14,4.39,25.57,4.39,32.33S520.44,383.93,524.46,385Z"/><path class="cls-25" d="M533.56,385.56a26.29,26.29,0,0,0,4.7-.57c.46-1.95,1-4.4,1.45-7.25-.42-8-1.41-21-1.41-26.27,0-7.54-2.61-26.17-2.19-28.22s.41-3.57-.28-7.13-1-44.84-4.24-72.64l-8.61.8-25.16,9.47a191.82,191.82,0,0,0,26.24-1.56s2,22.26,2,25.55,2.44,34,2.44,36.81,1.1,3.64,1.28,6.7a4.23,4.23,0,0,1-2.19,4.16s3.29,1.1,3.29,1.65.68,9.36.68,12.78,1.49,8.08,1.91,18.36,1.79,22.46,1.79,23.83S535.29,384.76,533.56,385.56Z"/><path class="cls-25" d="M505.84,269.16l-9.18-2.33,7.12,3.42-5.75.14,4.41,1.57s1.37,11.45-1.49,19.11c-3.13,8.41-4.56,29.87-5.52,31.51s-3.43,1.23-3.43,1.23,2.61.28,2.74,2.2-.54,7.26-.54,12.92a172.32,172.32,0,0,1-1.1,18.46c-.55,3.82-.8,13.17-1.1,15.65s-4,1.9-4,1.9h0a46.9,46.9,0,0,0,5.37.74c5.64.53,4.47-1.56,4.46-12.66.14-10.35,1.26-30.66,1.26-34.43,0-4,1.28-4.75.73-6.76s1.47-11.14,3.47-17.9,4.39-14.06,4.39-14.06-1-9.34-1.14-11.54S505.84,269.16,505.84,269.16Z"/><path class="cls-3" d="M513.5,165c-9.86,4.84-11.41,4.65-15.65,6.85s-4.71,25.29-4.71,28.86-.05,17.71-.87,21.55-4,18.08-5.07,20.27-3.15,5.89-.55,8.08,8.34,3.7,21.09,2.88,27-8.63,27.68-9.73-4.52-21.23-4.52-25.06a50.54,50.54,0,0,0-.82-8.5c-.28-1.78,4.37-10.13,5.4-15.48s7.91-20.08,7-22.78-10.8-5.7-17.43-9.14S513.5,165,513.5,165Z"/><path class="cls-16" d="M511.25,168.88a7.18,7.18,0,0,0,.14,1.74,4.06,4.06,0,0,0,.6,1.56,3.14,3.14,0,0,0,2.75,1.46,9,9,0,0,0,3.32-.66,33.48,33.48,0,0,0,3.19-1.43c-.47.35-1,.67-1.46,1s-1,.58-1.57.82a8.21,8.21,0,0,1-3.5.82l-.46,0-.46-.11a3.12,3.12,0,0,1-.88-.33,3.2,3.2,0,0,1-1.29-1.34A5,5,0,0,1,511.25,168.88Z"/><path class="cls-16" d="M535.42,243.79c.69-1.09-4.52-21.23-4.52-25.06a50.54,50.54,0,0,0-.82-8.5c-.28-1.78,4.37-10.13,5.4-15.48a30.75,30.75,0,0,1,1-3.52l-4.05-3.2c-3,7-5.5,19.35-8.1,22.36s-8.63,4.25-8.63,4.25,5.77,1.37,8.36.82c0,0,2,10.82,1.59,16.16s-1.44,13.43-1.59,14.52c0,.41-.06,1.84-.06,3.46C530.32,247.17,535,244.41,535.42,243.79Z"/><path class="cls-17" d="M524.69,153.1c-.32,5.72-.23,9.65,1,10.74,0,0-2.87,9.49-11.51,8.68-2.92-.28-2.28-5.21-.64-7.49l-.36-7Z"/><path class="cls-18" d="M525.06,162.83h0c-.62-1.75-.63-5.17-.37-9.73L513.14,158l.23,4.49h0C515.29,163.4,525.06,162.83,525.06,162.83Z"/><path class="cls-17" d="M552.15,199.33c1.73,2.65,3.83,9.23,2.65,12.24S542.65,228,537.72,233s-6,5.85-6.94,7.49-5.3,8.43-6.39,9.45a5.54,5.54,0,0,1-2.95,1.17,5.21,5.21,0,0,1-4.1,1.23,16.44,16.44,0,0,1-4.26,2s-.68,1.16-1.3,1.26-1.3-1.13,0-3.59,3.22-3.5,3.63-5.07a34.35,34.35,0,0,1,2.07-4.79s-3.44,3.28-5.42,3.49-2.17-1-1-1.92a28.16,28.16,0,0,0,4.1-4.25,8.24,8.24,0,0,1,5.68-3.42c2.54-.34,4.32-.62,5-1.1s4.31-5.13,6.92-10.16,5.08-11.44,11.19-17.07l-2.19-4.39Z"/><path class="cls-18" d="M513.19,254a11.77,11.77,0,0,1,2.63-3.63l.41-.38c.13-.12.34-.27.39-.34a10.45,10.45,0,0,0,.62-.88c.41-.61.8-1.24,1.25-1.85a15.06,15.06,0,0,1-.89,2.06,6,6,0,0,1-.58,1,5.06,5.06,0,0,1-.43.41l-.39.38c-.53.5-1,1-1.55,1.56S513.67,253.46,513.19,254Z"/><path class="cls-18" d="M517.48,251.9c.43-.74.93-1.38,1.38-2.05s.88-1.33,1.32-2.06a4.54,4.54,0,0,1-.87,2.37A6.08,6.08,0,0,1,517.48,251.9Z"/><path class="cls-18" d="M519.47,252.19a5,5,0,0,0,2-1.05,5.54,5.54,0,0,0,2.95-1.17,30.94,30.94,0,0,0,2.53-3.4s-1.27,1.27-2.17,2.3a2.92,2.92,0,0,1-2.9,1l.32-1.33S520.84,251.54,519.47,252.19Z"/><path class="cls-18" d="M555.08,208.22c-.14,1.25-.23,2.25-2.32,5.53-2.36,3.69-16,19.24-19,22.12s-2.87,3.06-4.82,7.6c.82-1.28,1.51-2.4,1.82-2.95.91-1.64,2-2.47,6.94-7.49s15.89-18.45,17.08-21.46A7.66,7.66,0,0,0,555.08,208.22Z"/><path class="cls-18" d="M545.51,204.63l.9,1.7a6.28,6.28,0,0,0-2.48,1.41l-1.74-3.38Z"/><path class="cls-3" d="M534.17,195.34c-2.24-5.15-2.68-13.51,0-17.91s7.26-6,8.32-5.46,3.52,7.4,6.07,10.57,9.51,12.05,9.68,12.8-6,6.79-17.07,11.22C539.85,207.09,534.17,195.34,534.17,195.34Z"/><path class="cls-16" d="M541.87,199.33l1.46,3.53s-7.84-8.49-10.9-14.81a24.29,24.29,0,0,0,1.74,7.29s5.68,11.75,7,11.22c1.9-.76,3.64-1.56,5.24-2.38Z"/><path class="cls-14" d="M530.57,145.66c2-4.92,4.49-10.13,1.38-12.87,0,0,3.47-1.09,5.3-.73a14.14,14.14,0,0,0-5.48-1.46s.72-8.31-1.2-11.87c0,0,0,3.65-1,5.11a12.5,12.5,0,0,0-8-5.93c-5.94-1.65-11.69-1.83-15.8,2.37s-8.92,9.59-2,17.72a32.45,32.45,0,0,0,20,10.77C527.75,149.32,530.57,145.66,530.57,145.66Z"/><path class="cls-15" d="M509.4,130.05a22.2,22.2,0,0,0,4.22,1.33c1.44.32,2.88.61,4.34.84s2.91.42,4.37.56a19.8,19.8,0,0,0,4.42,0,10.89,10.89,0,0,1-4.45.85,26.38,26.38,0,0,1-4.52-.33,26.72,26.72,0,0,1-4.4-1.1A12,12,0,0,1,509.4,130.05Z"/><path class="cls-15" d="M525.42,137.15c1.58-.39,4.21-2.92,4.21-2.92s-2.72,1.92-8.31,1.46a47.71,47.71,0,0,1-9.32-1.62s5.76,3.38,7.88,3.93S525.42,137.15,525.42,137.15Z"/><path class="cls-15" d="M506,133.45c-2.6-1.28-3.35,0-3.35,1.12a11.63,11.63,0,0,0,1.22,3.43Z"/><path class="cls-15" d="M533.34,137.48c-2.07,4.1-6.69,7.27-6.69,7.27s-1.8,2.44.22,3.42l.28.11a9.5,9.5,0,0,0,3.42-2.62C531.72,142.85,533,140,533.34,137.48Z"/><path class="cls-17" d="M526.65,144.75s2.13-1.57,3.57,0-1.31,8.91-4.53,7.13c0,0-5.34,6.78-9,8.7s-6.16,1-7.39-.41-5.37-7-5.76-12.95c-.13-2.12.48-6.3.48-7.19s-.55-4.39.21-5.41a2.89,2.89,0,0,1,1.78-1.17,29.16,29.16,0,0,0,8.56,2.61,15.52,15.52,0,0,1-2.53-2s7.87,2.74,13.42,3.08a30,30,0,0,0,.21,4.52A18.1,18.1,0,0,0,526.65,144.75Z"/><path class="cls-18" d="M529.52,146.76c-.19-1.35-1.32-1.61-2.24-.67s-1.31,4-1.12,4.44,1.7.42,2.05-.51-.48-1.51-1.34-1.24a3.29,3.29,0,0,1,.61-2.22c.75-.87,1.45-.54,1.61-.31S529.52,146.76,529.52,146.76Z"/><path class="cls-15" d="M520.68,140.82a10,10,0,0,0-1-.85,6.27,6.27,0,0,0-1.11-.69,3.44,3.44,0,0,0-1.25-.43A2.7,2.7,0,0,0,516,139v.06a3.72,3.72,0,0,0,.62.2l.59.17c.38.12.79.15,1.17.28a9.61,9.61,0,0,1,1.14.5c.37.19.73.41,1.09.64Z"/><path class="cls-15" d="M505.64,139.28a4.83,4.83,0,0,1,1.19-.42,6.56,6.56,0,0,1,1.24-.15c.41,0,.82.08,1.23.08a11.22,11.22,0,0,0,1.28,0l0-.05a2.77,2.77,0,0,0-1.24-.52,4,4,0,0,0-1.33,0,5.73,5.73,0,0,0-1.29.35,4.24,4.24,0,0,0-1.13.66Z"/><path class="cls-15" d="M516.44,143.23c.06-.58.38-1,.72-1s.58.53.52,1.11-.38,1-.72,1S516.38,143.81,516.44,143.23Z"/><path class="cls-15" d="M507.34,142.49c.06-.58.33-1,.61-1s.46.52.41,1.09-.33,1-.61,1S507.29,143.07,507.34,142.49Z"/><path class="cls-18" d="M513.16,148.86a2.58,2.58,0,0,1-2.82,0,1.19,1.19,0,0,0,.66,1,1.78,1.78,0,0,0,1.32-.07C512.73,149.61,512.89,149.21,513.16,148.86Z"/><path class="cls-21" d="M516.09,152.26a76.12,76.12,0,0,1-8-.54c.45,1.94,1.86,3.85,4,3.85C514.1,155.57,515.5,154,516.09,152.26Z"/><path class="cls-22" d="M514.14,154.94a3.33,3.33,0,0,0-1.84,0,2.85,2.85,0,0,0-2.46-.24,3.45,3.45,0,0,0,4.3.26Z"/><path class="cls-3" d="M509.31,153.34a9.4,9.4,0,0,0,5.88-.23c0-.28.08-.57.12-.86-1.89,0-4.93-.27-6.55-.45A5,5,0,0,0,509.31,153.34Z"/><g class="cls-26"><path class="cls-27" d="M563.56,129a19.09,19.09,0,0,1,1.43-3,7,7,0,0,1,2.3-2.37,9.15,9.15,0,0,1,4-1.3c.51-.07,1.23-.15,2.17-.24a20,20,0,0,0,2.91-.48,9.68,9.68,0,0,0,2.73-1,3.51,3.51,0,0,0,1.66-1.89,2.65,2.65,0,0,0,.07-1.69,3.32,3.32,0,0,0-.91-1.48,4.54,4.54,0,0,0-1.58-1,4,4,0,0,0-2.54-.18,6.47,6.47,0,0,0-2,1c-.57.42-1.09.77-1.54,1l-5.16-7.59a11.83,11.83,0,0,1,4.28-3,13.53,13.53,0,0,1,5.14-1,15.8,15.8,0,0,1,5.53,1,17.54,17.54,0,0,1,4.2,2.28,13.36,13.36,0,0,1,3.34,3.53,10.69,10.69,0,0,1,1.64,4.73,12.9,12.9,0,0,1-.89,5.88,15,15,0,0,1-1.22,2.55,9.49,9.49,0,0,1-1.66,2.1,10.26,10.26,0,0,1-2.24,1.59,12.47,12.47,0,0,1-2.87,1.06,24.76,24.76,0,0,1-4.17.67,21.91,21.91,0,0,0-3.6.53,2.64,2.64,0,0,0-2,1.65Zm-3.73,10.58.19-.52a4.79,4.79,0,0,1,6.16-2.82h0a4.8,4.8,0,0,1,2.83,6.16l-.19.52a4.78,4.78,0,0,1-6.16,2.82h0A4.78,4.78,0,0,1,559.83,139.59Z"/><path class="cls-27" d="M547.75,129.93a13.87,13.87,0,0,1-.16-2.45,5.12,5.12,0,0,1,.63-2.32,6.69,6.69,0,0,1,2.08-2.23c.3-.23.73-.53,1.29-.92a15.48,15.48,0,0,0,1.69-1.34,6.92,6.92,0,0,0,1.38-1.62,2.66,2.66,0,0,0,.39-1.8,1.85,1.85,0,0,0-.56-1.1,2.47,2.47,0,0,0-1.1-.63,3.38,3.38,0,0,0-1.35-.06,2.94,2.94,0,0,0-1.69.78,4.46,4.46,0,0,0-.93,1.33c-.22.47-.43.87-.62,1.21l-6-3a8.75,8.75,0,0,1,1.67-3.42,9.63,9.63,0,0,1,2.94-2.45,11.47,11.47,0,0,1,3.88-1.3,12.73,12.73,0,0,1,3.49,0,9.82,9.82,0,0,1,3.38,1.07,7.78,7.78,0,0,1,2.72,2.44,9.36,9.36,0,0,1,1.5,4.06,10.42,10.42,0,0,1,.13,2.06,6.9,6.9,0,0,1-.32,1.93,7.1,7.1,0,0,1-.87,1.8,9,9,0,0,1-1.45,1.69,18,18,0,0,1-2.43,1.91,15.88,15.88,0,0,0-2.1,1.61,1.91,1.91,0,0,0-.69,1.75Zm1.37,8.07-.07-.39a3.51,3.51,0,0,1,2.94-4h0a3.5,3.5,0,0,1,4,2.94l.06.4a3.5,3.5,0,0,1-2.93,4h0A3.49,3.49,0,0,1,549.12,138Z"/></g><path class="cls-5" d="M558.56,124A19.09,19.09,0,0,1,560,121a7,7,0,0,1,2.3-2.37,9.15,9.15,0,0,1,4-1.3c.51-.07,1.23-.15,2.17-.24a20,20,0,0,0,2.91-.48,9.68,9.68,0,0,0,2.73-1,3.51,3.51,0,0,0,1.66-1.89,2.65,2.65,0,0,0,.07-1.69,3.32,3.32,0,0,0-.91-1.48,4.54,4.54,0,0,0-1.58-1,4,4,0,0,0-2.54-.18,6.47,6.47,0,0,0-2,1c-.57.42-1.09.77-1.54,1l-5.16-7.59a11.83,11.83,0,0,1,4.28-3,13.53,13.53,0,0,1,5.14-1,15.8,15.8,0,0,1,5.53,1,17.54,17.54,0,0,1,4.2,2.28,13.36,13.36,0,0,1,3.34,3.53,10.69,10.69,0,0,1,1.64,4.73,12.9,12.9,0,0,1-.89,5.88,15,15,0,0,1-1.22,2.55,9.49,9.49,0,0,1-1.66,2.1,10.26,10.26,0,0,1-2.24,1.59,12.47,12.47,0,0,1-2.87,1.06,24.76,24.76,0,0,1-4.17.67,21.91,21.91,0,0,0-3.6.53,2.64,2.64,0,0,0-2,1.65Zm-3.73,10.58.19-.52a4.79,4.79,0,0,1,6.16-2.82h0a4.8,4.8,0,0,1,2.83,6.16l-.19.52a4.78,4.78,0,0,1-6.16,2.82h0A4.78,4.78,0,0,1,554.83,134.59Z"/><path class="cls-5" d="M542.75,124.93a13.87,13.87,0,0,1-.16-2.45,5.12,5.12,0,0,1,.63-2.32,6.69,6.69,0,0,1,2.08-2.23c.3-.23.73-.53,1.29-.92a15.48,15.48,0,0,0,1.69-1.34,6.92,6.92,0,0,0,1.38-1.62,2.66,2.66,0,0,0,.39-1.8,1.85,1.85,0,0,0-.56-1.1,2.47,2.47,0,0,0-1.1-.63,3.38,3.38,0,0,0-1.35-.06,2.94,2.94,0,0,0-1.69.78,4.46,4.46,0,0,0-.93,1.33c-.22.47-.43.87-.62,1.21l-6-3a8.75,8.75,0,0,1,1.67-3.42,9.63,9.63,0,0,1,2.94-2.45,11.47,11.47,0,0,1,3.88-1.3,12.73,12.73,0,0,1,3.49,0,9.82,9.82,0,0,1,3.38,1.07,7.78,7.78,0,0,1,2.72,2.44,9.36,9.36,0,0,1,1.5,4.06,10.42,10.42,0,0,1,.13,2.06,6.9,6.9,0,0,1-.32,1.93,7.1,7.1,0,0,1-.87,1.8,9,9,0,0,1-1.45,1.69,18,18,0,0,1-2.43,1.91,15.88,15.88,0,0,0-2.1,1.61,1.91,1.91,0,0,0-.69,1.75Zm1.37,8.07-.07-.39a3.51,3.51,0,0,1,2.94-4h0a3.5,3.5,0,0,1,4,2.94l.06.4a3.5,3.5,0,0,1-2.93,4h0A3.49,3.49,0,0,1,544.12,133Z"/><path class="cls-5" d="M575,352.94c4.86,0,9-5,8.85-10.93a42.75,42.75,0,0,0-1.7-11.28c-2.43-8.23-7.44-16.18-5.63-24.88.74-3.57,2.62-6.88,2.68-10.54s-1.85-7-3.74-9.89a167.44,167.44,0,0,0-10-13.7c-.87,8.17-4.79,15.45-7.52,23.08s-4.15,17-.27,23.48c2.78,4.62,8,7.41,8.63,13.18.25,2.35-.37,4.74-.51,7.13-.37,6.79,3.81,13.28,9.25,14.35Z"/><path class="cls-19" d="M578.93,363.91l-2.1-9.77c-.52-3.28-1.07-6.55-1.68-9.81-1.21-6.53-2.62-13-4.37-19.41-.44-1.6-.9-3.19-1.42-4.76-.24-.79-.52-1.56-.79-2.34s-.57-1.53-.82-2.4a24.09,24.09,0,0,1-.71-5.08c-.09-1.69-.07-3.36,0-5,.09-3.34.31-6.66.43-10a43.33,43.33,0,0,0,.2-9.92c1,3.22,1,6.64,1.12,10-.13,3.33-.35,6.65-.43,10,0,1.65-.05,3.3,0,4.93a22.21,22.21,0,0,0,.66,4.79c.2.73.49,1.52.79,2.31s.56,1.59.81,2.39c.52,1.59,1,3.2,1.43,4.81,1.77,6.44,3.17,13,4.39,19.51.62,3.28,1.16,6.57,1.7,9.86C578.44,357.26,578.75,360.58,578.93,363.91Z"/><path class="cls-19" d="M562.52,295.8c1,.66,1.82,1.35,2.71,2,.44.34.85.74,1.29,1.1a5.88,5.88,0,0,0,1.42.9h-.15c.54-.5,1-1.07,1.55-1.58s1.08-1,1.64-1.49a21.56,21.56,0,0,1,3.66-2.51l.06.06a21.69,21.69,0,0,1-3.12,3.16c-.58.46-1.17.91-1.76,1.35s-1.25.8-1.85,1.24l-.08.06-.08,0a16.9,16.9,0,0,0-1.52-.8,9.88,9.88,0,0,1-1.53-.84,7.74,7.74,0,0,1-2.3-2.59Z"/><path class="cls-19" d="M559.12,309.45a22.84,22.84,0,0,1,2.34.94,16.08,16.08,0,0,1,2.2,1.18,13.54,13.54,0,0,0,2.19,1.24c.76.34,1.58.56,2.36.83l-.39.09a38.38,38.38,0,0,1,2.52-3,26.49,26.49,0,0,1,2.91-2.68l.06.06a28.37,28.37,0,0,1-2.29,3.22c-.83,1-1.75,1.95-2.68,2.88l-.2.19-.2-.1c-.75-.39-1.46-.86-2.21-1.22a19,19,0,0,0-2.34-.94,11.32,11.32,0,0,1-2.27-1.1,13.39,13.39,0,0,1-2-1.49Z"/><path class="cls-19" d="M568.6,327.76a6.32,6.32,0,0,1,1.91.52c.29.13.56.34.85.5a1.67,1.67,0,0,0,.92.2l-.13.06c.2-.35.36-.74.57-1.08s.43-.68.68-1a6.72,6.72,0,0,1,1.81-1.62l.07,0a6.94,6.94,0,0,1-1.15,2.15c-.25.31-.54.59-.81.89s-.62.53-.91.8l-.08.08h-.05a7.75,7.75,0,0,0-1-.17,4.34,4.34,0,0,1-1-.14,3.78,3.78,0,0,1-1.67-1.16Z"/><path class="cls-19" d="M570.14,343.24a9.65,9.65,0,0,1,1.42,0,7.12,7.12,0,0,1,1.38.16,7.21,7.21,0,0,0,1.38.29,5,5,0,0,0,1.39-.16l-.16.06a9.82,9.82,0,0,1,.94-.89,11.08,11.08,0,0,1,1-.8,10.25,10.25,0,0,1,2.3-1.2l.05.07a10.31,10.31,0,0,1-1.8,1.87,9.35,9.35,0,0,1-1,.74,9.54,9.54,0,0,1-1.11.66l-.13.06h0a11.76,11.76,0,0,0-1.43-.15c-.47,0-.95.1-1.43.14a4,4,0,0,1-1.42-.17,4.22,4.22,0,0,1-1.34-.59Z"/><path class="cls-19" d="M579.5,356.11c3.35,3.46,8.64-.76,12.13-4.76,4.38-5,9.1-10.84,9.61-18,.19-2.67-.25-5.33.15-8,.92-6.1,5.8-10.34,8.12-16,3.36-8.18.75-17.51-2.48-25.07-2.12-5-4.58-10.12-4.18-15.95.37-5.32,3-10.15,5.64-14.66-6,.36-12.86,1.16-17.11,6.93-4,5.47-4.24,13.43-3.85,20.46s1,14.58-1.95,21c-4,8.68-14,13.8-14.29,23.45-.14,4.87,2.45,8.81,4.21,13a17.66,17.66,0,0,1,1.4,9.17c-.5,3.18.28,6.32,2.28,8.14Z"/><path class="cls-5" d="M578.93,370.27c.37-2.33.8-4.64,1.19-6.95s.75-4.63,1-6.95A95.3,95.3,0,0,0,583,342.55c.12-2.31.07-4.62.09-7a29.18,29.18,0,0,1,.88-7.19,50.43,50.43,0,0,1,2.35-6.79,53.17,53.17,0,0,1,3.32-6.35c2.44-4.07,5.55-7.72,6.52-12.06a18.54,18.54,0,0,0,.19-6.65c-.36-2.22-.94-4.52-1.43-6.83a76.78,76.78,0,0,1-2-14.1,27.22,27.22,0,0,1,1.2-7.12,18.66,18.66,0,0,1,3.4-6.24A20.22,20.22,0,0,0,595,268.7a26.21,26.21,0,0,0-.28,6.85,75.33,75.33,0,0,0,2,13.74c.48,2.28,1.06,4.54,1.46,7a20.56,20.56,0,0,1-.22,7.33,22.12,22.12,0,0,1-3,6.69c-1.26,2-2.59,3.94-3.8,5.92a50.85,50.85,0,0,0-3.2,6.12,47.72,47.72,0,0,0-2.25,6.51,27.25,27.25,0,0,0-.83,6.75c0,2.31,0,4.7-.09,7.07A100.58,100.58,0,0,1,583,356.73C581.82,361.31,580.45,365.82,578.93,370.27Z"/><path class="cls-5" d="M599.19,274.05a7.79,7.79,0,0,1-.79,2.07,5.72,5.72,0,0,1-1.28,1.74,6.35,6.35,0,0,0-1.43,1.64c-.37.62-.6,1.33-.91,2l-.29.6-.63-.53c-.42-.36-.82-.73-1.22-1.1a9.69,9.69,0,0,1-1.1-1.21,12,12,0,0,1-1.74-2.85l.11-.09a12.42,12.42,0,0,1,2.7,1.95,10.52,10.52,0,0,1,1.11,1.2c.34.43.68.86,1,1.3l-.92.07c.5-.53,1.07-1,1.51-1.58a6.47,6.47,0,0,0,1-1.94,5.89,5.89,0,0,1,1.13-1.84,7.39,7.39,0,0,1,1.64-1.5Z"/><path class="cls-5" d="M604.88,294.3a8.11,8.11,0,0,1-1,3.07,8.78,8.78,0,0,1-2,2.52,30.32,30.32,0,0,0-2.41,2.06c-.77.72-1.42,1.55-2.24,2.27l-.43.38-.39-.57-1.36-2c-.46-.66-.9-1.34-1.32-2l-1.28-2a18.76,18.76,0,0,0-1.38-2l.08-.12a7.31,7.31,0,0,1,2.11,1.44,15.77,15.77,0,0,1,1.68,1.89,14.89,14.89,0,0,1,1.35,2.09c.4.74.78,1.47,1.11,2.24l-.81-.19a15.13,15.13,0,0,0,2.57-1.68,9.39,9.39,0,0,0,1.94-2.4c.54-.88,1.16-1.66,1.76-2.47s1.16-1.64,1.82-2.49Z"/><path class="cls-5" d="M599.36,318.69a10.29,10.29,0,0,1-2.72,2.46,12.2,12.2,0,0,1-3.33,1.51c-1.19.3-2.39.49-3.52.86s-2.26.81-3.44,1.18l-.25.08-.25-.26a18.27,18.27,0,0,1-2-2.38,15.67,15.67,0,0,1-1.57-2.65,13.78,13.78,0,0,1-1-2.94,8.35,8.35,0,0,1-.08-3.11h.15a16.65,16.65,0,0,0,1,2.79c.38.89.85,1.74,1.3,2.59l1.44,2.54c.49.85,1,1.67,1.56,2.49l-.5-.18a19,19,0,0,0,3.51-.56,14.62,14.62,0,0,0,3.26-1.45c1-.58,2.11-1,3.16-1.51s2.09-1,3.18-1.57Z"/><path class="cls-5" d="M591.22,340.45a4.4,4.4,0,0,1-1.54,1.31,5.25,5.25,0,0,1-1.91.63,12.08,12.08,0,0,1-2-.1,14.38,14.38,0,0,0-2,0h-.08l-.15-.13a17.35,17.35,0,0,1-1.49-1.48c-.45-.53-.92-1.05-1.32-1.61a14.47,14.47,0,0,1-1.07-1.78,11.53,11.53,0,0,1-.83-2l.12-.09a12.12,12.12,0,0,1,1.63,1.38,13.62,13.62,0,0,1,1.38,1.56,19.86,19.86,0,0,1,1.14,1.73,15,15,0,0,1,1,1.87l-.22-.13a4.12,4.12,0,0,0,1.85.09,17,17,0,0,0,1.79-.59c.58-.18,1.16-.3,1.76-.44s1.17-.31,1.85-.42Z"/><path class="cls-28" d="M598.19,388.06H568.13a3.57,3.57,0,0,1-3.52-3l-4.81-31.59a3.56,3.56,0,0,1,3.52-4.09H603a3.55,3.55,0,0,1,3.51,4.09L601.71,385A3.56,3.56,0,0,1,598.19,388.06Z"/><path class="cls-29" d="M603,349.36h-6.14a3.56,3.56,0,0,1,3.52,4.09L595.58,385a3.57,3.57,0,0,1-3.52,3h6.13a3.56,3.56,0,0,0,3.52-3l4.81-31.59A3.55,3.55,0,0,0,603,349.36Z"/><path class="cls-5" d="M150.86,298.51a6.13,6.13,0,0,1-.74,3.72,26.67,26.67,0,0,0-3.28,13.63c.1,3.12.74,6.3-.11,9.3-1.47,5.18-6.93,8.38-8.69,13.46-1.55,4.51-.1,10.17-3.34,13.67a3,3,0,0,1-3.15,1.09,3.83,3.83,0,0,1-1.35-1.12c-3.72-4.22-7.69-9.34-6.55-14.84,1.08-5.17,6.4-8.66,7.41-13.84.83-4.24-1.34-9.12,1.09-12.69.67-1,1.63-1.73,2.36-2.67,2.88-3.71,1.81-9.61,5.14-12.92a7.55,7.55,0,0,1,3.91-2,6.09,6.09,0,0,1,7.3,5.22Z"/><path class="cls-19" d="M129.74,364.16c-.22-2.75-.32-5.51-.42-8.28.13-2.75.27-5.51.51-8.26s.54-5.51,1-8.25a35.13,35.13,0,0,1,2.3-8.06c2-5.05,3.61-10.34,5.24-15.58l2.37-7.9c1-2.58,1.93-5.16,2.84-7.77-.4,2.74-1,5.43-1.57,8.14l-2.38,7.92c-1.64,5.26-3.24,10.52-5.29,15.7a33.47,33.47,0,0,0-2.21,7.78c-.48,2.68-.79,5.4-1,8.13s-.39,5.47-.5,8.21Z"/><path class="cls-19" d="M144.29,308.29a6.28,6.28,0,0,1-1.67,1.66,9.44,9.44,0,0,1-1.05.54,4,4,0,0,0-1,.66l-.12.12-.12-.17c-.26-.41-.58-.78-.83-1.19s-.5-.81-.71-1.24a9.86,9.86,0,0,1-.9-2.75l.08,0a9.45,9.45,0,0,1,1.65,2.37c.21.43.38.88.56,1.32s.28.93.44,1.38l-.24-.05a4,4,0,0,0,.92-.72,8.27,8.27,0,0,1,.82-.85,6.6,6.6,0,0,1,2.08-1.11Z"/><path class="cls-19" d="M143.62,317.72c-.47.39-1,.81-1.47,1.16a12.41,12.41,0,0,1-1.59,1c-.57.27-1.17.49-1.71.8a10.16,10.16,0,0,0-1.54,1.08l-.17.14-.18-.23a28.42,28.42,0,0,1-2-3.11,19.29,19.29,0,0,1-1.45-3.43l.07,0a18.8,18.8,0,0,1,2.19,3,27,27,0,0,1,1.63,3.33l-.34-.09a10.56,10.56,0,0,0,1.65-.9c.52-.35,1-.79,1.48-1.18a11.44,11.44,0,0,1,1.62-.95,7.18,7.18,0,0,1,1.8-.67Z"/><path class="cls-19" d="M140.28,330.16a8.08,8.08,0,0,1-1.7,1.25,6.5,6.5,0,0,1-1.93.77,5.09,5.09,0,0,0-1.86.89c-.55.42-1.09.88-1.65,1.25l-.42.27-.31-.46a13,13,0,0,1-1.19-2.16,11.15,11.15,0,0,1-.78-2.39l.1-.05a11.16,11.16,0,0,1,1.6,1.93,12.94,12.94,0,0,1,1.18,2.16l-.72-.19a12.12,12.12,0,0,1,2-.78,5.7,5.7,0,0,0,1.82-1,6,6,0,0,1,1.8-1.07,7.17,7.17,0,0,1,2-.51Z"/><path class="cls-19" d="M125.36,364.7c-2.16-.35-10.23-2.94-9.67-5,2.42-9.06,4.84-19.33-3.54-23.75-4-2.13-9.1-3.22-11.4-7.16s-.62-9.22,1.5-13.41,4.68-8.68,3.77-13.29c-1-4.83-5.52-8.39-6.25-13.26-1-6.64,5.46-12,11.66-14.59,2.11-.89,4.42-1.64,6.64-1.1a8.2,8.2,0,0,1,4.06,2.61c4.35,4.87,4.17,12.22,3.18,18.67s-2.52,13.28-.08,19.34c1.72,4.3,5.42,8.36,4.43,12.89-.4,1.81-1.53,3.4-2,5.2-1.16,4.88,2.88,9.27,4.74,13.92a17.09,17.09,0,0,1-3.79,17.9,3.79,3.79,0,0,1-3.29,1.07Z"/><path class="cls-5" d="M126.12,364.8c-.5-3.58-1-7.15-1.64-10.7-.15-.88-.34-1.76-.48-2.65s-.21-1.78-.36-2.67c-.27-1.77-.56-3.54-.9-5.3A69.39,69.39,0,0,0,120,333.15a21.67,21.67,0,0,0-2.25-4.67,6.49,6.49,0,0,0-1.64-1.73,8.55,8.55,0,0,1-2.18-2,9,9,0,0,1-1.57-5.62,26.93,26.93,0,0,1,.81-5.51c.83-3.56,1.87-7,2.45-10.49a24,24,0,0,0-.21-10.38c-.28-.81-.5-1.64-.77-2.47a17.64,17.64,0,0,0-1-2.41,24.26,24.26,0,0,0-3-4.43,20.33,20.33,0,0,1,3.85,3.9,19.3,19.3,0,0,1,1.51,2.36,9.46,9.46,0,0,1,1,2.62,25.75,25.75,0,0,1,.25,11.08c-.61,3.63-1.67,7.12-2.48,10.59a26.71,26.71,0,0,0-.77,5.17,7.43,7.43,0,0,0,1.25,4.62,7.09,7.09,0,0,0,1.77,1.63,7.91,7.91,0,0,1,2.08,2.17,22.55,22.55,0,0,1,2.45,5,70.41,70.41,0,0,1,2.77,10.58c.34,1.79.65,3.57.92,5.37.12.9.29,1.79.4,2.69s.13,1.81.19,2.71C126.05,357.57,126.19,361.18,126.12,364.8Z"/><path class="cls-5" d="M111.81,294.15a5.47,5.47,0,0,1,1.62,1,5.58,5.58,0,0,1,1.27,1.34,9.09,9.09,0,0,0,1.08,1.5,14.77,14.77,0,0,0,1.41,1.19l-.64,0c.22-.46.48-.9.73-1.34a13.18,13.18,0,0,1,.8-1.29c.28-.42.6-.81.9-1.22s.65-.77.93-1.2l.11,0a4.37,4.37,0,0,1-.32,1.58,11.43,11.43,0,0,1-.65,1.42,9.27,9.27,0,0,1-.85,1.29,12.24,12.24,0,0,1-1,1.2l-.4.42-.23-.38a12.31,12.31,0,0,0-1-1.51,8.06,8.06,0,0,0-1.43-1.16,7.05,7.05,0,0,1-1.29-1.27,11.37,11.37,0,0,1-1.08-1.51Z"/><path class="cls-5" d="M119.64,307.85a8.65,8.65,0,0,1-1,1.71,11.71,11.71,0,0,1-1.24,1.48c-.46.44-1,.82-1.5,1.23a9.14,9.14,0,0,0-1.31,1.4l-.12.17-.18-.14a16,16,0,0,1-1.69-1.55c-.48-.56-1-1.08-1.45-1.66s-.89-1.17-1.29-1.79-.78-1.25-1.2-1.84l.06-.1a8,8,0,0,1,1.82,1.36,17.9,17.9,0,0,1,1.52,1.63c.47.57.87,1.19,1.31,1.78s.79,1.3,1.19,1.8l-.3,0a7.89,7.89,0,0,0,1.33-1.38c.37-.53.71-1.08,1.11-1.59a15.5,15.5,0,0,1,1.32-1.37,12.93,12.93,0,0,1,1.5-1.23Z"/><path class="cls-5" d="M105.24,318.43a30.09,30.09,0,0,0,2.11,2.24c.72.7,1.5,1.32,2.25,2a7.48,7.48,0,0,0,2.63,1.53,9.44,9.44,0,0,0,3,.33l-.45.32a20.29,20.29,0,0,1,.72-2.45,13.47,13.47,0,0,1,1-2.33,11,11,0,0,1,1.49-2.11,5.51,5.51,0,0,1,2.1-1.51l0,.09a8,8,0,0,0-1.51,1.9c-.42.69-.78,1.41-1.13,2.14l-1,2.23c-.33.74-.62,1.52-.91,2.27l-.14.37-.31-.05a17.57,17.57,0,0,1-3.08-.88,29.53,29.53,0,0,1-3-1.21,7.72,7.72,0,0,1-2.48-2,8.2,8.2,0,0,1-1.55-2.8Z"/><path class="cls-5" d="M124.72,326.53a6.15,6.15,0,0,1,.42,2.51,8.39,8.39,0,0,1-.47,2.53,9.18,9.18,0,0,1-1.3,2.2l-1.5,2-.11.14-.17-.12a22.68,22.68,0,0,0-2.63-1.48c-.88-.48-1.8-.88-2.72-1.27s-1.82-.79-2.76-1.15-1.89-.68-2.87-1.05l0-.11a14.49,14.49,0,0,1,6.08,1.24,19.29,19.29,0,0,1,2.74,1.52,19,19,0,0,1,2.4,2l-.28,0a7.06,7.06,0,0,0,1.39-2,17.45,17.45,0,0,0,.79-2.27,18.1,18.1,0,0,0,.86-4.69Z"/><path class="cls-28" d="M140,388.06H116.94c-2.14,0-4-1.85-4.28-4.35L109,355.34c-.4-3.1,1.63-5.89,4.28-5.89h30.36c2.65,0,4.68,2.79,4.28,5.89l-3.65,28.37C144,386.21,142.14,388.06,140,388.06Z"/><path class="cls-29" d="M143.65,349.45h-5c2.65,0,4.68,2.79,4.28,5.89l-3.65,28.37c-.32,2.5-2.14,4.35-4.28,4.35h5c2.14,0,4-1.85,4.28-4.35l3.65-28.37C148.33,352.24,146.3,349.45,143.65,349.45Z"/><rect class="cls-29" y="188.84" width="83.35" height="49.92" rx="6.85"/><path class="cls-28" d="M78.85,238.76H4.5a4.5,4.5,0,0,1-4.5-4.5L41.67,206.6l41.68,27.66A4.5,4.5,0,0,1,78.85,238.76Z"/><path class="cls-30" d="M78.85,188.84H4.5A4.49,4.49,0,0,0,0,193.33L41.67,221l41.68-27.67A4.49,4.49,0,0,0,78.85,188.84Z"/><path class="cls-29" d="M574.44,7.79H408.12a9.38,9.38,0,0,0-9.39,9.38v38.9a9.38,9.38,0,0,0,9.39,9.38h16.7l-5.69,14.06,18.93-14.06H574.44a9.38,9.38,0,0,0,9.39-9.38V17.17A9.38,9.38,0,0,0,574.44,7.79Z"/><path class="cls-3" d="M563.47,29H436.7a2.2,2.2,0,0,1,0-4.39H563.47a2.2,2.2,0,0,1,0,4.39Zm2.19,7.65a2.19,2.19,0,0,0-2.19-2.19H419.1a2.19,2.19,0,1,0,0,4.38H563.47A2.19,2.19,0,0,0,565.66,36.62Zm-63.39,9.85a2.2,2.2,0,0,0-2.19-2.2h-81a2.2,2.2,0,1,0,0,4.39h81A2.19,2.19,0,0,0,502.27,46.47Z"/><path class="cls-29" d="M608.65,181.15a19.56,19.56,0,0,0-3,23.82l-32.89,32.9a1.72,1.72,0,0,0,0,2.43l4.39,4.39a1.73,1.73,0,0,0,2.44,0l2.34-2.33,6.07,6.07a1.71,1.71,0,0,0,2.44,0l3.59-3.59a1.71,1.71,0,0,0,0-2.44L588,236.32l3.14-3.14,5.2,5.19a1.73,1.73,0,0,0,2.44,0l3.59-3.6a1.72,1.72,0,0,0,0-2.43l-5.19-5.2L612.5,211.8a19.56,19.56,0,1,0-3.85-30.65ZM630.2,202.7a10.91,10.91,0,1,1,0-15.43A10.91,10.91,0,0,1,630.2,202.7Z"/><path class="cls-3" d="M58.17,299.4A28.08,28.08,0,0,1,57,294.87a10,10,0,0,1,.35-4.57,13,13,0,0,1,3.1-4.9c.48-.53,1.18-1.25,2.1-2.18a29.8,29.8,0,0,0,2.69-3.1,13.86,13.86,0,0,0,2-3.52,5,5,0,0,0,.1-3.5,3.64,3.64,0,0,0-1.44-1.87,4.63,4.63,0,0,0-2.27-.77,6,6,0,0,0-2.56.36,5.51,5.51,0,0,0-2.87,2.05,8.81,8.81,0,0,0-1.29,2.82c-.23,1-.48,1.79-.72,2.48l-12.24-3.52a16.56,16.56,0,0,1,1.91-7A18.54,18.54,0,0,1,50.45,262a21.72,21.72,0,0,1,6.81-3.8,23.67,23.67,0,0,1,6.5-1.3,18.8,18.8,0,0,1,6.71.8,14.93,14.93,0,0,1,5.94,3.6,17.72,17.72,0,0,1,4.26,7.07,21.79,21.79,0,0,1,1,3.81,13.51,13.51,0,0,1-.91,7.39,16.74,16.74,0,0,1-2.12,3.68,33.68,33.68,0,0,1-3.86,4.42,30,30,0,0,0-3.36,3.75,3.65,3.65,0,0,0-.67,3.53ZM63.58,314l-.25-.73a6.65,6.65,0,0,1,4.07-8.48h0a6.65,6.65,0,0,1,8.48,4.07l.26.73a6.66,6.66,0,0,1-4.08,8.48h0A6.65,6.65,0,0,1,63.58,314Z"/></g></g></g></svg>