<svg xmlns="http://www.w3.org/2000/svg" viewBox="0 0 717.91 459.25"><defs><style>.cls-1{fill:#f5f5f5;}.cls-2{fill:#ebebeb;}.cls-3{fill:#e0e0e0;}.cls-12,.cls-4{fill:none;}.cls-5{fill:#fff;}.cls-6{fill:#263238;}.cls-7{fill:#16b264;}.cls-8{opacity:0.1;}.cls-13,.cls-9{fill:#0040f2;}.cls-10{fill:#455a64;}.cls-11{opacity:0.3;}.cls-12{stroke:#fff;stroke-linecap:round;stroke-linejoin:round;stroke-width:0.75px;}.cls-13{font-size:5.63px;font-family:Montserrat-Bold, Montserrat;font-weight:700;}.cls-14{fill:#ae7461;}.cls-15{fill:#6f4439;}.cls-16{fill:#ffbf9d;}.cls-17{fill:#ff9a6c;}.cls-18{opacity:0.6;}</style></defs><g id="Layer_2" data-name="Layer 2"><g id="Background_Complete" data-name="Background Complete"><path class="cls-1" d="M139.18,41.78A38.83,38.83,0,1,1,95.18,9,38.79,38.79,0,0,1,139.18,41.78Z"/><path class="cls-2" d="M130,43.11a29.59,29.59,0,1,1-33.54-25A29.57,29.57,0,0,1,130,43.11Z"/><path class="cls-3" d="M129.89,42.19c-.17,0-.48-1.24-1.28-3.41a31.5,31.5,0,0,0-4.68-8.48,30.48,30.48,0,0,0-4.65-4.76,30,30,0,0,0-6.47-4A27.62,27.62,0,0,0,109,20.12a27,27,0,0,0-4.18-.89,28.27,28.27,0,0,0-4.43-.26,28.92,28.92,0,0,0-9,1.59,28.92,28.92,0,0,0-4.06,1.76,28.91,28.91,0,0,0-6.76,4.95,29.54,29.54,0,0,0-4.69,6,30.18,30.18,0,0,0-2.73,6.06,31.14,31.14,0,0,0-1.47,9.58c0,2.32.14,3.61,0,3.64s-.57-1.22-.85-3.59a27.38,27.38,0,0,1,.82-10.07,29.89,29.89,0,0,1,2.63-6.55,30.37,30.37,0,0,1,4.85-6.52,28.48,28.48,0,0,1,3.31-2.93,28.93,28.93,0,0,1,3.88-2.5,30.19,30.19,0,0,1,4.37-1.94,30.31,30.31,0,0,1,9.67-1.71,29,29,0,0,1,4.78.31,28.59,28.59,0,0,1,4.5,1,28.05,28.05,0,0,1,4.11,1.6,29.85,29.85,0,0,1,11.53,9.69,27.47,27.47,0,0,1,4.23,9.18C130,40.84,130,42.17,129.89,42.19Z"/><path class="cls-3" d="M106.6,64.35l.82,5.09-4.55.72-.79-5c-4.54.45-9.08-.27-11.9-1.82l1.61-6a18.67,18.67,0,0,0,9.34,1.82l-1.22-7.59c-5.24-.42-11.14-1.2-12.18-7.7-.77-4.82,2.06-9.51,9.11-11.48l-.81-5,4.55-.73.79,5A20.86,20.86,0,0,1,111,33l-1.38,6a19,19,0,0,0-7.33-1.25l1.24,7.73c5.23.37,11.05,1.17,12.07,7.57C116.4,57.7,113.6,62.34,106.6,64.35ZM98.84,45l-1-6.45c-2.32.93-3.07,2.4-2.83,3.9S96.74,44.67,98.84,45Zm9.57,9.7c-.25-1.59-1.71-2.24-3.77-2.61l1,6.27C107.83,57.49,108.65,56.14,108.41,54.69Z"/><path class="cls-1" d="M696.38,118.35a18.27,18.27,0,1,1-20.7-15.41A18.24,18.24,0,0,1,696.38,118.35Z"/><path class="cls-2" d="M692.08,119a13.92,13.92,0,1,1-15.78-11.75A13.9,13.9,0,0,1,692.08,119Z"/><path class="cls-3" d="M692,118.55a8.79,8.79,0,0,1-.6-1.61,14.83,14.83,0,0,0-2.21-4,13.64,13.64,0,0,0-5.23-4.12,13,13,0,0,0-1.81-.67,13.75,13.75,0,0,0-2-.42,13.06,13.06,0,0,0-2.08-.12,15.66,15.66,0,0,0-2.14.21,14.1,14.1,0,0,0-2.08.54,13.11,13.11,0,0,0-1.91.83,12.32,12.32,0,0,0-1.71,1.07,12.82,12.82,0,0,0-1.47,1.26,13.57,13.57,0,0,0-2.21,2.81,14.11,14.11,0,0,0-1.28,2.85,15,15,0,0,0-.7,4.51,8.79,8.79,0,0,1,0,1.71,4.08,4.08,0,0,1-.4-1.69,12.86,12.86,0,0,1,.38-4.74,14.08,14.08,0,0,1,1.24-3.08,14.44,14.44,0,0,1,2.28-3.07,13,13,0,0,1,1.56-1.37,13.53,13.53,0,0,1,1.82-1.18,14.14,14.14,0,0,1,2.06-.91,15,15,0,0,1,2.24-.59,16.55,16.55,0,0,1,2.31-.22,15.19,15.19,0,0,1,2.25.15,13,13,0,0,1,2.11.48,13.23,13.23,0,0,1,1.94.75,14.53,14.53,0,0,1,3.2,2.1,13.87,13.87,0,0,1,2.22,2.46,12.85,12.85,0,0,1,2,4.32A4,4,0,0,1,692,118.55Z"/><path class="cls-3" d="M681.05,129l.39,2.39-2.14.35-.37-2.33a10.28,10.28,0,0,1-5.6-.86l.76-2.8a8.69,8.69,0,0,0,4.39.85l-.57-3.57c-2.47-.19-5.25-.56-5.74-3.62-.36-2.26,1-4.47,4.29-5.4l-.38-2.37,2.14-.34.37,2.33a9.76,9.76,0,0,1,4.55.61l-.65,2.8a8.83,8.83,0,0,0-3.45-.59l.59,3.63c2.46.18,5.19.55,5.68,3.57C685.66,125.84,684.34,128,681.05,129Zm-3.65-9.11-.48-3c-1.1.43-1.44,1.13-1.33,1.83S676.41,119.71,677.4,119.86Zm4.51,4.57c-.12-.75-.81-1.06-1.78-1.23l.47,3C681.63,125.74,682,125.11,681.91,124.43Z"/><path class="cls-1" d="M204.73,14.3a16.74,16.74,0,1,1-19-14.12A16.73,16.73,0,0,1,204.73,14.3Z"/><path class="cls-2" d="M200.79,14.88A12.76,12.76,0,1,1,186.33,4.11,12.74,12.74,0,0,1,200.79,14.88Z"/><path class="cls-3" d="M200.73,14.48a7.52,7.52,0,0,1-.56-1.47,13.24,13.24,0,0,0-2-3.66,12.7,12.7,0,0,0-4.79-3.78A12.58,12.58,0,0,0,191.7,5a10.77,10.77,0,0,0-1.81-.38A13.33,13.33,0,0,0,188,4.46a12.25,12.25,0,0,0-3.86.69,12.62,12.62,0,0,0-1.76.76,12.13,12.13,0,0,0-1.56,1A12.75,12.75,0,0,0,179.45,8a12.91,12.91,0,0,0-2,2.58,13.22,13.22,0,0,0-1.17,2.62,13.75,13.75,0,0,0-.64,4.13,8.38,8.38,0,0,1,0,1.57,3.67,3.67,0,0,1-.37-1.55,11.89,11.89,0,0,1,.35-4.34,13.31,13.31,0,0,1,1.14-2.83,13,13,0,0,1,2.09-2.81,12.5,12.5,0,0,1,1.43-1.26,12.26,12.26,0,0,1,1.67-1.08,12.9,12.9,0,0,1,1.89-.84,15,15,0,0,1,2-.54,15.34,15.34,0,0,1,2.12-.2,14,14,0,0,1,2.06.14,12.42,12.42,0,0,1,1.94.44,11.41,11.41,0,0,1,1.77.69,12.92,12.92,0,0,1,2.93,1.92,12.79,12.79,0,0,1,2,2.26,12,12,0,0,1,1.83,4A3.88,3.88,0,0,1,200.73,14.48Z"/><path class="cls-3" d="M190.68,24l.35,2.19-2,.31-.34-2.13a9.43,9.43,0,0,1-5.13-.79l.7-2.56a8,8,0,0,0,4,.78l-.52-3.27c-2.26-.18-4.81-.52-5.26-3.32-.33-2.08.89-4.1,3.93-4.95l-.35-2.18,2-.31.35,2.13a9.13,9.13,0,0,1,4.17.56l-.6,2.57a8.07,8.07,0,0,0-3.16-.54l.53,3.33c2.26.16,4.77.51,5.21,3.27C194.91,21.17,193.7,23.17,190.68,24Zm-3.34-8.35-.45-2.79c-1,.41-1.32,1-1.22,1.69S186.43,15.55,187.34,15.69Zm4.12,4.18c-.11-.69-.73-1-1.62-1.13l.43,2.71C191.21,21.08,191.56,20.5,191.46,19.87Z"/><path class="cls-1" d="M50.7,211.84a23.84,23.84,0,1,1-3.37-33.51A23.81,23.81,0,0,1,50.7,211.84Z"/><path class="cls-2" d="M46.31,208.24a18.17,18.17,0,1,1-2.56-25.53A18.14,18.14,0,0,1,46.31,208.24Z"/><path class="cls-3" d="M46.67,207.8a10,10,0,0,1,1-2,19.46,19.46,0,0,0,1.91-5.64,18,18,0,0,0-1.58-11,17.45,17.45,0,0,0-1.33-2.27A18,18,0,0,0,45,184.79a18.67,18.67,0,0,0-2.08-1.88,20.53,20.53,0,0,0-2.35-1.53A18.94,18.94,0,0,0,38,180.27a18.05,18.05,0,0,0-5-1,18.5,18.5,0,0,0-4.66.35,19.2,19.2,0,0,0-3.88,1.27,19.45,19.45,0,0,0-4.95,3.3c-1.05,1-1.58,1.56-1.66,1.49s.32-.76,1.28-1.87A16.77,16.77,0,0,1,24,180a18.75,18.75,0,0,1,4.06-1.52,19.19,19.19,0,0,1,5-.5,18.1,18.1,0,0,1,2.7.29,18.47,18.47,0,0,1,2.74.72,19,19,0,0,1,5.23,2.83,21.7,21.7,0,0,1,2.24,2,18.1,18.1,0,0,1,1.83,2.3,16.33,16.33,0,0,1,1.4,2.46,16.71,16.71,0,0,1,1,2.53,18.33,18.33,0,0,1,.79,4.92,17.61,17.61,0,0,1-.42,4.31,16.7,16.7,0,0,1-2.4,5.72C47.32,207.3,46.73,207.85,46.67,207.8Z"/><path class="cls-3" d="M27,206.41l-2,2.48-2.21-1.76,1.92-2.41a13.37,13.37,0,0,1-4.1-6.15L24,196.84a11.43,11.43,0,0,0,3,5L30,198.13c-2-2.55-4.07-5.55-1.56-8.71,1.87-2.34,5.17-3,9-.62l1.95-2.45,2.22,1.76-1.92,2.41A12.71,12.71,0,0,1,43,195.44l-3.27,1.84a11.53,11.53,0,0,0-2.46-3.85l-3,3.76c2,2.53,4,5.49,1.56,8.61C34.05,208.1,30.78,208.75,27,206.41Zm5.56-11.53,2.5-3.14c-1.38-.67-2.36-.39-2.94.34S31.82,193.8,32.54,194.88Zm-.43,8.36c.61-.78.31-1.71-.38-2.8l-2.43,3.05C30.6,204.13,31.54,203.94,32.11,203.24Z"/><path class="cls-1" d="M585.05,311.67a23.84,23.84,0,1,1-3.36-33.5A23.81,23.81,0,0,1,585.05,311.67Z"/><path class="cls-2" d="M580.66,308.08a18.17,18.17,0,1,1-2.56-25.54A18.14,18.14,0,0,1,580.66,308.08Z"/><path class="cls-3" d="M581,307.63a10.81,10.81,0,0,1,1-2,19.41,19.41,0,0,0,1.9-5.63,19,19,0,0,0,.24-4.08,18.52,18.52,0,0,0-.87-4.59,16,16,0,0,0-.95-2.34,16.29,16.29,0,0,0-1.33-2.26,17.83,17.83,0,0,0-1.71-2.12,22,22,0,0,0-2.08-1.88,19.29,19.29,0,0,0-2.36-1.52,17.47,17.47,0,0,0-7.52-2.13,18,18,0,0,0-4.65.34,19,19,0,0,0-3.88,1.28,19.27,19.27,0,0,0-5,3.29c-1,1-1.58,1.57-1.67,1.5a5.47,5.47,0,0,1,1.28-1.88,17,17,0,0,1,4.91-3.8,18.21,18.21,0,0,1,9-2,16.75,16.75,0,0,1,2.69.29,17.32,17.32,0,0,1,2.74.72,17.72,17.72,0,0,1,2.69,1.18,20.73,20.73,0,0,1,2.54,1.64,18.69,18.69,0,0,1,4.08,4.33,18.9,18.9,0,0,1,1.4,2.46,17.06,17.06,0,0,1,1,2.53,18.12,18.12,0,0,1,.38,9.24,16.86,16.86,0,0,1-2.41,5.72C581.68,307.13,581.09,307.69,581,307.63Z"/><path class="cls-3" d="M561.34,306.25l-2,2.47L557.15,307l1.92-2.41a13.43,13.43,0,0,1-4.1-6.14l3.37-1.74a11.37,11.37,0,0,0,3,5l2.93-3.7c-2-2.54-4.07-5.54-1.55-8.71,1.86-2.34,5.17-3,9-.61l2-2.46,2.21,1.76L574,290.35a12.71,12.71,0,0,1,3.42,4.92l-3.27,1.84a11.56,11.56,0,0,0-2.47-3.84l-3,3.76c2,2.52,4,5.49,1.56,8.61C568.4,307.94,565.14,308.59,561.34,306.25Zm5.56-11.53,2.5-3.14c-1.39-.67-2.36-.4-2.94.33S566.17,293.63,566.9,294.72Zm-.44,8.35c.62-.77.31-1.7-.37-2.79l-2.43,3.05C565,304,565.9,303.78,566.46,303.07Z"/><path class="cls-2" d="M643,76,606.9,17.73a6.78,6.78,0,0,0-4.48-3.14L570.48,8.17a6.78,6.78,0,0,0-7.84,4.73l-9.2,31.25a6.76,6.76,0,0,0,.7,5.43l36.13,58.22a6.79,6.79,0,0,0,9.32,2.3l41.14-24.83A6.77,6.77,0,0,0,643,76ZM578.37,29.73a6.37,6.37,0,1,1,2.74-8.58A6.37,6.37,0,0,1,578.37,29.73Z"/><path class="cls-4" d="M643,76,606.9,17.73a6.78,6.78,0,0,0-4.48-3.14L570.48,8.17a6.78,6.78,0,0,0-7.84,4.73l-9.2,31.25a6.76,6.76,0,0,0,.7,5.43l36.13,58.22a6.79,6.79,0,0,0,9.32,2.3l41.14-24.83A6.77,6.77,0,0,0,643,76ZM578.37,29.73a6.37,6.37,0,1,1,2.74-8.58A6.37,6.37,0,0,1,578.37,29.73Z"/><path class="cls-5" d="M573.81,67.27c-3.53-5.68-2.09-11.32,2.74-14.33s10.58-1.83,14.11,3.85,2.09,11.32-2.79,14.36S577.37,73,573.81,67.27ZM585,60.32c-2.07-3.33-4.06-3.91-5.66-2.92s-2,3,.13,6.36,4.15,3.86,5.65,2.93S587.05,63.65,585,60.32Zm11.26-19,6.76-4.2-2,46.79-6.75,4.21Zm10.38,27.06c-3.53-5.68-2.14-11.29,2.74-14.33s10.58-1.83,14.11,3.85,2.09,11.32-2.79,14.36S610.18,74.06,606.62,68.34Zm11.17-7c-2.07-3.33-4.11-3.88-5.66-2.92s-2,3,.12,6.37,4.11,3.88,5.66,2.92S619.86,64.72,617.79,61.39Z"/><path class="cls-3" d="M699,212.21l-25.93-7.47a.82.82,0,1,1,.45-1.58l25.27,7.27,7.39-15.09-30.52-8.79a.82.82,0,0,1-.57-1,.84.84,0,0,1,1-.57L707.56,194a.81.81,0,0,1,.53.46.85.85,0,0,1,0,.7L700,211.78A.83.83,0,0,1,699,212.21Z"/><path class="cls-3" d="M696.36,218.08h0l-24.67-7.19a.82.82,0,0,1-.58-.92l4.38-28.51-7.23-2.08a.83.83,0,0,1-.57-1,.84.84,0,0,1,1-.57l7.93,2.29a.83.83,0,0,1,.59.92l-4.39,28.5,24,7a.83.83,0,0,1-.46,1.59Z"/><path class="cls-3" d="M673.16,220.92a4,4,0,1,1,5-2.76A4,4,0,0,1,673.16,220.92Zm1.77-6.15a2.37,2.37,0,1,0,1.62,2.93A2.37,2.37,0,0,0,674.93,214.77Z"/><path class="cls-3" d="M690.21,225.82a4,4,0,1,1,5-2.75A4,4,0,0,1,690.21,225.82Zm1.77-6.15a2.37,2.37,0,1,0,1.62,2.94A2.38,2.38,0,0,0,692,219.67Z"/><path class="cls-3" d="M681.05,207.05a.84.84,0,0,1-.58-1l3.82-17.23a.83.83,0,0,1,1.62.35l-3.82,17.23a.83.83,0,0,1-1,.63Z"/><path class="cls-3" d="M690.53,209.78l0,0a.83.83,0,0,1-.51-1l5.82-16.65a.83.83,0,0,1,1.56.54l-5.82,16.66A.83.83,0,0,1,690.53,209.78Z"/><path class="cls-3" d="M674,195.85a.82.82,0,0,1-.57-1,.83.83,0,0,1,1-.58l29,8.06h0a.83.83,0,0,1,.57,1,.84.84,0,0,1-1,.58l-29-8Z"/></g><g id="Floor"><path class="cls-6" d="M30.11,378.41c0-.14,144.89-.26,323.58-.26s323.61.12,323.61.26-144.86.26-323.61.26S30.11,378.56,30.11,378.41Z"/></g><g id="Plant"><path class="cls-7" d="M68.4,243c-7.14,3.69-12.61,10-16.54,17.06s-6.47,14.69-9,22.33l-2.2,39.36c8.3-14.13,15-30.73,16.77-47l-5.53-.49c3.7-.57,6.81-3.25,8.79-6.43s3-6.85,4-10.47l-6.74,1A25,25,0,0,0,68.4,243Z"/><g class="cls-8"><path d="M68.4,243c-7.14,3.69-12.61,10-16.54,17.06s-6.47,14.69-9,22.33l-2.2,39.36c8.3-14.13,15-30.73,16.77-47l-5.53-.49c3.7-.57,6.81-3.25,8.79-6.43s3-6.85,4-10.47l-6.74,1A25,25,0,0,0,68.4,243Z"/></g><path class="cls-7" d="M39.45,331s-18-21.57-17.81-42.15h7.28s-7.91-5.2-7.28-8.11.83-13.94.83-13.94l6.66,1.67s-5-2.5-5.62-6.45S25,239.76,25,239.76s8.11,8.52,10.6,17.26,9,18.92,7.13,45.54S39.45,331,39.45,331Z"/><path class="cls-7" d="M48.59,333s19.52-13,23.85-29.61l-5.85-1.59s7.5-2.45,7.63-4.93,2.38-11.38,2.38-11.38l-5.72-.12s4.56-.91,5.93-3.95,3.7-18.21,3.7-18.21-8.39,5.08-12.31,11.55S56.79,288,52.51,309.85,48.59,333,48.59,333Z"/><path class="cls-6" d="M29.89,258.56a1,1,0,0,1,.08.22c0,.18.09.4.16.66.15.63.34,1.48.59,2.56.51,2.22,1.18,5.45,1.94,9.45,1.55,8,3.37,19.11,4.8,31.46S39.65,326.5,40,334.63c.16,4.07.25,7.37.26,9.65,0,1.1,0,2,0,2.62,0,.27,0,.5,0,.68a1,1,0,0,1,0,.23.72.72,0,0,1,0-.23c0-.18,0-.41,0-.68,0-.64-.07-1.52-.11-2.62-.08-2.27-.22-5.57-.43-9.63-.42-8.13-1.24-19.34-2.66-31.68s-3.19-23.45-4.64-31.45c-.72-4-1.33-7.25-1.78-9.48-.21-1.08-.37-1.94-.49-2.57-.05-.27-.09-.49-.12-.68A.8.8,0,0,1,29.89,258.56Z"/><path class="cls-7" d="M37,344.2s-16.49-18.71-21.61-30l3.87-1.65A10.08,10.08,0,0,1,11.36,310,30,30,0,0,1,6,303.35l5.09-.86A19,19,0,0,1,0,293.88c6,1,11.44,4.28,15.92,8.41a79.21,79.21,0,0,1,9.65,11.18,37.94,37.94,0,0,1,3.75,6.16C32.09,325.36,37,337.33,37,344.2Z"/><path class="cls-6" d="M72.7,274.13a4.1,4.1,0,0,1-.31.74c-.25.52-.57,1.21-1,2.08-.87,1.8-2.11,4.42-3.62,7.67-3,6.49-7,15.54-11,25.72s-7.07,19.57-9.21,26.4c-1.06,3.41-1.9,6.19-2.47,8.11l-.67,2.2a3.87,3.87,0,0,1-.27.76,6,6,0,0,1,.17-.79c.14-.55.34-1.3.58-2.23.5-1.94,1.29-4.73,2.31-8.16,2-6.86,5.14-16.28,9.08-26.48s8-19.24,11.09-25.69c1.56-3.23,2.85-5.82,3.78-7.6l1.08-2A5.7,5.7,0,0,1,72.7,274.13Z"/><path class="cls-6" d="M38.35,352.21a7.23,7.23,0,0,1-.27-1.33c-.14-.86-.36-2.1-.67-3.63a78.47,78.47,0,0,0-3.36-11.68,78.53,78.53,0,0,0-5.2-11c-.78-1.35-1.43-2.43-1.9-3.17a6.71,6.71,0,0,1-.67-1.18,7.25,7.25,0,0,1,.84,1.07c.52.7,1.22,1.76,2,3.09a65.93,65.93,0,0,1,5.38,11,66.91,66.91,0,0,1,3.23,11.8c.26,1.55.43,2.8.51,3.67A6.34,6.34,0,0,1,38.35,352.21Z"/><rect class="cls-9" x="24.02" y="347.81" width="36.09" height="7.36"/><polygon class="cls-9" points="27.46 355.17 31.36 379.94 53.17 379.94 56.81 355.17 27.46 355.17"/><path class="cls-6" d="M57.89,355.17c0,.15-6.82.26-15.24.26s-15.25-.11-15.25-.26,6.83-.26,15.25-.26S57.89,355,57.89,355.17Z"/></g><g id="Purchase"><path class="cls-10" d="M488.59,336.57s-7.31.43-7.9,1.7c0,0-.1,5.39,5.08,10.81l-1,2.21v3.59c2.41-4.67,5.09-11.81,5.09-11.81S490,338.05,488.59,336.57Z"/><g class="cls-11"><path d="M488.33,337.05s-2.55,6.63-1,11.4C487.34,348.45,490.85,342.59,488.33,337.05Z"/></g><path class="cls-10" d="M499.83,345.5S496.44,339,495,339c0,0-4.94,2.13-7.76,9.08l-2.43,0a14,14,0,0,0-7.79-8.65s-3.71,6.68-3.84,6.62a13.32,13.32,0,0,0,8.35,3.5c5.25.27,12.86-.22,12.86-.22S499.05,347.35,499.83,345.5Z"/><g class="cls-11"><path d="M483.58,349s-5.49-3.17-9.92-2.87C473.66,346.08,478.8,350.41,483.58,349Z"/></g><g class="cls-11"><path d="M499.29,345.46s-7.09.4-10.8,3.79C488.49,349.25,495.27,350,499.29,345.46Z"/></g><polygon class="cls-9" points="510.5 349.29 508.56 378.42 463.6 377.99 463.25 348.85 510.5 349.29"/><g class="cls-11"><polygon points="501.96 349.21 501.69 378.35 508.56 378.42 510.5 349.29 501.96 349.21"/></g><polygon class="cls-10" points="507.12 349.26 505.7 378.39 504.14 378.37 504.41 349.23 507.12 349.26"/><rect class="cls-10" x="468.26" y="361.73" width="29.14" height="3.75" transform="matrix(0.01, -1, 1, 0.01, 114.73, 843.01)"/><rect class="cls-10" x="463.4" y="361.68" width="46.08" height="2.83"/><path class="cls-6" d="M532.88,321.4a36.9,36.9,0,0,0-1.39-6.64,19.44,19.44,0,0,0-3.18-6.1,7.46,7.46,0,0,0-12.46-.05,19.36,19.36,0,0,0-3.21,6.08,36.32,36.32,0,0,0-1.4,6.63,1.45,1.45,0,0,1,0-.48c0-.32,0-.78.1-1.38a25.8,25.8,0,0,1,1-4.92,19.4,19.4,0,0,1,3.21-6.3,7.74,7.74,0,0,1,13,.06,19.67,19.67,0,0,1,3.19,6.31,26.51,26.51,0,0,1,1,4.93c.06.6.09,1.06.1,1.38A2.89,2.89,0,0,1,532.88,321.4Z"/><path class="cls-6" d="M536.62,321.4a38,38,0,0,0-1.39-6.64,19.48,19.48,0,0,0-3.19-6.1,7.45,7.45,0,0,0-12.45-.05,19.16,19.16,0,0,0-3.21,6.08,36.32,36.32,0,0,0-1.4,6.63,1.59,1.59,0,0,1,0-.48c0-.32,0-.78.11-1.38a26.44,26.44,0,0,1,1-4.92,19.44,19.44,0,0,1,3.22-6.3,7.73,7.73,0,0,1,13,.06,19.51,19.51,0,0,1,3.2,6.31,25.55,25.55,0,0,1,1,4.93c.07.6.1,1.06.11,1.38A2.89,2.89,0,0,1,536.62,321.4Z"/><polygon class="cls-9" points="498.68 318.52 540.88 318.19 541.8 378.16 494.44 378.16 498.68 318.52"/><polygon class="cls-9" points="540.88 318.19 546.18 318.19 550.74 378.16 541.8 378.16 540.88 318.19"/><rect class="cls-5" x="506.05" y="338.56" width="27.63" height="6.06"/><g class="cls-11"><polygon points="540.88 318.19 546.18 318.19 550.74 378.16 541.8 378.16 540.88 318.19"/></g><path class="cls-6" d="M494.44,378.16c-.14,0,.44-10.37,1.3-23.14s1.68-23.12,1.82-23.11-.44,10.37-1.3,23.14S494.58,378.17,494.44,378.16Z"/></g><g id="Device"><path class="cls-10" d="M519.39,40.08H140.15a11.84,11.84,0,0,0-11.83,11.84V319.78a11.84,11.84,0,0,0,11.83,11.84H285.7l-7.05,46.79H384.18l-5.9-46.79H519.39a11.84,11.84,0,0,0,11.83-11.84V51.92A11.84,11.84,0,0,0,519.39,40.08Z"/><path class="cls-6" d="M334.83,303.45c5.16,7.37-2.91,15.44-10.29,10.29a2.73,2.73,0,0,1-.63-.64c-5.14-7.37,2.92-15.43,10.29-10.29A2.56,2.56,0,0,1,334.83,303.45Z"/><path class="cls-6" d="M148.62,50.31H511a9.7,9.7,0,0,1,9.7,9.7V282.62a0,0,0,0,1,0,0H138.92a0,0,0,0,1,0,0V60A9.7,9.7,0,0,1,148.62,50.31Z"/><path class="cls-6" d="M417.41,331.62c0,.13-31.79.24-71,.24s-71-.11-71-.24,31.78-.23,71-.23S417.41,331.49,417.41,331.62Z"/><rect class="cls-5" x="149.27" y="59.91" width="361.49" height="213.1"/><rect class="cls-3" x="149.27" y="59.91" width="361.49" height="17.71"/><path class="cls-5" d="M163.32,69.14a2.54,2.54,0,1,1-2.53-2.46A2.49,2.49,0,0,1,163.32,69.14Z"/><path class="cls-5" d="M170.9,69.14a2.54,2.54,0,1,1-2.54-2.46A2.5,2.5,0,0,1,170.9,69.14Z"/><path class="cls-5" d="M178.09,69.14a2.54,2.54,0,1,1-2.54-2.46A2.49,2.49,0,0,1,178.09,69.14Z"/><rect class="cls-3" x="149.21" y="103.99" width="361.63" height="76.19"/><rect class="cls-9" x="164.05" y="87.97" width="35.34" height="9"/><rect class="cls-3" x="421.42" y="85.93" width="25.59" height="9"/><rect class="cls-3" x="379.59" y="85.69" width="25.59" height="9"/><path class="cls-9" d="M316.53,169.57a3.22,3.22,0,1,1-3.22-3.11A3.16,3.16,0,0,1,316.53,169.57Z"/><path class="cls-5" d="M329.33,169.57a3.22,3.22,0,1,1-3.22-3.11A3.16,3.16,0,0,1,329.33,169.57Z"/><path class="cls-5" d="M341.55,169.57a3.22,3.22,0,1,1-3.22-3.11A3.16,3.16,0,0,1,341.55,169.57Z"/><rect class="cls-5" x="179.55" y="160.32" width="94.59" height="9.48"/><rect class="cls-3" x="187.18" y="194.03" width="54.66" height="47.68"/><rect class="cls-3" x="304.94" y="193.18" width="46.09" height="46.09"/><rect class="cls-3" x="410.64" y="191.76" width="48.92" height="48.92"/><path class="cls-9" d="M248.14,205.9s-13.7-15.48-15.43-16.47a13.87,13.87,0,0,0-3.76-1.09,17.4,17.4,0,0,0-2.28-.33l-.16,0h0c-4.19-.36-10.55-.19-10.55-.19s-.11,5.6-7.24,7.94c-7.33,1.6-10.27-3.16-10.27-3.16s-5.57,3.07-9,5.52h0l-.13.1a17.89,17.89,0,0,0-1.79,1.44,13.53,13.53,0,0,0-2.69,2.85c-1,1.73-4.93,22-4.93,22l14.66,2.94,1.49-10L204,250l17.44-4.76,1.48-.4,17.64-4.81-9.91-32,6.36,7.86Z"/><path class="cls-6" d="M198.24,225.44a21.23,21.23,0,0,1-.9-2.92c-.5-1.84-1.18-4.4-1.91-7.3l0,.09-.85-1.14c-2-2.65-3.79-5.07-5.06-6.83-.64-.89-1.15-1.61-1.49-2.11a3.41,3.41,0,0,1-.49-.81s.26.22.65.69.94,1.16,1.61,2c1.35,1.71,3.18,4.1,5.18,6.75l.85,1.14,0,0v0c.72,2.9,1.34,5.48,1.75,7.34A18.51,18.51,0,0,1,198.24,225.44Z"/><path class="cls-6" d="M232.74,216a20.86,20.86,0,0,1-1-2.88c-.58-1.82-1.36-4.35-2.21-7.21v-.1c0-.45.11-.93.16-1.42.38-3.3.74-6.28,1-8.44.15-1.08.28-2,.37-2.55a3.22,3.22,0,0,1,.21-.93,3.68,3.68,0,0,1,0,1c0,.61-.11,1.49-.21,2.57-.2,2.17-.52,5.16-.89,8.46-.06.48-.11,1-.16,1.42v-.1c.84,2.87,1.56,5.41,2.05,7.25A20,20,0,0,1,232.74,216Z"/><path class="cls-5" d="M216.86,203.48h11a0,0,0,0,1,0,0v7a4.94,4.94,0,0,1-4.94,4.94h-1.09a4.94,4.94,0,0,1-4.94-4.94v-7a0,0,0,0,1,0,0Z" transform="translate(-47.1 65.55) rotate(-15.18)"/><path class="cls-6" d="M222.08,215.53a5,5,0,0,1-2.46-.66,4.91,4.91,0,0,1-2.32-3l-1.84-6.75h0l10.61-2.88v0l1.82,6.73a5,5,0,0,1-3.49,6.1l-1.05.28A4.87,4.87,0,0,1,222.08,215.53Zm-6.56-10.39,1.82,6.7a4.92,4.92,0,0,0,6,3.46l1.05-.28a4.93,4.93,0,0,0,3.46-6l-1.82-6.7Z"/><path class="cls-6" d="M224.75,214.88s.35-.13.93-.47a4.43,4.43,0,0,0,1.85-2.11,4.5,4.5,0,0,0,.32-2,13.65,13.65,0,0,0-.56-2.3l-1.52-5.46.29.17-5.86,1.61-4.3,1.16.17-.3c.58,2.17,1.13,4.21,1.62,6.06a12.83,12.83,0,0,0,.38,1.31,4.31,4.31,0,0,0,.61,1.07,4.22,4.22,0,0,0,1.75,1.33,4.65,4.65,0,0,0,3.15.11,6.82,6.82,0,0,1,1.17-.23,6,6,0,0,1-1.13.4,4.72,4.72,0,0,1-3.31,0,4.63,4.63,0,0,1-1.93-1.38,5.31,5.31,0,0,1-.69-1.16c-.17-.45-.28-.89-.41-1.35-.51-1.84-1.08-3.87-1.68-6l-.07-.23.24-.07,4.3-1.18,5.87-1.58.23-.07.06.23c.52,2,1,3.82,1.46,5.48a13.46,13.46,0,0,1,.51,2.39,4.55,4.55,0,0,1-.4,2.08,4.37,4.37,0,0,1-2,2.14,3.21,3.21,0,0,1-.74.29A.78.78,0,0,1,224.75,214.88Z"/><rect class="cls-3" x="191.42" y="251.66" width="47.68" height="6.37"/><rect class="cls-3" x="303.06" y="251.66" width="47.68" height="6.37"/><rect class="cls-3" x="414.76" y="251.82" width="45.27" height="6.05"/><path class="cls-9" d="M469.53,230.93c-.56-2-3.15-2-5-2.85a56.13,56.13,0,0,1-13.25-8.17l-40.56-2.8-.15,1.64c9.27,13.35,26.38,23.21,42.61,22.35a27,27,0,0,0,12.48-3.32C467.74,236.52,470.21,233.31,469.53,230.93Z"/><g class="cls-11"><path d="M469.53,230.93c-.56-2-3.15-2-5-2.85a56.13,56.13,0,0,1-13.25-8.17l-40.56-2.8-.15,1.64c9.27,13.35,26.38,23.21,42.61,22.35a27,27,0,0,0,12.48-3.32C467.74,236.52,470.21,233.31,469.53,230.93Z"/></g><path class="cls-9" d="M453.42,209.36c-2-4.8-4.87-9.31-10.22-11.7-6.84-3.06-14.7-2-20.77,1.49s-10.85,12.3-11.86,18.61c13.93,12.72,41.76,15,46.11,7.15C457.21,219.94,455.45,214.17,453.42,209.36Z"/><path class="cls-9" d="M469.41,230.19c-.57-2-2.74-3-4.63-3.79a56.46,56.46,0,0,1-13.25-8.17l-41-.47c9.27,13.34,26.63,22.52,42.86,21.65a27.14,27.14,0,0,0,12.48-3.31C468,234.84,470.09,232.56,469.41,230.19Z"/><path class="cls-6" d="M457.13,222.3a2.28,2.28,0,0,1-.06.53,7.92,7.92,0,0,1-.42,1.47,8.19,8.19,0,0,1-3.74,4.1,13.28,13.28,0,0,1-3.66,1.31,20.4,20.4,0,0,1-2.14.31c-.73.08-1.49.14-2.28.15a44.1,44.1,0,0,1-10.09-.95,60.34,60.34,0,0,1-17.17-6.5,55.19,55.19,0,0,1-4.68-3l-1.2-.92c-.27-.22-.41-.34-.39-.35s.16.07.45.26l1.26.85c1.09.73,2.7,1.73,4.74,2.87a63.51,63.51,0,0,0,17.09,6.32,45.67,45.67,0,0,0,10,1,20.62,20.62,0,0,0,2.25-.13c.73-.05,1.42-.16,2.1-.27a13.19,13.19,0,0,0,3.56-1.22,8.12,8.12,0,0,0,3.73-3.85C457,223,457.08,222.29,457.13,222.3Z"/><path class="cls-6" d="M448,229.7a3.91,3.91,0,0,1,0-.71c0-.52,0-1.2,0-2,.08-1.77,0-4.34-.12-7.5a51.81,51.81,0,0,0-1.82-10.91,27,27,0,0,0-1.06-3,24.84,24.84,0,0,0-1.46-3,14,14,0,0,0-4.67-5,6,6,0,0,0-.68-.33h.14a15,15,0,0,0-6.16,2.79,27.67,27.67,0,0,0-4.45,4.55,41.39,41.39,0,0,0-5.73,9.15c-1.28,2.8-2.11,5.16-2.72,6.77l-.7,1.86a3.56,3.56,0,0,1-.28.64,4.73,4.73,0,0,1,.18-.67c.16-.48.36-1.11.62-1.89.55-1.64,1.32-4,2.57-6.86a40.53,40.53,0,0,1,5.69-9.3,27.77,27.77,0,0,1,4.51-4.65,15.35,15.35,0,0,1,6.36-2.89l.07,0,.06,0a4.6,4.6,0,0,1,.77.38,14.3,14.3,0,0,1,4.86,5.21,25.12,25.12,0,0,1,1.48,3.05,24.69,24.69,0,0,1,1.06,3.06,50.05,50.05,0,0,1,1.73,11,74.71,74.71,0,0,1,0,7.52c-.06.85-.1,1.53-.13,2A3,3,0,0,1,448,229.7Z"/><path class="cls-6" d="M438.43,195.44h.26a1.14,1.14,0,0,1,1.14,1.14v.89a0,0,0,0,1,0,0h-2.53a0,0,0,0,1,0,0v-.89A1.14,1.14,0,0,1,438.43,195.44Z" transform="translate(39.9 -71.88) rotate(9.81)"/><path class="cls-5" d="M437.69,216.23l-1.05,4.6s6.1,3.33,11.83,2.19a8.64,8.64,0,0,0,5.35-3l-.38-4s-1.63,1.87-6.55,2C443.29,218.11,437.69,216.23,437.69,216.23Z"/><path class="cls-6" d="M467.52,234.73a1.74,1.74,0,0,1-.31.31,10,10,0,0,1-1,.79,17.84,17.84,0,0,1-4.15,2.15,34.59,34.59,0,0,1-15.26,1.73A46.6,46.6,0,0,1,432,235.38c-1.78-.85-3.19-1.61-4.14-2.17-.48-.27-.84-.5-1.08-.66s-.37-.24-.36-.26A14.19,14.19,0,0,1,428,233c1,.5,2.4,1.21,4.19,2a49.49,49.49,0,0,0,14.67,4.15,35.92,35.92,0,0,0,15.07-1.56A23.18,23.18,0,0,0,467.52,234.73Z"/><path class="cls-9" d="M299.1,208.18s5.45-10.29,12.08-11c0,0,12.2,7,14.08,6.55s-.85-4,1.71-6,5.16.24,6.21,1.78,8.4,18.34,14.64,22.63,16,12.86,14.44,16.72c-1.18,2.88-.87,1.82-6.4,2.87S332.07,234,326.17,228C316.93,218.63,305.18,208.68,299.1,208.18Z"/><path class="cls-5" d="M360,242.91a1.25,1.25,0,0,0-.8-2.33,5.75,5.75,0,0,1-1,.11c-3.73.12-8.54-1.32-14.51-3.91s-8.14-4.3-15.7-10-13.84-15.61-19.79-17.33a26.94,26.94,0,0,0-8.87-1.29,1.18,1.18,0,0,0-.54.17c-4.14,2.49-11.78,12.36-7.81,15,2.75,1.81,12.27,3,18.94,5.29s21.48,8.82,29.85,11.72,16.89,4.2,20.1,2.66Z"/><path class="cls-6" d="M360,242.91a2,2,0,0,1-.39.19,6.22,6.22,0,0,1-1.2.37,18.29,18.29,0,0,1-4.83.13,64.1,64.1,0,0,1-17.17-4.34c-7-2.6-15.21-6.15-24.44-9.69-4.59-1.82-9.7-2.79-14.94-4-1.31-.32-2.64-.64-3.95-1.07a11.42,11.42,0,0,1-1.95-.83,2.66,2.66,0,0,1-1.38-1.72,6.84,6.84,0,0,1,.78-4.23,22.25,22.25,0,0,1,2.21-3.69,30,30,0,0,1,2.78-3.27,16.23,16.23,0,0,1,3.31-2.72,2.94,2.94,0,0,1,1.13-.15c.35,0,.7,0,1.05,0,.7,0,1.39.1,2.07.19a33.4,33.4,0,0,1,4,.8,12.09,12.09,0,0,1,3.76,1.52,23.51,23.51,0,0,1,3.14,2.41c1.94,1.75,3.67,3.61,5.37,5.41a70,70,0,0,0,10.27,9.51,80.14,80.14,0,0,0,10,6.93c6.64,3.37,12.43,5.43,16.58,5.86a11.45,11.45,0,0,0,2.75,0,1.47,1.47,0,0,1,1.12.18,1.41,1.41,0,0,1,.53.78,1.23,1.23,0,0,1-.31,1.2,1,1,0,0,1-.27.19l-.09,0s.13-.06.32-.27a1.16,1.16,0,0,0,.25-1.13,1.35,1.35,0,0,0-.5-.7,1.32,1.32,0,0,0-1-.13,11.61,11.61,0,0,1-2.79,0,31.49,31.49,0,0,1-7.43-1.76,73.67,73.67,0,0,1-9.31-4,78.31,78.31,0,0,1-10.12-6.91,51,51,0,0,1-5.28-4.36c-1.71-1.61-3.37-3.36-5.08-5.16s-3.43-3.65-5.35-5.37a23,23,0,0,0-3.08-2.35,11.62,11.62,0,0,0-3.62-1.46,35.08,35.08,0,0,0-4-.78c-.68-.09-1.35-.15-2-.19-.35,0-.69,0-1,0a2.57,2.57,0,0,0-.92.1,16.37,16.37,0,0,0-3.15,2.61,28.94,28.94,0,0,0-2.72,3.22,21.39,21.39,0,0,0-2.17,3.6,6.35,6.35,0,0,0-.74,3.88c.27,1.29,1.75,1.73,3,2.19s2.6.75,3.91,1.06c5.22,1.23,10.37,2.22,15,4.08,9.24,3.57,17.41,7.14,24.4,9.79a65.9,65.9,0,0,0,17.06,4.48,18.81,18.81,0,0,0,4.79,0,6.48,6.48,0,0,0,1.2-.31Z"/><path class="cls-5" d="M340.51,213.15c0,.15-1.28.35-2.76.93s-2.57,1.29-2.66,1.17a5,5,0,0,1,2.47-1.66A4.93,4.93,0,0,1,340.51,213.15Z"/><path class="cls-5" d="M343.13,216.76a8.8,8.8,0,0,1-2.48,1.71,8.6,8.6,0,0,1-2.74,1.25,8.9,8.9,0,0,1,2.48-1.7A9.05,9.05,0,0,1,343.13,216.76Z"/><path class="cls-5" d="M346.09,220.36c.09.11-.73.92-1.73,1.91s-1.84,1.79-1.95,1.7.55-1.06,1.58-2.07S346,220.25,346.09,220.36Z"/><rect class="cls-9" x="298" y="217.2" width="9.1" height="2.22" rx="1" transform="translate(72.18 -75.16) rotate(16.06)"/><path class="cls-9" d="M309.72,198a5.69,5.69,0,0,0-1-2.36,1.52,1.52,0,0,0-.89-.69,1.74,1.74,0,0,0-1.16.38l-1,.6c-.19.12-.41.28-.44.51a.83.83,0,0,0,.18.48l1.39,2.14"/><path class="cls-6" d="M311.18,197.21c0,.08-.9.35-2.25,1a21.07,21.07,0,0,0-4.81,3.43,23.75,23.75,0,0,0-3.76,4.58c-.81,1.29-1.19,2.16-1.27,2.12a7.25,7.25,0,0,1,1-2.31,19.76,19.76,0,0,1,3.72-4.77,18,18,0,0,1,5-3.39A6.48,6.48,0,0,1,311.18,197.21Z"/><path class="cls-6" d="M307.49,198.8c-.15,0-.4-.64-1-1.27s-1.18-1-1.13-1.13.87,0,1.52.79S307.62,198.79,307.49,198.8Z"/><g class="cls-11"><path d="M325.82,203.31c.14-.45,5.47,8.31,9.07,11.72-4-2.95-8.12-7.72-11.27-11.58C323.62,203.45,325.5,204.38,325.82,203.31Z"/></g><path class="cls-6" d="M347.9,224.49a1.9,1.9,0,0,1-.73.34A5.73,5.73,0,0,1,345,225a7.69,7.69,0,0,1-3.09-1.06,12.75,12.75,0,0,1-3-2.6c-.47-.52-.9-1.06-1.3-1.58l-1.09-1.55-1.82-2.64a17,17,0,0,1-1.57-2.51,16.83,16.83,0,0,1,1.87,2.29l1.9,2.57,1.12,1.53c.4.51.82,1,1.28,1.55a13.38,13.38,0,0,0,2.88,2.53,7.89,7.89,0,0,0,2.89,1.1A8.22,8.22,0,0,0,347.9,224.49Z"/><path class="cls-5" d="M338.63,213.53a3.12,3.12,0,0,1-.22-1,13.88,13.88,0,0,1-.1-2.75,16.08,16.08,0,0,1,.75-4,16.92,16.92,0,0,1,.92-2.25,13.07,13.07,0,0,1,.64-1.14,1.86,1.86,0,0,1,.52-.53.94.94,0,0,1,.85-.12,1.5,1.5,0,0,1,.85,1.24,8.52,8.52,0,0,1,.08,1.31,11.89,11.89,0,0,1-.21,2.43,13.14,13.14,0,0,1-1.35,3.88,11.83,11.83,0,0,1-1.56,2.28,3.09,3.09,0,0,1-.74.69,26.09,26.09,0,0,0,2-3.14,14.33,14.33,0,0,0,1.2-3.79,12.7,12.7,0,0,0,.17-2.34,8.15,8.15,0,0,0-.08-1.22c-.07-.38-.24-.78-.5-.85s-.56.13-.79.46a11,11,0,0,0-.6,1.07,16,16,0,0,0-.92,2.17,16.55,16.55,0,0,0-.84,3.9C338.46,212.1,338.73,213.52,338.63,213.53Z"/><path class="cls-5" d="M338.68,213.32a4.94,4.94,0,0,1,.62-.84c.43-.51,1.06-1.25,1.9-2.11a20.38,20.38,0,0,1,3.23-2.75,13.24,13.24,0,0,1,2.21-1.2A4.14,4.14,0,0,1,348,206a1.45,1.45,0,0,1,1.42.59,1.77,1.77,0,0,1,.15,1.53,4.19,4.19,0,0,1-.71,1.2,8.15,8.15,0,0,1-1.88,1.71,12.37,12.37,0,0,1-3.91,1.66,25.54,25.54,0,0,1-2.8.51,3.72,3.72,0,0,1-1,.07c0-.09,1.45-.31,3.74-.94a12.69,12.69,0,0,0,3.74-1.69,8,8,0,0,0,1.75-1.64c.52-.62.95-1.47.53-2.12a1,1,0,0,0-.95-.36,3.73,3.73,0,0,0-1.17.35,13.22,13.22,0,0,0-2.15,1.13,22.78,22.78,0,0,0-3.23,2.61C339.75,212.28,338.75,213.38,338.68,213.32Z"/><rect class="cls-9" x="465.38" y="80.48" width="34.89" height="34.89" rx="3.84"/><path class="cls-5" d="M488.63,101H477.11a.51.51,0,0,1-.5-.5.5.5,0,0,1,.5-.5h11.1l1.2-6.78H476a.5.5,0,0,1-.5-.5.5.5,0,0,1,.5-.5h14a.49.49,0,0,1,.38.18.47.47,0,0,1,.11.41l-1.37,7.77A.51.51,0,0,1,488.63,101Z"/><path class="cls-5" d="M488.25,103.68h0l-11,0a.51.51,0,0,1-.5-.44l-1.55-12.09h-3.08a.5.5,0,0,1-.5-.5.5.5,0,0,1,.5-.5h3.52a.51.51,0,0,1,.5.44l1.55,12.09,10.53,0a.51.51,0,0,1,.5.51A.49.49,0,0,1,488.25,103.68Z"/><path class="cls-5" d="M479.07,107.59a1.87,1.87,0,1,1,1.87-1.87A1.87,1.87,0,0,1,479.07,107.59Zm0-2.73a.87.87,0,1,0,.87.86A.87.87,0,0,0,479.07,104.86Z"/><path class="cls-5" d="M486.64,107.59a1.87,1.87,0,1,1,1.87-1.87A1.87,1.87,0,0,1,486.64,107.59Zm0-2.73a.87.87,0,1,0,.87.86A.87.87,0,0,0,486.64,104.86Z"/><path class="cls-5" d="M480.67,101a.51.51,0,0,1-.5-.47L479.7,93a.5.5,0,1,1,1-.07l.47,7.52a.49.49,0,0,1-.47.53Z"/><path class="cls-5" d="M484.88,101h0a.5.5,0,0,1-.47-.52l.42-7.52a.5.5,0,1,1,1,0l-.42,7.52A.5.5,0,0,1,484.88,101Z"/><path class="cls-5" d="M476.45,97.2a.5.5,0,0,1-.5-.49.51.51,0,0,1,.5-.51l12.87-.12a.51.51,0,0,1,.5.49.5.5,0,0,1-.49.51l-12.87.12Z"/><path class="cls-5" d="M186.42,150.2a20.56,20.56,0,0,1-5.69-2l3.21-7.71a16.68,16.68,0,0,0,4.65,1.87,21.92,21.92,0,0,0,5.22.67,8,8,0,0,0,2.82-.34,1.08,1.08,0,0,0,.8-1c0-.44-.33-.75-1-.93a27.74,27.74,0,0,0-3.29-.51,44,44,0,0,1-5.89-1.06,9.29,9.29,0,0,1-4.27-2.51,7.29,7.29,0,0,1-1.83-5.33,7.92,7.92,0,0,1,1.65-4.91,11.23,11.23,0,0,1,4.94-3.46,21.57,21.57,0,0,1,7.88-1.29,33.5,33.5,0,0,1,6.28.59,19.25,19.25,0,0,1,5.25,1.73L204,131.7a16.54,16.54,0,0,0-8.17-2.07c-2.55,0-3.83.45-3.83,1.34,0,.45.35.77,1,1a23.52,23.52,0,0,0,3.25.54,39.81,39.81,0,0,1,5.87,1.09,9.47,9.47,0,0,1,4.24,2.53,7.29,7.29,0,0,1,1.84,5.33,7.75,7.75,0,0,1-1.66,4.8,11.12,11.12,0,0,1-5,3.47,22.12,22.12,0,0,1-8,1.29A32.81,32.81,0,0,1,186.42,150.2Z"/><path class="cls-5" d="M239.75,124.82q3.18,3.15,3.18,9.51v16.13H231.24V136.35q0-4.86-3.46-4.86a4.06,4.06,0,0,0-3.18,1.37,6.39,6.39,0,0,0-1.22,4.32v13.28H211.7V112.1h11.68v12.36a11.85,11.85,0,0,1,8-2.79A11.42,11.42,0,0,1,239.75,124.82Z"/><path class="cls-5" d="M255,149.09a14.53,14.53,0,0,1-5.87-5.22,14.59,14.59,0,0,1,0-15.15,14.32,14.32,0,0,1,5.87-5.19,20.24,20.24,0,0,1,16.95,0,14.2,14.2,0,0,1,5.85,5.19,14.77,14.77,0,0,1,0,15.15,14.41,14.41,0,0,1-5.85,5.22,19.95,19.95,0,0,1-16.95,0Zm11.76-8.68a6.06,6.06,0,0,0,1.29-4.11,6,6,0,0,0-1.29-4.09,4.52,4.52,0,0,0-6.62,0,6,6,0,0,0-1.29,4.09,6.06,6.06,0,0,0,1.29,4.11,4.46,4.46,0,0,0,6.62,0Z"/><path class="cls-5" d="M309.28,123.45a12.87,12.87,0,0,1,5,5.14,17.22,17.22,0,0,1,0,15.49,12.94,12.94,0,0,1-5,5.12,13.7,13.7,0,0,1-6.85,1.78c-3.14,0-5.53-.81-7.19-2.43v11.94H283.56V122.18h11.11v2.33c1.69-1.9,4.28-2.84,7.76-2.84A13.59,13.59,0,0,1,309.28,123.45Zm-6.33,17a5.91,5.91,0,0,0,1.29-4.08,6,6,0,0,0-1.29-4.11,4.46,4.46,0,0,0-6.62,0,6,6,0,0,0-1.29,4.11,5.91,5.91,0,0,0,1.29,4.08,4.5,4.5,0,0,0,6.62,0Z"/><path class="cls-5" d="M448.22,139l-50.76,18a1.87,1.87,0,1,1-1.25-3.52L445.5,136,440,103.32l-59.51,21.13a1.87,1.87,0,0,1-1.25-3.52l61.61-21.87a1.86,1.86,0,0,1,2.46,1.45l6.1,36.39A1.87,1.87,0,0,1,448.22,139Z"/><path class="cls-5" d="M450.79,151.55h0l-48.41,17a1.87,1.87,0,0,1-2.28-.92l-25.93-51.19-14,5a1.87,1.87,0,0,1-1.25-3.52l15.53-5.52a1.88,1.88,0,0,1,2.3.92l25.92,51.2L449.55,148a1.87,1.87,0,0,1,1.24,3.52Z"/><path class="cls-5" d="M416.44,183.11a8.26,8.26,0,1,1,5-10.54A8.27,8.27,0,0,1,416.44,183.11Zm-4.27-12a4.51,4.51,0,1,0,5.77,2.74A4.52,4.52,0,0,0,412.17,171.08Z"/><path class="cls-5" d="M449.81,171.27a8.26,8.26,0,1,1,5-10.54A8.27,8.27,0,0,1,449.81,171.27Zm-4.27-12a4.52,4.52,0,1,0,5.77,2.75A4.52,4.52,0,0,0,445.54,159.23Z"/><path class="cls-5" d="M413.13,151.43a1.87,1.87,0,0,1-2.34-1L397,118a1.87,1.87,0,0,1,1-2.45,1.8,1.8,0,0,1,2.46,1l13.83,32.41a1.88,1.88,0,0,1-1,2.45Z"/><path class="cls-5" d="M431.7,144.84l-.11,0a1.86,1.86,0,0,1-2.31-1.27l-9.92-33.79a1.81,1.81,0,0,1,1.27-2.32,1.87,1.87,0,0,1,2.32,1.27l9.91,33.8A1.87,1.87,0,0,1,431.7,144.84Z"/><path class="cls-5" d="M388.67,141.45a1.87,1.87,0,0,1-1.27-3.51l56.51-20.68h0a1.87,1.87,0,0,1,1.26,3.52l-56.5,20.68Z"/></g><g id="Window"><rect class="cls-5" x="459.25" y="78.82" width="147.28" height="181.97" rx="7.38"/><path class="cls-3" d="M465.41,78.82h135A6.16,6.16,0,0,1,606.53,85v15.17a0,0,0,0,1,0,0H459.25a0,0,0,0,1,0,0V85A6.16,6.16,0,0,1,465.41,78.82Z"/><path class="cls-6" d="M600.48,260.79s.14,0,.42,0a6.23,6.23,0,0,0,1.23-.23,6,6,0,0,0,3.66-3,5.93,5.93,0,0,0,.56-1.6,9.49,9.49,0,0,0,.12-1.88c0-1.33,0-2.79,0-4.37,0-3.16,0-6.8,0-10.9,0-16.4,0-40.13-.08-69.44,0-14.67,0-30.72,0-48q0-12.93,0-26.72V87.71c0-1.15,0-2.36,0-3.47A5.76,5.76,0,0,0,605,81.16a5.93,5.93,0,0,0-2.8-1.86,12.54,12.54,0,0,0-3.49-.24h-7.22l-126.12,0a6,6,0,0,0-3.71,1.33,5.86,5.86,0,0,0-2,3.37,10.27,10.27,0,0,0-.11,2v54.87c0,21.1,0,41.45,0,60.84q0,14.53,0,28.33,0,6.89,0,13.57v9.9a10.3,10.3,0,0,0,.26,3.16,5.9,5.9,0,0,0,4.35,4,17.74,17.74,0,0,0,3.11.13h15.37l23,0,69.45.08,18.88.05,4.91,0,1.67,0-1.67,0-4.91,0-18.88.05-69.45.08-23,0H467.19a17.3,17.3,0,0,1-3.2-.14,6.31,6.31,0,0,1-4.68-4.27,11.08,11.08,0,0,1-.28-3.28v-9.9q0-6.69,0-13.57,0-13.78,0-28.33c0-19.39,0-39.74,0-60.84q0-15.81,0-32.18V85.8a10.21,10.21,0,0,1,.12-2.12A6.3,6.3,0,0,1,461.28,80a6.41,6.41,0,0,1,4-1.45l126.12,0h9a7,7,0,0,1,1.83.27,6.29,6.29,0,0,1,4.45,5.33c.07,1.23,0,2.36,0,3.53v6.94q0,13.77,0,26.72c0,17.24,0,33.29,0,48,0,29.31-.07,53-.09,69.44,0,4.1,0,7.74,0,10.9,0,1.58,0,3,0,4.37a9.89,9.89,0,0,1-.13,1.91,6.6,6.6,0,0,1-.58,1.62,6.1,6.1,0,0,1-3.75,3,5.3,5.3,0,0,1-1.24.2Z"/><path class="cls-5" d="M474.24,89.49a3.41,3.41,0,1,1-3.41-3.42A3.41,3.41,0,0,1,474.24,89.49Z"/><path class="cls-5" d="M484.09,89.49a3.42,3.42,0,1,1-3.41-3.42A3.41,3.41,0,0,1,484.09,89.49Z"/><path class="cls-5" d="M493.94,89.49a3.42,3.42,0,1,1-3.42-3.42A3.42,3.42,0,0,1,493.94,89.49Z"/><rect class="cls-9" x="515.26" y="112.63" width="40.55" height="40.55" rx="3.84"/><polyline class="cls-12" points="527.64 126.83 543.89 126.83 542.29 135.86 528.9 135.86"/><polyline class="cls-12" points="523.13 124.42 527.23 124.42 529.1 138.98 541.85 139.03"/><path class="cls-12" d="M532.76,142a1.59,1.59,0,1,1-1.58-1.59A1.58,1.58,0,0,1,532.76,142Z"/><path class="cls-12" d="M541.57,142a1.59,1.59,0,1,1-1.59-1.59A1.59,1.59,0,0,1,541.57,142Z"/><line class="cls-12" x1="532.49" y1="127.12" x2="533.04" y2="135.86"/><line class="cls-12" x1="538.42" y1="127.12" x2="537.93" y2="135.86"/><line class="cls-12" x1="528.13" y1="131.49" x2="543.09" y2="131.35"/><circle class="cls-5" cx="544.73" cy="125.36" r="4.38"/><rect class="cls-3" x="482.26" y="165.03" width="45.27" height="6.05"/><rect class="cls-3" x="565.9" y="165.03" width="17.62" height="6.05"/><rect class="cls-3" x="482.26" y="177.87" width="58.51" height="6.05"/><rect class="cls-3" x="565.9" y="177.87" width="17.62" height="6.05"/><rect class="cls-3" x="482.26" y="190.71" width="27.4" height="6.05"/><rect class="cls-3" x="565.9" y="190.71" width="17.62" height="6.05"/><rect class="cls-10" x="565.9" y="202.93" width="17.62" height="6.05"/><rect class="cls-9" x="505.31" y="224.3" width="51.73" height="20.02" rx="9.5"/><text class="cls-13" transform="translate(543.13 127.46)">3</text></g><g id="Shopping_Basket" data-name="Shopping Basket"><path class="cls-9" d="M311,374.6h-68.6c-1.77,0-3,1-2.64,2.18q4.05,15.8,8.09,31.57a3.16,3.16,0,0,0,3,2.18h51.75a3.16,3.16,0,0,0,3-2.18q4-15.78,8.09-31.57C313.92,375.58,312.74,374.6,311,374.6Zm-58.65,30.72c0,.17-.1.31-.21.31h-1.37c-.12,0-.22-.14-.22-.31V394.93h1.8Zm0-12.26h-1.8v-10.4c0-.17.1-.3.22-.3h1.37c.11,0,.21.13.21.3Zm3.37,12.26c0,.17-.1.31-.22.31H254.1c-.12,0-.21-.14-.21-.31V394.93h1.8Zm0-12.26h-1.8v-10.4c0-.17.09-.3.21-.3h1.37c.12,0,.22.13.22.3Zm3.36,12.26c0,.17-.09.31-.21.31h-1.37c-.12,0-.22-.14-.22-.31V394.93h1.8Zm0-12.26h-1.8v-10.4c0-.17.1-.3.22-.3h1.37c.12,0,.21.13.21.3Zm6.74,12.26c0,.17-.1.31-.22.31H264.2c-.12,0-.21-.14-.21-.31V394.93h1.8Zm0-12.26H264v-10.4c0-.17.09-.3.21-.3h1.37c.12,0,.22.13.22.3Zm3.36,12.26c0,.17-.09.31-.21.31h-1.37c-.12,0-.22-.14-.22-.31V394.93h1.8Zm0-12.26h-1.8v-10.4c0-.17.1-.3.22-.3h1.37c.12,0,.21.13.21.3Zm3.37,12.26c0,.17-.1.31-.22.31h-1.37c-.11,0-.21-.14-.21-.31V394.93h1.8Zm0-12.26h-1.8v-10.4c0-.17.1-.3.21-.3h1.37c.12,0,.22.13.22.3Zm3.37,12.26c0,.17-.1.31-.22.31H274.3c-.12,0-.21-.14-.21-.31V394.93h1.8Zm0-12.26h-1.8v-10.4c0-.17.09-.3.21-.3h1.37c.12,0,.22.13.22.3Zm3.36,12.26c0,.17-.1.31-.21.31h-1.37c-.12,0-.22-.14-.22-.31V394.93h1.8Zm0-12.26h-1.8v-10.4c0-.17.1-.3.22-.3H279c.11,0,.21.13.21.3Zm3.37,12.26c0,.17-.1.31-.22.31H281c-.12,0-.21-.14-.21-.31V394.93h1.8Zm0-12.26h-1.8v-10.4c0-.17.09-.3.21-.3h1.37c.12,0,.22.13.22.3ZM286,405.32c0,.17-.09.31-.21.31H284.4c-.12,0-.22-.14-.22-.31V394.93H286Zm0-12.26h-1.8v-10.4c0-.17.1-.3.22-.3h1.37c.12,0,.21.13.21.3Zm3.37,12.26c0,.17-.1.31-.21.31h-1.37c-.12,0-.22-.14-.22-.31V394.93h1.8Zm0-12.26h-1.8v-10.4c0-.17.1-.3.22-.3h1.37c.11,0,.21.13.21.3Zm6.73,12.26c0,.17-.09.31-.21.31H294.5c-.12,0-.22-.14-.22-.31V394.93h1.8Zm0-12.26h-1.8v-10.4c0-.17.1-.3.22-.3h1.37c.12,0,.21.13.21.3Zm3.37,12.26c0,.17-.1.31-.22.31h-1.37c-.11,0-.21-.14-.21-.31V394.93h1.8Zm0-12.26h-1.8v-10.4c0-.17.1-.3.21-.3h1.37c.12,0,.22.13.22.3Zm3.36,12.26c0,.17-.09.31-.21.31h-1.37c-.12,0-.21-.14-.21-.31V394.93h1.79Zm0-12.26H301v-10.4c0-.17.09-.3.21-.3h1.37c.12,0,.21.13.21.3Z"/><path class="cls-9" d="M317.87,376.44a1,1,0,0,1-.9,1h-80.6a.94.94,0,0,1-.9-1v-3.59a.93.93,0,0,1,.9-1H317a.94.94,0,0,1,.9,1Z"/><path class="cls-6" d="M316.24,377.41c0,.12-17.58.23-39.26.23s-39.26-.11-39.26-.23,17.57-.24,39.26-.24S316.24,377.28,316.24,377.41Z"/><g class="cls-11"><path d="M241.46,377.41a197.23,197.23,0,0,0,33.2,3c12.38.11,26.11-.52,38.19-3Z"/></g><path class="cls-6" d="M278,376.24h0a2.07,2.07,0,0,1-2.7-1.09l-12.21-28.83a2.07,2.07,0,0,1,1.09-2.7h0a2.07,2.07,0,0,1,2.7,1.09l12.21,28.84A2.06,2.06,0,0,1,278,376.24Z"/><circle class="cls-10" cx="277.15" cy="374.32" r="1.45"/></g><g id="Bags"><path class="cls-10" d="M189.48,372.72s-.08-.58-.28-1.63a20.89,20.89,0,0,0-1.3-4.27,16.42,16.42,0,0,0-3.7-5.43,10.32,10.32,0,0,0-14.51,0,16.3,16.3,0,0,0-3.72,5.4,19.87,19.87,0,0,0-1.31,4.28c-.21,1-.25,1.62-.3,1.62a2,2,0,0,1,0-.43,11.36,11.36,0,0,1,.13-1.22,19,19,0,0,1,1.21-4.36,16.11,16.11,0,0,1,3.73-5.56,10.6,10.6,0,0,1,15,.05,16.15,16.15,0,0,1,3.71,5.58,18.6,18.6,0,0,1,1.19,4.36c.08.53.11.94.13,1.22A1.57,1.57,0,0,1,189.48,372.72Z"/><path class="cls-10" d="M193.82,372.72s-.08-.58-.29-1.63a19.69,19.69,0,0,0-1.3-4.27,16.23,16.23,0,0,0-3.69-5.43,10.32,10.32,0,0,0-14.51,0,16.15,16.15,0,0,0-3.72,5.4A20.6,20.6,0,0,0,169,371c-.2,1-.25,1.62-.29,1.62a2,2,0,0,1,0-.43,11.36,11.36,0,0,1,.13-1.22,18.46,18.46,0,0,1,1.21-4.36,16.11,16.11,0,0,1,3.73-5.56,10.6,10.6,0,0,1,15,.05,16,16,0,0,1,3.7,5.58,18.22,18.22,0,0,1,1.2,4.36,10.82,10.82,0,0,1,.12,1.22A2,2,0,0,1,193.82,372.72Z"/><polygon class="cls-2" points="151.95 371.17 200.94 370.8 202 437.57 147.04 437.57 151.95 371.17"/><polygon class="cls-3" points="200.94 370.8 207.09 370.8 212.38 437.57 202 437.57 200.94 370.8"/><rect class="cls-5" x="158.49" y="397.09" width="32.07" height="5.37"/><path class="cls-6" d="M167.15,388.4a30.68,30.68,0,0,0-1.46-6.09,17.33,17.33,0,0,0-3.34-5.59,8.5,8.5,0,0,0-13.07-.05,17.13,17.13,0,0,0-3.37,5.58,30.2,30.2,0,0,0-1.47,6.08,1.31,1.31,0,0,1,0-.45c0-.29,0-.71.11-1.26a21.31,21.31,0,0,1,1.08-4.51,17.14,17.14,0,0,1,3.38-5.77,8.79,8.79,0,0,1,13.61.05,17,17,0,0,1,3.35,5.79,21.18,21.18,0,0,1,1.07,4.51c.07.55.1,1,.11,1.27A2.44,2.44,0,0,1,167.15,388.4Z"/><path class="cls-6" d="M171.07,388.4a30.68,30.68,0,0,0-1.46-6.09,17.15,17.15,0,0,0-3.34-5.59,8.5,8.5,0,0,0-13.07-.05,17.09,17.09,0,0,0-3.36,5.58,29.89,29.89,0,0,0-1.48,6.08,1.73,1.73,0,0,1,0-.45c0-.29,0-.71.11-1.26a22,22,0,0,1,1.08-4.51,17.14,17.14,0,0,1,3.38-5.77,8.79,8.79,0,0,1,13.61.05,17,17,0,0,1,3.35,5.79,21.18,21.18,0,0,1,1.07,4.51c.07.55.1,1,.11,1.27A2.44,2.44,0,0,1,171.07,388.4Z"/><polygon class="cls-10" points="131.26 385.76 175.54 385.45 176.51 440.4 126.81 440.4 131.26 385.76"/><polygon class="cls-10" points="175.54 385.45 181.1 385.45 185.89 440.4 176.51 440.4 175.54 385.45"/><g class="cls-11"><polygon points="175.54 385.45 181.1 385.45 185.89 440.4 176.51 440.4 175.54 385.45"/></g><rect class="cls-5" x="139" y="404.12" width="28.99" height="5.55"/><path class="cls-6" d="M490.54,403.09a21.88,21.88,0,0,0-1-4.35,12,12,0,0,0-2.38-4,6.06,6.06,0,0,0-9.33,0,12.05,12.05,0,0,0-2.4,4,20.59,20.59,0,0,0-1.05,4.34s0-.11,0-.32a8.37,8.37,0,0,1,.09-.9,14.6,14.6,0,0,1,.77-3.22,12.06,12.06,0,0,1,2.41-4.12,6.27,6.27,0,0,1,9.71,0,12.18,12.18,0,0,1,2.39,4.13,15.2,15.2,0,0,1,.77,3.22,7.4,7.4,0,0,1,.07.9A1.3,1.3,0,0,1,490.54,403.09Z"/><path class="cls-6" d="M493.34,403.09a21.88,21.88,0,0,0-1-4.35,12.15,12.15,0,0,0-2.38-4,6.06,6.06,0,0,0-9.33,0,12.05,12.05,0,0,0-2.4,4,22,22,0,0,0-1.06,4.34,1.3,1.3,0,0,1,0-.32c0-.21,0-.51.08-.9a15.34,15.34,0,0,1,.78-3.22,12.19,12.19,0,0,1,2.4-4.12,6.28,6.28,0,0,1,9.72,0,12.18,12.18,0,0,1,2.39,4.13,15.07,15.07,0,0,1,.76,3.22,7.86,7.86,0,0,1,.08.9A1.3,1.3,0,0,1,493.34,403.09Z"/><polygon class="cls-10" points="464.93 401.2 496.53 400.99 497.22 440.2 461.76 440.2 464.93 401.2"/><polygon class="cls-10" points="496.53 400.99 500.5 400.99 503.92 440.2 497.22 440.2 496.53 400.99"/><g class="cls-11"><polygon points="496.53 400.99 500.5 400.99 503.92 440.2 497.22 440.2 496.53 400.99"/></g><rect class="cls-5" x="470.45" y="414.31" width="20.69" height="3.96"/></g><g id="Speech_Bubble_2" data-name="Speech Bubble 2"><path class="cls-5" d="M369.51,298.52l-6.93-.41a22.35,22.35,0,1,1,4.79-6.42h0Z"/><path class="cls-6" d="M369.51,298.52l-.12-.44c-.09-.3-.22-.73-.4-1.3-.35-1.17-.88-2.88-1.56-5.12l0-.09-.07.07h0l.1.07A22.48,22.48,0,0,0,369.78,281a22.19,22.19,0,0,0-.38-3.45,23.87,23.87,0,0,0-1-3.58,22.13,22.13,0,0,0-4.13-7,22.52,22.52,0,0,0-16.47-7.68,22.14,22.14,0,0,0-10,2.17,21.88,21.88,0,0,0-8.3,6.75c-.28.38-.56.74-.82,1.12l-.71,1.18-.35.59-.3.62-.59,1.23c-.18.42-.31.85-.47,1.27a12,12,0,0,0-.43,1.28,21.77,21.77,0,0,0-.58,2.61,22.25,22.25,0,0,0,5.52,18.67,22.35,22.35,0,0,0,15.11,7.31,24.32,24.32,0,0,0,3.73,0,31.07,31.07,0,0,0,3.42-.62,22.17,22.17,0,0,0,9.6-5.3l0,0,5.19.27,1.32.06.43,0-.46,0-1.33-.09-5.14-.33h0l0,0a22.24,22.24,0,0,1-9.57,5.21,31.19,31.19,0,0,1-3.4.6,25.28,25.28,0,0,1-3.7,0,22.3,22.3,0,0,1-14.94-7.27,22,22,0,0,1-5.43-18.46,19.18,19.18,0,0,1,.57-2.58,11.11,11.11,0,0,1,.42-1.27c.16-.42.29-.84.47-1.26l.58-1.21.29-.61.35-.58c.24-.39.47-.78.7-1.17s.54-.74.81-1.1a22.24,22.24,0,0,1,18.09-8.83,22.31,22.31,0,0,1,16.3,7.57,22.1,22.1,0,0,1,4.11,6.89,23.2,23.2,0,0,1,1,3.55,20.61,20.61,0,0,1,.39,3.42,22.44,22.44,0,0,1-2.28,10.66l-.19.38.28-.31h0l-.1,0,1.62,5.06.42,1.31Z"/><path class="cls-9" d="M354.83,284.57H342.61a.43.43,0,1,1,0-.85h11.87l1.3-7.4H341.46a.42.42,0,1,1,0-.84h14.83a.39.39,0,0,1,.32.15.39.39,0,0,1,.1.34l-1.46,8.25A.43.43,0,0,1,354.83,284.57Z"/><path class="cls-9" d="M354.43,287.45h0l-11.64,0a.43.43,0,0,1-.42-.37l-1.65-12.91h-3.37a.43.43,0,0,1,0-.85h3.74a.43.43,0,0,1,.42.37l1.66,12.92,11.27,0a.42.42,0,0,1,.42.42A.42.42,0,0,1,354.43,287.45Z"/><path class="cls-9" d="M344.68,291.6a1.88,1.88,0,1,1,1.88-1.88A1.88,1.88,0,0,1,344.68,291.6Zm0-2.9a1,1,0,1,0,1,1A1,1,0,0,0,344.68,288.7Z"/><path class="cls-9" d="M352.72,291.6a1.88,1.88,0,1,1,1.87-1.88A1.88,1.88,0,0,1,352.72,291.6Zm0-2.9a1,1,0,1,0,1,1A1,1,0,0,0,352.72,288.7Z"/><path class="cls-9" d="M346.38,284.57a.42.42,0,0,1-.42-.4l-.5-8a.43.43,0,0,1,.4-.45.42.42,0,0,1,.45.4l.49,8a.42.42,0,0,1-.39.45Z"/><path class="cls-9" d="M350.85,284.57h0a.42.42,0,0,1-.4-.45l.44-8a.42.42,0,0,1,.45-.4.44.44,0,0,1,.4.45l-.45,8A.42.42,0,0,1,350.85,284.57Z"/><path class="cls-9" d="M341.91,280.58a.44.44,0,0,1-.43-.42.43.43,0,0,1,.42-.43l13.66-.13h0a.43.43,0,0,1,0,.85l-13.66.13Z"/></g><g id="Speech_Bubble_1" data-name="Speech Bubble 1"><path class="cls-5" d="M62.83,115.73l-6.94-.4a22.39,22.39,0,1,1,4.79-6.43h0Z"/><path class="cls-6" d="M62.83,115.73l-.13-.43-.39-1.3c-.36-1.17-.88-2.89-1.57-5.12l0-.1-.07.08h0l.09.06a22.17,22.17,0,0,0,2.36-10.72,20.92,20.92,0,0,0-.38-3.45,25.17,25.17,0,0,0-1-3.59,22.47,22.47,0,0,0-4.14-7,22.24,22.24,0,0,0-7.1-5.41,22.29,22.29,0,0,0-19.37-.1,22,22,0,0,0-8.3,6.76L22,86.56c-.23.4-.47.79-.71,1.19l-.35.58-.3.62L20,90.18c-.18.42-.32.85-.48,1.27a12,12,0,0,0-.42,1.28,20.14,20.14,0,0,0-.58,2.62,22.39,22.39,0,0,0,12.74,24,22.37,22.37,0,0,0,7.88,2,25.76,25.76,0,0,0,3.74,0,29.26,29.26,0,0,0,3.42-.62,22.23,22.23,0,0,0,9.6-5.29h0l5.18.27,1.32.07h.44l-.46,0L61,115.61l-5.14-.34h0a22.18,22.18,0,0,1-9.57,5.21,28.42,28.42,0,0,1-3.39.6,24,24,0,0,1-3.7,0,22,22,0,0,1-7.8-2A22.11,22.11,0,0,1,18.81,95.39a21.26,21.26,0,0,1,.57-2.58c.1-.44.28-.84.42-1.27s.3-.84.47-1.25.39-.81.58-1.22l.3-.61.35-.58c.23-.39.46-.78.7-1.17s.54-.73.8-1.1a21.76,21.76,0,0,1,8.21-6.68,22.16,22.16,0,0,1,9.88-2.15A22.39,22.39,0,0,1,50.36,79,22.12,22.12,0,0,1,61.5,91.24a23.52,23.52,0,0,1,1,3.55,21.91,21.91,0,0,1,.4,3.42,22.33,22.33,0,0,1-2.29,10.67l-.18.37.27-.31h0l-.09,0c.7,2.21,1.24,3.91,1.61,5.06l.43,1.31C62.77,115.58,62.83,115.73,62.83,115.73Z"/><path class="cls-9" d="M49.14,95.89a5.41,5.41,0,0,0-1.56-2.79,5.19,5.19,0,0,0-2.78-1.46,4.24,4.24,0,0,0-3.17.85,4.29,4.29,0,0,0-1.22,1.58,4.11,4.11,0,0,0-4.57-1.65,5.06,5.06,0,0,0-2.55,1.82,5.26,5.26,0,0,0-1.17,3,6.5,6.5,0,0,0,1.08,3.93,9.1,9.1,0,0,0,3.35,2.73c2.14,1.1,5,2.47,5,2.47s2.17-1.87,4.15-3.25a9.11,9.11,0,0,0,2.94-3.17A6.5,6.5,0,0,0,49.14,95.89Z"/></g><g id="Character_3" data-name="Character 3"><polygon class="cls-3" points="671.11 242.8 717.91 286.59 708.11 297.22 666.31 248.32 671.11 242.8"/><polygon class="cls-3" points="708.11 297.22 676.5 301.16 651.56 254.76 666.31 248.32 708.11 297.22"/><path class="cls-6" d="M708.11,297.22a16.67,16.67,0,0,1-.62-2.88c-.32-1.8-.73-4.29-1.16-7.09l0-.28h.28l.61,0c3-.16,5.64-.28,7.58-.34a19.09,19.09,0,0,1,3.15,0,19.51,19.51,0,0,1-3.13.36c-1.93.15-4.61.33-7.57.49l-.61,0,.24-.29c.43,2.79.78,5.3,1,7.11A17,17,0,0,1,708.11,297.22Z"/><path class="cls-6" d="M668.78,245.46c.1-.1,8.65,9.17,19.09,20.7s18.82,21,18.72,21-8.66-9.17-19.1-20.7S668.67,245.56,668.78,245.46Z"/><g class="cls-11"><polygon points="708.11 297.22 676.5 301.16 651.56 254.76 666.31 248.32 708.11 297.22"/></g><polygon class="cls-10" points="706.15 304.47 691.66 316.81 666.15 254.15 667.39 253.39 706.15 304.47"/><polygon class="cls-10" points="691.66 316.81 668.58 311.12 651.11 257.49 666.15 254.15 691.66 316.81"/><g class="cls-11"><polygon points="691.66 316.81 668.58 311.12 651.11 257.49 666.15 254.15 691.66 316.81"/></g><path class="cls-6" d="M691.66,316.81a4.25,4.25,0,0,1,.12-1c.11-.64.28-1.57.51-2.72.45-2.3,1.11-5.47,1.87-9,.12-.54.23-1.07.34-1.57l0-.24.25,0c3.15.56,5.94,1.08,7.94,1.47a24.45,24.45,0,0,1,3.19.73,20.17,20.17,0,0,1-3.25-.39c-2-.3-4.82-.76-8-1.3l.3-.2c-.11.5-.23,1-.34,1.57-.76,3.49-1.48,6.64-2,8.92-.27,1.14-.5,2.06-.67,2.7A3.51,3.51,0,0,1,691.66,316.81Z"/><path class="cls-6" d="M666.73,253.9c.13-.07,6.5,10.77,14.24,24.22s13.91,24.4,13.78,24.47-6.49-10.76-14.23-24.21S666.61,254,666.73,253.9Z"/><polygon class="cls-9" points="661.25 252.74 681.44 299.51 664.91 305.25 659.94 253.02 661.25 252.74"/><polygon class="cls-9" points="664.91 305.25 649.57 301.78 647.46 254.67 659.94 253.02 664.91 305.25"/><g class="cls-11"><polygon points="664.91 305.25 649.57 301.78 647.46 254.67 659.94 253.02 664.91 305.25"/></g><path class="cls-6" d="M664.91,305.25a16.92,16.92,0,0,1,1.85-2.5c1.19-1.5,2.87-3.56,4.74-5.8l.62-.73.11-.14.17.06c2.56.88,4.83,1.69,6.46,2.3a15.91,15.91,0,0,1,2.58,1.07,15.14,15.14,0,0,1-2.7-.74c-1.65-.52-3.94-1.27-6.51-2.14l.29-.08-.62.73c-1.87,2.25-3.6,4.26-4.86,5.71A18.85,18.85,0,0,1,664.91,305.25Z"/><path class="cls-6" d="M660.61,252.87c.14,0,2.87,9.68,6.11,21.69s5.74,21.79,5.6,21.82-2.88-9.67-6.11-21.68S660.47,252.91,660.61,252.87Z"/><polygon class="cls-6" points="671.11 242.8 654.17 250.58 655.88 252.88 666.31 248.32 671.11 242.8"/><polygon class="cls-6" points="667.39 253.39 662.03 254.53 662.27 255.01 666.15 254.15 667.39 253.39"/><path class="cls-9" d="M661.74,186.56s5.68,7.33,6.29,12c.51,3.84,3.28,24.65,4.69,34.45a14.43,14.43,0,0,1-3,11.26c-2.45,3-6.15,5-11.15,1.54-3.44-2.41-12.24-12.26-12.24-12.26l14.47-45.33"/><path class="cls-6" d="M646.06,123.77a11.08,11.08,0,0,0-8.51.88,6.57,6.57,0,0,0-11.34,1.74,5.56,5.56,0,0,0-5.58,9.47,7.14,7.14,0,0,0-3,10.86c-2.14,1-2.5,3.93-2.19,6.29s1,4.88-.06,7c-.82,1.65-2.5,2.67-3.65,4.1s-1.56,3.89,0,4.86a5,5,0,1,0,1.8,9.76,6.09,6.09,0,0,0,.65,5.84,9.83,9.83,0,0,0,4.88,3.56A14.61,14.61,0,0,0,635,183.65l17.57-54.35A11.05,11.05,0,0,0,646.06,123.77Z"/><path class="cls-14" d="M654.42,138.83l.24-2.93-17.43-4.42c-5.4-.9-11.61,4.19-12.28,9.63-.75,6-1.42,13.44-1,18,.9,9.18,7.8,10.75,7.8,10.75l-.5,9,20.09,1.47Z"/><path class="cls-6" d="M627.08,149.77a1.16,1.16,0,0,0,1,1.24,1.11,1.11,0,0,0,1.27-1,1.17,1.17,0,0,0-1-1.25A1.12,1.12,0,0,0,627.08,149.77Z"/><path class="cls-6" d="M626.64,145.09c.13.16,1.06-.44,2.31-.36s2.14.76,2.28.61-.06-.34-.44-.66A3.21,3.21,0,0,0,629,144a3,3,0,0,0-1.85.48C626.72,144.75,626.57,145,626.64,145.09Z"/><path class="cls-6" d="M638.08,150.45a1.19,1.19,0,0,0,1.06,1.25,1.12,1.12,0,0,0,1.26-1,1.17,1.17,0,0,0-1-1.25A1.13,1.13,0,0,0,638.08,150.45Z"/><path class="cls-6" d="M639,146.06c.14.17,1.06-.43,2.31-.36s2.14.77,2.29.62-.06-.35-.45-.66a3.22,3.22,0,0,0-3.67-.21C639,145.73,638.89,146,639,146.06Z"/><path class="cls-6" d="M633.85,155.1a8.69,8.69,0,0,0-2-.49c-.32-.05-.62-.14-.66-.36a1.66,1.66,0,0,1,.27-.94c.35-.75.71-1.55,1.1-2.38a42,42,0,0,0,2.51-6.25,41.14,41.14,0,0,0-3,6l-1.06,2.4a1.92,1.92,0,0,0-.24,1.25.78.78,0,0,0,.5.5,2,2,0,0,0,.54.11A8.08,8.08,0,0,0,633.85,155.1Z"/><path class="cls-15" d="M631.77,169.9a24.14,24.14,0,0,0,12.69-2.52s-3.45,6.18-12.82,4.79Z"/><path class="cls-6" d="M639.25,141.73c.12.34,1.38.18,2.86.36s2.66.58,2.86.27c.09-.14-.12-.46-.6-.8a5,5,0,0,0-4.36-.48C639.47,141.3,639.2,141.57,639.25,141.73Z"/><path class="cls-6" d="M626.94,142c.2.3,1.09.06,2.13.12s1.9.33,2.13,0c.09-.14,0-.43-.39-.73a3.11,3.11,0,0,0-3.43-.13C627,141.55,626.85,141.83,626.94,142Z"/><path class="cls-6" d="M625,134.57a15.24,15.24,0,0,1,8.3-5.48L648,130.94l1.25,0c.28-.93,1.84-1.42,1.84-1.42,1.39-1.06,6.18-1.12,9.52,2.38,1.21,1.26,2.06,4.42,2.09,6.17,0,.66-.7,1.56-.14,1.92a16.36,16.36,0,0,0,2,.15c3.75.82,6.09,4.14,5.41,9.1a2.74,2.74,0,0,0-.08.75,2.07,2.07,0,0,0,.66,1,6.5,6.5,0,0,1,1,7.23,7.35,7.35,0,0,0-1,2.17c-.23,1.42.81,2.68,1.61,3.87,2.4,3.57,2.91,8.75.09,12a6.92,6.92,0,0,0-1.82,2.51,5.6,5.6,0,0,0-.08,1.53c0,2.59-1.35,5.49-3.88,6-1.41.31-3.12-.09-4.12.94a6,6,0,0,0-.89,1.65,5.25,5.25,0,0,1-6.06,2.6c-2.28-.7-3-10-2.71-12.34-2.77-1-4.82-1.18-4.69-4.13,0,0,.43-5.06-.39-7.53s.83-7.71,1.76-10.26-.18-8.48-.43-10.84a8.78,8.78,0,0,1,.2-2h0c.1-.58.24-1.22.39-1.92s.59-4.08.58-4.69c0-2.23-2.8-1-4.92-.32a5.3,5.3,0,0,1-1.58.28,5.67,5.67,0,0,1-4.55-2.15,8.13,8.13,0,0,1-8,2.19,22.46,22.46,0,0,1-3.81,4.43,7.45,7.45,0,0,1-5.39,1.85A15.25,15.25,0,0,1,625,134.57Z"/><path class="cls-15" d="M634.75,158.14a2.24,2.24,0,0,1,2-.92,2,2,0,0,1,1.44.68,1.3,1.3,0,0,1,.17,1.46,1.47,1.47,0,0,1-1.59.49,4.69,4.69,0,0,1-1.62-.86,1.24,1.24,0,0,1-.37-.35.41.41,0,0,1,0-.45"/><path class="cls-6" d="M637.75,155.87c-.2,0-.14,1.34-1.23,2.34s-2.53.93-2.53,1.12.33.24.93.23a3.33,3.33,0,0,0,2.12-.86,2.84,2.84,0,0,0,.94-2C638,156.18,637.84,155.86,637.75,155.87Z"/><path class="cls-10" d="M609.81,395.43l1.66,17.26s-18.81,7-19,10.5l35.57.1,0-2.6-1.5-8.88-2.19-17.25Z"/><path class="cls-3" d="M622.17,410a1.47,1.47,0,0,1,1,1.69,1.43,1.43,0,0,1-1.67,1,1.57,1.57,0,0,1-1.08-1.8,1.49,1.49,0,0,1,1.86-.89"/><path class="cls-6" d="M628,423.29l0-2.6-34.11.65s-1.62.71-1.44,1.85Z"/><path class="cls-6" d="M610.88,412.5c0,.18.89.26,1.77.83s1.34,1.31,1.51,1.24-.11-1.09-1.18-1.77S610.84,412.34,610.88,412.5Z"/><path class="cls-6" d="M607.06,414.09c0,.17.73.47,1.34,1.22s.78,1.55,1,1.54.29-1-.48-1.93S607.07,413.92,607.06,414.09Z"/><path class="cls-6" d="M604.91,418.66c.16,0,.4-.85,0-1.82s-1.3-1.36-1.37-1.21.44.67.81,1.47S604.73,418.65,604.91,418.66Z"/><path class="cls-6" d="M609.62,408.35c.07.16.89-.08,1.89,0s1.79.38,1.88.23-.66-.78-1.85-.84S609.53,408.21,609.62,408.35Z"/><path class="cls-10" d="M653.51,395.92l1.53,17s-18.53,6.79-18.75,10.2l34.94.31v-2.55l-1.41-8.73-2-17Z"/><path class="cls-3" d="M665.57,410.31a1.46,1.46,0,0,1,1,1.67,1.4,1.4,0,0,1-1.64,1,1.53,1.53,0,0,1-1.06-1.77,1.45,1.45,0,0,1,1.83-.86"/><path class="cls-6" d="M671.23,423.39v-2.55l-33.51.44s-1.59.68-1.42,1.8Z"/><path class="cls-6" d="M654.46,412.7c0,.17.88.25,1.73.82s1.31,1.3,1.48,1.23-.1-1.08-1.15-1.74S654.42,412.54,654.46,412.7Z"/><path class="cls-6" d="M650.7,414.23c0,.17.72.47,1.31,1.21s.76,1.52.93,1.52.29-1-.46-1.9S650.71,414.07,650.7,414.23Z"/><path class="cls-6" d="M648.56,418.71c.15,0,.4-.83,0-1.79s-1.26-1.34-1.34-1.19.43.65.78,1.45S648.38,418.7,648.56,418.71Z"/><path class="cls-6" d="M653.24,408.61c.08.16.88-.08,1.86,0s1.76.39,1.85.24-.65-.78-1.81-.84S653.16,408.47,653.24,408.61Z"/><path class="cls-6" d="M609,245.34s-8.43,24.42-8.72,42.58-.58,47,3.2,78.89S609,411.47,609,411.47h19.19A376.55,376.55,0,0,0,630,373.66c-.29-17.86-1.69-23.52,0-43.17s4.43-31.45,7.29-37.41c0,0,7.92-9.41,8.5-22.32a63,63,0,0,0-4-24Z"/><path class="cls-6" d="M626.09,279.59c.32,1,6,41,10.16,58.66s8.78,22.33,9.59,36.69c.93,16.52,5.46,36.53,5.46,36.53h20.43s-2.87-30.53-5.74-54.4-7-53.28-6.39-62.11,2.24-19.73,0-32.1-7.06-15.62-7.06-15.62l-17.33-.79Z"/><path class="cls-10" d="M645.32,256.7a4.52,4.52,0,0,1,.31.62,12,12,0,0,1,.7,1.88,25.08,25.08,0,0,1,.67,7.32,48.55,48.55,0,0,1-1.68,10.77,34.08,34.08,0,0,1-2.23,6.06,43.6,43.6,0,0,1-3.69,5.85c-2.78,3.83-4.15,8.19-5.19,12.12A86.58,86.58,0,0,0,632.28,312c-.38,3.07-.61,5.57-.78,7.29-.08.84-.15,1.5-.2,2a6.65,6.65,0,0,1-.09.69,3.71,3.71,0,0,1,0-.7l.12-2c.12-1.73.3-4.23.64-7.32a82.82,82.82,0,0,1,1.85-10.74,52.22,52.22,0,0,1,1.94-6.15,28.74,28.74,0,0,1,1.42-3.11,32.39,32.39,0,0,1,1.86-3,43.48,43.48,0,0,0,3.67-5.8,35.13,35.13,0,0,0,2.22-6,49.31,49.31,0,0,0,1.76-10.67,26.39,26.39,0,0,0-.53-7.27,14.13,14.13,0,0,0-.62-1.88A3.91,3.91,0,0,1,645.32,256.7Z"/><path class="cls-14" d="M564.11,195.49a57.82,57.82,0,0,0,9.88,4.08l7.13-5.7s-5.1-9.32-6.74-12a14.14,14.14,0,0,1-1.33-2.82c-.55-2-2-1.15-2.28.42a8.6,8.6,0,0,0,.45,2.51,7.45,7.45,0,0,1,.49,3s-.52-.44-1.8-1.31-6.12-4.87-8.11-6.52c-3-2.46-4.48-.94-4.09,0,.48,1.18,7.88,6.36,7.61,7.24,0,0-1.42.81-1.62,1.73a4.78,4.78,0,0,0,0,1.84s-1.33.13-1.69,1a3.33,3.33,0,0,0,.1,2.07s-1.24.11-1.38.78S561.46,193.91,564.11,195.49Z"/><path class="cls-9" d="M579.93,191.31c.11.32,15.3,15.87,15.3,15.87s12.67-14.27,16.53-19.53,9.71-11.69,14.74-12.89,12,2,12,2l-8.92,18.34-11.27,15.49s-12.17,15.28-18,17.64-11.46-1-13.93-3.6-17.08-24.8-17.08-24.8Z"/><path class="cls-9" d="M664.54,180.81l-34.95-6.05s-9.7,17.08-13.33,35-7.77,35.88-7.77,35.88l32.28,4a37.21,37.21,0,0,0,10.11-.14l3.37-.51-2.77-11.4a229.66,229.66,0,0,0,10-29.49C665.8,190.48,664.54,180.81,664.54,180.81Z"/><path class="cls-6" d="M628.78,197.88a4.23,4.23,0,0,1-.57.77l-1.63,2c-1.39,1.69-3.26,4-5.34,6.66s-4,4.95-5.44,6.59c-.73.82-1.32,1.48-1.75,1.92a3.83,3.83,0,0,1-.69.65,4,4,0,0,1,.57-.76l1.63-2c1.39-1.68,3.27-4,5.34-6.66s4-4.94,5.44-6.59c.73-.82,1.32-1.47,1.75-1.91A4.77,4.77,0,0,1,628.78,197.88Z"/><path class="cls-6" d="M651,238.12a9.49,9.49,0,0,1-2.19.63,31.93,31.93,0,0,1-5.47.68,33,33,0,0,1-5.5-.25,10,10,0,0,1-2.23-.46,14.83,14.83,0,0,1,2.27.16,47.27,47.27,0,0,0,5.45.13,47.79,47.79,0,0,0,5.42-.55A18.87,18.87,0,0,1,651,238.12Z"/><path class="cls-6" d="M594.89,216.44a22.43,22.43,0,0,1-.15-4.43,22.82,22.82,0,0,1,.27-4.42,22.43,22.43,0,0,1,.15,4.43A23.81,23.81,0,0,1,594.89,216.44Z"/><g class="cls-11"><path d="M663.41,184.78l-21.83-1.95a3.65,3.65,0,0,0,2.31,4.76,7.07,7.07,0,0,0,5.61,10.54,6.29,6.29,0,0,1,1.74.22c1.21.43,1.79,1.76,2.52,2.82a6.62,6.62,0,0,0,4.07,2.83,4.83,4.83,0,0,0,4.59-1.53,8,8,0,0,0,1.33-4.78A84.35,84.35,0,0,0,663.41,184.78Z"/></g><g class="cls-11"><path d="M614.94,214.92a15.44,15.44,0,0,0,12.35-15.77C622.71,204.11,618.86,210.46,614.94,214.92Z"/></g><path class="cls-6" d="M668.43,171.32,649.8,150.58c.68,5.27-1.3,10.5-3.69,15.24-1.35,2.7-2.87,5.91-1.44,8.57a17.8,17.8,0,0,0-3.08,4.21,6,6,0,0,0-.2,5.05,3.66,3.66,0,0,0,4.34,2,5.68,5.68,0,0,0,7.84,7,9,9,0,0,0,3.48,5.43,6,6,0,0,0,6.24.41,4.51,4.51,0,0,0,1.84-5.7c4.1-.9,6.66-5.32,6.79-9.52S670.28,175.09,668.43,171.32Z"/><path class="cls-10" d="M629.89,137.12s-.09.06-.3.13a2.65,2.65,0,0,1-1,.06,3.75,3.75,0,0,1-2.82-1.94,3.63,3.63,0,0,1-.39-2.4,4.94,4.94,0,0,1,1.28-2.49,5.25,5.25,0,0,1,2.67-1.53,7.13,7.13,0,0,1,3.31,0,9.45,9.45,0,0,1,1.81.64l-.29.11a7.69,7.69,0,0,1,3.91-4,7.26,7.26,0,0,1,4.5-.47,7.47,7.47,0,0,1,2.76,1.22,5.28,5.28,0,0,1,.63.53.87.87,0,0,1,.18.21s-.31-.23-.9-.61a7.71,7.71,0,0,0-2.73-1.07,7.08,7.08,0,0,0-4.29.53,7.42,7.42,0,0,0-3.67,3.84l-.08.21-.2-.1a9.3,9.3,0,0,0-1.73-.61,6.82,6.82,0,0,0-3.11,0,4.93,4.93,0,0,0-2.49,1.4,4.64,4.64,0,0,0-1.22,2.28,3.43,3.43,0,0,0,.31,2.2,3.69,3.69,0,0,0,2.58,1.92A3.94,3.94,0,0,0,629.89,137.12Z"/><path class="cls-10" d="M669.4,150.17s.15-.39.35-1.1a7.29,7.29,0,0,0,.17-3.12,6.69,6.69,0,0,0-2.19-4,7,7,0,0,0-5.33-1.74l-.31,0,.09-.3a9.06,9.06,0,0,0,.32-1.92,8.69,8.69,0,0,0-2-6,8.31,8.31,0,0,0-4.48-2.68,8.83,8.83,0,0,0-3.58-.11c-.84.15-1.29.32-1.31.28l.32-.15a7.07,7.07,0,0,1,1-.3,8.7,8.7,0,0,1,3.68,0,8.55,8.55,0,0,1,4.71,2.72,9,9,0,0,1,2.15,6.29,9.28,9.28,0,0,1-.34,2l-.23-.27a7.41,7.41,0,0,1,5.64,1.88,6.9,6.9,0,0,1,2.21,4.25,7.1,7.1,0,0,1-.3,3.2,4.4,4.4,0,0,1-.34.8A1.94,1.94,0,0,1,669.4,150.17Z"/><path class="cls-10" d="M651.6,185.68s-.09,0-.26-.16a6.62,6.62,0,0,1-.66-.56,7.72,7.72,0,0,1-1.71-2.72,7.53,7.53,0,0,1-.16-4.74,7.8,7.8,0,0,1,3.66-4.49,7.38,7.38,0,0,1,2.29-.84l-.12.35a5.9,5.9,0,0,1-1.42-4.74,5.66,5.66,0,0,1,4.31-4.66,3.45,3.45,0,0,1,.71-.1c.16,0,.25,0,.25,0s-.34.06-.92.23a6,6,0,0,0-2.23,1.26,5.36,5.36,0,0,0-1.76,3.31,5.63,5.63,0,0,0,1.37,4.41l.25.28-.37.07a6.88,6.88,0,0,0-2.16.79,7.58,7.58,0,0,0-3.49,4.23,7.37,7.37,0,0,0,.08,4.53,7.89,7.89,0,0,0,1.54,2.7C651.3,185.4,651.63,185.65,651.6,185.68Z"/><path class="cls-6" d="M651.3,140.06l-.58-2.63a19.12,19.12,0,0,0-1.87,12.34c.35,1.94,1,4,.16,5.8-.57,1.22-1.75,2.05-2.42,3.22-.85,1.47-.22,5.36-.44,6.12-.5,1.74-2.19,2.86-2.58,5s.1,4.65,2,5.66c3.56-5.88,7.2-12,8-18.8C654.3,151.12,653,145.45,651.3,140.06Z"/><path class="cls-10" d="M662.09,154.14a.86.86,0,0,1-.3,0,5.81,5.81,0,0,1-.86-.09,5.87,5.87,0,0,1-2.92-1.31,4.58,4.58,0,0,1-1.28-1.85,3.42,3.42,0,0,1,0-2.59,3.16,3.16,0,0,1,2.2-1.83,2.29,2.29,0,0,1,1.57.22,1.48,1.48,0,0,1,.76,1.48,1.2,1.2,0,0,1-.48.77,1.72,1.72,0,0,1-.82.26,3,3,0,0,1-1.52-.37,7.25,7.25,0,0,1-3.43-9.29,5.66,5.66,0,0,1,.4-.77,1.11,1.11,0,0,1,.19-.25s-.18.38-.43,1.08a7.35,7.35,0,0,0-.42,3.07,7,7,0,0,0,1.76,4.15,6.84,6.84,0,0,0,2.12,1.64,2.62,2.62,0,0,0,1.31.32.88.88,0,0,0,.9-.68,1.05,1.05,0,0,0-.55-1,2,2,0,0,0-1.28-.19,2.8,2.8,0,0,0-1.93,1.59,3.08,3.08,0,0,0-.06,2.31,4.27,4.27,0,0,0,1.14,1.75A6,6,0,0,0,661,153.9C661.68,154.07,662.1,154.1,662.09,154.14Z"/><path class="cls-6" d="M653.59,248.34a4.87,4.87,0,0,1-.26-.81c-.17-.6-.37-1.36-.63-2.3-.52-2.07-1.24-4.88-2.09-8.24l0-.06,0-.06c1-3.36,2.38-7.3,3.9-11.48,2.24-6.2,4.42-11.75,6-15.76.79-1.94,1.44-3.54,1.92-4.74l.55-1.27a2.79,2.79,0,0,1,.22-.44,1.37,1.37,0,0,1-.12.47c-.13.36-.28.79-.46,1.32-.44,1.21-1,2.83-1.76,4.79-1.51,4.05-3.63,9.62-5.87,15.81-1.52,4.17-2.88,8.1-4,11.44v-.12l1.92,8.28c.2,1,.37,1.72.5,2.33A3.92,3.92,0,0,1,653.59,248.34Z"/><path class="cls-6" d="M658.87,232.34c.08,0-.07,1.3-.09,3.38a52.38,52.38,0,0,0,.57,8.09,27.82,27.82,0,0,0,2.2,7.76,19.73,19.73,0,0,0,1.78,2.84s-.27-.19-.69-.61a9.54,9.54,0,0,1-1.42-2.06,24.59,24.59,0,0,1-2.38-7.85,40.91,40.91,0,0,1-.43-8.18c.06-1.05.16-1.9.25-2.48A2.91,2.91,0,0,1,658.87,232.34Z"/><path class="cls-6" d="M659,231.9a3.89,3.89,0,0,1-.4.75,11.36,11.36,0,0,0-.76,2.15,35.67,35.67,0,0,0-1,7.54,38.18,38.18,0,0,0,.44,7.59c.32,1.92.77,3,.68,3.09a2.78,2.78,0,0,1-.38-.77,6.87,6.87,0,0,1-.33-.95,10.66,10.66,0,0,1-.33-1.3,31.53,31.53,0,0,1-.6-7.68,29.48,29.48,0,0,1,1.13-7.62,9.31,9.31,0,0,1,.93-2.16C658.73,232.09,659,231.88,659,231.9Z"/><path class="cls-6" d="M659.42,232.85a26.73,26.73,0,0,1-2.35-4.7,27.33,27.33,0,0,1-1.87-4.91,26,26,0,0,1,2.35,4.7A26.73,26.73,0,0,1,659.42,232.85Z"/></g><g id="Character_2" data-name="Character 2"><path class="cls-10" d="M406.58,426.89l16.6,8.86s-4.94,21.23-1.92,23.5l21.44-32.09-2.36-1.54-8.93-4-16.91-8.37Z"/><path class="cls-3" d="M427.19,424.47a1.62,1.62,0,0,1,2.15.08,1.55,1.55,0,0,1-.07,2.13,1.69,1.69,0,0,1-2.28-.1,1.62,1.62,0,0,1,.32-2.21"/><path class="cls-6" d="M442.7,427.16l-2.36-1.54-19.9,31.23s-.33,1.89.82,2.4Z"/><path class="cls-6" d="M422.66,436.18c.16.1.77-.66,1.81-1.11s2-.42,2-.61-1.06-.57-2.31,0S422.49,436.11,422.66,436.18Z"/><path class="cls-6" d="M421.8,440.58c.14.14.87-.38,1.91-.47s1.87.22,2,.05-.75-.87-2-.72S421.65,440.47,421.8,440.58Z"/><path class="cls-6" d="M424.64,445.28c.13-.13-.52-.88-1.68-1s-2,.35-1.91.51.87,0,1.81.15S424.52,445.42,424.64,445.28Z"/><path class="cls-6" d="M418.15,434.83c.19,0,.46-.86,1.12-1.73s1.42-1.39,1.33-1.56-1.1.13-1.87,1.16S418,434.82,418.15,434.83Z"/><path class="cls-10" d="M381,408.34,360.25,421,341,426.26c-2,.44-3,1.38-3,2.61a2.28,2.28,0,0,0,1.93,2.06l28.79,5.49a1,1,0,0,0,.74-.15c2.94-1.91,18.79-11.55,18.79-11.55Z"/><path class="cls-6" d="M369.32,419a2.31,2.31,0,0,1,.77-.49,6.58,6.58,0,0,1,2.45-.57,2.88,2.88,0,0,1,1.78.37,1,1,0,0,1,.37,1.09,1.65,1.65,0,0,1-.76.88,3.51,3.51,0,0,1-4.35-1,4.08,4.08,0,0,1-.17-4.53,1.48,1.48,0,0,1,1-.65,1,1,0,0,1,1,.63,3.4,3.4,0,0,1,.08,1.8,7,7,0,0,1-.8,2.38c-.29.52-.51.76-.54.74a10.86,10.86,0,0,0,1-3.17,3.17,3.17,0,0,0-.11-1.56.52.52,0,0,0-.52-.35,1,1,0,0,0-.63.46,3.63,3.63,0,0,0,.19,3.93,3,3,0,0,0,3.69.93,1.12,1.12,0,0,0,.55-.59.55.55,0,0,0-.2-.6,2.55,2.55,0,0,0-1.49-.34A9.64,9.64,0,0,0,369.32,419Z"/><path class="cls-6" d="M338,428.87l32.73,6.6-1.16.69a2.63,2.63,0,0,1-1.82.31l-28.26-5.62a1.76,1.76,0,0,1-1.36-1.35Z"/><path class="cls-6" d="M361.61,425c-.15,0-.28-.94-.73-2s-1-1.81-.93-1.92.92.55,1.41,1.71A2.86,2.86,0,0,1,361.61,425Z"/><path class="cls-6" d="M356.73,426.15c-.12,0-.18-.89-.6-1.91s-.92-1.71-.84-1.82.92.51,1.33,1.63S356.89,426.19,356.73,426.15Z"/><path class="cls-6" d="M352.56,427.26c-.15,0-.2-.9-.55-1.92s-.83-1.76-.72-1.86.84.57,1.21,1.7S352.7,427.28,352.56,427.26Z"/><path class="cls-6" d="M364.06,420.65s.2-.27.72-.53a3.69,3.69,0,0,1,2.45-.25l.15,0,0,.17c-.05.63-.71,1-1.26,1.06s-1.13.09-1.75.15c-.31,0-.61.05-1,0a1.49,1.49,0,0,1-1-.42,2.33,2.33,0,0,1-.49-1,8.74,8.74,0,0,1-.24-1,8.35,8.35,0,0,1-.06-2.17,3.72,3.72,0,0,1,.22-1.05,1,1,0,0,1,.4-.48.75.75,0,0,1,.65-.08,1.21,1.21,0,0,1,.76.77,5.21,5.21,0,0,1,.23.88,6.23,6.23,0,0,1,.07,1.59,5.72,5.72,0,0,1-.64,2.2,1.89,1.89,0,0,1-.48.68,9.14,9.14,0,0,0,.75-2.9,6.05,6.05,0,0,0-.13-1.49c-.11-.5-.26-1.17-.69-1.27s-.59.54-.63,1.2a7.8,7.8,0,0,0,.07,2,4.2,4.2,0,0,0,.58,1.77c.32.37,1,.26,1.61.24s1.18,0,1.7-.1a1,1,0,0,0,1-.66l.14.2a3.8,3.8,0,0,0-2.27.09C364.34,420.5,364.09,420.69,364.06,420.65Z"/><path class="cls-5" d="M370.15,426.33a1.17,1.17,0,0,0-.49-.6.7.7,0,0,0-.75,0l-.1,0a1.43,1.43,0,0,0-.84,1.09,1.29,1.29,0,0,0,.57,1.25,1.16,1.16,0,0,0,1.34-.1A1.42,1.42,0,0,0,370.15,426.33Z"/><path class="cls-6" d="M403.29,390.37S354.19,361,342.35,375s9,28.84,13.09,31.66,50.34,22.55,50.34,22.55l8.51-16.28Z"/><path class="cls-6" d="M365.21,414.38s60.65-32.62,67.31-35.83c5.72-2.76,21.81-11.43,27,5.72s-26,38.31-26,38.31l-12.92-6.72-17.85,8.44L380.49,435Z"/><path class="cls-6" d="M414.46,433.62c-.59-.35-24.16-11.59-24.16-11.59L415,411.54l14,8.33Z"/><path class="cls-10" d="M436.5,408.34a1.11,1.11,0,0,1-.26.15l-.8.4-3.11,1.52L420.67,416l-40.08,19.05-.18.09-.13-.16c-4-5.35-8.27-11.07-12.68-17l-2.6-3.48-.18-.24.26-.14c19.31-10.51,36.66-19.86,49.36-26.24,6.34-3.2,11.5-5.7,15.08-7.37,1.79-.85,3.19-1.48,4.13-1.91l1.08-.48.38-.15a2.14,2.14,0,0,1-.36.2l-1.05.52-4.09,2c-3.56,1.73-8.69,4.28-15,7.52-12.65,6.46-30,15.86-49.27,26.37l.09-.38,2.6,3.48,12.67,17-.31-.08,40.16-18.89,11.71-5.45,3.15-1.45.82-.36Z"/><path class="cls-10" d="M365.59,380.58a7.44,7.44,0,0,1,1.36.4c.87.28,2.1.76,3.61,1.37,3,1.26,7.09,3.18,11.46,5.54s8.25,4.66,11,6.38c1.38.86,2.49,1.58,3.24,2.09a6.45,6.45,0,0,1,1.14.83,7.91,7.91,0,0,1-1.25-.66l-3.32-1.94c-2.81-1.64-6.71-3.88-11.07-6.24s-8.4-4.32-11.36-5.66c-1.49-.65-2.69-1.18-3.54-1.52A6.46,6.46,0,0,1,365.59,380.58Z"/><path class="cls-10" d="M414.46,433.62a4.11,4.11,0,0,1,.75-.85l2.19-2.18c1.86-1.82,4.45-4.3,7.34-7l4.13-3.86,0,.38c-2.19-1.33-4.05-2.47-5.35-3.29a15.3,15.3,0,0,1-2-1.37,15.27,15.27,0,0,1,2.17,1.12c1.34.75,3.23,1.83,5.45,3.12l.27.16-.23.22-4.1,3.9c-2.89,2.72-5.53,5.17-7.45,6.92l-2.3,2.05A5.54,5.54,0,0,1,414.46,433.62Z"/><path class="cls-9" d="M411.57,310.82c.5,0,17.93.88,21.24,4.6s10.68,60.16,10.68,60.16c-3.8.49-8.16,2.43-10.5,3.44l-29.42,14.71-15-9.43a3.22,3.22,0,0,1-.63-4.94h0L374.72,317a25.22,25.22,0,0,1,8.34-4.27C388.19,311.14,411.57,310.82,411.57,310.82Z"/><path class="cls-9" d="M380.39,314.74s-5.31.86-7.5,4c-5.14,7.31-21.16,33.38-24,39.69-3,6.67-1.22,11.33,1.25,13.71,3.6,3.47,12.8,3.85,18.09-1.18,2.27-2.16,14.78-12.26,14.78-12.26Z"/><path class="cls-6" d="M373.85,324.39a4.28,4.28,0,0,0,.17.54l.55,1.53c.45,1.34,1.09,3.28,1.79,5.71,1.43,4.85,3.14,11.62,4.93,19.12s3.32,14.29,4.47,19.24c.58,2.46,1.07,4.45,1.41,5.82.18.66.32,1.18.42,1.58a3.65,3.65,0,0,0,.17.54,3.25,3.25,0,0,0-.1-.56c-.08-.4-.2-.93-.35-1.59-.31-1.42-.75-3.41-1.29-5.85-1.09-4.93-2.59-11.76-4.37-19.27s-3.54-14.27-5-19.11c-.74-2.41-1.41-4.35-1.91-5.67-.25-.63-.46-1.14-.61-1.51A3.44,3.44,0,0,0,373.85,324.39Z"/><path class="cls-9" d="M426.29,312.66s4.18-.07,9,4.46c2,1.88,25,35.83,27.1,45.21,1.23,5.44-5.31,16.17-11.64,15.26-8.27-1.18-38.75-15-38.75-15l7.88-14.8,17.46,3.85-12.07-13.62L425,312.94"/><path class="cls-6" d="M355.44,355.61a1.48,1.48,0,0,0,.33-.17l.89-.55,3.26-2.07c2.74-1.76,6.51-4.21,10.67-6.93l2.77-1.83-.25-.05c2.35,3.46,4.44,6.47,6,8.61a23.51,23.51,0,0,0,2.57,3.33l-2.37-3.46-5.86-8.68-.1-.15-.15.1-2.78,1.82c-4.15,2.73-7.9,5.21-10.6,7l-3.2,2.16-.85.6C355.53,355.52,355.43,355.6,355.44,355.61Z"/><polygon class="cls-16" points="405.78 341.6 419.4 348.68 413.11 360.48 404.71 354.2 405.78 341.6"/><path class="cls-3" d="M392.49,342l-9-6.88a1.76,1.76,0,0,0-1.1-.35l-12.3.33a.93.93,0,0,0-.91.91,1.66,1.66,0,0,0,.43,1.33L388.7,352.3l14.94-1.48Z"/><path class="cls-16" d="M405.78,341.6s-4.83-4-6-4.31-6.51-.56-6.51-.56l-4.63,2.3,2.67,2.05a4.27,4.27,0,0,0,2.55-1l3.09.39Z"/><path class="cls-16" d="M400.2,339.64l-8.15,2.28-11.56.95a2.51,2.51,0,0,0,2.14,2.71c1.37.23,3.78.54,3.78.54a3.87,3.87,0,0,0,2.22,2.71,5.93,5.93,0,0,0,1.61,2.14,1.59,1.59,0,0,0,.34.18c1.08.38,3.1,3.5,4.55,4s9.58-.93,9.58-.93l1.07-12.6Z"/><path class="cls-17" d="M397.46,346s-.63.1-1.66.24a30.07,30.07,0,0,1-4,.3,29.52,29.52,0,0,1-4.05-.25c-1-.13-1.66-.26-1.67-.22a2.19,2.19,0,0,0,.44.13c.28.07.69.16,1.21.25a24.85,24.85,0,0,0,4.07.3,25.24,25.24,0,0,0,4.06-.35c.52-.1.93-.18,1.21-.26S397.47,346,397.46,346Z"/><path class="cls-17" d="M395.73,349.2a2,2,0,0,0,0,.79,1.67,1.67,0,0,0,.38.8,1.41,1.41,0,0,0,1,.41,2.66,2.66,0,0,0,1.05-.24c.3-.13.55-.27.76-.38a6.08,6.08,0,0,0,.71-.33,1.91,1.91,0,0,0-.77.19,4.69,4.69,0,0,1-1.75.54,1.2,1.2,0,0,1-.87-.33,1.58,1.58,0,0,1-.38-.69A4.84,4.84,0,0,0,395.73,349.2Z"/><path class="cls-17" d="M389.8,349.64a3.11,3.11,0,0,0,.85.28,19,19,0,0,0,2.14.38,19.77,19.77,0,0,0,2.16.16,3.5,3.5,0,0,0,.9,0c0-.07-1.36-.11-3-.32S389.81,349.58,389.8,349.64Z"/><path class="cls-17" d="M395.65,353.31a2.81,2.81,0,0,0,2.72.58c0-.06-.64,0-1.39-.15S395.69,353.25,395.65,353.31Z"/><path class="cls-17" d="M392.78,353c0,.06.37.19.85.28a1.91,1.91,0,0,0,.89.06c0-.06-.37-.18-.85-.27A2,2,0,0,0,392.78,353Z"/><path class="cls-17" d="M392.05,341.92a21.71,21.71,0,0,0,3.81-1c1-.33,2-.66,2.64-.92a5.41,5.41,0,0,0,1.06-.47,6.88,6.88,0,0,0-1.11.33l-2.65.85-2.66.86C392.47,341.77,392.05,341.9,392.05,341.92Z"/><path class="cls-16" d="M380.18,344.12s.9-.25,0-1.7-3.64.09-3.64.09L373,344.34s-.87,1.73.06,2.25l.65.91s-1.41,1.27-.94,2.48a1.83,1.83,0,0,0,1.79,1.12s-.29,2.38.43,3.34a2.56,2.56,0,0,0,1.43,1.09,4.25,4.25,0,0,0,2.79,2.74c2.26.71,3.45.83,4.13-.1a10.63,10.63,0,0,0,1.14-2.13s5.06-2.29,5.24-3.59,0-1.43,0-1.43a2.44,2.44,0,0,0,0-1.89c-.45-.83-2.44-.24-2.44-.24L381,350s5.14-2.06,5.78-2.8.06-1.71-2-1.59-8.17.91-8.17.91a1.84,1.84,0,0,1,.75-.74c.41-.14,1.71-.8,1.71-.8Z"/><path class="cls-17" d="M378.13,353.53c0,.05,2.59-.45,5.76-1.12s5.72-1.27,5.71-1.33-2.59.44-5.76,1.11S378.12,353.47,378.13,353.53Z"/><path class="cls-17" d="M380.92,357.11a7.36,7.36,0,0,0,1.86-.36,13.15,13.15,0,0,0,1.28-.41,2.23,2.23,0,0,0,.37-.17.36.36,0,0,0,.09-.08s0-.06,0,0-.8.23-1.8.5A9.49,9.49,0,0,0,380.92,357.11Z"/><path class="cls-17" d="M375.91,350.63c0,.06,1.25-.11,2.77-.27a27.75,27.75,0,0,0,2.77-.32,12.35,12.35,0,0,0-2.79.1A12.62,12.62,0,0,0,375.91,350.63Z"/><path class="cls-17" d="M374.57,347.31c0,.05.55-.27,1.26-.48s1.31-.23,1.31-.3a2.41,2.41,0,0,0-1.37.09A2.21,2.21,0,0,0,374.57,347.31Z"/><path class="cls-6" d="M369.75,336.21a.68.68,0,0,0,.23,0l.66,0,2.41-.16c2-.11,4.87-.19,8-.09a4.44,4.44,0,0,1,2.16.39,7.67,7.67,0,0,1,.86.64c.28.22.55.43.81.65l2.81,2.23,1.91,1.5.52.39c.12.09.19.14.2.13l-.17-.16-.5-.43-1.86-1.55L385,337.44q-.4-.31-.81-.66a8.77,8.77,0,0,0-.88-.66,2.59,2.59,0,0,0-1.1-.35,11.27,11.27,0,0,0-1.16-.06,75.38,75.38,0,0,0-8,.15c-1,.07-1.84.16-2.41.22l-.65.09Z"/><path class="cls-5" d="M377.32,337.74a.61.61,0,0,1,.6-.19h0l.1,0h0a.85.85,0,0,1,.46.3.5.5,0,0,1,0,.64.57.57,0,0,1-.35.14.83.83,0,0,1-.7-.22A.59.59,0,0,1,377.32,337.74Z"/><path class="cls-6" d="M435.54,372.79a3.31,3.31,0,0,0-.44-.23l-1.3-.59-4.87-2.15L412,362.47l.08.25,5.2-9.75,2.69-5.05-.2.09L437,351.64h0a35.46,35.46,0,0,1,8.71,4.44c.95.67,1.66,1.23,2.14,1.62l.55.44c.12.1.19.15.19.14a1.11,1.11,0,0,0-.16-.17l-.52-.48c-.47-.4-1.17-1-2.11-1.68a34.07,34.07,0,0,0-8.7-4.58h0l-17.12-3.7-.14,0-.06.12c-.88,1.64-1.78,3.33-2.69,5.05-1.82,3.42-3.57,6.72-5.19,9.75l-.09.17.18.07L428.84,370l4.92,2.06,1.31.54A3.14,3.14,0,0,0,435.54,372.79Z"/><path class="cls-6" d="M427,340.42a13.19,13.19,0,0,0,1.32,1.82c.86,1.09,2.06,2.58,3.43,4.19s2.65,3.05,3.63,4a11.37,11.37,0,0,0,1.23,1.11c.16.11.28.21.44.19a.1.1,0,0,0,0-.14s0,0,0,0,0,.09-.05.1a1,1,0,0,1-.32-.23c-.28-.26-.67-.67-1.13-1.18-.92-1-2.17-2.49-3.54-4.1l-3.51-4.12A13.36,13.36,0,0,0,427,340.42Z"/><path class="cls-6" d="M424.08,333.28c.08,0-.08-1.12,0-2.9a20.3,20.3,0,0,1,.45-3.1,21.74,21.74,0,0,1,1.22-3.62,22.12,22.12,0,0,1,1.92-3.32,19.13,19.13,0,0,1,2-2.37c1.27-1.26,2.21-1.87,2.17-1.93a3.16,3.16,0,0,0-.68.4,7.3,7.3,0,0,0-.74.55,9.84,9.84,0,0,0-.93.79,17.68,17.68,0,0,0-2.13,2.36,19.58,19.58,0,0,0-2,3.36,19.34,19.34,0,0,0-1.22,3.71,18,18,0,0,0-.38,3.16,11.94,11.94,0,0,0,0,1.22,7.16,7.16,0,0,0,.08.92A3.92,3.92,0,0,0,424.08,333.28Z"/><path class="cls-6" d="M403,384.89c0-.07-.89,0-2.31-.15a21.08,21.08,0,0,1-5.42-1.18,21.59,21.59,0,0,1-4.94-2.54c-1.17-.81-1.83-1.41-1.87-1.36s.13.18.42.47a14.54,14.54,0,0,0,1.3,1.1A18.81,18.81,0,0,0,400.67,385a13,13,0,0,0,1.71,0A2.69,2.69,0,0,0,403,384.89Z"/><path class="cls-6" d="M393.43,368.68a2.7,2.7,0,0,0,.43.63c.3.4.75.95,1.32,1.62,1.14,1.35,2.76,3.17,4.66,5.08s3.7,3.55,5.05,4.69c.67.57,1.22,1,1.61,1.33a3,3,0,0,0,.63.44,3.32,3.32,0,0,0-.54-.55l-1.53-1.42c-1.3-1.19-3.07-2.85-5-4.75s-3.54-3.69-4.72-5L394,369.22A3.57,3.57,0,0,0,393.43,368.68Z"/><path class="cls-6" d="M409.53,294.34a63.41,63.41,0,0,0,1.32-10.87,22.16,22.16,0,0,0-2.32-10.61c-.26-.49-2.35-3.72-2.89-3.59-.39.09,1.05,3.18.9,3.54a18.84,18.84,0,0,0-.63,11.15,49.72,49.72,0,0,0,3.62,10.38"/><path class="cls-16" d="M391.93,317.17c-.37-2.56-.67-4.57-.69-4.57s-8.9.3-10.66-8.32c-.84-4.17-1.89-12.89-2.74-20.79a16.37,16.37,0,0,1,13.23-17.85l.84-.16c9.09-1.19,15.17,5.87,16.11,15l4.28,31.8-1.54,2.83a11.52,11.52,0,0,1-18.83,2.07Z"/><path class="cls-17" d="M391.24,312.6a21.26,21.26,0,0,0,10.61-5.47s-1.54,6.81-10.31,7.67Z"/><path class="cls-6" d="M382.3,291.9a1.27,1.27,0,0,0,1.43,1,1.21,1.21,0,0,0,1.06-1.36,1.27,1.27,0,0,0-1.43-1A1.21,1.21,0,0,0,382.3,291.9Z"/><path class="cls-6" d="M380.37,286.73c.18.13,1-.74,2.32-1s2.42.23,2.54,0-.16-.34-.64-.57a3.44,3.44,0,0,0-2.07-.23,3.34,3.34,0,0,0-1.81,1C380.36,286.36,380.28,286.67,380.37,286.73Z"/><path class="cls-6" d="M393.9,290.12a1.26,1.26,0,0,0,1.42,1,1.2,1.2,0,0,0,1.06-1.36,1.26,1.26,0,0,0-1.42-1A1.2,1.2,0,0,0,393.9,290.12Z"/><path class="cls-6" d="M393.48,284.79c.18.13,1-.74,2.32-1s2.42.23,2.54,0-.15-.34-.64-.57a3.44,3.44,0,0,0-2.07-.23,3.29,3.29,0,0,0-1.81,1C393.48,284.42,393.39,284.73,393.48,284.79Z"/><path class="cls-6" d="M390.66,295.9a9.55,9.55,0,0,0-2.23,0c-.35,0-.68,0-.78-.19a1.72,1.72,0,0,1,0-1.05c.17-.88.34-1.81.51-2.77a44.41,44.41,0,0,0,1-7.19,45.26,45.26,0,0,0-1.54,7.09c-.16,1-.32,1.9-.47,2.78a2,2,0,0,0,.08,1.37.89.89,0,0,0,.65.39,2.7,2.7,0,0,0,.59,0A8.76,8.76,0,0,0,390.66,295.9Z"/><path class="cls-6" d="M394.74,296.08c-.22,0,.06,1.47-1,2.73s-2.61,1.39-2.58,1.59.4.22,1.05.11a3.63,3.63,0,0,0,2.16-1.25,3.17,3.17,0,0,0,.74-2.27C395.07,296.38,394.84,296.05,394.74,296.08Z"/><path class="cls-6" d="M392.53,279.39c.2.33,1.49-.09,3.08-.2s2.94.08,3.08-.28c.07-.18-.22-.48-.79-.73a5.24,5.24,0,0,0-2.39-.36,5.16,5.16,0,0,0-2.31.73C392.67,278.89,392.44,279.23,392.53,279.39Z"/><path class="cls-6" d="M380.08,282.21c.29.26,1.14-.23,2.24-.45s2.07-.19,2.23-.54c.06-.17-.14-.45-.6-.66a3.24,3.24,0,0,0-1.93-.14,3.09,3.09,0,0,0-1.67.95C380,281.75,380,282.08,380.08,282.21Z"/><path class="cls-16" d="M408.53,287c.14-.09,5.6-2.88,6.54,3.06s-5.22,5.66-5.26,5.49S408.53,287,408.53,287Z"/><path class="cls-17" d="M411.27,293s.11.06.3.11a1,1,0,0,0,.78-.11,2.59,2.59,0,0,0,.82-2.48,3.49,3.49,0,0,0-.52-1.44,1.23,1.23,0,0,0-.91-.67.53.53,0,0,0-.56.38c-.05.18,0,.29,0,.31s-.14-.08-.13-.34a.65.65,0,0,1,.17-.41.85.85,0,0,1,.55-.24,1.5,1.5,0,0,1,1.23.75,3.61,3.61,0,0,1,.62,1.6,2.72,2.72,0,0,1-1.11,2.81,1.14,1.14,0,0,1-1,0C411.3,293.15,411.25,293,411.27,293Z"/><path class="cls-6" d="M380.23,273.06c-1.05-.38,1.38-3.93,3.59-5.36,3.34-2.15,8.65-4,12.09-3.52,4.14.54,7.73,2,10.26,5.34a23.61,23.61,0,0,1,4.4,11.57,7.15,7.15,0,0,1-.29,3.76c-.64,1.44-2.11,2.5-1.77,4.31a2.56,2.56,0,0,1-.35,1.91c-.92,1.32-2.41.43-3.19-.57-1.65-2.14-2.21-4.9-2.72-7.56a17.5,17.5,0,0,1-.47-5.71c.15-1,.48-2.05.56-3.09a3.6,3.6,0,0,0-.86-2.91,3,3,0,0,0-.56-.41,6.27,6.27,0,0,0-6.33-.26c-3.17,1.68-8.63,4.3-10.3,3.39a9.26,9.26,0,0,1-3.06-2.31Z"/></g><g id="Character_1" data-name="Character 1"><path class="cls-6" d="M81.26,150c-1.2-4-2.67-8-2.49-12.23l-2.56-7.53a12.88,12.88,0,0,0-14.69,13.47c.13,2.37.91,4.65,1.31,7s.34,4.92-1,6.87c-.61.88-1.5,1.68-1.56,2.75-.08,1.36,1.34,2.43,2.71,2.49a7.74,7.74,0,0,0,3.85-1.23,4.27,4.27,0,0,0,8.12,2.32c-.18,1.86,2.17,3.19,4,2.6s2.87-2.39,3.38-4.19C83.44,158.31,82.47,154,81.26,150Z"/><polygon class="cls-16" points="84.39 382.05 84.83 374.19 98.55 373.91 98.18 383.53 93.14 386.45 84.39 382.05"/><path class="cls-10" d="M98.51,381.74l0,.91s15.12,6.54,15.2,9.44l-30.33-1L84.09,381A17.33,17.33,0,0,0,98.51,381.74Z"/><g class="cls-18"><path class="cls-5" d="M87.05,384.37a1.25,1.25,0,0,0-.9,1.39,1.2,1.2,0,0,0,1.37.9,1.31,1.31,0,0,0,1-1.47,1.25,1.25,0,0,0-1.53-.79"/></g><g class="cls-18"><path class="cls-5" d="M83.35,391.12l.18-2.42,29,1.82s1.33.63,1.15,1.57Z"/></g><path class="cls-6" d="M98.59,382.73c0,.15-.75.2-1.5.65s-1.15,1.06-1.28,1,.11-.91,1-1.45S98.62,382.6,98.59,382.73Z"/><path class="cls-6" d="M101.73,384.15c0,.15-.62.38-1.15,1s-.69,1.27-.83,1.25-.22-.85.45-1.59S101.73,384,101.73,384.15Z"/><path class="cls-6" d="M103.41,388c-.13,0-.32-.72.09-1.52s1.11-1.1,1.17-1-.39.55-.71,1.21S103.56,388,103.41,388Z"/><polygon class="cls-16" points="88.45 364.49 85.64 387.87 74.94 385.9 75.09 362.84 88.45 364.49"/><path class="cls-10" d="M75.05,381.46s7,6.11,11.19,2l.71,2.31,2.55,16.17a2.1,2.1,0,0,1-3.66,1.72C83,400.4,72.81,388.4,73.09,387l.48-3.84a2,2,0,0,1,1.48-1.66Z"/><g class="cls-18"><path class="cls-5" d="M87.62,404.37,73.24,385.62l-.1.84a2.36,2.36,0,0,0,.57,2c1.12,1.88,4.33,6.16,12.07,15.23a2.16,2.16,0,0,0,1.84.73Z"/></g><g class="cls-18"><path class="cls-5" d="M75.91,383.39a1.22,1.22,0,0,1,.17,1.64,1.24,1.24,0,0,1-1.67.17,1.27,1.27,0,0,1-.18-1.74,1.29,1.29,0,0,1,1.76,0"/></g><path class="cls-6" d="M83.9,395.18a6.43,6.43,0,0,1,1.95-1.35,6.43,6.43,0,0,1,2.4-.18s-.22-.23-.69-.35a3.3,3.3,0,0,0-1.86.12,3.08,3.08,0,0,0-1.5,1.07C83.91,394.87,83.85,395.16,83.9,395.18Z"/><path class="cls-6" d="M85.06,398a15.73,15.73,0,0,1,1.9-.66,18,18,0,0,1,2,0,2.35,2.35,0,0,0-2.1-.4C85.64,397.12,85,397.93,85.06,398Z"/><path class="cls-6" d="M81.56,391.48a20.4,20.4,0,0,1,2.86-1.21,21.28,21.28,0,0,1,3.11-.36,4.84,4.84,0,0,0-3.22-.07A4.63,4.63,0,0,0,81.56,391.48Z"/><path class="cls-6" d="M81.74,386.66c0,.12,1.22-.21,2.69-.1s2.6.57,2.66.46a5.34,5.34,0,0,0-5.35-.36Z"/><path class="cls-6" d="M85.27,386.61a1.65,1.65,0,0,0,0-.76,5.07,5.07,0,0,0-.77-1.93,2.33,2.33,0,0,0-1.1-1,.83.83,0,0,0-.94.25,1.28,1.28,0,0,0-.25.92,3,3,0,0,0,2.8,2.49,3.43,3.43,0,0,0,3.24-2,1.18,1.18,0,0,0,0-1,.84.84,0,0,0-.9-.37A2.92,2.92,0,0,0,86,384a6.07,6.07,0,0,0-1.28,1.64,1.91,1.91,0,0,0-.26.71,9.54,9.54,0,0,1,1.75-2.12,2.69,2.69,0,0,1,1.15-.65.46.46,0,0,1,.49.2.8.8,0,0,1,0,.64A3,3,0,0,1,85,386.1,2.57,2.57,0,0,1,82.59,384a1,1,0,0,1,.15-.65.47.47,0,0,1,.51-.15,2.18,2.18,0,0,1,1,.87A7.68,7.68,0,0,1,85.27,386.61Z"/><path class="cls-6" d="M116.26,216.26s2.13,10,4.59,28.12c2.24,16.49-5.09,64.61-7,74.69-1.3,6.86-7.69,41.15-15,61.95l-10.76-.18s8.18-69.64,8-76.91S94,258,94,258L90.7,228.54Z"/><path class="cls-6" d="M73.65,213c.87.3,19.78,14.13,19.78,14.13s8.95,79.77,9.65,90.24-15,63.47-15,63.47l-14.82-.26s.9-35.16,3.41-45.88,2.55-13.33,1.22-20-13-42.34-16.45-60.13S73.65,213,73.65,213Z"/><path class="cls-10" d="M100.88,248.54s0,.11.05.34.08.58.13,1c.1.91.24,2.21.42,3.88.35,3.37.83,8.26,1.35,14.3s1.09,13.24,1.5,21.25c.18,4,.36,8.21.33,12.58,0,1.09-.07,2.2-.1,3.31s-.18,2.23-.3,3.36c-.35,2.23-.76,4.48-1.19,6.75-3.52,18.18-7.11,34.54-9.68,46.39-1.31,5.9-2.36,10.69-3.1,14-.38,1.63-.67,2.91-.87,3.81l-.24,1a1.87,1.87,0,0,1-.1.34,1.76,1.76,0,0,1,0-.35c.05-.24.12-.57.2-1,.18-.9.45-2.18.79-3.83.7-3.34,1.72-8.13,3-14.05,2.48-11.86,6-28.24,9.55-46.4,2.24-9,1.55-17.91,1.28-25.9s-.93-15.2-1.4-21.24-.91-10.93-1.21-14.31c-.15-1.67-.26-3-.34-3.89,0-.43-.06-.76-.08-1A1.33,1.33,0,0,1,100.88,248.54Z"/><path class="cls-6" d="M77.56,122.5a21.41,21.41,0,0,1,16.6-8.26c3.77-.07,5.34.72,8,1.45a11.89,11.89,0,0,1,6.79,4.49,20,20,0,0,1,3.9,9.11,27.74,27.74,0,0,1-1.37,11.14c-1.65,4.72-2.11,6-4.13,8.82l-5.92,1.47c-4.81.16-9.68.32-14.37-.78s-9.24-3.62-11.74-7.72C71.88,136.51,73.33,127.67,77.56,122.5Z"/><path class="cls-16" d="M85.31,122.44l11.61-4.61,3,.35c6.82,0,11.53,7.55,11.58,13.08,0,6.14-.14,13.64-1.11,18.16-2,9.1-9.73,9.86-9.73,9.86s.16,4.85.22,7.9c-6.5,7.23-13.48,7.56-18.78-1.22l.11-40.4A3.24,3.24,0,0,1,85.31,122.44Z"/><path class="cls-6" d="M108.76,138.72a1.18,1.18,0,0,1-1.2,1.13,1.12,1.12,0,0,1-1.15-1.13,1.17,1.17,0,0,1,1.19-1.12A1.12,1.12,0,0,1,108.76,138.72Z"/><path class="cls-6" d="M109.45,134.33c-.16.14-1-.57-2.28-.63s-2.23.51-2.36.35.1-.34.52-.61a3.21,3.21,0,0,1,1.9-.48,3.09,3.09,0,0,1,1.8.7C109.4,134,109.52,134.26,109.45,134.33Z"/><path class="cls-6" d="M101.3,144.26a9,9,0,0,1,2.08-.26c.33,0,.64-.06.7-.28a1.61,1.61,0,0,0-.16-1c-.26-.8-.53-1.64-.82-2.51a43,43,0,0,1-1.8-6.56,40.67,40.67,0,0,1,2.32,6.4c.27.88.54,1.72.78,2.53a1.82,1.82,0,0,1,.1,1.27.83.83,0,0,1-.56.45,2.19,2.19,0,0,1-.55,0A7.84,7.84,0,0,1,101.3,144.26Z"/><path class="cls-17" d="M100.7,159.27a23.35,23.35,0,0,1-12.11-4s2.93,6.55,12.16,6.19Z"/><path class="cls-6" d="M109.42,127.89c-.23.3-1.19,0-2.33.07s-2.09.28-2.32,0c-.11-.14,0-.43.44-.72a3.43,3.43,0,0,1,1.87-.55,3.34,3.34,0,0,1,1.88.5C109.38,127.45,109.52,127.74,109.42,127.89Z"/><path class="cls-6" d="M94.87,138.27a1.17,1.17,0,0,0,1.12,1.2,1.11,1.11,0,0,0,1.23-1,1.17,1.17,0,0,0-1.11-1.21A1.14,1.14,0,0,0,94.87,138.27Z"/><path class="cls-6" d="M92.3,133.84c.14.15,1-.49,2.32-.47s2.18.68,2.32.53-.07-.35-.47-.65a3.18,3.18,0,0,0-1.86-.61,3.13,3.13,0,0,0-1.85.56C92.37,133.49,92.23,133.77,92.3,133.84Z"/><path class="cls-6" d="M93.06,128.65c.25.29,1.23,0,2.41,0s2.17.23,2.4-.06-.05-.44-.48-.72a3.69,3.69,0,0,0-2-.51,3.56,3.56,0,0,0-1.92.55C93.09,128.21,93,128.5,93.06,128.65Z"/><path class="cls-16" d="M83.82,141c0-.69-.67-2.34-1.34-2.49-1.79-.38-5-.41-5.33,4.17-.38,6.26,6,5.35,6,5.17S83.69,143.35,83.82,141Z"/><path class="cls-17" d="M81.57,145.45s-.12.07-.31.14a1.09,1.09,0,0,1-.81,0,2.69,2.69,0,0,1-1.1-2.5,3.62,3.62,0,0,1,.4-1.54,1.26,1.26,0,0,1,.87-.78.56.56,0,0,1,.63.33c.07.18,0,.31.06.32s.14-.1.1-.36a.7.7,0,0,0-.22-.41.82.82,0,0,0-.59-.19,1.52,1.52,0,0,0-1.2.9,3.68,3.68,0,0,0-.49,1.72,2.85,2.85,0,0,0,1.43,2.8,1.14,1.14,0,0,0,1-.11C81.55,145.6,81.59,145.46,81.57,145.45Z"/><path class="cls-6" d="M82.23,138.52l1.59,1.65c6.86-6.57,20.28-23,19.53-22a20,20,0,0,0-9.81-1.07c-5.1.87-14.79,3.43-14.64,9.45S82.23,138.52,82.23,138.52Z"/><path class="cls-10" d="M73.13,137.14a2.29,2.29,0,0,1,.1-.36,7.19,7.19,0,0,1,.43-1,9,9,0,0,1,2.61-2.94,17.13,17.13,0,0,1,5.27-2.53c2.09-.68,4.45-1.21,6.77-2.21a31.08,31.08,0,0,0,6.18-3.46,32.77,32.77,0,0,0,4.36-3.82,31.05,31.05,0,0,0,2.52-3L102,117c.15-.2.23-.3.24-.29a2.25,2.25,0,0,1-.18.32c-.14.21-.32.52-.58.9A29.24,29.24,0,0,1,99,121a30.24,30.24,0,0,1-10.59,7.42,70.57,70.57,0,0,1-6.8,2.19A17.24,17.24,0,0,0,76.41,133a9.37,9.37,0,0,0-2.64,2.82C73.31,136.65,73.17,137.15,73.13,137.14Z"/><path class="cls-17" d="M100.63,147.13A16.37,16.37,0,0,0,98,145.67a1.15,1.15,0,0,0-.54-.1,1,1,0,0,0-.59.4,2.47,2.47,0,0,0,0,2.79,2.32,2.32,0,0,0,2.51.91A2.78,2.78,0,0,0,101,147.4Z"/><path class="cls-6" d="M100.37,149.1a1.93,1.93,0,0,1-1.52.59,2.41,2.41,0,0,1-1.71-.63,2.44,2.44,0,0,1-.82-2.08,2.25,2.25,0,0,1,.42-1.13,1.41,1.41,0,0,1,.45-.42.55.55,0,0,1,.38-.06.82.82,0,0,1,.28.11l1.53.83a6.07,6.07,0,0,1,1.35.87,5.52,5.52,0,0,1-1.49-.59l-1.57-.75c-.15-.07-.21-.08-.29,0a1.39,1.39,0,0,0-.29.3,1.92,1.92,0,0,0-.33.92,2.1,2.1,0,0,0,.65,1.74,2.25,2.25,0,0,0,1.45.62A5.45,5.45,0,0,0,100.37,149.1Z"/><path class="cls-10" d="M83.6,148.63a2.2,2.2,0,1,1-2.2-2.2A2.2,2.2,0,0,1,83.6,148.63Z"/><path class="cls-9" d="M112.77,165.73s6.54,2.26,8.49,8.09S125.85,187,125.85,187l-12.41,3.48Z"/><path class="cls-9" d="M69.66,166.12,78,163l4.12-1.47c1.86,3.14,5.94,4.68,10.09,4.64,4.41,0,6.33-1.87,8.51-4.61l1.72.75,10.32,3.11,5.13,21.49-1.06,29.4,4.47,21.25c-15.84,6.44-42.62,5-59.54-2.64l11.64-23.76-4.12-42.45Z"/><path class="cls-16" d="M117.36,189.46l.23.36-11.81-18.7-6.93,5.64s7.2,20.2,11.52,27.31c4.19,6.92,12.68,9.51,16.95.78,2.2-4.48-2.62-17.46-2.62-17.46Z"/><path class="cls-16" d="M121.31,195.6,105.9,171.12l3.3-10.32a8.12,8.12,0,0,0,.25-4.58c-.6-2.51-1.54-6.24-2-7-.79-1.13-1.18-.52-1.18-.52l-8.76,24.48,3.05,8.22"/><path class="cls-17" d="M100.51,181.43a4.85,4.85,0,0,1-.24-.54c-.16-.4-.37-.93-.64-1.59-.55-1.44-1.34-3.48-2.32-6l0-.05,0-.06c2.08-5.86,5.14-14.52,8.67-24.51v0l0,0a.65.65,0,0,1,.8-.23,1.41,1.41,0,0,1,.54.4,3,3,0,0,1,.61,1c.27.73.48,1.46.69,2.21.41,1.49.8,3,1.14,4.56a8.4,8.4,0,0,1-.25,4l-1.18,3.66c-.77,2.39-1.51,4.71-2.23,6.92l0-.2,11,17.66,3.13,5.1.82,1.37a2.49,2.49,0,0,1,.25.48,2.59,2.59,0,0,1-.32-.44l-.89-1.33-3.24-5-11.17-17.56-.06-.1,0-.11c.7-2.22,1.44-4.54,2.2-6.94s2-4.83,1.41-7.41c-.33-1.52-.73-3.05-1.13-4.53-.2-.73-.42-1.46-.67-2.15a2.55,2.55,0,0,0-.51-.9,1,1,0,0,0-.34-.27.17.17,0,0,0-.19,0l0-.05L97.6,173.27v-.11c.93,2.57,1.67,4.63,2.19,6.08.23.68.42,1.21.56,1.62A2.39,2.39,0,0,1,100.51,181.43Z"/><path class="cls-16" d="M97.3,179.18l1.1-3.73s6.61-13.57,7.06-15.27,2.31-8,.93-9.21c0,0,1-3.24-.29-3.48s-1.93,1.49-1.93,1.49.19-1.76-.48-2.06c-1-.48-1.87,1-1.87,1h0s-1.14-.9-2.43,1.21c0,0-5.68,9.63-6.38,10.29s-1.87-1.35-1.87-1.35a13.83,13.83,0,0,0-1.91-3.87c-.77-.85-2.07-.17-2.07-.17a25.54,25.54,0,0,0,1.29,7.85c.59,1.83,2.19,8.38,2.19,8.38l-2.8,6"/><path class="cls-17" d="M87.84,176.28a2,2,0,0,1,.15-.42l.51-1.19c.49-1.07,1.16-2.58,2-4.47v.09l-1.89-7c-.33-1.36-.85-2.77-1.15-4.32a25,25,0,0,1-.54-4.93v-.14l.13-.06a2.33,2.33,0,0,1,1.71-.2,1.6,1.6,0,0,1,.75.54,5.51,5.51,0,0,1,.49.7A17.46,17.46,0,0,1,91.38,158l0,0a4.45,4.45,0,0,0,1,1.22c.22.15.36.17.47.06a8.11,8.11,0,0,0,.49-.66c.64-1,1.27-2,1.91-3l3.86-6.43a4.21,4.21,0,0,1,1.09-1.3,1.53,1.53,0,0,1,1.79-.11l-.39.08a3,3,0,0,1,.85-.94,1.35,1.35,0,0,1,1.32-.18,1,1,0,0,1,.51.55,2.72,2.72,0,0,1,.15.61,5.82,5.82,0,0,1,0,1.18l-.49-.11a3,3,0,0,1,1.08-1.43,1.59,1.59,0,0,1,.93-.25,1.4,1.4,0,0,1,.5.12,1.08,1.08,0,0,1,.37.4,3,3,0,0,1,.16,1.72,10.07,10.07,0,0,1-.34,1.58l-.07-.25a2.07,2.07,0,0,1,.51,1.13,5.38,5.38,0,0,1,.05,1.13,13.73,13.73,0,0,1-.24,2.15c-.24,1.39-.58,2.71-.92,4a15.59,15.59,0,0,1-.59,1.87c-.24.59-.5,1.16-.75,1.72l-1.48,3.2c-1.92,4.05-3.53,7.3-4.64,9.52v0q-.54,1.76-.87,2.76l-.23.7a1.13,1.13,0,0,1-.1.24.66.66,0,0,1,0-.25l.19-.73c.19-.67.44-1.6.77-2.78h0l4.48-9.6,1.45-3.2c.24-.56.49-1.13.72-1.71a12.23,12.23,0,0,0,.56-1.83c.34-1.27.66-2.59.9-3.95a16.12,16.12,0,0,0,.22-2.08,2.87,2.87,0,0,0-.41-1.89l-.11-.12,0-.13a10.51,10.51,0,0,0,.32-1.5,2.66,2.66,0,0,0-.11-1.42c-.14-.35-.72-.32-1.09-.08a2.48,2.48,0,0,0-.87,1.17l-.67,1.67.17-1.79a5.36,5.36,0,0,0,0-1.06c0-.33-.16-.69-.35-.75-.54-.25-1.17.32-1.51.91l-.15.24-.24-.17a1,1,0,0,0-1.17.13,3.71,3.71,0,0,0-.95,1.14c-1.3,2.2-2.59,4.35-3.87,6.43-.64,1-1.27,2.05-1.93,3a5.83,5.83,0,0,1-.56.75.72.72,0,0,1-.6.19,1.2,1.2,0,0,1-.5-.21,4.85,4.85,0,0,1-1.15-1.39v-.05a17.53,17.53,0,0,0-1.31-3c-.28-.44-.57-.91-1-1a1.89,1.89,0,0,0-1.35.17l.12-.2a25,25,0,0,0,.49,4.83c.28,1.53.78,2.92,1.1,4.29.69,2.71,1.29,5.08,1.79,7.07v.05l0,0-2.12,4.41-.58,1.16A3.52,3.52,0,0,1,87.84,176.28Z"/><path class="cls-17" d="M96.76,159.08a8.33,8.33,0,0,0,1.06-1.46,30.66,30.66,0,0,0,2-3.86,35.7,35.7,0,0,0,1.52-4.09,8.51,8.51,0,0,0,.44-1.75,9.71,9.71,0,0,0-.65,1.68c-.38,1-.92,2.48-1.61,4s-1.4,2.9-1.94,3.87A12.35,12.35,0,0,0,96.76,159.08Z"/><path class="cls-17" d="M99.7,160.1a10.21,10.21,0,0,0,.82-1.52c.47-1,1.1-2.29,1.73-3.8a41.32,41.32,0,0,0,1.41-3.92,7.38,7.38,0,0,0,.4-1.69,12,12,0,0,0-.62,1.62c-.35,1-.87,2.37-1.49,3.87l-1.64,3.82A9.55,9.55,0,0,0,99.7,160.1Z"/><path class="cls-17" d="M102.88,160.72a5.77,5.77,0,0,0,.84-1.28,21.86,21.86,0,0,0,1.48-3.39,28.1,28.1,0,0,0,1-3.56,5.56,5.56,0,0,0,.21-1.52c-.1,0-.56,2.27-1.49,5a33.69,33.69,0,0,1-1.38,3.39A8.25,8.25,0,0,0,102.88,160.72Z"/><path class="cls-16" d="M60.93,188.77s6.48,21.4,8.81,24.79c4.28,6.23,13.38,7.58,16.75,1,3.61-7,11.91-39.14,11.91-39.14l-8.33-3.7-11.36,23.8-3.82-10.82Z"/><path class="cls-9" d="M69.66,166.12s-8.73,3.59-9.4,15.43c-.17,2.89,1.77,18.56,1.77,18.56L78.31,193l-3.9-13.81Z"/><path class="cls-6" d="M78.66,195a60.77,60.77,0,0,1-2.87-7.48,61.2,61.2,0,0,1-2.38-7.67,62.17,62.17,0,0,1,2.87,7.49A64.09,64.09,0,0,1,78.66,195Z"/><path class="cls-10" d="M77.27,143.79a4.76,4.76,0,0,1-1.34-1.36,12.21,12.21,0,0,1-2-4.16,12,12,0,0,1-.33-4.59,4.8,4.8,0,0,1,.48-1.85,19.27,19.27,0,0,0,.35,6.31A19.19,19.19,0,0,0,77.27,143.79Z"/><path class="cls-6" d="M115.62,176.6a39.73,39.73,0,0,1,1.5,6.2c.56,2.77.95,5.14,1,5.95l0,.39-.17-.33c-.11-.2-.15-.31-.13-.33s.11.06.27.24l-.15.06c-.26-.77-.81-3.1-1.36-5.87A39.2,39.2,0,0,1,115.62,176.6Z"/><path class="cls-16" d="M75.67,206c-.64-3.25.52-8.6,3-10.48"/><path class="cls-17" d="M78.71,195.55c.05.07-.44.47-1,1.31a12.37,12.37,0,0,0-1.49,3.61,23.11,23.11,0,0,0-.56,5.56,3.56,3.56,0,0,1-.35-1.65,13.1,13.1,0,0,1,.4-4,10.38,10.38,0,0,1,1.7-3.7C78.08,195.81,78.68,195.5,78.71,195.55Z"/></g></g></svg>