<svg xmlns="http://www.w3.org/2000/svg" viewBox="0 0 456.02 376.19"><defs><style>.cls-1{isolation:isolate;}.cls-2{fill:#dcedf9;}.cls-3{fill:#0077eb;}.cls-4{fill:#0059d3;}.cls-5{fill:#008eff;}.cls-6{fill:#ffaa01;}.cls-7{fill:#f88800;}.cls-8{fill:#fdcc50;}.cls-9{fill:#f9af8b;}.cls-10{fill:#fff;}.cls-11{fill:#2e3052;}.cls-12{fill:#001030;}.cls-13{fill:#524e84;}.cls-14{fill:#1f2232;}.cls-15{mix-blend-mode:screen;}.cls-16{fill:#fc8664;}.cls-17{fill:#fd664d;}.cls-18{fill:#000b29;}</style></defs><g class="cls-1"><g id="Layer_2" data-name="Layer 2"><g id="OBJECTS"><path class="cls-2" d="M406.21,359.15c-22.72-17.26-61.58-60.1-10.41-127.34,63.28-83.16-12.5-117.28-85.15-113.72C252.21,121,186.43,47.48,120.82,60.61,33.73,78,90.28,153,31.23,193.44-19.13,227.9,2.49,332.9,68,359.15Z"/><path class="cls-2" d="M447.22,206.66c-.35-12.34-11.84-17.12-19.51-8.19a38.45,38.45,0,0,0-9.37,22.29c-1.76,22,17.48,15.61,24.66,3.84C446.07,219.58,447.4,212.89,447.22,206.66Z"/><path class="cls-2" d="M235.56,56.26c-12.12-2.29-19.25,7.91-12.17,17.3a38.45,38.45,0,0,0,19.77,13.93c21.11,6.41,19-13.74,9-23.28C247.94,60.15,241.69,57.42,235.56,56.26Z"/><path class="cls-2" d="M35.22,169.24c4.85-11.34-3.57-20.5-14.27-15.61A38.48,38.48,0,0,0,3.09,169.94c-10.81,19.23,9.32,21.51,20.78,13.83C28.76,180.5,32.77,175,35.22,169.24Z"/><ellipse class="cls-2" cx="228.38" cy="362.51" rx="207.76" ry="13.68"/><path class="cls-3" d="M430.54,250.31C417.82,263,432,264.1,422.67,273.7c-8.5,8.76-21.06.24-20.22,21.61.18,4.68-3.22,8.15-8,9.93a18.18,18.18,0,0,1-20.27-5.16,15.8,15.8,0,0,1-1.1-1.35,18.56,18.56,0,0,1-2.24-18.14c2.16-5.34,6-10.6,12.76-12.69,15.91-4.92,7.08-26,20.52-26.91,16.22-1.12,16.8-7.06,28.3-15.08C444.62,217.42,447.78,233.07,430.54,250.31Z"/><path class="cls-4" d="M424.84,243.36c-.36.36-29.85,30.77-50.66,56.72a15.8,15.8,0,0,1-1.1-1.35c20.87-26,50.18-56.19,50.54-56.56a.84.84,0,0,1,1.2,0A.85.85,0,0,1,424.84,243.36Z"/><path class="cls-5" d="M433.8,292.76c-19.92,11.73-2.61,17.64-17.32,26.59-13.41,8.15-26.29-6.49-32.14,20.39-1.27,5.88-6.63,9.1-13.14,9.77a23.41,23.41,0,0,1-23.59-12.94c-.33-.67-.64-1.35-.92-2.05a23.84,23.84,0,0,1,3.05-23.29c4.41-6,10.87-11.27,20-11.69,21.38-1,17.17-30.06,34.2-26.89,20.54,3.84,23.18-3.38,40.08-9.65C461.92,256.35,460.81,276.86,433.8,292.76Z"/><path class="cls-3" d="M428.94,282.27c-.56.34-47.06,28.7-81.33,54.3-.33-.67-.64-1.35-.92-2.05,34.34-25.6,80.55-53.78,81.12-54.12a1.09,1.09,0,1,1,1.13,1.87Z"/><path class="cls-3" d="M45.14,105c6.83,16.63-6.68,12.16-1.76,24.62C47.85,141,62.72,138,53.71,157.4c-2,4.24-.17,8.76,3.56,12.24A18.18,18.18,0,0,0,78,172.69c.53-.25,1-.53,1.54-.83a18.54,18.54,0,0,0,9-15.87c.07-5.76-1.44-12.09-6.88-16.63-12.79-10.67,3.48-26.7-8.57-32.74-14.53-7.27-12.78-13-20.3-24.82C44.82,69.26,35.87,82.49,45.14,105Z"/><path class="cls-4" d="M53.08,100.83c.18.47,15.68,39.9,24.88,71.86.53-.25,1-.53,1.54-.83-9.25-32-24.65-71.18-24.84-71.66a.85.85,0,1,0-1.58.63Z"/><path class="cls-5" d="M25.66,148.49c14.42,18.08-3.86,17.42,6.68,31C42,191.93,59.22,182.85,55.07,210c-.91,6,2.94,10.88,8.79,13.84a23.42,23.42,0,0,0,26.65-3.67c.55-.5,1.08-1,1.59-1.58a23.82,23.82,0,0,0,5.48-22.84c-2-7.14-6.13-14.41-14.48-18.06-19.62-8.57-5.3-34.22-22.35-37.33-20.55-3.76-20.43-11.44-34-23.34C12.41,104.44,6.12,124,25.66,148.49Z"/><path class="cls-3" d="M34,140.44c.4.52,33.71,43.62,56.56,79.77.55-.5,1.08-1,1.59-1.58-22.92-36.18-56-79-56.42-79.53A1.09,1.09,0,1,0,34,140.44Z"/><path class="cls-5" d="M122.93,132.76c5.81-4,20.36,5.83,28,17.75l-6.75-18.91a41.4,41.4,0,0,0-13.4-7.46c-10.4-3.69-20.81-9.46-15-13.44,5.45-3.74,18.61,4.68,26.49,15.59L133.59,102A27.36,27.36,0,0,0,126,98c-6.55-2.33-13.11-6-9.44-8.47,3.18-2.18,10.53,2.21,15.54,8.32L129.3,90a39.64,39.64,0,0,0-6-8.53c-6.67-6.9-11.72-14.67-6.57-15.8s13.58,12.41,14.91,24.63l1.44,4c-1.12-8.89,2.08-19.65,6.53-20s1.66,6.6-1.94,12.54a24.81,24.81,0,0,0-3.7,10L140.8,116c-1.73-14.08,3.33-31.06,10.38-31.67s2.62,10.46-3.09,19.9c-4.31,7.12-5.53,12.79-5.86,15.76l8.19,22.94C149,129,153.94,112.07,160.89,112c5.35,0,3.71,7.52-2.68,18.19A45.18,45.18,0,0,0,152,147.39l3.85,10.81a3.65,3.65,0,0,1-2,.71l-1.54-4.3c-2.16-2.1-6.68-5.66-14.44-8.41C127.53,142.51,117.11,136.74,122.93,132.76Z"/><path class="cls-5" d="M71.81,293c-6,3.75-2.74,21,5.17,32.72L62.32,312a41.08,41.08,0,0,1-1.52-15.26c.75-11-.4-22.86-6.38-19.1-5.59,3.52-3.09,18.94,3.78,30.51l-18.84-17.6a27.39,27.39,0,0,1-.65-8.54c.47-6.93-.25-14.4-4-12-3.26,2.06-2.15,10.55,1.47,17.58l-6.11-5.71A39.71,39.71,0,0,1,24.6,273c-3.68-8.86-8.8-16.58-11.88-12.31s6,17.4,16.67,23.47l3.14,2.94c-7.71-4.56-18.86-5.91-21-2s5.4,4.13,12.28,3.19a24.93,24.93,0,0,1,10.62.57l14.84,13.87c-12.23-7.19-29.83-9.3-33.19-3.06s8.56,6.56,19.49,5.07c8.25-1.13,13.94,0,16.79.88l17.8,16.64c-12.2-6.87-29.68-9-32.49-2.67-2.16,4.9,5.42,6.4,17.76,4.77a45.34,45.34,0,0,1,18.23,1.17l8.38,7.83a3.59,3.59,0,0,0,1.44-1.54l-3.34-3.12c-1.06-2.82-2.53-8.38-2-16.59C78.94,301.1,77.78,289.25,71.81,293Z"/><rect class="cls-6" x="54.5" y="138.42" width="318.09" height="219.73"/><polygon class="cls-7" points="372.59 138.43 372.59 152.51 213.55 293.47 54.5 152.51 54.5 138.43 213.54 279.87 372.59 138.43"/><polygon class="cls-7" points="182.91 252.13 63.72 358.14 54.5 358.14 54.5 352.54 176.05 244.43 182.91 252.13"/><polygon class="cls-7" points="372.6 353.29 372.6 358.14 362.55 358.14 243.36 252.13 250.21 244.43 372.6 353.29"/><polygon class="cls-8" points="54.49 138.41 213.54 279.87 372.59 138.41 54.49 138.41"/><polygon class="cls-9" points="284.84 118.63 288.9 127.31 280.32 127.44 277.01 119.54 284.84 118.63"/><path class="cls-5" d="M286.19,126.77s1.77-2.37,3.17-2.27,12.19,8.69,15.89,9.4,3.36,4.47,1.81,4.47l-29.06,0s-.74-8.8.2-11.42S283.3,127.39,286.19,126.77Z"/><path class="cls-10" d="M292.16,132.76a.48.48,0,0,1-.4,0,.51.51,0,0,1-.2-.7,8,8,0,0,1,2.7-2.82,3.58,3.58,0,0,1,3.67.18.51.51,0,0,1,.11.72.53.53,0,0,1-.73.11,2.53,2.53,0,0,0-2.58-.08,7,7,0,0,0-2.27,2.4A.48.48,0,0,1,292.16,132.76Z"/><path class="cls-10" d="M290.62,131.3a.5.5,0,0,1-.41-.05.51.51,0,0,1-.19-.7,7.92,7.92,0,0,1,2.7-2.81,3.53,3.53,0,0,1,3.66.17.52.52,0,0,1-.61.83,2.58,2.58,0,0,0-2.59-.08,7,7,0,0,0-2.26,2.4A.54.54,0,0,1,290.62,131.3Z"/><path class="cls-10" d="M294.26,133.94a.54.54,0,0,1-.41,0,.52.52,0,0,1-.19-.71,7.8,7.8,0,0,1,2.7-2.81,3.56,3.56,0,0,1,3.66.17.51.51,0,0,1,.11.72.52.52,0,0,1-.73.11,2.55,2.55,0,0,0-2.58-.08,7,7,0,0,0-2.26,2.4A.5.5,0,0,1,294.26,133.94Z"/><path class="cls-11" d="M287.28,121.46l-3.8,1.24-2.11.12-3.63.22c-4.8-3.8-17.75-15.22-20.27-22,0,0-16.66,38.74-39.68,38.74-1.5,0,2.45-19.28,6.2-23.28,0,0,21.23-39.56,35-35.37C265.14,83.06,271.38,92,287.28,121.46Z"/><path class="cls-12" d="M283.48,122.7l-2.11.12c-14.13-10.69-20.67-19.75-23.68-25.55a.47.47,0,0,0-.39-.27.25.25,0,0,0-.22.17c-6.76,15.93-14.88,25.48-20.5,30.7-6.12,5.68-10.6,7.55-10.79,7.63l-.26-.63-.25-.63s4.48-1.89,10.44-7.43c5.5-5.12,13.46-14.51,20.11-30.17a1.57,1.57,0,0,1,1.42-1,1.79,1.79,0,0,1,1.65,1C261.93,102.49,268.66,111.73,283.48,122.7Z"/><path class="cls-13" d="M273.93,120.45a12.15,12.15,0,0,0,2.63,3.49s8.14-.37,12.09-2.36l-1.77-4.13A61.29,61.29,0,0,1,273.93,120.45Z"/><path class="cls-3" d="M284.57,64.92C273,69.63,263.76,72,255.89,73h0c-.1,0-1.95.16-2.67.13a20.91,20.91,0,0,1-7.89-1.91c-2.07-1-5-3.47-8.12-6.45-3.84-3.7-7.88-8.13-10.67-11.3-2.18-2.46-3.6-4.16-3.6-4.16,1.93-2.87,6.2-5.48,9.92-6.88,0,0,7.76,12.92,19.51,19.26.64.35,1.3.68,2,1,2.68-.43,9.92-.76,13.06-1a126.22,126.22,0,0,0,15.47-2.09Z"/><path class="cls-9" d="M282.56,59.14s1.61-4.07,3.8-5.23,8.43-5.25,9.76-4,1.05,7.1-4.54,12a11.18,11.18,0,0,1-7.15,3Z"/><path class="cls-12" d="M296.52,53.62l-9.21,8.6a1.34,1.34,0,0,1-1.4.21l-5.64-2.73a.63.63,0,0,1-.34-.34v0l-.28-.94,1.5-.57,14.48-5.5.79-.3.29,1,0,.07a0,0,0,0,1,0,0A.59.59,0,0,1,296.52,53.62Z"/><path class="cls-14" d="M295.62,52.3l-14.48,5.5,8.19-7.65a1.35,1.35,0,0,1,1.4-.21Z"/><path class="cls-11" d="M285.63,61.48,280,58.75a.55.55,0,0,1-.15-1l9.21-8.6a1.33,1.33,0,0,1,1.39-.21l5.65,2.73a.54.54,0,0,1,.14.95l-9.2,8.6A1.35,1.35,0,0,1,285.63,61.48Z"/><g class="cls-15"><path class="cls-11" d="M286.32,59.93,282,57.82a.55.55,0,0,1-.15-1L289,50.18a1.33,1.33,0,0,1,1.39-.22l4.38,2.12a.54.54,0,0,1,.14,1l-7.16,6.69A1.31,1.31,0,0,1,286.32,59.93Z"/></g><path class="cls-14" d="M296.73,53.09h0a0,0,0,0,0,0,0Z"/><path class="cls-9" d="M286.2,51.85s1.31.2,1.45,1.33-1.09.68-1.87.43a1.94,1.94,0,0,0-1.6.13C283.83,54.15,283.89,51.52,286.2,51.85Z"/><path class="cls-9" d="M292.06,58a51.86,51.86,0,0,1,3.64-5.23c1.05-1.23,1.58.56.87,1.8S294.43,58.32,292.06,58Z"/><path class="cls-5" d="M196.2,118.94l-4.56-29.4-.27-1.74,0-1.31,1-41.65L204,40.94l.62-.21,2.59-.88,2.06-.7,12.2,1.68,2,.27.7.1,8.72,1.2c.08,27.61-2.57,33.57,2.54,56C238,106.9,228.53,136.9,196.2,118.94Z"/><path class="cls-3" d="M202.7,111.42h0c9.13-2.55,15.8-8.86,19.78-13.7a51.51,51.51,0,0,0,6.52-10,.45.45,0,0,0-.23-.6.44.44,0,0,0-.6.22,50.89,50.89,0,0,1-6.41,9.81c-3.9,4.73-10.41,10.89-19.31,13.38a.45.45,0,0,0-.31.56A.46.46,0,0,0,202.7,111.42Z"/><path class="cls-3" d="M213.08,111.91c7.94-2.18,14.61-8.88,14.91-9.18a.46.46,0,1,0-.65-.64c-.07.08-7.93,8-16.42,9.36a.46.46,0,0,0,.15.9A19.44,19.44,0,0,0,213.08,111.91Z"/><path class="cls-3" d="M207.46,53.19c7.94-2.2,14.59-8.92,14.89-9.22a.46.46,0,1,0-.65-.64c-.08.08-7.91,8-16.4,9.4a.46.46,0,0,0,.15.91Q206.47,53.46,207.46,53.19Z"/><polygon class="cls-9" points="277.06 195.02 280.26 202.13 273.71 204.95 269.9 197.6 277.06 195.02"/><path class="cls-5" d="M278.83,202s.67-2.87,2-3.34,14.65,3.09,18.33,2.27,4.1,2,4,3.5-27.27,11.3-27.27,11.3-4.15-7.55-4.33-10.33S276.43,203.71,278.83,202Z"/><path class="cls-10" d="M286.69,205.09a.52.52,0,0,1-.85-.45,8.07,8.07,0,0,1,1.35-3.66,3.57,3.57,0,0,1,3.43-1.3.51.51,0,0,1,.39.62.52.52,0,0,1-.62.39,2.53,2.53,0,0,0-2.4,1,7.1,7.1,0,0,0-1.12,3.1A.48.48,0,0,1,286.69,205.09Z"/><path class="cls-10" d="M284.69,204.37a.52.52,0,0,1-.85-.45,8.07,8.07,0,0,1,1.35-3.66,3.57,3.57,0,0,1,3.43-1.3.51.51,0,0,1,.39.62.5.5,0,0,1-.62.38,2.55,2.55,0,0,0-2.4,1,7,7,0,0,0-1.11,3.11A.53.53,0,0,1,284.69,204.37Z"/><path class="cls-10" d="M289.09,205.34a.55.55,0,0,1-.39.12.51.51,0,0,1-.46-.57,8,8,0,0,1,1.35-3.66,3.56,3.56,0,0,1,3.43-1.3.51.51,0,0,1,.38.62.5.5,0,0,1-.62.38,2.57,2.57,0,0,0-2.4,1,6.93,6.93,0,0,0-1.11,3.1A.56.56,0,0,1,289.09,205.34Z"/><path class="cls-11" d="M278.71,196.4a18.42,18.42,0,0,1-5.06,3c-.41.19-.84.37-1.26.55-.74.3-1.47.58-2.17.82,0,0-15.53-28.64-21.5-49.41,0,0-52.59-6.49-54.41-24.91a9.27,9.27,0,0,1,0-1.9,13.39,13.39,0,0,1,1.9-5.57c1.2-2.07,19.2,0,28.93,2.68,0,0,26.36,10.27,36.11,20.85C266.17,147.82,278.71,196.4,278.71,196.4Z"/><path class="cls-12" d="M273.65,199.36c-.41.19-.84.37-1.26.55-7.85-13-18.76-43.39-21.2-50.69a1.44,1.44,0,0,0-1.1-1c-25.55-4.8-40.28-11.5-48.13-16.28a50.65,50.65,0,0,1-7.65-5.57,9.27,9.27,0,0,1,0-1.9,46.35,46.35,0,0,0,8.52,6.4c7.76,4.69,22.29,11.27,47.52,16a2.81,2.81,0,0,1,2.15,1.87C254.92,156.09,265.88,186.61,273.65,199.36Z"/><path class="cls-13" d="M267.42,197.73l2.48,4s6.18-1.06,10.36-5.29l-1.55-3.54A112.4,112.4,0,0,1,267.42,197.73Z"/><path class="cls-9" d="M183.71,129.81s3.58,4.85,3.28,7.37-3.53,7.24-6.12,7.47,3-6.08,1.66-5.88c-1.59.25-12.32,9-14.59,9s2.67-4.09,4.59-5.12c0,0-5.08,2.27-6.26,3.45s-2-1.35,3.87-5c0,0-5.43,3.08-5.79,3.13-1.21.16,2.23-3.88,5.19-5.33,0,0-4.34,2.11-4.79,2.12-.61,0,.7-1.41,3.93-3.19,2.9-1.61,7.65-9,7.65-9Z"/><path class="cls-3" d="M192.42,44.84s-12,23.14-14.79,47.34l-1.3,36.75s1.24,2.62,7.38.88l5.94-36.74,4.55-16.82S196.27,55.56,192.42,44.84Z"/><circle class="cls-11" cx="216.31" cy="17.51" r="13.31" transform="translate(138.15 219.96) rotate(-73.52)"/><path class="cls-11" d="M229.62,17.43s3.89-.36,4-4c.12-3.14-3.83-1.79-3.09-4.13s1.83-4.4-1.16-5.54c-2.62-1-3,.84-6.08-2.48-3.65-3.93-8.18,2.87-12,2.43-5.6-.65-6.85,2.36-7.84,4.77a4.75,4.75,0,0,0,.83,4.54Z"/><path class="cls-16" d="M226.57,23.1s2.56-2.4,3.7.16-2.24,8.94-5.73,6.62Z"/><path class="cls-17" d="M225.74,27.94a.34.34,0,0,0,.35-.18,5,5,0,0,1,3.29-2.45.34.34,0,0,0,.26-.38.33.33,0,0,0-.38-.26,5.57,5.57,0,0,0-3.76,2.81.33.33,0,0,0,.15.43Z"/><path class="cls-17" d="M228.11,27.27a.28.28,0,0,0,.18,0,.32.32,0,0,0,.17-.42,2.94,2.94,0,0,0-1-1.18.34.34,0,0,0-.46.09.32.32,0,0,0,.09.45,2.22,2.22,0,0,1,.79.89A.35.35,0,0,0,228.11,27.27Z"/><path class="cls-9" d="M209.27,33.1l-1.19,6.72S210.32,43.27,213,44s4.89-2.21,4.89-2.21L219,35.31Z"/><path class="cls-16" d="M209.27,33.1l-.53,3c1.46,2.34,4.61,3.42,9.51,3.55l.77-4.32Z"/><path class="cls-9" d="M205.23,14.57a69.06,69.06,0,0,0-.63,8.65c0,.68.05,1.31.1,1.89.54,5.21,2.58,14.33,13.12,12.54,4.65-.79,7.54-5.3,9.32-10.1a49,49,0,0,0,2.29-9.09,7.14,7.14,0,0,0-2.51-6.6c-5.26-4.35-11.65-4.2-16-3.36A7.13,7.13,0,0,0,205.23,14.57Z"/><path class="cls-11" d="M221.43,23.1c-.13.72.14,1.36.6,1.44s.93-.43,1.05-1.15-.14-1.36-.59-1.45S221.56,22.38,221.43,23.1Z"/><path class="cls-11" d="M211.75,21.39c-.12.72.14,1.36.6,1.44s.93-.43,1.06-1.15-.14-1.36-.6-1.45S211.88,20.67,211.75,21.39Z"/><path class="cls-11" d="M225.65,19.73s-3.2-2-6.05-1.29v1.27a11.29,11.29,0,0,1,5.61,1.41C225.48,20.58,225.77,20.35,225.65,19.73Z"/><path class="cls-11" d="M209.91,17s3.68-.75,6.13.86L215.6,19a11.35,11.35,0,0,0-5.75-.6C209.77,17.8,209.58,17.49,209.91,17Z"/><path class="cls-16" d="M216,27.4a3.47,3.47,0,0,1-1.11-.44.32.32,0,1,1,.34-.55c.27.16.93.47,1.26.34.07,0,.16-.08.21-.27a48.37,48.37,0,0,0,.67-4.92.33.33,0,0,1,.36-.29.32.32,0,0,1,.29.35,49.4,49.4,0,0,1-.7,5,1,1,0,0,1-.6.7A1.26,1.26,0,0,1,216,27.4Z"/><path class="cls-10" d="M219.62,30.07c-.49,1.27-1.79,3.53-4.71,3s-3.36-2.87-3.37-4.44Z"/><path class="cls-16" d="M214.66,34.76a3.39,3.39,0,0,1-1.49-.72.33.33,0,0,1,0-.45.32.32,0,0,1,.46,0,2.94,2.94,0,0,0,1.17.56A2.72,2.72,0,0,0,216,34a.32.32,0,0,1,.42.18.31.31,0,0,1-.18.42A3.18,3.18,0,0,1,214.66,34.76Z"/><path class="cls-11" d="M226.52,25.29a13.62,13.62,0,0,0,1-3.83c0-1.6-1.15-2.73-.46-4.15s-.6-3.29-1.72-3.76-3.91-.37-6.35-2.11-6.9-1.57-7.91-.07c-1.22,1.82-.06,2.22-2.82,3.93-1.1.69-.36,3.09-.46,4.56a9.5,9.5,0,0,1-.24,1.71l-.07.35-2.85-.5c.08-2.28.34-4.77.6-6.85a7.12,7.12,0,0,1,5.7-6.07c4.34-.84,10.73-1,16,3.36a7.14,7.14,0,0,1,2.51,6.6,52.21,52.21,0,0,1-1.61,7.06Z"/><path class="cls-9" d="M205.67,22.87a12.08,12.08,0,0,0,.22-2.25A2.71,2.71,0,0,0,204.81,18a1.78,1.78,0,0,0-2.44.17c-1.94,2-1.48,9.45,2.59,8.47Z"/><path class="cls-16" d="M204.59,24.46a.31.31,0,0,1-.2-.33,5.05,5.05,0,0,0-1.54-3.81.33.33,0,0,1,.44-.48A5.59,5.59,0,0,1,205,24.19a.31.31,0,0,1-.35.29Z"/><path class="cls-16" d="M202.92,22.66a.32.32,0,0,1-.08-.56,3,3,0,0,1,1.5-.48.33.33,0,0,1,0,.65,2.54,2.54,0,0,0-1.15.35A.3.3,0,0,1,202.92,22.66Z"/><path class="cls-9" d="M355.93,176.58a115.47,115.47,0,0,1-9.54,14.9,38.57,38.57,0,0,1-4.68,5.11c-2.53,2.25-5,3.42-7,2.42-7.47-3.69-24.13-33.06-24.13-33.06l4.1-4.76s7.41,8.38,12.84,13.4c5,4.63,8.84,8.09,8.84,8.09.69-1,1.43-2.16,2.2-3.36s1.66-2.61,2.52-4c6.24-10,13.76-21,13.76-21Z"/><path class="cls-9" d="M315.75,164.07s1.69-2.77,1-5.26-1.29-8.11-4-7.95c-1,0,.46,2.4-.21,4.57a36.07,36.07,0,0,1-4.85-2.84c-1.72-1.26-5.26-3.32-6.91-4.26a.51.51,0,0,0-.71.68c.42.72,1.45,1.79,3.85,3.29,0,0-5.95-3.33-6.94-2.6s6.51,4.76,6.51,4.76-6.06-2.45-6.56-1.55c-.3.54,5.64,4,5.64,4s-5.9-1.82-4.8-.44c.32.41,11.53,5.48,13.87,11.37C311.67,167.87,314.94,166.08,315.75,164.07Z"/><path class="cls-16" d="M346.39,191.48a38.57,38.57,0,0,1-4.68,5.11l-3.17-17.27c.81-1.27,1.66-2.61,2.52-4Z"/><path class="cls-5" d="M355.05,153.52,339.26,176.3l5,20.29,12.39-19.76S359,163.6,355.05,153.52Z"/><polygon class="cls-9" points="363.15 348.4 363.15 355.59 369.86 355.48 370.3 347.86 363.15 348.4"/><path class="cls-11" d="M380.19,243.35c-.05.85-.28,5-.63,10.68-.94,15.71-2.71,43.64-3.75,49.91-1.07,6.44-.59,27.55-.24,38.6a6.64,6.64,0,0,1-1.9,4.84,7.58,7.58,0,0,1-1.56,1.19,6.87,6.87,0,0,1-3.37.87h-5.12a6.76,6.76,0,0,1-6.83-6.9c.29-9.34.64-26.38,0-39.55-.64-12.53.29-34.7,1-48.52h0c.29-5.52.54-9.7.64-11.4Z"/><path class="cls-12" d="M358.41,243.07l21.78.28c-.05.85-.28,5-.63,10.68a94.19,94.19,0,0,1-21.79.44C358.06,249,358.31,244.77,358.41,243.07Z"/><path class="cls-12" d="M373.58,322.84c.19,7.06.39,14.37.26,20.26,0,1.65-.09,3.07-.17,4.28a6.72,6.72,0,0,1-1.56,1.19c.12-1.41.22-3.21.27-5.5.13-5.86-.07-13.15-.26-20.2-.24-8.61-.46-16.75,0-20.21,1.05-7.59,3.38-48.68,4-59.65l1.46.06c-.61,11-3,52.15-4,59.78C373.13,306.2,373.35,314.28,373.58,322.84Z"/><path class="cls-5" d="M364.87,355.32s-1.39-1.92-2.53-1.86-10.06,6.7-13.08,7.2-2.49,2.68-2,3.8,24,.1,24,.1.79-6.82.08-8.93S367.21,355.86,364.87,355.32Z"/><path class="cls-10" d="M359.91,360a.38.38,0,0,0,.33,0,.41.41,0,0,0,.17-.56,6.34,6.34,0,0,0-2.14-2.28,2.94,2.94,0,0,0-3,.07.41.41,0,0,0-.1.57.43.43,0,0,0,.59.1,2.1,2.1,0,0,1,2.1,0,5.54,5.54,0,0,1,1.79,2A.45.45,0,0,0,359.91,360Z"/><path class="cls-10" d="M361.2,358.85a.48.48,0,0,0,.33,0,.41.41,0,0,0,.17-.56,6.4,6.4,0,0,0-2.15-2.29,3,3,0,0,0-3,.07.42.42,0,0,0-.1.58.43.43,0,0,0,.59.1,2.09,2.09,0,0,1,2.1,0,5.52,5.52,0,0,1,1.79,1.95A.44.44,0,0,0,361.2,358.85Z"/><path class="cls-10" d="M358.19,360.89a.47.47,0,0,0,.33,0,.41.41,0,0,0,.17-.56,6.34,6.34,0,0,0-2.14-2.29,2.92,2.92,0,0,0-3,.08.4.4,0,0,0-.1.57.43.43,0,0,0,.59.1,2.07,2.07,0,0,1,2.09,0,5.7,5.7,0,0,1,1.8,1.95A.4.4,0,0,0,358.19,360.89Z"/><polygon class="cls-9" points="395.84 348.4 396.56 355.57 402.55 355.48 402.99 347.86 395.84 348.4"/><path class="cls-11" d="M408.17,303c-.67,13.17-.32,30.21,0,39.55a6.76,6.76,0,0,1-6.83,6.9H396.2a7.06,7.06,0,0,1-3.15-.74,6.71,6.71,0,0,1-1.54-1.09,6.52,6.52,0,0,1-2.14-5.07c.34-11.05.82-32.16-.25-38.6s-2.87-35.16-3.8-50.71c-.31-5.2-.52-8.91-.58-9.83l21.82.28c.06,1.11.16,2.82.28,5C407.55,261.1,408.91,288.49,408.17,303Z"/><path class="cls-12" d="M406.84,248.66a216.81,216.81,0,0,1-21.52,4.57c-.31-5.2-.52-8.91-.58-9.83l21.82.28C406.62,244.79,406.72,246.5,406.84,248.66Z"/><path class="cls-12" d="M392.78,343.07c.05,2.36.15,4.2.28,5.62a6.69,6.69,0,0,1-1.56-1.08c-.08-1.26-.15-2.75-.19-4.51-.13-5.89.07-13.2.26-20.26.23-8.56.45-16.64,0-20-1.05-7.64-3.4-48.84-4-59.79L389,243c.61,10.95,3,52.07,4,59.66.48,3.46.26,11.6,0,20.21C392.85,329.92,392.65,337.21,392.78,343.07Z"/><path class="cls-5" d="M398.9,354.47a27.65,27.65,0,0,1,3.9-.78c.84,0,6.5,6.21,8.4,6.58,3.46.66,3.46,5.94,1.36,6.21-6.08.76-16.48-1.76-16.48-1.76s-1-6.78-.54-8.91S397.2,355.1,398.9,354.47Z"/><path class="cls-10" d="M403.93,360.26a.45.45,0,0,1-.32-.06.4.4,0,0,1-.12-.57,6.36,6.36,0,0,1,2.36-2.08,3,3,0,0,1,3,.35.42.42,0,0,1-.55.63,2.1,2.1,0,0,0-2.09-.22,5.71,5.71,0,0,0-2,1.78A.41.41,0,0,1,403.93,360.26Z"/><path class="cls-10" d="M402.77,359a.43.43,0,0,1-.33-.06.41.41,0,0,1-.11-.57,6.3,6.3,0,0,1,2.35-2.08,3,3,0,0,1,3,.35.4.4,0,0,1,.05.58.43.43,0,0,1-.6,0,2.09,2.09,0,0,0-2.09-.22,5.64,5.64,0,0,0-2,1.78A.44.44,0,0,1,402.77,359Z"/><path class="cls-10" d="M405.56,361.32a.39.39,0,0,1-.33-.06.41.41,0,0,1-.11-.57,6.39,6.39,0,0,1,2.35-2.08,2.93,2.93,0,0,1,3,.36.4.4,0,0,1,.05.58.44.44,0,0,1-.6,0,2.1,2.1,0,0,0-2.09-.21,5.65,5.65,0,0,0-2,1.77A.44.44,0,0,1,405.56,361.32Z"/><path class="cls-5" d="M411.51,245.55a121.28,121.28,0,0,1-59.05,0c-.1-7.19-.2-36,.36-59.59,0-.46,0-.93,0-1.39,0-.22,0-.45,0-.68v0c0-.3,0-.59,0-.88.42-15.58,1.15-28.3,2.41-30h0c2.94-3.95,17.68-10.25,21.76-13.07.34.54,2.35,3.52,5,3.74,2.88.25,5.45-3.08,5.45-3.08v-.63c4.1,2.81,17.45,8.65,20.38,12.59C411.09,156.84,411.64,233.29,411.51,245.55Z"/><path class="cls-3" d="M358.83,174.87a72,72,0,0,0-5.27,9.67l-.37.79c-.13.27-.2.43-.2.44a.45.45,0,0,1-.17.19c0-.46,0-.93,0-1.39,0-.22,0-.45,0-.68v0c.22-.48.49-1,.79-1.66a57.2,57.2,0,0,1,4.43-7.86.45.45,0,0,1,.63-.09A.43.43,0,0,1,358.83,174.87Z"/><path class="cls-3" d="M396.56,157.49h0A32.09,32.09,0,0,1,379,151.42a30.57,30.57,0,0,1-6.21-5.73.43.43,0,0,1,.1-.62.45.45,0,0,1,.63.09c.09.11,8.54,11,23.06,11.44a.45.45,0,0,1,.45.46A.46.46,0,0,1,396.56,157.49Z"/><path class="cls-3" d="M370.18,230.54a.44.44,0,0,1-.45-.42.45.45,0,0,1,.42-.48c12.85-.82,20.51-7.2,24.68-12.4a34.07,34.07,0,0,0,6-11.26.47.47,0,0,1,.56-.32.45.45,0,0,1,.33.54,34.53,34.53,0,0,1-6.19,11.56c-4.28,5.36-12.16,11.93-25.36,12.78Z"/><path class="cls-3" d="M377.08,222.55a.46.46,0,0,1-.44-.34.44.44,0,0,1,.32-.54c11.16-3,13.32-12.09,13.34-12.19a.46.46,0,0,1,.54-.34.45.45,0,0,1,.35.53,15.62,15.62,0,0,1-2.56,5.27,20,20,0,0,1-11.43,7.59Z"/><path class="cls-9" d="M426,244.76c-.28,3.92-2.68,6.82-2.69,9.4s-3,.89-1.65-4.2-.68-10-1.79-10,.36,5.74-.81,7.63-2.06-2.08-3.08-4.54-.47-7.83.49-11.55-3.77-27.33-3.15-34l-1.71-8.63-1-5-.18-5.25,9.12-3.55c.35,1.69.7,3.44,1.05,5.2l.45,2.33c1.22,6.29,2.32,12.48,2.77,16.45,1.23,11-.79,33.41-.79,33.41S426.23,241.09,426,244.76Z"/><path class="cls-16" d="M421,182.62c-2.06,2.3-5.34,5.23-9.44,6.3l-1-5-.18-5.25,9.12-3.55c.35,1.69.7,3.44,1.05,5.2Z"/><path class="cls-5" d="M423.56,177.63a19.27,19.27,0,0,1-3,2.66,17.42,17.42,0,0,1-10,3.6c-.5-14.56-1.24-26.87-2.33-30.48C410.19,155.74,419.44,167.21,423.56,177.63Z"/><path class="cls-3" d="M404.33,173.41a72.55,72.55,0,0,1,5.27,9.66l.37.8c.13.27.2.43.2.44a.46.46,0,0,0,.42.26h0c0-.22,0-.45,0-.68h.4l-.42-.91c-.27-.57-.64-1.35-1.07-2.24a58.27,58.27,0,0,0-4.42-7.86.46.46,0,0,0-.64-.09A.43.43,0,0,0,404.33,173.41Z"/><path class="cls-11" d="M396.08,116.52c0,7.89-5,13.33-13,13.33s-13.66-5.85-13.66-13.74,4.77-13.86,12.82-13.86C391.88,102.25,396.08,108.64,396.08,116.52Z"/><path class="cls-16" d="M394.27,119.92s2.24-2.92,3.9-.51-.69,9.56-4.76,7.81Z"/><path class="cls-17" d="M394.3,125a.34.34,0,0,0,.33-.25,5.25,5.25,0,0,1,3-3.1.34.34,0,1,0-.25-.63,5.86,5.86,0,0,0-3.4,3.55.34.34,0,0,0,.24.42Z"/><path class="cls-17" d="M396.65,123.91a.41.41,0,0,0,.19,0,.34.34,0,0,0,.1-.47,3.14,3.14,0,0,0-1.29-1,.35.35,0,0,0-.46.17.33.33,0,0,0,.18.44,2.51,2.51,0,0,1,1,.77A.36.36,0,0,0,396.65,123.91Z"/><path class="cls-16" d="M371.22,119.92s-2.24-2.92-3.9-.51.69,9.56,4.76,7.81Z"/><path class="cls-17" d="M371.19,125a.34.34,0,0,1-.33-.25,5.25,5.25,0,0,0-3-3.1.34.34,0,0,1-.19-.44.34.34,0,0,1,.44-.19,5.83,5.83,0,0,1,3.4,3.55.34.34,0,0,1-.24.42Z"/><path class="cls-17" d="M368.84,123.91a.41.41,0,0,1-.19,0,.34.34,0,0,1-.1-.47,3.14,3.14,0,0,1,1.29-1,.35.35,0,0,1,.46.17.33.33,0,0,1-.18.44,2.61,2.61,0,0,0-1,.77A.36.36,0,0,1,368.84,123.91Z"/><path class="cls-9" d="M377.24,133.28v7.09s2.16,3.62,5.08,3.86,5.51-3.11,5.51-3.11v-7.34Z"/><path class="cls-16" d="M377.24,133.28v3.15c2,2.13,5.44,2.66,10.59,1.91v-4.56Z"/><path class="cls-9" d="M395.47,119.69a41.29,41.29,0,0,1-.59,4.68c-1,5.23-3.16,10.37-7.87,12-10.68,3.74-14.49-5.23-16-10.46-.16-.58-.31-1.23-.45-1.92-.24-1.24-.43-2.63-.57-4-.18-1.7-.3-3.42-.37-4.93a7.4,7.4,0,0,1,4.83-7.25c4.38-1.64,11-3,17.33.55a7.4,7.4,0,0,1,3.83,6.31C395.62,116.08,395.6,117.82,395.47,119.69Z"/><path class="cls-11" d="M394.14,120c-.35.64-2.35,6.69-2.91,7.53-1.26-2.72-7.35-.74-7.35-.74a3.93,3.93,0,0,1-1.18.18,4.11,4.11,0,0,1-1.15-.17h0s-6.16-1.89-7.37,1c-.56-.85-2.3-6.78-2.63-7.75H370c.14,1.4.33,2.79.57,4,.14.69.29,1.34.45,1.92,1.53,5.23,5.34,14.2,16,10.46,4.71-1.65,6.9-6.79,7.87-12a41.29,41.29,0,0,0,.59-4.68Zm-5.73,11h0A6.68,6.68,0,0,1,387,132.1c-2.7,1.44-3,1.22-4.07,1.27a8.2,8.2,0,0,1-4.1-1.1,11.23,11.23,0,0,1-1.95-1.46s-1.1-3.67,5.87-2.75C389.7,126.88,388.52,130.32,388.41,131Z"/><path class="cls-11" d="M387.32,120.85c0,.75.4,1.37.89,1.37s.89-.62.89-1.37-.4-1.38-.89-1.38S387.32,120.09,387.32,120.85Z"/><path class="cls-11" d="M376.83,120.82c0,.75.4,1.37.89,1.37s.89-.62.89-1.37-.4-1.37-.89-1.37S376.83,120.06,376.83,120.82Z"/><path class="cls-11" d="M391.74,117s-3.41-1.32-6-.21l.26,1.43s3.85-.32,5.8.45A2.46,2.46,0,0,0,391.74,117Z"/><path class="cls-11" d="M374.78,117s3.41-1.32,6-.21l-.26,1.43s-3.86-.32-5.8.45A2.46,2.46,0,0,1,374.78,117Z"/><path class="cls-16" d="M382.63,126.15a4,4,0,0,1-1.25-.25.33.33,0,0,1-.19-.44.35.35,0,0,1,.45-.19,2.06,2.06,0,0,0,1.38.13.37.37,0,0,0,.17-.31,49.33,49.33,0,0,0-.21-5.17.35.35,0,0,1,.32-.36.34.34,0,0,1,.37.31,47.89,47.89,0,0,1,.2,5.29,1,1,0,0,1-.5.82A1.44,1.44,0,0,1,382.63,126.15Z"/><path class="cls-10" d="M387.32,128.63c-.28,1.38-1.21,3.93-4.36,3.93s-4-2.33-4.35-3.93Z"/><path class="cls-11" d="M370,120h1.56c-.18-1.53-.42-4.24.86-4.62,4.07-1.23-1.2-4,.63-5.44s6.4-.81,9.58-.91a70,70,0,0,1,9.57.23c1.25.28.57,2.31.11,3.89s1.53,3.31,1.87,4.93a7.24,7.24,0,0,1,0,1.92h1.3c.16-2,.18-3.83.15-5.32a7.4,7.4,0,0,0-3.83-6.31c-6.3-3.5-12.95-2.19-17.33-.54a7.38,7.38,0,0,0-4.83,7.24C369.68,116.56,369.79,118.28,370,120Z"/><path class="cls-10" d="M141.29,292.69H62.13c1.3-7.95,7.6-13.72,14.95-13.69l24.63.07,24.63-.07C133.68,279,140,284.74,141.29,292.69Z"/><rect class="cls-10" x="68.35" y="291.55" width="4.31" height="73.81"/><rect class="cls-10" x="130.75" y="291.55" width="4.31" height="73.81"/><rect class="cls-2" x="72.67" y="312.23" width="58.08" height="4.16"/><path class="cls-3" d="M82.33,193.33s-13.22,17.63-15,33c-1.25,10.86,15,27.09,15,27.09l5.58-2.78-5.57-12.57c-2-6.11-4.42-8.53-2.62-14.7l4-8.7Z"/><path class="cls-3" d="M124,193.06s13,18.8,14.13,34.24c.93,13.31-15,26.13-15,26.13l-4.62-2.3,6.39-12.69c2-6.12,2.93-9.81.22-16.46l-3.43-7.3Z"/><path class="cls-5" d="M85,233.48l-8.76,27.88s37.94,4.84,49.54,1.71l-5.89-30.36L124,193.06a56.48,56.48,0,0,0-17.85-4.36c-9-.65-14.64.83-23.81,4.63Z"/><path class="cls-3" d="M94.5,201.73c8.38-1,16.16-6.73,16.52-7a.47.47,0,0,0-.56-.75c-.09.07-9.26,6.83-18.07,6.95a.47.47,0,0,0,0,.93A21,21,0,0,0,94.5,201.73Z"/><polygon class="cls-9" points="101.25 351.1 101.93 357.25 108.48 357.4 109.03 352.3 101.25 351.1"/><path class="cls-12" d="M100.22,253.5s-17-.93-22.69,3.77-4.59,18.18,1.26,21.86S94.61,290,94.61,290L101,353.11l8.39.28s7.72-63.35,3.8-75.61S100.22,253.5,100.22,253.5Z"/><path class="cls-11" d="M110.11,350.26a7,7,0,0,1-.22,4.32l-9.64-.21a11.18,11.18,0,0,1-.19-4.23Z"/><path class="cls-10" d="M124.21,253H79.72L75.61,229A3.41,3.41,0,0,1,79,225h46a3.41,3.41,0,0,1,3.37,4Z"/><path class="cls-2" d="M120.64,258.25H83.35a3.63,3.63,0,0,1-3.63-3.62V253h44.54v1.6A3.62,3.62,0,0,1,120.64,258.25Z"/><path class="cls-2" d="M105.93,240a3.87,3.87,0,1,1-3.86-3.86A3.86,3.86,0,0,1,105.93,240Z"/><polygon class="cls-9" points="73.44 333.79 71.99 339.88 77.86 341.04 80.26 335.6 73.44 333.79"/><path class="cls-11" d="M108.84,252.46s-11.36-3.92-18,4.3S73,334.39,73,334.39l7.64,3.16,24.57-61.64s20,11.41,22.42-4.82C129.57,258.25,108.84,252.46,108.84,252.46Z"/><path class="cls-13" d="M82.4,334.37a7.25,7.25,0,0,1-1.61,4.16l-9.39-3.32A11.37,11.37,0,0,1,72.58,331Z"/><path class="cls-5" d="M76.47,338.88a36,36,0,0,0-4.61-2c-1-.2-9.7,5.94-12.15,5.88-4.45-.11-5.87,6.42-3.35,7.31,7.32,2.57,20.85,2.25,20.85,2.25s3-8.12,3.06-10.87S78.41,340.1,76.47,338.88Z"/><path class="cls-10" d="M68.7,344.68a.53.53,0,0,0,.71-.67,8.12,8.12,0,0,0-2.35-3.19,3.75,3.75,0,0,0-3.76-.36.5.5,0,0,0-.21.7.55.55,0,0,0,.73.22,2.62,2.62,0,0,1,2.63.29,7.08,7.08,0,0,1,2,2.73A.59.59,0,0,0,68.7,344.68Z"/><path class="cls-10" d="M70.47,343.45a.61.61,0,0,0,.42,0,.52.52,0,0,0,.3-.68,8.18,8.18,0,0,0-2.36-3.19,3.71,3.71,0,0,0-3.75-.37.52.52,0,0,0-.21.71.53.53,0,0,0,.72.21,2.69,2.69,0,0,1,2.64.3,7.19,7.19,0,0,1,2,2.72A.55.55,0,0,0,70.47,343.45Z"/><path class="cls-10" d="M66.4,345.56a.61.61,0,0,0,.42,0,.52.52,0,0,0,.3-.68,8.18,8.18,0,0,0-2.36-3.19,3.71,3.71,0,0,0-3.75-.37.52.52,0,0,0-.21.71.54.54,0,0,0,.72.21,2.69,2.69,0,0,1,2.64.3,7.19,7.19,0,0,1,2,2.72A.55.55,0,0,0,66.4,345.56Z"/><path class="cls-5" d="M104.46,357a33.89,33.89,0,0,1,4.66-1.13c1,0,8.13,7.19,10.45,7.54,4.19.63,4.44,7,1.92,7.42-7.29,1.2-19.95-1.35-19.95-1.35s-1.47-8.13-1.07-10.71S102.44,357.83,104.46,357Z"/><path class="cls-10" d="M110.8,363.74a.57.57,0,0,1-.4-.06.49.49,0,0,1-.16-.68,7.74,7.74,0,0,1,2.74-2.62,3.57,3.57,0,0,1,3.59.29.49.49,0,0,1,.08.7.53.53,0,0,1-.72.08,2.52,2.52,0,0,0-2.52-.16,6.84,6.84,0,0,0-2.31,2.23A.51.51,0,0,1,110.8,363.74Z"/><path class="cls-10" d="M109.34,362.29a.57.57,0,0,1-.4-.06.49.49,0,0,1-.16-.69,7.84,7.84,0,0,1,2.74-2.61,3.57,3.57,0,0,1,3.59.29.49.49,0,0,1,.07.7.51.51,0,0,1-.71.07,2.55,2.55,0,0,0-2.53-.15,6.77,6.77,0,0,0-2.3,2.23A.51.51,0,0,1,109.34,362.29Z"/><path class="cls-10" d="M112.81,364.94a.52.52,0,0,1-.4-.05.5.5,0,0,1-.16-.69,7.75,7.75,0,0,1,2.74-2.61,3.56,3.56,0,0,1,3.59.28.5.5,0,0,1,.08.7.52.52,0,0,1-.72.08,2.52,2.52,0,0,0-2.52-.16,6.83,6.83,0,0,0-2.31,2.23A.47.47,0,0,1,112.81,364.94Z"/><path class="cls-11" d="M114.36,153.56s5.39,8.36,4.8,17.07.8,18.75-7,18.31-21.69,3.12-26.1-3.66S114.36,153.56,114.36,153.56Z"/><path class="cls-18" d="M116.36,168.93s1.4,12.62-4.59,16.09-10.32-.4-10.32-.4S114.07,167,116.36,168.93Z"/><path class="cls-16" d="M91.49,168.87s-2.15-2.87-3.75-.5.66,9.38,4.57,7.67Z"/><path class="cls-17" d="M91.46,173.87a.32.32,0,0,1-.32-.24,5.09,5.09,0,0,0-2.87-3,.33.33,0,0,1-.19-.43.33.33,0,0,1,.43-.19,5.69,5.69,0,0,1,3.27,3.48.34.34,0,0,1-.23.41Z"/><path class="cls-17" d="M89.2,172.78a.29.29,0,0,1-.18-.05.34.34,0,0,1-.1-.46,3.16,3.16,0,0,1,1.24-1,.33.33,0,1,1,.27.61,2.32,2.32,0,0,0-1,.75A.33.33,0,0,1,89.2,172.78Z"/><path class="cls-16" d="M113.64,168.87s2.15-2.87,3.75-.5-.66,9.38-4.58,7.67Z"/><path class="cls-17" d="M113.67,173.87a.33.33,0,0,0,.32-.24,5,5,0,0,1,2.87-3,.34.34,0,0,0,.19-.43.33.33,0,0,0-.43-.19,5.69,5.69,0,0,0-3.27,3.48.33.33,0,0,0,.23.41Z"/><path class="cls-17" d="M115.93,172.78a.31.31,0,0,0,.18-.05.34.34,0,0,0,.1-.46,3.26,3.26,0,0,0-1.24-1,.33.33,0,0,0-.44.17.33.33,0,0,0,.17.44,2.32,2.32,0,0,1,1,.75A.32.32,0,0,0,115.93,172.78Z"/><path class="cls-9" d="M107.86,182v7s-2.08,3.54-4.89,3.78-5.3-3.05-5.3-3.05v-7.21Z"/><path class="cls-16" d="M107.86,182v3.08c-1.89,2.1-5.23,2.84-10.19,2.11v-4.71Z"/><path class="cls-9" d="M115.2,164.09a67.32,67.32,0,0,1-.91,8.8c-.13.67-.27,1.31-.43,1.88-1.47,5.13-5.13,13.93-15.39,10.26-4.53-1.62-6.63-6.66-7.57-11.8a49.74,49.74,0,0,1-.69-9.52,7.3,7.3,0,0,1,3.69-6.19c6.06-3.43,12.45-2.15,16.66-.53A7.24,7.24,0,0,1,115.2,164.09Z"/><path class="cls-11" d="M98.05,170c0,.74-.39,1.34-.86,1.34s-.86-.6-.86-1.34.39-1.35.86-1.35S98.05,169.2,98.05,170Z"/><path class="cls-11" d="M108.61,170c0,.74-.38,1.34-.86,1.34s-.85-.6-.85-1.34.38-1.35.85-1.35S108.61,169.2,108.61,170Z"/><path class="cls-11" d="M95.5,165.47a14,14,0,0,1,3.65-.55.64.64,0,0,1,.64.74h0a.63.63,0,0,1-.66.52,16.24,16.24,0,0,0-5,.62,1,1,0,0,1,.29-.68A2.19,2.19,0,0,1,95.5,165.47Z"/><path class="cls-11" d="M109.32,165.5a13.72,13.72,0,0,0-3.66-.55.63.63,0,0,0-.63.74h0a.61.61,0,0,0,.65.52,15.91,15.91,0,0,1,5,.62.9.9,0,0,0-.29-.68A2.14,2.14,0,0,0,109.32,165.5Z"/><path class="cls-16" d="M102.68,175.42a1.47,1.47,0,0,1-.72-.17,1,1,0,0,1-.48-.81,46.1,46.1,0,0,1,.2-5.19.32.32,0,0,1,.35-.3.33.33,0,0,1,.31.36,47.92,47.92,0,0,0-.2,5.06.37.37,0,0,0,.16.31,1.92,1.92,0,0,0,1.33-.13.34.34,0,0,1,.43.19.34.34,0,0,1-.18.43A3.72,3.72,0,0,1,102.68,175.42Z"/><path class="cls-10" d="M98.48,177.51c.25,1.26,1.08,3.57,3.88,3.57s3.59-2.11,3.86-3.57Z"/><path class="cls-16" d="M102.32,183a3.29,3.29,0,0,1-1.55-.45.33.33,0,0,1-.11-.46.34.34,0,0,1,.45-.11h0a2.59,2.59,0,0,0,1.21.36,2.71,2.71,0,0,0,1.27-.36.33.33,0,0,1,.45.12.32.32,0,0,1-.11.45A3.41,3.41,0,0,1,102.32,183Z"/><path class="cls-11" d="M116.53,163.56a1.11,1.11,0,0,1-.8.61,21.15,21.15,0,0,1-.12,2.44c-.41,4.78-1.61,5.62-1.88,4.44a56.19,56.19,0,0,1-.09-6.75c-.94-.07-1.75-.22-1.75-.22l-1.11-4.64-.39,4.58c-1.66.58-5.54-.35-5.54-.35l-1.3-4.57-.81,4.4a9.28,9.28,0,0,1-5.61.4l-.71-4.74-1.66,4.74s-5.32,1.91-5.38,0a36,36,0,0,1,1.47-6.66,10,10,0,0,1,4.83-6.14,17.63,17.63,0,0,1,16-.22C116.74,153.91,116.53,163.56,116.53,163.56Z"/><path class="cls-11" d="M92.31,153.92s-4.38,5.21-5.82,14.51-3.44,16.19,2.17,19.26c6.07,3.33,5.55-3.5,5.46-5.35s-5.25-6.92-1.81-21.19C93.43,156.54,92.31,153.92,92.31,153.92Z"/><path class="cls-18" d="M91.29,173.15h0c0,.07,0,.44,0,1,0,.36,0,.79.07,1.29.21,3.14.82,8.55,2.61,10.43a6.06,6.06,0,0,0,3.67,1.27V184.7a9.73,9.73,0,0,1-4-3.74,23.11,23.11,0,0,1-2.23-6.88Z"/><path class="cls-10" d="M115.28,176.19a.78.78,0,0,1-.78.78.78.78,0,1,1,.78-.78Z"/><rect class="cls-6" x="327.11" y="85.17" width="24.29" height="24.29" rx="2.64"/><path class="cls-8" d="M347.53,97.31a8.28,8.28,0,0,1-16.55,0,8.28,8.28,0,0,1,16.55,0Z"/><path class="cls-10" d="M345.63,102.58a8.26,8.26,0,0,1-12.75,0l.11-.22a2.91,2.91,0,0,1,1.75-1.47c1.35-.41,2.6-.83,3.3-2a3.49,3.49,0,0,1-1.66-1.77c-.94.2-1.61-1.53-1.11-2a.74.74,0,0,1,.55-.21,3.44,3.44,0,0,1,6.87,0,.74.74,0,0,1,.55.21c.5.46-.17,2.19-1.1,2a3.16,3.16,0,0,1-1.54,1.66,5,5,0,0,0,3.17,2.14,3,3,0,0,1,1,.56,2.9,2.9,0,0,1,.72.91Z"/><rect class="cls-6" x="11.49" y="214.34" width="24.29" height="24.29" rx="2.64"/><path class="cls-10" d="M24,218.43a5.32,5.32,0,0,0-5.69,5.31,5.23,5.23,0,0,0,.75,2.71c.7,1.18,1.43,2.36,2.1,3.56l2.51,4.54,3.85-6.93c.22-.4.47-.8.7-1.2a5.27,5.27,0,0,0,.73-2.81A5.35,5.35,0,0,0,24,218.43Zm-.37,6.91a2.24,2.24,0,1,1,2.25-2.24A2.24,2.24,0,0,1,23.63,225.34Z"/><path class="cls-5" d="M432.28,117.46a5.43,5.43,0,1,1-5.43,5.42A5.43,5.43,0,0,1,432.28,117.46Zm0,9.15a3.73,3.73,0,1,0-3.73-3.73A3.73,3.73,0,0,0,432.28,126.61Z"/><path class="cls-6" d="M412.75,98.44a5.42,5.42,0,1,1-5.42,5.42A5.43,5.43,0,0,1,412.75,98.44Zm0,9.14a3.72,3.72,0,1,0-3.72-3.72A3.73,3.73,0,0,0,412.75,107.58Z"/><path class="cls-5" d="M406.05,80.82a.86.86,0,0,1,.86.85v3.75a.86.86,0,0,1-.86.85.85.85,0,0,1-.85-.85V81.67A.85.85,0,0,1,406.05,80.82Z"/><path class="cls-5" d="M406.05,74.25a.86.86,0,0,1,.86.85v3.75a.86.86,0,0,1-.86.85.85.85,0,0,1-.85-.85V75.1A.85.85,0,0,1,406.05,74.25Z"/><path class="cls-5" d="M400.79,79.41h3.37a.85.85,0,1,1,0,1.7h-3.37a.85.85,0,1,1,0-1.7Z"/><path class="cls-5" d="M408,79.41h3.37a.85.85,0,0,1,0,1.7H408a.85.85,0,0,1,0-1.7Z"/><path class="cls-6" d="M436,101.84a.85.85,0,0,1,.85.85v3.75a.85.85,0,1,1-1.7,0v-3.75A.85.85,0,0,1,436,101.84Z"/><path class="cls-6" d="M436,95.27a.85.85,0,0,1,.85.85v3.75a.85.85,0,1,1-1.7,0V96.12A.85.85,0,0,1,436,95.27Z"/><path class="cls-6" d="M430.73,100.43h3.37a.85.85,0,0,1,0,1.7h-3.37a.85.85,0,0,1,0-1.7Z"/><path class="cls-6" d="M437.89,100.43h3.37a.85.85,0,1,1,0,1.7h-3.37a.85.85,0,1,1,0-1.7Z"/><path class="cls-5" d="M96.46,48.22A5.43,5.43,0,1,1,91,53.64,5.43,5.43,0,0,1,96.46,48.22Zm0,1.7a3.72,3.72,0,1,0,3.73,3.72A3.73,3.73,0,0,0,96.46,49.92Z"/><path class="cls-6" d="M76.72,30.31a5.42,5.42,0,1,1-5.43,5.42A5.42,5.42,0,0,1,76.72,30.31Zm0,1.7a3.72,3.72,0,1,0,3.72,3.72A3.73,3.73,0,0,0,76.72,32Z"/><path class="cls-5" d="M69.56,61.3a.85.85,0,0,0,.85.85h3.75a.85.85,0,0,0,0-1.7H70.41A.85.85,0,0,0,69.56,61.3Z"/><path class="cls-5" d="M63,61.3a.85.85,0,0,0,.85.85H67.6a.85.85,0,1,0,0-1.7H63.85A.85.85,0,0,0,63,61.3Z"/><path class="cls-5" d="M68.16,56v3.37a.85.85,0,0,0,1.7,0V56a.85.85,0,0,0-1.7,0Z"/><path class="cls-5" d="M68.16,63.2v3.37a.85.85,0,1,0,1.7,0V63.2a.85.85,0,1,0-1.7,0Z"/><path class="cls-6" d="M109.28,32a.85.85,0,0,0,.85.85h3.76a.85.85,0,1,0,0-1.7h-3.76A.85.85,0,0,0,109.28,32Z"/><path class="cls-6" d="M102.72,32a.85.85,0,0,0,.85.85h3.75a.85.85,0,1,0,0-1.7h-3.75A.85.85,0,0,0,102.72,32Z"/><path class="cls-6" d="M107.88,26.74v3.37a.85.85,0,1,0,1.7,0V26.74a.85.85,0,1,0-1.7,0Z"/><path class="cls-6" d="M107.88,33.9v3.37a.85.85,0,1,0,1.7,0V33.9a.85.85,0,1,0-1.7,0Z"/><path class="cls-2" d="M335.39,58.19a.87.87,0,0,0,.36,0c1.29-.32,2-.45,2-.45a.68.68,0,0,0,.58-.78.72.72,0,0,0-.83-.55s-.8.14-2.15.47a.68.68,0,0,0-.52.83A.72.72,0,0,0,335.39,58.19Z"/><path class="cls-2" d="M293.72,89.06c-.67,1.14-1.32,2.33-1.92,3.52A.74.74,0,0,1,291,93l-.13,0a.66.66,0,0,1-.35-.89c.62-1.22,1.28-2.43,2-3.6a.73.73,0,0,1,1-.27A.66.66,0,0,1,293.72,89.06Z"/><path class="cls-2" d="M290.12,96.21c-.52,1.21-1,2.46-1.47,3.71a.71.71,0,0,1-.85.44h-.06a.68.68,0,0,1-.45-.86c.47-1.28,1-2.55,1.49-3.78a.74.74,0,0,1,.94-.38A.67.67,0,0,1,290.12,96.21Z"/><path class="cls-2" d="M284,115.94a.68.68,0,0,1-.53-.74c.18-1.34.4-2.68.64-4a.71.71,0,0,1,.83-.54.67.67,0,0,1,.58.78c-.24,1.28-.45,2.6-.63,3.92a.7.7,0,0,1-.8.58Z"/><path class="cls-2" d="M286.91,102.88a.66.66,0,0,1,.5.83c-.17.59-.34,1.19-.5,1.78s-.36,1.37-.53,2.06a.71.71,0,0,1-.86.51h0a.68.68,0,0,1-.52-.8c.17-.7.35-1.41.54-2.1s.33-1.21.51-1.81a.73.73,0,0,1,.87-.48Z"/><path class="cls-2" d="M295.86,85.65a.75.75,0,0,1-.79.29.7.7,0,0,1-.2-.08.65.65,0,0,1-.23-.93c.77-1.14,1.58-2.26,2.42-3.35a.74.74,0,0,1,1-.15.65.65,0,0,1,.16.94C297.4,83.43,296.6,84.53,295.86,85.65Z"/><path class="cls-2" d="M331.72,59.33c-1.3.42-2.63.89-3.94,1.4a.75.75,0,0,1-.94-.36.66.66,0,0,1,.39-.88c1.34-.52,2.69-1,4-1.43a.73.73,0,0,1,.91.42A.66.66,0,0,1,331.72,59.33Z"/><path class="cls-2" d="M320.18,64.18a.71.71,0,0,1-.53.06.7.7,0,0,1-.45-.32.66.66,0,0,1,.28-.92c1.25-.65,2.53-1.28,3.82-1.86a.75.75,0,0,1,1,.31.66.66,0,0,1-.34.9C322.66,62.92,321.4,63.54,320.18,64.18Z"/><path class="cls-2" d="M306.57,73.48a.72.72,0,0,1-.67.16.68.68,0,0,1-.34-.19.64.64,0,0,1,0-1c1-.92,2.13-1.81,3.23-2.67a.74.74,0,0,1,1,.09.65.65,0,0,1-.09,1C308.66,71.71,307.59,72.59,306.57,73.48Z"/><path class="cls-2" d="M313.07,68.44a.72.72,0,0,1-.6.11.71.71,0,0,1-.4-.25.66.66,0,0,1,.16-1c1.15-.78,2.34-1.55,3.55-2.27a.75.75,0,0,1,1,.2.64.64,0,0,1-.21.93C315.37,66.92,314.2,67.67,313.07,68.44Z"/><path class="cls-2" d="M300.8,79.24a.75.75,0,0,1-.73.23.74.74,0,0,1-.28-.14.64.64,0,0,1-.1-.94c.91-1,1.87-2.06,2.85-3a.75.75,0,0,1,1,0,.65.65,0,0,1,0,1C302.63,77.23,301.69,78.23,300.8,79.24Z"/><polygon class="cls-5" points="336.11 53.63 334.66 42.4 372.69 47.86 336.11 53.63"/><polygon class="cls-3" points="372.69 47.86 337.56 56.49 337.46 56.51 335.7 58.53 336.11 53.63 372.69 47.86"/><polygon class="cls-4" points="335.7 58.53 338.86 58.49 337.46 56.51 335.7 58.53"/><polygon class="cls-5" points="341.88 55.42 337.46 56.51 344.65 66.75 372.69 47.86 341.88 55.42"/></g></g></g></svg>