<svg xmlns="http://www.w3.org/2000/svg" xmlns:xlink="http://www.w3.org/1999/xlink" viewBox="0 0 565.74 558.38"><defs><style>.cls-1{fill:#d6e1ee;}.cls-2{fill:#ffcb03;}.cls-3{fill:#ff6c62;}.cls-4{fill:#7e8de8;}.cls-5{fill:url(#linear-gradient);}.cls-6{fill:#a8c4e5;opacity:0.4;}.cls-23,.cls-6{isolation:isolate;}.cls-7{fill:#006cbc;}.cls-8{fill:#0098ff;}.cls-9{fill:#c0d4ef;}.cls-10{fill:#b0c4e2;}.cls-11{fill:#b0c5e2;}.cls-12{fill:#83a3dc;}.cls-13{fill:#283a52;}.cls-14{fill:url(#linear-gradient-2);}.cls-15{fill:#3caffc;}.cls-16{fill:#aac5ef;}.cls-17{fill:url(#linear-gradient-3);}.cls-18{fill:#7dcafd;}.cls-19{fill:#bee4fe;}.cls-20{fill:#fff;}.cls-21{fill:#96a5b8;}.cls-22{fill:#afdefd;}.cls-23{fill:#88bdeb;opacity:0.19;}.cls-24{fill:#c7e1f8;}.cls-25{fill:#9ad0fc;}.cls-26{fill:#fdfdfd;}.cls-27{fill:#d9eeff;}.cls-28{fill:#0071d1;}.cls-29{fill:#22a15f;}.cls-30{fill:#9af5b1;}.cls-31{fill:#dce9ff;}.cls-32{fill:#ebf4ff;}.cls-33{fill:#fec6c3;}.cls-34{fill:#fdb3ae;}.cls-35{fill:#fd8e87;}.cls-36{fill:#47576e;}.cls-37{fill:#6172da;}.cls-38{opacity:0.23;}.cls-39{fill:#2727ff;}.cls-40{fill:#2b3650;}.cls-41{fill:#0000db;}.cls-42{fill:#171425;}.cls-43{fill:#e8efff;}</style><linearGradient id="linear-gradient" x1="549.8" y1="391.25" x2="22.87" y2="382.08" gradientUnits="userSpaceOnUse"><stop offset="0" stop-color="#d7e4fa"/><stop offset="1" stop-color="#6180ba"/></linearGradient><linearGradient id="linear-gradient-2" x1="8025.82" y1="-11879.32" x2="8169.42" y2="-11879.32" gradientTransform="translate(8379.55 -11637.8) rotate(180)" gradientUnits="userSpaceOnUse"><stop offset="0" stop-color="#283a52"/><stop offset="1" stop-color="#354f6e"/></linearGradient><linearGradient id="linear-gradient-3" x1="8091.5" y1="-12017.91" x2="8110.33" y2="-12017.91" xlink:href="#linear-gradient-2"/></defs><g id="Layer_2" data-name="Layer 2"><g id="Layer_1-2" data-name="Layer 1"><path class="cls-1" d="M267.23,152.2a4.67,4.67,0,0,0,5.4-3.9h0a.6.6,0,0,1,.1-.4,5.61,5.61,0,0,0-5-5.5,4.43,4.43,0,0,0-5.1,3.5h0c0,.2-.1.4-.1.6A5.52,5.52,0,0,0,267.23,152.2Z"/><path class="cls-1" d="M266.53,166.2a4.53,4.53,0,0,0,5.3-3.5c0-.2.1-.4.1-.6a5.7,5.7,0,0,0-5-5.6,4.35,4.35,0,0,0-5.1,3.5c0,.2-.1.4-.1.7A5.52,5.52,0,0,0,266.53,166.2Z"/><path class="cls-1" d="M272.23,53.2a5.24,5.24,0,0,0,5.8-4.4,5.14,5.14,0,0,0-5-5.3,5,5,0,0,0-5.6,4.2v.1A5.33,5.33,0,0,0,272.23,53.2Z"/><path class="cls-1" d="M267.73,137.9a4.42,4.42,0,0,0,5.3-3.6h0c0-.2.1-.3.1-.5a5.81,5.81,0,0,0-5-5.7,4.68,4.68,0,0,0-5.2,3.9v.5A5.49,5.49,0,0,0,267.73,137.9Z"/><path class="cls-1" d="M271.23,67.1a5,5,0,0,0,5.7-4.1h0v-.1a5.39,5.39,0,0,0-5-5.5,5,5,0,0,0-5.5,4.4v.1A5.08,5.08,0,0,0,271.23,67.1Z"/><path class="cls-1" d="M254.53,93.8a4.86,4.86,0,0,0,5.5-4.1h0v-.2a5.28,5.28,0,0,0-5.1-5.2,4.74,4.74,0,0,0-5.3,4.1v.3A5,5,0,0,0,254.53,93.8Z"/><path class="cls-1" d="M270.33,81.2a5,5,0,0,0,5.6-4.3v-.1a5.44,5.44,0,0,0-5-5.4,4.75,4.75,0,0,0-5.4,3.9v.3A5.39,5.39,0,0,0,270.33,81.2Z"/><path class="cls-1" d="M268.33,123.8a4.74,4.74,0,0,0,5.4-4h0v-.4a5.55,5.55,0,0,0-5.1-5.5,4.51,4.51,0,0,0-5.2,3.7h0c0,.2-.1.4-.1.6A5.88,5.88,0,0,0,268.33,123.8Z"/><path class="cls-1" d="M268.93,109.5a4.58,4.58,0,0,0,5.4-3.8h0a.6.6,0,0,1,.1-.4,5.81,5.81,0,0,0-5.1-5.7,4.79,4.79,0,0,0-5.3,4.1h0v.4A5.36,5.36,0,0,0,268.93,109.5Z"/><path class="cls-1" d="M256,65.8a5.07,5.07,0,0,0,5.7-4.4h0a5.44,5.44,0,0,0-5-5.4,5.06,5.06,0,0,0-5.5,4.6,5,5,0,0,0,4.8,5.2Z"/><path class="cls-1" d="M127.83,28.1a6.4,6.4,0,0,0,4.9-5.3c.3-2.6-1.3-4.4-3.7-4a6.51,6.51,0,0,0-5,5.4,3.2,3.2,0,0,0,3.8,3.9Z"/><path class="cls-1" d="M140.73,26.3a6.16,6.16,0,0,0,5.1-5.1,3.42,3.42,0,0,0-2.6-4.1h0a2.85,2.85,0,0,0-1.3,0,6.15,6.15,0,0,0-5.2,5.2,3.51,3.51,0,0,0,2.8,4.1h0A4.87,4.87,0,0,0,140.73,26.3Z"/><path class="cls-2" d="M125.33,55.7a6.29,6.29,0,0,0,4.7-5.6c.2-2.6-1.5-4.4-3.9-4a6.28,6.28,0,0,0-4.8,5.4,3.53,3.53,0,0,0,2.9,4.1A3.42,3.42,0,0,0,125.33,55.7Z"/><path class="cls-1" d="M154.33,25a5.85,5.85,0,0,0,5.3-5,3.72,3.72,0,0,0-3-4.3h0a2,2,0,0,0-1.1,0,6.05,6.05,0,0,0-5.4,5,3.83,3.83,0,0,0,3.2,4.3Z"/><path class="cls-1" d="M213.53,22.9a5.61,5.61,0,0,0,5.7-4.7c.3-2.6-1.7-4.6-4.6-4.6a5.61,5.61,0,0,0-5.7,4.7C208.63,20.9,210.63,22.9,213.53,22.9Z"/><path class="cls-1" d="M215.13,9.4a5.89,5.89,0,0,0,5.8-4.8c.4-2.6-1.6-4.6-4.5-4.6a5.71,5.71,0,0,0-5.8,4.7,4.18,4.18,0,0,0,3.6,4.7A2.72,2.72,0,0,0,215.13,9.4Z"/><path class="cls-1" d="M230.43,9.5a6.08,6.08,0,0,0,5.9-4.8c.4-2.6-1.6-4.7-4.5-4.7a5.81,5.81,0,0,0-5.9,4.6,4.29,4.29,0,0,0,3.7,4.8A2.49,2.49,0,0,0,230.43,9.5Z"/><path class="cls-1" d="M155.93,11.5a6.25,6.25,0,0,0,5.4-5.2,3.7,3.7,0,0,0-2.7-4.3h0a2.85,2.85,0,0,0-1.3,0,6.16,6.16,0,0,0-5.5,5,3.94,3.94,0,0,0,4.1,4.5Z"/><path class="cls-1" d="M199.93,9.7a6.17,6.17,0,0,0,5.8-4.9c.4-2.6-1.6-4.6-4.4-4.5a6,6,0,0,0-5.8,4.7A4.21,4.21,0,0,0,199,9.7Z"/><path class="cls-1" d="M280.93,172.9a4.42,4.42,0,0,0-5.1,3.6c0,.2-.1.4-.1.6a5.61,5.61,0,0,0,4.6,5.7,4.35,4.35,0,0,0,5.3-3.2,1.7,1.7,0,0,0,.1-.7A6,6,0,0,0,280.93,172.9Z"/><path class="cls-1" d="M305.83,81.1a5.9,5.9,0,0,0-4.9-5.8,4.53,4.53,0,0,0-5.3,3.3c0,.2-.1.5-.1.7a5.74,5.74,0,0,0,4.7,5.9,4.67,4.67,0,0,0,5.5-3.6h0A.75.75,0,0,0,305.83,81.1Z"/><path class="cls-1" d="M290.23,26.8a5.09,5.09,0,0,0,5.9-4,5.13,5.13,0,0,0-4.8-5.4,5.06,5.06,0,0,0-5.8,4.1h0a5,5,0,0,0,4.4,5.3Z"/><path class="cls-1" d="M288.73,40.7a5,5,0,0,0,5.8-4h0v-.1a5.45,5.45,0,0,0-4.8-5.6,4.87,4.87,0,1,0-1.6,9.6.66.66,0,0,0,.6.1Z"/><path class="cls-1" d="M299.13,103.9a4.43,4.43,0,0,0-5.2,3.5c0,.2-.1.5-.1.7a5.54,5.54,0,0,0,4.7,5.7,4.35,4.35,0,0,0,5.3-3.2h0a2.2,2.2,0,0,0,.1-.8A5.79,5.79,0,0,0,299.13,103.9Z"/><path class="cls-1" d="M287.43,54.8a5.21,5.21,0,0,0,5.8-4.2v-.1a5.44,5.44,0,0,0-4.9-5.5,4.7,4.7,0,0,0-5.5,3.9v.3A5.14,5.14,0,0,0,287.43,54.8Z"/><path class="cls-1" d="M297.63,132.6a4.31,4.31,0,0,0-5.1,3.4h0a2.2,2.2,0,0,0-.1.8,5.71,5.71,0,0,0,4.7,5.8,4.2,4.2,0,0,0,5.2-3h0a2.77,2.77,0,0,0,.1-.9A6,6,0,0,0,297.63,132.6Z"/><path class="cls-1" d="M301.33,71a4.51,4.51,0,0,0,5.5-3.4c0-.2.1-.3.1-.5a5.83,5.83,0,0,0-4.8-5.9,4.64,4.64,0,0,0-5.4,3.7h0c0,.2-.1.3-.1.5A5.44,5.44,0,0,0,301.33,71Z"/><path class="cls-1" d="M302.43,57a4.93,4.93,0,0,0,5.7-3.8v-.3a5.62,5.62,0,0,0-4.8-5.7,4.5,4.5,0,0,0-5.4,3.5h0c0,.2-.1.3-.1.5A5.54,5.54,0,0,0,302.43,57Z"/><path class="cls-1" d="M298.43,118.3a4.27,4.27,0,0,0-5.1,3.1,2.77,2.77,0,0,0-.1.9,5.93,5.93,0,0,0,4.7,6,4.48,4.48,0,0,0,5.3-3.3v-.1a1.7,1.7,0,0,0,.1-.7A6,6,0,0,0,298.43,118.3Z"/><path class="cls-1" d="M286.33,68.8a4.78,4.78,0,0,0,5.6-3.8.37.37,0,0,1,.1-.3,5.64,5.64,0,0,0-4.9-5.7,4.84,4.84,0,0,0-5.5,4.1h0v.3A5.17,5.17,0,0,0,286.33,68.8Z"/><path class="cls-1" d="M282.93,130.1a4.42,4.42,0,0,0-5.1,3.6h0c0,.2-.1.4-.1.7a5.61,5.61,0,0,0,4.8,5.6,4.4,4.4,0,0,0,5.3-3.3,1.7,1.7,0,0,0,.1-.7A6,6,0,0,0,282.93,130.1Z"/><path class="cls-1" d="M273.53,39.1a5.25,5.25,0,0,0,5.9-4.2,5.33,5.33,0,0,0-10.6-1,4.9,4.9,0,0,0,4.5,5.2h.2Z"/><path class="cls-1" d="M283.63,115.9a4.22,4.22,0,0,0-5.1,3.4,1.7,1.7,0,0,0-.1.7,5.72,5.72,0,0,0,4.8,5.8,4.64,4.64,0,0,0,5.4-3.7h0a4.33,4.33,0,0,1,.1-.5A6,6,0,0,0,283.63,115.9Z"/><path class="cls-1" d="M284.33,101.5a4.53,4.53,0,0,0-5.2,3.8h0c0,.2-.1.4-.1.6a5.61,5.61,0,0,0,4.8,5.6,4.55,4.55,0,0,0,5.4-3.5h0c0-.2.1-.4.1-.6A6,6,0,0,0,284.33,101.5Z"/><path class="cls-1" d="M282.33,144.4a4.32,4.32,0,0,0-5.1,3.3,2.2,2.2,0,0,0-.1.8,5.71,5.71,0,0,0,4.7,5.8,4.47,4.47,0,0,0,5.3-3.6c0-.2.1-.4.1-.6A5.8,5.8,0,0,0,282.33,144.4Z"/><path class="cls-1" d="M115.43,30.4a6.55,6.55,0,0,0,4.7-5.5c.3-2.6-1.2-4.3-3.5-3.8a6.66,6.66,0,0,0-4.8,5.6C111.43,29.3,113.13,30.9,115.43,30.4Z"/><path class="cls-1" d="M285.43,83a4.92,4.92,0,0,0,5.6-4h0v-.3a5.55,5.55,0,0,0-5-5.6,4.49,4.49,0,0,0-5.3,3.6c0,.2-.1.3-.1.5A5.5,5.5,0,0,0,285.43,83Z"/><path class="cls-1" d="M281.63,158.8a4.25,4.25,0,0,0-5.1,3.2,2.2,2.2,0,0,0-.1.8,5.61,5.61,0,0,0,4.7,5.7,4.43,4.43,0,0,0,5.3-3.2,1.7,1.7,0,0,0,.1-.7A5.82,5.82,0,0,0,281.63,158.8Z"/><path class="cls-1" d="M45.23,53.8a8.68,8.68,0,0,0,4.6-6.4c.3-2.6-1.2-3.9-3.4-3a9.17,9.17,0,0,0-4.8,6.5C41.23,53.6,43,54.8,45.23,53.8Z"/><path class="cls-1" d="M44.83,58.1A9.43,9.43,0,0,0,40,64.9c-.3,2.7,1.5,3.9,3.8,2.9a8.32,8.32,0,0,0,4.5-6.5C48.53,58.6,47,57.1,44.83,58.1Z"/><path class="cls-1" d="M51.73,137.6a7.74,7.74,0,0,0-4.2,6.6c0,2.7,1.9,4.2,4.1,3.2a7.83,7.83,0,0,0,4-6.7C55.63,138,53.93,136.6,51.73,137.6Z"/><path class="cls-1" d="M52,123.3a8.52,8.52,0,0,0-4.3,6.8c-.1,2.7,1.8,4,4.1,3a7.82,7.82,0,0,0,4.1-6.5C55.93,124,54.23,122.4,52,123.3Z"/><path class="cls-1" d="M41.33,100.2a8.28,8.28,0,0,0-4.5,6.7c-.1,2.7,1.7,4.1,4,3.1a8.52,8.52,0,0,0,4.3-6.8C45.33,100.5,43.63,99.2,41.33,100.2Z"/><path class="cls-1" d="M19.83,69.4a9.46,9.46,0,0,0-4.9,7c-.3,2.7,1.5,3.8,3.9,2.7a9.42,9.42,0,0,0,5-6.8C24.13,69.6,22.23,68.2,19.83,69.4Z"/><path class="cls-1" d="M114,44.2a6.44,6.44,0,0,0,4.6-5.5c.3-2.6-1.3-4.5-3.6-4a6.89,6.89,0,0,0-4.8,5.8C109.93,43.1,111.73,44.7,114,44.2Z"/><path class="cls-1" d="M5.13,89.6a9.7,9.7,0,0,0-5.1,7c-.3,2.7,1.6,4,4.2,2.8a9.91,9.91,0,0,0,5.2-7.2C9.63,89.5,7.73,88.4,5.13,89.6Z"/><path class="cls-1" d="M32.63,63.5a9.73,9.73,0,0,0-4.9,6.9c-.3,2.7,1.6,3.8,3.9,2.8a8.6,8.6,0,0,0,4.6-6.6C36.53,63.9,34.93,62.4,32.63,63.5Z"/><path class="cls-1" d="M40.63,114.4a8.65,8.65,0,0,0-4.5,6.7c-.1,2.7,1.8,3.9,4.1,2.9a7.74,7.74,0,0,0,4.2-6.6C44.63,114.8,42.93,113.4,40.63,114.4Z"/><path class="cls-1" d="M53.23,95.1a8,8,0,0,0-4.4,6.6c-.1,2.7,1.7,4.2,3.9,3.3a8.11,8.11,0,0,0,4.2-6.7C57,95.6,55.43,94.2,53.23,95.1Z"/><path class="cls-1" d="M64.23,104.6a7.73,7.73,0,0,0-4.3,6.4c-.1,2.7,1.7,4,3.9,3.2a7.37,7.37,0,0,0,4.1-6.3C68,105.1,66.43,103.7,64.23,104.6Z"/><path class="cls-1" d="M64.83,90.4a7.6,7.6,0,0,0-4.3,6.4c-.1,2.7,1.6,4.2,3.9,3.4s4-3.8,4.1-6.5S67,89.6,64.83,90.4Z"/><path class="cls-1" d="M65.73,76.3a8.15,8.15,0,0,0-4.4,6.6c-.2,2.7,1.6,4,3.8,3.2a7.66,7.66,0,0,0,4.2-6.2C69.53,77.1,67.93,75.5,65.73,76.3Z"/><path class="cls-1" d="M66.83,62.5a8,8,0,0,0-4.5,6.3c-.2,2.7,1.5,4.2,3.7,3.4s4.1-3.8,4.3-6.4S69,61.6,66.83,62.5Z"/><path class="cls-1" d="M54.13,81a8.82,8.82,0,0,0-4.5,6.7c-.2,2.7,1.6,4,3.9,3a7.94,7.94,0,0,0,4.3-6.4C57.93,81.6,56.33,80,54.13,81Z"/><path class="cls-1" d="M303.83,42.8a4.72,4.72,0,0,0,5.7-3.6.37.37,0,0,1,.1-.3,5.57,5.57,0,0,0-4.7-5.8,4.85,4.85,0,0,0-5.6,3.9v.3A5,5,0,0,0,303.83,42.8Z"/><path class="cls-1" d="M55.23,67.1a8.67,8.67,0,0,0-4.6,6.5c-.2,2.7,1.5,4.2,3.8,3.2a8,8,0,0,0,4.3-6.6C58.93,67.6,57.43,66.2,55.23,67.1Z"/><path class="cls-1" d="M63.33,132.7a7.46,7.46,0,0,0-4.2,6.5c0,2.7,1.8,4.2,4,3.3s3.9-3.9,4-6.6S65.53,131.8,63.33,132.7Z"/><path class="cls-1" d="M63.73,118.5a7.9,7.9,0,0,0-4.2,6.7c-.1,2.7,1.8,4,4,3.2a7.09,7.09,0,0,0,4-6.3C67.53,119.3,65.93,117.7,63.73,118.5Z"/><path class="cls-1" d="M52.53,109.3a8,8,0,0,0-4.3,6.6c-.1,2.7,1.8,4,4,3a7.68,7.68,0,0,0,4.1-6.5C56.43,109.8,54.73,108.4,52.53,109.3Z"/><path class="cls-1" d="M102,47a6.58,6.58,0,0,0,4.4-5.7c.3-2.6-1.3-4.4-3.5-3.9a7.49,7.49,0,0,0-4.7,6C98,46,99.83,47.6,102,47Z"/><path class="cls-1" d="M103.53,33.2a6.82,6.82,0,0,0,4.6-5.6c.3-2.6-1.2-4.2-3.4-3.7a7.36,7.36,0,0,0-4.8,5.7C99.53,32.2,101.23,33.7,103.53,33.2Z"/><path class="cls-1" d="M100.83,60.9c2.3-.6,4.2-3.3,4.4-5.9s-1.4-4.3-3.6-3.7a6.7,6.7,0,0,0-4.5,5.8C96.83,59.7,98.63,61.5,100.83,60.9Z"/><path class="cls-1" d="M99.73,78.9a6.58,6.58,0,0,0-4.4,5.9c-.1,2.7,1.7,4.4,3.9,3.8s4.1-3.3,4.3-6S101.93,78.3,99.73,78.9Z"/><path class="cls-1" d="M100.53,65A7.09,7.09,0,0,0,96,71c-.2,2.7,1.6,4.2,3.9,3.6a6.33,6.33,0,0,0,4.3-5.7C104.43,66.2,102.83,64.4,100.53,65Z"/><path class="cls-1" d="M111.93,71.7a6.1,6.1,0,0,0,4.4-5.6c.2-2.6-1.5-4.5-3.8-4a6.67,6.67,0,0,0-4.6,5.9C107.83,70.6,109.63,72.2,111.93,71.7Z"/><path class="cls-1" d="M109.83,145.5a6.12,6.12,0,0,0-4.3,5.8c0,2.7,1.9,4.4,4.2,3.9a6.25,6.25,0,0,0,4.2-5.9C114,146.6,112.13,144.9,109.83,145.5Z"/><path class="cls-1" d="M111.73,76a6.19,6.19,0,0,0-4.5,5.7c-.1,2.7,1.7,4.4,4.1,4a6.35,6.35,0,0,0,4.4-5.8C115.73,77.2,114,75.5,111.73,76Z"/><path class="cls-1" d="M109.73,159.5a6.12,6.12,0,0,0-4.3,5.8,3.36,3.36,0,0,0,2.9,3.7h0a2.88,2.88,0,0,0,1.3-.1,6,6,0,0,0,4.2-5.7C113.83,160.6,112,158.9,109.73,159.5Z"/><path class="cls-1" d="M68.73,44.2a8,8,0,0,0,4.4-6.1c.3-2.6-1.1-4.1-3.3-3.2a8.54,8.54,0,0,0-4.7,6.2C64.83,43.8,66.53,45,68.73,44.2Z"/><path class="cls-1" d="M67.23,58.2a7.79,7.79,0,0,0,4.4-6.1c.3-2.6-1.2-4.3-3.4-3.5a8.67,8.67,0,0,0-4.6,6.5C63.33,57.7,65,59,67.23,58.2Z"/><path class="cls-1" d="M78.73,54a7.63,7.63,0,0,0,4.4-6c.3-2.6-1.2-4.3-3.4-3.6a8.34,8.34,0,0,0-4.6,6.3C74.93,53.3,76.63,54.7,78.73,54Z"/><path class="cls-1" d="M55.63,62.8A8.11,8.11,0,0,0,60,56.5c.3-2.7-1.2-4.2-3.4-3.3a9,9,0,0,0-4.7,6.6C51.73,62.4,53.43,63.7,55.63,62.8Z"/><path class="cls-1" d="M91.73,36.4a7.3,7.3,0,0,0,4.5-5.8c.3-2.6-1.1-4.2-3.3-3.5a7.53,7.53,0,0,0-4.7,5.9C87.93,35.6,89.53,37.1,91.73,36.4Z"/><path class="cls-1" d="M57,48.8a8,8,0,0,0,4.5-6.3c.3-2.6-1.1-4-3.4-3.1a8.46,8.46,0,0,0-4.7,6.4C53.13,48.5,54.83,49.7,57,48.8Z"/><path class="cls-1" d="M90.33,50.3a7.19,7.19,0,0,0,4.4-5.9c.3-2.6-1.2-4.4-3.4-3.7a7.67,7.67,0,0,0-4.6,6.2C86.43,49.5,88.13,50.9,90.33,50.3Z"/><path class="cls-1" d="M89.13,64.2c2.2-.7,4.1-3.4,4.3-6.1s-1.3-4.2-3.5-3.5a7.27,7.27,0,0,0-4.5,6C85.23,63.2,86.93,64.9,89.13,64.2Z"/><path class="cls-1" d="M80.23,40.1a7.49,7.49,0,0,0,4.4-6c.3-2.6-1.1-4.1-3.3-3.4a7.86,7.86,0,0,0-4.6,6.1C76.43,39.5,78,40.9,80.23,40.1Z"/><path class="cls-1" d="M445.73,167.6a9.4,9.4,0,0,0-4.4-7.9c-2.7-1.6-5.2-.6-5.4,2.1s2,6.2,4.7,7.8S445.53,170.3,445.73,167.6Z"/><path class="cls-1" d="M445.63,113.1c2.7,1.6,5.1.6,5.4-2s-1.6-6.1-4.3-7.7-5.3-1-5.6,1.7S442.93,111.5,445.63,113.1Z"/><path class="cls-1" d="M449.53,125.2a9.31,9.31,0,0,0-4.3-7.9c-2.7-1.6-5.3-.7-5.6,2s1.9,6.2,4.6,7.8S449.23,127.9,449.53,125.2Z"/><path class="cls-1" d="M448.13,139.1a8.94,8.94,0,0,0-4.4-7.7c-2.7-1.6-5.3-.9-5.5,1.8s1.9,6.4,4.6,8S447.83,141.8,448.13,139.1Z"/><path class="cls-1" d="M453.63,192.5c2.7,1.7,4.9.6,5.1-2a9.47,9.47,0,0,0-4.4-7.8c-2.7-1.7-5.2-1-5.4,1.8S451,190.8,453.63,192.5Z"/><path class="cls-1" d="M305.33,28.8a4.84,4.84,0,0,0,5.8-3.7V25a5.2,5.2,0,0,0-4.7-5.5,4.86,4.86,0,0,0-5.7,3.7h0v.2A5.24,5.24,0,0,0,305.33,28.8Z"/><path class="cls-1" d="M444.63,181.7a8.94,8.94,0,0,0-4.4-7.7c-2.7-1.6-5.2-.8-5.4,1.9s2,6.4,4.7,8S444.43,184.4,444.63,181.7Z"/><path class="cls-1" d="M432.73,90.6c2.7,1.6,5.1.7,5.5-1.9a8.45,8.45,0,0,0-4.3-7.7c-2.7-1.6-5.4-.6-5.7,2.1S430,89,432.73,90.6Z"/><path class="cls-1" d="M446.93,153.4a8.94,8.94,0,0,0-4.4-7.7c-2.7-1.6-5.2-.9-5.5,1.9s1.9,6.2,4.7,7.8S446.63,156.1,446.93,153.4Z"/><path class="cls-1" d="M74.73,142.2c-2.2.8-4.1,3.8-4.1,6.5s1.8,4.1,4,3.2a6.85,6.85,0,0,0,3.9-6.2C78.53,143.1,76.93,141.4,74.73,142.2Z"/><path class="cls-1" d="M450.83,71.5c2.7,1.7,5.2.7,5.6-1.9s-1.4-6-4.1-7.6-5.4-1-5.8,1.6S448.13,69.8,450.83,71.5Z"/><path class="cls-1" d="M436.43,62.9c2.7,1.6,5.2.6,5.6-2s-1.4-5.9-4.2-7.5-5.4-.9-5.8,1.8S433.63,61.4,436.43,62.9Z"/><path class="cls-1" d="M461,162.2a9.37,9.37,0,0,0-4.3-7.8c-2.7-1.7-5.2-1-5.4,1.7s1.9,6.2,4.6,7.9S460.83,164.9,461,162.2Z"/><path class="cls-1" d="M434.53,76.6c2.7,1.6,5.2.8,5.5-1.9s-1.5-5.9-4.2-7.5-5.4-.8-5.8,1.8S431.73,75,434.53,76.6Z"/><path class="cls-1" d="M448.93,85.1c2.7,1.7,5.1.9,5.5-1.7s-1.5-6-4.2-7.7-5.4-1-5.7,1.6S446.23,83.4,448.93,85.1Z"/><path class="cls-1" d="M447.23,99.1c2.7,1.6,5.1.9,5.4-1.8a9,9,0,0,0-4.2-7.9c-2.7-1.7-5.4-.8-5.7,1.9S444.43,97.4,447.23,99.1Z"/><path class="cls-1" d="M463.73,134.1a9.48,9.48,0,0,0-4.3-8c-2.7-1.7-5.3-.9-5.5,1.8s1.8,6.2,4.5,7.9S463.43,136.8,463.73,134.1Z"/><path class="cls-1" d="M439.13,188.2c-2.7-1.6-5.2-.6-5.4,2.2s2,6.2,4.7,7.8,5,.7,5.2-2A9.19,9.19,0,0,0,439.13,188.2Z"/><path class="cls-1" d="M462.33,148a9.14,9.14,0,0,0-4.3-7.8c-2.7-1.7-5.2-1.1-5.5,1.6s1.9,6.4,4.5,8.1C459.83,151.7,462,150.7,462.33,148Z"/><path class="cls-1" d="M465.23,120.1c.3-2.7-1.5-6.1-4.2-7.8s-5.3-1.1-5.6,1.6,1.8,6.4,4.5,8.1S464.93,122.8,465.23,120.1Z"/><path class="cls-1" d="M459.83,176.4a9.58,9.58,0,0,0-4.4-8c-2.7-1.7-5.2-.8-5.4,1.9s1.9,6.2,4.6,7.9S459.63,179.1,459.83,176.4Z"/><path class="cls-1" d="M475.53,117.3c2.6,1.8,4.9,1.2,5.3-1.5a9.36,9.36,0,0,0-4.1-8.1c-2.6-1.8-5.2-1.1-5.6,1.6S472.93,115.5,475.53,117.3Z"/><path class="cls-1" d="M477.33,103.4c2.6,1.8,5,1.2,5.3-1.4s-1.4-6.1-4-7.9-5.2-1.3-5.6,1.3S474.63,101.6,477.33,103.4Z"/><path class="cls-1" d="M479.23,129.5c.3-2.6-1.5-6.1-4.1-7.9s-5.2-1.3-5.5,1.4,1.7,6.5,4.4,8.2S478.93,132.1,479.23,129.5Z"/><path class="cls-3" d="M485.73,158.9c-2.6-1.8-5-1.3-5.3,1.4s1.8,6.5,4.3,8.3,4.8,1,5-1.7A9.34,9.34,0,0,0,485.73,158.9Z"/><path class="cls-1" d="M487.73,140.8c2.6,1.9,4.8,1,5.1-1.6a9.34,9.34,0,0,0-4-8c-2.6-1.9-5.1-1.4-5.4,1.3S485.13,138.9,487.73,140.8Z"/><path class="cls-1" d="M517.33,133.1c2.4,1.9,4.5,1.4,4.9-1.2a9.81,9.81,0,0,0-3.6-8.1c-2.4-1.9-4.8-1.6-5.1,1S514.93,131.1,517.33,133.1Z"/><path class="cls-1" d="M489.33,126.9c2.6,1.9,4.8,1.3,5.2-1.4a10,10,0,0,0-3.9-8.2c-2.6-1.9-5.1-1.2-5.4,1.4C484.73,121.4,486.73,125,489.33,126.9Z"/><path class="cls-1" d="M473.53,135.3c-2.6-1.8-5.2-1-5.4,1.7s1.8,6.3,4.4,8,4.9,1.1,5.2-1.6A10.09,10.09,0,0,0,473.53,135.3Z"/><path class="cls-1" d="M491.23,153.1a9.82,9.82,0,0,0-4-8.2c-2.5-1.8-5.1-1.1-5.3,1.5s1.7,6.3,4.3,8.1S490.93,155.8,491.23,153.1Z"/><path class="cls-1" d="M431.23,104.7c2.7,1.5,5.1.5,5.4-2.2s-1.6-6-4.4-7.6-5.3-.8-5.6,1.9S428.43,103.1,431.23,104.7Z"/><path class="cls-1" d="M432.53,144.9a8.66,8.66,0,0,0-4.4-7.6c-2.7-1.5-5.3-.7-5.5,2s1.9,6.1,4.7,7.7S432.33,147.7,432.53,144.9Z"/><path class="cls-1" d="M417.83,87c-2.7-1.5-5.3-.6-5.6,2.1s1.8,6.2,4.6,7.7,5.1.3,5.4-2.4A8.34,8.34,0,0,0,417.83,87Z"/><path class="cls-1" d="M433.83,130.7a8.66,8.66,0,0,0-4.4-7.6c-2.7-1.5-5.3-.7-5.5,2s1.9,6.3,4.6,7.9C431.23,134.4,433.53,133.4,433.83,130.7Z"/><path class="cls-1" d="M465.13,80.4c2.7,1.7,5.1.9,5.5-1.7s-1.4-6-4.1-7.8-5.3-1.2-5.7,1.4S462.43,78.7,465.13,80.4Z"/><path class="cls-1" d="M425.13,111c-.3,2.7,1.9,6.1,4.6,7.6s5.1.7,5.3-2a9.23,9.23,0,0,0-4.4-7.8C428,107.3,425.43,108.3,425.13,111Z"/><path class="cls-1" d="M426.13,161.4c2.7,1.5,5,.6,5.2-2.1a9.11,9.11,0,0,0-4.4-7.8c-2.7-1.5-5.3-.4-5.5,2.3S423.43,159.9,426.13,161.4Z"/><path class="cls-1" d="M463.23,94c2.7,1.7,5.1,1.1,5.4-1.6s-1.4-6-4.1-7.8-5.3-1.2-5.7,1.5S460.53,92.3,463.23,94Z"/><path class="cls-1" d="M461.53,108c2.7,1.7,5,1,5.4-1.6a9.28,9.28,0,0,0-4.2-8c-2.7-1.7-5.3-.9-5.6,1.7S458.83,106.2,461.53,108Z"/><path class="cls-1" d="M438.13,202.5c-2.7-1.6-5.2-.7-5.4,2s2,6.4,4.7,7.9,5,.5,5.2-2.3A8.79,8.79,0,0,0,438.13,202.5Z"/><path class="cls-1" d="M330.63,77a4.21,4.21,0,0,0,5.3-2.6h0a2.92,2.92,0,0,0,.2-.9,6.34,6.34,0,0,0-4.6-6.3,4.2,4.2,0,0,0-5.2,3,2.77,2.77,0,0,0-.1.9A5.79,5.79,0,0,0,330.63,77Z"/><path class="cls-1" d="M328.33,110.2a4.08,4.08,0,0,0-5,2.8,4.25,4.25,0,0,0-.2,1.1,6,6,0,0,0,4.6,6.1,4.05,4.05,0,0,0,5.1-2.4,4.25,4.25,0,0,0,.2-1.1A6.69,6.69,0,0,0,328.33,110.2Z"/><path class="cls-1" d="M331.93,62.9a4.38,4.38,0,0,0,5.4-3h0c.1-.3.1-.5.2-.8a6,6,0,0,0-4.6-6.1,4.12,4.12,0,0,0-5.2,2.7,2.92,2.92,0,0,0-.2.9A6,6,0,0,0,331.93,62.9Z"/><path class="cls-1" d="M328.63,105.7a4.17,4.17,0,0,0,5.2-2.5,3.59,3.59,0,0,0,.2-1.1,6.33,6.33,0,0,0-4.7-6.2,4,4,0,0,0-5,2.5,4.25,4.25,0,0,0-.2,1.1A6,6,0,0,0,328.63,105.7Z"/><path class="cls-1" d="M329.53,91.4a4.22,4.22,0,0,0,5.3-2.9c.1-.3.1-.6.2-.9a6.23,6.23,0,0,0-4.7-6.2,4.08,4.08,0,0,0-5.1,2.6,4.25,4.25,0,0,0-.2,1.1A6.37,6.37,0,0,0,329.53,91.4Z"/><path class="cls-1" d="M349.23,38.4c2.7.8,5.2-.6,5.6-3.2a6,6,0,0,0-4.3-6.2,4,4,0,0,0-5.2,2.4,3.55,3.55,0,0,0-.2,1A5.66,5.66,0,0,0,349.23,38.4Z"/><path class="cls-1" d="M347.63,52.5c2.7.8,5.2-.6,5.5-3.3a6.37,6.37,0,0,0-4.4-6.5,4.14,4.14,0,0,0-5.2,2.6h0a3,3,0,0,0-.2,1A6,6,0,0,0,347.63,52.5Z"/><path class="cls-1" d="M334.93,34.6a4.29,4.29,0,0,0,5.5-2.8h0c.1-.2.1-.4.2-.6a5.74,5.74,0,0,0-4.5-6,4.35,4.35,0,0,0-5.4,2.8c-.1.2-.1.5-.2.7A5.74,5.74,0,0,0,334.93,34.6Z"/><path class="cls-1" d="M333.33,48.7a4.29,4.29,0,0,0,5.4-2.7c.1-.3.1-.5.2-.8a6,6,0,0,0-4.5-6.2,4.52,4.52,0,0,0-5.4,3.1h0a1.7,1.7,0,0,0-.1.7A5.71,5.71,0,0,0,333.33,48.7Z"/><path class="cls-1" d="M346.23,66.7a4.13,4.13,0,0,0,5.2-2.5,3.55,3.55,0,0,0,.2-1,6.25,6.25,0,0,0-4.5-6.3,3.91,3.91,0,0,0-5.1,2.3h0a5.16,5.16,0,0,0-.2,1.1A6.25,6.25,0,0,0,346.23,66.7Z"/><path class="cls-1" d="M311.43,150.1a4.11,4.11,0,0,0-5,2.7,4.25,4.25,0,0,0-.2,1.1,6.14,6.14,0,0,0,4.6,6.2,4.2,4.2,0,0,0,5.2-3h0a2.77,2.77,0,0,0,.1-.9A6.11,6.11,0,0,0,311.43,150.1Z"/><path class="cls-1" d="M312.23,135.6a4.06,4.06,0,0,0-5,3.1h0a3.08,3.08,0,0,0-.1,1,6.1,6.1,0,0,0,4.6,6,4.12,4.12,0,0,0,5.2-2.7,3.55,3.55,0,0,0,.2-1A6.68,6.68,0,0,0,312.23,135.6Z"/><path class="cls-1" d="M318.63,113a6.42,6.42,0,0,0-4.8-6.2,4.25,4.25,0,0,0-5.1,3.2h0a2.77,2.77,0,0,0-.1.9,5.91,5.91,0,0,0,4.6,5.9,4.13,4.13,0,0,0,5.2-2.8h0A3.55,3.55,0,0,0,318.63,113Z"/><path class="cls-4" d="M314.73,92.5a4.16,4.16,0,0,0-5.1,2.9,3.08,3.08,0,0,0-.1,1,5.91,5.91,0,0,0,4.6,5.9,4.22,4.22,0,0,0,5.3-2.9c.1-.3.1-.6.2-.9A6.2,6.2,0,0,0,314.73,92.5Z"/><path class="cls-1" d="M316.13,73.7a4.34,4.34,0,0,0,5.4-3,1.7,1.7,0,0,0,.1-.7,6,6,0,0,0-4.7-6.1,4.48,4.48,0,0,0-5.3,3.3h0c0,.2-.1.5-.1.7A5.63,5.63,0,0,0,316.13,73.7Z"/><path class="cls-1" d="M315,88.1a4.41,4.41,0,0,0,5.4-3.2h0a1.7,1.7,0,0,0,.1-.7,6.11,6.11,0,0,0-4.8-6,4.2,4.2,0,0,0-5.2,3,2.49,2.49,0,0,0-.1.8A6,6,0,0,0,315,88.1Z"/><path class="cls-1" d="M317.33,59.6a4.62,4.62,0,0,0,5.6-3.4h0a4.33,4.33,0,0,1,.1-.5,5.82,5.82,0,0,0-4.7-5.9,4.37,4.37,0,0,0-5.3,3.1,1.7,1.7,0,0,0-.1.7A5.5,5.5,0,0,0,317.33,59.6Z"/><path class="cls-1" d="M318.73,45.5a4.51,4.51,0,0,0,5.6-3.2h0a.9.9,0,0,0,.1-.5,5.75,5.75,0,0,0-4.6-6,4.61,4.61,0,0,0-5.5,3.5c0,.2-.1.3-.1.5A5.42,5.42,0,0,0,318.73,45.5Z"/><path class="cls-1" d="M327.43,124.7a3.81,3.81,0,0,0-4.9,2.5h0a5,5,0,0,0-.2,1.2,6.57,6.57,0,0,0,4.5,6.4,4,4,0,0,0,5.1-2.7h0a4.25,4.25,0,0,0,.2-1.1A6.54,6.54,0,0,0,327.43,124.7Z"/><path class="cls-1" d="M401.93,93.6c-2.7-1.3-5.3-.1-5.5,2.6s1.9,6,4.6,7.3,5,.3,5.3-2.4A8.42,8.42,0,0,0,401.93,93.6Z"/><path class="cls-1" d="M403.93,75.2c2.7,1.3,5.1.3,5.4-2.3a7.89,7.89,0,0,0-4.3-7.4c-2.7-1.4-5.3-.2-5.7,2.5S401.13,73.9,403.93,75.2Z"/><path class="cls-1" d="M402.33,89.5c2.7,1.3,5.1.1,5.4-2.6a7.77,7.77,0,0,0-4.3-7.2c-2.7-1.3-5.3-.4-5.6,2.3S399.63,88.1,402.33,89.5Z"/><path class="cls-1" d="M421.93,54.9c2.8,1.5,5.2.4,5.6-2.2s-1.4-5.8-4.2-7.3-5.4-.6-5.8,1.9S419.13,53.5,421.93,54.9Z"/><path class="cls-1" d="M392.93,40.6c2.7,1.2,5.4.1,5.7-2.5s-1.6-5.7-4.3-7-5.1-.1-5.5,2.5A7.16,7.16,0,0,0,392.93,40.6Z"/><path class="cls-1" d="M405.63,61.2c2.7,1.4,5.1.4,5.5-2.3a7.54,7.54,0,0,0-4.2-7.1c-2.7-1.4-5.4-.4-5.7,2.2S402.83,59.8,405.63,61.2Z"/><path class="cls-1" d="M418.33,82.6c2.7,1.5,5.1.5,5.4-2.1a8.3,8.3,0,0,0-4.3-7.6c-2.7-1.5-5.4-.4-5.7,2.3S415.53,81.2,418.33,82.6Z"/><path class="cls-1" d="M420,68.6c2.7,1.5,5.2.6,5.5-2.1a7.75,7.75,0,0,0-4.3-7.3c-2.7-1.5-5.4-.6-5.7,2S417.33,67.1,420,68.6Z"/><path class="cls-1" d="M407.43,47.5c2.7,1.4,5.2.2,5.6-2.4a7.38,7.38,0,0,0-4.2-7.1c-2.7-1.4-5.4-.4-5.8,2.2S404.73,46.1,407.43,47.5Z"/><path class="cls-1" d="M391.13,54.3c2.7,1.2,5.3.2,5.6-2.4s-1.7-5.8-4.4-7-5.1-.1-5.4,2.6A7,7,0,0,0,391.13,54.3Z"/><path class="cls-1" d="M386.53,96.7c2.7,1.2,5.2.2,5.4-2.5a8,8,0,0,0-4.5-7.3,3.56,3.56,0,0,0-4.8,1.2,3.37,3.37,0,0,0-.5,1.7A7.59,7.59,0,0,0,386.53,96.7Z"/><path class="cls-1" d="M372.63,90.7c2.6,1.1,5.1-.1,5.3-2.8a7.71,7.71,0,0,0-4.4-7.1,3.53,3.53,0,0,0-4.8,1.6,4.19,4.19,0,0,0-.4,1.6A7.16,7.16,0,0,0,372.63,90.7Z"/><path class="cls-1" d="M375.33,62.3c2.6,1.1,5.2,0,5.5-2.7a7.38,7.38,0,0,0-4.3-7,3.65,3.65,0,0,0-4.9,1.6h0a4.19,4.19,0,0,0-.4,1.5A6.76,6.76,0,0,0,375.33,62.3Z"/><path class="cls-1" d="M373.93,76.5a3.67,3.67,0,0,0,5-1.5,3.31,3.31,0,0,0,.4-1.5,7.33,7.33,0,0,0-4.4-6.9c-2.6-1.1-4.9.2-5.2,2.9A7.06,7.06,0,0,0,373.93,76.5Z"/><path class="cls-4" d="M389.43,68.4c2.7,1.2,5.2.2,5.6-2.5a8,8,0,0,0-4.4-7.3c-2.7-1.2-5.1.2-5.4,2.8A7.15,7.15,0,0,0,389.43,68.4Z"/><path class="cls-1" d="M363.23,42.9c2.6.9,5.1-.3,5.4-2.9a6.41,6.41,0,0,0-4.2-6.5,3.77,3.77,0,0,0-5,1.9h0a2.66,2.66,0,0,0-.3,1.2A6.2,6.2,0,0,0,363.23,42.9Z"/><path class="cls-1" d="M387.93,82.6c2.7,1.2,5.2,0,5.5-2.7a7.81,7.81,0,0,0-4.5-7.1c-2.7-1.2-5,0-5.3,2.7A7.63,7.63,0,0,0,387.93,82.6Z"/><path class="cls-1" d="M361.63,57c2.6.9,5.1-.3,5.4-3a6.91,6.91,0,0,0-4.3-6.8,3.84,3.84,0,0,0-5,2.2,5.27,5.27,0,0,0-.3,1.2A6.49,6.49,0,0,0,361.63,57Z"/><path class="cls-1" d="M377,48.2c2.6,1.1,5.2,0,5.5-2.7a7.2,7.2,0,0,0-4.3-6.8c-2.6-1.1-5,.2-5.3,2.8A6.58,6.58,0,0,0,377,48.2Z"/><path class="cls-1" d="M476.23,157.3a9.46,9.46,0,0,0-4.2-7.9c-2.6-1.8-5.1-1.2-5.4,1.5s1.8,6.5,4.4,8.2S476,160,476.23,157.3Z"/><path class="cls-1" d="M361.13,61.4a3.67,3.67,0,0,0-4.8,1.8h0a3.19,3.19,0,0,0-.3,1.4,6.53,6.53,0,0,0,4.2,6.6,3.86,3.86,0,0,0,5-2h0a2.77,2.77,0,0,0,.3-1.3A6.8,6.8,0,0,0,361.13,61.4Z"/><path class="cls-1" d="M359.83,75.4a3.8,3.8,0,0,0-4.9,2.1h0a3.19,3.19,0,0,0-.3,1.4,6.62,6.62,0,0,0,4.3,6.5c2.6.9,5-.4,5.2-3.1A7.24,7.24,0,0,0,359.83,75.4Z"/><path class="cls-1" d="M358.53,89.8a3.7,3.7,0,0,0-4.8,1.8,4,4,0,0,0-.3,1.5,7,7,0,0,0,4.3,6.7,3.75,3.75,0,0,0,4.9-2,3.19,3.19,0,0,0,.3-1.4A6.88,6.88,0,0,0,358.53,89.8Z"/><path class="cls-1" d="M370,123.9c-2.6-1.1-4.8.5-5,3.3a7.2,7.2,0,0,0,4.3,6.8c2.6,1.1,5-.2,5.2-2.9A8,8,0,0,0,370,123.9Z"/><path class="cls-1" d="M371,109.6a3.42,3.42,0,0,0-4.6,1.3,3.29,3.29,0,0,0-.4,1.7,7.2,7.2,0,0,0,4.3,6.8c2.6,1.1,5-.1,5.2-2.9A7.42,7.42,0,0,0,371,109.6Z"/><path class="cls-1" d="M345.83,70.9a4,4,0,0,0-5.1,2.5h0a4.25,4.25,0,0,0-.2,1.1,6.24,6.24,0,0,0,4.4,6.2c2.7.8,5.1-.6,5.4-3.3A6.75,6.75,0,0,0,345.83,70.9Z"/><path class="cls-1" d="M355.43,133.3a3.55,3.55,0,0,0-4.7,1.8,4.15,4.15,0,0,0-.3,1.6,7.2,7.2,0,0,0,4.3,6.8,3.68,3.68,0,0,0,4.8-1.9,4,4,0,0,0,.3-1.5A7.1,7.1,0,0,0,355.43,133.3Z"/><path class="cls-1" d="M356.43,118.7c-2.6-.9-4.8.8-5,3.5a6.84,6.84,0,0,0,4.3,6.6c2.6.9,4.9-.4,5.1-3.2A7.33,7.33,0,0,0,356.43,118.7Z"/><path class="cls-1" d="M398.23,136.6c-2.7-1.3-5.2,0-5.4,2.7a8.47,8.47,0,0,0,4.7,7.3c2.7,1.3,5,.2,5.2-2.5A8.29,8.29,0,0,0,398.23,136.6Z"/><path class="cls-1" d="M386.13,101.1c-2.7-1.2-4.9,0-5.2,2.8a7.77,7.77,0,0,0,4.3,7.2c2.7,1.2,5.2-.1,5.4-2.8A7.68,7.68,0,0,0,386.13,101.1Z"/><path class="cls-1" d="M396.23,165.4c-2.7-1.3-5.2,0-5.4,2.8a8.47,8.47,0,0,0,4.7,7.3c2.7,1.3,5,.2,5.1-2.6A8.5,8.5,0,0,0,396.23,165.4Z"/><path class="cls-1" d="M344.63,85.3a3.72,3.72,0,0,0-4.9,2.1,3.19,3.19,0,0,0-.3,1.4,6.61,6.61,0,0,0,4.4,6.5,4,4,0,0,0,5.1-2.4h0a5.16,5.16,0,0,0,.2-1.1A6.61,6.61,0,0,0,344.63,85.3Z"/><path class="cls-1" d="M395.23,180c-2.7-1.3-5.1-.2-5.3,2.6a8.78,8.78,0,0,0,4.7,7.5c2.7,1.3,5-.1,5.2-2.8A8.32,8.32,0,0,0,395.23,180Z"/><path class="cls-1" d="M372.23,95.1a3.42,3.42,0,0,0-4.6,1.3,3.29,3.29,0,0,0-.4,1.7,7.4,7.4,0,0,0,4.2,7,3.7,3.7,0,0,0,4.9-1.5,2.82,2.82,0,0,0,.4-1.5A7.72,7.72,0,0,0,372.23,95.1Z"/><path class="cls-1" d="M397.13,151.1c-2.7-1.3-5.2-.2-5.4,2.5a8.47,8.47,0,0,0,4.7,7.5c2.7,1.3,5,0,5.2-2.8A8.06,8.06,0,0,0,397.13,151.1Z"/><path class="cls-2" d="M384.93,115.6c-2.7-1.2-4.9,0-5.1,2.8a7.74,7.74,0,0,0,4.4,7c2.7,1.2,5.1.1,5.4-2.6A8.2,8.2,0,0,0,384.93,115.6Z"/><path class="cls-1" d="M382.83,144.4c-2.7-1.2-4.9.1-5.1,2.9a7.69,7.69,0,0,0,4.4,7.2c2.7,1.2,5.1-.1,5.3-2.9A8,8,0,0,0,382.83,144.4Z"/><path class="cls-1" d="M381.93,158.8a3.33,3.33,0,0,0-4.6,1.3h0a3,3,0,0,0-.4,1.8,7.74,7.74,0,0,0,4.4,7c2.7,1.2,5.1.1,5.3-2.7A8.7,8.7,0,0,0,381.93,158.8Z"/><path class="cls-1" d="M383.93,129.9a3.53,3.53,0,0,0-4.7,1.2,4.07,4.07,0,0,0-.5,1.8,7.74,7.74,0,0,0,4.4,7c2.7,1.2,5.1.1,5.3-2.7A8.28,8.28,0,0,0,383.93,129.9Z"/><path class="cls-1" d="M357.43,104.3a3.55,3.55,0,0,0-4.7,1.8h0a4,4,0,0,0-.3,1.5,6.84,6.84,0,0,0,4.3,6.6c2.6.9,4.9-.4,5.1-3.2A7.06,7.06,0,0,0,357.43,104.3Z"/><path class="cls-1" d="M309.73,178.8a4.06,4.06,0,0,0-5,2.9h0a3.4,3.4,0,0,0-.1,1,6,6,0,0,0,4.5,6,4.08,4.08,0,0,0,5.1-2.6h0a3.55,3.55,0,0,0,.2-1A6.6,6.6,0,0,0,309.73,178.8Z"/><path class="cls-1" d="M296.93,147a4.07,4.07,0,0,0-5,3h0a3.08,3.08,0,0,0-.1,1,5.93,5.93,0,0,0,4.7,6,4.45,4.45,0,0,0,5.3-3.3h0a2.2,2.2,0,0,0,.1-.8A6.29,6.29,0,0,0,296.93,147Z"/><path class="cls-1" d="M308.83,193.3a4.05,4.05,0,0,0-5,2.6,4.25,4.25,0,0,0-.2,1.1,6.16,6.16,0,0,0,4.4,6.2,4.19,4.19,0,0,0,5.2-2.9c.1-.3.1-.6.2-.9A6,6,0,0,0,308.83,193.3Z"/><path class="cls-1" d="M296.23,161.4a4,4,0,0,0-5,3h0a3.08,3.08,0,0,0-.1,1,5.72,5.72,0,0,0,4.6,5.8,4.27,4.27,0,0,0,5.2-2.9h0c.1-.3.1-.6.2-.9A6.31,6.31,0,0,0,296.23,161.4Z"/><path class="cls-1" d="M343.53,99.8a3.81,3.81,0,0,0-4.9,2.2,3,3,0,0,0-.2,1.3,6.28,6.28,0,0,0,4.4,6.3,3.79,3.79,0,0,0,5-2.1,2.77,2.77,0,0,0,.3-1.3A6.79,6.79,0,0,0,343.53,99.8Z"/><path class="cls-1" d="M293.53,204.1a4.25,4.25,0,0,0-5.1,3.2,2.2,2.2,0,0,0-.1.8,5.63,5.63,0,0,0,4.4,5.8A4.26,4.26,0,0,0,298,211h0c.1-.3.1-.5.2-.8A6.3,6.3,0,0,0,293.53,204.1Z"/><path class="cls-1" d="M292.33,218.3a4.16,4.16,0,0,0-5.1,2.9,2.77,2.77,0,0,0-.1.9,5.74,5.74,0,0,0,4.3,6,4.46,4.46,0,0,0,5.4-3.2,1.27,1.27,0,0,0,.1-.6A5.92,5.92,0,0,0,292.33,218.3Z"/><path class="cls-1" d="M295.43,175.6a4.25,4.25,0,0,0-5.1,3.2,2.77,2.77,0,0,0-.1.9,5.63,5.63,0,0,0,4.6,5.8,4.27,4.27,0,0,0,5.2-2.9c.1-.3.1-.6.2-.9A6.4,6.4,0,0,0,295.43,175.6Z"/><path class="cls-1" d="M294.53,190a4.06,4.06,0,0,0-5,2.9h0a2.77,2.77,0,0,0-.1.9,6,6,0,0,0,4.5,6.1,4.43,4.43,0,0,0,5.3-3.2,1.7,1.7,0,0,0,.1-.7A6.11,6.11,0,0,0,294.53,190Z"/><path class="cls-1" d="M307.73,207.5a4.16,4.16,0,0,0-5.1,2.9h0a3.08,3.08,0,0,0-.1,1,5.83,5.83,0,0,0,4.4,6,4.13,4.13,0,0,0,5.2-2.5,3,3,0,0,0,.2-1A6.37,6.37,0,0,0,307.73,207.5Z"/><path class="cls-1" d="M335.73,215.5a3.82,3.82,0,0,0-4.9,2.3h0a5.07,5.07,0,0,0-.2,1.3,6.24,6.24,0,0,0,4.3,6.3,3.81,3.81,0,0,0,5-2,2.77,2.77,0,0,0,.3-1.3A6.92,6.92,0,0,0,335.73,215.5Z"/><path class="cls-1" d="M340.63,143.1a3.82,3.82,0,0,0-4.9,2.3,3.4,3.4,0,0,0-.2,1.4,6.49,6.49,0,0,0,4.4,6.4,3.75,3.75,0,0,0,4.9-2h0a3.19,3.19,0,0,0,.3-1.4A6.87,6.87,0,0,0,340.63,143.1Z"/><path class="cls-1" d="M341.53,128.7a3.73,3.73,0,0,0-4.8,2.1,3.19,3.19,0,0,0-.3,1.4,6.83,6.83,0,0,0,4.4,6.6,3.93,3.93,0,0,0,5-2.3h0a5.07,5.07,0,0,0,.2-1.3A6.45,6.45,0,0,0,341.53,128.7Z"/><path class="cls-1" d="M342.53,114.1a3.87,3.87,0,0,0-4.9,2.4,5.07,5.07,0,0,0-.2,1.3,6.28,6.28,0,0,0,4.4,6.3,3.82,3.82,0,0,0,5-2.1h0a3.08,3.08,0,0,0,.3-1.3A7,7,0,0,0,342.53,114.1Z"/><path class="cls-1" d="M325.73,153.6a3.87,3.87,0,0,0-4.9,2.4,5,5,0,0,0-.2,1.2,6.45,6.45,0,0,0,4.5,6.4,4.08,4.08,0,0,0,5.1-2.6,4.25,4.25,0,0,0,.2-1.1A6.63,6.63,0,0,0,325.73,153.6Z"/><path class="cls-1" d="M320.63,225.5a4,4,0,0,0-5,2.3h0a5,5,0,0,0-.2,1.2,6.16,6.16,0,0,0,4.2,6.3,4.1,4.1,0,0,0,5.2-2.6,3.55,3.55,0,0,0,.2-1A6.33,6.33,0,0,0,320.63,225.5Z"/><path class="cls-1" d="M310.63,164.6a4.11,4.11,0,0,0-5,2.7,4.25,4.25,0,0,0-.2,1.1,6,6,0,0,0,4.6,6,4.08,4.08,0,0,0,5.1-2.6,3.55,3.55,0,0,0,.2-1A6.25,6.25,0,0,0,310.63,164.6Z"/><path class="cls-1" d="M324.83,168.2a3.82,3.82,0,0,0-4.9,2.3h0a5.07,5.07,0,0,0-.2,1.3,6.22,6.22,0,0,0,4.5,6.2,3.85,3.85,0,0,0,5-2.3h0a5,5,0,0,0,.2-1.2A6.34,6.34,0,0,0,324.83,168.2Z"/><path class="cls-1" d="M437.23,216.9c-2.7-1.6-5.2-.7-5.4,2s2,6.2,4.7,7.7,5,.6,5.1-2.1A8.9,8.9,0,0,0,437.23,216.9Z"/><path class="cls-1" d="M476.73,285.2c-2.6-1.7-4.9-.9-5.1,1.8s2,6.2,4.6,8,4.7,1,4.8-1.7A10.32,10.32,0,0,0,476.73,285.2Z"/><path class="cls-1" d="M488.83,322.5c-2.5-1.8-4.8-1.2-4.9,1.4s2,6.2,4.5,8,4.5,1.1,4.7-1.5A10.88,10.88,0,0,0,488.83,322.5Z"/><path class="cls-1" d="M488.23,336.3c-2.5-1.8-4.8-1-5,1.6s2,6.2,4.6,8,4.6,1.1,4.7-1.5A10.48,10.48,0,0,0,488.23,336.3Z"/><path class="cls-1" d="M489.43,308.5c-2.5-1.8-4.8-1.2-4.9,1.4s2,6.5,4.4,8.2,4.5.9,4.6-1.8A10,10,0,0,0,489.43,308.5Z"/><path class="cls-1" d="M463.73,262.3c-2.6-1.7-5.1-1-5.2,1.7s2,6.4,4.6,8.1,4.8.7,5-2A9.47,9.47,0,0,0,463.73,262.3Z"/><path class="cls-1" d="M476,299.3c-2.6-1.7-4.9-1.1-5.1,1.6s2,6.4,4.6,8.1,4.7.8,4.8-1.9A9.62,9.62,0,0,0,476,299.3Z"/><path class="cls-1" d="M462.93,276.2c-2.6-1.7-5.1-.8-5.2,1.9s2,6.2,4.7,7.9,4.8.9,5-1.8A10.07,10.07,0,0,0,462.93,276.2Z"/><path class="cls-1" d="M490.13,294.5c-2.5-1.8-4.8-1-4.9,1.7s1.9,6.3,4.4,8.1,4.5,1.1,4.6-1.5A10.67,10.67,0,0,0,490.13,294.5Z"/><path class="cls-1" d="M475.33,313.3c-2.6-1.7-5-1.1-5.1,1.6s2,6.2,4.7,7.9,4.7,1,4.9-1.6A10.74,10.74,0,0,0,475.33,313.3Z"/><path class="cls-1" d="M505.73,113.7c-2.5-1.9-5-1.5-5.3,1.1s1.5,6.3,4,8.2,4.7,1.4,5.1-1.3A9.67,9.67,0,0,0,505.73,113.7Z"/><path class="cls-1" d="M531,134.1c-2.3-2-4.6-1.6-4.9,1s1.4,6.3,3.6,8.2,4.3,1.5,4.7-1.1A10.24,10.24,0,0,0,531,134.1Z"/><path class="cls-1" d="M524.13,148.8c-.3,2.6,1.4,6.3,3.7,8.3s4.3,1.4,4.6-1.2a10.46,10.46,0,0,0-3.4-8.3C526.83,145.6,524.53,146.2,524.13,148.8Z"/><path class="cls-1" d="M542.63,144.4c-2.2-2-4.3-1.6-4.7,1s1.2,6.3,3.4,8.3,4.1,1.5,4.4-1.1A10.34,10.34,0,0,0,542.63,144.4Z"/><path class="cls-1" d="M399.33,122.3c-2.7-1.3-5.2-.3-5.4,2.5s1.9,6,4.6,7.3,5,.2,5.2-2.5A7.83,7.83,0,0,0,399.33,122.3Z"/><path class="cls-1" d="M520.83,176.3c-.3,2.6,1.5,6.3,3.7,8.3s4.2,1.4,4.5-1.2a11,11,0,0,0-3.4-8.4C523.33,173,521.13,173.6,520.83,176.3Z"/><path class="cls-1" d="M492.33,103.7c-2.6-1.9-5.1-1.4-5.5,1.2s1.6,6.2,4.2,8.1,4.8,1.3,5.2-1.3S494.93,105.6,492.33,103.7Z"/><path class="cls-1" d="M503.93,127.2c-2.5-1.9-5-1.3-5.3,1.4s1.6,6.3,4.1,8.2,4.7,1.3,5-1.3A10.24,10.24,0,0,0,503.93,127.2Z"/><path class="cls-1" d="M516.73,137.3c-2.4-1.9-4.8-1.3-5.1,1.3s1.5,6.3,3.9,8.2,4.5,1.4,4.8-1.2A10,10,0,0,0,516.73,137.3Z"/><path class="cls-1" d="M462.13,290.3c-2.7-1.7-5.1-1-5.2,1.7s2,6.3,4.7,8,4.9.7,5-2A9.54,9.54,0,0,0,462.13,290.3Z"/><path class="cls-1" d="M491.53,266.5c-2.5-1.8-4.8-1-4.9,1.6s1.9,6.3,4.4,8.1,4.5,1.1,4.6-1.5A10.94,10.94,0,0,0,491.53,266.5Z"/><path class="cls-1" d="M416.33,100.9c-2.7-1.4-5.3-.3-5.6,2.4s1.9,6,4.6,7.5,5.1.5,5.3-2.2A8.45,8.45,0,0,0,416.33,100.9Z"/><path class="cls-1" d="M414.93,115.2c-2.7-1.4-5.3-.5-5.5,2.2s1.9,6.3,4.6,7.7,5.1.2,5.3-2.5A8.08,8.08,0,0,0,414.93,115.2Z"/><path class="cls-1" d="M413.73,129.6c-2.7-1.4-5.2-.5-5.5,2.3s1.9,6.1,4.7,7.5,5,.4,5.3-2.3A8.67,8.67,0,0,0,413.73,129.6Z"/><path class="cls-1" d="M430.33,173.4a9,9,0,0,0-4.5-7.6c-2.7-1.5-5.2-.6-5.4,2.1s2,6.3,4.7,7.8S430.13,176.2,430.33,173.4Z"/><path class="cls-1" d="M400.63,107.9c-2.7-1.3-5.2-.3-5.5,2.4a8.49,8.49,0,0,0,4.6,7.5c2.7,1.3,5,0,5.3-2.7A8.15,8.15,0,0,0,400.63,107.9Z"/><path class="cls-1" d="M410.43,172.5c-2.7-1.4-5.2-.2-5.4,2.5s2,6.1,4.7,7.5,5,.4,5.2-2.4A8.55,8.55,0,0,0,410.43,172.5Z"/><path class="cls-1" d="M432.63,287.7c-2.8-1.5-5.3-.7-5.5,2s2,6,4.8,7.5,5.1.6,5.3-2S435.43,289.2,432.63,287.7Z"/><path class="cls-1" d="M461.43,304.4c-2.7-1.7-5.1-1-5.3,1.7s2,6.1,4.7,7.8,4.9.9,5-1.8A9.69,9.69,0,0,0,461.43,304.4Z"/><path class="cls-1" d="M411.43,158.2c-2.7-1.4-5.2-.4-5.4,2.3a9.23,9.23,0,0,0,4.7,7.7c2.7,1.4,5,.2,5.2-2.6A8.36,8.36,0,0,0,411.43,158.2Z"/><path class="cls-1" d="M412.53,143.8c-2.7-1.4-5.2-.2-5.4,2.5s2,6.1,4.7,7.5,5,.4,5.2-2.3A8.59,8.59,0,0,0,412.53,143.8Z"/><path class="cls-1" d="M448.83,267.6c-2.7-1.6-5.2-.6-5.3,2.1s2,6.1,4.8,7.7,4.9.8,5.1-1.9A10.1,10.1,0,0,0,448.83,267.6Z"/><path class="cls-1" d="M450.53,239.3c-2.7-1.6-5.2-.6-5.3,2.1s2,6.2,4.7,7.8,4.9.8,5.1-1.9A9.81,9.81,0,0,0,450.53,239.3Z"/><path class="cls-1" d="M448,281.8c-2.7-1.6-5.2-.8-5.4,1.9s2,6.3,4.8,7.9,5,.6,5.1-2.1A9.13,9.13,0,0,0,448,281.8Z"/><path class="cls-1" d="M457.73,204.7a10,10,0,0,0-4.4-8c-2.7-1.7-5.2-.7-5.3,2s2,6.2,4.7,7.9S457.63,207.4,457.73,204.7Z"/><path class="cls-1" d="M447.13,295.9c-2.7-1.6-5.2-.8-5.4,1.8s2,6.1,4.8,7.7,5,.8,5.2-1.9S449.83,297.5,447.13,295.9Z"/><path class="cls-1" d="M434.53,259.4c-2.7-1.5-5.2-.5-5.4,2.2s2,6.1,4.8,7.6,5,.6,5.2-2.1A9.26,9.26,0,0,0,434.53,259.4Z"/><path class="cls-1" d="M433.63,273.6c-2.7-1.5-5.3-.7-5.4,2s2,6.3,4.8,7.8,5.1.4,5.2-2.3A9,9,0,0,0,433.63,273.6Z"/><path class="cls-1" d="M291,232.5a4.32,4.32,0,0,0-5.2,2.9,2.2,2.2,0,0,0-.1.8A5.52,5.52,0,0,0,290,242a4.32,4.32,0,0,0,5.4-2.9,1.48,1.48,0,0,0,.1-.7A5.82,5.82,0,0,0,291,232.5Z"/><path class="cls-1" d="M208.43,123.9a4.8,4.8,0,1,0,.2,9.6,4.8,4.8,0,1,0-.2-9.6Z"/><path class="cls-1" d="M121.43,198a6.31,6.31,0,0,0-4.5,5.8,3.4,3.4,0,0,0,3,3.8,2.46,2.46,0,0,0,1.2-.1,5.88,5.88,0,0,0,4.4-5.5C125.63,199.4,123.83,197.5,121.43,198Z"/><path class="cls-1" d="M120.93,211.8a6,6,0,0,0-4.5,5.6c-.1,2.6,1.8,4.4,4.1,3.9a6.22,6.22,0,0,0,4.4-5.7C125.13,213,123.33,211.3,120.93,211.8Z"/><path class="cls-1" d="M121.73,184.4a6,6,0,0,0-4.5,5.6,3.61,3.61,0,0,0,3.2,4h1.1a5.88,5.88,0,0,0,4.4-5.7C126,185.6,124.13,183.9,121.73,184.4Z"/><path class="cls-1" d="M122,170.5a6.21,6.21,0,0,0-4.5,5.8,3.57,3.57,0,0,0,3.2,3.9,4.87,4.87,0,0,0,1.2-.1,5.66,5.66,0,0,0,4.4-5.5C126.33,171.9,124.43,170,122,170.5Z"/><path class="cls-1" d="M122.13,156.8a5.77,5.77,0,0,0-4.5,5.6,3.59,3.59,0,0,0,3.3,3.9,3.75,3.75,0,0,0,1.1-.1,5.66,5.66,0,0,0,4.4-5.5,3.67,3.67,0,0,0-3.2-4,4.48,4.48,0,0,0-1.1.1Z"/><path class="cls-1" d="M109.53,173.2a6.47,6.47,0,0,0-4.3,6c0,2.6,1.9,4.2,4.2,3.6a6,6,0,0,0,4.2-5.7C113.73,174.5,111.93,172.6,109.53,173.2Z"/><path class="cls-1" d="M118.33,252.7a6.44,6.44,0,0,0-4.6,5.5c-.2,2.6,1.4,4.3,3.6,3.9a6.44,6.44,0,0,0,4.5-5.6C122.23,253.9,120.63,252.2,118.33,252.7Z"/><path class="cls-1" d="M120.33,225.6a6.09,6.09,0,0,0-4.5,5.6,3.35,3.35,0,0,0,2.6,3.8,2.85,2.85,0,0,0,1.3,0,6.19,6.19,0,0,0,4.5-5.4C124.33,226.8,122.63,225.1,120.33,225.6Z"/><path class="cls-1" d="M119.43,239a6.82,6.82,0,0,0-4.6,5.7c-.2,2.6,1.6,4.2,3.8,3.7a6.19,6.19,0,0,0,4.5-5.4C123.43,240.4,121.83,238.5,119.43,239Z"/><path class="cls-1" d="M134.73,182.2a5.85,5.85,0,0,0-4.8,5.4,3.85,3.85,0,0,0,3.6,4.2h.9a5.86,5.86,0,0,0,4.7-5.5,3.8,3.8,0,0,0-3.4-4.1A1.7,1.7,0,0,0,134.73,182.2Z"/><path class="cls-1" d="M135.23,154.6a5.66,5.66,0,0,0-4.8,5.4,4,4,0,0,0,3.7,4.1,2.77,2.77,0,0,0,.9-.1,5.56,5.56,0,0,0,4.7-5.3,3.83,3.83,0,0,0-3.6-4.1h-.9Z"/><path class="cls-1" d="M109.43,187.1a6.35,6.35,0,0,0-4.3,5.8c0,2.6,1.9,4.4,4.1,3.8a6.25,6.25,0,0,0,4.2-5.9C113.43,188.2,111.73,186.5,109.43,187.1Z"/><path class="cls-1" d="M135,168.3a6,6,0,0,0-4.8,5.6,3.8,3.8,0,0,0,3.6,4h0a3.75,3.75,0,0,0,1-.1,5.56,5.56,0,0,0,4.7-5.3,3.94,3.94,0,0,0-3.6-4.3h0A2.77,2.77,0,0,1,135,168.3Z"/><path class="cls-1" d="M139,44.3a6,6,0,0,0-5,5.3,3.83,3.83,0,0,0,3.3,4.3h1a6,6,0,0,0,4.9-5.4,3.69,3.69,0,0,0-3-4.2A2.4,2.4,0,0,0,139,44.3Z"/><path class="cls-1" d="M122.33,142.9a5.77,5.77,0,0,0-4.5,5.6,3.73,3.73,0,0,0,3.4,4.1h1a5.88,5.88,0,0,0,4.4-5.7,3.61,3.61,0,0,0-3.2-4A1.39,1.39,0,0,0,122.33,142.9Z"/><path class="cls-1" d="M125,59.8a6.64,6.64,0,0,0-4.8,5.7,3.35,3.35,0,0,0,2.9,3.9,2.44,2.44,0,0,0,1.2,0,6,6,0,0,0,4.6-5.4C129.13,61.3,127.43,59.4,125,59.8Z"/><path class="cls-1" d="M132.93,223.3a6.17,6.17,0,0,0-4.9,5.4,3.57,3.57,0,0,0,3,4,4.82,4.82,0,0,0,1.2,0,5.85,5.85,0,0,0,4.8-5.3,3.5,3.5,0,0,0-2.9-4A1.67,1.67,0,0,0,132.93,223.3Z"/><path class="cls-1" d="M133.73,209.6a6,6,0,0,0-4.8,5.4,3.86,3.86,0,0,0,3.3,4.2h1.1a6.17,6.17,0,0,0,4.8-5.5,3.62,3.62,0,0,0-3.1-4.1,2.85,2.85,0,0,0-1.3,0Z"/><path class="cls-1" d="M134.33,195.8a6.17,6.17,0,0,0-4.8,5.6,3.69,3.69,0,0,0,3.4,4,4.1,4.1,0,0,0,1.1-.1,5.56,5.56,0,0,0,4.7-5.3,4,4,0,0,0-3.4-4.3A3.08,3.08,0,0,0,134.33,195.8Z"/><path class="cls-1" d="M87.33,96.4a7,7,0,0,0-4.3,6.1c-.1,2.7,1.7,4.1,3.9,3.4a6.81,6.81,0,0,0,4.1-6C91.13,97.2,89.53,95.7,87.33,96.4Z"/><path class="cls-1" d="M86.13,152.3a6.76,6.76,0,0,0-4.1,6.2c0,2.7,1.9,4.3,4.1,3.6s3.9-3.6,3.9-6.3S88.33,151.6,86.13,152.3Z"/><path class="cls-1" d="M87.93,82.3a6.86,6.86,0,0,0-4.3,6.1c-.1,2.7,1.6,4.3,3.9,3.6s4-3.5,4.2-6.2S90.23,81.6,87.93,82.3Z"/><path class="cls-1" d="M97.53,190.4a6.39,6.39,0,0,0-4.1,6c0,2.6,1.8,4.3,4,3.6s4-3.4,4-6.1S99.73,189.7,97.53,190.4Z"/><path class="cls-1" d="M88.83,68.3c-2.2.7-4.3,3.6-4.4,6.2s1.6,4.1,3.8,3.4a6.77,6.77,0,0,0,4.2-5.9C92.63,69.4,91,67.6,88.83,68.3Z"/><path class="cls-1" d="M147.43,208a5.85,5.85,0,0,0-5.2,5.2,4.11,4.11,0,0,0,3.7,4.4h.9a5.76,5.76,0,0,0,5.1-5.3,3.94,3.94,0,0,0-3.6-4.3A1.39,1.39,0,0,0,147.43,208Z"/><path class="cls-1" d="M76.43,86.1a7.3,7.3,0,0,0-4.3,6.2c-.1,2.7,1.6,4.3,3.8,3.5s4-3.7,4.1-6.3S78.63,85.4,76.43,86.1Z"/><path class="cls-1" d="M86,180.2c-2.2.7-4,3.7-4,6.4s1.9,4.1,4,3.3a6.6,6.6,0,0,0,3.9-6.1C89.93,181.1,88.23,179.4,86,180.2Z"/><path class="cls-1" d="M77.33,72.1a7.7,7.7,0,0,0-4.4,6.4c-.2,2.7,1.6,4.1,3.8,3.3a7.23,7.23,0,0,0,4.2-6.1C81,73,79.43,71.3,77.33,72.1Z"/><path class="cls-1" d="M78.33,58.3a7.4,7.4,0,0,0-4.4,6.2c-.2,2.7,1.5,4.3,3.7,3.5s4.1-3.6,4.3-6.3S80.53,57.5,78.33,58.3Z"/><path class="cls-1" d="M107.63,241.8c-2.2.6-4.1,3.3-4.3,5.9s1.6,4.1,3.7,3.5a6.51,6.51,0,0,0,4.2-5.6C111.43,243.1,109.83,241.3,107.63,241.8Z"/><path class="cls-1" d="M109.13,200.8a6.62,6.62,0,0,0-4.3,6,3.27,3.27,0,0,0,4.1,3.6,6.13,6.13,0,0,0,4.2-5.7C113.13,202,111.43,200.2,109.13,200.8Z"/><path class="cls-1" d="M108.33,228.4a6.63,6.63,0,0,0-4.3,5.7c-.1,2.6,1.7,4.1,3.9,3.5a6.25,6.25,0,0,0,4.2-5.6C112.23,229.4,110.53,227.8,108.33,228.4Z"/><path class="cls-1" d="M108.83,214.6a6.35,6.35,0,0,0-4.3,5.8c-.1,2.6,1.7,4.3,4,3.7a6.39,6.39,0,0,0,4.2-5.9C112.73,215.6,111,214,108.83,214.6Z"/><path class="cls-1" d="M99,92.9a6.73,6.73,0,0,0-4.4,5.9c-.1,2.7,1.8,4.2,4,3.6a6.36,6.36,0,0,0,4.2-5.8C103,94,101.33,92.3,99,92.9Z"/><path class="cls-1" d="M98.53,106.7c-2.3.6-4.2,3.5-4.3,6.1s1.8,4.2,4.1,3.6a6.13,6.13,0,0,0,4.1-5.8C102.53,108,100.83,106.1,98.53,106.7Z"/><path class="cls-1" d="M97.73,162.7a6.63,6.63,0,0,0-4.2,6c0,2.7,1.9,4.1,4.1,3.5a6.31,6.31,0,0,0,4-5.9C101.73,163.6,99.93,162,97.73,162.7Z"/><path class="cls-1" d="M97.83,148.6a6.38,6.38,0,0,0-4.2,6c0,2.7,1.9,4.4,4.1,3.7s4-3.4,4.1-6.1S100.13,148,97.83,148.6Z"/><path class="cls-1" d="M97.63,176.4c-2.2.7-4.1,3.5-4.1,6.2s1.9,4.1,4.1,3.5a6.31,6.31,0,0,0,4-5.9C101.63,177.6,99.83,175.8,97.63,176.4Z"/><path class="cls-1" d="M253.23,126.4a4.72,4.72,0,0,0-5.2,4.2h0v.4a5.26,5.26,0,0,0,4.9,5.3,4.67,4.67,0,0,0,5.4-3.9h0V132A5.57,5.57,0,0,0,253.23,126.4Z"/><path class="cls-1" d="M240.53,69.2a4.93,4.93,0,0,0-5.4,4.4v.1a5.17,5.17,0,0,0,10.3.5,4.91,4.91,0,0,0-4.8-5Z"/><path class="cls-1" d="M241.43,55.2a5.2,5.2,0,0,0-5.5,4.7,4.74,4.74,0,0,0,4.7,4.9h.2a4.87,4.87,0,1,0,.8-9.7h-.2Z"/><path class="cls-1" d="M239.83,83.3a4.84,4.84,0,0,0-5.3,4.4v.2a5,5,0,0,0,4.9,5h0a4.82,4.82,0,0,0,5.3-4.3h0v-.2a5,5,0,0,0-4.9-5.1Z"/><path class="cls-1" d="M242.43,41.5a5.28,5.28,0,0,0-5.6,4.5,4.89,4.89,0,0,0,4.6,5.1h.2a5.36,5.36,0,0,0,5.6-4.7,4.62,4.62,0,0,0-4.4-4.9h-.4Z"/><path class="cls-1" d="M238.33,125.2a4.83,4.83,0,0,0-5.2,4.4v.2a5.15,5.15,0,0,0,4.9,5.1,4.76,4.76,0,0,0,5.2-4h0v-.4A5.26,5.26,0,0,0,238.33,125.2Z"/><path class="cls-1" d="M237.93,139.3a4.6,4.6,0,0,0-5.1,4.1h0v.4a5.26,5.26,0,0,0,4.9,5.3,4.87,4.87,0,0,0,5.2-4.3v-.3A5.19,5.19,0,0,0,237.93,139.3Z"/><path class="cls-1" d="M239.23,97.1a5,5,0,0,0-5.3,4.6v.1a5.08,5.08,0,0,0,4.9,5.1,4.72,4.72,0,0,0,5.2-4.2h0v-.3A5.1,5.1,0,0,0,239.23,97.1Z"/><path class="cls-1" d="M252.73,140.6a4.39,4.39,0,0,0-5.1,3.8v.5a5.44,5.44,0,0,0,4.8,5.5,4.89,4.89,0,0,0,5.4-4.2h0v-.3A5.44,5.44,0,0,0,252.73,140.6Z"/><path class="cls-1" d="M238.73,111.3a4.72,4.72,0,0,0-5.2,4.2v.3a5.26,5.26,0,0,0,4.9,5.3,4.83,4.83,0,0,0,5.2-4.4h0v-.2A4.92,4.92,0,0,0,238.73,111.3Z"/><path class="cls-1" d="M264.73,198.8a4.53,4.53,0,0,0-5.2,3.8.9.9,0,0,1-.1.5,5.32,5.32,0,0,0,4.5,5.5,4.62,4.62,0,0,0,5.4-3.4h0c0-.2.1-.3.1-.5A5.74,5.74,0,0,0,264.73,198.8Z"/><path class="cls-1" d="M276.73,229.5a4.33,4.33,0,0,0-5.2,3.2c0,.2-.1.4-.1.6a5.18,5.18,0,0,0,4.3,5.6,4.41,4.41,0,0,0,5.4-3.2h0c0-.2.1-.3.1-.5A5.36,5.36,0,0,0,276.73,229.5Z"/><path class="cls-1" d="M278,215.4a4.33,4.33,0,0,0-5.2,3.2h0a1.7,1.7,0,0,0-.1.7,5.64,5.64,0,0,0,4.4,5.9,4.5,4.5,0,0,0,5.4-3.5h0c0-.2.1-.3.1-.5A5.54,5.54,0,0,0,278,215.4Z"/><path class="cls-1" d="M279.13,201.2a4.5,4.5,0,0,0-5.2,3.5c0,.2-.1.4-.1.6a5.53,5.53,0,0,0,4.5,5.7,4.35,4.35,0,0,0,5.3-3.2h0c0-.2.1-.4.1-.6A5.73,5.73,0,0,0,279.13,201.2Z"/><path class="cls-1" d="M266.33,170.6a4.39,4.39,0,0,0-5.1,3.8h0a1.27,1.27,0,0,1-.1.6,5.34,5.34,0,0,0,4.7,5.5,4.53,4.53,0,0,0,5.3-3.5c0-.2.1-.4.1-.6A5.81,5.81,0,0,0,266.33,170.6Z"/><path class="cls-1" d="M228.33,27.3a5.22,5.22,0,0,0-2.1.4,5.61,5.61,0,0,0-3.6,4.4c-.2,2.6,1.8,4.7,4.8,4.7a5.28,5.28,0,0,0,5.6-4.6,4.58,4.58,0,0,0-4.2-4.9Z"/><path class="cls-1" d="M254.33,98.2a4.83,4.83,0,0,0-5.3,4.3h0v.3a5.1,5.1,0,0,0,4.9,5.2,4.84,4.84,0,0,0,5.5-4.1h0v-.3A5.45,5.45,0,0,0,254.33,98.2Z"/><path class="cls-1" d="M253.83,112.4a4.61,4.61,0,0,0-5.2,3.9h0v.4a5.36,5.36,0,0,0,4.9,5.4,4.85,4.85,0,0,0,5.4-4.3h0v-.2A5.5,5.5,0,0,0,253.83,112.4Z"/><path class="cls-1" d="M280.13,187.2a4.3,4.3,0,0,0-5.1,3.2,2.2,2.2,0,0,0-.1.8,5.81,5.81,0,0,0,4.6,5.9,4.45,4.45,0,0,0,5.3-3.5h0c0-.2.1-.4.1-.6A5.82,5.82,0,0,0,280.13,187.2Z"/><path class="cls-1" d="M265.63,184.8a4.28,4.28,0,0,0-5.1,3.5c0,.2-.1.4-.1.6a5.61,5.61,0,0,0,4.6,5.7,4.71,4.71,0,0,0,5.4-3.8h0a.6.6,0,0,1,.1-.4A5.88,5.88,0,0,0,265.63,184.8Z"/><path class="cls-1" d="M171.53,1.2a5.88,5.88,0,0,0-5.6,4.8,4,4,0,0,0,3.2,4.6,2.05,2.05,0,0,0,1.1,0,6.17,6.17,0,0,0,5.6-5,3.76,3.76,0,0,0-3.1-4.4A2.44,2.44,0,0,0,171.53,1.2Z"/><path class="cls-1" d="M163.63,165.7a5.4,5.4,0,0,0-5.1,5.1,4.37,4.37,0,0,0,4.4,4.4h.5a5,5,0,0,0,5-4.8,4.57,4.57,0,0,0-4.4-4.7h-.4Z"/><path class="cls-1" d="M163.23,179.6a5.39,5.39,0,0,0-5.2,4.9,4.42,4.42,0,0,0,4.4,4.6h.4a5.39,5.39,0,0,0,5.1-5,4.35,4.35,0,0,0-4.2-4.5Z"/><path class="cls-1" d="M168.13,28.4a5.86,5.86,0,0,0-5.4,5.1,4,4,0,0,0,3.6,4.4h.9a5.66,5.66,0,0,0,5.4-4.9,4.1,4.1,0,0,0-3.7-4.6h-.8Z"/><path class="cls-1" d="M169.63,14.9a5.77,5.77,0,0,0-5.5,4.9,3.92,3.92,0,0,0,3.3,4.4h0a1.7,1.7,0,0,0,1,0,5.77,5.77,0,0,0,5.5-4.9,3.87,3.87,0,0,0-3.4-4.4h0A1.35,1.35,0,0,0,169.63,14.9Z"/><path class="cls-1" d="M153.83,29.2a6.16,6.16,0,0,0-5.4,5.3,4,4,0,0,0,3.4,4.3h1a5.74,5.74,0,0,0,5.2-5,4,4,0,0,0-3.3-4.5h0A2.77,2.77,0,0,0,153.83,29.2Z"/><path class="cls-1" d="M148.93,166.7a5.77,5.77,0,0,0-5.1,5.4,4.14,4.14,0,0,0,4.1,4.2h0a1.7,1.7,0,0,0,.7-.1,5.47,5.47,0,0,0,5-5.1,4.34,4.34,0,0,0-4.1-4.5h0A1.27,1.27,0,0,1,148.93,166.7Z"/><path class="cls-1" d="M148.53,180.6a5.66,5.66,0,0,0-5.1,5.2,4.25,4.25,0,0,0,4.1,4.4h.7a5.76,5.76,0,0,0,5.1-5.3,4.13,4.13,0,0,0-3.9-4.3A1.39,1.39,0,0,0,148.53,180.6Z"/><path class="cls-1" d="M148,194.2a6.06,6.06,0,0,0-5.2,5.4,4,4,0,0,0,3.9,4.2,2.77,2.77,0,0,0,.9-.1,5.65,5.65,0,0,0,5.1-5.1,4.23,4.23,0,0,0-3.9-4.5A2.2,2.2,0,0,0,148,194.2Z"/><path class="cls-1" d="M162.73,193.2a5.5,5.5,0,0,0-5.2,5.1,4.19,4.19,0,0,0,4.1,4.4h.6a5.3,5.3,0,0,0,5.2-4.8,4.4,4.4,0,0,0-4.2-4.7h-.5Z"/><path class="cls-1" d="M208.73,110.1a5,5,0,0,0-5.2,4.6v.1a5,5,0,0,0,4.9,5h0a5,5,0,0,0,5.2-4.8,4.74,4.74,0,0,0-4.8-4.8h-.1Z"/><path class="cls-1" d="M223.43,124.3a4.86,4.86,0,1,0-.7,9.7h.4a4.87,4.87,0,0,0,5.2-4.3v-.2A5.31,5.31,0,0,0,223.43,124.3Z"/><path class="cls-1" d="M224.13,96.5a4.86,4.86,0,1,0-.3,9.7h.1a4.76,4.76,0,0,0,5.2-4.4h0v-.1A5.12,5.12,0,0,0,224.13,96.5Z"/><path class="cls-1" d="M223,138.4a4.71,4.71,0,0,0-5.1,4.3h0v.2a5.1,5.1,0,0,0,4.9,5.2,4.75,4.75,0,0,0,5.1-4.5h0v-.1A5.08,5.08,0,0,0,223,138.4Z"/><path class="cls-1" d="M184.43,14.3a5.88,5.88,0,0,0-5.6,4.8,4,4,0,0,0,3.5,4.4h1a5.78,5.78,0,0,0,5.6-4.8,4,4,0,0,0-3.5-4.4Z"/><path class="cls-1" d="M223.73,110.5a4.81,4.81,0,0,0-5.2,4.4h0v.2a5.08,5.08,0,0,0,4.9,5.1,4.86,4.86,0,0,0,.7-9.7Z"/><path class="cls-1" d="M75.73,100.2a7.32,7.32,0,0,0-4.3,6.3c-.1,2.7,1.7,4.1,3.9,3.3a7.07,7.07,0,0,0,4.1-6.1C79.53,101,77.93,99.5,75.73,100.2Z"/><path class="cls-1" d="M186.33.6a5.88,5.88,0,0,0-5.7,4.8,4,4,0,0,0,3.3,4.6,2,2,0,0,0,1.1,0,6.07,6.07,0,0,0,5.7-5C191,2.5,189.13.5,186.33.6Z"/><path class="cls-1" d="M199.43,13.9a5.79,5.79,0,0,0-5.7,4.8c-.3,2.6,1.7,4.6,4.6,4.5a5.61,5.61,0,0,0,5.6-4.7A4.09,4.09,0,0,0,199.43,13.9Z"/><path class="cls-1" d="M312.13,552.9l240.1-139.4a27,27,0,0,0,9.8-37,27.63,27.63,0,0,0-9.9-9.9l-240.5-139a40.74,40.74,0,0,0-40.8,0L31,366.6a27.13,27.13,0,0,0,0,46.9l240.2,139.4A40.93,40.93,0,0,0,312.13,552.9Z"/><path class="cls-5" d="M312.13,549.4l240.1-139.3a27,27,0,0,0,9.8-37,27.63,27.63,0,0,0-9.9-9.9L311.63,224.1a40.74,40.74,0,0,0-40.8,0L31,363.1A27.13,27.13,0,0,0,31,410l240.2,139.4A40.93,40.93,0,0,0,312.13,549.4Z"/><path class="cls-6" d="M412.33,367.7h0c-2.7-1.6-.8-4.2,3-4.2h0c4.3,0,7.8-2,7.8-4.5v-1.3c0-2.5-3.5-4.5-7.8-4.5h0c-3.8,0-5.7-2.7-3-4.2h0c3-1.7,3-4.6,0-6.3l-1.6-.9a11.88,11.88,0,0,0-11,0h0c-2.7,1.5-7.3.4-7.3-1.8h0c0-2.5-3.5-4.5-7.8-4.5h-2.3c-4.3,0-7.8,2-7.8,4.5h0c0,2.2-4.6,3.3-7.3,1.7h0a11.88,11.88,0,0,0-11,0l-1.6.9c-3,1.8-3,4.6,0,6.3,2.7,1.6.8,4.2-3,4.2h0c-4.3,0-7.8,2-7.8,4.5v1.3c0,2.5,3.5,4.5,7.8,4.5h0c3.8,0,5.7,2.7,3,4.2h0c-3,1.8-3,4.6,0,6.3l1.6.9a11.88,11.88,0,0,0,11,0c2.7-1.5,7.3-.4,7.3,1.8,0,2.5,3.5,4.5,7.8,4.5h2.2c4.3,0,7.8-2,7.8-4.5h0c0-2.2,4.6-3.3,7.3-1.7h0a11.88,11.88,0,0,0,11,0l1.6-.9C415.33,372.3,415.33,369.4,412.33,367.7Zm-42.4-1.5c-7.6-4.4-7.6-11.4-.1-15.8s19.7-4.3,27.3.1,7.6,11.4.1,15.8-19.8,4.2-27.3-.1Z"/><path class="cls-6" d="M452.43,396.5h0c-2-1.1-.6-3.1,2.2-3.1h0c3.1,0,5.7-1.5,5.7-3.3v-.9c0-1.8-2.5-3.3-5.7-3.3h0c-2.8,0-4.2-1.9-2.2-3.1h0c2.2-1.3,2.2-3.3,0-4.6l-1.1-.6a8.69,8.69,0,0,0-8,0h0c-2,1.1-5.3.3-5.3-1.3h0c0-1.8-2.5-3.3-5.7-3.3h-1.6c-3.1,0-5.7,1.5-5.7,3.3h0c0,1.6-3.3,2.4-5.3,1.3h0a8.69,8.69,0,0,0-8,0l-1.1.6c-2.2,1.3-2.2,3.3,0,4.6,2,1.1.6,3.1-2.2,3.1h0c-3.1,0-5.7,1.5-5.7,3.3v.9c0,1.8,2.5,3.3,5.7,3.3h0c2.8,0,4.2,1.9,2.2,3.1h0c-2.2,1.3-2.2,3.3,0,4.6l1.1.6a8.69,8.69,0,0,0,8,0c1.9-1.1,5.3-.3,5.3,1.3,0,1.8,2.5,3.3,5.7,3.3h1.6c3.1,0,5.7-1.5,5.7-3.3h0c0-1.6,3.3-2.4,5.3-1.3h0a8.69,8.69,0,0,0,8,0l1.1-.6C454.63,399.9,454.63,397.8,452.43,396.5Zm-30.9-1.1c-5.5-3.2-5.5-8.3-.1-11.5s14.4-3.2,19.9,0,5.5,8.3.1,11.5S427,398.6,421.53,395.4Z"/><path class="cls-7" d="M415.33,354.2V343.6l-6.1-1-2.6-1.3a4.12,4.12,0,0,0-2.1-2.2l-1.6-.9a3.7,3.7,0,0,0-1.1-.5l4.7-.2.2-7.1-20.4-2.4-2-4.7-17.5.5,2.5,4.6-10.4.8-1,1.2c-1.9-.1-13.2-1-13.2-1v9.2l4.1-.7c-.1.1-.3.1-.4.2l-1.6.9a4.29,4.29,0,0,0-2.1,2.3l-8.6.6v11.5h.1c0,.2-.1.4-.1.6v1.3c0,2.5,3.5,4.5,7.8,4.5h.7V367h0a3.86,3.86,0,0,0,2.3,3.3l1.6.9a11.88,11.88,0,0,0,11,0c2.7-1.5,7.3-.4,7.3,1.8,0,2.5,3.5,4.5,7.8,4.5h2.2c4.3,0,7.8-2,7.8-4.5h0c0-2.2,4.6-3.3,7.3-1.7h0a11.88,11.88,0,0,0,11,0l1.6-.9c1.9-1.1,2.6-2.6,2.1-4h0V360h.8c4.2,0,7.5-1.9,7.7-4.2h0v-.2l.2-1.4Zm-39,2.6c-7.6,0-13.7-3.5-13.7-7.9s6.1-7.9,13.7-7.9,13.7,3.5,13.7,7.9-6.1,7.9-13.7,7.9Z"/><path class="cls-7" d="M415.33,343.6l-6.1-1-2.6-1.3a4.12,4.12,0,0,0-2.1-2.2l-1.6-.9a3.7,3.7,0,0,0-1.1-.5l4.7-.2.2-7.1-20.4-2.4-2-4.7-17.5.5,2.5,4.6-10.4.8-1,1.2c-1.9-.1-13.2-1-13.2-1v9.2l4.1-.7c-.1.1-.3.1-.4.2l-1.6.9a4.29,4.29,0,0,0-2.1,2.3C363.13,362,387.43,359.7,415.33,343.6Zm-39,13.2c-7.6,0-13.7-3.5-13.7-7.9s6.1-7.9,13.7-7.9,13.7,3.5,13.7,7.9S383.93,356.8,376.33,356.8Z"/><path class="cls-7" d="M406.73,360l-.5-4.9-6.1-5.5s9.4-4.5,9.7-4.3.4,14.4.4,14.4A10,10,0,0,1,406.73,360Z"/><path class="cls-7" d="M384.93,372.7l-.1-11.6s.4-3.5,6.3-2.1l-.3,12.1C390.83,371,386.53,369.9,384.93,372.7Z"/><path class="cls-8" d="M404.63,352.1h0c-2.7-1.6-.8-4.2,3-4.2h0c4.3,0,7.8-2,7.8-4.5v-1.3c0-2.5-3.5-4.5-7.8-4.5h0c-3.8,0-5.7-2.7-3-4.2h0c3-1.7,3-4.6,0-6.3l-1.6-.9a11.88,11.88,0,0,0-11,0h0c-2.7,1.5-7.3.4-7.3-1.8h0c0-2.5-3.5-4.5-7.8-4.5h-2.3c-4.3,0-7.8,2-7.8,4.5h0c0,2.2-4.6,3.3-7.3,1.7h0a11.88,11.88,0,0,0-11,0l-1.6.8c-3,1.8-3,4.6,0,6.3,2.7,1.6.8,4.2-3,4.2h0c-4.3,0-7.8,2-7.8,4.5v1.3c0,2.5,3.5,4.5,7.8,4.5h0c3.8,0,5.7,2.7,3,4.2h0c-3,1.8-3,4.6,0,6.3l1.6.9a11.88,11.88,0,0,0,11,0c2.7-1.5,7.3-.4,7.3,1.8,0,2.5,3.5,4.5,7.8,4.5h2.2c4.3,0,7.8-2,7.8-4.5h0c0-2.2,4.6-3.3,7.3-1.7h0a11.88,11.88,0,0,0,11,0l1.6-.9C407.63,356.7,407.63,353.8,404.63,352.1Zm-42.4-1.6c-7.6-4.4-7.6-11.4-.1-15.8s19.7-4.3,27.3.1,7.6,11.4.1,15.8S369.73,354.9,362.23,350.5Z"/><path class="cls-7" d="M360.43,371.1l-.6-11.8a6.2,6.2,0,0,1,4.4-.6c2.8.5,2.8,2.3,2.8,2.3v11.7S365.23,369.7,360.43,371.1Z"/><path class="cls-7" d="M455.13,386.3v-7.5l-4.4-.7-1.9-.9a2.94,2.94,0,0,0-1.5-1.6l-1.1-.6a5.94,5.94,0,0,0-.8-.4l3.3-.2.2-5.1-14.5-1.7-1.4-3.4-12.5.4,1.8,3.3-7.4.6-.7.9-9.4-.7v6.6l2.9-.5-.3.1-1.1.6a3.14,3.14,0,0,0-1.5,1.7l-6.1.4v8.2h.1a.6.6,0,0,1-.1.4v.9c0,1.8,2.5,3.2,5.6,3.2h.5v5.2h0a2.73,2.73,0,0,0,1.6,2.3l1.1.6a8.29,8.29,0,0,0,7.8,0c1.9-1.1,5.2-.3,5.2,1.3,0,1.8,2.5,3.2,5.6,3.2h1.6c3.1,0,5.5-1.4,5.5-3.2h0c0-1.6,3.3-2.3,5.2-1.2h0a8.9,8.9,0,0,0,7.8,0l1.1-.6c1.3-.8,1.8-1.9,1.5-2.9h0v-4.6h.6c3,0,5.4-1.3,5.5-3h0v-.2l.2-.9Zm-27.8,1.9c-5.4,0-9.8-2.5-9.8-5.6s4.4-5.6,9.8-5.6,9.8,2.5,9.8,5.6-4.4,5.6-9.8,5.6Z"/><path class="cls-7" d="M455.13,378.7l-4.4-.7-1.9-.9a2.94,2.94,0,0,0-1.5-1.6l-1.1-.6a5.94,5.94,0,0,0-.8-.4l3.3-.2.2-5.1-14.5-1.7-1.4-3.4-12.5.4,1.8,3.3-7.4.6-.7.9-9.4-.7v6.6l2.9-.5-.3.1-1.1.6a3.14,3.14,0,0,0-1.5,1.7C417.93,391.8,435.23,390.2,455.13,378.7Zm-27.8,9.5c-5.4,0-9.8-2.5-9.8-5.6s4.4-5.6,9.8-5.6,9.8,2.5,9.8,5.6S432.73,388.2,427.33,388.2Z"/><path class="cls-7" d="M449,390.4l-.3-3.5-4.3-3.9s6.7-3.2,6.9-3.1.3,10.3.3,10.3A7.63,7.63,0,0,1,449,390.4Z"/><path class="cls-7" d="M433.43,399.4l-.1-8.3s.3-2.5,4.5-1.5l-.2,8.6C437.73,398.2,434.63,397.4,433.43,399.4Z"/><path class="cls-8" d="M447.53,384.7h0c-1.9-1.1-.6-3,2.1-3h0c3.1,0,5.5-1.4,5.5-3.2v-.9c0-1.8-2.5-3.2-5.6-3.2h0c-2.7,0-4.1-1.9-2.2-3h0c2.2-1.3,2.1-3.3,0-4.5l-1.1-.6a8.9,8.9,0,0,0-7.8,0h0c-1.9,1.1-5.2.3-5.2-1.3h0c0-1.8-2.5-3.2-5.6-3.2H426c-3.1,0-5.5,1.4-5.5,3.2h0c0,1.6-3.3,2.3-5.2,1.2h0a8.9,8.9,0,0,0-7.8,0l-1.1.6c-2.2,1.3-2.1,3.3,0,4.5,1.9,1.1.6,3-2.1,3h0c-3.1,0-5.5,1.4-5.5,3.2v.9c0,1.8,2.5,3.2,5.6,3.2h0c2.7,0,4.1,1.9,2.2,3h0c-2.2,1.3-2.1,3.3,0,4.5l1.1.6a8.9,8.9,0,0,0,7.8,0c1.9-1.1,5.2-.3,5.2,1.3,0,1.8,2.5,3.2,5.6,3.2h1.6c3.1,0,5.5-1.4,5.5-3.2h0c0-1.6,3.3-2.3,5.2-1.2h0a8.9,8.9,0,0,0,7.8,0l1.1-.6C449.73,388,449.63,386,447.53,384.7Zm-30.2-1c-5.4-3.1-5.4-8.1-.1-11.2s14.1-3.1,19.5,0,5.4,8.1.1,11.2S422.73,386.8,417.33,383.7Z"/><path class="cls-7" d="M416,398.3l-.5-8.4a5,5,0,0,1,3.2-.4c2,.3,2,1.6,2,1.6v8.3S419.43,397.3,416,398.3Z"/><path class="cls-9" d="M244.53,363.7l112.2,65.1a10.07,10.07,0,0,0,13.7-3.6,9.93,9.93,0,0,0,1.4-5V128.8a32.55,32.55,0,0,0-16.3-28.2L243.33,35.4a10.07,10.07,0,0,0-13.7,3.6,9.93,9.93,0,0,0-1.4,5V335.4A32.59,32.59,0,0,0,244.53,363.7Z"/><circle class="cls-9" cx="232.33" cy="54.7" r="22.2"/><circle class="cls-9" cx="349.63" cy="419" r="22.2"/><path class="cls-10" d="M365.83,426.1a11.53,11.53,0,0,0,.3-2.6V132.1a32.55,32.55,0,0,0-16.3-28.2L305.23,78l-67.6-39.3a9.29,9.29,0,0,0-1-.5c-.3-.1-.7-.3-1-.4a21.45,21.45,0,0,0-17.2-.3,21.9,21.9,0,0,1,22.9-2.9,7.22,7.22,0,0,1,2,.9l112.2,65.1a32.59,32.59,0,0,1,16.3,28.3V420.3a10.9,10.9,0,0,1-.3,2.6,22,22,0,0,1-13.7,16.8A23.3,23.3,0,0,0,365.83,426.1Z"/><path class="cls-11" d="M222.83,45.7a11,11,0,0,0-.2,1.8V48l-6.7,6.7a14.77,14.77,0,0,0-.1-2.1Z"/><path class="cls-12" d="M353.53,166.1a28.62,28.62,0,0,0,10-1.9,29.12,29.12,0,0,0,8.2-4.7V154a25.75,25.75,0,0,1-8.9,5.2,27.15,27.15,0,0,1-9.4,1.4Z"/><path class="cls-12" d="M353.53,411.3a28.62,28.62,0,0,0,10-1.9,29.12,29.12,0,0,0,8.2-4.7v-5.5a25.75,25.75,0,0,1-8.9,5.2,27.15,27.15,0,0,1-9.4,1.4Z"/><path class="cls-13" d="M227.73,372.6l112.2,65.1a10.07,10.07,0,0,0,13.7-3.6,9.93,9.93,0,0,0,1.4-5V137.7a32.55,32.55,0,0,0-16.3-28.2L226.53,44.3a10.07,10.07,0,0,0-15.1,8.6V344.3A32.8,32.8,0,0,0,227.73,372.6Z"/><path class="cls-14" d="M226.43,373.1l112.2,65.1a10.07,10.07,0,0,0,15.1-8.6V138.2a32.55,32.55,0,0,0-16.3-28.2L225.23,44.8a10.07,10.07,0,0,0-13.7,3.6,9.93,9.93,0,0,0-1.4,5V344.8A32.59,32.59,0,0,0,226.43,373.1Z"/><path class="cls-15" d="M218.53,321l127.3,73.9a.53.53,0,0,0,.7-.2.35.35,0,0,1,.1-.2V151.1a2.77,2.77,0,0,0-1.3-2.3L217.93,74.9a.48.48,0,0,0-.6.2.35.35,0,0,1-.1.2V318.7A2.65,2.65,0,0,0,218.53,321Z"/><path class="cls-16" d="M267.83,372.9a9,9,0,0,1,2.2-6.5c2.1-1,4.8-.8,7.9,1,6.4,3.7,11.6,12.7,11.6,20.1a9.43,9.43,0,0,1-2.1,6.5c-2.1,1-4.8.8-7.9-1C273,389.3,267.83,380.3,267.83,372.9Z"/><path class="cls-13" d="M268.23,90.7l27.3,15.9a2.08,2.08,0,0,0,2.8-.7h0a1.93,1.93,0,0,0,.3-1h0a5.88,5.88,0,0,0-3-5.2l-27.3-15.9a2.08,2.08,0,0,0-2.8.7h0a1.93,1.93,0,0,0-.3,1h0A6,6,0,0,0,268.23,90.7Z"/><path class="cls-17" d="M269.23,373.8a7.91,7.91,0,0,1,1.9-5.7c1.8-.9,4.2-.7,6.9.8,5.6,3.2,10.1,11.1,10.1,17.5a7.91,7.91,0,0,1-1.9,5.7c-1.8.9-4.2.7-6.9-.8C273.73,388.1,269.23,380.3,269.23,373.8Z"/><path class="cls-15" d="M218.53,321l127.3,73.9a.53.53,0,0,0,.7-.2.35.35,0,0,1,.1-.2V151.1a2.77,2.77,0,0,0-1.3-2.3L217.93,74.9a.48.48,0,0,0-.6.2.35.35,0,0,1-.1.2V318.7A2.65,2.65,0,0,0,218.53,321Z"/><path class="cls-18" d="M214.73,325.3,343.53,400a.48.48,0,0,0,.6-.2.35.35,0,0,1,.1-.2V153.5a2.65,2.65,0,0,0-1.3-2.3L214.13,76.5a.48.48,0,0,0-.6.2.35.35,0,0,1-.1.2V323A2.65,2.65,0,0,0,214.73,325.3Z"/><path class="cls-19" d="M210.93,329.6l130.2,75.5a.48.48,0,0,0,.6-.2.35.35,0,0,1,.1-.2V155.9a2.53,2.53,0,0,0-1.3-2.3L210.33,78a.53.53,0,0,0-.7.2.35.35,0,0,1-.1.2V327.3A2.82,2.82,0,0,0,210.93,329.6Z"/><path class="cls-20" d="M207.13,334l131.6,76.4a.53.53,0,0,0,.7-.2.35.35,0,0,1,.1-.2V158.3a2.69,2.69,0,0,0-1.4-2.4L206.53,79.5a.53.53,0,0,0-.7.2h0a.35.35,0,0,1-.1.2V331.5A3.19,3.19,0,0,0,207.13,334Z"/><path class="cls-20" d="M207.13,334l131.6,76.4a.53.53,0,0,0,.7-.2.35.35,0,0,1,.1-.2V158.3a2.69,2.69,0,0,0-1.4-2.4L206.53,79.5a.53.53,0,0,0-.7.2h0a.35.35,0,0,1-.1.2V331.5A3.19,3.19,0,0,0,207.13,334Z"/><path class="cls-20" d="M243.43,249.7a5.76,5.76,0,0,1,2.9,5.3,4.58,4.58,0,0,1-2.4,4.3c-1.2.8-1.5,1.3-1.5,2v.3l3.7,2.1v2l-5.7-3.3v-1.8a3.45,3.45,0,0,1,2-3.4,3.37,3.37,0,0,0,1.9-3.4c0-1.3-.4-1.9-1-2.2s-1-.2-1,.8v1.5l-1.9-1.1v-1.4C240.53,249.4,241.53,248.6,243.43,249.7Z"/><path class="cls-4" d="M255.13,244.6l-23.4-13.5c-2.6-1.5-4.8-.3-4.8,2.7l-.1,27.3a8.53,8.53,0,0,0,.8,3.5.1.1,0,0,0,.1.1v.1c0,.1.1.1.1.2a9.34,9.34,0,0,0,3.8,4.3l3.3,1.9.2.1.2.1,4.9,2.8,14.8,8.6c2.7,1.5,4.8.3,4.8-2.8V252.7A9.94,9.94,0,0,0,255.13,244.6Zm-9,21.2-.4-.2-5.1-3-.1-.1h0v-1.8a4.67,4.67,0,0,1,.3-1.7,497582161916.08,497582161916.08,0,0,1,.2-.2,5.36,5.36,0,0,1,1.5-1.5,3.45,3.45,0,0,0,1.9-3.4c0-1.3-.4-1.9-1-2.2s-1-.2-1,.8V254l-1.9-1.1v-1.4c0-2.3,1-3,2.9-1.9a5.76,5.76,0,0,1,2.9,5.3,4.58,4.58,0,0,1-2.4,4.3c-1.2.8-1.5,1.3-1.5,2v.3l3.7,2.1Z"/><path class="cls-20" d="M245.33,198.6v14.3l-2-1.1V200.9l-1.5-.9v-1.6c1.5.9,1.9.2,2.2-.6Z"/><path class="cls-4" d="M255.33,192.3l-23.4-13.5c-2.6-1.5-4.8-.3-4.8,2.8l-.1,27.3a10.5,10.5,0,0,0,4.8,8.3l23.4,13.5c2.7,1.5,4.8.3,4.8-2.7l.1-27.3A10.64,10.64,0,0,0,255.33,192.3Zm-10,20.6-2-1.1V200.9l-1.5-.9v-1.6c1.5.9,1.9.2,2.2-.6l1.3.8Z"/><path class="cls-4" d="M255,296l-23.4-13.5c-2.7-1.5-4.8-.3-4.8,2.7l-.1,27.3a10.5,10.5,0,0,0,4.8,8.3l23.4,13.5c2.7,1.5,4.8.3,4.8-2.8l.1-27.3A10.75,10.75,0,0,0,255,296Zm-8.8,10.8c0,1.5-.4,2.2-1.4,2.1h0a5.75,5.75,0,0,1,1.4,3.8v1.1c0,2.3-1,3-2.9,1.9a5.76,5.76,0,0,1-2.9-5.3v-1.2l1.9,1.1v1.3a2,2,0,0,0,1,2c.6.4,1,.2,1-1v-1.1A2.47,2.47,0,0,0,243,309l-.6-.4v-2.1l.8.4c.7.4,1.2.3,1.2-.8v-.8c0-1.3-.4-1.9-1-2.2s-1-.2-1,.8v.9l-1.9-1.1V303c0-2.3,1-3,2.9-1.9a5.76,5.76,0,0,1,2.9,5.3Z"/><path class="cls-20" d="M243.33,301.1a5.76,5.76,0,0,1,2.9,5.3v.4c0,1.5-.4,2.2-1.4,2.1v.1a5.75,5.75,0,0,1,1.4,3.8v1.1c0,2.3-1,3-2.9,1.9a5.76,5.76,0,0,1-2.9-5.3v-1.2l1.9,1.1v1.3a2,2,0,0,0,1,2c.6.4,1,.2,1-1v-1.1A2.63,2.63,0,0,0,243,309l-.6-.4v-2.1l.8.4c.7.4,1.2.3,1.2-.8v-.8c0-1.3-.4-1.9-1-2.2s-1-.2-1,.8v.9l-1.9-1.1V303C240.43,300.7,241.43,300,243.33,301.1Z"/><path class="cls-21" d="M272.63,210.9,271,210v7.7l1.1.6v-2.9l.5.3c1,.6,1.6.2,1.6-1v-1A2.76,2.76,0,0,0,272.63,210.9Zm.5,3.3c0,.5-.2.6-.5.4l-.5-.3v-2.6l.5.3a.88.88,0,0,1,.5,1Z"/><path class="cls-21" d="M277.83,220.7v-1.2a2.49,2.49,0,0,0-.7-2c.5,0,.7-.4.7-1.2v-.6a3,3,0,0,0-1.6-2.7l-1.6-.9v7.7l1.1.6v-3.2l.4.2a1.34,1.34,0,0,1,.7,1.4V220a3.4,3.4,0,0,0,.1,1l1.1.6A1.34,1.34,0,0,1,277.83,220.7Zm-1-4.7c0,.6-.2.7-.6.4l-.4-.2v-2.4l.5.3a1,1,0,0,1,.5,1.1Z"/><polygon class="cls-21" points="281.43 216 281.43 217.1 279.63 216 279.63 218.2 281.03 219 281.03 220.1 279.63 219.3 279.63 221.5 281.43 222.6 281.43 223.7 278.53 222 278.53 214.3 281.43 216"/><path class="cls-21" d="M283.53,217.1a3,3,0,0,1,1.5,2.8v.2l-1-.6v-.3a1.27,1.27,0,0,0-.5-1.1c-.3-.2-.5-.1-.5.5a4,4,0,0,0,.9,2.2c.9,1.4,1.2,2.2,1.1,3.1,0,1.2-.5,1.6-1.6,1a3.31,3.31,0,0,1-1.6-2.8v-.5l1,.6v.6a1.61,1.61,0,0,0,.5,1.1c.3.2.6.1.6-.4a4.27,4.27,0,0,0-.9-2.2,5.54,5.54,0,0,1-1.2-3.1C281.93,216.9,282.53,216.5,283.53,217.1Z"/><path class="cls-21" d="M287.13,219.1a3,3,0,0,1,1.5,2.8v.2l-1-.6v-.3a1.61,1.61,0,0,0-.5-1.1c-.3-.2-.5-.1-.5.5a4,4,0,0,0,.9,2.2c.9,1.4,1.2,2.2,1.1,3.1,0,1.2-.5,1.6-1.6,1a3.31,3.31,0,0,1-1.6-2.8v-.5l1,.6v.6a1.61,1.61,0,0,0,.5,1.1c.3.2.6.1.6-.4a4.27,4.27,0,0,0-.9-2.2,5.54,5.54,0,0,1-1.2-3.1C285.53,219,286.13,218.6,287.13,219.1Z"/><path class="cls-21" d="M293.33,222.8v7.7l-1.1-.6V224l-.8-.5v-.8c.8.5,1,.1,1.2-.3Z"/><polygon class="cls-21" points="273.83 224.8 273.83 225.9 272.13 224.9 272.13 227.2 273.43 228 273.43 229.1 272.13 228.4 272.13 231.5 271.03 230.9 271.03 223.2 273.83 224.8"/><path class="cls-21" d="M275.83,225.9c-1-.6-1.6-.2-1.6,1v4a3.36,3.36,0,0,0,1.6,2.9c1,.6,1.6.2,1.6-1v-4A3,3,0,0,0,275.83,225.9Zm.6,6.4c0,.5-.2.6-.6.4a1,1,0,0,1-.5-1.1v-4.2c0-.5.2-.6.5-.4a1,1,0,0,1,.5,1.1v4.2Z"/><path class="cls-21" d="M281.33,235.9v-1.2a3.14,3.14,0,0,0-.7-2.1c.5,0,.7-.4.7-1.2v-.6a2.86,2.86,0,0,0-1.6-2.7l-1.6-.9v7.7l1,.6v-3.1l.4.2a1.34,1.34,0,0,1,.7,1.4v1.2a3.4,3.4,0,0,0,.1,1l1.1.6A1.25,1.25,0,0,1,281.33,235.9Zm-1.1-4.7c0,.6-.2.7-.6.5l-.4-.2V229l.5.3a1,1,0,0,1,.5,1.1Z"/><path class="cls-21" d="M284.93,231.1a3,3,0,0,1,1.5,2.8v.2l-1-.6v-.3a1.61,1.61,0,0,0-.5-1.1c-.3-.2-.5-.1-.5.5a4,4,0,0,0,.9,2.2c.9,1.4,1.2,2.2,1.1,3.1,0,1.2-.5,1.6-1.6,1a3.31,3.31,0,0,1-1.6-2.8v-.5l1,.6v.6a1.43,1.43,0,0,0,.5,1.1c.3.2.5.1.6-.4s-.2-1.1-.9-2.2a5.54,5.54,0,0,1-1.2-3.1C283.33,230.9,283.93,230.5,284.93,231.1Z"/><path class="cls-21" d="M289.43,233.8l-1.6-.9-1.1,7.1,1,.6.2-1.3,1.3.7.2,1.5,1.1.6Zm-1.3,4.5.5-3.6h0l.5,4.2Z"/><polygon class="cls-21" points="292.03 235.3 292.03 241.9 293.73 243 293.73 244.1 290.93 242.4 291.03 234.7 292.03 235.3"/><polygon class="cls-21" points="297.13 238.3 297.13 239.4 295.33 238.3 295.33 240.5 296.73 241.3 296.73 242.4 295.33 241.6 295.33 243.8 297.13 244.9 297.13 246 294.23 244.3 294.23 236.6 297.13 238.3"/><path class="cls-21" d="M299.23,239.4a3,3,0,0,1,1.5,2.8v.2l-1-.6v-.3a1.61,1.61,0,0,0-.5-1.1c-.3-.2-.5-.1-.5.5a4,4,0,0,0,.9,2.2,5.54,5.54,0,0,1,1.2,3.1c0,1.2-.5,1.6-1.6,1a3.31,3.31,0,0,1-1.6-2.8v-.5l1,.6v.6a1.61,1.61,0,0,0,.5,1.1c.3.2.5.1.5-.4a4.27,4.27,0,0,0-.9-2.2,5.54,5.54,0,0,1-1.2-3.1C297.63,239.2,298.13,238.8,299.23,239.4Z"/><path class="cls-21" d="M272.53,263.1l-1.6-.9v7.7l1.1.6v-2.9l.5.3c1,.6,1.6.2,1.6-1v-1A3.31,3.31,0,0,0,272.53,263.1Zm0,3.8-.2-.1-.3-.2V264l.5.3a.88.88,0,0,1,.5,1v1.2a.76.76,0,0,1-.1.4c0,.1-.2.1-.4,0Z"/><path class="cls-21" d="M277.73,272.9v-1.2a3.14,3.14,0,0,0-.7-2.1c.5,0,.7-.4.7-1.2v-.6a2.77,2.77,0,0,0-.1-.9,2.83,2.83,0,0,0-1.4-1.8l-1.6-.9v7.7l1.1.6v-3.1l.4.2a1.34,1.34,0,0,1,.7,1.4v1.2a3.4,3.4,0,0,0,.1,1l1.1.6C277.73,273.6,277.73,273.3,277.73,272.9Zm-1.1-4.7c0,.6-.2.7-.6.5l-.4-.2V266l.5.3a1.47,1.47,0,0,1,.5.6.75.75,0,0,1,.1.5Z"/><polygon class="cls-21" points="281.33 268.2 281.33 269.3 279.43 268.3 279.43 270.4 280.93 271.3 280.93 272.4 279.43 271.5 279.43 273.8 281.33 274.8 281.23 275.9 278.43 274.3 278.43 266.6 281.33 268.2"/><path class="cls-21" d="M283.33,269.3a3,3,0,0,1,1.5,2.8v.2l-1-.6v-.3a1.61,1.61,0,0,0-.5-1.1c-.3-.2-.5-.1-.5.5a4,4,0,0,0,.9,2.2,5.27,5.27,0,0,1,1.1,3.1c0,1.2-.5,1.6-1.6,1a3.31,3.31,0,0,1-1.6-2.8v-.5l1,.6v.6a1.61,1.61,0,0,0,.5,1.1c.3.2.5.1.5-.4a4,4,0,0,0-.9-2.2c-.9-1.4-1.2-2.2-1.1-3.1C281.83,269.1,282.33,268.7,283.33,269.3Z"/><path class="cls-21" d="M286.93,271.4a3,3,0,0,1,1.5,2.8v.2l-1-.6v-.3a1.61,1.61,0,0,0-.5-1.1c-.3-.2-.5-.1-.5.5a4.27,4.27,0,0,0,.9,2.2,5.27,5.27,0,0,1,1.1,3.1c0,1.2-.5,1.6-1.6,1a3.31,3.31,0,0,1-1.6-2.8V276l1,.6v.6a1.61,1.61,0,0,0,.5,1.1c.3.2.5.1.5-.4a4.27,4.27,0,0,0-.9-2.2c-.9-1.4-1.2-2.2-1.1-3.1C285.43,271.2,285.93,270.8,286.93,271.4Z"/><path class="cls-21" d="M292.23,274.4a3.36,3.36,0,0,1,1.6,2.9,2.36,2.36,0,0,1-1.3,2.3c-.6.4-.8.7-.8,1.1v.2l2,1.2v1.1l-3.1-1.8v-1a2,2,0,0,1,1.1-1.9,1.75,1.75,0,0,0,1-1.8,1.15,1.15,0,0,0-.5-1.2c-.3-.2-.6-.1-.6.4v.8l-1-.6v-.7C290.63,274.2,291.13,273.8,292.23,274.4Z"/><polygon class="cls-21" points="273.73 277.1 273.73 278.2 271.93 277.2 271.93 279.5 273.33 280.3 273.33 281.4 271.93 280.6 271.93 283.8 270.93 283.2 270.93 275.5 273.73 277.1"/><path class="cls-21" d="M275.73,278.2c-1-.6-1.6-.2-1.6,1v4a3.36,3.36,0,0,0,1.6,2.9c1,.6,1.6.2,1.6-1v-4A3.13,3.13,0,0,0,275.73,278.2Zm.5,6.3c0,.6-.2.6-.6.4a1,1,0,0,1-.5-1.1v-4.2c0-.6.2-.6.5-.4a1.15,1.15,0,0,1,.6,1.1Z"/><path class="cls-21" d="M281.13,288.2V287a2.88,2.88,0,0,0-.7-2c.5,0,.7-.4.7-1.2v-.6a2.77,2.77,0,0,0-1.5-2.7l-1.6-.9v7.7l1.1.6v-3.2l.4.2a1.34,1.34,0,0,1,.7,1.4v1.2a3.4,3.4,0,0,0,.1,1l1.1.6A1.4,1.4,0,0,1,281.13,288.2Zm-1-4.8c0,.6-.2.7-.6.4l-.4-.2v-2.4l.5.3a1,1,0,0,1,.5,1.1Z"/><path class="cls-21" d="M284.73,283.4a3,3,0,0,1,1.5,2.8v.2l-1-.6v-.3a1.61,1.61,0,0,0-.5-1.1c-.3-.2-.5-.1-.5.5a4.27,4.27,0,0,0,.9,2.2,5.54,5.54,0,0,1,1.2,3.1c0,1.2-.5,1.6-1.6,1a3.31,3.31,0,0,1-1.6-2.8v-.5l1,.6v.6a1.43,1.43,0,0,0,.5,1.1c.3.2.5.1.5-.4a4.27,4.27,0,0,0-.9-2.2c-.9-1.4-1.2-2.2-1.1-3.1C283.23,283.2,283.73,282.8,284.73,283.4Z"/><path class="cls-21" d="M290,286.5v5.9c0,1.2-.5,1.6-1.6,1a3.36,3.36,0,0,1-1.6-2.9v-5.9l1.1.6v5.9a1.61,1.61,0,0,0,.5,1.1c.3.2.5.1.5-.4V286Z"/><path class="cls-21" d="M292.33,287.8l-1.5-.9v7.7l1.1.6v-2.9l.5.3c1.1.6,1.6.2,1.6-1v-1A3.67,3.67,0,0,0,292.33,287.8Zm.5,3.3c0,.6-.2.6-.5.4l-.5-.3v-2.6l.5.3a.88.88,0,0,1,.5,1Z"/><path class="cls-21" d="M295.93,289.9l-1.5-.9v7.7l1.1.6v-2.9l.5.3c1.1.6,1.6.2,1.6-1v-1A3.67,3.67,0,0,0,295.93,289.9Zm.5,3.3c0,.6-.2.6-.5.4l-.5-.3v-2.6l.5.3a.88.88,0,0,1,.5,1Z"/><path class="cls-21" d="M299.53,291.9c-1-.6-1.6-.2-1.6,1v4a3.36,3.36,0,0,0,1.6,2.9c1,.6,1.6.2,1.6-1v-4A3.36,3.36,0,0,0,299.53,291.9Zm.5,6.3c0,.6-.2.6-.6.4a1,1,0,0,1-.5-1.1v-4.2c0-.5.2-.6.6-.4a1,1,0,0,1,.5,1.1Z"/><path class="cls-21" d="M304.93,301.9v-1.2a2.49,2.49,0,0,0-.7-2c.5,0,.7-.4.7-1.2v-.6a2.86,2.86,0,0,0-1.6-2.7l-1.6-.9V301l1,.6v-3.2l.4.2a1.34,1.34,0,0,1,.7,1.4v1.2a3.4,3.4,0,0,0,.1,1l1.1.6A2.48,2.48,0,0,1,304.93,301.9Zm-1.1-4.7c0,.6-.2.7-.6.4l-.4-.2V295l.5.3a1,1,0,0,1,.5,1.1Z"/><polygon class="cls-21" points="308.63 297.2 308.63 298.3 307.53 297.7 307.53 304.3 306.43 303.7 306.43 297.1 305.33 296.5 305.33 295.4 308.63 297.2"/><path class="cls-21" d="M272.33,313.7l-1.6-.9v7.7l1.1.6v-2.9l.5.3c1,.6,1.6.2,1.6-1v-1A2.76,2.76,0,0,0,272.33,313.7Zm.5,3.3c0,.6-.2.6-.5.4l-.5-.3v-2.6l.5.3a.88.88,0,0,1,.5,1Z"/><path class="cls-21" d="M277.53,323.5v-1.2a2.7,2.7,0,0,0-.7-2.1c.5,0,.7-.4.7-1.2v-.6a3,3,0,0,0-1.6-2.7l-1.6-.9v7.7l1.1.6V320l.4.2a1.34,1.34,0,0,1,.7,1.4v1.2a3.4,3.4,0,0,0,.1,1l1.1.6A2.39,2.39,0,0,1,277.53,323.5Zm-1-4.8c0,.6-.2.7-.6.4l-.4-.2v-2.4l.5.3a1,1,0,0,1,.5,1.1Z"/><polygon class="cls-21" points="281.13 318.8 281.13 319.8 279.33 318.8 279.33 320.9 280.73 321.8 280.73 322.9 279.33 322 279.33 324.3 281.13 325.4 281.13 326.5 278.23 324.8 278.33 317.1 281.13 318.8"/><path class="cls-21" d="M283.23,319.9a3,3,0,0,1,1.5,2.8v.2l-1-.6V322a1.61,1.61,0,0,0-.5-1.1c-.3-.2-.5-.1-.5.5a4,4,0,0,0,.9,2.2c.9,1.4,1.2,2.2,1.1,3.1,0,1.2-.5,1.6-1.6,1a3.31,3.31,0,0,1-1.6-2.8v-.5l1,.6v.5a1.61,1.61,0,0,0,.5,1.1c.3.2.6.1.6-.4a4.27,4.27,0,0,0-.9-2.2,5.54,5.54,0,0,1-1.2-3.1C281.63,319.7,282.23,319.3,283.23,319.9Z"/><path class="cls-21" d="M286.83,321.9a3,3,0,0,1,1.5,2.8v.2l-1-.6V324a1.61,1.61,0,0,0-.5-1.1c-.3-.2-.5-.1-.5.5a4.27,4.27,0,0,0,.9,2.2,5.54,5.54,0,0,1,1.2,3.1c0,1.2-.5,1.6-1.6,1a3.31,3.31,0,0,1-1.6-2.8v-.5l1,.6v.5a1.61,1.61,0,0,0,.5,1.1c.3.2.6.1.6-.4a4.27,4.27,0,0,0-.9-2.2,5.54,5.54,0,0,1-1.2-3.1C285.23,321.7,285.83,321.3,286.83,321.9Z"/><path class="cls-21" d="M292,324.9a3.31,3.31,0,0,1,1.6,2.8v.2c0,.8-.2,1.2-.7,1.1h0a2.61,2.61,0,0,1,.7,2v.6c0,1.2-.5,1.6-1.6,1a3.31,3.31,0,0,1-1.6-2.8v-.6l1,.6v.7a1.43,1.43,0,0,0,.5,1.1c.3.2.5.1.5-.6v-.6a1.34,1.34,0,0,0-.7-1.4l-.4-.2v-1.1l.4.2c.4.2.6.2.6-.5V327a1.25,1.25,0,0,0-.5-1.2c-.3-.2-.6-.1-.6.4v.5l-1-.6V326C290.43,324.7,290.93,324.3,292,324.9Z"/><polygon class="cls-21" points="273.53 327.6 273.53 328.7 271.83 327.7 271.83 330 273.13 330.8 273.13 331.9 271.83 331.1 271.83 334.3 270.73 333.7 270.73 326 273.53 327.6"/><path class="cls-21" d="M275.63,328.7c-1-.6-1.6-.2-1.6,1v4a3.36,3.36,0,0,0,1.6,2.9c1,.6,1.6.2,1.6-1v-4A3.36,3.36,0,0,0,275.63,328.7Zm.5,6.3c0,.5-.2.6-.6.4a1,1,0,0,1-.5-1.1v-4.2c0-.5.2-.6.5-.4a1,1,0,0,1,.5,1.1V335Z"/><path class="cls-21" d="M281,338.7v-1.2a3.14,3.14,0,0,0-.7-2.1c.5,0,.7-.4.7-1.2v-.6a2.86,2.86,0,0,0-1.6-2.7l-1.6-.9v7.7l1,.6v-3.2l.4.2a1.34,1.34,0,0,1,.7,1.4v1.2a3.4,3.4,0,0,0,.1,1l1.1.6A1.72,1.72,0,0,1,281,338.7Zm-1.1-4.7c0,.6-.2.7-.6.5l-.4-.2v-2.4l.5.3a1,1,0,0,1,.5,1.1Z"/><path class="cls-21" d="M285.63,338.2h0c.5,0,.7-.3.7-1.1v-.3a2.86,2.86,0,0,0-1.6-2.7l-1.6-.9v7.7l1.7,1c1.1.6,1.6.3,1.6-.9v-.6A2.65,2.65,0,0,0,285.63,338.2Zm-1.4-3.3.5.3a1,1,0,0,1,.5,1.1v.4c0,.6-.2.7-.6.5l-.4-.2Zm1.2,5.4c0,.6-.2.6-.6.4l-.6-.3V338l.5.3a1.2,1.2,0,0,1,.6,1.3Z"/><polygon class="cls-21" points="288.13 336 288.13 343.8 287.13 343.2 287.13 335.4 288.13 336"/><polygon class="cls-21" points="290.03 337.1 289.93 343.7 291.73 344.7 291.73 345.8 288.93 344.2 288.93 336.5 290.03 337.1"/><polygon class="cls-21" points="293.23 339 293.23 345.6 294.93 346.6 294.93 347.7 292.13 346.1 292.23 338.4 293.23 339"/><polygon class="cls-21" points="296.53 340.9 296.43 348.6 295.43 348 295.43 340.2 296.53 340.9"/><polygon class="cls-21" points="300.63 343.2 300.53 350.9 299.53 350.3 298.23 344 298.23 344 298.13 349.6 297.23 349 297.23 341.3 298.53 342.1 299.63 347.3 299.63 347.3 299.63 342.7 300.63 343.2"/><path class="cls-21" d="M302.83,344.4a3.31,3.31,0,0,1,1.6,2.8v.7l-1-.6v-.8a1.61,1.61,0,0,0-.5-1.1c-.3-.2-.5-.1-.6.4V350a1.61,1.61,0,0,0,.5,1.1c.3.2.6.1.6-.4v-1.4l-.5-.3v-1l1.5.9v2.4c0,1.2-.5,1.6-1.6,1a3.31,3.31,0,0,1-1.6-2.8v-4C301.23,344.2,301.83,343.9,302.83,344.4Z"/><polygon class="cls-21" points="272.53 159.6 272.53 172.9 270.73 171.9 270.73 158.5 272.53 159.6"/><polygon class="cls-21" points="279.73 163.7 277.93 176 275.13 174.4 273.43 160.1 275.23 161.1 276.63 172.8 276.63 172.8 278.03 162.7 279.73 163.7"/><path class="cls-21" d="M286,179v-2a4.44,4.44,0,0,0-1.2-3.5h0c.8,0,1.2-.6,1.2-2v-1a4.73,4.73,0,0,0-2.7-4.6l-2.8-1.6v13.3l1.8,1v-5.4l.6.3a2.52,2.52,0,0,1,1.2,2.4V178a4.68,4.68,0,0,0,.2,1.7l1.9,1.1A3.72,3.72,0,0,1,286,179Zm-1.8-8.1c0,1.1-.4,1.2-1.1.8l-.7-.4v-4.1l.9.5a1.82,1.82,0,0,1,.9,1.9Z"/><path class="cls-22" d="M246.53,132.4c-9.1-5.3-16.5-1-16.5,9.4s7.3,23.2,16.4,28.4,16.5,1,16.5-9.4S255.63,137.7,246.53,132.4Zm7.6,30.6-.4.2a3.63,3.63,0,0,1-3.7-.4,7.42,7.42,0,0,1-2-1.6,39.88,39.88,0,0,1-9.4-16.3c-.8-2.7-.3-5,1.2-5.9l.4-.2a1.18,1.18,0,0,1,1,.1,3.18,3.18,0,0,1,1,1c.1.2.1.3.2.4l1.7,4.2c.4.9.3,1.8-.2,2l-.6.4c-.2.1-.2.3-.1.6a23,23,0,0,0,4.9,8.4l.2.2a.3.3,0,0,0,.4,0l.6-.4a1.07,1.07,0,0,1,1.1.1,2.7,2.7,0,0,1,.8.7L254,160a1.38,1.38,0,0,1,.3.4c.4,1.2.4,2.2-.2,2.6Z"/><path class="cls-8" d="M241.33,139a3.18,3.18,0,0,1,1,1c.1.2.1.3.2.4l1.7,4.2c.4.9.3,1.8-.2,2l-.6.4c-.2.1-.2.3-.1.6a22.72,22.72,0,0,0,4.8,8.4l.2.2a.3.3,0,0,0,.4,0l.6-.4a1.07,1.07,0,0,1,1.1.1,2.7,2.7,0,0,1,.8.7l2.8,3.5c.1.1.2.3.3.4.5,1,.5,2,0,2.3l-.4.2a3.63,3.63,0,0,1-3.7-.4,10,10,0,0,1-2-1.6,39.88,39.88,0,0,1-9.4-16.3c-.8-2.7-.3-5,1.2-5.9l.4-.2A6.31,6.31,0,0,1,241.33,139Z"/><ellipse class="cls-23" cx="376.43" cy="463.2" rx="19.2" ry="8.8"/><ellipse class="cls-24" cx="368.49" cy="464.26" rx="8.9" ry="15.4" transform="translate(-99.43 828.09) rotate(-89.43)"/><polygon class="cls-24" points="344.23 440.5 351.43 462.7 382.13 463.2 389.13 441.8 344.23 440.5"/><path class="cls-25" d="M379.63,441.4l-7,21.4h0c-1,3.3-1.9,4-4.4,5.5a22.82,22.82,0,0,1-6.3,2.4,23,23,0,0,0,15-2.5c2.5-1.5,4-2.2,4.4-5.4h0l7-21.4Z"/><ellipse class="cls-26" cx="366.89" cy="439.08" rx="13.2" ry="22.8" transform="translate(-74.17 803.59) rotate(-89.69)"/><ellipse class="cls-27" cx="366.89" cy="437.67" rx="13.2" ry="22.8" transform="translate(-72.76 802.18) rotate(-89.69)"/><ellipse class="cls-28" cx="366.65" cy="438.6" rx="11.3" ry="19.6" transform="translate(-73.92 802.87) rotate(-89.69)"/><path class="cls-29" d="M367.53,432c1.9-17.6,16.9-46.7,16.9-46.7-19.3,5.7-20.6,24.9-20.6,24.9Z"/><path class="cls-29" d="M363.13,416.4c2-17.6-6.5-49.2-6.5-49.2,17.6,9.9,14.6,28.8,14.6,28.8Z"/><path class="cls-30" d="M392.73,395.1c-16.1,3.6-25.9,31.9-25.9,31.9v.1c-.6-36-23.3-45.6-23.3-45.6,6.8,9.9,13.2,43.6,15.1,54.4a8.33,8.33,0,0,0,8.5,6.9l.7-.1a8.06,8.06,0,0,0,7-6.7C377.83,421.1,392.73,395.1,392.73,395.1Z"/><ellipse class="cls-31" cx="183.53" cy="427.3" rx="44.7" ry="20"/><path class="cls-32" d="M172.13,248.3l1.4.4s.4,3,.3,2.9S172.13,248.3,172.13,248.3Z"/><path class="cls-33" d="M173.83,252.3l-.6-1.9-.4-11.5,16.8,4.6c-.2.8-1.7,6.3-1.6,8.7a32.7,32.7,0,0,0,.4,4.4Z"/><path class="cls-34" d="M184.23,242l-6-1.7-.9-.3-4.6-1.3.3,8.7v2.8h0v.2l.3.9.3,1,2.3.7,5.7,1.7,6.7,2c-.1-.5-.1-.9-.2-1.4s-.1-1-.2-1.6h0c0-.5-.1-1.1-.1-1.6a14.92,14.92,0,0,1,.2-2.1c0-.2.1-.4.1-.6.1-.5.2-1.1.3-1.6,0-.2.1-.4.1-.6a1.85,1.85,0,0,1,.2-.7v-.1a4.33,4.33,0,0,1,.1-.5,1.42,1.42,0,0,1,.2-.6c.1-.2,0-.2.1-.3a13,13,0,0,1,.3-1.3v-.1a.77.77,0,0,0,.1-.3Zm3.8,8.2a14.92,14.92,0,0,0-.2,2.1,7.57,7.57,0,0,0,.1,1.5h0c0,.5.1,1,.1,1.6,0,.4.1.7.1,1.1l-6.2-1.8-4.3-1.3-3.9-1.2-.2-.8-.1-.4-.2-.6V250h0l-.1-1.4v-1.1l-.3-8.5,4.5,1.3h0l.8.2,6,1.6,5.2,1.4c-.2.6-.6,2.4-1,4.3-.1.5-.2,1.1-.3,1.6a2.08,2.08,0,0,1,0,.8Z"/><path class="cls-35" d="M177.43,240.3c2.3,3.3-.6,5.3-.6,5.3a78.26,78.26,0,0,0,11.5,4c.5-2.8,1.4-6.1,1.4-6.1l-12.4-3.4Z"/><path class="cls-33" d="M176.83,243.9s13.8,6.2,17.1,4c2.6-1.7,3.1-12,2.4-16.5a83.13,83.13,0,0,1-.4-12.2s-13.7.3-17.5,4.6-3.3,11.4-1,14.7A3.74,3.74,0,0,1,176.83,243.9Z"/><path class="cls-33" d="M154.93,319.1l5.1,9.4s6.2-8.1,6.1-8.1-7.4-2.5-7.4-2.5Z"/><path class="cls-34" d="M166.23,320.5h0c-.2-.1-1.3-.5-2.7-1l-.4-.1-.4-.1-.9-.3-1.6-.5h0c-.1,0-.1,0-.2-.1a7.6,7.6,0,0,0-1.1-.4h0l-1,.3-3,.9.3.5,4,7.4.1.2.1.2.7,1.3.1.1.1-.1c1.4-1.8,2.5-3.3,3.3-4.3l.4-.5c.4-.5.7-.9,1-1.3A20.85,20.85,0,0,0,166.23,320.5Zm-6.2,7.9-.8-1.5-.1-.2-.1-.2-3.7-6.9-.3-.6,2.7-.8,1-.3c.4.1.7.3,1.1.4h.2l.1.1c.4.1.8.3,1.3.4l.2.1.4.1.4.1a28.24,28.24,0,0,0,2.7.9l.7.2c-.2.2-.6.9-1.3,1.8l-1,1.3a2.18,2.18,0,0,1-.4.5A28.31,28.31,0,0,1,160,328.4Z"/><path class="cls-33" d="M230.83,281c6.7-3.5,19.3-10.1,19.6-10.2s.3-.1.5-.1a1.28,1.28,0,0,1,1,.4,1.8,1.8,0,0,1,.2,1.6,1.09,1.09,0,0,1-.8.8,65.35,65.35,0,0,0-5.9,3l-.2.1.2.1a2.41,2.41,0,0,1,1,1c.4.8,1.7,4.7,1.6,5.7-.1.6-2.4,1.3-4.2,1.8-.9.3-1.8.5-2.3.7a41.11,41.11,0,0,0-4.2,2.1Z"/><path class="cls-34" d="M251.93,271.2a1.38,1.38,0,0,0-.4-.3,1.45,1.45,0,0,0-.7-.2.9.9,0,0,0-.5.1c-.2.1-4.1,2.1-8.5,4.4l-.5.3-.6.3c-1.8,1-3.7,1.9-5.3,2.7l-1.9,1-2.4,1.3-.5.2.5.5.1.1,4.3,4.6,1.8,1.9.6-.3c.9-.5,1.9-1,2.8-1.4a3,3,0,0,0,.8-.4c1.9-.7,6.6-1.7,6.6-2.6a6.75,6.75,0,0,0-.2-1.4,19.45,19.45,0,0,0-.5-2,11.72,11.72,0,0,0-.9-2.4,2,2,0,0,0-1.1-1.1c.6-.4,1.3-.7,1.9-1.1,1.3-.7,2.6-1.3,3.9-1.9h0C252.53,273.3,252.43,271.7,251.93,271.2Zm.1,1.5a1.21,1.21,0,0,1-.7.7h-.1a41.11,41.11,0,0,0-4.2,2.1c-.5.3-1.1.6-1.6.9l-.4.2.4.1a2,2,0,0,1,1,1,14.27,14.27,0,0,1,.8,2.2c.2.7.4,1.5.6,2.1a5.85,5.85,0,0,1,.2,1.3c-.1.5-2.5,1.2-4.2,1.7-.9.3-1.8.5-2.4.7-.2.1-.5.2-.7.3-.9.4-1.8.9-2.7,1.4-.2.1-.5.3-.7.4l-1.8-2-4-4.3-.4-.4-.2-.2.2-.1,2.6-1.4,1.7-.9,5.3-2.7a9.25,9.25,0,0,1,1-.5l.2-.1c4.5-2.3,8.2-4.3,8.5-4.4.1,0,.3-.1.4-.1a1.27,1.27,0,0,1,.6.1c.1.1.2.1.3.2a2.9,2.9,0,0,1,.3,1.7Z"/><path class="cls-20" d="M169.73,419.1s11.3-3.2,13.8-2,.6,5.9-4.7,8.9-8.1,4.9-10.9,5.6-7.2.8-7.8-1.9-.3-6.1.4-7.3S169.73,419.1,169.73,419.1Z"/><path class="cls-20" d="M194.73,429.9s12.7-3.6,15.4-2.3.6,6.6-5.3,10-9.1,5.4-12.2,6.3-8,.9-8.8-2.2-.4-6.8.5-8.2S194.73,429.9,194.73,429.9Z"/><path class="cls-36" d="M190.73,436.7a13.21,13.21,0,0,1-6.1-1.6c.1-1.9,1.4-47.5,1.4-50,0-2.2-4.9-38.2-5.8-40.1a1.5,1.5,0,0,0-1.4-1,2,2,0,0,0-1.1.3h0v.1c0,.3.7,31.3,0,35.5-.4,2.4-1.7,13.5-2.8,23.3-1,8.1-1.8,15.1-1.9,15.8a5.64,5.64,0,0,1-5.2,4.3,10.87,10.87,0,0,1-1.8.1,13.08,13.08,0,0,1-4.4-.7c.1-2,1.7-40.9,1.7-42.9,0-1.8-.9-26-1.7-29.3a127.13,127.13,0,0,1-2.3-20.8,92.75,92.75,0,0,1,.9-10.6l40.7,4c.1,2.4,2.8,52.3,1.9,61.1-.9,9-5.8,47-5.8,47.4,0,0-.8,4.6-4.9,5.1Z"/><path class="cls-37" d="M202.93,375.8c0-1.8-.1-3.7-.1-5.8h0c-.4-14.6-1.4-35.5-1.8-43.5v-.7c0-.7-.1-1.3-.1-1.7a3.14,3.14,0,0,0-.1-.9l-6.3-.6-31.9-3.2h-1.2l-.9-.1-.5-.1h-.2v.3h0v.1a.9.9,0,0,1-.1.5h0c0,.3-.1.6-.1.9-.2,1.9-.4,3.9-.6,5.8v.4a25.28,25.28,0,0,0-.1,2.8c-.1,3.4.7,10.7,1.4,15.9h0a34,34,0,0,0,.9,4.9,15.17,15.17,0,0,1,.3,2.1c.1,1.2.3,2.8.4,4.5.6,8.3,1,21.2,1,22.7,0,1.3-.7,17.7-1.2,29.9-.2,5.3-.4,9.8-.5,11.9a6.76,6.76,0,0,1-.1,1.2c.2.1.4.1.6.2a9.36,9.36,0,0,0,1.6.4c.6.1,1.1.1,1.7.2h.7a10.87,10.87,0,0,0,1.8-.1,5.74,5.74,0,0,0,5.3-4.4V419a.6.6,0,0,1,.1-.4v-.1c0-.2.1-.4.1-.6.1-1.1.3-2.7.6-4.7l.1-.6c.2-1.4.3-2.9.5-4.5.1-.6.1-1.2.2-1.9v-.3c0-.3.1-.5.1-.8v-.2c0-.2.1-.5.1-.7l.3-2.4.1-.5a14.92,14.92,0,0,0,.2-2.1c0-.3.1-.6.1-.9.1-.5.1-.9.2-1.4l.2-2c.1-.5.1-1,.2-1.5.1-.9.2-1.9.3-2.7.1-.4.1-.9.2-1.3h0c.1-.4.1-.8.2-1.2V388c0-.2.1-.5.1-.7.1-.5.1-1,.2-1.4s.1-.6.1-.9.1-.8.1-1.1c.2-1.7.4-3,.5-3.6.3-1.6.3-7.2.3-13.5v-4.6c0-2.1,0-4.2-.1-6.1h0c-.1-6.3-.2-11.3-.2-11.3a1.93,1.93,0,0,1,1-.3,1.38,1.38,0,0,1,1.3,1,133.67,133.67,0,0,1,2.3,13.2h0c.3,2.1.6,4.3,1,6.6.2,1.7.5,3.4.7,5,1,7.5,1.9,14.1,1.9,15.2s-.3,11.4-.6,22.2c-.3,10.5-.6,21.7-.7,26a14.07,14.07,0,0,1-.1,1.8,7.54,7.54,0,0,0,1.3.6l.1.1a6.89,6.89,0,0,0,.8.3,2.35,2.35,0,0,0,.8.2c.3.1.5.1.8.2l.6.1c.6.1,1.2.1,1.8.2a6.15,6.15,0,0,0,1.3-.1c4.1-.5,4.9-5.2,4.9-5.2s.1-.9.3-2.3c.5-3.9,1.6-12.1,2.6-20.6,1.3-10,2.5-20.3,2.9-24.5.1-.8.1-2,.2-3.5C202.93,379.2,202.93,377.6,202.93,375.8Zm-11,60.8c-.4,0-.8.1-1.2.1a12.78,12.78,0,0,1-4.7-1c-.4-.2-.9-.4-1.3-.6a15.26,15.26,0,0,1,.1-1.8c.1-4.4.4-15.5.7-25.9.3-10.9.6-21.1.6-22.2,0-.9-.8-7.5-1.9-15.1-.2-1.6-.5-3.3-.7-5l-.9-6.6h0c-1-7-2-12.7-2.3-13.4a1.63,1.63,0,0,0-1.5-1.1,1.5,1.5,0,0,0-1.1.4l-.1.1v.1c0,.1.1,5,.2,11.1h0c0,2,.1,4,.1,6.1v4.6c0,6.3,0,12-.3,13.6-.1.5-.2,1.5-.4,2.8-.6,4.5-1.6,12.9-2.5,20.6-.2,1.5-.4,3-.5,4.5-.6,4.8-1,8.8-1.3,10.5a3.22,3.22,0,0,0-.1.8c-.3,1.8-1.9,3.8-5.1,4.2a10.28,10.28,0,0,1-1.7.1,16.66,16.66,0,0,1-4.4-.6h0a5.38,5.38,0,0,1,.1-1.1c.1-2.1.3-6.6.5-11.8.5-12.2,1.2-28.5,1.2-29.8s-.4-14.2-1-22.6c-.1-1.8-.3-3.3-.4-4.5-.1-.8-.2-1.5-.3-2.3-.4-1.6-.6-3.2-.9-4.7h0a138,138,0,0,1-1.5-16c0-.8.1-1.6.1-2.4v-.2h0v-.2a62,62,0,0,1,.6-6.2c0-.3.1-.5.1-.8v-.1h0c0-.2.1-.4.1-.6l.6.1h.5l1.4.1h.8l31,3.1,6.1.6a5.38,5.38,0,0,0,.1,1.1,8.62,8.62,0,0,1,.1,1.7v.7c.4,8.3,1.4,28.7,1.8,43.1h0c.1,2.1.1,4,.1,5.8v4.9c0,1.5-.1,2.7-.1,3.6-.4,4.2-1.7,14.5-2.9,24.5-1.1,8.5-2.1,16.8-2.6,20.7-.2,1.4-.3,2.2-.3,2.2C196.63,431.6,195.83,436.1,191.93,436.6Zm-7.7-66.7c-.2-1.6-.5-3.3-.7-5l-.9-6.6h0c-1-7-2-12.7-2.3-13.4a1.63,1.63,0,0,0-1.5-1.1,1.5,1.5,0,0,0-1.1.4l-.1.1v.1c0,.1.1,5,.2,11.1h0c0,2,.1,4,.1,6.1v4.6c0,6.3,0,12-.3,13.6-.1.5-.2,1.5-.4,2.8-.6,4.5-1.6,12.9-2.5,20.6-.2,1.5-.4,3-.5,4.5h.1c.2-1.4.3-2.9.5-4.4.9-7.4,1.8-15.6,2.4-20.2.2-1.5.3-2.6.4-3.2.3-1.6.3-7.3.3-13.6l.1.1v-4.6c0-2.1,0-4.2-.1-6.1h0c-.1-6.3-.2-11.3-.2-11.3a1.93,1.93,0,0,1,1-.3,1.38,1.38,0,0,1,1.3,1,133.67,133.67,0,0,1,2.3,13.2h0c.3,2.1.6,4.3,1,6.6.2,1.7.5,3.4.7,5l.1.1c1,7.6,1.9,14.2,1.9,15.1,0,1.2-.3,11.3-.6,22.2h.1c.3-10.9.6-21.1.6-22.2s-.9-7.5-1.9-15.2Z"/><g class="cls-38"><path class="cls-37" d="M171.43,345a1.55,1.55,0,0,0-2-.9c-.1.1-.3.1-.4.2s.7,31.3,0,35.5-4.4,37.5-4.8,39.1a5.37,5.37,0,0,1-3,3.7h0a13.47,13.47,0,0,0,6.3.6,5.74,5.74,0,0,0,5.3-4.4c.3-1.4,3-25.8,4.3-35.5C176.43,376.1,172.23,346.6,171.43,345Z"/><path class="cls-37" d="M200.83,323l-40.9-4.1a4.53,4.53,0,0,1-.1.8l32.4,3.2s2.8,52.1,1.9,61.2-5.8,47.4-5.8,47.4a6.77,6.77,0,0,1-2.5,4.2,12.89,12.89,0,0,0,6.1,1c4.1-.5,4.9-5.2,4.9-5.2s5-38.3,5.8-47.4S200.83,323,200.83,323Z"/></g><path class="cls-39" d="M160.43,250.6c3.5-1,6.9-.2,10.5.3,8.2,1.3,27,4.4,30.5,6.1,4.5,2.2,7.4,6.1,8.9,14.7s3.7,16.9,3.7,16.9l19-9.3a7.91,7.91,0,0,1,4.5,3.9,5.74,5.74,0,0,1,0,5.4s-22.5,14.7-25.3,14.9-8.2-5.2-10.6-14.7l-2.4-9.5s1.6,1.5,1.6,8.7-.6,11.2.1,16.4,1.9,12.8,1.5,16.4-2.2,7.9-5.7,8.6c-12,2.5-21.3-.6-27.7-3.1s-9.6-5.8-9.1-7.3,2.9-9.7,2.3-15.9c-.3-2.7-2.5-12.8-2.3-16.8l.2-4.1s-2.8,11.4-2.3,15.2,5,20.7,5,20.7-2.5,2.3-5.1,2.1-3.3-1.1-3.3-1.1-5.4-16.5-6.5-18.7,5.7-43,7.6-46.2A9.87,9.87,0,0,1,160.43,250.6Z"/><path class="cls-40" d="M200.63,304.8c0-4.7.2-9.9.2-14.1v-.9C200.83,294.5,200.63,300.1,200.63,304.8Z"/><path class="cls-41" d="M237.53,283.2a8.59,8.59,0,0,0-4.5-3.9l-19,9.3s-2.2-8.2-3.7-16.9-4.3-12.5-8.9-14.7c-3.5-1.7-22.2-4.8-30.5-6.1-3.5-.6-6.8-1.3-10.2-.4.8.1,1.7.3,2.5.4,8.2,1.3,27,4.4,30.5,6.1,2.5,1.2,1.6,8.1.2,13.9a43.74,43.74,0,0,0-.9,13.5c.1,1.2.2,2.4.2,3.5,0,7.1-.6,11.2.1,16.4s1.9,12.8,1.5,16.4-2.2,7.9-5.7,8.6a40.13,40.13,0,0,1-5,.7,44.33,44.33,0,0,0,12.6-.7c3.5-.7,5.2-5,5.7-8.6s-.8-11.2-1.5-16.4-.1-9.2-.1-16.4a17.72,17.72,0,0,0-.1-2.4c.2,1,.5,2,.8,3.3,2.4,9.5,7.8,14.9,10.6,14.7s25.3-14.9,25.3-14.9A5.47,5.47,0,0,0,237.53,283.2Z"/><path class="cls-41" d="M171.63,252.3v-3.6c0-.4.6-.7.7-.3A4.12,4.12,0,0,0,175,251c3.5,1,5.8-.6,8.4-.9a11.8,11.8,0,0,1,4.4,0,7.16,7.16,0,0,1,3.6,2,9.8,9.8,0,0,1,1.3,2.2.48.48,0,0,1-.2.6h-.3c-1.6-.4-4.9-1.3-5.3-1.3a23.39,23.39,0,0,0-5.8,1.4,10.09,10.09,0,0,1-6.2.2c-2.6-.7-3.2-2.4-3.3-2.9Z"/><path class="cls-37" d="M193.13,432h-.2c0-.4,3.9-44.5,4.4-53.3s-2.9-44.4-2.9-44.8h.2c0,.4,3.5,36,2.9,44.8S193.13,431.5,193.13,432Z"/><path class="cls-37" d="M169.43,416.8h-.2c0-.3,2.9-30.2,3.9-34.5.5-2.3.3-9.6,0-16.8-.2-6.7-.4-13.1,0-15.2.8-4.4,2.1-5.4,2.1-5.4l.1.2s-1.3,1-2.1,5.3c-.4,2.1-.2,8.4,0,15.1.2,7.1.5,14.5,0,16.8C172.33,386.6,169.43,416.5,169.43,416.8Z"/><path class="cls-42" d="M184.23,240.2s.2,4.3-.3,5.6c-1.8,3.9-9,3.3-12.6.7s-.9-5.5-4.5-18.6c-.6-2-1.7-5.7.1-9.1a10.77,10.77,0,0,1,1.8-2.4c4.3-4.3,10.7-4.9,13.7-5.1,0,0,8.1-.7,13.1,2.4.8.5,2.6,1.7,2.7,3.2a8.84,8.84,0,0,1,0,2.3c-.7,2.3-1.3,2.7-4.9,3.2s-4.9,1.9-5.3,4.4a10.24,10.24,0,0,0,.1,3.9c0,.2-.1.5-.4.5h0a.6.6,0,0,1-.4-.1,2.88,2.88,0,0,0-2-.9c-1.8.1-3,.8-2.6,3a5.52,5.52,0,0,0,2.4,3.2,10.93,10.93,0,0,1-.5,1.7A5.22,5.22,0,0,0,184.23,240.2Z"/><path class="cls-41" d="M159.93,319.9l1.6-11.2a12.25,12.25,0,0,0-.2,1.9c-1.4-7-3.2-10.7-3.6-13.2-.5-3.9,2.3-15.2,2.3-15.2s-5.1,4.1-6.1,10,3.6,13.2,3.7,17.8.1,10.2.1,10.2a4.09,4.09,0,0,0,2.2-.3Z"/><path class="cls-43" d="M159.93,289.1l.1-6.9-.2,4.1A26.2,26.2,0,0,0,159.93,289.1Z"/><path class="cls-40" d="M202.43,318.2a1.7,1.7,0,0,1-.1.7c-.5,3.6-2.2,7.9-5.7,8.6-12,2.5-21.3-.6-27.7-3.1-5.4-2-8.4-4.7-9-6.4h0l-.4,2.8c.1,0,.3-.1.4-.1.6,1.7,3.6,4.4,9,6.4,6.5,2.4,15.8,5.6,27.7,3.1,3.5-.7,5.2-5,5.7-8.6A12.92,12.92,0,0,0,202.43,318.2Z"/></g></g></svg>