<svg xmlns="http://www.w3.org/2000/svg" xmlns:xlink="http://www.w3.org/1999/xlink" viewBox="0 0 437.1 432.43"><defs><style>.cls-1{fill:#fff;}.cls-2{fill:#e5edfd;}.cls-3{fill:#060000;}.cls-11,.cls-18,.cls-4,.cls-6,.cls-7,.cls-9{fill:none;stroke-linecap:round;stroke-linejoin:round;}.cls-11,.cls-4,.cls-7,.cls-9{stroke:#fff;}.cls-4{stroke-width:0.76px;}.cls-5{fill:#9bbdf9;}.cls-18,.cls-6{stroke:#000;}.cls-6,.cls-7{stroke-width:1.3px;}.cls-8{fill:#dc761c;}.cls-9{stroke-width:2.14px;}.cls-10{fill:#4479fa;}.cls-11{stroke-width:1.02px;}.cls-12{fill:#200902;}.cls-13{fill:#ecc696;}.cls-14{fill:#3a2222;}.cls-15{fill:#523332;}.cls-16{clip-path:url(#clip-path);}.cls-17{fill:#c7181b;}.cls-18{stroke-width:0.51px;}.cls-19{fill:#467ac9;}</style><clipPath id="clip-path"><path class="cls-1" d="M286,88.2a3.78,3.78,0,0,1,3,3.45c.1,2.85-3,2.65-3,2.65S283.24,90.86,286,88.2Z"/></clipPath></defs><g id="Layer_2" data-name="Layer 2"><g id="OBJECTS"><path class="cls-1" d="M365.9,121s3.1-8.93,12.38-9.16,6,5.49,15.72,4.58,6.19-11.91,21.43-14.21S437.1,121,437.1,121Z"/><path class="cls-1" d="M204.89,14.16s2.31-6.67,9.25-6.85,4.44,4.11,11.73,3.43,4.63-8.9,16-10.61,16.18,14,16.18,14Z"/><path class="cls-1" d="M0,81.46s2.07-6,8.26-6.12,4,3.67,10.49,3.06,4.13-8,14.3-9.48S47.51,81.46,47.51,81.46Z"/><rect class="cls-2" x="70.64" y="42.87" width="198.71" height="389.56" rx="28.47"/><path class="cls-3" d="M240.88,52.62A18.73,18.73,0,0,1,259.6,71.34V404a18.74,18.74,0,0,1-18.72,18.72H99.11A18.74,18.74,0,0,1,80.39,404V71.34A18.74,18.74,0,0,1,99.11,52.62H240.88m0-9.75H99.11A28.47,28.47,0,0,0,70.64,71.34V404a28.47,28.47,0,0,0,28.47,28.46H240.88A28.46,28.46,0,0,0,269.35,404V71.34a28.46,28.46,0,0,0-28.47-28.47Z"/><path class="cls-3" d="M214.35,43.85H125.64V54.17a8.28,8.28,0,0,0,8.28,8.28h72.15a8.28,8.28,0,0,0,8.28-8.28V43.85Z"/><line class="cls-4" x1="153.48" y1="51.58" x2="187.5" y2="51.58"/><rect class="cls-5" x="96.18" y="289.15" width="117.17" height="100.48" rx="7.93"/><rect class="cls-1" x="112.57" y="303.21" width="29.59" height="29.59" rx="3.15"/><line class="cls-6" x1="152.25" y1="312.55" x2="179" y2="312.55"/><line class="cls-6" x1="152.25" y1="322.07" x2="195.38" y2="322.07"/><line class="cls-7" x1="112.57" y1="345.12" x2="142.15" y2="345.12"/><line class="cls-7" x1="112.57" y1="354.95" x2="195.38" y2="354.95"/><line class="cls-7" x1="112.57" y1="365.78" x2="195.38" y2="365.78"/><circle class="cls-8" cx="29.2" cy="139.23" r="23.73" transform="translate(-113.01 135.32) rotate(-76.58)"/><polyline class="cls-9" points="19.64 140.36 27.09 145.88 39.85 132.64"/><rect class="cls-10" x="37.25" y="202.1" width="89.83" height="65.73" rx="5.19"/><path class="cls-1" d="M96,229.62a14.2,14.2,0,1,0-26.43,7.17h0l0,.05a14.48,14.48,0,0,0,1.92,2.54L81.82,253,92.1,239.39A14.27,14.27,0,0,0,94,236.82l0,0h0A14.19,14.19,0,0,0,96,229.62Zm-14.2,6.18a6.25,6.25,0,1,1,6.25-6.25A6.25,6.25,0,0,1,81.82,235.8Z"/><rect class="cls-1" x="93.52" y="91.95" width="152.88" height="100.48" rx="7.93"/><rect class="cls-5" x="106.1" y="115.9" width="25.94" height="25.94" rx="2.76"/><rect class="cls-5" x="139.15" y="115.9" width="25.94" height="25.94" rx="2.76"/><rect class="cls-5" x="172.2" y="115.9" width="25.94" height="25.94" rx="2.76"/><rect class="cls-8" x="205.25" y="115.9" width="25.94" height="25.94" rx="2.76"/><rect class="cls-5" x="106.1" y="150.9" width="25.94" height="25.94" rx="2.76"/><rect class="cls-5" x="139.15" y="150.9" width="25.94" height="25.94" rx="2.76"/><rect class="cls-5" x="172.2" y="150.9" width="25.94" height="25.94" rx="2.76"/><rect class="cls-5" x="205.25" y="150.9" width="25.94" height="25.94" rx="2.76"/><rect class="cls-1" x="146.39" y="202.1" width="100.02" height="65.73" rx="5.19"/><rect class="cls-5" x="158.99" y="209.56" width="76.58" height="14.94" rx="2.76"/><line class="cls-6" x1="159.99" y1="234.29" x2="194.89" y2="234.29"/><line class="cls-6" x1="159.99" y1="242.79" x2="234.57" y2="242.79"/><line class="cls-6" x1="159.99" y1="252.16" x2="234.57" y2="252.16"/><rect class="cls-8" x="231.02" y="310.54" width="64.59" height="57.69" rx="6.31"/><path class="cls-1" d="M276.11,336.88l-2.12-.37a11,11,0,0,0-1.1-2.65l1.24-1.76A1.64,1.64,0,0,0,274,330l-1.28-1.27a1.62,1.62,0,0,0-2.08-.15l-1.77,1.24a11.09,11.09,0,0,0-2.64-1.1l-.36-2.17a1.65,1.65,0,0,0-1.58-1.35h-1.83a1.64,1.64,0,0,0-1.61,1.35l-.37,2.12a11.3,11.3,0,0,0-2.64,1.09L256,328.59a1.64,1.64,0,0,0-2.09.18L252.67,330a1.62,1.62,0,0,0-.18,2.09l1.24,1.77a10.92,10.92,0,0,0-1.1,2.64l-2.11.37a1.64,1.64,0,0,0-1.36,1.61v1.8a1.64,1.64,0,0,0,1.36,1.61l2.11.37a11.09,11.09,0,0,0,1.1,2.64l-1.24,1.76a1.62,1.62,0,0,0,.18,2.09l1.27,1.27a1.62,1.62,0,0,0,2.09.18l1.76-1.23a11,11,0,0,0,2.65,1.09l.37,2.12a1.62,1.62,0,0,0,1.61,1.35h1.82a1.64,1.64,0,0,0,1.61-1.35l.37-2.12a10.89,10.89,0,0,0,2.64-1.09l1.73,1.21a1.62,1.62,0,0,0,2.08-.19l1.28-1.27a1.62,1.62,0,0,0,.18-2.08l-1.24-1.78a11.09,11.09,0,0,0,1.1-2.64l2.12-.38a1.62,1.62,0,0,0,1.35-1.6v-1.8A1.62,1.62,0,0,0,276.11,336.88ZM263.31,345a5.64,5.64,0,1,1,5.63-5.63v0A5.62,5.62,0,0,1,263.31,345Z"/><path class="cls-5" d="M349.78,61.29h40.31a18,18,0,0,0,18.05-18h0a18,18,0,0,0-18.05-18H349.78a18,18,0,0,0-18,18h0A18,18,0,0,0,349.78,61.29Z"/><polygon class="cls-5" points="363.97 57.31 350.89 70.16 348.51 56.36 363.97 57.31"/><path class="cls-1" d="M363.89,37.52a4.76,4.76,0,0,0-6.73.07l-1.22,1.24-1.25-1.23A4.76,4.76,0,0,0,348,44.39L352.65,49l0,0a4.78,4.78,0,0,0,2.6,1.3,4.73,4.73,0,0,0,4.13-1.37L364,44.25A4.76,4.76,0,0,0,363.89,37.52Z"/><line class="cls-11" x1="372.99" y1="39.12" x2="391.54" y2="39.12"/><line class="cls-11" x1="372.99" y1="44.27" x2="382.78" y2="44.27"/><path class="cls-12" d="M312.12,419.28l-11.86,6.53a3.42,3.42,0,0,0-1.63,3.78c.31,1.19,1.32,2.09,4,2.14,5.86.12,31.81-4.2,31.81-4.2v3.73l12.12.06s.76-17.63-2.9-19.88Z"/><path class="cls-13" d="M328,406.31l-15.89,13s2.05,5.87,11.1,2,20.4-9.8,20.4-9.8L342,404.65Z"/><polygon class="cls-13" points="341.96 404.65 343.62 357.57 327.87 356.29 327.87 411.44 341.96 404.65"/><polygon class="cls-14" points="313.92 216.22 320.51 399.56 351.05 399.56 352.61 201.41 313.92 216.22"/><path class="cls-15" d="M317.35,213l15.36,89.33a18.14,18.14,0,0,0,23.75,14.13h0A18.13,18.13,0,0,0,368.66,298l-2.94-40.58c-1.48-13.77,1.94-31.58-13.11-56Z"/><path class="cls-12" d="M398.12,414.78l-6.59,11.83a3.41,3.41,0,0,0,.63,4.06c.89.85,2.23,1.08,4.49-.28,5-3,24.73-20.44,24.73-20.44l2,3.16,10.31-6.37s-8.71-15.36-13-15.32Z"/><path class="cls-13" d="M404.71,395.36l-6.59,19.42s4.85,3.89,10.45-4.23,12.09-19.13,12.09-19.13l-5-4.87Z"/><polygon class="cls-13" points="415.66 386.55 392.08 345.76 378.06 353.03 407.31 399.78 415.66 386.55"/><polygon class="cls-15" points="335 308.57 391.77 393.23 418.23 376.27 363.36 284.16 335 308.57"/><path class="cls-8" d="M292.65,67.92S280,66.28,278.39,78.22c-1.23,8.89,2.86,13.27-.34,20.41s2.8,13.54,2.8,13.54,14.95,6.94,31.18-7.25Z"/><polygon class="cls-13" points="297.55 107.86 304.39 125.64 318.71 121.83 305.49 96.27 297.55 107.86"/><polygon points="300.82 116.36 303.75 103.33 298.42 110.12 300.82 116.36"/><path class="cls-13" d="M291.05,70.6s-8.5,1.79-8.51,12.58c0,0-.4,4.12.14,15.36.38,8,4.13,13.48,11.6,12.72,3.63-.37,7.42-2.58,10.82-5.45l4.76-4.85c11-13.42-.48-33.66-17.57-30.61C291.88,70.42,291.47,70.51,291.05,70.6Z"/><path class="cls-13" d="M283.22,92.27l-3,5.29a.91.91,0,0,0,.56,1.47l3.91.51Z"/><path class="cls-8" d="M303.31,89.13c.31-2.44,2-19.43-10.76-17.24a1.83,1.83,0,0,1-1.28-3.35c4.55-2.84,11.77-4.79,22.22-.77,4.24,1.63,10.08,7.22,10.08,12.71,0,11.78-3.92,17.76-10.83,23.83a.73.73,0,0,1-1.13-.22l-4.45-8.6a.36.36,0,0,1,0-.09c-.49-1.56-3-4.84-3.66-5.75A.7.7,0,0,1,303.31,89.13Z"/><path class="cls-8" d="M294.79,67.72c-16,7.38,7.42,24.94,7.42,24.94h0l6.59-13S297.47,66.49,294.79,67.72Z"/><path d="M284.18,82.42l8.47,2.86a11.08,11.08,0,0,0-4.48-4.18C284.14,79.15,284.18,82.42,284.18,82.42Z"/><path class="cls-1" d="M286,88.2a3.78,3.78,0,0,1,3,3.45c.1,2.85-3,2.65-3,2.65S283.24,90.86,286,88.2Z"/><g class="cls-16"><path d="M286.54,87.46s2.21,4.11-.63,6.84h0l-1.59-.15-.07-4.53Z"/></g><path d="M285.28,87.48a4.79,4.79,0,0,1,1.39.33,4.2,4.2,0,0,1,1.18.72,3.63,3.63,0,0,1,.83,1.08,4.35,4.35,0,0,1,.43,1.24.17.17,0,0,1-.12.2.16.16,0,0,1-.19-.1h0a4.14,4.14,0,0,0-.54-1.07,3,3,0,0,0-.83-.79,3.48,3.48,0,0,0-1-.44,3.43,3.43,0,0,0-1.08-.1h0a.53.53,0,0,1-.58-.48.54.54,0,0,1,.49-.58Z"/><path class="cls-17" d="M283.2,101.05a.86.86,0,0,0-.16,1.7s-1.23,1.25.63,1.67,3.6-2.76,3.6-2.76C285,102.17,284.53,100.84,283.2,101.05Z"/><path class="cls-8" d="M304.5,96.34a71.35,71.35,0,0,1,.17,15s20.19,6.49,29.37-16.49c0,0-5.86-2.26-7.66-7.3s0-22.57-23.6-22.05C302.78,65.49,303.38,88.32,304.5,96.34Z"/><path class="cls-13" d="M312.26,92.52a5.44,5.44,0,1,1-6.07-4.73A5.44,5.44,0,0,1,312.26,92.52Z"/><path class="cls-18" d="M304.5,95.49s.21-4.14,3.63-4.21"/><path class="cls-13" d="M339.66,135.48l33.47,27.11a11,11,0,0,1,.8,15.93h0a11,11,0,0,1-14.95.84l-36.33-28.78Z"/><path class="cls-19" d="M359.74,145.44s-1.43,10.79-20.24,23.18l-25.57-19a15.13,15.13,0,0,1-2.25-22.23h0A15.14,15.14,0,0,1,331,124.64Z"/><path class="cls-13" d="M359.12,179.75l33.21,42.66,8.14-9.55-24.82-47.38a10.94,10.94,0,0,0-16.7-1.06h0A11,11,0,0,0,359.12,179.75Z"/><path class="cls-13" d="M390.39,220.6l-.34,2.13a18.49,18.49,0,0,0,.65,8.58l1.56,4.87a2,2,0,0,0,2.77,1.15h0a2.51,2.51,0,0,0,1.35-2.47l-.51-5.41,10.8,15.28a1.53,1.53,0,0,0,2.27.31l.46-.41a1.51,1.51,0,0,0,.32-1.9l-6.89-10.54,9.59,11a1.53,1.53,0,0,0,2.28.16L415,243a1.51,1.51,0,0,0,.14-2l-7.93-10.21,7.72,6.43a1.53,1.53,0,0,0,2.34-.4l.1-.17a1.53,1.53,0,0,0-.23-1.79l-7.55-7.25,4.74,2.83a1.52,1.52,0,0,0,2.44-.83h0a1.53,1.53,0,0,0-.42-1.44l-19.26-18-3.94,4.5A11.85,11.85,0,0,0,390.39,220.6Z"/><path class="cls-10" d="M314.07,121.29s-13.16-1.28-13.33,22.49,7.35,35.06,13.18,72.44c0,0,22.31-2.74,38.69-14.81C352.61,201.41,353.63,113.87,314.07,121.29Z"/><path class="cls-13" d="M311.41,153.13l-31.12,29.79a11,11,0,0,1-15.9-1.22h0a11,11,0,0,1,1.06-14.94l33.14-32.4Z"/><path class="cls-10" d="M302.93,172s-10.86-.38-22-22.51l21.89-23.15a15.13,15.13,0,0,1,22.34.38h0a15.13,15.13,0,0,1,.44,19.5Z"/><line class="cls-18" x1="305.93" y1="168.6" x2="320.89" y2="151.58"/><path class="cls-13" d="M279.75,167.1l-44.34-33.56-5.82,9.13,35,39.35a10.65,10.65,0,0,0,16.28-.05h0A10.65,10.65,0,0,0,279.75,167.1Z"/><path class="cls-13" d="M241.28,142.81c-1.67,5.62-7.09,5.39-17.75,2.4-5.65-1.58-7.69-5.58-6-11.2a10.62,10.62,0,0,1,13.2-7.14C236.33,128.54,243,137.19,241.28,142.81Z"/><path class="cls-13" d="M232.66,127.67l-13.55-7.88a2,2,0,0,0-2.76.47h0a1.75,1.75,0,0,0,.29,2.36l10.51,8.89Z"/></g></g></svg>