<svg width="1098" height="1112" viewBox="0 0 1098 1112" fill="none" xmlns="http://www.w3.org/2000/svg">
<path d="M786.62 502C925.453 502 1038 389.627 1038 251.008C1038 112.389 925.453 0.015625 786.62 0.015625C647.787 0.015625 535.241 112.389 535.241 251.008C535.241 389.627 647.787 502 786.62 502Z" fill="url(#paint0_linear_442_2)"/>
<path d="M800.478 341.404L793.762 364.472H658.278L664.994 341.404H800.478ZM739.744 502L662.512 411.774L662.366 393.671H697.989C708.306 393.671 716.822 391.968 723.538 388.561C730.351 385.057 735.461 380.337 738.868 374.399C742.274 368.462 743.978 361.795 743.978 354.398C743.978 346.125 742.372 338.874 739.16 332.645C735.948 326.318 730.887 321.403 723.976 317.899C717.163 314.298 708.208 312.497 697.113 312.497H658.57L665.432 289.43H697.113C714.048 289.43 728.015 292.009 739.014 297.167C750.109 302.229 758.382 309.626 763.833 319.359C769.284 329.092 772.009 340.869 772.009 354.69C772.009 366.564 769.722 377.222 765.147 386.663C760.67 396.007 753.224 403.355 742.81 408.708C732.493 414.062 718.574 416.738 701.055 416.738L772.885 500.248V502H739.744ZM800.478 289.43L793.762 312.497H684.557L691.273 289.43H800.478Z" fill="black"/>
<circle cx="728" cy="372" r="288.5" stroke="black" stroke-width="35"/>
<line x1="18.5" y1="613.5" x2="137.5" y2="613.5" stroke="black" stroke-width="37" stroke-linecap="round"/>
<line x1="18.5" y1="1093.5" x2="137.5" y2="1093.5" stroke="black" stroke-width="37" stroke-linecap="round"/>
<line x1="137.5" y1="625.5" x2="137.5" y2="1088.5" stroke="black" stroke-width="37" stroke-linecap="round"/>
<circle cx="52" cy="995" r="26" fill="black"/>
<path d="M224 687H373.467C382.943 687 392.208 689.805 400.092 695.062L543.908 790.938C551.792 796.195 561.057 799 570.533 799H696.078C703.907 799 711.614 800.913 718.533 804.576C725.595 808.315 734.871 813.226 742 817" stroke="black" stroke-width="38" stroke-linecap="round"/>
<path d="M450 874C516.144 885.788 665.789 904.138 743.858 885.066C746.651 884.383 749.306 883.378 751.903 882.143L989.539 769.074C993.823 767.036 998.366 765.594 1003.08 765.108C1046.36 760.644 1107.94 772.099 1063.53 848.952C1060.05 854.979 1054.96 859.934 1049.08 863.667L844 994C782 1036.67 616.4 1100 450 1012L325.124 957.949C319.105 955.344 312.616 954 306.058 954H220" stroke="black" stroke-width="38" stroke-linecap="round"/>
<defs>
<linearGradient id="paint0_linear_442_2" x1="786.62" y1="0.015625" x2="786.62" y2="502" gradientUnits="userSpaceOnUse">
<stop stop-color="#B1FFBE"/>
<stop offset="0.444" stop-color="#5CDB8E"/>
<stop offset="1" stop-color="#149654"/>
</linearGradient>
</defs>
</svg>
