<svg xmlns="http://www.w3.org/2000/svg" xmlns:xlink="http://www.w3.org/1999/xlink" viewBox="0 0 469.74 346.64"><defs><style>.cls-1{isolation:isolate;}.cls-2{fill:#eae8ed;}.cls-3{fill:none;}.cls-4{fill:#9fb3c0;}.cls-5,.cls-8{fill:#b4a8c3;}.cls-6{fill:#61b77c;}.cls-7{fill:#96cba3;}.cls-8{mix-blend-mode:multiply;}.cls-9{fill:#f8b031;}.cls-10{fill:#ffbe2d;}.cls-11{fill:#ffd888;}.cls-12{fill:#e89510;}.cls-13{fill:#fff;}.cls-14{fill:#344e5d;}.cls-15{fill:#596572;}.cls-16{fill:#5a52ff;}.cls-17{fill:#7676ff;}.cls-18{fill:#fbfbfb;opacity:0.69;}.cls-19{fill:#1d5eff;}.cls-20{fill:#2c2cff;}.cls-21{fill:#7976ff;}.cls-22{fill:url(#linear-gradient);}.cls-23{fill:url(#linear-gradient-2);}.cls-24{fill:url(#linear-gradient-3);}.cls-25{fill:#9a80c4;}.cls-26{fill:url(#linear-gradient-4);}.cls-27{fill:#bdaddb;opacity:0.6;}</style><linearGradient id="linear-gradient" x1="315.24" y1="160.84" x2="326.54" y2="160.84" gradientUnits="userSpaceOnUse"><stop offset="0" stop-color="#7c57b8"/><stop offset="1" stop-color="#60438e"/></linearGradient><linearGradient id="linear-gradient-2" x1="295.28" y1="152.8" x2="326.54" y2="152.8" xlink:href="#linear-gradient"/><linearGradient id="linear-gradient-3" x1="298.71" y1="181.25" x2="312.84" y2="181.25" xlink:href="#linear-gradient"/><linearGradient id="linear-gradient-4" x1="290.15" y1="154.27" x2="306.94" y2="154.27" xlink:href="#linear-gradient"/></defs><g class="cls-1"><g id="Layer_2" data-name="Layer 2"><g id="Layer_1-2" data-name="Layer 1"><path class="cls-2" d="M13.06,229.08c3,1.73,3,4.52,0,6.25a11.93,11.93,0,0,1-10.82,0c-3-1.73-3-4.52,0-6.25A11.93,11.93,0,0,1,13.06,229.08Z"/><path class="cls-2" d="M351.93,153.45l3.11.61a1.35,1.35,0,0,0,.75-.07l2.64-1.14c.54-.23,1.32,0,1.31.39l0,1.89c0,.16.12.31.34.4l2.69,1.09c.55.23.42.72-.23.84l-3.14.56a.76.76,0,0,0-.54.32l-1,1.81a1.13,1.13,0,0,1-1.45.13l-1.9-1.55a1.08,1.08,0,0,0-.68-.2l-3.29,0c-.68,0-1.07-.45-.66-.76l2-1.52a.33.33,0,0,0,.12-.44l-1.05-1.79C350.67,153.67,351.28,153.32,351.93,153.45Z"/><path class="cls-2" d="M365.28,145.74l3.11.61a1.38,1.38,0,0,0,.76-.07l2.63-1.14c.55-.23,1.32,0,1.31.39l0,1.9c0,.15.12.3.34.39l2.69,1.09c.55.23.42.73-.23.84l-3.14.57a.72.72,0,0,0-.54.31l-1,1.81a1.13,1.13,0,0,1-1.45.13l-1.9-1.55a1.14,1.14,0,0,0-.68-.2l-3.28,0c-.68,0-1.08-.45-.67-.76l2-1.52a.34.34,0,0,0,.12-.44l-1.06-1.79C364,146,364.64,145.61,365.28,145.74Z"/><path class="cls-2" d="M378.63,138l3.12.61a1.36,1.36,0,0,0,.75-.07l2.63-1.14c.55-.23,1.32,0,1.31.39l0,1.9c0,.15.13.3.35.39l2.68,1.09c.56.23.42.73-.23.84l-3.14.57a.74.74,0,0,0-.54.31l-1,1.81a1.13,1.13,0,0,1-1.45.13l-1.9-1.55a1.17,1.17,0,0,0-.68-.2l-3.29,0c-.68,0-1.07-.44-.67-.76l2-1.52a.33.33,0,0,0,.12-.44l-1.06-1.79C377.37,138.26,378,137.9,378.63,138Z"/><path class="cls-2" d="M392,130.32l3.12.61a1.35,1.35,0,0,0,.75-.07l2.64-1.14c.54-.23,1.32,0,1.31.39l0,1.9c0,.15.12.3.34.39l2.69,1.09c.55.23.41.73-.23.84l-3.14.57a.72.72,0,0,0-.54.31l-1,1.81a1.12,1.12,0,0,1-1.45.13l-1.9-1.55a1.17,1.17,0,0,0-.68-.2l-3.29,0c-.68,0-1.07-.44-.66-.76l2-1.52a.31.31,0,0,0,.12-.43l-1.05-1.8C390.73,130.55,391.34,130.19,392,130.32Z"/><path class="cls-2" d="M405.34,122.61l3.11.61a1.38,1.38,0,0,0,.76-.07l2.63-1.14c.55-.23,1.32,0,1.31.39l0,1.9c0,.15.12.3.34.39l2.69,1.1c.55.22.42.72-.23.83l-3.14.57a.72.72,0,0,0-.54.31l-1,1.81a1.12,1.12,0,0,1-1.45.13l-1.9-1.55a1.14,1.14,0,0,0-.68-.2l-3.28,0c-.68,0-1.08-.44-.67-.76l2-1.52a.32.32,0,0,0,.12-.43l-1.06-1.8C404.08,122.84,404.69,122.48,405.34,122.61Z"/><path class="cls-2" d="M98.58,249.57l3.11.61a1.34,1.34,0,0,0,.75-.07l2.64-1.14c.54-.23,1.32,0,1.31.39l0,1.9c0,.15.12.3.34.39l2.69,1.09c.55.23.42.73-.23.84l-3.14.57a.72.72,0,0,0-.54.31l-1,1.81a1.13,1.13,0,0,1-1.45.13l-1.9-1.55a1.14,1.14,0,0,0-.68-.2l-3.29,0c-.68,0-1.07-.44-.66-.76l2-1.52a.33.33,0,0,0,.12-.44l-1-1.79C97.32,249.8,97.93,249.44,98.58,249.57Z"/><path class="cls-2" d="M111.93,241.86l3.11.61a1.38,1.38,0,0,0,.76-.07l2.63-1.14c.55-.23,1.32,0,1.31.39l0,1.9c0,.15.12.3.35.39l2.68,1.09c.55.23.42.73-.23.84l-3.14.57a.72.72,0,0,0-.54.31l-1,1.81c-.2.38-1,.45-1.45.13l-1.9-1.55a1.14,1.14,0,0,0-.68-.2l-3.28,0c-.68,0-1.08-.44-.67-.76l2-1.52a.32.32,0,0,0,.12-.43l-1.06-1.8C110.67,242.09,111.29,241.73,111.93,241.86Z"/><path class="cls-2" d="M125.28,234.15l3.12.61a1.36,1.36,0,0,0,.75-.07l2.63-1.14c.55-.23,1.32,0,1.31.39l0,1.9c0,.15.13.3.35.39l2.68,1.1c.56.22.42.72-.23.83l-3.14.57a.74.74,0,0,0-.54.31l-1,1.81a1.12,1.12,0,0,1-1.45.13l-1.9-1.55a1.17,1.17,0,0,0-.68-.2l-3.29,0c-.68,0-1.07-.44-.67-.76l2-1.52a.31.31,0,0,0,.12-.43l-1.06-1.8C124,234.38,124.64,234,125.28,234.15Z"/><path class="cls-2" d="M138.64,226.44l3.11.61a1.35,1.35,0,0,0,.75-.07l2.64-1.14c.54-.23,1.32,0,1.31.39l0,1.9c0,.15.12.3.34.39l2.69,1.1c.55.22.41.72-.23.83l-3.14.57a.72.72,0,0,0-.54.31l-1,1.81a1.12,1.12,0,0,1-1.45.13l-1.9-1.55a1.14,1.14,0,0,0-.68-.2l-3.29,0c-.68,0-1.07-.44-.66-.76l2-1.52a.31.31,0,0,0,.12-.43L137.6,227C137.38,226.67,138,226.31,138.64,226.44Z"/><path class="cls-2" d="M152,218.73l3.11.61a1.38,1.38,0,0,0,.76-.07l2.63-1.14c.55-.23,1.32,0,1.31.39l0,1.9c0,.15.12.3.34.39l2.69,1.1c.55.22.42.72-.23.83l-3.14.57a.72.72,0,0,0-.54.31l-1,1.81a1.12,1.12,0,0,1-1.45.14l-1.9-1.56a1.08,1.08,0,0,0-.68-.19l-3.28,0c-.68,0-1.08-.44-.67-.76l2-1.52a.32.32,0,0,0,.12-.43l-1.06-1.8C150.73,219,151.35,218.6,152,218.73Z"/><path class="cls-2" d="M267.32,296l3.12.61a1.27,1.27,0,0,0,.75-.07l2.63-1.13c.55-.24,1.32,0,1.31.38l0,1.9c0,.16.13.3.35.39l2.68,1.1c.56.23.42.72-.23.84l-3.14.56a.78.78,0,0,0-.54.31l-1,1.81a1.12,1.12,0,0,1-1.45.14l-1.9-1.55a1.1,1.1,0,0,0-.68-.2l-3.29,0c-.68,0-1.07-.44-.67-.75l2-1.53a.31.31,0,0,0,.12-.43l-1.06-1.8C266.06,296.18,266.68,295.83,267.32,296Z"/><path class="cls-2" d="M280.68,288.24l3.11.61a1.26,1.26,0,0,0,.75-.07l2.64-1.13c.54-.24,1.32,0,1.31.38l0,1.9c0,.16.12.3.34.39l2.69,1.1c.55.23.42.72-.23.84l-3.14.56a.75.75,0,0,0-.54.31l-1,1.81a1.12,1.12,0,0,1-1.45.14l-1.9-1.55a1.08,1.08,0,0,0-.68-.2l-3.29,0c-.68,0-1.07-.44-.66-.75l2-1.53a.31.31,0,0,0,.12-.43l-1.05-1.8C279.42,288.47,280,288.12,280.68,288.24Z"/><path class="cls-2" d="M294,280.53l3.11.61a1.3,1.3,0,0,0,.76-.07l2.63-1.13c.55-.24,1.32,0,1.31.38l0,1.9c0,.16.12.3.34.39l2.69,1.1c.55.23.42.72-.23.84l-3.14.56a.75.75,0,0,0-.54.31l-1,1.82a1.13,1.13,0,0,1-1.45.13l-1.9-1.55a1.08,1.08,0,0,0-.68-.2l-3.28,0c-.68,0-1.08-.44-.67-.75l2-1.53a.32.32,0,0,0,.12-.43l-1.06-1.8C292.77,280.76,293.39,280.41,294,280.53Z"/><path class="cls-2" d="M307.38,272.82l3.12.61a1.27,1.27,0,0,0,.75-.07l2.63-1.13c.55-.24,1.32,0,1.31.38l0,1.9c0,.16.13.3.35.39l2.68,1.1c.56.23.42.72-.23.84l-3.14.56a.78.78,0,0,0-.54.31l-1,1.82a1.13,1.13,0,0,1-1.45.13l-1.9-1.55a1.1,1.1,0,0,0-.68-.2l-3.29,0c-.68,0-1.07-.44-.67-.75l2-1.52a.33.33,0,0,0,.12-.44l-1.06-1.8C306.12,273.05,306.74,272.7,307.38,272.82Z"/><path class="cls-2" d="M320.73,265.11l3.12.61a1.26,1.26,0,0,0,.75-.07l2.64-1.13c.54-.24,1.32,0,1.31.38l-.05,1.9c0,.16.13.3.35.39l2.69,1.1c.55.23.41.72-.23.84l-3.14.56a.75.75,0,0,0-.54.31l-1,1.82a1.13,1.13,0,0,1-1.45.13l-1.9-1.55a1.1,1.1,0,0,0-.68-.2l-3.29,0c-.68,0-1.07-.44-.66-.75l2-1.52a.33.33,0,0,0,.12-.44l-1.05-1.8C319.48,265.34,320.09,265,320.73,265.11Z"/><path class="cls-2" d="M123.66,209.92,53.14,250.66a9.17,9.17,0,0,1-8.29,0h0c-2.29-1.32-2.29-3.47,0-4.79l70.52-40.74a9.11,9.11,0,0,1,8.29,0h0C126,206.45,126,208.6,123.66,209.92Z"/><path class="cls-2" d="M178.14,178.45,140.88,200a9.19,9.19,0,0,1-8.3,0h0c-2.29-1.33-2.29-3.47,0-4.8l37.27-21.52a9.11,9.11,0,0,1,8.29,0h0C180.44,175,180.44,177.12,178.14,178.45Z"/><path class="cls-2" d="M144.57,176.47,74.05,217.2a9.13,9.13,0,0,1-8.3,0h0c-2.29-1.32-2.29-3.46,0-4.79l70.53-40.74a9.17,9.17,0,0,1,8.29,0h0C146.86,173,146.86,175.14,144.57,176.47Z"/><path class="cls-2" d="M234.75,124.37l-70.52,40.74a9.19,9.19,0,0,1-8.3,0h0c-2.29-1.32-2.29-3.47,0-4.79l70.52-40.74a9.19,9.19,0,0,1,8.3,0h0C237,120.9,237,123.05,234.75,124.37Z"/><path class="cls-2" d="M275.25,143.73l-70.52,40.74a9.19,9.19,0,0,1-8.3,0h0c-2.29-1.33-2.29-3.47,0-4.8L267,138.94a9.11,9.11,0,0,1,8.29,0h0C277.54,140.26,277.54,142.4,275.25,143.73Z"/><path class="cls-2" d="M142.17,220.61l-20.65,11.92a9.11,9.11,0,0,1-8.29,0h0c-2.29-1.32-2.29-3.47,0-4.79l20.64-11.92a9.13,9.13,0,0,1,8.3,0h0C144.46,217.14,144.46,219.28,142.17,220.61Z"/><path class="cls-2" d="M319.15,118.37l-20.64,11.92a9.13,9.13,0,0,1-8.3,0h0c-2.29-1.32-2.29-3.47,0-4.79l20.64-11.92a9.13,9.13,0,0,1,8.3,0h0C321.44,114.9,321.44,117,319.15,118.37Z"/><path class="cls-2" d="M158.6,147,88.08,187.72a9.13,9.13,0,0,1-8.3,0h0c-2.29-1.32-2.29-3.46,0-4.79l70.52-40.74a9.19,9.19,0,0,1,8.3,0h0C160.89,143.52,160.89,145.66,158.6,147Z"/><path class="cls-2" d="M202.5,121.63l-20.64,11.92a9.19,9.19,0,0,1-8.3,0h0c-2.29-1.32-2.29-3.47,0-4.79l20.64-11.93a9.19,9.19,0,0,1,8.3,0h0C204.79,118.16,204.79,120.3,202.5,121.63Z"/><path class="cls-2" d="M127.39,304.91,56.86,345.65a9.17,9.17,0,0,1-8.29,0h0c-2.29-1.33-2.29-3.47,0-4.79l70.52-40.74a9.13,9.13,0,0,1,8.3,0h0C129.68,301.44,129.68,303.58,127.39,304.91Z"/><path class="cls-2" d="M181.87,273.44,144.6,295a9.19,9.19,0,0,1-8.3,0h0c-2.29-1.33-2.29-3.47,0-4.8l37.27-21.53a9.19,9.19,0,0,1,8.3,0h0C184.16,270,184.16,272.11,181.87,273.44Z"/><path class="cls-2" d="M148.29,271.45,77.77,312.19a9.11,9.11,0,0,1-8.29,0h0c-2.29-1.32-2.29-3.47,0-4.79L140,266.66a9.17,9.17,0,0,1,8.29,0h0C150.58,268,150.58,270.13,148.29,271.45Z"/><path class="cls-2" d="M238.47,219.36,168,260.1a9.19,9.19,0,0,1-8.3,0h0c-2.29-1.32-2.29-3.47,0-4.79l70.53-40.74a9.11,9.11,0,0,1,8.29,0h0C240.76,215.89,240.76,218,238.47,219.36Z"/><path class="cls-2" d="M279,238.72l-70.52,40.74a9.17,9.17,0,0,1-8.29,0h0c-2.3-1.33-2.3-3.47,0-4.8l70.52-40.74a9.17,9.17,0,0,1,8.29,0h0C281.26,235.25,281.26,237.39,279,238.72Z"/><path class="cls-2" d="M145.89,315.6l-20.64,11.92a9.19,9.19,0,0,1-8.3,0h0c-2.29-1.32-2.29-3.47,0-4.79l20.64-11.93a9.19,9.19,0,0,1,8.3,0h0C148.18,312.13,148.18,314.27,145.89,315.6Z"/><path class="cls-2" d="M322.87,213.36l-20.64,11.92a9.19,9.19,0,0,1-8.3,0h0c-2.29-1.32-2.29-3.47,0-4.79l20.65-11.93a9.17,9.17,0,0,1,8.29,0h0C325.16,209.89,325.16,212,322.87,213.36Z"/><path class="cls-2" d="M162.32,242,91.8,282.71a9.13,9.13,0,0,1-8.3,0h0c-2.29-1.32-2.29-3.47,0-4.79L154,237.18a9.17,9.17,0,0,1,8.29,0h0C164.61,238.5,164.61,240.65,162.32,242Z"/><path class="cls-2" d="M206.22,216.61l-20.64,11.93a9.19,9.19,0,0,1-8.3,0h0c-2.29-1.32-2.29-3.47,0-4.79l20.65-11.93a9.17,9.17,0,0,1,8.29,0h0C208.51,213.15,208.51,215.29,206.22,216.61Z"/><path class="cls-2" d="M235.58,284.7l-70.52,40.74a9.19,9.19,0,0,1-8.3,0h0c-2.29-1.33-2.29-3.47,0-4.8l70.53-40.74a9.17,9.17,0,0,1,8.29,0h0C237.87,281.23,237.87,283.37,235.58,284.7Z"/><path class="cls-2" d="M290.06,253.22l-37.27,21.53a9.11,9.11,0,0,1-8.29,0h0c-2.29-1.32-2.29-3.46,0-4.79l37.27-21.53a9.17,9.17,0,0,1,8.29,0h0C292.35,249.76,292.35,251.9,290.06,253.22Z"/><path class="cls-2" d="M256.49,251.24,186,292a9.13,9.13,0,0,1-8.3,0h0c-2.29-1.32-2.29-3.47,0-4.79l70.52-40.74a9.19,9.19,0,0,1,8.3,0h0C258.78,247.77,258.78,249.92,256.49,251.24Z"/><path class="cls-2" d="M346.67,199.15l-70.53,40.74a9.17,9.17,0,0,1-8.29,0h0c-2.29-1.32-2.29-3.47,0-4.79l70.52-40.74a9.13,9.13,0,0,1,8.3,0h0C349,195.68,349,197.83,346.67,199.15Z"/><path class="cls-2" d="M387.17,218.5l-70.52,40.74a9.13,9.13,0,0,1-8.3,0h0c-2.29-1.32-2.29-3.46,0-4.79l70.52-40.74a9.19,9.19,0,0,1,8.3,0h0C389.46,215,389.46,217.18,387.17,218.5Z"/><path class="cls-2" d="M254.08,295.39l-20.64,11.92a9.17,9.17,0,0,1-8.29,0h0c-2.29-1.32-2.29-3.47,0-4.79l20.64-11.93a9.17,9.17,0,0,1,8.29,0h0C256.38,291.92,256.38,294.06,254.08,295.39Z"/><path class="cls-2" d="M431.07,193.15l-20.64,11.92a9.19,9.19,0,0,1-8.3,0h0c-2.29-1.32-2.29-3.47,0-4.79l20.64-11.93a9.19,9.19,0,0,1,8.3,0h0C433.36,189.68,433.36,191.82,431.07,193.15Z"/><path class="cls-2" d="M270.52,221.76,200,262.5a9.13,9.13,0,0,1-8.3,0h0c-2.29-1.32-2.29-3.47,0-4.79L262.22,217a9.19,9.19,0,0,1,8.3,0h0C272.81,218.29,272.81,220.44,270.52,221.76Z"/><path class="cls-2" d="M314.42,196.4l-20.65,11.93a9.17,9.17,0,0,1-8.29,0h0c-2.29-1.33-2.29-3.47,0-4.79l20.64-11.93a9.19,9.19,0,0,1,8.3,0h0C316.71,192.93,316.71,195.08,314.42,196.4Z"/><path class="cls-2" d="M383.63,129.31,313.1,170.05a9.17,9.17,0,0,1-8.29,0h0c-2.29-1.32-2.29-3.47,0-4.79l70.52-40.74a9.19,9.19,0,0,1,8.3,0h0C385.92,125.84,385.92,128,383.63,129.31Z"/><path class="cls-2" d="M424.13,148.67,353.6,189.41a9.17,9.17,0,0,1-8.29,0h0c-2.29-1.33-2.29-3.47,0-4.8l70.52-40.74a9.19,9.19,0,0,1,8.3,0h0C426.42,145.2,426.42,147.34,424.13,148.67Z"/><path class="cls-2" d="M468,123.31l-20.65,11.92a9.11,9.11,0,0,1-8.29,0h0c-2.29-1.32-2.29-3.47,0-4.79l20.64-11.92a9.13,9.13,0,0,1,8.3,0h0C470.32,119.84,470.32,122,468,123.31Z"/><path class="cls-2" d="M307.48,151.92,237,192.66a9.11,9.11,0,0,1-8.29,0h0c-2.29-1.32-2.29-3.47,0-4.79l70.52-40.74a9.19,9.19,0,0,1,8.3,0h0C309.77,148.46,309.77,150.6,307.48,151.92Z"/><path class="cls-2" d="M351.38,126.56l-20.65,11.93a9.17,9.17,0,0,1-8.29,0h0c-2.29-1.32-2.29-3.47,0-4.79l20.64-11.93a9.19,9.19,0,0,1,8.3,0h0C353.67,123.1,353.67,125.24,351.38,126.56Z"/><path class="cls-3" d="M65.65,185.38c3.19,1.84,3.19,4.82,0,6.66a12.73,12.73,0,0,1-11.53,0c-3.19-1.84-3.19-4.82,0-6.66A12.73,12.73,0,0,1,65.65,185.38Z"/><path class="cls-2" d="M395.46,304.27c3.18,1.84,3.18,4.82,0,6.66a12.75,12.75,0,0,1-11.54,0c-3.18-1.84-3.18-4.82,0-6.66A12.75,12.75,0,0,1,395.46,304.27Z"/><path class="cls-4" d="M183.24,196.35l-.35,0a5.06,5.06,0,0,1,.16-.88C183.2,195,183.23,195.91,183.24,196.35Z"/><path class="cls-5" d="M190.61,199.61c.27.07.43.06.35,0s-.3-.17-.67-.12C190.19,199.48,190.33,199.55,190.61,199.61Z"/><path class="cls-6" d="M191.1,302.85l75.26,6.76v1.53l-75.26-6.76Z"/><path class="cls-6" d="M279.87,238.28q-8.5,31.53-17,63.07a15.6,15.6,0,0,0-4.53.25c-2.34.5-5.25,1.81-5.88,4.13l-46.09-4.14c.72-2.69-2.12-4.68-4.82-5.48a14.3,14.3,0,0,0-2.77-.52q8.49-31.53,17-63.08A13.47,13.47,0,0,0,224,230.8a4.89,4.89,0,0,0,2.17-2.66l46.09,4.13a3.66,3.66,0,0,0,1.5,3.78A11.33,11.33,0,0,0,279.87,238.28ZM260.13,268.8c1-3.65-1-6.93-4.05-9.23-8.27-6.25-24.55-6.39-33.13-.27-3.29,2.37-5.5,5.82-4.36,9.66,1.39,4.78,7.07,7.69,11.85,9a35.25,35.25,0,0,0,17.87,0C253.14,276.6,258.83,273.62,260.13,268.8Z"/><path class="cls-6" d="M287.56,230.94v1.54l-21.2,78.66v-1.53C266.45,309.27,287.42,231.47,287.56,230.94Z"/><path class="cls-7" d="M256.08,259.57c3,2.3,5,5.58,4.05,9.23-1.3,4.82-7,7.8-11.82,9.12a35.25,35.25,0,0,1-17.87,0c-4.78-1.29-10.46-4.2-11.85-9-1.14-3.84,1.07-7.29,4.36-9.66C231.53,253.18,247.81,253.32,256.08,259.57Z"/><path class="cls-7" d="M252.47,305.73c.63-2.32,3.54-3.63,5.88-4.13a15.6,15.6,0,0,1,4.53-.25q8.49-31.55,17-63.07a11.33,11.33,0,0,1-6.1-2.23,3.66,3.66,0,0,1-1.5-3.78l-46.09-4.13.24-2.69,61.14,5.49c-.14.53-21,77.95-21.2,78.67l-60.21-5.41.23-2.61Z"/><path class="cls-7" d="M226.42,225.45l-.24,2.69A4.89,4.89,0,0,1,224,230.8a13.47,13.47,0,0,1-8.22,1.71q-8.5,31.55-17,63.08a14.3,14.3,0,0,1,2.77.52c2.7.8,5.54,2.79,4.82,5.48l-.23,2.61-15.05-1.35,21.21-78.66Z"/><path class="cls-8" d="M266.36,309.61v1.53l.79-.32s20.75-77,20.8-77.28-.39-2.6-.39-2.6Z"/><path class="cls-6" d="M213.47,236.13q16.5,9.51,33,19.05c-3.53,2-3.57,5.37,0,7.43l-78.18,45.13a14.25,14.25,0,0,0-12.86,0l-33-19c3.53-2.05,3.58-5.37,0-7.44l78.18-45.13A14.24,14.24,0,0,0,213.47,236.13Zm-14.15,44.39c8.73-5,8.09-13.3-1.33-17.88-5.61-2.72-12.78-3.4-19-2.44-4.76.73-10.26,2.67-13.4,6.31s-3,7.79.39,11.29C172.76,284.86,189.41,286.24,199.32,280.52Z"/><path class="cls-7" d="M198,262.64c9.42,4.58,10.06,12.84,1.33,17.88-9.91,5.72-26.56,4.34-33.31-2.72-3.34-3.5-3.48-7.72-.39-11.29C171.45,259.77,187.15,257.37,198,262.64Z"/><polygon class="cls-6" points="260.16 260.84 162.65 317.14 162.65 315.6 260.16 259.3 260.16 260.84"/><path class="cls-7" d="M162.65,315.6,108.8,284.52l97.51-56.3,53.85,31.08Zm-40.23-26.9,33,19a14.25,14.25,0,0,1,12.86,0l78.18-45.13c-3.57-2.06-3.53-5.39,0-7.43q-16.5-9.52-33-19.05a14.24,14.24,0,0,1-12.87,0l-78.18,45.13C126,283.33,126,286.65,122.42,288.7Z"/><polygon class="cls-6" points="162.65 317.14 108.8 286.04 108.8 284.52 162.65 315.6 162.65 317.14"/><path class="cls-8" d="M162.65,315.6v1.54h2.23s80.61-46.39,96.74-55.71a6.46,6.46,0,0,0-1.46-.59V259.3Z"/><path class="cls-9" d="M244.75,295.1v-6.9a6.34,6.34,0,0,0,.11,1.16c1,5.62,9.25,10,19.25,10,10.34,0,18.8-4.7,19.33-10.6,0-.12,0-.24,0-.35v6.67c0,4-3.67,7.68-9.66,9.67a31.87,31.87,0,0,1-19.79-.13C248.24,302.6,244.75,299,244.75,295.1Z"/><path class="cls-10" d="M283.33,286.88c0-.1-.11-.46-.11-.46a6.64,6.64,0,0,0-.36-1v0a10.47,10.47,0,0,0-.7-1.27,10.58,10.58,0,0,0-1.56-1.79l-.25-.24a17.24,17.24,0,0,0-3.82-2.49l-.12-.06c-7-3.37-17.63-3.45-24.76.08a20.8,20.8,0,0,0-3,1.83,11.24,11.24,0,0,0-2.63,2.76,8.18,8.18,0,0,0-.5.87,7.36,7.36,0,0,0-.39.93,6.53,6.53,0,0,0-.34,2.74c0,.19.05.38.08.57,1,5.63,9.25,10,19.25,10,10.34,0,18.81-4.7,19.33-10.6A7.45,7.45,0,0,0,283.33,286.88Zm-2.7,2.33h0a3.64,3.64,0,0,0,0-.45c-.44,4.65-6.67,8.41-14.58,8.93-.63.05-1.27.07-1.91.07-8.79,0-16-4-16.5-9a5.44,5.44,0,0,1,0-.57c0-5.27,7.41-9.54,16.53-9.54s16.52,4.27,16.52,9.54A8.91,8.91,0,0,1,280.63,289.21Z"/><path class="cls-11" d="M280.63,289.21h0a3.64,3.64,0,0,0,0-.45c-.44,4.65-6.67,8.41-14.58,8.93-.63.05-1.27.07-1.91.07-8.79,0-16-4-16.5-9a5.44,5.44,0,0,1,0-.57c0-5.27,7.41-9.54,16.53-9.54s16.52,4.27,16.52,9.54A8.91,8.91,0,0,1,280.63,289.21Z"/><path class="cls-9" d="M45.36,292.92c-2.62-1.92-4.12-4.34-4.12-6.89h0v-5.58l.12-.1c1,5.6,9.27,10,19.24,10,10.25,0,18.65-4.61,19.31-10.44.08-.44,0-3,0,6.16,0,3.69-3.09,6.6-6.4,8.31C65.19,298.69,52.19,298,45.36,292.92Z"/><path class="cls-12" d="M77.11,279.13a3.05,3.05,0,0,1,0,.56c-.31-3.19-3.34-6-7.79-7.56a25.84,25.84,0,0,0-8.46-1.42c-8.87-.08-16.23,3.9-16.73,9a4.79,4.79,0,0,1,0-.57c0-5.27,7.4-9.54,16.52-9.54S77.11,273.86,77.11,279.13Z"/><path class="cls-11" d="M45.36,292.92c-3.38-1.29-7-3.82-7.32-7.4-.37-2.31,1.29-4.7,3.19-6.18V286h0C41.24,288.58,42.74,291,45.36,292.92Z"/><path class="cls-10" d="M79.81,277.82a7,7,0,0,0-.29-1,9.84,9.84,0,0,0-3.14-4.12,19.39,19.39,0,0,0-5.76-3.1A31.5,31.5,0,0,0,51,269.43a22.08,22.08,0,0,0-4.61,2.11h0a14.92,14.92,0,0,0-2.22,1.68,11.46,11.46,0,0,0-1.81,2.16l0,0h0v0c-.16.26-.3.54-.47.87v0l-.12.28h0a6.47,6.47,0,0,0-.5,2.73c0,3.57,3.38,6.58,6.64,8.21,12.28,6.14,31,1.4,32-7.68A6.48,6.48,0,0,0,79.81,277.82Z"/><path class="cls-11" d="M69.29,272.13a25.84,25.84,0,0,0-8.46-1.42c-8.87-.08-16.23,3.9-16.73,9,0,0,0,.23,0,.3.47,3.15,3.56,5.43,6.49,6.73a25,25,0,0,0,10,1.94c8.79,0,16-4,16.49-9C76.77,276.5,73.74,273.72,69.29,272.13Z"/><path class="cls-10" d="M52.13,296.08c-7.45-.53-13.71-3.52-16-7.67a6.75,6.75,0,0,1-.5-5.76h0c.92-2.65,3.57-4.72,6.12-6a6.55,6.55,0,0,0-.51,2.72c-5.82,4.56-3.38,10.72,4.13,13.59A20.64,20.64,0,0,0,52.13,296.08Z"/><path class="cls-9" d="M36.11,288.41c2.31,4.15,8.57,7.14,16,7.67,7.7,2.13,16,1.09,21.42-1.74l-.16.08C71.14,300,61.91,303.71,52,303c-9.67-.72-16.87-5.48-16.86-11.07V285A7.1,7.1,0,0,0,36.11,288.41Z"/><path class="cls-6" d="M193.45,209.76l33,19.05c-1.07,1.93-2.43,4.33-2.63,6.46a4.86,4.86,0,0,0,2.63,4.95C211.29,253,180.84,255.5,148.27,278.6a12.4,12.4,0,0,0-12.87,1.1l-33-19.05c3.58-2.82,3.52-6.49,0-8.53,32.69-23.18,62.93-25.55,78.17-38.38a8.9,8.9,0,0,0,3.92,1.1A9.43,9.43,0,0,0,193.45,209.76Zm-14.14,43.62c6.84-2.69,7.8-7.3,3.76-11.39-7.6-7.71-28.94-10.29-37-3.84a6.27,6.27,0,0,0-2.66,5.56c.44,4.13,5,7.21,8.83,8.85C160.64,256.11,172.2,256.18,179.31,253.38Z"/><path class="cls-6" d="M186.29,198.38l53.85,31.09-1,.08c-65.23-37.66-51.75-29.86-53.85-31.1Z"/><path class="cls-7" d="M88.54,257.42c45.43-37.94,88-30.81,96.72-59l.24.15c.7.35-2.64-1.53,53.61,31-8.77,28.16-51.29,21-96.71,59Zm137.91-28.61-33-19.05a9.43,9.43,0,0,1-8.95,5.08,8.9,8.9,0,0,1-3.92-1.1c-15.24,12.83-45.48,15.2-78.17,38.38,3.52,2,3.58,5.71,0,8.53l33,19.05a12.4,12.4,0,0,1,12.87-1.1c32.57-23.1,63-25.63,78.18-38.38a4.86,4.86,0,0,1-2.63-4.95C224,233.14,225.38,230.74,226.45,228.81Z"/><path class="cls-7" d="M183.07,242c4,4.09,3.08,8.7-3.76,11.39-7.11,2.8-18.67,2.73-27.07-.82-3.83-1.64-8.39-4.72-8.83-8.85a6.27,6.27,0,0,1,2.66-5.56C154.13,231.7,175.47,234.28,183.07,242Z"/><path class="cls-6" d="M240.14,229.47c-9.3,29.91-52,22.16-97.5,60.18l-.24-1.14c45.42-37.94,87.94-30.8,96.71-59Z"/><polygon class="cls-6" points="142.64 289.65 88.78 258.56 88.55 257.42 142.4 288.51 142.64 289.65"/><path class="cls-8" d="M222.1,248.09a157.48,157.48,0,0,1-18.58,7.73c-16.53,5.89-34.72,13.38-48.88,23.43-3.28,2.33-12.24,9.26-12.24,9.26s-7.92-4.68-18.57-10.83L104.46,266.5c-1,.52,38.18,23.15,38.18,23.15s23.49-3.26,34.38-9.95c10-6.16,34.68-24.34,71.36-34.11a19.84,19.84,0,0,0,3-.92c.12-.13-2.82-2-6.88-4.31-3.91-2.25-7.22-4.4-7.22-4.4a26.76,26.76,0,0,0,2.89-6.49l-1,.08S236.6,241.18,222.1,248.09Z"/><path class="cls-13" d="M258.49,236.49a24.72,24.72,0,0,0,2.66,9.48,28.34,28.34,0,0,0,5.91,7.88c2.5,2.18,5.54,3.67,8.47,5.27,4.41,2.4,8.51,4.95,12.77,7.51,1.09.64,71.14,41.1,72.32,41.58,5.79,2.45,10.11-1.06,10.11-7.66.46-193.25.21-157,.38-168.48.05-8.42.26-16.88.16-25.3-.06-5.59-.08-10.24,0-15.88a65.11,65.11,0,0,0-.25-7.92,27,27,0,0,0-9.48-16.72,40.34,40.34,0,0,0-6-3.67c-3.3-1.87-6.5-3.78-9.69-5.65-11-6.43-21.95-12.42-36.53-21-26.62-15.84-24.7-13.69-31.63-18.15-4.79-3.1-11.18-8.1-15.87-4.69-3.33,2.38-3,7.4-2.93,11.08.18,5.35-.27,4.25,0,23.85C259,57.16,258.35,233.61,258.49,236.49ZM326.54,52.78a.78.78,0,0,1-.06.37c-.05.16-.05.27-.16.32a.41.41,0,0,1-.21.22c-.7.35.52.82-21-11.61a2,2,0,0,1-.37-.32,2,2,0,0,1-.64-.8c-.55-.82-.43-1.34-.43-3,0-.43.07-.78.43-1a.65.65,0,0,1,.64-.05.57.57,0,0,1,.37.16c3.14,1.88,20,11.42,20.39,11.82a2.4,2.4,0,0,1,.85,1.27A5.69,5.69,0,0,1,326.54,52.78Z"/><path class="cls-14" d="M305.34,37.29c21.38,12.33,20.49,11.47,21,12.93a.84.84,0,0,1,.16.48,1.32,1.32,0,0,1,.06.48v1.28c-21.79-12.6-19.81-11.4-20.29-11.87a3.1,3.1,0,0,1-.91-2.08Z"/><path class="cls-15" d="M304.71,37a.57.57,0,0,1,.37.16l.26.16a6.2,6.2,0,0,0,.11,2,3.35,3.35,0,0,0,1.39,1.81l19.7,11.39v.32a.78.78,0,0,1-.06.37c-.05.16-.05.27-.16.32a.41.41,0,0,1-.21.22c-.27.13-.17.1-.64.1-.1,0-.26-.1-.37-.16-20.45-11.8-20.72-11.72-21-12.67-.56-.84-.43-1.48-.43-3a1.5,1.5,0,0,1,.16-.75A.75.75,0,0,1,304.71,37Z"/><path class="cls-16" d="M380.49,88.22c0,3.11,0,6.17,0,9.19a0,0,0,0,0,0,0c-.13,64.29-.23,108.24-.3,138.31-.17,73-.19,64.08-.36,65.62-.38,2.51-1.89,5.44-4.1,6.71,0,0-6.09,3.39-5.2,2.5,0,0,.06-.06.08-.08a2.92,2.92,0,0,0,.42-.44,6.48,6.48,0,0,0,.73-1c.11-.17.2-.33.29-.49a11.31,11.31,0,0,0,.79-1.91c.06-.19.12-.37.16-.56l.06-.25a16.69,16.69,0,0,0,.47-3.71v-.23h0l0-8.66.13-63.27.28-143.17c0-9-6.13-20.31-14.53-25.23L270.79,10.4c-4-2.35-7.56-2.41-10.15-1.12.75-.45,6.89-4,8.87-4.26,3.15-.36,5.19.49,7.79,1.87l88.6,51.17c4.14,2.32,8.21,8.37,11,15h0C379.09,78.29,380.49,83.86,380.49,88.22Z"/><path class="cls-17" d="M359.39,61.57l-88.6-51.18c-4-2.36-7.64-2.4-10.23-1.06a0,0,0,0,1-.05.05c-3.08,1.37-4.31,5.91-4.31,9.43l-.42,202.72h0v12.62c0,8.95,5.92,20.09,14.48,25.24l88.66,51.17c7.51,4.4,14.41,1.43,14.59-8.42l.43-215.33C373.93,77.82,367.84,66.52,359.39,61.57Zm11.72,70.5c-.16,10.94.08-23.9-.38,168.48,0,6.59-4.31,10.11-10.11,7.66-1.14-.46-71.26-41-72.32-41.58-4.26-2.56-8.36-5.11-12.77-7.51-2.93-1.6-6-3.09-8.47-5.27a28.39,28.39,0,0,1-5.91-7.88,24.72,24.72,0,0,1-2.66-9.48c-.13-2.68,0-1.53.05-11h0c0-125.64.41-168.28.37-177.44-.22-19.6.23-18.5,0-23.85-.08-3-.3-6.25,1.12-9a5.85,5.85,0,0,1,3.73-3c4.2-1.4,10.25,3.2,13.95,5.59,3.89,2.5,8.1,4.63,12.2,6.87,9.72,5.25,16.39,9.75,38.87,22.47,23.77,13.55,20.86,12.1,26.78,15.44,4.14,2.23,6.87,3.81,9.91,7.67a29.46,29.46,0,0,1,4.15,7.29c1.78,4.89,1.74,8.31,1.63,13.35-.11,5.64-.09,10.29,0,15.88C371.37,115.19,371.16,123.65,371.11,132.07Z"/><path class="cls-8" d="M421.87,237.08l33,27.92a8.94,8.94,0,0,1-2.33,15.08c-15.39,6.42-38.73,16-40.77,16a31.25,31.25,0,0,0-16.93,4.66c-9.73,5.73-11,6.05-20.67,11.81-4,2.38-7.83,2-12-.55,3.67,1.12,6.49.39,8.38-1.43,0,0,.06-.06.08-.08a4.42,4.42,0,0,0,.42-.44,7.23,7.23,0,0,0,.73-1l.29-.49a8,8,0,0,0,.44-.94,9,9,0,0,0,.34-.91s0,0,0-.06a4.12,4.12,0,0,0,.16-.56l.06-.25a29.2,29.2,0,0,0,.47-3.94h0c.25-4.09,0-8.66,0-8.66l.13-63.27.28-143.17s.29,5.11,3-13.74c2.2,5.23,3.6,10.8,3.6,15.16,0,3.11,0,6.17,0,9.19a0,0,0,0,0,0,0,.54.54,0,0,0,0,.11l-.28,138.2s20.18.41,30.37.24A90.07,90.07,0,0,1,421.87,237.08Z"/><path class="cls-18" d="M362.83,293c0,3.39-2.74,4.55-6.13,2.6l-84.65-48.88c-3.38-2-6.13-6.28-6.13-9.66V33.36c0-3.38,2.75-4.54,6.13-2.59L356.7,79.64c3.39,2,6.13,6.29,6.13,9.67Z"/><path class="cls-19" d="M315.15,86.52,314.3,86a2.22,2.22,0,0,1-1.06-1.68V78.73c0-.58.48-.78,1.06-.45l.85.49a2.22,2.22,0,0,1,1.06,1.67v5.63C316.21,86.66,315.73,86.86,315.15,86.52Z"/><path class="cls-19" d="M308.5,83.1l-.83-.33a2.24,2.24,0,0,1-1.23-1.57l-1-6.11c-.1-.64.29-1,.86-.73l.83.33a2.22,2.22,0,0,1,1.23,1.57l1,6.11C309.46,83,309.08,83.33,308.5,83.1Z"/><path class="cls-19" d="M302,80.93l-.79-.17a2.15,2.15,0,0,1-1.36-1.42L298,72.94c-.21-.67.08-1.12.63-1l.79.17a2.15,2.15,0,0,1,1.36,1.42l1.93,6.4C302.86,80.6,302.57,81,302,80.93Z"/><path class="cls-19" d="M295.92,80.07h-.73a1.93,1.93,0,0,1-1.45-1.23l-2.82-6.5c-.29-.68-.12-1.22.39-1.22H292a1.91,1.91,0,0,1,1.45,1.22l2.82,6.5C296.6,79.52,296.42,80.07,295.92,80.07Z"/><path class="cls-19" d="M290.37,80.55l-.65.17c-.45.12-1.12-.33-1.49-1l-3.62-6.4c-.38-.67-.32-1.3.13-1.42l.64-.17c.45-.11,1.12.33,1.5,1l3.62,6.4C290.88,79.8,290.82,80.43,290.37,80.55Z"/><path class="cls-19" d="M285.54,82.36l-.54.33c-.38.23-1-.1-1.49-.73l-4.32-6.11c-.45-.64-.5-1.34-.13-1.57l.54-.34c.38-.23,1,.1,1.5.74l4.31,6.11C285.86,81.42,285.92,82.12,285.54,82.36Z"/><path class="cls-19" d="M281.59,85.43l-.42.49c-.3.34-.95.14-1.45-.45l-4.88-5.63c-.51-.58-.68-1.33-.39-1.67l.42-.49c.3-.34.95-.14,1.45.45l4.88,5.63C281.71,84.35,281.88,85.1,281.59,85.43Z"/><path class="cls-19" d="M278.62,89.69l-.28.62c-.2.44-.81.37-1.36-.15l-5.29-5a1.75,1.75,0,0,1-.64-1.72l.29-.63c.2-.43.81-.37,1.36.15L278,88A1.77,1.77,0,0,1,278.62,89.69Z"/><path class="cls-19" d="M276.74,95l-.14.75c-.11.52-.66.58-1.23.15l-5.55-4.18A2,2,0,0,1,269,90l.15-.74c.1-.52.65-.59,1.23-.15l5.54,4.18A2,2,0,0,1,276.74,95Z"/><path class="cls-19" d="M276,101.18V102c0,.58-.48.78-1.06.44l-5.63-3.25a2.19,2.19,0,0,1-1.07-1.67v-.84c0-.59.48-.79,1.07-.45l5.63,3.25A2.22,2.22,0,0,1,276,101.18Z"/><path class="cls-19" d="M276.41,108.07l.15.92c.1.63-.28,1-.86.73l-5.54-2.22a2.26,2.26,0,0,1-1.23-1.58l-.15-.91c-.1-.63.28-1,.86-.73l5.55,2.22A2.25,2.25,0,0,1,276.41,108.07Z"/><path class="cls-19" d="M278,115.45l.29,1c.2.67-.09,1.11-.64,1l-5.29-1.13a2.13,2.13,0,0,1-1.36-1.42l-.29-.95c-.2-.67.09-1.11.64-1l5.29,1.13A2.17,2.17,0,0,1,278,115.45Z"/><path class="cls-19" d="M280.65,123.1l.42,1c.29.67.12,1.22-.39,1.22H275.8a1.93,1.93,0,0,1-1.45-1.22l-.42-1c-.29-.68-.12-1.23.39-1.23h4.88A2,2,0,0,1,280.65,123.1Z"/><path class="cls-19" d="M284.33,130.77l.54,1c.38.67.32,1.3-.13,1.42l-4.31,1.13c-.45.12-1.12-.33-1.5-1l-.54-1c-.38-.67-.32-1.3.13-1.42l4.32-1.13C283.28,129.66,284,130.11,284.33,130.77Z"/><path class="cls-19" d="M288.92,138.25l.65.91c.45.64.51,1.34.13,1.57L286.08,143c-.38.23-1.05-.1-1.5-.73l-.64-.92c-.45-.63-.51-1.34-.13-1.57l3.62-2.22C287.81,137.29,288.47,137.61,288.92,138.25Z"/><path class="cls-19" d="M294.28,145.3l.73.84c.51.59.69,1.34.39,1.68l-2.81,3.25c-.3.34-.95.13-1.45-.45l-.73-.84c-.51-.59-.68-1.34-.39-1.68l2.81-3.25C293.13,144.51,293.78,144.71,294.28,145.3Z"/><path class="cls-19" d="M300.25,151.71l.79.74a1.78,1.78,0,0,1,.64,1.73l-1.93,4.18c-.2.43-.81.37-1.36-.15l-.79-.75a1.77,1.77,0,0,1-.64-1.72l1.93-4.18C299.09,151.12,299.7,151.19,300.25,151.71Z"/><path class="cls-19" d="M306.64,157.28l.83.62a2,2,0,0,1,.86,1.73l-1,5c-.1.52-.65.59-1.23.15l-.83-.62a2.06,2.06,0,0,1-.86-1.73l1-5C305.51,156.91,306.06,156.85,306.64,157.28Z"/><path class="cls-19" d="M313.26,161.85l.84.48a2.2,2.2,0,0,1,1.06,1.68v5.63c0,.58-.47.78-1.06.45l-.84-.49a2.22,2.22,0,0,1-1.06-1.67v-5.64C312.2,161.71,312.68,161.51,313.26,161.85Z"/><path class="cls-19" d="M319.91,165.27l.83.33a2.24,2.24,0,0,1,1.23,1.57l1,6.11c.1.64-.29,1-.86.73l-.83-.33a2.22,2.22,0,0,1-1.23-1.57l-1-6.11C319,165.36,319.33,165,319.91,165.27Z"/><path class="cls-19" d="M326.39,167.44l.79.17a2.15,2.15,0,0,1,1.36,1.42l1.92,6.4c.2.67-.08,1.11-.63,1l-.79-.17a2.15,2.15,0,0,1-1.36-1.42l-1.93-6.4C325.55,167.77,325.83,167.32,326.39,167.44Z"/><path class="cls-19" d="M332.49,168.3h.73a1.93,1.93,0,0,1,1.45,1.23l2.81,6.5c.3.67.12,1.22-.38,1.22h-.73a1.93,1.93,0,0,1-1.45-1.22l-2.82-6.5C331.81,168.85,332,168.3,332.49,168.3Z"/><path class="cls-19" d="M338,167.82l.65-.17c.44-.12,1.11.33,1.49,1l3.62,6.4c.38.66.32,1.3-.13,1.42l-.65.17c-.45.11-1.11-.33-1.49-1l-3.62-6.4C337.53,168.57,337.59,167.94,338,167.82Z"/><path class="cls-19" d="M342.87,166l.54-.33c.37-.23,1,.1,1.49.73l4.32,6.11c.44.64.5,1.34.13,1.57l-.55.34c-.37.23-1-.1-1.49-.74L343,167.58C342.55,167,342.49,166.24,342.87,166Z"/><path class="cls-19" d="M346.82,162.93l.42-.48c.29-.34.94-.14,1.45.45l4.88,5.63c.5.58.68,1.33.39,1.67l-.43.49c-.29.34-.94.14-1.45-.45l-4.87-5.63C346.7,164,346.53,163.27,346.82,162.93Z"/><path class="cls-19" d="M349.78,158.68l.29-.63c.2-.43.81-.36,1.36.16l5.29,5a1.76,1.76,0,0,1,.64,1.72l-.29.63c-.2.43-.81.36-1.36-.15l-5.29-5A1.78,1.78,0,0,1,349.78,158.68Z"/><path class="cls-19" d="M351.67,153.38l.14-.75c.1-.52.65-.58,1.23-.15l5.55,4.18a2.05,2.05,0,0,1,.86,1.73l-.15.74c-.1.52-.65.59-1.23.15l-5.54-4.18A2,2,0,0,1,351.67,153.38Z"/><path class="cls-19" d="M352.41,147.19v-.85c0-.58.48-.78,1.06-.45l5.63,3.26a2.16,2.16,0,0,1,1.06,1.67v.84c0,.59-.47.79-1.06.45l-5.63-3.25A2.22,2.22,0,0,1,352.41,147.19Z"/><path class="cls-19" d="M352,140.3l-.14-.92c-.1-.63.28-1,.86-.73l5.54,2.22a2.26,2.26,0,0,1,1.23,1.57l.15.92c.1.63-.29,1-.86.73l-5.55-2.22A2.27,2.27,0,0,1,352,140.3Z"/><path class="cls-19" d="M350.43,132.92l-.29-1c-.2-.67.08-1.11.63-1l5.3,1.12a2.17,2.17,0,0,1,1.36,1.42l.28,1c.2.67-.08,1.11-.63,1l-5.29-1.13A2.17,2.17,0,0,1,350.43,132.92Z"/><path class="cls-19" d="M347.76,125.27l-.42-1c-.29-.68-.12-1.22.39-1.22h4.88a2,2,0,0,1,1.45,1.22l.42,1c.29.68.12,1.23-.39,1.23h-4.88A1.94,1.94,0,0,1,347.76,125.27Z"/><path class="cls-19" d="M344.08,117.6l-.54-1c-.38-.67-.32-1.3.13-1.42l4.31-1.13c.45-.12,1.12.33,1.5,1l.54,1c.37.67.31,1.3-.13,1.42l-4.32,1.13C345.12,118.71,344.45,118.26,344.08,117.6Z"/><path class="cls-19" d="M339.48,110.12l-.64-.91c-.45-.64-.51-1.34-.13-1.58l3.62-2.22c.37-.23,1,.1,1.49.73l.65.92c.45.63.51,1.34.13,1.57L341,110.85C340.6,111.08,339.93,110.75,339.48,110.12Z"/><path class="cls-19" d="M334.12,103.07l-.73-.84c-.5-.59-.68-1.34-.38-1.68l2.81-3.25c.29-.34.94-.14,1.45.45l.73.84c.51.59.68,1.34.39,1.68l-2.82,3.25C335.28,103.86,334.63,103.66,334.12,103.07Z"/><path class="cls-19" d="M328.16,96.66l-.79-.74a1.78,1.78,0,0,1-.64-1.73L328.66,90c.2-.43.81-.37,1.36.15l.79.75a1.75,1.75,0,0,1,.63,1.72l-1.92,4.18C329.32,97.25,328.71,97.18,328.16,96.66Z"/><path class="cls-19" d="M321.77,91.09l-.83-.63a2,2,0,0,1-.86-1.72l1-5c.11-.52.66-.59,1.23-.15l.83.62A2,2,0,0,1,324,86l-1,5C322.89,91.46,322.34,91.52,321.77,91.09Z"/><path class="cls-6" d="M322.41,101.18l-.62-.52a1.44,1.44,0,0,1-.56-1.31l1.11-3.47c.11-.37.55-.37,1,0l.61.52a1.43,1.43,0,0,1,.57,1.31l-1.11,3.48C323.28,101.55,322.84,101.55,322.41,101.18Z"/><path class="cls-6" d="M317.47,97.33l-.64-.42a1.66,1.66,0,0,1-.73-1.3l.38-4c0-.42.43-.53.87-.23l.64.42a1.65,1.65,0,0,1,.73,1.29l-.38,4C318.3,97.52,317.91,97.62,317.47,97.33Z"/><path class="cls-6" d="M312.43,94.29l-.64-.31a1.71,1.71,0,0,1-.87-1.24l-.36-4.45c0-.47.29-.67.73-.45l.63.31a1.69,1.69,0,0,1,.87,1.23l.37,4.46C313.2,94.3,312.87,94.5,312.43,94.29Z"/><path class="cls-6" d="M307.44,92.16l-.61-.2a1.69,1.69,0,0,1-1-1.13l-1.1-4.75c-.11-.5.14-.79.57-.66l.62.19a1.67,1.67,0,0,1,1,1.14L308,91.5C308.12,92,307.87,92.29,307.44,92.16Z"/><path class="cls-6" d="M302.66,91l-.58-.07a1.52,1.52,0,0,1-1.06-1L299.22,85c-.19-.51,0-.88.39-.84l.58.07a1.52,1.52,0,0,1,1.06,1l1.8,4.9C303.24,90.67,303.06,91,302.66,91Z"/><path class="cls-6" d="M298.23,90.85l-.52.06a1.35,1.35,0,0,1-1.12-.84l-2.44-4.91c-.26-.51-.17-1,.2-1l.52-.06c.36,0,.86.33,1.12.84l2.44,4.9C298.68,90.35,298.59,90.8,298.23,90.85Z"/><path class="cls-6" d="M294.29,91.71l-.46.19c-.31.13-.82-.16-1.13-.66l-3-4.75c-.32-.5-.31-1,0-1.14l.45-.19c.31-.13.82.16,1.14.66l3,4.75C294.6,91.07,294.6,91.58,294.29,91.71Z"/><path class="cls-6" d="M291,93.56l-.37.31c-.26.21-.76,0-1.12-.45L286,89c-.36-.47-.45-1-.19-1.24l.36-.31c.26-.21.76,0,1.12.45l3.49,4.47C291.11,92.79,291.2,93.34,291,93.56Z"/><path class="cls-6" d="M288.31,96.34l-.27.42c-.19.29-.66.19-1.07-.23l-3.86-4c-.4-.42-.57-1-.38-1.3l.27-.42c.18-.29.66-.19,1.06.23l3.87,4C288.33,95.47,288.5,96.05,288.31,96.34Z"/><path class="cls-6" d="M286.47,100l-.17.52c-.11.37-.56.37-1,0L281.2,97a1.45,1.45,0,0,1-.57-1.31l.17-.52c.11-.36.56-.36,1,0l4.12,3.48A1.46,1.46,0,0,1,286.47,100Z"/><path class="cls-6" d="M285.46,104.33l0,.6c0,.42-.43.52-.87.22l-4.25-2.82a1.63,1.63,0,0,1-.73-1.29l.06-.61c0-.42.43-.52.87-.22l4.24,2.82A1.61,1.61,0,0,1,285.46,104.33Z"/><path class="cls-6" d="M285.33,109.29l.06.67c0,.46-.29.66-.73.45l-4.25-2.09a1.71,1.71,0,0,1-.87-1.23l-.05-.67c0-.46.29-.66.73-.45l4.24,2.09A1.69,1.69,0,0,1,285.33,109.29Z"/><path class="cls-6" d="M286.08,114.71l.16.71c.12.49-.14.79-.57.65l-4.11-1.27a1.72,1.72,0,0,1-1-1.14l-.16-.71c-.11-.5.14-.79.57-.66l4.12,1.28A1.67,1.67,0,0,1,286.08,114.71Z"/><path class="cls-6" d="M287.68,120.42l.27.73c.19.51,0,.89-.39.84l-3.86-.43a1.57,1.57,0,0,1-1.07-1l-.27-.73c-.19-.51,0-.89.39-.85l3.86.44A1.55,1.55,0,0,1,287.68,120.42Z"/><path class="cls-6" d="M290.09,126.24l.36.73c.26.51.17,1-.2,1l-3.49.43c-.36,0-.86-.34-1.12-.85l-.36-.73c-.26-.51-.17-1,.2-1l3.49-.42C289.33,125.35,289.83,125.73,290.09,126.24Z"/><path class="cls-6" d="M293.23,132l.45.71c.31.5.31,1,0,1.14l-3,1.27c-.31.13-.82-.16-1.14-.66l-.45-.71c-.31-.5-.31-1,0-1.14l3-1.26C292.41,131.2,292.92,131.5,293.23,132Z"/><path class="cls-6" d="M297,137.51l.52.67c.36.47.45,1,.19,1.23l-2.44,2.08c-.26.21-.76,0-1.12-.45l-.52-.67c-.37-.46-.46-1-.2-1.23l2.45-2.08C296.14,136.85,296.64,137.05,297,137.51Z"/><path class="cls-6" d="M301.31,142.63l.57.6c.41.42.58,1,.39,1.29l-1.8,2.82c-.19.3-.67.19-1.07-.23l-.58-.6c-.4-.42-.57-1-.39-1.29l1.81-2.82C300.43,142.11,300.9,142.21,301.31,142.63Z"/><path class="cls-6" d="M306,147.18l.61.53a1.43,1.43,0,0,1,.57,1.31l-1.11,3.47c-.11.36-.55.36-1,0l-.62-.52a1.42,1.42,0,0,1-.56-1.31l1.1-3.48C305.13,146.82,305.57,146.82,306,147.18Z"/><path class="cls-6" d="M310.94,151l.63.42a1.61,1.61,0,0,1,.73,1.3l-.37,4c0,.42-.43.52-.87.23l-.64-.42a1.63,1.63,0,0,1-.73-1.29l.38-4C310.11,150.85,310.5,150.75,310.94,151Z"/><path class="cls-6" d="M316,154.08l.63.31a1.66,1.66,0,0,1,.87,1.24l.37,4.45c0,.47-.29.67-.73.45l-.64-.31a1.67,1.67,0,0,1-.86-1.23l-.37-4.46C315.21,154.06,315.54,153.86,316,154.08Z"/><path class="cls-6" d="M321,156.21l.61.19a1.72,1.72,0,0,1,1,1.14l1.09,4.75c.12.5-.14.79-.57.66l-.61-.19a1.69,1.69,0,0,1-1-1.14l-1.1-4.75C320.28,156.37,320.54,156.08,321,156.21Z"/><path class="cls-6" d="M325.75,157.37l.58.07a1.52,1.52,0,0,1,1.06,1l1.8,4.9c.19.51,0,.89-.39.85l-.58-.07a1.55,1.55,0,0,1-1.07-1l-1.79-4.91C325.17,157.7,325.35,157.33,325.75,157.37Z"/><path class="cls-6" d="M330.18,157.52l.52-.06a1.38,1.38,0,0,1,1.12.84l2.44,4.91c.25.51.16,1-.2,1l-.52.06c-.37,0-.87-.33-1.12-.84l-2.44-4.9C329.73,158,329.81,157.57,330.18,157.52Z"/><path class="cls-6" d="M334.12,156.66l.45-.19c.32-.13.83.16,1.14.66l3,4.75c.31.5.31,1,0,1.14l-.45.19c-.32.13-.83-.17-1.14-.66l-3-4.75C333.81,157.3,333.81,156.79,334.12,156.66Z"/><path class="cls-6" d="M337.46,154.81l.37-.31c.25-.22.75,0,1.12.45l3.49,4.46c.36.47.45,1,.19,1.23l-.36.31c-.26.22-.76,0-1.12-.45L337.66,156C337.3,155.58,337.21,155,337.46,154.81Z"/><path class="cls-6" d="M340.1,152l.27-.42c.18-.29.66-.19,1.06.23l3.86,4c.41.42.58,1,.39,1.29l-.27.43c-.19.29-.67.19-1.07-.23l-3.86-4C340.08,152.9,339.91,152.32,340.1,152Z"/><path class="cls-6" d="M341.94,148.4l.17-.52c.11-.36.55-.36,1,0l4.12,3.48a1.42,1.42,0,0,1,.56,1.31l-.16.52c-.12.36-.56.36-1,0l-4.11-3.48A1.47,1.47,0,0,1,341.94,148.4Z"/><path class="cls-6" d="M343,144l.05-.6c0-.42.43-.52.87-.23l4.25,2.83a1.62,1.62,0,0,1,.73,1.29l-.06.61c0,.41-.43.52-.87.22l-4.25-2.83A1.59,1.59,0,0,1,343,144Z"/><path class="cls-6" d="M343.08,139.08l-.06-.67c0-.46.29-.66.73-.45l4.25,2.09a1.71,1.71,0,0,1,.87,1.23l.05.67c0,.46-.29.66-.73.45l-4.25-2.09A1.67,1.67,0,0,1,343.08,139.08Z"/><path class="cls-6" d="M342.33,133.66l-.17-.71c-.11-.5.14-.79.57-.66l4.12,1.28a1.69,1.69,0,0,1,1,1.14l.17.71c.11.5-.14.79-.57.66l-4.12-1.28A1.69,1.69,0,0,1,342.33,133.66Z"/><path class="cls-6" d="M340.73,128l-.27-.73c-.19-.51,0-.89.39-.84l3.86.43a1.59,1.59,0,0,1,1.07,1l.27.73c.19.51,0,.89-.39.84l-3.87-.43A1.56,1.56,0,0,1,340.73,128Z"/><path class="cls-6" d="M338.32,122.13l-.37-.73c-.25-.51-.16-1,.2-1l3.5-.43c.36,0,.86.34,1.12.85l.36.73c.25.51.17,1-.2,1l-3.49.43A1.37,1.37,0,0,1,338.32,122.13Z"/><path class="cls-6" d="M335.18,116.38l-.45-.72c-.31-.49-.31-1,0-1.13l3-1.27c.31-.13.82.16,1.13.66l.45.71c.32.49.32,1,0,1.13l-3,1.27C336,117.16,335.49,116.87,335.18,116.38Z"/><path class="cls-6" d="M331.4,110.85l-.52-.66c-.36-.47-.45-1-.2-1.23l2.45-2.08c.26-.21.76,0,1.12.45l.52.67c.37.46.45,1,.2,1.23l-2.45,2.07C332.27,111.52,331.76,111.32,331.4,110.85Z"/><path class="cls-6" d="M327.1,105.74l-.58-.6c-.4-.42-.57-1-.38-1.3l1.8-2.81c.19-.3.67-.19,1.07.23l.58.6c.4.42.57,1,.38,1.29l-1.8,2.82C328,106.26,327.5,106.16,327.1,105.74Z"/><path class="cls-20" d="M308.62,125.61,304.13,123l-.83,3.06-5.25-3,4.25-12.6a.83.83,0,0,1,.64-.59,1.59,1.59,0,0,1,1.09.27l4.68,2.7a3.85,3.85,0,0,1,1.73,2.32l4.25,17.5-5.24-3Zm-.84-4.09-.8-4c-.15-.82-.24-1.5-.29-2l-.64-.37c-.09.69-.19,1.26-.28,1.71l-.81,3Z"/><path class="cls-20" d="M327.26,124a10.15,10.15,0,0,1,2.36,3.9,18.11,18.11,0,0,1,.73,5.58,10.84,10.84,0,0,1-.73,4.72,2.15,2.15,0,0,1-2.36,1.18,13.52,13.52,0,0,1-4.55-1.89c-2.37-1.37-4.7-2.79-7-4.28V116.87c2.79,1.45,5.12,2.71,7,3.8A21.46,21.46,0,0,1,327.26,124Zm-3.18,10.16c.31-.08.52-.41.65-1a14.46,14.46,0,0,0,.19-2.82,18.38,18.38,0,0,0-.19-3,4.33,4.33,0,0,0-.65-1.75,4.15,4.15,0,0,0-1.37-1.18l-1.85-1.07v9.37c.38.24,1,.6,1.85,1.1A2,2,0,0,0,324.08,134.19Z"/><path class="cls-20" d="M307.57,223.73l-4.48-2.59-.83,3.06-5.25-3,4.25-12.59a.79.79,0,0,1,.64-.59,1.53,1.53,0,0,1,1.09.26l4.68,2.7a3.67,3.67,0,0,1,1.09,1,3.55,3.55,0,0,1,.64,1.33l4.25,17.5-5.25-3Zm-.83-4.09-.8-4c-.15-.83-.24-1.51-.29-2l-.64-.37c-.1.69-.19,1.26-.29,1.71l-.8,3Z"/><path class="cls-20" d="M326.22,222.15a10.12,10.12,0,0,1,2.36,3.91,18,18,0,0,1,.73,5.57,10.89,10.89,0,0,1-.73,4.73,2.14,2.14,0,0,1-2.36,1.17,13.45,13.45,0,0,1-4.55-1.88c-2.37-1.38-4.71-2.8-7-4.28V215c2.78,1.45,5.12,2.72,7,3.8A21.46,21.46,0,0,1,326.22,222.15ZM323,232.31c.31-.08.53-.41.66-1a15.31,15.31,0,0,0,.19-2.82,19.65,19.65,0,0,0-.19-3,4.33,4.33,0,0,0-.66-1.75,4.11,4.11,0,0,0-1.36-1.18l-1.85-1.07v9.38c.38.23,1,.6,1.85,1.09A1.94,1.94,0,0,0,323,232.31Z"/><path class="cls-21" d="M349.7,267.67a8.28,8.28,0,0,1-4-1.23l-65.25-37.68c-4.32-2.49-7.83-8-7.83-12.38V182.63a4.63,4.63,0,0,1,2-4.24c1.57-.9,3.81-.65,6.14.7l65.26,37.68c4.31,2.49,7.83,8,7.83,12.37v33.75a4.6,4.6,0,0,1-2.05,4.24A4.16,4.16,0,0,1,349.7,267.67Zm-72.91-89.11A3.53,3.53,0,0,0,275,179a3.93,3.93,0,0,0-1.68,3.62v33.75c0,4.11,3.35,9.39,7.47,11.77l65.26,37.67c2.11,1.22,4.09,1.48,5.43.7a3.94,3.94,0,0,0,1.69-3.63V229.14c0-4.1-3.35-9.38-7.48-11.76L280.44,179.7A7.56,7.56,0,0,0,276.79,178.56Z"/><path class="cls-10" d="M238.37,10.23c-4.76,4.58-7.84,9.27-7.29,10.91a.83.83,0,0,0,.52.55h0a1.58,1.58,0,0,0,.72,0c1.71-.2,3.77-1.59,5.14-2.55,6.22-4.27,13.65-13,12.53-15.44a.87.87,0,0,0-.3-.34s0,0-.08-.05-.11,0-.14,0C247.84,2.78,243.12,5.64,238.37,10.23Z"/><path class="cls-9" d="M246.65.31c-.79-.82-3.14,0-6.25,2.16a45.53,45.53,0,0,0-9,8.45c-2.92,3.56-4.19,6.41-3.29,7.32l3.21,3.22a.71.71,0,0,1-.2-.32c-.54-1.67,2.53-6.33,7.29-10.91s9.47-7.45,11.13-6.88l.22.1C249.84,3.46,250.49,4.14,246.65.31Z"/><path class="cls-9" d="M387.93,116.1c3-.58,4.9-1.72,5-3.08l.43-4.27a1.62,1.62,0,0,1-.12.43c-.88,2.12-6.46,3.37-13,2.77s-11.88-2.79-12.32-5.07c-.08-.17.07-1.87-.37,3.87-.17,2.11,3.88,4.34,9.71,5.3A31.69,31.69,0,0,0,387.93,116.1Z"/><path class="cls-10" d="M367.92,106.89c.45,2.28,5.75,4.49,12.32,5.08s12.14-.65,13-2.78c.67-1.76-1.73-3.2-3.46-4a33.28,33.28,0,0,0-14.05-2.1,15.15,15.15,0,0,0-6.6,1.64,2.53,2.53,0,0,0-1.24,1.54A3,3,0,0,0,367.92,106.89Z"/><path class="cls-11" d="M390.55,109.14a2.91,2.91,0,0,0,1-.59,5.69,5.69,0,0,0-2.46-1.62,31.39,31.39,0,0,0-13.16-2,16.11,16.11,0,0,0-5.13,1,4.94,4.94,0,0,0-.61.31,3.54,3.54,0,0,0-.35.29c.48.84,4,2.91,10.63,3.49C384.51,110.5,388.41,110.11,390.55,109.14Z"/><path class="cls-9" d="M264.54,216.05c2.41-1.93,3.52-3.81,3-5.07l-1.62-4a1.67,1.67,0,0,1,.1.43c.22,2.29-4.14,6-10.2,8.54s-11.81,3.09-13.27,1.28c-.15-.12-.81-1.69,1.48,3.59.84,1.95,5.47,2,11.06.14A31.4,31.4,0,0,0,264.54,216.05Z"/><path class="cls-10" d="M242.54,217.27c1.46,1.81,7.18,1.28,13.27-1.27s10.42-6.25,10.2-8.54c-.24-1.87-3-2-4.92-1.87a33.16,33.16,0,0,0-13.39,4.71,15.27,15.27,0,0,0-5.07,4.53,2.52,2.52,0,0,0-.38,1.95A2.48,2.48,0,0,0,242.54,217.27Z"/><path class="cls-11" d="M263.6,208.68a2.77,2.77,0,0,0,.56-1,5.53,5.53,0,0,0-2.93-.28,31.39,31.39,0,0,0-12.54,4.43,16.41,16.41,0,0,0-4.05,3.32,5.72,5.72,0,0,0-.39.56,2,2,0,0,0-.17.42c.81.51,4.88.7,11-1.89C258.89,212.7,262.15,210.54,263.6,208.68Z"/><path class="cls-10" d="M236.46,81.59c.09.93,6,1,9.89.14,1.55-.33,2.46-.73,2.42-1.09-.25-2.63-.2-2.15-.21-2.13-.12.57-2.78,1.22-6.06,1.48s-6,0-6.23-.49C236.24,79.45,236.21,79.05,236.46,81.59Z"/><path class="cls-10" d="M248.56,78.47c0-.4-1.42-.56-1.83-.59a27.31,27.31,0,0,0-3.73,0c-.26,0-1.32.1-1.57.13a21.85,21.85,0,0,0-4.18.78c-.27.1-1.05.36-1,.66,0,0,0,0,0,0,.22.54,2.94.77,6.23.51s6-.92,6.1-1.47C248.58,78.52,248.57,78.49,248.56,78.47Z"/><path class="cls-11" d="M237.24,79.37a27.1,27.1,0,0,0,10.34-.82,5.58,5.58,0,0,0-.89-.12,27.21,27.21,0,0,0-3.65,0c-.27,0-1.31.09-1.53.13h0a22,22,0,0,0-4.06.75h0Z"/><path class="cls-10" d="M363.18,255.86c.26,11.22,11.39,21.69,26.73,21.72,13.1,0,25.81-8.12,26.86-20.89a19.39,19.39,0,0,0-.15-4.09,18.53,18.53,0,0,0-1.57-5.25,21.68,21.68,0,0,0-5.37-7.2,29.46,29.46,0,0,0-19.62-7.21h0c-13.9-.07-26.42,9-26.93,21.53C363.13,254.91,363.12,255.46,363.18,255.86Z"/><path class="cls-11" d="M387,272a27.27,27.27,0,0,0,2.86.17c9.83,0,20.55-5.86,21.45-15.86a14.17,14.17,0,0,0-.09-2.85v-.09a13.13,13.13,0,0,0-1.08-3.7,17.47,17.47,0,0,0-4.07-5.47A23.55,23.55,0,0,0,393,238.53c-.59-.07-1.23-.14-1.82-.15l-.21.08-1.08-.12c-11.33,0-20.81,7.32-21.2,16.33,0,.35,0,.7,0,.85v.1a14.9,14.9,0,0,0,5,10.29A22.08,22.08,0,0,0,387,272Z"/><path class="cls-9" d="M416.6,261l.18-4.41s0,.45-.08.79c0,.1,0,.25,0,.34-1.43,11.24-12.91,20-26.75,19.91s-25.39-9-26.64-20.32c.56,6.28.41,4.48.42,4.82.84,9.64,9,17.75,20.36,20C400.47,285.4,416.39,275.1,416.6,261Z"/><path class="cls-10" d="M335.57,33.9c.2,8.68,8.81,16.78,20.68,16.8,10.15,0,20-6.28,20.79-16.16a15.34,15.34,0,0,0-.11-3.17,14.64,14.64,0,0,0-1.21-4.06,17,17,0,0,0-4.16-5.57,22.79,22.79,0,0,0-15.19-5.59h0c-10.76-.06-20.44,7-20.84,16.66C335.53,33.16,335.53,33.58,335.57,33.9Z"/><path class="cls-11" d="M354,46.38c.73.08,1.49.12,2.22.13,7.61,0,15.9-4.54,16.6-12.28a11.66,11.66,0,0,0-.07-2.2V32a10.64,10.64,0,0,0-.84-2.87,13.61,13.61,0,0,0-3.15-4.23,18.32,18.32,0,0,0-10.17-4.38c-.46-.05-.95-.1-1.41-.12l-.16.06-.83-.09c-8.77.05-16.11,5.67-16.41,12.64,0,.27,0,.54,0,.66v.07a11.54,11.54,0,0,0,3.85,8A17.09,17.09,0,0,0,354,46.38Z"/><path class="cls-9" d="M376.91,37.83l.14-3.41s0,.34-.06.61c0,.08,0,.19,0,.27-1.11,8.69-10,15.46-20.71,15.4s-19.64-7-20.61-15.72c.43,4.86.32,3.46.32,3.73.65,7.46,7,13.73,15.76,15.5C364.43,56.75,376.75,48.78,376.91,37.83Z"/><path class="cls-9" d="M198.14,157.11l.17.31c2.22,4.28,9.52,8.47,13.88,10.49,8.14,3.83,18,6.35,24.89,6.75a29,29,0,0,0,8.86-.47,9.09,9.09,0,0,0,2.59-1,4.19,4.19,0,0,0,2.1-2.36,2,2,0,0,0,.12-.63c.55-5-9.74-12.38-23.68-16.84s-26.45-4.38-29-.08A4,4,0,0,0,198.14,157.11Z"/><path class="cls-10" d="M227.11,153.34c14,4.47,24.24,11.82,23.69,16.84-.05.5-.88,3,2.57-8.44.92-3-2.35-7.18-8.69-11.11a72.17,72.17,0,0,0-23.42-8.79c-10.93-2-19.08-.79-20.4,3.11l-3.06,8.93v0c.07-.19.2-.43.26-.57C200.62,149,213.22,148.94,227.11,153.34Z"/><polygon class="cls-2" points="326.55 163.63 321.41 166.09 315.24 161.41 315.24 161.41 315.94 155.58 326.55 163.63"/><polygon class="cls-2" points="315.24 161.41 315.24 161.41 312.84 181.48 303.85 178.55 306.94 152.65 295.28 153.43 315.03 124.11 326.55 163.63 315.94 155.58 315.24 161.41"/><polygon class="cls-2" points="312.84 181.48 307.71 183.94 298.71 181.01 298.75 180.99 303.85 178.55 312.84 181.48"/><polygon class="cls-2" points="306.94 152.65 303.85 178.55 298.75 180.99 298.71 181.01 301.81 155.11 306.94 152.65"/><polygon class="cls-2" points="306.94 152.65 301.81 155.11 290.15 155.89 295.28 153.43 306.94 152.65"/><polygon class="cls-2" points="295.28 153.43 290.15 155.89 309.89 126.57 315.03 124.11 295.28 153.43"/><polygon class="cls-2" points="315.03 124.11 294.32 153.89 295.28 153.43 296.42 153.35 315.03 124.11"/><polygon class="cls-2" points="306.94 152.65 304.68 178.82 303.85 178.55 302.83 179.04 298.75 180.99 303.28 177.97 306.54 152.84 306.94 152.65"/><polygon class="cls-22" points="326.55 163.63 321.41 166.09 315.24 161.41 315.24 161.41 315.94 155.58 326.55 163.63"/><polygon class="cls-23" points="315.24 161.41 315.24 161.41 312.84 181.48 303.85 178.55 306.94 152.65 295.28 153.43 315.03 124.11 326.55 163.63 315.94 155.58 315.24 161.41"/><polygon class="cls-24" points="312.84 181.48 307.71 183.94 298.71 181.01 298.75 180.99 303.85 178.55 312.84 181.48"/><polygon class="cls-25" points="306.94 152.65 303.85 178.55 298.75 180.99 298.71 181.01 301.81 155.11 306.94 152.65"/><polygon class="cls-26" points="306.94 152.65 301.81 155.11 290.15 155.89 295.28 153.43 306.94 152.65"/><polygon class="cls-25" points="295.28 153.43 290.15 155.89 309.89 126.57 315.03 124.11 295.28 153.43"/><polygon class="cls-27" points="315.03 124.11 294.32 153.89 295.28 153.43 296.42 153.35 315.03 124.11"/><polygon class="cls-27" points="306.94 152.65 304.68 178.82 303.85 178.55 302.83 179.04 298.75 180.99 303.28 177.97 306.54 152.84 306.94 152.65"/></g></g></g></svg>