<svg xmlns="http://www.w3.org/2000/svg" xmlns:xlink="http://www.w3.org/1999/xlink" viewBox="0 0 2726.79 1264.93"><defs><style>.cls-1,.cls-3{mask:url(#mask);}.cls-1{filter:url(#luminosity-noclip-3);}.cls-2,.cls-4{mix-blend-mode:multiply;}.cls-2{fill:url(#linear-gradient);}.cls-3{filter:url(#luminosity-noclip-4);}.cls-4{fill:url(#linear-gradient-2);}.cls-5{isolation:isolate;}.cls-6{mask:url(#mask-3);}.cls-7{fill:url(#linear-gradient-3);}.cls-8{mask:url(#mask-4);}.cls-9{fill:url(#linear-gradient-4);}.cls-10{fill:url(#linear-gradient-5);}.cls-11{fill:#e55353;}.cls-12{fill:#3b3b40;}.cls-13{fill:#eea886;}.cls-14{fill:#3c4145;}.cls-15{fill:#f54242;}.cls-16{fill:#a77860;}.cls-17{fill:#2f4563;}.cls-18{fill:#525252;}.cls-19{fill:#0e1e2b;}.cls-20{fill:#5b94e2;}.cls-21{fill:#665955;}.cls-22{fill:#877671;}.cls-23{fill:#34395c;}.cls-24{fill:#3c4169;}.cls-25{fill:#393d63;}.cls-26{fill:#3e6499;}.cls-27{fill:#2b2d4a;}.cls-28{fill:#363a5e;}.cls-29{fill:#3f446e;}.cls-30{fill:#eddad3;}.cls-31{fill:#e8734d;}.cls-32{fill:#cfbeb8;}.cls-33{fill:#d6c5be;}.cls-34{fill:#494f80;}.cls-35{fill:#6a77bf;}.cls-36{fill:#323657;}.cls-37{fill:#fae6de;}.cls-38{fill:#252740;}.cls-39{fill:#3d426b;}.cls-40{fill:#353a3d;}.cls-41{fill:#81807e;}.cls-42{fill:#292c47;}.cls-43{fill:#223247;}.cls-44{fill:#616161;}.cls-45{fill:#e0cec7;}.cls-46{fill:#c98462;}.cls-47{fill:#fff;}.cls-48{fill:#162d40;}.cls-49{fill:#1d3b54;}.cls-50{fill:#285173;}.cls-51{fill:#252e3b;}.cls-52{fill:#54281a;}.cls-53{fill:#873f2b;}.cls-54{fill:#587aa3;}.cls-55{fill:url(#linear-gradient-6);}.cls-56{fill:#ffca55;}.cls-57{fill:#6bb0ff;opacity:0.73;}.cls-57,.cls-69{mix-blend-mode:screen;}.cls-58{fill:#434343;}.cls-59{fill:#545554;}.cls-60{fill:#decbc4;}.cls-61{fill:#495055;}.cls-62{fill:#5d676c;}.cls-63{fill:#e2d2ca;}.cls-64{fill:#51565c;}.cls-65{fill:#f5e2d9;}.cls-66{fill:#464157;}.cls-67{fill:#ad9f99;}.cls-68{fill:#69737a;}.cls-69{fill:#a3cdff;opacity:0.98;}.cls-70{fill:#db9c7c;}.cls-71{filter:url(#luminosity-noclip);}</style><filter id="luminosity-noclip" x="0" y="-8495.46" width="2726.79" height="32766" filterUnits="userSpaceOnUse" color-interpolation-filters="sRGB"><feFlood flood-color="#fff" result="bg"/><feBlend in="SourceGraphic" in2="bg"/></filter><mask id="mask" x="0" y="-8495.46" width="2726.79" height="32766" maskUnits="userSpaceOnUse"><g class="cls-71"/></mask><linearGradient id="linear-gradient" x1="1363.39" y1="104.42" x2="1363.39" y2="483.85" gradientUnits="userSpaceOnUse"><stop offset="0" stop-color="#fff"/><stop offset="1"/></linearGradient><linearGradient id="linear-gradient-2" x1="1363.39" y1="267.08" x2="1363.39" y2="584.42" xlink:href="#linear-gradient"/><filter id="luminosity-noclip-3" x="0" y="0" width="2726.79" height="1264.93" filterUnits="userSpaceOnUse" color-interpolation-filters="sRGB"><feFlood flood-color="#fff" result="bg"/><feBlend in="SourceGraphic" in2="bg"/></filter><mask id="mask-3" x="0" y="0" width="2726.79" height="1264.93" maskUnits="userSpaceOnUse"><g class="cls-1"><polygon class="cls-2" points="2726.79 174.65 2726.79 1264.93 0 1264.93 0 428.58 0 428.58 0 211.1 88.2 211.1 88.2 321.88 200.54 321.88 244.99 373.61 290.08 373.61 290.08 105.59 393.83 105.59 393.83 174.65 481.89 174.65 481.89 307.96 600.17 307.96 600.17 140.69 693.52 140.69 693.52 211.06 742.06 211.06 784.08 162.17 831.89 162.17 831.89 0 965.55 0 965.55 240.68 1102.18 240.68 1102.18 298.68 1155.14 298.68 1155.14 211.1 1357.02 211.1 1357.02 307.96 1434.24 307.96 1434.24 174.65 1552.02 174.65 1552.02 373.61 1558.9 373.61 1558.9 105.59 1662.69 105.59 1662.69 174.65 1750.71 174.65 1750.71 307.96 1868.96 307.96 1868.96 140.69 1962.31 140.69 1962.31 211.06 2010.92 211.06 2052.93 162.17 2100.71 162.17 2100.71 0 2234.33 0 2234.33 240.68 2371.04 240.68 2371.04 298.68 2424 298.68 2424 211.1 2530.29 211.1 2530.29 307.96 2703.02 307.96 2703.02 174.65 2726.79 174.65"/></g></mask><linearGradient id="linear-gradient-3" x1="1363.39" y1="104.42" x2="1363.39" y2="483.85" gradientUnits="userSpaceOnUse"><stop offset="0" stop-color="#ededed"/><stop offset="1" stop-color="#fff"/></linearGradient><filter id="luminosity-noclip-4" x="0" y="287.23" width="2726.79" height="592.87" filterUnits="userSpaceOnUse" color-interpolation-filters="sRGB"><feFlood flood-color="#fff" result="bg"/><feBlend in="SourceGraphic" in2="bg"/></filter><mask id="mask-4" x="0" y="287.23" width="2726.79" height="592.87" maskUnits="userSpaceOnUse"><g class="cls-3"><polygon class="cls-4" points="0 880.1 0 334.88 102.7 334.88 102.7 434.49 220.7 434.49 256.71 470.5 648.27 470.5 709.19 409.59 832.17 409.59 832.17 307.29 939.71 307.29 939.71 445.22 1137.76 445.22 1214.08 368.9 1458.97 368.9 1458.97 497.51 1567.78 497.51 1620.74 444.54 1754.74 444.54 1792.67 482.48 1958.57 482.48 1958.57 339.93 2076.57 339.93 2076.57 386.98 2170.05 386.98 2170.05 287.23 2255.87 287.23 2255.87 437.99 2496.47 437.99 2518.98 460.49 2726.79 460.49 2726.79 880.1 0 880.1"/></g></mask><linearGradient id="linear-gradient-4" x1="1363.39" y1="267.08" x2="1363.39" y2="584.42" gradientUnits="userSpaceOnUse"><stop offset="0" stop-color="#d4d4d4"/><stop offset="1" stop-color="#fff"/></linearGradient><linearGradient id="linear-gradient-5" x1="150.34" y1="1052.21" x2="2576.43" y2="1052.21" gradientUnits="userSpaceOnUse"><stop offset="0" stop-color="#ff9f55"/><stop offset="1" stop-color="#ffd255"/></linearGradient><linearGradient id="linear-gradient-6" x1="1012.4" y1="667.07" x2="1425.71" y2="667.07" gradientTransform="translate(2438.11 1334.14) rotate(-180)" xlink:href="#linear-gradient-5"/></defs><g class="cls-5"><g id="Layer_2" data-name="Layer 2"><g id="Слой_1" data-name="Слой 1"><g class="cls-6"><polygon class="cls-7" points="2726.79 174.65 2726.79 1264.93 0 1264.93 0 428.58 0 428.58 0 211.1 88.2 211.1 88.2 321.88 200.54 321.88 244.99 373.61 290.08 373.61 290.08 105.59 393.83 105.59 393.83 174.65 481.89 174.65 481.89 307.96 600.17 307.96 600.17 140.69 693.52 140.69 693.52 211.06 742.06 211.06 784.08 162.17 831.89 162.17 831.89 0 965.55 0 965.55 240.68 1102.18 240.68 1102.18 298.68 1155.14 298.68 1155.14 211.1 1357.02 211.1 1357.02 307.96 1434.24 307.96 1434.24 174.65 1552.02 174.65 1552.02 373.61 1558.9 373.61 1558.9 105.59 1662.69 105.59 1662.69 174.65 1750.71 174.65 1750.71 307.96 1868.96 307.96 1868.96 140.69 1962.31 140.69 1962.31 211.06 2010.92 211.06 2052.93 162.17 2100.71 162.17 2100.71 0 2234.33 0 2234.33 240.68 2371.04 240.68 2371.04 298.68 2424 298.68 2424 211.1 2530.29 211.1 2530.29 307.96 2703.02 307.96 2703.02 174.65 2726.79 174.65"/></g><g class="cls-8"><polygon class="cls-9" points="0 880.1 0 334.88 102.7 334.88 102.7 434.49 220.7 434.49 256.71 470.5 648.27 470.5 709.19 409.59 832.17 409.59 832.17 307.29 939.71 307.29 939.71 445.22 1137.76 445.22 1214.08 368.9 1458.97 368.9 1458.97 497.51 1567.78 497.51 1620.74 444.54 1754.74 444.54 1792.67 482.48 1958.57 482.48 1958.57 339.93 2076.57 339.93 2076.57 386.98 2170.05 386.98 2170.05 287.23 2255.87 287.23 2255.87 437.99 2496.47 437.99 2518.98 460.49 2726.79 460.49 2726.79 880.1 0 880.1"/></g><path class="cls-10" d="M2576.43,1052.22c0,37.29-543.1,67.52-1213,67.52s-1213.05-30.23-1213.05-67.52,543.1-67.53,1213.05-67.53S2576.43,1014.92,2576.43,1052.22Z"/><path class="cls-11" d="M946.81,1006.41s16.71,28.32,23.76,32.95c9.58,6.28,3.58,12.62-1,12.63s-27.77,1.67-32.89-4.14-7.66-23.21-12.42-27.76-9.12-21.35,2.32-27.05C939.15,986.79,946.81,1006.41,946.81,1006.41Z"/><path class="cls-12" d="M940.54,991.56S958.71,1027.12,962,1032s-6.22,4.89-12.11,2.56-21.18-25.91-22.84-30.45-.45-11.09-.45-11.09Z"/><polygon class="cls-11" points="920.19 1011.79 924.6 1045.8 926.94 1045.9 926.22 1021.44 920.19 1011.79"/><path class="cls-11" d="M803.55,978.79s4,32.64,8.62,39.7c6.27,9.58-1.76,13-5.93,11.2s-26.13-9.57-28.5-16.94,2.25-24.34-.29-30.41.17-23.21,12.93-23.87C804.36,957.76,803.55,978.79,803.55,978.79Z"/><path class="cls-12" d="M803.74,962.68s2.45,39.85,3.51,45.66-7.65,2-12.12-2.48-9.06-32.22-8.77-37,4-10.35,4-10.35Z"/><polygon class="cls-11" points="776.99 973.1 767.46 1006.04 769.56 1007.07 778.67 984.35 776.99 973.1"/><path class="cls-13" d="M944.12,688.75c-.54-2.64-20.72-41.74-24.36-53.52S913,612.65,911.17,608c-.12-.31-.32-.84-.58-1.56-1.24-3.46-3.92-11.19-6.7-18.4-.2-.51-.39-1-.59-1.51l-.28-2.75c-1.95-5,0-7.88,0-11.87a12,12,0,0,0-.63-4l-.06-.16c-2.29-6.71-4-12.56-4.35-15.85-1.13-10.94-7-59.58-7-59.58s19.13,9.9,21.26,17.55c3.22,11.59,6.51,28.85,7.33,34.15s9.13,49.48,10.86,58.47,3.73,16.59,6.22,22.53,19.11,58.91,20.14,63.65S944.66,691.39,944.12,688.75Z"/><path class="cls-13" d="M943.87,683.21a99.9,99.9,0,0,1-1.65,12.65c-.64,3.16,2,22.73,2.52,25.23.44,2.1,1.64.62,2.13-.89.28-.87.45-7.81,1.11-11.6.55-3.17,1.27-4.45,2-3.56s3.71,13.25,3.44,18.79,3,17.66,5.47,15.42,5.45-25.62,3.52-33.92S955.71,687,955.71,687Z"/><path class="cls-12" d="M873.29,731c.83,4,6.16,20.84,12.12,39.53h0c5.44,17,11.41,35.63,15,47.49,1.33,4.43,2.34,7.92,2.86,10,3.43,14.05-.43,36.08-1.68,54.49s25.48,121.59,25.48,121.59c4.69,2.19,13.48-12.57,13.48-12.57-3.43-6.56-2.95-122.93-1.08-130.11s3.12-27.16,1.25-35a30.42,30.42,0,0,1-.61-6.26c-.16-9.85,1.87-26.13,3.11-44,1.56-22.47-7.18-78.34-8.43-83.34-.11-.46-.3-1.1-.53-1.9-2.3-7.83-9.7-30.08-9.7-30.08-15-4.47-26.32-5.27-34.76-3.55-11.17,2.27-17.32,9-20.39,17.49C862.06,695.17,872.21,725.77,873.29,731Z"/><path class="cls-12" d="M788.78,961.23l15.2,5.35c2.58-12.48,64.32-99.83,68.08-109.5s7.79-28.4,7.79-35.27c0-1.23.08-3.3.26-6,.66-10.41,2.57-30,5.3-45.32.51-2.85,1.05-5.54,1.61-8,3-13.18,3.55-58.2,3.59-84.67,0-11.78-.07-19.89-.07-19.89l-.75-.58c-5.69-4.31-42.2-30.57-54.93-6a73.86,73.86,0,0,0-6.89,20.7c-4.08,22.25-.07,47.31,3.22,70.13,2.82,19.53,8.22,47.13,9.77,67.61.86,11.27.55,20.39-2,24.82-7.18,12.48-14.2,23-28.72,67.1C805.52,916,788.78,961.23,788.78,961.23Z"/><path class="cls-14" d="M899.51,430.7s7.94-51.37-34.6-50.42-42,26.35-41.21,51.55,17.06,23.32-1.32,58.38,15.92,35.06,15.92,35.06l26.61-36.58Z"/><path class="cls-13" d="M869.57,385.21s28.81,4.55,29.94,45.49-7.77,49.65-33,41.13-33.17-51.37-33.74-58S830.71,380.28,869.57,385.21Z"/><path class="cls-15" d="M819,527.6c-.11,14.1,16.09,47.8,18.59,58.2s6.45,13.73,3.12,27.05S827,671.22,827.45,675.18s92.86,18.53,106.8,15.82c0,0-17-63.59-18.29-70.88s1.52-34.58,2.14-42.28,8.42-24.27,8.16-32-4.13-14.65-9.53-23.05c-1.68-2.6-3.43-5.25-5.19-7.83-5.72-8.4-11.44-16-14.25-18.65a45,45,0,0,0-5.74-4.58h0a26.68,26.68,0,0,0-5.9-3.11l-24.77-3.95s-15.43,5.58-24.31,7.66C836.56,492.33,819.24,494.86,819,527.6Z"/><path class="cls-15" d="M891.54,491.73l14.35,22.62,13.25,20.88c0-.11-.92-3.27-2.41-12.43-.29-1.74-.59-3.69-.92-5.88a15.64,15.64,0,0,0-.42-1.92h0c-5.67-13.06-23.19-22.92-23.84-23.25Z"/><path class="cls-13" d="M819.81,515.71s4-26.83,23.64-22.41c18.89,4.25,1.19,39.43-.2,43.59s-15.38,38.18-16.59,42.64c-3.84,14.1-.24,14.43,5.53,17.76,17,9.81,52.08,9.16,56.12,11.86s3.8,11.09-3,11.39c-8.83.38-59.3-4.37-66.34-5.06-6.83-.67-20.42-1.24-16.85-25.51C804.53,573.63,819.81,515.71,819.81,515.71Z"/><path class="cls-13" d="M850.33,453.39c2.5,4.71,5.13,34,5.13,34s35.24,13.32,31.63,5.79c-1.63-3.42-2.11-7.86-2.15-11.68a57.76,57.76,0,0,1,.39-7.11c.1-.77.17-1.22.17-1.22S847.83,448.67,850.33,453.39Z"/><path class="cls-14" d="M881.32,414.59s-14.78,24.07-28.24,33.54-6.63,17.06-6.63,17.06-35.12-73.92-1.73-79,53.85-5.5,54.79,44.54C899.51,430.7,884.35,414.21,881.32,414.59Z"/><path class="cls-16" d="M865.24,471.35c5.41,8,19.7,10.13,19.7,10.13h0a57.76,57.76,0,0,1,.39-7.11C876.15,476.14,865.24,471.35,865.24,471.35Z"/><path class="cls-15" d="M915.33,514.84h0s.77,1.59,1.4,8L911.54,515s-9.27-13.29-12.45-16.74a52.3,52.3,0,0,0-7.54-6.49S909.79,500.51,915.33,514.84Z"/><path class="cls-17" d="M909.73,543.54l-55.53-4.6a4.29,4.29,0,0,0-4.62,3.94l-6.88,92a4.27,4.27,0,0,0,3.82,4.57l53.31,5.49a4.29,4.29,0,0,0,4.7-3.84l9.1-92.88A4.27,4.27,0,0,0,909.73,543.54Z"/><path class="cls-13" d="M857.31,605.41s10.52,1.76,11.5,1.6,5.14-7,10-8.19,10.84-2.17,12.33-3.09,1.89,3.79-2.74,5.73-5.78,4.51,2.88,6.25c4.8,1,22.72-1,21.23,2-.88,1.78-18.15,3-18.15,3s18.64-.09,19.27,1c1.25,2.22-17.44,3-18.22,2.93,0,0,16,.92,16.16,2.35.17,1.79-16,1-15.9,1.32,0,0,12.73.88,12.6,2-.17,1.42-11.37,1.59-13.54,1.34s-24.12-2.75-27.8-3.49-9.9-1.16-9.9-1.16Z"/><path class="cls-13" d="M837.22,599.7a189.45,189.45,0,0,0,20.09,5.71c9.67,2.05-.32,13.64-.32,13.64s-16.76-1.55-24.82-2.34C828.27,616.33,837.22,599.7,837.22,599.7Z"/><path class="cls-15" d="M845.22,534.66s-22.62-8.87-29.31-9.39c0,0,4.55-36.31,26.76-32.46S845.22,534.66,845.22,534.66Z"/><path class="cls-15" d="M831.19,742.18c2.82,19.53,8.22,47.13,9.77,67.61,0,0,15.93,3.18,39.15,6,6.28.77,13.1,1.52,20.29,2.18,12.44,1.14,26,2,39.7,2.22-.16-9.85,1.87-26.13,3.11-44,1.56-22.47-7.18-78.34-8.43-83.34-.11-.46-.3-1.1-.53-1.9-11.23-6.18-27.34-10.35-43.64-13.16-7.17-1.24-14.37-2.21-21.21-3-21.37-2.4-39.23-2.77-41.43-2.81C823.89,694.3,827.9,719.36,831.19,742.18Z"/><path class="cls-13" d="M885.64,488.62s16.6,25.53,11,27.76-36-3-49-27.22C847.64,489.16,867,479.24,885.64,488.62Z"/><path class="cls-18" d="M575,717.44l-6.19-10.73a6.51,6.51,0,0,1,2.38-8.91l35.08-20.25a6.51,6.51,0,0,1,8.91,2.39l6.2,10.72a6.54,6.54,0,0,1-2.39,8.92L583.9,719.83A6.53,6.53,0,0,1,575,717.44Z"/><path class="cls-13" d="M580.68,712.57a12.75,12.75,0,0,1-3.23-2.5s-1.26-2.17-2.25-3.65a13.23,13.23,0,0,0-.81-1.11,23.33,23.33,0,0,1-4.56-5.95c-1.44-3-4.31-17.55-4.31-17.55l7.42-3.79,6.45-4.53s17,11.21,18.7,13.85a7.68,7.68,0,0,1,.44.78c1.19,2.37,1.08,4.64,1.56,6,.18.48,1.59,5.42.72,6.69a5,5,0,0,1-4.21,2.46s-2.5,3.34-5.23,4c0,0-2.21,3.16-5.85,3C585.52,710.26,582.92,713.21,580.68,712.57Z"/><path class="cls-19" d="M441.58,748.32l-33.65-7.51a6.36,6.36,0,0,1-4.81-7.58L407.85,712a6.37,6.37,0,0,1,7.58-4.82l33.65,7.51a6.37,6.37,0,0,1,4.82,7.58l-4.74,21.22A6.36,6.36,0,0,1,441.58,748.32Zm-27.07-37a2.09,2.09,0,0,0-2.5,1.59l-4.73,21.21a2.1,2.1,0,0,0,1.58,2.5l33.65,7.51a2.08,2.08,0,0,0,2.49-1.59l4.74-21.21a2.1,2.1,0,0,0-1.58-2.5Z"/><path class="cls-13" d="M417.8,719.48a12.43,12.43,0,0,1-.72-3.88s.47-2.37.71-4.07a12.38,12.38,0,0,0,.13-1.33,22.34,22.34,0,0,1,.52-7.22c.89-3.09,8.14-15.44,8.14-15.44l7.79,2,7.56.86s5.13,19,4.64,22a7.35,7.35,0,0,1-.19.84c-.66,2.48-2.2,4-2.69,5.31-.19.46-2.33,4.93-3.77,5.29a4.83,4.83,0,0,1-4.62-.92s-3.95.81-6.35-.46a7.21,7.21,0,0,1-6.16-1.56S419,721.38,417.8,719.48Z"/><path class="cls-20" d="M498.61,545.24c-1.5,1.93-7.44,13-13.73,24.78h0l-3.12,5.87-2.48,4.65q-1.33,2.52-2.61,4.88c-3.51,6.58-6.47,12.05-7.95,14.5-4.24,7.06-11.13,32.72-12.81,37.8s-10,55.36-10,55.36-26.51.08-25.7-1.92,10.89-56.26,12.91-64.43C435.83,616,446.07,587.14,447.1,585s22.59-47.15,25.51-54.89c3.1-8.19,4.7-15.59,17.58-30.91s27.6-7.3,27.6-7.3C529.79,500.48,501.67,541.28,498.61,545.24Z"/><rect class="cls-21" x="352.02" y="734.34" width="129.35" height="92.68" transform="translate(180.04 -72.02) rotate(12.58)"/><rect class="cls-22" x="356.26" y="734.81" width="129.35" height="53.72" transform="matrix(0.98, 0.22, -0.22, 0.98, 176, -73.4)"/><path class="cls-13" d="M505.56,482.09c1.62-8.66,0-21.18,0-21.18s31.64,14.63,26.16,18.6c-1.42,1-2.41,3-3.09,5.4-1.93,6.75-1.35,16.94-1.35,16.94l10.46,12.21C547,526.77,504.76,486.3,505.56,482.09Z"/><path class="cls-23" d="M400.67,958.46s2.92,11.73,5.56,26.23,14.91,25.14,16.69,27.7,9.76,12.85,2.78,14.09-35.66-17.9-43.51-28.9c0,0-4.69-10.41-5.33-11s-4.64,2.49-4.64,2.49L364.89,984a37.84,37.84,0,0,1-4.24-3.66c-1.13-1.32,1.54-8.73,1.94-9.43s13.3-18.45,21.58-22.26S400.67,958.46,400.67,958.46Z"/><path class="cls-24" d="M640.19,990.64s10.07,6.09,21.86,14.28,27.43,7.19,30.4,7.74,15.47,2.22,11.6,7.82-36.47,11.86-49.37,9.62c0,0-10.35-4-11.21-4s-1.42,4.86-1.42,4.86l-8.46,1.49a35.49,35.49,0,0,1-5.38.35c-1.68-.14-4.83-6.91-5.2-7.8s-3.74-21.72-.77-30S640.19,990.64,640.19,990.64Z"/><path class="cls-13" d="M410,939.93s-9.16,16.91-9.73,19.9-14.15,3.08-16.81-9.68c0,0,10.62-21.35,10.28-21.92S410,939.93,410,939.93Z"/><path class="cls-23" d="M505.16,755.14l-2.64,9.06c-1.06,3.6-2.38,8.08-3.83,13-6.64,22.57-16.24,54.93-18,59.49-2.76,7.11-15.47,27.92-17.37,29.12s-51.84,87-53.38,91.09c0,0-20.49-9.29-24.23-16.1,0,0,34.17-94.6,48-111.22,13.29-16,12.56-111.53,24.63-140.37S512.51,730.1,505.16,755.14Z"/><path class="cls-13" d="M633.67,971.59s5.48,17.85,7.16,20.3-7.45,11.71-18.05,4.73c0,0-7.54-21.89-8.17-22S633.67,971.59,633.67,971.59Z"/><path class="cls-25" d="M541.68,689.94s42.71,98.62,47.63,113.38,2.56,27.38,5.25,33.52S636.5,980.45,636.5,980.45s-20.76,11.37-30.15,6.8c0,0-35.54-90.47-43.05-105.28-7-13.92-11-41.86-20-59.83-6.34-12.58-84.15-108.6-84.83-144.06S541.68,689.94,541.68,689.94Z"/><path class="cls-13" d="M505.85,483.19s12.21,5,16.37,16.13,2.4,26,2.58,31.09,8.51,55.18,9.57,56.67,17.83,32.4,24.73,48.07,21.77,35.79,21.77,35.79l-11.46,6.72s-52.22-61.43-55.3-78.24S490.78,532,490.78,532,480.75,494.51,505.85,483.19Z"/><path class="cls-13" d="M528.7,390.64c10.52-.21,33.68,5.73,36.49,33.68a86.25,86.25,0,0,1-3,13.33c-2,5.85,2.8,23.39,1.4,24.21s-7.13,1.75-7.13,1.75-6.67,18.83-13.33,18.48-31.77-6.28-43-30.25S486.21,391.5,528.7,390.64Z"/><path class="cls-12" d="M565.19,424.32s-17.39,11.15-34.38,13-28.31,19-28.31,19-24.87-33.07-3.35-58.65S569.79,392,565.19,424.32Z"/><path class="cls-20" d="M553.26,580.33c-5.23,5.5-.94,18.24-1.64,25.49-.19,1.93-.79,8.28-1.63,16.7-.87,8.7-2,19.6-3.16,30.12h0c-.46,4.2-.93,8.33-1.39,12.25-1.47,12.4-2.86,22.51-3.76,25-2.58,7.25-59.92,7.59-82.61-17,0,0-4-8.08,22.05-55.13,5.22-9.43.1-56.24-4.11-68.63s-5.71-54.53,28.55-67.13c0,0,20.57,17.78,27.58,25.73s29.94,36.72,32.05,45.37S559,574.34,553.26,580.33Z"/><path class="cls-16" d="M531.72,479.51c-1.42,1-2.41,3-3.09,5.4a54.69,54.69,0,0,1-18.5-18.74C516.83,474.43,531.72,479.51,531.72,479.51Z"/><path class="cls-26" d="M551.62,605.82c-.19,1.93-.79,8.28-1.63,16.7h0c-5.24,5-40.88-63.89-24.09-83.5,0,0,11.89,46.24,13.18,48.58S551.62,605.82,551.62,605.82Z"/><path class="cls-20" d="M506.13,484.91s13.6,6.32,18,18,2.51,27.15,2.7,32.49,8.88,57.66,10,59.22,16.56,25.43,23.77,41.81S584,675.32,584,675.32l-19.53,10.95s-46.67-59-51.09-76.28c-4.72-18.48-22.15-73-22.15-73S476.19,490.43,506.13,484.91Z"/><path class="cls-26" d="M481.76,575.89l-2.48,4.65q-1.33,2.52-2.61,4.88c-1.16-14-1.7-48.26-1.7-48.26a155.63,155.63,0,0,0,3,15.52C479.44,557.65,481.46,573.5,481.76,575.89Z"/><path class="cls-12" d="M523.93,386.08s-44.13-3.41-42.17,50.29-7.05,67.81-26.57,92.14-2.41,54.67,16.52,39,40.61-50.89,41-88.62S523.93,386.08,523.93,386.08Z"/><path class="cls-13" d="M523.79,436.36c0-3.28-3.51-8.3-9-4s1.29,20.11,5.73,18.71S523.79,439.75,523.79,436.36Z"/><path class="cls-27" d="M502.52,764.2c-1.06,3.6-2.38,8.08-3.83,13-5-10.45-16.53-43.7-16.89-44.73C484.67,737.26,502.09,763.58,502.52,764.2Z"/><path class="cls-28" d="M2066.62,1018.27s-15.26,21.43-13.16,24.82,18.13,3.89,27.9,0,10-29,14.41-39.78c1.85-4.52-2.11-17.86-7.67-18.83s-11.62,1.88-11.62,1.88S2082.25,1001.56,2066.62,1018.27Z"/><path class="cls-13" d="M2076.38,986.19A104.35,104.35,0,0,0,2072,1004c-1,7.23-10.87,22.58-10.41,24.52s13,3.7,18.14-1.31,8.4-19.55,9.53-28.26a73.08,73.08,0,0,1,2.37-12.11S2081.26,980.85,2076.38,986.19Z"/><path class="cls-28" d="M2199.4,1018.62s-14.7,21.08-12.61,24.47,18.13,3.89,27.9,0,10-29,14.41-39.78c1.85-4.52-2.11-17.86-7.67-18.83s-12.09,2.08-12.09,2.08S2215,1001.91,2199.4,1018.62Z"/><path class="cls-13" d="M2209.34,986.56a149.3,149.3,0,0,1-3,17c-1.86,7-11.86,23-11.4,25s13,3.7,18.14-1.31,9.07-19.49,9.53-28.26a48.46,48.46,0,0,0-1.16-14.49S2214.22,981.23,2209.34,986.56Z"/><path class="cls-13" d="M2135.86,637.67s-13.09,63.55-16.1,79.55-11.42,93.49-12.33,106.66-13.66,62.83-13,67.53-18.92,99.24-18.92,99.24,6.67,5.6,13.69.5c3.62-2.62,42.82-88.5,42.82-112,0-32.53,23.05-75,26-82.26,27.63-67.6,22.19-88.26,25.8-92.65s3.92,2.71,6,12.43,6.61,93.81,9.32,104.47.6,46.75,2.11,64.94,8.1,100.5,8.1,100.5,5.11,8.36,12.28.22c1.55-1.75,12.38-91.68,12.68-113.33s.62-51.5,1.21-60.86c5.57-89.7,19.26-102.52-2.3-166C2192.83,527.72,2135.86,637.67,2135.86,637.67Z"/><path class="cls-29" d="M2223.77,619.91s37.29,54.47,21.23,170.33c0,0-88.45,12.55-135.84-14.53,0,0,19.6-119.45,26.7-138S2223.77,619.91,2223.77,619.91Z"/><polygon class="cls-28" points="2096.18 1001.42 2096.18 1023.86 2093.39 1023.86 2093.39 1006.51 2096.18 1001.42"/><polygon class="cls-28" points="2229.51 1001.42 2229.51 1023.86 2226.72 1023.86 2226.72 1006.51 2229.51 1001.42"/><path class="cls-13" d="M2179.55,378.4s-25,25.16-16.47,57.55,22.18,32.58,37.24,18.65,23.94-28.6,25.93-44.89S2202.36,356,2179.55,378.4Z"/><path class="cls-13" d="M2174.67,486.45a147.14,147.14,0,0,0,6.29-18c.46-1.68.89-3.39,1.25-5.1,1.27-6,1.79-11.92.42-16-4-11.77,25-3.62,25-3.62s-5.61,31.13,0,41.62S2174.67,486.45,2174.67,486.45Z"/><path class="cls-30" d="M2248.06,501.28c-4.56-9.1-8-12-16.78-14.81-4.93-1.56-27-7.29-27-7.29l-26.46-1s-18.19,3-32.31,7.92S2113,517.76,2113,517.76s25.52,59.91,30.41,77.1,1.63,43.8,1.63,43.8c30.58,16.65,79.63-1.63,79.63-1.63a98.28,98.28,0,0,1-1.92-40.25c.23-1.31.49-2.56.77-3.73s.63-2.61,1.05-4.32l.06-.23c19.45,2,37.69,2.8,38.17-1.1C2264.9,569.82,2254.33,513.78,2248.06,501.28Zm-13.48,68.31c-.79-.12-2.45-.13-4.21-.29,2.16-6,4.56-11.37,4.56-11.37C2236.31,561.78,2241.55,570.63,2234.58,569.59Z"/><path class="cls-31" d="M2187.7,396.5s11.94,21.72,19.36,29.5,6.55,14,6.55,14,28.93-35.68,8.29-57.22-47.23-12.84-55,6-4.93,41.81-4.93,41.81S2162.18,408.44,2187.7,396.5Z"/><path class="cls-31" d="M2195.58,373.76s-2.89-15.9,22-22.22,36.14,22.4,33.07,39.93-24.39,62-12.83,67.75,16.08-6.69,16.08-6.69-3.61,21.86-19.69,16.8-13.92-40.58-11.49-54.74S2195.58,373.76,2195.58,373.76Z"/><path class="cls-16" d="M2203.61,451.45c-.1.22-6.4,14.73-22.65,17,.46-1.68.89-3.39,1.25-5.1C2182.21,463.33,2191.11,465.12,2203.61,451.45Z"/><path class="cls-32" d="M2234.58,558.15s-1.19,2.5-4.45,12.39c-3.33-27.77-1.59-42.22-1.59-42.22C2228.9,543.16,2234.58,558.15,2234.58,558.15Z"/><path class="cls-30" d="M2199.46,370.43s17.7,3.4,26.53,17.81c0,0-1.79-13.05-10.6-16.81A22.55,22.55,0,0,0,2199.46,370.43Z"/><path class="cls-32" d="M2224.52,588.73c-.42,1.71-.78,3.25-1.05,4.32s-.54,2.42-.77,3.73c-11-6-18.83-10.62-18.83-10.62C2206.82,586.82,2224.52,588.73,2224.52,588.73Z"/><path class="cls-13" d="M2205.81,479.57,2174.67,505l3.2-26.74S2196,474.29,2205.81,479.57Z"/><polygon class="cls-33" points="2183.67 500.64 2174.67 504.95 2205.25 474.63 2183.67 500.64"/><path class="cls-34" d="M2226.36,586.53c-4.29,17.77,11.57,57.74,11.57,57.74l-31.43,9.83a8.06,8.06,0,0,1-10.28-6c-4.21-19.57-14.08-67.71-15.26-94.48-1.5-34.16,23.37-74.45,23.37-74.45,44.2,7.58,32.08,74.45,32.08,74.45s-1.6,4.21-3.75,10.79h0c-.54,1.65-1.11,3.46-1.7,5.38C2229.44,574.75,2227.82,580.49,2226.36,586.53Z"/><path class="cls-34" d="M2174.74,479.67l.55-1.46s-22.64,3.44-34.14,9.19-33.53,35.42-33.53,35.42l28.81,38c0,29.23-4.71,81.19-4.71,81.19l13.17,7.59a5.37,5.37,0,0,0,8.05-4.55c.37-19.76,1.26-66.68,1.72-89.4.6-29.23,21.45-76.5,21.45-76.5Z"/><path class="cls-13" d="M2133.7,616.7s21.72.84,25.1,0,25.92-10.62,27.27-20.27-52.37,8.65-52.37,8.65Z"/><polygon class="cls-35" points="2201.09 586.53 2112.95 576.22 2152.77 608.61 2201.09 586.53"/><polygon class="cls-36" points="2152.77 608.61 2201.09 592.14 2201.09 586.53 2151.14 602.56 2152.77 608.61"/><path class="cls-13" d="M2175.49,570.35a75.89,75.89,0,0,1-11.38-.83c-3.16-.64-11,.24-13,2s-8.36,14.13-9.57,14.88.62,2.5,2.73,1.63c0,0,1.94,5.4,6.73,3.38s8-6.44,10.55-7.22,17.11-4.71,17.11-4.71S2179.25,569,2175.49,570.35Z"/><polygon class="cls-37" points="2179.54 473.27 2162.76 499.84 2154.66 504.95 2173.53 478.49 2179.54 473.27"/><polygon class="cls-33" points="2162.76 499.84 2174.67 504.95 2177.87 478.21 2179.54 473.27 2162.76 499.84"/><path class="cls-34" d="M2136.36,604.27s-.91,11.22,0,13.57c0,0-54.36-5.43-59.43-13s-4.88-16.83-4.88-16.83Z"/><polygon class="cls-38" points="2152.77 608.61 2127.07 513.05 2029.34 502.74 2056.12 590.7 2152.77 608.61"/><polygon class="cls-37" points="2205.25 474.63 2183.67 500.64 2195.48 511.18 2208.22 480.04 2205.25 474.63"/><path class="cls-39" d="M2233.39,562.23l-.73,2.2c-.54,1.65-1.11,3.46-1.7,5.38-4.17,1.31-40.28-1.34-40.28-1.34S2220.9,561.38,2233.39,562.23Z"/><path class="cls-34" d="M2231.3,569.1c-5.81-.44-15.34-1.06-23.14-1.09-12.13,0-32.87,1.3-32.87,1.3l2.47,13s36.75,6,56.82,7.37h0s26.49,3,28.45-.92-.65-29.32-5-52.18-8.73-36-14-43.09S2211,480.9,2211,480.9l23.6,77.25s3.39,6.89,3.21,9.86c-.05.9-.68,1.33-1.52,1.49l-3.7-.3Z"/><path class="cls-13" d="M2034.49,650.91s4.45,10.15,8.71,8.87,10.58-.89,12.56-.68c2.66.3,11.29-1.73,10.78,1.5s-14.09,4-16.94,4.69,7.38,7.92,8.09,10.7-13.55,18.87-19.92,13.11-9-16.12-10.35-16.91-7.19-9.05-7.19-9.05Z"/><path class="cls-13" d="M2056.55,674.29s18.22,18.94,18.28,21.22-1.11,3.22-2.89,1.52-18.19-17.78-18.19-17.78,17.46,26.06,17.94,27.9c.28,1.08-1.89,3-2.94,2.19s-19.94-25.63-19.94-25.63,16.26,24.36,16.17,26a2.19,2.19,0,0,1-3.85,1.06c-1.34-1.72-17.8-23.45-17.8-23.45s10.63,18.49,9.68,19.91c-.57.86-2.37,2.61-5-2.25s-10-15.66-10-15.66Z"/><path class="cls-40" d="M1808.64,1006.66s-7,5-10.85,8.48-9.14,7.29-12.36,16.2,1.88,15.51,10.61,16,22.12-6.06,23.43-14.06,11.55-7,12.89-12.62-.45-12.56-.45-12.56Z"/><path class="cls-41" d="M1809.81,1000.11l-1.17,6.55s3.6,6.66,23.27,1.48l-1-6.46Z"/><path class="cls-40" d="M1831.91,1008.14s-4.43.58-7.59,1.07-9.4-3.53-15.68-2.55l1.94,8S1831.47,1010.71,1831.91,1008.14Z"/><path class="cls-40" d="M1934.25,1005.35s7,5,10.85,8.48,9.14,7.29,12.36,16.21-1.88,15.5-10.61,16-22.12-6.06-23.43-14-11.55-7-12.89-12.62.45-12.57.45-12.57Z"/><path class="cls-41" d="M1933.08,998.8l1.17,6.55s-3.6,6.66-23.27,1.48l1-6.45Z"/><path class="cls-42" d="M1942.49,849.81c0,14.4-2.06,150.19-2.06,150.19-1.44,4.79-28.33,6.36-33.13,4s-4-137.06-4.84-151.57-12.55-121.28-16.75-120.8-28,101-31.35,112.09-16.58,159.51-16.58,159.51c-16.41,5.71-33.18.69-33.18.69s6.27-150.38,6.27-168.23c0-6.63,2-11.64,3.84-46.87,1.43-26.86,8.9-81.89,13.91-119.75.17-1.35.34-2.64.51-3.88,1-7.37,1.71-12.79,2.07-15.38l.23-1.72c1.35-.62,2.76-1.2,4.23-1.72,35.14-12.63,102.91.73,102.91.73l.11,1,.41,3.5c.4,3.34,1,8.31,1.65,14.08,0,0,0,.09,0,.13l.06.53c2.36,20.53,3.53,31.81,5.39,53.72C1946.61,724.8,1942.49,835.42,1942.49,849.81Z"/><path class="cls-15" d="M1907,453.57s57.55,12.22,62.35,28.21,14.11,53.55,27.07,94.4c7.75,24.44,47.14,80.1,47.14,80.1S2021,672.89,2021,670.65s-53.07-73.06-53.71-81.7-16.73-52.79-16.73-52.79-7.62,84.9-7.62,98,3.31,53.41,3.31,53.41-23.14,19.22-64.55,17.06c0,0-58.5.25-57.69-22.76.72-20.28,5.71-141.75,4.43-142.39s-24.25,28.14-22,33.68,61.69,25.41,61.69,25.41,1.74,6.4-7.5,20.91c0,0-88.81-26-89.13-31.39s36.94-111,49.11-116.56c17.52-8,63.93-18.58,63.93-18.58Z"/><path class="cls-40" d="M1911,1006.83s4.43.58,7.59,1.08,9.4-3.54,15.68-2.56l-1.93,8S1911.42,1009.4,1911,1006.83Z"/><path class="cls-13" d="M1909,454.93c-.27,14.05-32.54,28.85-32.54,28.85s-7.85-26.27-5.13-27.64c1.07-.53,1.41-.86,1.54-3.25a49,49,0,0,0-.15-6.38c-.08-1-.16-1.63-.16-1.63s3.89-4.1,8.83-9c8.65-8.55,21-21.2,21-16.85,0,.23.34.35.27.67C1900.61,429.51,1909,454.93,1909,454.93Z"/><path class="cls-16" d="M1896.91,431.24h0c-.05.09-1.2,1.81-3.18,4.29-4.17,5.26-12,13.89-20.86,17.36a49,49,0,0,0-.15-6.38,14.63,14.63,0,0,1-2.71-.32,85.44,85.44,0,0,1,5.92-8.67l5.46-1.63Z"/><path class="cls-13" d="M1902.14,420.94c-2.36,5.12-4.59,8.83-5.23,10.3h0a17.9,17.9,0,0,1-3.18,4.29c-4.48,4.83-12.82,11.21-21,11a14.63,14.63,0,0,1-2.71-.32c-3.3-.73-7.21-2.26-9.36-6.47-17-33.25-4.69-60.43-4.69-60.43s46.43-13.13,53.69.85C1914.75,389.94,1907.67,408.9,1902.14,420.94Z"/><path class="cls-43" d="M1856,379.29s-4.31-.24-5.38-8.41,9.38-13.64,9.38-13.64a58.84,58.84,0,0,1,17.75-5.74c6.89-1,23.81-2.05,27.77,2.49,0,0,9.64-2.24,12.27,13.76,4.16,25.38-14.2,50-14.2,50s.16-16.58-3.5-18.78-6.81,3-6.81,3l-7.48,1.34s10.6-20.5-3-21.41S1863.76,380.71,1856,379.29Z"/><path class="cls-13" d="M1893.44,395.42c.71-7.31,13.93-10.1,13-2.44s-7.39,15-10.4,14.76S1892.9,401,1893.44,395.42Z"/><polygon class="cls-44" points="1897.7 546.45 1876.07 657.81 1804.6 643.93 1823.43 532.03 1897.7 546.45"/><polygon class="cls-45" points="1892.34 551.88 1873.13 650.77 1809.65 638.45 1826.38 539.07 1892.34 551.88"/><polygon class="cls-44" points="1872.21 550.52 1873.56 543.58 1847.9 538.59 1845.55 545.34 1872.21 550.52"/><path class="cls-46" d="M1883.7,597.69s5.46-.15,7.14-.39.56,3.31-1.38,4S1883.7,597.69,1883.7,597.69Z"/><path class="cls-13" d="M1886.89,623.79a11.08,11.08,0,0,1-3.55.32s-2.09-.63-3.6-1a11.77,11.77,0,0,0-1.18-.23,20.2,20.2,0,0,1-6.44-1.08c-2.71-1.06-11.88-5.76-11.88-5.76l2.63-8.53,2-6.76s15.5-4.12,18.14-3.43a7.14,7.14,0,0,1,.74.24c2.17.81,3.45,2.32,4.54,2.87.4.2,4.24,2.51,4.44,3.83a4.37,4.37,0,0,1-1.22,4.08s.39,3.62-1,5.67a6.48,6.48,0,0,1-1.93,5.4S1888.7,622.86,1886.89,623.79Z"/><path class="cls-15" d="M1868.1,598.59s-2.88,15.56-11.16,25.59c0,0-61.55-25-69.32-28.09s28.22-98.69,28.22-98.69l26.48,9-14.22,26.9s-7,15.08-21.69,39.87C1806.41,573.18,1815.42,581.74,1868.1,598.59Z"/><path class="cls-15" d="M1904.85,514.76s-1.63,29.79,13.27,29.79,13.54-26.81,13.81-29.79Z"/><polygon class="cls-47" points="1907.49 514.76 1929.74 514.76 1929.74 510.24 1907.49 514.76"/><path class="cls-13" d="M1443.83,623.24s-6.76,4.36-10.66,1.92c-3.31-2.07-9.08-2.36-10.86-2.45-2.38-.13-9.54-3.22-9.73-.22s11.56,5.67,13.91,6.72-8,6.11-9.16,8.52,8.18,19.08,14.88,14.79,11-13.3,12.35-13.82a48.4,48.4,0,0,0,5-2.93Z"/><path class="cls-48" d="M1646.13,998.07s-15.15,22.14-20.44,26.84c0,0-10.57,5.49-10.89,9.87-.62,8.29-1.36,16,12.54,16.4s22.9-2.89,25.44-11.31,8.62-15.66,8.62-15.66v17.62h3.13s.79-17,1-20.17,2.25-15.18-4.36-20.51S1646.13,998.07,1646.13,998.07Z"/><path class="cls-13" d="M1623.68,1026.05a35.06,35.06,0,0,0,16.45-.13c8.94-2.25,17.53-23.65,20.14-25.43l2.31-8.64h-17.42a37.26,37.26,0,0,1-3.42,11.8C1638.92,1009.12,1623.68,1026.05,1623.68,1026.05Z"/><path class="cls-48" d="M1547.79,989.79a56.23,56.23,0,0,1-6.56,11c-3.14,4.1-12.92,21-17.23,22.13s-17.62,3.52-18.8,11-1.76,12.73,11.36,13.32,21.73,1.37,28-7.84,16.25-15.86,16.25-15.86v24h5.09s2.35-25,3.72-26.75,4.9-21-7.24-30.94S1547.79,989.79,1547.79,989.79Z"/><path class="cls-13" d="M1524,1022.89s11.75,2.93,16.25,0,19.82-28.82,24.89-30.37c0,0-4.92-10-17.35-2.73C1547.79,989.79,1527.33,1018.58,1524,1022.89Z"/><path class="cls-49" d="M1652.79,630.19s16.57,21.54,21.06,47.09-2.65,111.32-2.46,124,11.7,52.92,9.36,76.71-15.21,122.1-15.21,122.1l-28.71-.51s5.75-107.15,4.29-117.14-6.15-52.47-6.73-56.59-32.7-112.85-32.7-131.27S1612.85,600.13,1652.79,630.19Z"/><path class="cls-49" d="M1569.57,638.61s-27.21,103.88-30.44,118.27-9.7,33.19-9.4,35.83,3.42,47,3.42,47l7.74,151h28.68s9.21-96,10.68-115.43-10.58-49.35-7.64-57.57,47.29-103.1,47.29-103.1S1653.48,608.46,1569.57,638.61Z"/><path class="cls-13" d="M1578,483.14s-14.49.59-22.71,9.4-12.34,23.3-14.49,28-29.37,48.17-30.94,49.15-29.22,23.29-41.75,35.24-37,25.26-37,25.26l9.2,12.92s74.21-39.55,83.61-54,48-53.85,48-53.85S1602.67,499.19,1578,483.14Z"/><path class="cls-50" d="M1578,483.14s-14.49.59-22.71,9.4-12.34,23.3-14.49,28-29.37,48.17-30.94,49.15-24.23,16.54-36.76,28.48-35.39,26-35.39,26l13.36,17s63.59-35.29,74-49.09c11.08-14.75,46.89-56.89,46.89-56.89S1602.67,499.19,1578,483.14Z"/><path class="cls-30" d="M1597,475.5s-14.1,6.66-19,7.64-23.88,25.65-27.21,34.66,0,22.51,6.85,38.38.39,21.14,3.52,37,5.88,49.44,5.29,58.26,79.2,10.47,97.41-5.59c0,0-18.3-27.41-20.65-31.32s-.39-25.26,1.76-30.75,26.43-46.4,26.43-46.4,1.79-41.51-8.81-49.74c-9.2-7.15-34.28-9.69-38.79-11.26S1606.19,474.13,1597,475.5Z"/><path class="cls-33" d="M1592.48,506.93l-8.56-10,7.44-26.41S1593.85,485.19,1592.48,506.93Z"/><path class="cls-13" d="M1418.66,636.36s-19.65,14.5-20.15,16.56.35,3.08,2.25,1.8,19.38-13.46,19.38-13.46-20.37,21.06-21.15,22.66c-.45.94,1.07,3,2.15,2.42S1423.6,646,1423.6,646s-19,19.7-19.24,21.23a1.89,1.89,0,0,0,3.17,1.52c1.5-1.36,20.15-18.65,20.15-18.65s-12.91,15.21-12.36,16.63c.34.87,1.57,2.72,4.78-1.31s11.78-12.74,11.78-12.74Z"/><path class="cls-13" d="M1614.78,375.44c-8.38-2.95-39.16-10.18-46.41,29.18s14.49,67.36,34.46,59.92,32.31-34.66,33.49-55.42S1625.35,379.16,1614.78,375.44Z"/><path class="cls-51" d="M1568.37,404.62s-1.51-33.68,32-34.86,42.49,26.4,39.75,46.49a49.19,49.19,0,0,1-16.6,30.69s1.2-16.26-5.3-20.48-32.54-12.64-43.89-32.22C1574.31,394.24,1569,400.42,1568.37,404.62Z"/><path class="cls-51" d="M1610.12,401.05c4.41,13.41,17.49,21.16,29.21,17.3s17.66-17.85,13.25-31.26-17.5-21.16-29.22-17.31S1605.71,387.64,1610.12,401.05Z"/><path class="cls-13" d="M1646.18,483.14s17.77-5.09,28,14.49,7.63,30.15,10,39,11.75,67.75,12.34,70.3,9.59,32.5,8.42,41.71-9.6,78.91-9.21,81.26-16.25-2.25-16.25-2.25.69-71.18.1-77.05-1.17-36.72-5.58-44.65-15.27-56.39-17.62-61.39S1631.21,489.5,1646.18,483.14Z"/><path class="cls-13" d="M1590.26,459.23s2.81,25.87,2.22,34.29c0,0,14.65,14.68,31.31-17.14,0,0-7-13.11-1.73-31S1590.26,459.23,1590.26,459.23Z"/><path class="cls-19" d="M1659.61,770.44v-24a7,7,0,0,1,7-7h38a7,7,0,0,1,7,7v24a7,7,0,0,1-7,7h-38A7,7,0,0,1,1659.61,770.44Zm7-26.28a2.31,2.31,0,0,0-2.31,2.3v24a2.31,2.31,0,0,0,2.31,2.3h38a2.3,2.3,0,0,0,2.3-2.3v-24a2.3,2.3,0,0,0-2.3-2.3Z"/><path class="cls-13" d="M1699.14,752.11a13.57,13.57,0,0,0,1.71-4s.06-2.67.21-4.56a10.81,10.81,0,0,1,.19-1.45,24.86,24.86,0,0,0,1.16-7.9c-.21-3.54-5-18.58-5-18.58l-8.88.31-8.34-.9s-10.09,19.25-10.27,22.57c0,.33,0,.65,0,.95.12,2.83,1.4,4.89,1.63,6.36.08.54,1.32,5.87,2.78,6.61a5.37,5.37,0,0,0,5.19.12s4.06,1.81,7,1c0,0,3.69,1.79,7-.21C1693.43,752.46,1697.38,753.86,1699.14,752.11Z"/><polygon class="cls-13" points="1592.48 493.52 1592.48 506.93 1609.34 494.33 1592.48 493.52"/><polygon class="cls-33" points="1592.48 506.93 1599.48 498.26 1623.06 474.76 1630.69 482.11 1592.48 506.93"/><path class="cls-50" d="M1626.34,477s-19.79,30-20.74,43.25,7.36,112.08,14,143.87,54.67-3.59,54.67-3.59-32.27-52.23-19.88-94,19.36-69.59,19.36-69.59-8.45-13.46-21.84-15.52S1626.34,477,1626.34,477Z"/><path class="cls-50" d="M1547.78,521.49s3.19,30,9.26,44.87c0,0,2.55,31.72,2.16,42.88s-3,53.36-3,53.36l13.75,8a3.88,3.88,0,0,0,5.81-3.81c-3.89-32.12-16.56-154,10.81-186.7l-11,3.23S1552.94,504.45,1547.78,521.49Z"/><path class="cls-13" d="M1614.84,419.34a5.16,5.16,0,0,1,7.63-2.19c2.35,1.76,3.72,7.05,0,13.9S1605.63,442.68,1614.84,419.34Z"/><polygon class="cls-37" points="1583.92 496.9 1573.12 499.88 1591.36 470.49 1583.92 496.9"/><polygon class="cls-37" points="1599.48 498.26 1609.34 511.19 1629.57 477.61 1623.06 474.76 1599.48 498.26"/><path class="cls-50" d="M1646.18,483.14s17.77-5.09,28,14.49,10.13,27.93,11.49,37.5c1.28,9,13.7,62.65,14.29,65.2s4.67,36.07,5,48.27c.22,9.27-2,70.1-1.57,72.45s-28.12-4.12-28.12-4.12,3.16-56.1,2.57-62-1.84-35.16-4.71-43.76c-3.37-10.11-16.68-61.05-19-66S1631.21,489.5,1646.18,483.14Z"/><path class="cls-16" d="M1590.84,464.93l.52,5.09s11.61,2.27,26.84-16.31C1618.2,453.71,1607.4,466.88,1590.84,464.93Z"/><rect class="cls-52" x="1614.3" y="767.15" width="142.65" height="102.21" transform="translate(3371.26 1636.5) rotate(180)"/><rect class="cls-53" x="1614.3" y="767.15" width="142.65" height="59.24" transform="translate(3371.26 1593.54) rotate(180)"/><path class="cls-49" d="M1549.72,561.63s-5.24-20.09,2-38.86c0,0-5.39,17.23,2.15,33.84Z"/><path class="cls-49" d="M1658.43,559.39s-9.42-32.73-10-34.5c0,0,1.53,29.42,5.27,44.08A48.82,48.82,0,0,1,1658.43,559.39Z"/><rect class="cls-54" x="1026.43" y="261.59" width="349.82" height="811.98" rx="35.99" transform="translate(2402.67 1335.17) rotate(180)"/><rect class="cls-55" x="1012.4" y="254.32" width="413.32" height="825.49" rx="39.44" transform="translate(2438.11 1334.14) rotate(180)"/><path class="cls-30" d="M1244.84,538.33,1260,562.17l14,22c0-.12-1-3.45-2.54-13.1-.3-1.83-.63-3.89-1-6.2a16,16,0,0,0-.44-2h0c-6-13.78-24.45-24.17-25.13-24.51Z"/><path class="cls-56" d="M1269.93,562.69h0s.81,1.67,1.47,8.39l-5.47-8.26s-9.78-14-13.12-17.65a55.66,55.66,0,0,0-8-6.83S1264.08,547.58,1269.93,562.69Z"/><path class="cls-57" d="M1391.25,297.59v740a36,36,0,0,1-36,36H1077.42a36,36,0,0,1-36-36v-740a36,36,0,0,1,36-36h277.84A36,36,0,0,1,1391.25,297.59Z"/><path class="cls-40" d="M1168.69,1000.25s5.79,16,15.49,22.79,19.72,16.48,17.08,23.26-35,3.19-48.6-16.5c-8.56-12.44-17.26-15.22-17.24-21.11s10-17.67,10.48-19.34C1146.54,987.29,1168.69,1000.25,1168.69,1000.25Z"/><path class="cls-41" d="M1171.09,994.45s-2.14,5.76-2.4,5.8-25-6.61-22.79-10.9a39.45,39.45,0,0,1,5.17-7.06Z"/><path class="cls-58" d="M1108.23,725.44s7.16-17,12.71-18.06,1,3.36,1,3.36-7,11.68-9.42,16.58C1112.39,727.55,1108.23,725.44,1108.23,725.44Z"/><path class="cls-13" d="M1143.34,693.91a136.75,136.75,0,0,0-1.78,16.57c-.3,8.33,1,11.49-1.44,15.46-1.87,3-6.4,4.12-7,2.75s3.47-14.14-1.78-15.93-4,16.17-6.68,13.93-12.35-13.05-9.35-19.14,9.43-9,12.49-18.59c2.77-8.72,6.73-11.36,6.73-11.36Z"/><path class="cls-59" d="M1132.09,712.41s6.32,4.25-2.43,27.64l-7.41-4.11s4.75-13,4.91-20.88C1127.16,715.06,1129.19,710.6,1132.09,712.41Z"/><polygon class="cls-59" points="1150.12 753.28 1094.93 714.13 1068.33 789.76 1116.42 848 1150.12 753.28"/><path class="cls-40" d="M1419.66,866.73v148.48c-15.2-46.12-48.4-145.84-56.4-162.16-7-14.28-70.12-96.68-74.76-90.8s-30.52,75-34,92-80.84,143.2-80.84,143.2-1.36-.28-3.44-.84c-5.4-1.59-15.72-5.32-21-12.24a16.78,16.78,0,0,1-1.6-2.47s56.88-123.49,62.24-146.85c1.88-8.15,4-48,11.48-89.64,3.36-18.68,7.84-37.68,13.8-54.32,2.36-6.52,9.24-9.24,18.44-9.52,1.56-.08,3.2,0,4.88,0,2.8.16,5.76.48,8.84.92a180.58,180.58,0,0,1,22,5c6.32,1.84,12.64,3.88,18.52,6,6.84,2.45,13.16,4.92,18.4,7,1.72.68,3.32,1.36,4.8,2,1.64.68,3.08,1.32,4.32,1.84,3.28,1.44,5.2,2.32,5.2,2.32s10,17.72,22.32,40.24c17,31,38.56,70.88,45.16,86.24A290,290,0,0,1,1419.66,866.73Z"/><path class="cls-60" d="M1396.3,606.29l23.36,26.12v43.24c-16.72-15.88-36.4-36.16-43.72-42.6a13.1,13.1,0,0,0-2.64-2c-1-.4-2.92-3-5.2-6.92-.64-1.08-1.36-2.32-2.08-3.6-1.08-2-2.2-4.08-3.36-6.32-.76-1.48-1.56-3-2.36-4.56s-1.56-3.16-2.36-4.72c-1.56-3.16-3.12-6.32-4.52-9.28-1.08-2.24-2.08-4.36-3-6.28-.6-1.32-1.2-2.51-1.72-3.64s-1-2.12-1.4-3c-1-2.16-1.64-3.56-1.8-3.88a105.65,105.65,0,0,1-.2,18.52,90,90,0,0,1-2.4,13.92c-1.48,5.8-2.2,13.48-2.48,21.56v.24c0,.2,0,.36,0,.56v.25c-.4,14.71.6,30.59,1,39,.64,13.27-3.8,19.15-3.8,19.15s-.6-.07-1.68-.24l-2.88-.4-3.28-.43-4.44-.65-17.24-2.4-6.28-.88-1.44-.19-10.92-1.57-22-3.08-8.8-1.23-4.76-.69-11.6-1.64-5.2-.75H1237s-4.48-31.65-4.8-48.73c-.32-16-9-48.64-10.16-52.92a1.24,1.24,0,0,1-.08-.32v0s0,0,0,0v-.09s-25.16,26.44-30,38c-1.2,2.84-4.4,9.6-8.68,18.25-.08.19-.16.39-.24.55-11.6,23.48-30.64,60.16-38,68.76-.88,1.12-1.64,1.76-2.16,1.84a4,4,0,0,1-.72.08c-4.6,0-12.32-6.35-16.12-9.8-1.4-1.24-2.24-2.08-2.24-2.08s.32-.76,1-2.12c5.36-12.28,32.52-74,39.36-88.56.64-1.36,1.12-2.32,1.36-2.75a7.34,7.34,0,0,0,.4-.77c5.12-9.88,39.92-85.52,45.24-89.32a31.8,31.8,0,0,1,2.8-1.64,10.74,10.74,0,0,0,1.36-.68.68.68,0,0,0,.2-.08l2.84-1.32c.32-.16.68-.32,1-.48.72-.32,1.44-.63,2.2-1,4.2-1.84,9.16-3.92,14-5.88,1.36-.56,2.68-1.08,3.92-1.56,1.88-.76,3.72-1.44,5.4-2.08l.64-.23c5.64-2.17,9.92-3.65,10.8-3.69h.72c.36,0,.84,0,1.4.08,7,.4,27.72,2.32,34.4,3l2.12.2s3.2,1.49,8,3.64l0,0,.4.16,9.56,4.4c7.28,3.36,15.52,7.21,22,10.28,6.24,3,15.68,8.08,16.4,8.64Z"/><path class="cls-61" d="M1337.63,692.06s2.32,2.77,3,14.51c0,0-95.31-11.12-105.39-15.5,0,0-.39-12.94,1.75-13.16C1239.33,677.66,1337.63,692.06,1337.63,692.06Z"/><path class="cls-13" d="M1256.35,485.92c.3,15,29.26,23.14,29.26,23.14s12.12-15.18,9.22-16.64c-1.13-.57-1.59-2.84-1.74-5.38a52.91,52.91,0,0,1,.17-6.78c.08-1.06.17-1.74.17-1.74s-4.14-4.37-9.41-9.57c-9.2-9.1-21.84-20.75-21.86-16.11a4.46,4.46,0,0,0,.1.88C1264.49,464.15,1256.35,485.92,1256.35,485.92Z"/><path class="cls-62" d="M1258.76,680.2s-2.09,13.12-2.26,16.54l-4.41-.88s1.21-13.88,1.92-16.21Z"/><path class="cls-40" d="M1329.68,690.53s1.67,11.92,1.71,16.42l-4.66-.6s-1-14.89-1.49-16.45Z"/><path class="cls-16" d="M1267.51,464h0c.06.08,1.29,1.92,3.38,4.56,4.45,5.59,12.81,14.78,22.2,18.47a52.91,52.91,0,0,1,.17-6.78,15.52,15.52,0,0,0,2.87-.35,88.53,88.53,0,0,0-6.29-9.22L1284,469Z"/><path class="cls-13" d="M1262,453c2.5,5.45,4.88,9.4,5.56,11h0a19.53,19.53,0,0,0,3.38,4.56c4.77,5.14,13.65,11.92,22.37,11.69a15.52,15.52,0,0,0,2.87-.35c3.53-.77,7.69-2.41,10-6.89,18.07-35.37,5-64.3,5-64.3s-49.41-14-57.14.9C1248.53,420.05,1256.06,440.23,1262,453Z"/><path class="cls-63" d="M1311.09,408.72s4.59-.25,5.72-9-1.14-11-1.14-11-20.4-8.54-27.72-9.65-25.34-2.18-29.56,2.65c0,0-10.26-2.38-13.05,14.65-4.43,27,15.11,53.24,15.11,53.24s-.17-17.65,3.72-20,7.25,3.23,7.25,3.23l8,1.42s-12.09-26.11,2.42-27.07S1302.79,410.23,1311.09,408.72Z"/><path class="cls-13" d="M1271.2,425.88c-.75-7.77-14.82-10.74-13.87-2.59s7.86,16,11.06,15.7S1271.78,431.81,1271.2,425.88Z"/><path class="cls-14" d="M1191.88,613.73c-5.52,11.24-40,86.37-46,87.48s-22.15-12.81-22.15-12.81,38.47-84.79,41.7-90.5,40.14-86.16,45.62-90.09c3.17-2.27,16.83-8.09,28.34-12.63,2.11-.83,4.14-1.62,6-2.34,2.44,2.72,41.69,47.07,38,86.39-1.11,11.82-2.59,31.08-5.86,51.37-3.39,21.08-8.85,44.9-12.38,62.88C1258.76,726,1244.67,757,1244.67,757l-36.75-18.39a12.8,12.8,0,0,1-6.33-15.75c8.27-23.15,24.78-69.91,24.79-90.23,0,0-1.3-45.87-4.47-56.8C1221.91,575.84,1198.21,600.84,1191.88,613.73Z"/><path class="cls-14" d="M1419.66,631.53v45.6c-16.36-16-36.36-37.36-43.72-44.08a13.1,13.1,0,0,0-2.64-2c-1-.4-2.92-3-5.2-6.92-.68-1.08-1.36-2.32-2.08-3.6-1.08-2-2.2-4.08-3.36-6.32-.76-1.48-1.56-3-2.36-4.56s-1.56-3.16-2.36-4.72c-1.56-3.16-3.12-6.32-4.52-9.28-1.08-2.24-2.12-4.36-3-6.28-.6-1.32-1.2-2.51-1.72-3.64s-1-2.12-1.4-3c-1-2.16-1.64-3.56-1.8-3.88,1.44,6,.92,12.17-.2,18.52-2,11.16-5.84,22.92-4.88,35.48v.24c3,38.12,19.08,92.08,23.84,107.36a6.77,6.77,0,0,1-1.32,6.4,3.8,3.8,0,0,1-.64.76l-11.44,10.56s-9.92-30.56-15-52.12c-.12-.6-.28-1.2-.4-1.76a116.43,116.43,0,0,1-2.36-12.84v0c-.92-8.56-2.76-18.56-4.76-29.2s-4-22-5.24-33.12c-3.2-28.32-6.48-56.4-8.84-72.88-.76-5.36-1.52-10.31-2.24-14.88-5.08-32-9-44.84-9-44.84l.24-.2,9.56,4.4c7.28,3.36,15.52,7.21,22,10.28,6.24,3,15.68,8.08,16.4,8.64l45,86.72Z"/><path class="cls-64" d="M1253.42,530l14.09,7.94-6,6.14,16,86.55c3.27-20.29,4.75-39.55,5.86-51.37,3.69-39.32-35.56-83.67-38-86.39-1.89.72-3.92,1.51-6,2.34Z"/><path class="cls-64" d="M1302.82,496.06s5.26,17.2,11.4,60.12c2.35,16.48,5.65,44.54,8.82,72.86l3.28-81-6.71-7.27,6-7.46-12.77-32.6-9.55-4.39Z"/><path class="cls-14" d="M1239.35,495.18c-11.51,4.54-28.64,10.43-31.8,12.71-5.48,3.92-38.93,84.31-42.16,90Z"/><polygon class="cls-59" points="1116.42 848 1108.23 846.7 1061.93 788.71 1089.71 712.67 1094.93 714.13 1116.42 848"/><path class="cls-65" d="M1244.67,493l11.68-7.1s.33,6.41,29.26,23.14l-8.21,23.15Z"/><path class="cls-65" d="M1293.31,489.15s-.46,6.91-7.7,19.91l16,20.91,1.17-33.91Z"/><path class="cls-66" d="M1285.57,509.06s-3.11,12.43-2,15.92c0,0,6.83,2.48,11.75-.63A54.62,54.62,0,0,0,1285.57,509.06Z"/><path class="cls-67" d="M1301.63,688.34c1.74-8.77.09-35.05,0-36.17l-1.49.1c0,.27,1.71,27.2,0,35.78Z"/><path class="cls-68" d="M1289.47,684.3s14,1.67,18.66,2.83l-.61,15.72-18.36-2Z"/><path class="cls-66" d="M1292.54,523.23s13.8,38.85,15.54,83.1-2.93,55.69-2.93,55.69l-17.28,15.55-5.78-20.21s15.6-49.16,7.24-106c-1.51-10.31-3.76-29.84-3.76-29.84Z"/><rect class="cls-69" x="1041.42" y="261.57" width="378.24" height="812" rx="36"/><path class="cls-13" d="M1451.26,672.18s5.62,8.18,8.57,8.46,7.08,2.9,9.66,3.65,10.4.31,12.68,2c.94.7,4.91,7.28,7,8.5s6.55,3.18,5.4,4.93-5.68,1.09-5.68,1.09a3,3,0,0,1,1.27,3.07c-1,3.57-3.36,4-3.36,4s1,2.45.19,3.84c-1.79,3.05-4,3.43-4,3.43a6,6,0,0,1-1.64,3.77,5.51,5.51,0,0,1-5.08,1.52s-2,3.43-4.18,3.1-3.59-1.72-5.2-2.44-13.44-11.31-18.48-22a50.69,50.69,0,0,0-13.16-17Z"/><path class="cls-70" d="M1488.12,699.53s-10.28-8.89-14.88-8.09-1.07,4.21-1.07,4.21-3.43-3.43-6.51-1,1.26,6.24,1.26,6.24a3.92,3.92,0,0,0-5.42,1.61c-2.12,3.51,2.22,5.81,2.22,5.81s-6.21-.08-4.41,4.65c3,8,12.7,10.61,12.7,10.61s2.39.42,4.18-3.1c0,0,5.8,1.42,6.72-5.29,0,0,6.5-2.31,3.85-7.27C1486.76,707.94,1493.54,705.07,1488.12,699.53Z"/><path class="cls-40" d="M1456.58,1041.39s14,11.25,26.46,12,26.8,4,28.14,11.59-37.84,17.16-52.84,11.79c-22.38-8-23.89-4.25-27.1-9.57s-.72-21.38-1.17-23.17C1429.52,1041.86,1456.58,1041.39,1456.58,1041.39Z"/><path class="cls-41" d="M1454.21,1035.29s2.58,5.93,2.37,6.1-26.5,7.78-26.51,2.68c0-4.13.21-8.66.21-8.66Z"/><path class="cls-40" d="M1459.7,1035.05c.32,1.56-1.44,2.56-4.24,3.16-6.72,1.52-19.56.92-25.28.56l-2.84-.2s-53.6-164.16-64.08-185.52c-7-14.28-70.12-96.68-74.76-90.8,0,0-11.16-25.56-16.28-64.48-.64-4.72-1.16-9.64-1.6-14.72a185.66,185.66,0,0,1,18.76,4.4c6.32,1.84,12.64,3.88,18.52,6,6.84,2.45,13.16,4.92,18.4,7,1.72.68,3.32,1.36,4.8,2,1.64.68,3.08,1.32,4.32,1.84,3.28,1.44,5.2,2.32,5.2,2.32s10,17.72,22.32,40.24c17,31,38.56,70.88,45.16,86.24,10.6,24.6,21.48,68.81,22.92,86.08C1432.86,940.9,1458.42,1028.69,1459.7,1035.05Z"/><path class="cls-60" d="M1461.5,679.21s-.48.56-1.28,1.52c-2.76,3.25-9.44,10.92-13.68,15a3.61,3.61,0,0,0-.4.36c-.48.44-1.44.24-2.84-.48-12.12-6.28-55.6-52.2-67.36-62.52-.8-.68-1.48-1.24-2-1.6a.64.64,0,0,0-.28-.16,1.5,1.5,0,0,0-.4-.24c-1-.4-2.92-3-5.2-6.92-.64-1.08-1.36-2.32-2.08-3.6-.52-1-1.08-2-1.64-3s-1.12-2.16-1.72-3.28c-.76-1.48-1.56-3-2.36-4.56-2.76-5.44-5.56-11.16-8-16.2-.56-1.24-1.16-2.44-1.68-3.59-.92-1.93-1.72-3.65-2.44-5.17-.32-.68-.6-1.32-.88-1.92s-.4-.87-.6-1.28a8.66,8.66,0,0,0-.48-1c-.36-.8-.6-1.36-.72-1.59,0-.05,0-.05,0-.05a105.65,105.65,0,0,1-.2,18.52v0a89.51,89.51,0,0,1-2.4,13.88c-1.48,5.8-2.2,13.48-2.48,21.56v.24c0,.2,0,.36,0,.56v.25c-.4,14.71.6,30.59,1,39,.64,13.27-3.8,19.15-3.8,19.15s-.6-.07-1.68-.24c-.72-.12-1.72-.24-2.88-.4l-3.28-.43-4.44-.65-17.24-2.4-6.28-.88-1.44-.19-10.92-1.57-18.88-2.64v-.28c-.32-3.84-.56-7.8-.72-11.84v0c-.24-5.92-.28-12-.12-18.32a427.3,427.3,0,0,1,3.68-43.68c2.56-19.28,5.56-37,6.6-56.8a263.68,263.68,0,0,0,0-27v0c-.32-5.75-.8-11.79-1.56-18.12-.08-.63-.16-1.28-.28-1.92-.56-4.48-1.24-9.12-2.08-13.92,6.72.6,13.32,1.21,16.56,1.52h0l2.08.2s3.2,1.49,8,3.64l0,0,.4.16,9.56,4.4c7.28,3.36,15.52,7.21,22,10.28,6.24,3,15.68,8.08,16.4,8.64l45,86.72,63.64,71.16Z"/><path class="cls-61" d="M1340.62,706.57l-4.8-.56c-1.28-.15-2.8-.36-4.52-.56l-4.68-.55c-5.36-.69-11.92-1.49-19.08-2.41-5.88-.72-12.12-1.51-18.4-2.4-5.72-.76-11.44-1.52-16.92-2.32-.64-4.72-1.16-9.64-1.6-14.72a1.36,1.36,0,0,0,0-.4v-.28c6.08.88,12.52,1.76,18.88,2.68,3.72.56,7.4,1.08,11,1.6.48.08,1,.12,1.44.21,2.12.31,4.24.59,6.24.91,6.48.92,12.44,1.8,17.24,2.48,1.6.24,3.08.44,4.44.65s2.32.35,3.28.47v0c1.16.16,2.16.28,2.88.4,1.08.17,1.68.24,1.68.24S1339.94,694.81,1340.62,706.57Z"/><path class="cls-13" d="M1285.62,509.05h0l0,0a61.16,61.16,0,0,1-7-2.48c-.08-.63-.16-1.28-.28-1.92-.56-4.48-1.24-9.12-2.08-13.92-.64-3.71-1.36-7.52-2.2-11.44-.64-3.08-1.24-6.08-1.68-9v0c-.52-.56-1-1.12-1.36-1.64.4.44.84.88,1.28,1.33-.28-1.61-.52-3.17-.72-4.69v0c-.44-3-.76-6-1-8.8,4.16,3.44,9.28,8.28,13.6,12.56,5.28,5.2,9.4,9.6,9.4,9.6s-.08.68-.16,1.72a59.45,59.45,0,0,0-.16,6.8,16.68,16.68,0,0,0,.2,2.08c.24,1.6.72,2.88,1.52,3.28C1297.74,493.9,1285.62,509.05,1285.62,509.05Z"/><path class="cls-40" d="M1329.68,690.53s1.67,11.92,1.71,16.42l-4.66-.6s-1-14.89-1.49-16.45Z"/><path class="cls-16" d="M1293.26,480.25a59.45,59.45,0,0,0-.16,6.8c-8.52-3.36-16.16-11.19-20.84-16.8v0c-.52-.56-1-1.12-1.36-1.64.4.44.84.88,1.28,1.33-.28-1.61-.52-3.17-.72-4.69l12.56,3.72,5.84,1.76a88,88,0,0,1,6.28,9.21A14.91,14.91,0,0,1,1293.26,480.25Z"/><path class="cls-13" d="M1306.1,473c-2.28,4.48-6.44,6.12-10,6.89a14.91,14.91,0,0,1-2.88.35c-8,.2-16.12-5.48-21.08-10.35-.28-1.61-.52-3.17-.72-4.69v0c-.44-3-.76-6-1-8.8a142.83,142.83,0,0,1-.6-18.12c0-2.39.16-4.72.36-6.92s.4-4.64.76-6.8a88.7,88.7,0,0,1,5.68-21.67c16.08.67,34.48,5.87,34.48,5.87S1324.18,437.65,1306.1,473Z"/><path class="cls-63" d="M1316.82,399.77c-1.12,8.68-5.72,9-5.72,9-8.32,1.48-14.8-2.44-29.32-1.48s-2.4,27.08-2.4,27.08l-8-1.4,0,0a8.31,8.31,0,0,0-1.2-1.57c.16-2.35.4-4.64.76-6.8a88.7,88.7,0,0,1,5.68-21.67c6.44-15.77,15.24-22.09,16-22.61h0c9,2.65,23,8.52,23,8.52S1317.94,391.17,1316.82,399.77Z"/><path class="cls-13" d="M1271.38,432.9c-.16,2.35-.64,4.35-1.56,5.35,0-2.39.16-4.72.36-6.92s.4-4.64.76-6.8a5.21,5.21,0,0,1,.28,1.37A41.35,41.35,0,0,1,1271.38,432.9Z"/><path class="cls-14" d="M1283.38,579.21c-1.12,11.84-2.6,31.08-5.84,51.4-2.08,12.92-5,26.84-7.68,39.88-.24-5.92-.28-12-.12-18.32a427.3,427.3,0,0,1,3.68-43.68c2.56-19.28,5.56-37,6.6-56.8C1282.78,560.73,1284.22,570.13,1283.38,579.21Z"/><path class="cls-14" d="M1341.52,633.29c-1.53-19.77,7.89-38.07,4-54.56l0,0c.84,1.83,23,50.54,27.78,52.27s65,69.21,70,64.5c5.39-5,17.69-19.36,17.69-19.36l-64.73-69.89-45-86.71c-.72-.58-10.16-5.66-16.41-8.63-6.5-3.1-14.73-6.92-22-10.29l-9.55-4.39-.23.18s5,16.81,11.19,59.73c2.35,16.48,5.65,44.54,8.82,72.86v0c2.51,22.32,8.22,45.23,10,62.33,1.88,17.7,17.8,66.74,17.8,66.74l11.45-10.57a6.94,6.94,0,0,0,1.92-7.15C1359.49,725.1,1344.47,671.37,1341.52,633.29Z"/><path class="cls-64" d="M1283.38,579.21c-1.12,11.84-2.6,31.08-5.84,51.4l-4.12-22.12c2.56-19.28,5.56-37,6.6-56.8C1282.78,560.73,1284.22,570.13,1283.38,579.21Z"/><path class="cls-64" d="M1302.82,496.06s5.26,17.2,11.4,60.12c2.35,16.48,5.65,44.54,8.82,72.86l3.28-81-6.71-7.27,6-7.46-12.77-32.6-9.55-4.39Z"/><path class="cls-65" d="M1285.62,509.05v0l-.12.24v.12l-5.44,15.2c-.32-5.75-.8-11.79-1.56-18.12-.08-.63-.16-1.28-.28-1.92,2.2,1.4,4.64,2.84,7.32,4.4l0,0Z"/><path class="cls-65" d="M1293.31,489.15s-.46,6.91-7.7,19.91l16,20.91,1.17-33.91Z"/><path class="cls-66" d="M1285.57,509.06s-3.11,12.43-2,15.92c0,0,6.83,2.48,11.75-.63A54.62,54.62,0,0,0,1285.57,509.06Z"/><path class="cls-67" d="M1301.63,688.34c1.74-8.77.09-35.05,0-36.17l-1.49.1c0,.27,1.71,27.2,0,35.78Z"/><path class="cls-68" d="M1289.47,684.3s14,1.67,18.66,2.83l-.61,15.72-18.36-2Z"/><path class="cls-66" d="M1292.54,523.23s13.8,38.85,15.54,83.1-2.93,55.69-2.93,55.69l-17.28,15.55-5.78-20.21s15.6-49.16,7.24-106c-1.51-10.31-3.76-29.84-3.76-29.84Z"/></g></g></g></svg>