<svg xmlns="http://www.w3.org/2000/svg" viewBox="0 0 456.33 373.32"><defs><style>.cls-1{fill:#e8e8f9;}.cls-2{fill:#542bda;}.cls-3{fill:#3700b3;}.cls-4{fill:#6b5eff;}.cls-5{fill:#2e3062;}.cls-6{fill:#001030;}.cls-16,.cls-7{fill:#fff;}.cls-8{font-size:52.41px;font-family:Montserrat-Black, Montserrat Black;font-weight:800;}.cls-12,.cls-8{fill:#524e84;}.cls-9{letter-spacing:0em;}.cls-10{fill:#ffaa01;}.cls-11{fill:#fba691;}.cls-13{fill:#fb876b;}.cls-14{fill:#d45c48;}.cls-15{fill:#f88800;}.cls-16{opacity:0.4;}.cls-17{fill:#fdcc50;}.cls-18{fill:#f6f6f6;}</style></defs><g id="Layer_2" data-name="Layer 2"><g id="OBJECTS"><path class="cls-1" d="M405.2,329.58c-22.71-17.25-61.54-60.05-10.4-127.24C458,119.24,382.3,85.15,309.71,88.71,251.32,91.57,185.59,18.16,120,31.28,33,48.7,89.52,123.63,30.51,164-19.8,198.44,1.8,303.35,67.29,329.58Z"/><path class="cls-1" d="M415.05,289.2a12.55,12.55,0,0,0,5.66-9.51c.76-8.72.73-29-15.86-29.56-10.07-.34-16.82,17.54-11,29.16C398.8,289.26,407.86,293.79,415.05,289.2Z"/><path class="cls-1" d="M301.11,71.43s19,20.52,38.13,6.87c15.49-11-3.23-26.25-17.51-28.28C306.24,47.82,288.61,56.69,301.11,71.43Z"/><path class="cls-1" d="M35.84,139.72s19.52-18.78,5.92-37.09c-11-14.8-25.38,3.63-27.07,17.51C12.85,135.2,21.79,152.12,35.84,139.72Z"/><ellipse class="cls-1" cx="227.51" cy="332.1" rx="207.6" ry="13.56"/><path class="cls-2" d="M427.56,174.77C418,190,432,187.89,425,199.3c-6.37,10.41-20.48,4.86-15,25.52,1.2,4.51-1.35,8.64-5.61,11.43a18.19,18.19,0,0,1-20.9-.57c-.47-.34-.93-.7-1.37-1.08A18.54,18.54,0,0,1,376,217.41c.93-5.68,3.51-11.65,9.65-15.18,14.43-8.29,1.19-26.88,14.09-30.73,15.56-4.66,14.82-10.58,24.27-20.92C434.05,139.62,440.57,154.18,427.56,174.77Z"/><path class="cls-3" d="M420.47,169.25c-.27.44-22.33,36.56-36.91,66.43-.47-.34-.93-.7-1.37-1.08,14.64-29.9,36.56-65.8,36.83-66.24a.86.86,0,0,1,1.17-.28A.85.85,0,0,1,420.47,169.25Z"/><path class="cls-4" d="M440.07,215.43c-16.85,15.81,1.33,17.77-11,29.73-11.28,10.89-27.06-.55-26.84,26.93,0,6-4.47,10.34-10.67,12.42a23.37,23.37,0,0,1-25.83-7.43,21.49,21.49,0,0,1-1.35-1.79,23.82,23.82,0,0,1-2.15-23.38c3-6.77,8.11-13.37,16.9-15.78,20.62-5.68,10.14-33.08,27.44-33.73,20.86-.78,21.84-8.39,36.94-18.22C459.48,173.76,462.9,194,440.07,215.43Z"/><path class="cls-2" d="M433,206.28c-.47.45-39.57,38.32-67.34,70.8a21.49,21.49,0,0,1-1.35-1.79c27.84-32.5,66.7-70.13,67.17-70.59a1.1,1.1,0,0,1,1.52,1.58Z"/><path class="cls-2" d="M31.76,32.55C38.59,49.17,25.09,44.7,30,57.15c4.47,11.35,19.33,8.33,10.33,27.72-2,4.24-.17,8.75,3.55,12.22a18.18,18.18,0,0,0,20.68,3.06c.52-.25,1-.53,1.53-.83a18.52,18.52,0,0,0,9-15.86c.06-5.76-1.44-12.08-6.88-16.62C55.49,56.18,71.74,40.16,59.7,34.13c-14.52-7.27-12.77-13-20.29-24.8C31.44-3.2,22.5,10,31.76,32.55Z"/><path class="cls-3" d="M39.69,28.34c.19.47,15.67,39.87,24.87,71.81.52-.25,1-.53,1.53-.83-9.24-32-24.63-71.13-24.82-71.61a.85.85,0,0,0-1.58.63Z"/><path class="cls-4" d="M12.3,76C26.71,94,8.44,93.37,19,107c9.61,12.4,26.86,3.33,22.71,30.5-.9,5.95,2.94,10.87,8.78,13.82a23.38,23.38,0,0,0,26.63-3.66,21.55,21.55,0,0,0,1.59-1.58,23.76,23.76,0,0,0,5.47-22.83c-2-7.13-6.11-14.39-14.46-18-19.6-8.57-5.3-34.19-22.33-37.3-20.53-3.76-20.42-11.43-34-23.32C-.94,32-7.23,51.49,12.3,76Z"/><path class="cls-2" d="M20.58,67.92c.4.52,33.68,43.59,56.51,79.71a21.55,21.55,0,0,0,1.59-1.58c-22.9-36.15-56-79-56.37-79.47a1.09,1.09,0,0,0-1.73,1.34Z"/><path class="cls-4" d="M209.68,82.13c-7.1-4.87-24.9,7.13-34.2,21.7l8.25-23.12a50.78,50.78,0,0,1,16.39-9.13c12.72-4.5,25.46-11.56,18.34-16.43-6.67-4.57-22.77,5.73-32.41,19.06l10.6-29.69a33.39,33.39,0,0,1,9.26-4.88c8-2.84,16.05-7.29,11.56-10.36-3.89-2.67-12.88,2.7-19,10.18l3.43-9.62a48.39,48.39,0,0,1,7.33-10.44c8.16-8.44,14.33-17.94,8-19.32S200.65,15.25,199,30.2l-1.76,4.95c1.37-10.87-2.54-24-8-24.5s-2,8.06,2.38,15.33a30.48,30.48,0,0,1,4.53,12.2l-8.36,23.4c2.13-17.23-4.06-38-12.69-38.74s-3.2,12.79,3.78,24.33c5.28,8.72,6.77,15.65,7.17,19.28l-10,28.06c1.77-17-4.31-37.69-12.81-37.75-6.54,0-4.54,9.19,3.28,22.24a55.49,55.49,0,0,1,7.56,21l-4.72,13.21a4.37,4.37,0,0,0,2.43.87l1.88-5.26c2.65-2.57,8.17-6.92,17.66-10.29C204.06,94.06,216.8,87,209.68,82.13Z"/><path class="cls-4" d="M89.6,330.81h3.94l-.14-.12c-1.43-3.4-3.49-10.13-3.19-20.19.41-13.48-1.55-27.92-8.67-23.05s-2.38,25.8,7.83,39.75L70.81,311.13a50.82,50.82,0,0,1-2.56-18.59c.4-13.48-1.56-27.91-8.68-23-6.67,4.56-2.91,23.29,6,37.11L41.76,286a33.3,33.3,0,0,1-1.19-10.4c.26-8.5-1-17.59-5.47-14.53-3.89,2.67-2.15,13,2.6,21.42L30,275.77a48.37,48.37,0,0,1-7.07-10.62C18,254.49,11.38,245.29,7.81,250.66s8.12,21,21.47,27.91l4,3.44c-9.63-5.22-23.32-6.35-25.73-1.43s6.78,4.8,15.15,3.33a30.48,30.48,0,0,1,13,.21l18.78,16.26c-15.28-8.22-36.89-10-40.7-2.21s10.76,7.63,24.05,5.3c10-1.76,17-.64,20.57.3l22.51,19.5c-15.22-7.82-36.68-9.64-39.82-1.75-2.42,6.09,6.92,7.57,21.92,5a55.28,55.28,0,0,1,22.33.58Z"/><path class="cls-5" d="M398.13,81.18V330.57a4.18,4.18,0,0,1-4.18,4.18H52.71a4.18,4.18,0,0,1-4.18-4.18V81.18A4.18,4.18,0,0,1,52.71,77H394a4.17,4.17,0,0,1,4.18,4.18Z"/><path class="cls-6" d="M398.13,81.18V330.57a4.18,4.18,0,0,1-4.18,4.18H52.71a4.14,4.14,0,0,1-2.79-1.07l347.39-255A4.15,4.15,0,0,1,398.13,81.18Z"/><rect class="cls-7" x="58.47" y="86.94" width="329.72" height="237.87" rx="4.61"/><path class="cls-1" d="M388.19,91.55v16H58.47v-16a4.6,4.6,0,0,1,4.61-4.61h320.5A4.6,4.6,0,0,1,388.19,91.55Z"/><path class="cls-7" d="M114.36,97.8h0a2.74,2.74,0,0,0,2.74,2.74H357.44a2.74,2.74,0,0,0,2.74-2.74h0a2.74,2.74,0,0,0-2.74-2.74H117.1A2.74,2.74,0,0,0,114.36,97.8Z"/><path class="cls-5" d="M76.8,97.8v2a.75.75,0,0,1-1.13.66l-1.76-1-1.76-1a.75.75,0,0,1,0-1.31l1.76-1,1.76-1a.75.75,0,0,1,1.13.65Z"/><path class="cls-5" d="M86,97.8v2a.76.76,0,0,0,1.14.66l1.76-1,1.76-1a.76.76,0,0,0,0-1.31l-1.76-1-1.76-1a.76.76,0,0,0-1.14.65Z"/><text class="cls-8" transform="translate(108.14 174.34)">SEA<tspan class="cls-9" x="83.7" y="0">R</tspan><tspan x="112.05" y="0">CH</tspan></text><path class="cls-1" d="M337.28,210.66h0a11.83,11.83,0,0,1-11.83,11.82h-205a11.83,11.83,0,0,1-11.83-11.82h0a11.83,11.83,0,0,1,11.83-11.83h205A11.83,11.83,0,0,1,337.28,210.66Z"/><path class="cls-10" d="M325.45,198.83H293v23.65h32.49a11.83,11.83,0,0,0,11.83-11.82h0A11.83,11.83,0,0,0,325.45,198.83Z"/><path class="cls-7" d="M317.19,213a5.57,5.57,0,1,1,7.87-.31A5.58,5.58,0,0,1,317.19,213Zm6.31-6.83a3.73,3.73,0,1,0,.21,5.27A3.74,3.74,0,0,0,323.5,206.16Z"/><path class="cls-7" d="M311,219.66a.91.91,0,0,1-.05-1.3l6.15-6.67a.92.92,0,0,1,1.35,1.25l-6.15,6.67A.93.93,0,0,1,311,219.66Z"/><path class="cls-1" d="M108.74,250.37h0A3.66,3.66,0,0,0,112.4,254H333.19a3.65,3.65,0,0,0,3.65-3.66h0a3.65,3.65,0,0,0-3.65-3.65H112.4A3.66,3.66,0,0,0,108.74,250.37Z"/><path class="cls-1" d="M108.74,268.33h0A3.66,3.66,0,0,0,112.4,272H333.19a3.65,3.65,0,0,0,3.65-3.66h0a3.64,3.64,0,0,0-3.65-3.65H112.4A3.65,3.65,0,0,0,108.74,268.33Z"/><path class="cls-1" d="M108.74,286.29h0a3.65,3.65,0,0,0,3.66,3.65H333.19a3.64,3.64,0,0,0,3.65-3.65h0a3.65,3.65,0,0,0-3.65-3.66H112.4A3.66,3.66,0,0,0,108.74,286.29Z"/><path class="cls-1" d="M103.33,246.21l1-5.06-4.74-.92a11.3,11.3,0,0,0-.63-3.71l3.91-2.62L100,229.62l-3.73,2.51a11.55,11.55,0,0,0-3.84-2.58l.93-4.74-5.06-1-1,4.89a11.34,11.34,0,0,0-3.08.59l-2.62-3.9-4.28,2.87L79.86,232a11.45,11.45,0,0,0-2.58,3.84L73.14,235l-1,5.06,4.29.84a11.38,11.38,0,0,0,.91,3.9l-3.74,2.51,2.88,4.28,3.9-2.62a11.46,11.46,0,0,0,3.77,2.19L83.21,256l5.06,1,1-5.17a11.54,11.54,0,0,0,3.27-.86l2.51,3.73,4.28-2.87-2.62-3.9a11.75,11.75,0,0,0,1.71-2.63Zm-12.7-2a4.73,4.73,0,1,1,1.28-6.56A4.74,4.74,0,0,1,90.63,244.19Z"/><path class="cls-1" d="M368.31,137.33l.55-2.76-2.59-.51a6.13,6.13,0,0,0-.35-2l2.14-1.44-1.57-2.34-2,1.38a6.22,6.22,0,0,0-2.1-1.41l.51-2.59-2.77-.55-.52,2.67a6.1,6.1,0,0,0-1.68.33L356.46,126l-2.34,1.57,1.37,2a6.27,6.27,0,0,0-1.41,2.1l-2.26-.45-.55,2.76,2.35.46a6.41,6.41,0,0,0,.49,2.14l-2,1.37,1.57,2.34,2.14-1.44a6.18,6.18,0,0,0,2.05,1.2l-.51,2.61,2.77.54.55-2.83a6,6,0,0,0,1.79-.47l1.37,2,2.34-1.57-1.43-2.13a6.66,6.66,0,0,0,.94-1.43Zm-6.94-1.11a2.58,2.58,0,1,1,.71-3.58A2.58,2.58,0,0,1,361.37,136.22Z"/><path class="cls-1" d="M91.52,165.66l.54-2.76-2.59-.51a6.39,6.39,0,0,0-.34-2l2.13-1.44-1.57-2.34-2,1.38a6.12,6.12,0,0,0-2.1-1.41l.51-2.59-2.76-.55-.53,2.67a6.18,6.18,0,0,0-1.68.33l-1.43-2.13-2.34,1.57,1.37,2a6.42,6.42,0,0,0-1.41,2.1L75,159.55l-.54,2.76,2.34.46a6.19,6.19,0,0,0,.5,2.14l-2,1.37,1.57,2.34L79,167.18a6.12,6.12,0,0,0,2.06,1.2L80.53,171l2.76.54.56-2.83a5.94,5.94,0,0,0,1.78-.47l1.38,2,2.33-1.57-1.43-2.13a6.31,6.31,0,0,0,.94-1.43Zm-6.94-1.11a2.58,2.58,0,1,1,.7-3.58A2.58,2.58,0,0,1,84.58,164.55Z"/><path class="cls-1" d="M105.94,362.23c0,3.75-22.76,6.78-50.84,6.78s-50.84-3-50.84-6.78S27,355.45,55.1,355.45,105.94,358.49,105.94,362.23Z"/><path class="cls-2" d="M69.65,195.48a32.67,32.67,0,0,0,20.21,21.9,46.53,46.53,0,0,0,13.92-5.28A41.32,41.32,0,0,1,101.5,203c-5.71,1.59-10.65,2.44-10.65,2.44-12-5.59-19.36-32.34-19.36-32.34C64.32,179.85,69.65,195.48,69.65,195.48Z"/><path class="cls-11" d="M29.1,333.06,24,339.89a10.89,10.89,0,0,0,4.7,5.4l6.1-7.85Z"/><path class="cls-10" d="M27.86,343.17s2.38-.51,3.2.31,2.87,12,4.78,14.51,0,3.76-1.19,4.26-18.09-16.4-18.09-16.4,4.18-5.77,6.2-6.89S25.72,342,27.86,343.17Z"/><path class="cls-7" d="M28.17,349.72a.43.43,0,0,1-.24-.24.45.45,0,0,1,.23-.58,6.54,6.54,0,0,1,3.22-.54,3,3,0,0,1,2.33,2,.44.44,0,0,1-.29.55.44.44,0,0,1-.54-.3,2.09,2.09,0,0,0-1.67-1.38,5.79,5.79,0,0,0-2.72.48A.44.44,0,0,1,28.17,349.72Z"/><path class="cls-7" d="M27.89,347.93a.47.47,0,0,1-.24-.24.46.46,0,0,1,.23-.59,6.58,6.58,0,0,1,3.22-.53,3,3,0,0,1,2.34,2,.45.45,0,0,1-.3.55.43.43,0,0,1-.54-.3,2.11,2.11,0,0,0-1.67-1.38,5.67,5.67,0,0,0-2.71.48A.42.42,0,0,1,27.89,347.93Z"/><path class="cls-7" d="M29,351.61a.43.43,0,0,1-.24-.24.45.45,0,0,1,.23-.58,6.54,6.54,0,0,1,3.22-.54,3,3,0,0,1,2.34,2,.46.46,0,0,1-.3.55.44.44,0,0,1-.54-.3A2.09,2.09,0,0,0,32,351.13a5.85,5.85,0,0,0-2.71.47A.42.42,0,0,1,29,351.61Z"/><path class="cls-11" d="M60.38,344.78l.78,8.48a10.86,10.86,0,0,0,7.11.87l-.72-9.92Z"/><path class="cls-10" d="M66.72,352.93s1.5-2.06,2.71-2,10.63,7.35,13.84,7.91,2.61,2.93,2,4.14S60,363.5,60,363.5s-.92-8-.14-10.28S64.23,353.51,66.72,352.93Z"/><path class="cls-7" d="M72.86,358.34a.45.45,0,0,1-.34,0,.46.46,0,0,1-.2-.6,6.63,6.63,0,0,1,2.14-2.46,3,3,0,0,1,3.08.05.45.45,0,0,1,.12.61.42.42,0,0,1-.6.11,2.15,2.15,0,0,0-2.17,0,5.84,5.84,0,0,0-1.79,2.11A.45.45,0,0,1,72.86,358.34Z"/><path class="cls-7" d="M71.5,357.13a.41.41,0,0,1-.34,0,.45.45,0,0,1-.2-.59A6.55,6.55,0,0,1,73.1,354a3,3,0,0,1,3.08,0,.46.46,0,0,1,.12.62.42.42,0,0,1-.6.11,2.1,2.1,0,0,0-2.17,0,5.84,5.84,0,0,0-1.79,2.1A.38.38,0,0,1,71.5,357.13Z"/><path class="cls-7" d="M74.67,359.29a.45.45,0,0,1-.34,0,.45.45,0,0,1-.2-.6,6.67,6.67,0,0,1,2.13-2.47,3,3,0,0,1,3.09.05.46.46,0,0,1,.12.62.43.43,0,0,1-.61.11,2.07,2.07,0,0,0-2.16,0,5.81,5.81,0,0,0-1.79,2.1A.38.38,0,0,1,74.67,359.29Z"/><path class="cls-6" d="M55.63,252.69l-5.15,42.64a142.75,142.75,0,0,0-9,14.3c-3.7,6.74-13.55,24.21-13.55,24.21l6,4.55L66.5,304.56l8.69-52.28Z"/><path class="cls-5" d="M35.33,338.28a6.64,6.64,0,0,1-2.71,3l-6.92-5.85a10.39,10.39,0,0,1,2.36-3.2Z"/><path class="cls-5" d="M29.27,254.46s9.19,22.6,21.14,40.22c0,0,1.78,17.15,4.83,26.28,1.34,4,3.93,22.94,3.93,22.94l9.06-.41-2.34-52.66L56.3,252.68Z"/><path class="cls-12" d="M69.07,343.18a7.55,7.55,0,0,1,0,4.7l-10.49.3a12.09,12.09,0,0,1-.43-4.59Z"/><path class="cls-4" d="M71.49,173.05c1.36,1.7,4.1,19.08,4.53,36.71l0,1.22c0,1.86.09,3.74.13,5.61s.07,3.7.1,5.54c0,3,.09,6,.13,8.79,0,.33,0,.65,0,1,0,2.77.06,5.43.08,7.92v1c0,3.73,0,7,0,9.68h0v1.07c0,1.86,0,3.33,0,4.32a92.73,92.73,0,0,1-13.17,2.56l-.35,0-.58.07h-.15c-.76.09-1.52.16-2.28.22a89.16,89.16,0,0,1-11.32.21l-1-.06-.89-.05-.41,0-.75-.05A92.08,92.08,0,0,1,29,255.84c0-2.19-.05-6.63-.06-12.37,0-.31,0-.63,0-1,0-6.32,0-14.09.09-22.09,0-.63,0-1.26,0-1.9s0-1.47,0-2.21c0-.12,0-.25,0-.37s0-.35,0-.52c0-.35,0-.7,0-1,0-.51,0-1,0-1.52s0-.76,0-1.15l0-2.28C29.46,193.56,30,179,31,175.25a2.62,2.62,0,0,1,.29-.74,5.47,5.47,0,0,1,.4-.5,8.25,8.25,0,0,1,.66-.67A48.57,48.57,0,0,1,40,168.23l1-.6c.05,0,8.13-2.75,8.18-2.78l8.45.59S69.48,170.55,71.49,173.05Z"/><path class="cls-2" d="M37.41,195.92a.44.44,0,0,0-.79-.27A43.82,43.82,0,0,0,30,208.85c-.31,1-.58,2-.81,2.86,0,.39,0,.77,0,1.15s0,1,0,1.52c0,.34,0,.69,0,1,0,.17,0,.35,0,.52s0,.25,0,.37a53.52,53.52,0,0,1,1.72-7.22,42.84,42.84,0,0,1,6.51-12.9.44.44,0,0,0,.09-.27Z"/><path class="cls-2" d="M39.13,242h0c9.12,0,16.91-4.19,21.83-7.66a50.17,50.17,0,0,0,8.59-7.61.44.44,0,0,0-.68-.56,48.83,48.83,0,0,1-8.44,7.46c-4.81,3.4-12.42,7.46-21.3,7.5a.44.44,0,1,0,0,.87Z"/><path class="cls-2" d="M48.63,245.1c7.92,0,15.81-4.51,16.17-4.72a.44.44,0,1,0-.44-.76c-.09.06-9.38,5.36-17.61,4.51a.44.44,0,1,0-.09.87A18.43,18.43,0,0,0,48.63,245.1Z"/><path class="cls-2" d="M46.37,179.32c7.62-2.12,14-8.57,14.31-8.87a.44.44,0,0,0,0-.62.43.43,0,0,0-.62,0c-.08.07-7.61,7.66-15.77,9a.44.44,0,0,0,.14.87C45.08,179.64,45.73,179.49,46.37,179.32Z"/><path class="cls-5" d="M40,143.72c0,7.71,4.75,13,12.46,13S65.53,151,65.53,143.32,61,129.76,53.25,129.76C44,129.76,40,136,40,143.72Z"/><path class="cls-5" d="M40.16,145.76s-2.7-4.07-1.27-7.22.73-2.53,1.09-5,2.15-3.45,4.28-3.8.67-2.8,3.62-3.68,5.32,2.2,7.22.82,6.56-2.06,7.87,0a3.56,3.56,0,0,0,3.87,2c1.68-.08,3.94,2.57,2.41,5s-4.08,1.47-3.72,3.15,2.52,4.65-.39,8.41C64.26,146.59,40.16,145.76,40.16,145.76Z"/><path class="cls-13" d="M41.72,147s-2.15-2.86-3.74-.5.66,9.34,4.56,7.64Z"/><path class="cls-14" d="M41.69,152a.32.32,0,0,1-.32-.24,5.06,5.06,0,0,0-2.86-3,.34.34,0,0,1-.19-.43.33.33,0,0,1,.43-.19A5.69,5.69,0,0,1,42,151.6a.34.34,0,0,1-.23.41Z"/><path class="cls-14" d="M39.44,150.94a.28.28,0,0,1-.18-.06.32.32,0,0,1-.1-.45,3,3,0,0,1,1.24-1,.33.33,0,0,1,.43.17.32.32,0,0,1-.17.43,2.49,2.49,0,0,0-.95.76A.34.34,0,0,1,39.44,150.94Z"/><path class="cls-13" d="M63.79,147s2.15-2.86,3.74-.5-.66,9.34-4.56,7.64Z"/><path class="cls-14" d="M63.82,152a.32.32,0,0,0,.32-.24,5.06,5.06,0,0,1,2.86-3,.34.34,0,0,0,.19-.43.33.33,0,0,0-.43-.19,5.69,5.69,0,0,0-3.26,3.47.34.34,0,0,0,.23.41Z"/><path class="cls-14" d="M66.07,150.94a.28.28,0,0,0,.18-.06.32.32,0,0,0,.1-.45,2.9,2.9,0,0,0-1.24-1,.33.33,0,0,0-.43.17.32.32,0,0,0,.17.43,2.49,2.49,0,0,1,1,.76A.34.34,0,0,0,66.07,150.94Z"/><path class="cls-11" d="M58,160.1v7.34a5.09,5.09,0,0,1-3.45,2c-3.21.38-6.7-3-6.7-3v-5.82Z"/><path class="cls-13" d="M58,160.1v3.07c-1.88,2.09-5.21,2.61-10.15,1.88v-4.47Z"/><path class="cls-11" d="M40.58,146.91c0,.4.06.8.1,1.22.1,1,.24,2.09.43,3.15,0,0,0,.07,0,.1.93,5.12,3,10.15,7.54,11.76C58.9,166.79,62.55,158,64,152.91c.16-.56.31-1.2.43-1.87,0,0,0,0,0-.08.14-.76.27-1.57.37-2.4.08-.61.14-1.24.2-1.87.15-1.52.25-3.05.31-4.41a7.22,7.22,0,0,0-4.62-7.09c-4.19-1.61-10.56-2.88-16.6.54a7.25,7.25,0,0,0-3.67,6.16C40.42,143.3,40.44,145,40.58,146.91Z"/><path class="cls-5" d="M40.58,146.91c0,.4.06.8.1,1.22.1,1,.24,2.09.43,3.15,0,0,0,.07,0,.1.93,5.12,3,10.15,7.54,11.76C58.9,166.79,62.55,158,64,152.91c.16-.56.31-1.2.43-1.87,0,0,0,0,0-.08.14-.76.27-1.57.37-2.4.08-.61.14-1.24.2-1.87l-1.53.4c-.44,2.32-1.09,5.69-2,7.26-1.34-3.27-8.8-.57-8.8-.57s-6.64-2.36-8.89,0a61.87,61.87,0,0,1-2-6.68Zm12,8.08c5.37-.73,6.7.64,7,2.23A9.25,9.25,0,0,1,54.92,160a10.62,10.62,0,0,1-8.29-1.77C46.35,157,46,153.36,52.54,155Z"/><path class="cls-5" d="M49.28,147.44c0,.74-.38,1.34-.85,1.34s-.86-.6-.86-1.34.39-1.34.86-1.34S49.28,146.7,49.28,147.44Z"/><path class="cls-5" d="M59.17,147.44c0,.74-.38,1.34-.85,1.34s-.85-.6-.85-1.34.38-1.34.85-1.34S59.17,146.7,59.17,147.44Z"/><path class="cls-5" d="M60.73,142.84S58,141.78,56,142.67l.21,1.16a13.24,13.24,0,0,1,4.57.36A2,2,0,0,0,60.73,142.84Z"/><path class="cls-5" d="M45.06,142.84s2.69-1.06,4.76-.17l-.21,1.16a13.24,13.24,0,0,0-4.57.36A2,2,0,0,1,45.06,142.84Z"/><path class="cls-13" d="M53.09,153.26a3.31,3.31,0,0,1-1.22-.11.33.33,0,0,1-.23-.4.33.33,0,0,1,.41-.23,2,2,0,0,0,1.33,0,.37.37,0,0,0,.12-.32,48.91,48.91,0,0,0-.81-5,.33.33,0,0,1,.25-.39.32.32,0,0,1,.39.26,45.8,45.8,0,0,1,.83,5.1,1,1,0,0,1-.38.86A1.38,1.38,0,0,1,53.09,153.26Z"/><path class="cls-7" d="M48.58,155.23c.27,1.36,1.17,3.85,4.18,3.85s3.88-2.27,4.17-3.85Z"/><path class="cls-5" d="M65,147.09H63.5a10.67,10.67,0,0,0-.83-4.51c-1-2.74,1.15-4-.6-5.32s-6.13-.79-9.17-.89a66.14,66.14,0,0,0-9.17.22c-1.2.28-.55,2.26-.11,3.8s-1.46,3.24-1.78,4.83a6.43,6.43,0,0,0,0,1.87H40.59c-.15-1.93-.17-3.74-.14-5.2a7.25,7.25,0,0,1,3.67-6.16c6-3.42,12.41-2.15,16.6-.54a7.22,7.22,0,0,1,4.62,7.09C65.27,143.75,65.16,145.43,65,147.09Z"/><path class="cls-7" d="M54.38,148.11A3.93,3.93,0,1,1,58.31,152,3.93,3.93,0,0,1,54.38,148.11Zm.61,0a3.32,3.32,0,1,0,3.32-3.32A3.32,3.32,0,0,0,55,148.11Z"/><path class="cls-7" d="M43.65,148.11A3.93,3.93,0,1,1,47.57,152,3.93,3.93,0,0,1,43.65,148.11Zm.61,0a3.32,3.32,0,1,0,3.31-3.32A3.31,3.31,0,0,0,44.26,148.11Z"/><path class="cls-7" d="M61.57,146.84a.31.31,0,0,0,.22-.09h0a4.85,4.85,0,0,1,4.14-1.2.31.31,0,0,0,.37-.23.3.3,0,0,0-.23-.36,5.33,5.33,0,0,0-4.71,1.36.3.3,0,0,0,.21.52Z"/><path class="cls-7" d="M44.24,146.84a.29.29,0,0,0,.25-.14.29.29,0,0,0-.08-.42c-.12-.08-2.9-1.87-5.26-1.48a.32.32,0,0,0-.26.35.31.31,0,0,0,.36.25c2.12-.35,4.79,1.38,4.82,1.39A.26.26,0,0,0,44.24,146.84Z"/><path class="cls-7" d="M51.29,147.23a2.44,2.44,0,0,1,1.69-1,2.28,2.28,0,0,1,1.61,1l.51-.33A2.83,2.83,0,0,0,53,145.62a3.05,3.05,0,0,0-2.19,1.25Z"/><path class="cls-10" d="M90,215.28,98.76,222a2.54,2.54,0,0,0,3.54-.47l17-22.16,7-9.16-12.75-9.78-4.16,5.43L89.55,211.74A2.53,2.53,0,0,0,90,215.28Z"/><path class="cls-15" d="M109.41,185.85a34.72,34.72,0,0,0,9.88,13.51l7-9.16-12.75-9.78Z"/><path class="cls-5" d="M79,213.51h.66a4.66,4.66,0,0,1,4.66,4.66v44.91a0,0,0,0,1,0,0h-10a0,0,0,0,1,0,0V218.17A4.66,4.66,0,0,1,79,213.51Z" transform="translate(-2.79 475.64) rotate(-142.51)"/><path class="cls-5" d="M109,125.32a45.19,45.19,0,1,0,63.4-8A45.18,45.18,0,0,0,109,125.32Zm5.47,4.24a38.26,38.26,0,1,1,6.8,53.68A38.32,38.32,0,0,1,114.48,129.56Z"/><path class="cls-16" d="M107.76,143.13a38.23,38.23,0,1,0,1.74-5.06A38.3,38.3,0,0,0,107.76,143.13Z"/><path class="cls-16" d="M127.66,118.78l38.21,66.09a38.19,38.19,0,0,0,13.85-16.38l-31-53.54A38.15,38.15,0,0,0,127.66,118.78Z"/><path class="cls-16" d="M109.5,138.07,140.1,191a37.93,37.93,0,0,0,13.3-.73L116.76,126.9A38,38,0,0,0,109.5,138.07Z"/><path class="cls-11" d="M71.42,234.34H73a3.36,3.36,0,0,0,3-2c.27-.54.65-1.54.9-1.88.72-1,2.69-2.57,3.42-2.62s.6,1.32.08,1.92a12.27,12.27,0,0,0-1.78,2.21c-.44.85,3.6,2.57,5.24,3s4.52-.48,4.8.88-1.88,1.56-1.88,1.56.63,1.22-1.16,2.24a1.66,1.66,0,0,1-.84,1.84,1.85,1.85,0,0,1-1.21,1.92c-1.35.4-5.55,1.62-13.79-3.38Z"/><path class="cls-2" d="M43.15,199.36c3.11,11.76,6.16,16.95,6.16,16.95A43.28,43.28,0,0,0,60,226.69a138.92,138.92,0,0,0,13,7.65c-1.38,1.79-2.35,5.34-1.82,6.4-16.64,0-31.2-15.76-31.2-15.76-11.64-20.27-12.4-36.77-12.21-42.78a11.46,11.46,0,0,1,1.85-6,5.88,5.88,0,0,1,2.24-2.17,12.11,12.11,0,0,1,6.72,7.71C40.28,187.64,43.15,199.36,43.15,199.36Z"/><path class="cls-11" d="M118.53,201.32s-3.7-1.3-5.4-.6,3,3.27,3,3.27-5.72-3.05-6.7-1.82,4.48,4.34,4.48,4.34-4.19-1.47-5-.61,3.05,3.31,3.05,3.31-3.43-.83-4.15-.25,2.33,3,4.26,3.68,2.25-2.08,2.25-2.08,1.82-1.6,1.57-2.71c0,0,1.89-1.27,2-2.57C117.88,205.28,120.55,202.93,118.53,201.32Z"/><path class="cls-4" d="M425.87,75.86a5.42,5.42,0,1,1-5.42,5.42A5.42,5.42,0,0,1,425.87,75.86Zm0,9.14a3.72,3.72,0,1,0-3.72-3.72A3.72,3.72,0,0,0,425.87,85Z"/><path class="cls-10" d="M406.36,56.85a5.42,5.42,0,1,1-5.42,5.42A5.42,5.42,0,0,1,406.36,56.85Zm0,9.14a3.72,3.72,0,1,0-3.72-3.72A3.73,3.73,0,0,0,406.36,66Z"/><path class="cls-4" d="M399.67,39.25a.86.86,0,0,1,.85.85v3.74a.85.85,0,0,1-1.7,0V40.1A.85.85,0,0,1,399.67,39.25Z"/><path class="cls-4" d="M399.67,32.69a.86.86,0,0,1,.85.85v3.74a.85.85,0,1,1-1.7,0V33.54A.85.85,0,0,1,399.67,32.69Z"/><path class="cls-4" d="M394.4,37.84h3.37a.85.85,0,1,1,0,1.7H394.4a.85.85,0,0,1,0-1.7Z"/><path class="cls-4" d="M401.56,37.84h3.37a.85.85,0,1,1,0,1.7h-3.37a.85.85,0,0,1,0-1.7Z"/><path class="cls-10" d="M429.58,60.25a.85.85,0,0,1,.85.85v3.75a.85.85,0,0,1-1.7,0V61.1A.85.85,0,0,1,429.58,60.25Z"/><path class="cls-10" d="M429.58,53.69a.85.85,0,0,1,.85.85v3.75a.85.85,0,0,1-1.7,0V54.54A.85.85,0,0,1,429.58,53.69Z"/><path class="cls-10" d="M424.32,58.84h3.37a.85.85,0,1,1,0,1.7h-3.37a.85.85,0,0,1,0-1.7Z"/><path class="cls-10" d="M431.48,58.84h3.36a.85.85,0,1,1,0,1.7h-3.36a.85.85,0,0,1,0-1.7Z"/><path class="cls-4" d="M109.44,49.18A5.42,5.42,0,1,1,104,43.76,5.43,5.43,0,0,1,109.44,49.18Zm-9.14,0A3.72,3.72,0,1,0,104,45.46,3.73,3.73,0,0,0,100.3,49.18Z"/><path class="cls-10" d="M129.17,31.28a5.42,5.42,0,1,1-5.42-5.42A5.42,5.42,0,0,1,129.17,31.28Zm-9.14,0a3.72,3.72,0,1,0,3.72-3.72A3.73,3.73,0,0,0,120,31.28Z"/><path class="cls-4" d="M130.9,56.83a.85.85,0,0,1-.85.85H126.3a.85.85,0,1,1,0-1.7h3.75A.85.85,0,0,1,130.9,56.83Z"/><path class="cls-4" d="M137.46,56.83a.85.85,0,0,1-.85.85h-3.75a.85.85,0,1,1,0-1.7h3.75A.85.85,0,0,1,137.46,56.83Z"/><path class="cls-4" d="M132.3,51.57v3.37a.85.85,0,0,1-1.7,0V51.57a.85.85,0,1,1,1.7,0Z"/><path class="cls-4" d="M132.3,58.73v3.36a.85.85,0,0,1-1.7,0V58.73a.85.85,0,0,1,1.7,0Z"/><path class="cls-10" d="M91.21,27.56a.85.85,0,0,1-.85.85H86.61a.85.85,0,0,1,0-1.7h3.75A.85.85,0,0,1,91.21,27.56Z"/><path class="cls-10" d="M97.77,27.56a.85.85,0,0,1-.85.85H93.17a.85.85,0,1,1,0-1.7h3.75A.85.85,0,0,1,97.77,27.56Z"/><path class="cls-10" d="M92.61,22.3v3.37a.85.85,0,1,1-1.7,0V22.3a.85.85,0,0,1,1.7,0Z"/><path class="cls-10" d="M92.61,29.46v3.36a.85.85,0,0,1-1.7,0V29.46a.85.85,0,0,1,1.7,0Z"/><rect class="cls-10" x="2.49" y="146.79" width="23.91" height="23.91" rx="6.54"/><path class="cls-7" d="M13.11,160a5.15,5.15,0,1,1,7.28-.29A5.15,5.15,0,0,1,13.11,160Zm5.83-6.32a3.45,3.45,0,1,0,.2,4.87A3.46,3.46,0,0,0,18.94,153.7Z"/><path class="cls-7" d="M7.42,166.18a.86.86,0,0,1,0-1.2l5.69-6.16A.85.85,0,0,1,14.31,160l-5.69,6.16A.84.84,0,0,1,7.42,166.18Z"/><rect class="cls-10" x="409.2" y="105.35" width="23.91" height="23.91" rx="6.54"/><path class="cls-7" d="M416.58,117.43v-4.58a.77.77,0,0,1,1.13-.68l4.48,2.33,4.29,2.25a.77.77,0,0,1,0,1.37l-4.29,2.24-4.48,2.34a.78.78,0,0,1-1.13-.69Z"/><rect class="cls-10" x="246.13" y="41.44" width="116.45" height="25.26" rx="11.8"/><path class="cls-15" d="M350.13,46.56a7.51,7.51,0,1,0,7.5,7.51A7.52,7.52,0,0,0,350.13,46.56Zm.3,10.28V54.21h3.39a10.12,10.12,0,0,1-.4,2.63Zm2.12,3a8.5,8.5,0,0,0,1.31-2.39h2.28a6.84,6.84,0,0,1-4.49,3.36A7.55,7.55,0,0,0,352.55,59.83Zm.66-2.39a7.37,7.37,0,0,1-1.12,2A6.2,6.2,0,0,1,350.43,61V57.44Zm-2.78-7.07v-3.2l.27,0a9.48,9.48,0,0,1,2.35,3.18Zm3.28,0a9.66,9.66,0,0,0-1-1.84,9.89,9.89,0,0,0-.95-1.17,7,7,0,0,1,4.2,3Zm-3.28,3.23V51h2.87a8.84,8.84,0,0,1,.52,2.63Zm4,0a9.53,9.53,0,0,0-.48-2.63h2.35A6.75,6.75,0,0,1,357,53.6Zm2.6.61a6.83,6.83,0,0,1-.57,2.63h-2.4a10.7,10.7,0,0,0,.37-2.63Zm-10.75,2.63h-2.46a6.84,6.84,0,0,1-.58-2.63h2.67A10.7,10.7,0,0,0,346.27,56.84Zm1-6.47a9.5,9.5,0,0,1,2.36-3.19h.19v3.2Zm2.55.6V53.6h-3.31A8.54,8.54,0,0,1,347,51Zm-5.52-.6a6.92,6.92,0,0,1,4.29-3,10.46,10.46,0,0,0-1,1.19,9.66,9.66,0,0,0-1,1.84Zm5.52,3.84v2.63H346.9a10.12,10.12,0,0,1-.4-2.63Zm-6.58-.61A6.75,6.75,0,0,1,344,51h2.43a9.54,9.54,0,0,0-.49,2.63Zm3.22,3.84a8.5,8.5,0,0,0,1.31,2.39,7.87,7.87,0,0,0,.92,1,7,7,0,0,1-4.58-3.38Zm3.36,0v3.48a7.18,7.18,0,0,1-2.71-3.48Z"/><path class="cls-15" d="M331.17,46.85a7.14,7.14,0,0,1,0,14.28H259a7.14,7.14,0,0,1,0-14.28h72.13m0-.73H259a7.87,7.87,0,1,0,0,15.74h72.13a7.87,7.87,0,1,0,0-15.74Z"/><ellipse class="cls-1" cx="359.43" cy="366.54" rx="50.84" ry="6.78"/><path class="cls-2" d="M375.5,357.8h-.08s-9-1.18-9-8.54v-51h-8.53v51c0,7.36-9,8.54-9,8.54h-.07a7.89,7.89,0,0,0-7.89,7.89h42.49A7.89,7.89,0,0,0,375.5,357.8Z"/><path class="cls-4" d="M403,298.3H321.28a15.64,15.64,0,0,1,15.43-12.85l25.43.07,25.44-.07A15.64,15.64,0,0,1,403,298.3Z"/><path class="cls-2" d="M343.19,205s-12.42,16.56-14.07,31c-1.17,10.2,14.07,25.44,14.07,25.44l5.24-2.62L343.2,247c-1.86-5.74-4.15-8-2.46-13.81l3.79-8.17Z"/><path class="cls-2" d="M382.31,204.75s12.25,17.66,13.27,32.16c.87,12.5-14.13,24.53-14.13,24.53l-4.33-2.16,6-11.92c1.86-5.74,2.75-9.2.21-15.45l-3.22-6.86Z"/><path class="cls-4" d="M345.72,242.71l-8.23,26.18s35.63,4.54,46.52,1.6L378.48,242l3.83-37.23a53.08,53.08,0,0,0-16.76-4.1c-8.42-.61-13.75.78-22.36,4.35Z"/><path class="cls-2" d="M354.62,212.89c7.86-.92,15.18-6.32,15.51-6.56a.44.44,0,1,0-.53-.71c-.08.07-8.69,6.42-17,6.53a.44.44,0,0,0-.44.44.45.45,0,0,0,.45.44A18.45,18.45,0,0,0,354.62,212.89Z"/><polygon class="cls-11" points="360.96 353.15 361.6 358.93 367.75 359.07 368.26 354.28 360.96 353.15"/><path class="cls-6" d="M360,261.51s-15.92-.88-21.31,3.53-4.31,17.08,1.18,20.53,14.86,10.25,14.86,10.25l6,59.22,7.87.27s7.25-59.49,3.57-71S360,261.51,360,261.51Z"/><path class="cls-5" d="M369.28,352.37a6.6,6.6,0,0,1-.21,4.05l-9.05-.2a10.42,10.42,0,0,1-.18-4Z"/><path class="cls-10" d="M382.52,261.06H340.74l-3.86-22.58a3.2,3.2,0,0,1,3.16-3.74h43.19a3.2,3.2,0,0,1,3.15,3.74Z"/><path class="cls-15" d="M340.74,261.06h41.82a0,0,0,0,1,0,0v1.29a3.62,3.62,0,0,1-3.62,3.62H344.36a3.62,3.62,0,0,1-3.62-3.62v-1.29A0,0,0,0,1,340.74,261.06Z"/><path class="cls-17" d="M365.35,248.83a3.63,3.63,0,1,1-3.62-3.63A3.62,3.62,0,0,1,365.35,248.83Z"/><polygon class="cls-11" points="334.84 336.9 333.48 342.62 339 343.71 341.25 338.6 334.84 336.9"/><path class="cls-5" d="M368.08,260.53s-10.66-3.68-16.91,4-16.72,72.9-16.72,72.9l7.18,3,23.06-57.88s18.78,10.71,21.06-4.52C387.55,266,368.08,260.53,368.08,260.53Z"/><path class="cls-12" d="M343.25,337.44a6.72,6.72,0,0,1-1.51,3.91l-8.81-3.11a10.83,10.83,0,0,1,1.1-4Z"/><path class="cls-10" d="M337.69,341.68a33.91,33.91,0,0,0-4.33-1.9c-1-.19-9.11,5.58-11.41,5.52-4.18-.1-5.52,6-3.14,6.87,6.86,2.41,19.57,2.11,19.57,2.11s2.82-7.63,2.87-10.2S339.5,342.83,337.69,341.68Z"/><path class="cls-7" d="M330.39,347.12a.48.48,0,0,0,.39,0,.49.49,0,0,0,.28-.64,7.73,7.73,0,0,0-2.21-3,3.51,3.51,0,0,0-3.53-.34.47.47,0,0,0-.19.66.49.49,0,0,0,.67.2,2.53,2.53,0,0,1,2.48.28,6.85,6.85,0,0,1,1.85,2.56A.51.51,0,0,0,330.39,347.12Z"/><path class="cls-7" d="M332.05,346a.55.55,0,0,0,.4,0,.49.49,0,0,0,.28-.64,7.8,7.8,0,0,0-2.21-3A3.54,3.54,0,0,0,327,342a.49.49,0,0,0-.2.67.51.51,0,0,0,.68.2,2.47,2.47,0,0,1,2.48.28,6.65,6.65,0,0,1,1.85,2.55A.51.51,0,0,0,332.05,346Z"/><path class="cls-7" d="M328.23,348a.55.55,0,0,0,.4,0,.47.47,0,0,0,.27-.63,7.51,7.51,0,0,0-2.21-3,3.52,3.52,0,0,0-3.52-.34.49.49,0,0,0-.2.67.51.51,0,0,0,.68.2,2.47,2.47,0,0,1,2.48.28,6.77,6.77,0,0,1,1.85,2.55A.48.48,0,0,0,328.23,348Z"/><path class="cls-10" d="M364,358.69a32,32,0,0,1,4.38-1.06c1,0,7.63,6.75,9.81,7.08,3.94.6,4.17,6.58,1.81,7-6.85,1.13-18.74-1.26-18.74-1.26s-1.38-7.64-1-10.06S362.07,359.47,364,358.69Z"/><path class="cls-7" d="M369.92,365a.49.49,0,0,1-.37,0,.47.47,0,0,1-.15-.65,7.32,7.32,0,0,1,2.57-2.45,3.33,3.33,0,0,1,3.37.27.46.46,0,0,1,.08.66.5.5,0,0,1-.68.07,2.36,2.36,0,0,0-2.37-.15,6.44,6.44,0,0,0-2.16,2.1A.5.5,0,0,1,369.92,365Z"/><path class="cls-7" d="M368.55,363.66a.54.54,0,0,1-.37-.05A.48.48,0,0,1,368,363a7.3,7.3,0,0,1,2.58-2.45,3.33,3.33,0,0,1,3.37.27.45.45,0,0,1,.07.65.49.49,0,0,1-.67.08,2.37,2.37,0,0,0-2.37-.15,6.43,6.43,0,0,0-2.16,2.09A.47.47,0,0,1,368.55,363.66Z"/><path class="cls-7" d="M371.81,366.15a.45.45,0,0,1-.37,0,.46.46,0,0,1-.15-.64,7.23,7.23,0,0,1,2.57-2.46,3.33,3.33,0,0,1,3.37.27.46.46,0,0,1,.07.66.48.48,0,0,1-.67.07,2.37,2.37,0,0,0-2.37-.15,6.33,6.33,0,0,0-2.16,2.1A.5.5,0,0,1,371.81,366.15Z"/><path class="cls-5" d="M350,184.15s-5.11-8.73-.8-15.48,13.47-6.11,15.84-5.58,16,6.93,7.76,22.46Z"/><path class="cls-13" d="M350.82,181.68s-2.07-2.76-3.61-.48.64,9,4.4,7.38Z"/><path class="cls-14" d="M350.79,186.49a.32.32,0,0,1-.31-.23,4.89,4.89,0,0,0-2.76-2.93.32.32,0,0,1-.18-.41.33.33,0,0,1,.41-.19,5.49,5.49,0,0,1,3.15,3.36.31.31,0,0,1-.22.39Z"/><path class="cls-14" d="M348.62,185.45a.41.41,0,0,1-.18,0,.32.32,0,0,1-.09-.44,2.85,2.85,0,0,1,1.19-1,.32.32,0,0,1,.42.16.31.31,0,0,1-.16.42,2.53,2.53,0,0,0-.92.73A.32.32,0,0,1,348.62,185.45Z"/><path class="cls-13" d="M372.14,181.68s2.07-2.76,3.6-.48-.63,9-4.4,7.38Z"/><path class="cls-14" d="M372.16,186.49a.32.32,0,0,0,.31-.23,4.92,4.92,0,0,1,2.76-2.93.31.31,0,0,0,.18-.41.32.32,0,0,0-.41-.19,5.48,5.48,0,0,0-3.14,3.36.31.31,0,0,0,.22.39Z"/><path class="cls-14" d="M374.34,185.45a.34.34,0,0,0,.17,0,.32.32,0,0,0,.1-.44,2.92,2.92,0,0,0-1.2-1,.32.32,0,0,0-.26.58,2.32,2.32,0,0,1,.92.73A.33.33,0,0,0,374.34,185.45Z"/><path class="cls-11" d="M366.57,194.29V201s-2,3.41-4.7,3.64-5.1-2.93-5.1-2.93v-6.94Z"/><path class="cls-13" d="M366.57,194.29v3c-1.81,2-5,2.52-9.8,1.81v-4.31Z"/><path class="cls-11" d="M373.63,177.08a64,64,0,0,1-.87,8.47,17.79,17.79,0,0,1-.42,1.8c-1.41,4.94-4.93,13.41-14.8,9.88-4.37-1.56-6.39-6.41-7.29-11.35a48.3,48.3,0,0,1-.66-9.17,7,7,0,0,1,3.55-6c5.83-3.3,12-2.07,16-.52A7,7,0,0,1,373.63,177.08Z"/><path class="cls-5" d="M358.82,167.55s13,20.89,14.82,13.23C376.19,169.92,368.4,163.2,358.82,167.55Z"/><path class="cls-5" d="M358.28,167.54c-8.67.07-13,9.92-9,11.09,5.6,1.62,10.45-6.3,11.94-9C360.25,168.92,359.24,168.26,358.28,167.54Z"/><circle class="cls-5" cx="365.49" cy="162.86" r="8.57" transform="translate(-34.48 151.4) rotate(-22.38)"/><path class="cls-5" d="M351.11,177.69s.67,2.62-.25,4.38-.41,4.79,0,8.18a10.49,10.49,0,0,1-1.55-5.38c-.08-3.32.46-6.08,0-7.4Z"/><path class="cls-5" d="M371.58,177.69s-.67,2.62.25,4.38.41,4.79,0,8.18a10.43,10.43,0,0,0,1.54-5.38c.09-3.32-.45-6.08,0-7.4Z"/><path class="cls-5" d="M357.13,182.71c0,.72-.37,1.3-.82,1.3s-.83-.58-.83-1.3.37-1.29.83-1.29S357.13,182,357.13,182.71Z"/><path class="cls-5" d="M367.3,182.71c0,.72-.37,1.3-.83,1.3s-.82-.58-.82-1.3.37-1.29.82-1.29S367.3,182,367.3,182.71Z"/><path class="cls-5" d="M354.68,178.22a13.19,13.19,0,0,1,3.52-.53.62.62,0,0,1,.61.72h0a.61.61,0,0,1-.62.5,15.3,15.3,0,0,0-4.83.59.94.94,0,0,1,.28-.66A2.14,2.14,0,0,1,354.68,178.22Z"/><path class="cls-5" d="M368,178.24a13.84,13.84,0,0,0-3.52-.52.61.61,0,0,0-.61.71h0a.6.6,0,0,0,.63.5,15.88,15.88,0,0,1,4.82.59.94.94,0,0,0-.28-.65A2.2,2.2,0,0,0,368,178.24Z"/><path class="cls-13" d="M361.59,188a1.33,1.33,0,0,1-.69-.16,1,1,0,0,1-.47-.78,48.16,48.16,0,0,1,.19-5,.32.32,0,0,1,.64,0,47.71,47.71,0,0,0-.19,4.87.37.37,0,0,0,.15.3,1.89,1.89,0,0,0,1.28-.12.31.31,0,0,1,.41.17.32.32,0,0,1-.17.42A3.53,3.53,0,0,1,361.59,188Z"/><path class="cls-18" d="M357.55,190a3.79,3.79,0,0,0,3.73,3.44c2.7,0,3.46-2,3.72-3.44Z"/><path class="cls-13" d="M361.24,195.29a3.12,3.12,0,0,1-1.49-.44.31.31,0,0,1-.1-.44.31.31,0,0,1,.43-.1h0a2.67,2.67,0,0,0,1.16.34,2.74,2.74,0,0,0,1.22-.34.32.32,0,0,1,.44.1.32.32,0,0,1-.11.44A3.24,3.24,0,0,1,361.24,195.29Z"/></g></g></svg>