<svg xmlns="http://www.w3.org/2000/svg" xmlns:xlink="http://www.w3.org/1999/xlink" viewBox="0 0 583.91 761.02"><defs><style>.cls-1{fill:url(#linear-gradient);}.cls-2{fill:#fff;}.cls-3{fill:url(#linear-gradient-2);}.cls-4{fill:url(#linear-gradient-3);}.cls-5{fill:url(#linear-gradient-4);}.cls-6{fill:url(#linear-gradient-5);}.cls-7{fill:url(#linear-gradient-6);}.cls-8{fill:url(#linear-gradient-7);}.cls-9{fill:url(#linear-gradient-8);}.cls-10{fill:url(#linear-gradient-9);}.cls-11{fill:url(#linear-gradient-10);}.cls-12{fill:url(#linear-gradient-11);}.cls-13{fill:url(#linear-gradient-12);}.cls-14{fill:url(#linear-gradient-13);}.cls-15{fill:url(#linear-gradient-14);}.cls-16{fill:url(#linear-gradient-15);}.cls-17{fill:url(#linear-gradient-16);}.cls-18{fill:url(#linear-gradient-17);}.cls-19{fill:url(#linear-gradient-18);}.cls-20{fill:url(#linear-gradient-19);}.cls-21{fill:#7d97f4;}.cls-22{fill:url(#linear-gradient-20);}.cls-23{fill:url(#linear-gradient-21);}.cls-24{fill:url(#linear-gradient-22);}.cls-25{fill:url(#linear-gradient-23);}.cls-26{fill:url(#linear-gradient-24);}.cls-27{fill:url(#linear-gradient-25);}</style><linearGradient id="linear-gradient" x1="-5.92" y1="-53.01" x2="250.9" y2="327.16" gradientUnits="userSpaceOnUse"><stop offset="0" stop-color="#4042e2"/><stop offset="1" stop-color="#4f52ff"/></linearGradient><linearGradient id="linear-gradient-2" x1="58.37" y1="56.37" x2="148.89" y2="56.37" gradientUnits="userSpaceOnUse"><stop offset="0" stop-color="#dae3fe"/><stop offset="1" stop-color="#e9effd"/></linearGradient><linearGradient id="linear-gradient-3" x1="60.63" y1="123.13" x2="103.63" y2="123.13" xlink:href="#linear-gradient-2"/><linearGradient id="linear-gradient-4" x1="90.8" y1="140.1" x2="116.08" y2="140.1" xlink:href="#linear-gradient-2"/><linearGradient id="linear-gradient-5" x1="11445.51" y1="716.35" x2="11478.67" y2="507.75" gradientTransform="translate(-11108.54)" xlink:href="#linear-gradient"/><linearGradient id="linear-gradient-6" x1="11458.8" y1="718.47" x2="11491.97" y2="509.86" gradientTransform="translate(-11108.54)" xlink:href="#linear-gradient"/><linearGradient id="linear-gradient-7" x1="351.61" y1="569.85" x2="352.27" y2="462.51" gradientUnits="userSpaceOnUse"><stop offset="0" stop-color="#ffb64f"/><stop offset="1" stop-color="#ffc959"/></linearGradient><linearGradient id="linear-gradient-8" x1="-2379.04" y1="662.75" x2="-2406.13" y2="716.02" gradientTransform="matrix(-1, 0, 0, 1, -2152.9, 0)" gradientUnits="userSpaceOnUse"><stop offset="0" stop-color="#09005d"/><stop offset="1" stop-color="#1a0f91"/></linearGradient><linearGradient id="linear-gradient-9" x1="-2430.55" y1="683.95" x2="-2403.57" y2="683.95" gradientTransform="matrix(-1, 0, 0, 1, -2152.9, 0)" gradientUnits="userSpaceOnUse"><stop offset="0" stop-color="#ff928e"/><stop offset="1" stop-color="#feb3b1"/></linearGradient><linearGradient id="linear-gradient-10" x1="-2467.89" y1="612.55" x2="-2353.22" y2="451.85" xlink:href="#linear-gradient-8"/><linearGradient id="linear-gradient-11" x1="-2394.76" y1="716.61" x2="-2488.66" y2="839.39" xlink:href="#linear-gradient-8"/><linearGradient id="linear-gradient-12" x1="-2441.75" y1="743.2" x2="-2369.2" y2="743.2" gradientTransform="matrix(-1, 0, 0, 1, -2152.9, 0)" gradientUnits="userSpaceOnUse"><stop offset="0" stop-color="#fe7062"/><stop offset="1" stop-color="#ff928e"/></linearGradient><linearGradient id="linear-gradient-13" x1="-2450.06" y1="708.85" x2="-2424.74" y2="708.85" xlink:href="#linear-gradient-9"/><linearGradient id="linear-gradient-14" x1="-2509.21" y1="692.64" x2="-2502.89" y2="477.76" xlink:href="#linear-gradient-8"/><linearGradient id="linear-gradient-15" x1="-2352.56" y1="483.66" x2="-2414.86" y2="386.15" gradientTransform="matrix(-1, 0, 0, 1, -2152.9, 0)" xlink:href="#linear-gradient"/><linearGradient id="linear-gradient-16" x1="-2372.68" y1="416.83" x2="-2284.34" y2="416.83" xlink:href="#linear-gradient-9"/><linearGradient id="linear-gradient-17" x1="-2413.42" y1="311.04" x2="-2612.05" y2="455.49" gradientTransform="matrix(-1, 0, 0, 1, -2152.9, 0)" xlink:href="#linear-gradient"/><linearGradient id="linear-gradient-18" x1="268.76" y1="281.9" x2="297.4" y2="307.06" gradientTransform="matrix(1, 0, 0, 1, 0, 0)" xlink:href="#linear-gradient-9"/><linearGradient id="linear-gradient-19" x1="-2441.91" y1="271.87" x2="-2640.54" y2="416.33" gradientTransform="matrix(-1, 0, 0, 1, -2152.9, 0)" xlink:href="#linear-gradient"/><linearGradient id="linear-gradient-20" x1="435.68" y1="322.21" x2="354.34" y2="446.87" gradientTransform="matrix(1, 0, 0, 1, 0, 0)" xlink:href="#linear-gradient-9"/><linearGradient id="linear-gradient-21" x1="298.29" y1="244.32" x2="241" y2="250.51" gradientTransform="matrix(1, 0, 0, 1, 0, 0)" xlink:href="#linear-gradient-9"/><linearGradient id="linear-gradient-22" x1="-2139.73" y1="-1527.27" x2="-2052.21" y2="-1527.27" gradientTransform="matrix(-0.97, -0.25, -0.25, 0.97, -2158.57, 1173.13)" xlink:href="#linear-gradient-8"/><linearGradient id="linear-gradient-23" x1="298.73" y1="248.45" x2="241.44" y2="254.64" gradientTransform="matrix(1, 0, 0, 1, 0, 0)" xlink:href="#linear-gradient-9"/><linearGradient id="linear-gradient-24" x1="11334.93" y1="1148.35" x2="11220.04" y2="1179.84" gradientTransform="translate(-11063.54 -173.79) rotate(-2.83)" xlink:href="#linear-gradient-8"/><linearGradient id="linear-gradient-25" x1="11267.55" y1="339.02" x2="11186.03" y2="425.18" gradientTransform="translate(-11108.54)" xlink:href="#linear-gradient-8"/></defs><g id="Layer_2" data-name="Layer 2"><g id="Illustration"><path class="cls-1" d="M188.16,88c0-48.6-38.38-88-85.73-88S16.69,39.4,16.69,88c0,35.92,21,66.8,51.05,80.47a22.53,22.53,0,0,1,12.88,16.69c5.4,31.49,11.83,84.21,14.6,85.23,5.06,1.86,20.73-57.81,28.88-87.16a22.51,22.51,0,0,1,12.51-14.53C167,155.15,188.16,124.12,188.16,88Z"/><path class="cls-2" d="M66.54,72.21h-1c-5.65,0-9.42,5-9.42,10.69v22.49c0,5.66,3.77,7.56,9.42,7.56h1c2.69,0,3.14.5,3.14-2.19V77.53C69.68,74.84,69.23,72.21,66.54,72.21Z"/><path class="cls-2" d="M140.35,72.21h1c5.66,0,9.81,5,9.81,10.69v22.49c0,5.66-4.15,7.56-9.81,7.56h-1c-2.69,0-5,.5-5-2.19V77.53A5.42,5.42,0,0,1,140.35,72.21Z"/><path class="cls-3" d="M148.89,81.26H142.1v-4c0-21.27-15.58-36.74-36.85-36.74h-.4c-22,0-39.69,16.5-39.69,36.74V79H58.37V77.27c0-23.78,20.92-45.8,46.48-45.8h.4c24.59,0,43.64,21.21,43.64,45.8Z"/><path class="cls-4" d="M103.63,142.37h-27c-7.4,0-16-6.62-16-14V103.89h6.79v24.47c0,3.81,5.4,7.22,9.22,7.22h27Z"/><path class="cls-5" d="M116.08,140.1a6.32,6.32,0,0,1-6.32,6.32H97.12a6.32,6.32,0,0,1-6.32-6.32h0a6.32,6.32,0,0,1,6.32-6.32h12.64a6.32,6.32,0,0,1,6.32,6.32Z"/><rect class="cls-6" x="341.27" y="558.04" width="15.34" height="165.93"/><path class="cls-7" d="M416.14,727.17H281.75a10,10,0,0,1,10-10H406.15a10,10,0,0,1,10,10Z"/><rect class="cls-8" x="261.98" y="518.53" width="179.57" height="50.93" rx="17.54"/><path class="cls-9" d="M263.49,694.58s-43.82,31.58-36.21,52.8c0,0,47.94-20.69,53.73-37s-1-23.49-1-23.49Z"/><path class="cls-10" d="M270.07,668.11l7.16,20.71a7.19,7.19,0,0,1-2.79,8.45,18.57,18.57,0,0,1-5.93,2.3,8.39,8.39,0,0,1-9.28-4.21l-8.57-16.14Z"/><path class="cls-11" d="M339.79,481.69s-90,15.6-128.6,51.26,35.44,149.42,35.44,149.42,12.13-.08,26.83-12.68c0,0-43.9-85.55-6.07-110.5,42.53-28.05,91.55-34.37,91.55-34.37l-18.28-40.38Z"/><path class="cls-12" d="M234.89,735.64c9.64-4.46,36.92-23.55,41.52-24.4S289,715.81,289,715.81s1.94,3.48-.14,9.57c-6.4,7.75-20.62,22.52-39.73,28-14.06,4.05-23.9.28-30-4.14A40.59,40.59,0,0,1,234.89,735.64Z"/><path class="cls-13" d="M249.12,753.4c19.11-5.5,33.33-20.27,39.73-28-1.4,4.11-4.63,9.41-11.55,15.62-17.13,15.41-49.86,21-56.83,19.89-5.59-.86-5.06-6-1.37-11.63C225.22,753.68,235.06,757.45,249.12,753.4Z"/><path class="cls-14" d="M297.16,702.33c-.11,2.65-5.54,11.76-8.71,16.86a8.25,8.25,0,0,1-7,3.92,21.17,21.17,0,0,1-5.79-.69,5.37,5.37,0,0,1-3.61-6.68l6.2-21.16Z"/><path class="cls-15" d="M426.42,454.68s20,53.44,0,69.69-67.67,34.55-78.32,66.92-28.72,95.28-52.91,117.56c0,0-17-1.65-23.36-8.42,0,0,13.78-93.91,22.87-118,7.86-20.87,19.46-51,41.67-67.82,6.36-4.82,5.25-12.46,2.31-19.87l-5.37-13.5Z"/><path class="cls-16" d="M218,412.8c33.52,2,23.07-51.52,22.47-53.65l50.86,35.92s-2.69,28.63-45,43.65a52.53,52.53,0,0,1-29.12,2.11A46.16,46.16,0,0,0,218,412.8Z"/><path class="cls-17" d="M153.18,396.68c12.49-8.68,26.63,0,26.63,0,16.7,10.92,29.05,15.57,38.16,16.12a46.16,46.16,0,0,1-.77,28c-18.7-4-32.09-17.56-37.9-24.5a6,6,0,0,0-8.36-.92c-2.6,2.06-5.13,4.87-4.67,7.83.9,5.83-5.87,7.69-6.38,5.57s2.32-14.66,2.32-14.66S148.67,427.77,143.38,433s-11.94,0-11.94,0S140.69,405.37,153.18,396.68Z"/><path class="cls-18" d="M374.23,276.47S325.48,257,234.75,331.86c0,0-7.58,15.68.69,29.65s87,82,97.87,119.72c0,0,46.93,15.25,95.46-20.91C428.77,460.32,424.49,355.32,374.23,276.47Z"/><path class="cls-19" d="M277.85,259.05l24,29.1a9.55,9.55,0,0,1,1.26,10.27c-3.33,6.79-11.23,16.68-28.76,15.32a14.72,14.72,0,0,1-12.11-8.27l-16.78-34.69Z"/><path class="cls-20" d="M412,401.08c5.66-23.05-51.66-74.44-51.66-74.44l13.92-50.17S498,358.88,466.47,425.15c-4.52,9.49-10.53,16.15-17.49,20.6C439,418.92,423.13,406.61,412,401.08Z"/><path class="cls-21" d="M412,397.72a1.36,1.36,0,0,0,1.32-1c5.79-23.57-49.72-73.64-52.08-75.77a1.36,1.36,0,0,0-1.81,2c.57.51,56.66,51.1,51.26,73.1a1.35,1.35,0,0,0,1,1.64A1.22,1.22,0,0,0,412,397.72Z"/><path class="cls-22" d="M325.15,399.09s68,26.39,84.55,6.54a11,11,0,0,0,2.27-4.55c11.16,5.53,27,17.84,37,44.67-35.75,22.84-96.85-12.71-113.37-23.19a12.33,12.33,0,0,0-9.13-1.67c-6.37,1.32-17.38,3.26-23.32,2.35-8.68-1.34-21.16,29.3-35.24,19.85C267.92,443.09,280,389.83,325.15,399.09Z"/><path class="cls-23" d="M225.63,216.32c-.17.68,3.35,42.25,5.29,64.88a11.76,11.76,0,0,0,15,10.28L261,287.06a22.64,22.64,0,0,0,12.6-9.37l4.52-6.93-7.23-55.13S229.67,200.66,225.63,216.32Z"/><path class="cls-24" d="M228.61,186.85c9.1-.55,13,4.75,14.72,9.47a4.44,4.44,0,0,0,6,2.58,3.56,3.56,0,0,1,4.05.31,4.52,4.52,0,0,0,5.8-.05c4.11-3.55,11.46-7.66,20.13-2.57s7,12.22,4.77,16.82a4.51,4.51,0,0,0,2.2,6.12c11.19,5.05,8,14,6,17.82a4.46,4.46,0,0,1-2.73,2.19c-3.58,1-11.89,4-13.34,10.34-.13.55-.25,1.26-.38,2a61.7,61.7,0,0,0-13.91-2.34l-.48-21.29a4.51,4.51,0,0,0-1.76-3.47c-3.42-2.61-11.38-7.66-18.3-4.43-9.11,4.25-26.55,6.3-29.6-4.45S212.47,187.83,228.61,186.85Z"/><path class="cls-25" d="M276.38,261.65s-4.51-19,2.67-22.7,16.84-.32,13.21,12.66C287.74,267.75,276.38,261.65,276.38,261.65Z"/><path class="cls-26" d="M290.33,451.13H290L147.39,451a6.38,6.38,0,1,1,0-12.76l142.6.15a6.38,6.38,0,0,1,.32,12.76Z"/><path class="cls-27" d="M19.2,321.65H138a22.63,22.63,0,0,1,20.47,13l54.91,116.42H65.75a13.77,13.77,0,0,1-12.8-8.7L10.38,334.62A9.49,9.49,0,0,1,19.2,321.65Z"/><path class="cls-21" d="M38.45,757a6,6,0,0,1-2.36-.48A5.73,5.73,0,0,1,33,748.89L158.63,466a6.08,6.08,0,0,1,7.87-3,5.74,5.74,0,0,1,3.14,7.63L44,753.48A6,6,0,0,1,38.45,757Z"/><path class="cls-21" d="M180,757a6,6,0,0,1-5.51-3.51L48.85,470.63A5.74,5.74,0,0,1,52,463a6.08,6.08,0,0,1,7.87,3L185.54,748.89a5.73,5.73,0,0,1-3.14,7.62A6,6,0,0,1,180,757Z"/><path class="cls-21" d="M427.48,757a6,6,0,0,1-2.36-.48,5.73,5.73,0,0,1-3.14-7.62L547.66,466a6.08,6.08,0,0,1,7.87-3,5.73,5.73,0,0,1,3.14,7.63L433,753.48A6,6,0,0,1,427.48,757Z"/><path class="cls-21" d="M569.07,757a6,6,0,0,1-5.51-3.51L437.88,470.63A5.74,5.74,0,0,1,441,463a6.08,6.08,0,0,1,7.87,3L574.57,748.89a5.73,5.73,0,0,1-3.14,7.62A6,6,0,0,1,569.07,757Z"/><path class="cls-21" d="M583.81,457.31a6.9,6.9,0,0,0-1.19-5.23,5.46,5.46,0,0,0-4.36-2.31H6.51A6.37,6.37,0,0,0,1,453.13a8.05,8.05,0,0,0-.43,7l6.2,15a8.66,8.66,0,0,0,7.87,5.64H574.33a6.81,6.81,0,0,0,6.45-6Z"/></g></g></svg>