<svg xmlns="http://www.w3.org/2000/svg" xmlns:xlink="http://www.w3.org/1999/xlink" viewBox="0 0 2475 1650"><defs><style>.cls-1,.cls-22{fill:#fff;}.cls-2{fill:url(#linear-gradient);}.cls-3{fill:#bdd0fb;}.cls-4{fill:#91b3fa;}.cls-5{fill:#dce5fe;}.cls-6{fill:#7d97f4;}.cls-7{fill:url(#linear-gradient-2);}.cls-8{fill:url(#linear-gradient-3);}.cls-9{fill:url(#linear-gradient-4);}.cls-10{fill:url(#linear-gradient-5);}.cls-11{fill:url(#linear-gradient-6);}.cls-12{fill:url(#linear-gradient-7);}.cls-13{fill:url(#linear-gradient-8);}.cls-14{fill:url(#linear-gradient-9);}.cls-15{fill:url(#linear-gradient-10);}.cls-16{fill:url(#linear-gradient-11);}.cls-17{fill:url(#linear-gradient-12);}.cls-18{fill:url(#linear-gradient-13);}.cls-19{fill:url(#linear-gradient-14);}.cls-20{fill:url(#linear-gradient-15);}.cls-21{opacity:0.76;}.cls-22{opacity:0.6;}.cls-23{opacity:0.7;fill:url(#linear-gradient-16);}.cls-24{fill:url(#linear-gradient-17);}.cls-25{fill:url(#linear-gradient-18);}.cls-26{fill:url(#linear-gradient-19);}.cls-27{fill:url(#linear-gradient-20);}.cls-28{fill:url(#linear-gradient-21);}.cls-29{fill:url(#linear-gradient-22);}.cls-30{fill:url(#linear-gradient-23);}.cls-31{opacity:0.9;}.cls-32{fill:url(#linear-gradient-24);}.cls-33{fill:url(#linear-gradient-25);}.cls-34{fill:url(#linear-gradient-26);}.cls-35{fill:url(#linear-gradient-27);}.cls-36{fill:url(#linear-gradient-28);}.cls-37{fill:url(#linear-gradient-29);}.cls-38{fill:url(#linear-gradient-30);}.cls-39{fill:url(#linear-gradient-31);}.cls-40{fill:url(#linear-gradient-32);}.cls-41{fill:url(#linear-gradient-33);}.cls-42{fill:url(#linear-gradient-34);}.cls-43{fill:url(#linear-gradient-35);}.cls-44{fill:url(#linear-gradient-36);}.cls-45{fill:url(#linear-gradient-37);}.cls-46{fill:url(#linear-gradient-38);}.cls-47{fill:url(#linear-gradient-39);}.cls-48{fill:url(#linear-gradient-40);}.cls-49{fill:url(#linear-gradient-41);}.cls-50{fill:url(#linear-gradient-42);}.cls-51{fill:url(#linear-gradient-43);}.cls-52{fill:url(#linear-gradient-44);}.cls-53{fill:url(#linear-gradient-45);}.cls-54{fill:url(#linear-gradient-46);}.cls-55{fill:url(#linear-gradient-47);}.cls-56{fill:url(#linear-gradient-48);}.cls-57{fill:url(#linear-gradient-49);}.cls-58{fill:url(#linear-gradient-50);}.cls-59{fill:url(#linear-gradient-51);}.cls-60{fill:url(#linear-gradient-52);}.cls-61{fill:url(#linear-gradient-53);}.cls-62{fill:url(#linear-gradient-54);}.cls-63{fill:url(#linear-gradient-55);}.cls-64{fill:url(#linear-gradient-56);}.cls-65{fill:url(#linear-gradient-57);}.cls-66{fill:url(#linear-gradient-58);}.cls-67{fill:url(#linear-gradient-59);}.cls-68{fill:url(#linear-gradient-60);}.cls-69{fill:url(#linear-gradient-61);}.cls-70{fill:url(#linear-gradient-62);}.cls-71{fill:url(#linear-gradient-63);}.cls-72{fill:url(#linear-gradient-64);}.cls-73{fill:url(#linear-gradient-65);}.cls-74{fill:url(#linear-gradient-66);}.cls-75{fill:url(#linear-gradient-67);}.cls-76{fill:url(#linear-gradient-68);}.cls-77{fill:url(#linear-gradient-69);}.cls-78{fill:url(#linear-gradient-70);}.cls-79{fill:url(#linear-gradient-71);}.cls-80{fill:url(#linear-gradient-72);}.cls-81{fill:url(#linear-gradient-73);}.cls-82{fill:url(#linear-gradient-74);}.cls-83{fill:url(#linear-gradient-75);}.cls-84{fill:url(#linear-gradient-76);}.cls-85{fill:url(#linear-gradient-77);}.cls-86{fill:url(#linear-gradient-78);}.cls-87{fill:url(#linear-gradient-79);}.cls-88{fill:url(#linear-gradient-80);}.cls-89{fill:url(#linear-gradient-81);}.cls-90{fill:url(#linear-gradient-82);}.cls-91{fill:url(#linear-gradient-83);}.cls-92{fill:url(#linear-gradient-84);}.cls-93{fill:url(#linear-gradient-85);}.cls-94{fill:url(#linear-gradient-86);}.cls-95{fill:url(#linear-gradient-87);}.cls-96{fill:url(#linear-gradient-88);}.cls-97{fill:url(#linear-gradient-89);}.cls-98{fill:url(#linear-gradient-90);}.cls-99{fill:url(#linear-gradient-91);}.cls-100{fill:url(#linear-gradient-92);}.cls-101{fill:url(#linear-gradient-93);}.cls-102{fill:url(#linear-gradient-94);}.cls-103{fill:url(#linear-gradient-95);}.cls-104{fill:url(#linear-gradient-96);}.cls-105{fill:url(#linear-gradient-97);}.cls-106{fill:url(#linear-gradient-98);}.cls-107{fill:url(#linear-gradient-99);}.cls-108{fill:url(#linear-gradient-100);}.cls-109{fill:url(#linear-gradient-101);}.cls-110{fill:url(#linear-gradient-102);}.cls-111{fill:url(#linear-gradient-103);}.cls-112{fill:url(#linear-gradient-104);}.cls-113{fill:url(#linear-gradient-105);}.cls-114{fill:url(#linear-gradient-106);}.cls-115{fill:url(#linear-gradient-107);}.cls-116{fill:url(#linear-gradient-108);}.cls-117{fill:url(#linear-gradient-109);}.cls-118{fill:url(#linear-gradient-110);}.cls-119{fill:url(#linear-gradient-111);}.cls-120{fill:url(#linear-gradient-112);}.cls-121{fill:url(#linear-gradient-113);}.cls-122{fill:url(#linear-gradient-114);}.cls-123{fill:url(#linear-gradient-115);}.cls-124{fill:url(#linear-gradient-116);}.cls-125{fill:url(#linear-gradient-117);}.cls-126{fill:url(#linear-gradient-118);}.cls-127{fill:url(#linear-gradient-119);}.cls-128{fill:url(#linear-gradient-120);}.cls-129{fill:url(#linear-gradient-121);}.cls-130{fill:url(#linear-gradient-122);}.cls-131{fill:url(#linear-gradient-123);}.cls-132{fill:url(#linear-gradient-124);}.cls-133{fill:url(#linear-gradient-125);}.cls-134{fill:url(#linear-gradient-126);}.cls-135{fill:url(#linear-gradient-127);}.cls-136{fill:url(#linear-gradient-128);}.cls-137{fill:url(#linear-gradient-129);}.cls-138{fill:url(#linear-gradient-130);}.cls-139{fill:url(#linear-gradient-131);}.cls-140{fill:url(#linear-gradient-132);}.cls-141{fill:url(#linear-gradient-133);}.cls-142{fill:url(#linear-gradient-134);}.cls-143{fill:url(#linear-gradient-135);}.cls-144{fill:url(#linear-gradient-136);}.cls-145{fill:url(#linear-gradient-137);}.cls-146{fill:url(#linear-gradient-138);}.cls-147{fill:url(#linear-gradient-139);}.cls-148{fill:url(#linear-gradient-140);}.cls-149{fill:url(#linear-gradient-141);}.cls-150{fill:url(#linear-gradient-142);}.cls-151{fill:url(#linear-gradient-143);}.cls-152{fill:url(#linear-gradient-144);}.cls-153{fill:url(#linear-gradient-145);}.cls-154{fill:url(#linear-gradient-146);}.cls-155{fill:url(#linear-gradient-147);}.cls-156{fill:url(#linear-gradient-148);}.cls-157{fill:url(#linear-gradient-149);}.cls-158{fill:url(#linear-gradient-150);}.cls-159{fill:url(#linear-gradient-151);}.cls-160{fill:url(#linear-gradient-152);}.cls-161{fill:url(#linear-gradient-153);}.cls-162{fill:url(#linear-gradient-154);}.cls-163{fill:url(#linear-gradient-155);}.cls-164{fill:url(#linear-gradient-156);}.cls-165{fill:url(#linear-gradient-157);}.cls-166{fill:url(#linear-gradient-158);}.cls-167{fill:url(#linear-gradient-159);}.cls-168{fill:url(#linear-gradient-160);}.cls-169{fill:url(#linear-gradient-161);}.cls-170{fill:url(#linear-gradient-162);}.cls-171{fill:url(#linear-gradient-163);}.cls-172{fill:url(#linear-gradient-164);}</style><linearGradient id="linear-gradient" x1="156.09" y1="861.48" x2="2326.53" y2="861.48" gradientUnits="userSpaceOnUse"><stop offset="0" stop-color="#dae3fe"/><stop offset="1" stop-color="#e9effd"/></linearGradient><linearGradient id="linear-gradient-2" x1="1549.26" y1="941.54" x2="2010.3" y2="1601.21" gradientUnits="userSpaceOnUse"><stop offset="0" stop-color="#4042e2"/><stop offset="1" stop-color="#4f52ff"/></linearGradient><linearGradient id="linear-gradient-3" x1="-1391.37" y1="1267.76" x2="-1228.83" y2="780.15" gradientTransform="matrix(-1, 0, 0, 1, -80.22, 0)" gradientUnits="userSpaceOnUse"><stop offset="0" stop-color="#09005d"/><stop offset="1" stop-color="#1a0f91"/></linearGradient><linearGradient id="linear-gradient-4" x1="894.44" y1="1076.65" x2="1593.23" y2="1076.65" gradientUnits="userSpaceOnUse"><stop offset="0" stop-color="#ff9d3f"/><stop offset="1" stop-color="#ffd25f"/></linearGradient><linearGradient id="linear-gradient-5" x1="-1013.73" y1="1238.74" x2="-1736.19" y2="1414.48" gradientTransform="matrix(1, 0, 0, -1, 2562.84, 2627.23)" xlink:href="#linear-gradient-3"/><linearGradient id="linear-gradient-6" x1="754.56" y1="541.7" x2="874.97" y2="645.58" gradientTransform="matrix(1, 0, 0, 1, 0, 0)" xlink:href="#linear-gradient-3"/><linearGradient id="linear-gradient-7" x1="-1312.78" y1="541.7" x2="-1192.37" y2="645.58" gradientTransform="matrix(-1, 0, 0, 1, 428.17, 0)" xlink:href="#linear-gradient-3"/><linearGradient id="linear-gradient-8" x1="1250.29" y1="992.44" x2="1250.29" y2="698.13" gradientTransform="matrix(1, 0, 0, 1, 0, 0)" xlink:href="#linear-gradient-3"/><linearGradient id="linear-gradient-9" x1="1587.18" y1="1031.06" x2="1107.18" y2="1339.06" gradientUnits="userSpaceOnUse"><stop offset="0" stop-color="#ffb64f"/><stop offset="1" stop-color="#ffdaa6"/></linearGradient><linearGradient id="linear-gradient-10" x1="-1340.56" y1="1051.36" x2="-1235.06" y2="501.64" gradientTransform="matrix(-1, 0, 0, 1, 378.67, 0)" xlink:href="#linear-gradient-3"/><linearGradient id="linear-gradient-11" x1="1010.75" y1="1272.95" x2="1282.94" y2="1346.51" gradientTransform="matrix(1, 0, 0, 1, 0, 0)" xlink:href="#linear-gradient-3"/><linearGradient id="linear-gradient-12" x1="1141.83" y1="1416.25" x2="1363.57" y2="1421.79" gradientTransform="matrix(1, 0, 0, 1, 0, 0)" xlink:href="#linear-gradient-3"/><linearGradient id="linear-gradient-13" x1="495.89" y1="984.79" x2="667.6" y2="989.09" gradientTransform="matrix(1, 0, 0, 1, 0, 0)" xlink:href="#linear-gradient-3"/><linearGradient id="linear-gradient-14" x1="664.03" y1="973.2" x2="380.03" y2="1287.2" gradientUnits="userSpaceOnUse"><stop offset="0" stop-color="#ffb64f"/><stop offset="1" stop-color="#ffba52"/></linearGradient><linearGradient id="linear-gradient-15" x1="777.11" y1="1058.15" x2="882.61" y2="508.43" gradientTransform="matrix(1, 0, 0, 1, 0, 0)" xlink:href="#linear-gradient-3"/><linearGradient id="linear-gradient-16" x1="-780.51" y1="515.13" x2="-918.11" y2="718.82" gradientTransform="matrix(-1, 0, 0, 1, 259, 0)" gradientUnits="userSpaceOnUse"><stop offset="0" stop-color="#53d8ff"/><stop offset="1" stop-color="#3840f7"/></linearGradient><linearGradient id="linear-gradient-17" x1="1040" y1="677.47" x2="1588.22" y2="677.47" xlink:href="#linear-gradient-2"/><linearGradient id="linear-gradient-18" x1="1257.79" y1="636.27" x2="1541.54" y2="636.27" xlink:href="#linear-gradient"/><linearGradient id="linear-gradient-19" x1="1257.79" y1="697.49" x2="1528.74" y2="697.49" xlink:href="#linear-gradient"/><linearGradient id="linear-gradient-20" x1="1253.77" y1="753.09" x2="1537.52" y2="753.09" xlink:href="#linear-gradient"/><linearGradient id="linear-gradient-21" x1="-844.33" y1="606.29" x2="-981.93" y2="809.98" gradientTransform="matrix(-1, 0, 0, 1, 259, 0)" xlink:href="#linear-gradient-2"/><linearGradient id="linear-gradient-22" x1="1146.72" y1="674.86" x2="1187.95" y2="674.86" xlink:href="#linear-gradient"/><linearGradient id="linear-gradient-23" x1="1127.48" y1="721.63" x2="1206.97" y2="721.63" xlink:href="#linear-gradient"/><linearGradient id="linear-gradient-24" x1="471.59" y1="1033.58" x2="477.74" y2="1033.58" xlink:href="#linear-gradient"/><linearGradient id="linear-gradient-25" x1="463.39" y1="1013.19" x2="468.52" y2="1013.19" xlink:href="#linear-gradient"/><linearGradient id="linear-gradient-26" x1="459.49" y1="991.53" x2="463.2" y2="991.53" xlink:href="#linear-gradient"/><linearGradient id="linear-gradient-27" x1="459.92" y1="969.42" x2="464.06" y2="969.42" xlink:href="#linear-gradient"/><linearGradient id="linear-gradient-28" x1="465.38" y1="948.21" x2="471.19" y2="948.21" xlink:href="#linear-gradient"/><linearGradient id="linear-gradient-29" x1="475.92" y1="929.13" x2="483.11" y2="929.13" xlink:href="#linear-gradient"/><linearGradient id="linear-gradient-30" x1="490.32" y1="912.67" x2="498.42" y2="912.67" xlink:href="#linear-gradient"/><linearGradient id="linear-gradient-31" x1="507.31" y1="898.79" x2="516.03" y2="898.79" xlink:href="#linear-gradient"/><linearGradient id="linear-gradient-32" x1="526.02" y1="887.2" x2="535.16" y2="887.2" xlink:href="#linear-gradient"/><linearGradient id="linear-gradient-33" x1="545.89" y1="877.61" x2="555.31" y2="877.61" xlink:href="#linear-gradient"/><linearGradient id="linear-gradient-34" x1="566.54" y1="869.76" x2="576.18" y2="869.76" xlink:href="#linear-gradient"/><linearGradient id="linear-gradient-35" x1="587.75" y1="863.46" x2="597.54" y2="863.46" xlink:href="#linear-gradient"/><linearGradient id="linear-gradient-36" x1="609.34" y1="858.55" x2="619.25" y2="858.55" xlink:href="#linear-gradient"/><linearGradient id="linear-gradient-37" x1="631.2" y1="854.94" x2="641.19" y2="854.94" xlink:href="#linear-gradient"/><linearGradient id="linear-gradient-38" x1="653.23" y1="852.54" x2="663.3" y2="852.54" xlink:href="#linear-gradient"/><linearGradient id="linear-gradient-39" x1="675.37" y1="851.28" x2="685.48" y2="851.28" xlink:href="#linear-gradient"/><linearGradient id="linear-gradient-40" x1="697.56" y1="851.14" x2="707.7" y2="851.14" xlink:href="#linear-gradient"/><linearGradient id="linear-gradient-41" x1="719.73" y1="852.08" x2="729.89" y2="852.08" xlink:href="#linear-gradient"/><linearGradient id="linear-gradient-42" x1="741.85" y1="854.02" x2="752" y2="854.02" xlink:href="#linear-gradient"/><linearGradient id="linear-gradient-43" x1="763.9" y1="856.62" x2="774.05" y2="856.62" xlink:href="#linear-gradient"/><linearGradient id="linear-gradient-44" x1="785.88" y1="859.78" x2="796.03" y2="859.78" xlink:href="#linear-gradient"/><linearGradient id="linear-gradient-45" x1="807.78" y1="863.48" x2="817.92" y2="863.48" xlink:href="#linear-gradient"/><linearGradient id="linear-gradient-46" x1="829.58" y1="867.71" x2="839.71" y2="867.71" xlink:href="#linear-gradient"/><linearGradient id="linear-gradient-47" x1="851.28" y1="872.43" x2="861.4" y2="872.43" xlink:href="#linear-gradient"/><linearGradient id="linear-gradient-48" x1="872.87" y1="877.62" x2="882.98" y2="877.62" xlink:href="#linear-gradient"/><linearGradient id="linear-gradient-49" x1="894.35" y1="883.26" x2="904.45" y2="883.26" xlink:href="#linear-gradient"/><linearGradient id="linear-gradient-50" x1="915.72" y1="889.32" x2="925.81" y2="889.32" xlink:href="#linear-gradient"/><linearGradient id="linear-gradient-51" x1="936.97" y1="895.77" x2="947.04" y2="895.77" xlink:href="#linear-gradient"/><linearGradient id="linear-gradient-52" x1="958.1" y1="902.6" x2="968.17" y2="902.6" xlink:href="#linear-gradient"/><linearGradient id="linear-gradient-53" x1="979.13" y1="909.76" x2="989.18" y2="909.76" xlink:href="#linear-gradient"/><linearGradient id="linear-gradient-54" x1="1000.04" y1="917.24" x2="1010.08" y2="917.24" xlink:href="#linear-gradient"/><linearGradient id="linear-gradient-55" x1="1020.84" y1="925.01" x2="1030.87" y2="925.01" xlink:href="#linear-gradient"/><linearGradient id="linear-gradient-56" x1="1041.54" y1="933.04" x2="1051.57" y2="933.04" xlink:href="#linear-gradient"/><linearGradient id="linear-gradient-57" x1="1062.15" y1="941.31" x2="1072.17" y2="941.31" xlink:href="#linear-gradient"/><linearGradient id="linear-gradient-58" x1="1082.67" y1="949.8" x2="1092.69" y2="949.8" xlink:href="#linear-gradient"/><linearGradient id="linear-gradient-59" x1="1103.1" y1="958.48" x2="1113.12" y2="958.48" xlink:href="#linear-gradient"/><linearGradient id="linear-gradient-60" x1="1123.47" y1="967.33" x2="1133.49" y2="967.33" xlink:href="#linear-gradient"/><linearGradient id="linear-gradient-61" x1="1143.77" y1="976.32" x2="1153.79" y2="976.32" xlink:href="#linear-gradient"/><linearGradient id="linear-gradient-62" x1="1164.01" y1="985.42" x2="1174.04" y2="985.42" xlink:href="#linear-gradient"/><linearGradient id="linear-gradient-63" x1="1184.21" y1="994.63" x2="1194.26" y2="994.63" xlink:href="#linear-gradient"/><linearGradient id="linear-gradient-64" x1="1204.38" y1="1003.9" x2="1214.43" y2="1003.9" xlink:href="#linear-gradient"/><linearGradient id="linear-gradient-65" x1="1224.52" y1="1013.22" x2="1234.59" y2="1013.22" xlink:href="#linear-gradient"/><linearGradient id="linear-gradient-66" x1="1244.66" y1="1022.55" x2="1254.75" y2="1022.55" xlink:href="#linear-gradient"/><linearGradient id="linear-gradient-67" x1="1264.8" y1="1031.85" x2="1274.92" y2="1031.85" xlink:href="#linear-gradient"/><linearGradient id="linear-gradient-68" x1="1284.96" y1="1041.12" x2="1295.11" y2="1041.12" xlink:href="#linear-gradient"/><linearGradient id="linear-gradient-69" x1="1305.15" y1="1050.32" x2="1315.33" y2="1050.32" xlink:href="#linear-gradient"/><linearGradient id="linear-gradient-70" x1="1325.37" y1="1059.43" x2="1335.6" y2="1059.43" xlink:href="#linear-gradient"/><linearGradient id="linear-gradient-71" x1="1345.65" y1="1068.43" x2="1355.92" y2="1068.43" xlink:href="#linear-gradient"/><linearGradient id="linear-gradient-72" x1="1365.99" y1="1077.28" x2="1376.3" y2="1077.28" xlink:href="#linear-gradient"/><linearGradient id="linear-gradient-73" x1="1386.4" y1="1085.97" x2="1396.76" y2="1085.97" xlink:href="#linear-gradient"/><linearGradient id="linear-gradient-74" x1="1406.89" y1="1094.46" x2="1417.29" y2="1094.46" xlink:href="#linear-gradient"/><linearGradient id="linear-gradient-75" x1="1427.46" y1="1102.74" x2="1437.92" y2="1102.74" xlink:href="#linear-gradient"/><linearGradient id="linear-gradient-76" x1="1448.13" y1="1110.78" x2="1458.64" y2="1110.78" xlink:href="#linear-gradient"/><linearGradient id="linear-gradient-77" x1="1468.9" y1="1118.55" x2="1479.47" y2="1118.55" xlink:href="#linear-gradient"/><linearGradient id="linear-gradient-78" x1="1489.78" y1="1126.02" x2="1500.4" y2="1126.02" xlink:href="#linear-gradient"/><linearGradient id="linear-gradient-79" x1="1510.77" y1="1133.18" x2="1521.45" y2="1133.18" xlink:href="#linear-gradient"/><linearGradient id="linear-gradient-80" x1="1531.87" y1="1139.98" x2="1542.61" y2="1139.98" xlink:href="#linear-gradient"/><linearGradient id="linear-gradient-81" x1="1553.09" y1="1146.42" x2="1563.89" y2="1146.42" xlink:href="#linear-gradient"/><linearGradient id="linear-gradient-82" x1="1574.43" y1="1152.45" x2="1585.28" y2="1152.45" xlink:href="#linear-gradient"/><linearGradient id="linear-gradient-83" x1="1595.88" y1="1158.06" x2="1606.79" y2="1158.06" xlink:href="#linear-gradient"/><linearGradient id="linear-gradient-84" x1="1617.44" y1="1163.23" x2="1628.41" y2="1163.23" xlink:href="#linear-gradient"/><linearGradient id="linear-gradient-85" x1="1639.12" y1="1167.92" x2="1650.14" y2="1167.92" xlink:href="#linear-gradient"/><linearGradient id="linear-gradient-86" x1="1660.89" y1="1172.12" x2="1671.97" y2="1172.12" xlink:href="#linear-gradient"/><linearGradient id="linear-gradient-87" x1="1682.76" y1="1175.79" x2="1693.89" y2="1175.79" xlink:href="#linear-gradient"/><linearGradient id="linear-gradient-88" x1="1704.73" y1="1178.86" x2="1715.91" y2="1178.86" xlink:href="#linear-gradient"/><linearGradient id="linear-gradient-89" x1="1726.77" y1="1181.3" x2="1737.99" y2="1181.3" xlink:href="#linear-gradient"/><linearGradient id="linear-gradient-90" x1="1748.88" y1="1183.11" x2="1760.14" y2="1183.11" xlink:href="#linear-gradient"/><linearGradient id="linear-gradient-91" x1="1771.04" y1="1184.29" x2="1782.33" y2="1184.29" xlink:href="#linear-gradient"/><linearGradient id="linear-gradient-92" x1="1793.22" y1="1184.84" x2="1804.54" y2="1184.84" xlink:href="#linear-gradient"/><linearGradient id="linear-gradient-93" x1="1815.41" y1="1184.74" x2="1826.75" y2="1184.74" xlink:href="#linear-gradient"/><linearGradient id="linear-gradient-94" x1="1837.59" y1="1183.99" x2="1848.95" y2="1183.99" xlink:href="#linear-gradient"/><linearGradient id="linear-gradient-95" x1="1859.74" y1="1182.56" x2="1871.11" y2="1182.56" xlink:href="#linear-gradient"/><linearGradient id="linear-gradient-96" x1="1881.85" y1="1180.45" x2="1893.22" y2="1180.45" xlink:href="#linear-gradient"/><linearGradient id="linear-gradient-97" x1="1903.87" y1="1177.62" x2="1915.24" y2="1177.62" xlink:href="#linear-gradient"/><linearGradient id="linear-gradient-98" x1="1925.79" y1="1174.05" x2="1937.15" y2="1174.05" xlink:href="#linear-gradient"/><linearGradient id="linear-gradient-99" x1="1947.58" y1="1169.71" x2="1958.91" y2="1169.71" xlink:href="#linear-gradient"/><linearGradient id="linear-gradient-100" x1="1969.2" y1="1164.57" x2="1980.5" y2="1164.57" xlink:href="#linear-gradient"/><linearGradient id="linear-gradient-101" x1="1990.61" y1="1158.6" x2="2001.86" y2="1158.6" xlink:href="#linear-gradient"/><linearGradient id="linear-gradient-102" x1="2011.76" y1="1151.74" x2="2022.95" y2="1151.74" xlink:href="#linear-gradient"/><linearGradient id="linear-gradient-103" x1="2032.6" y1="1143.98" x2="2043.71" y2="1143.98" xlink:href="#linear-gradient"/><linearGradient id="linear-gradient-104" x1="2053.07" y1="1135.25" x2="2064.07" y2="1135.25" xlink:href="#linear-gradient"/><linearGradient id="linear-gradient-105" x1="2073.09" y1="1125.53" x2="2083.97" y2="1125.53" xlink:href="#linear-gradient"/><linearGradient id="linear-gradient-106" x1="2092.59" y1="1114.77" x2="2103.31" y2="1114.77" xlink:href="#linear-gradient"/><linearGradient id="linear-gradient-107" x1="2111.46" y1="1102.93" x2="2122.01" y2="1102.93" xlink:href="#linear-gradient"/><linearGradient id="linear-gradient-108" x1="2129.61" y1="1090" x2="2139.94" y2="1090" xlink:href="#linear-gradient"/><linearGradient id="linear-gradient-109" x1="2146.93" y1="1075.96" x2="2157.01" y2="1075.96" xlink:href="#linear-gradient"/><linearGradient id="linear-gradient-110" x1="2163.3" y1="1060.81" x2="2173.1" y2="1060.81" xlink:href="#linear-gradient"/><linearGradient id="linear-gradient-111" x1="2178.62" y1="1044.6" x2="2188.11" y2="1044.6" xlink:href="#linear-gradient"/><linearGradient id="linear-gradient-112" x1="2192.82" y1="1027.4" x2="2201.98" y2="1027.4" xlink:href="#linear-gradient"/><linearGradient id="linear-gradient-113" x1="2205.84" y1="1009.3" x2="2214.66" y2="1009.3" xlink:href="#linear-gradient"/><linearGradient id="linear-gradient-114" x1="2217.64" y1="990.38" x2="2226.1" y2="990.38" xlink:href="#linear-gradient"/><linearGradient id="linear-gradient-115" x1="2228.18" y1="970.75" x2="2236.28" y2="970.75" xlink:href="#linear-gradient"/><linearGradient id="linear-gradient-116" x1="2237.45" y1="950.49" x2="2245.19" y2="950.49" xlink:href="#linear-gradient"/><linearGradient id="linear-gradient-117" x1="2245.46" y1="929.72" x2="2252.84" y2="929.72" xlink:href="#linear-gradient"/><linearGradient id="linear-gradient-118" x1="2252.2" y1="908.51" x2="2259.23" y2="908.51" xlink:href="#linear-gradient"/><linearGradient id="linear-gradient-119" x1="2257.71" y1="886.96" x2="2264.39" y2="886.96" xlink:href="#linear-gradient"/><linearGradient id="linear-gradient-120" x1="2262" y1="865.15" x2="2268.34" y2="865.15" xlink:href="#linear-gradient"/><linearGradient id="linear-gradient-121" x1="2265.1" y1="843.14" x2="2271.11" y2="843.14" xlink:href="#linear-gradient"/><linearGradient id="linear-gradient-122" x1="2267.03" y1="821.01" x2="2272.71" y2="821.01" xlink:href="#linear-gradient"/><linearGradient id="linear-gradient-123" x1="2267.82" y1="798.82" x2="2273.19" y2="798.82" xlink:href="#linear-gradient"/><linearGradient id="linear-gradient-124" x1="2267.22" y1="776.62" x2="2272.88" y2="776.62" xlink:href="#linear-gradient"/><linearGradient id="linear-gradient-125" x1="2265.53" y1="754.48" x2="2271.53" y2="754.48" xlink:href="#linear-gradient"/><linearGradient id="linear-gradient-126" x1="2262.8" y1="732.42" x2="2269.14" y2="732.42" xlink:href="#linear-gradient"/><linearGradient id="linear-gradient-127" x1="2259.04" y1="710.52" x2="2265.71" y2="710.52" xlink:href="#linear-gradient"/><linearGradient id="linear-gradient-128" x1="2254.27" y1="688.8" x2="2261.27" y2="688.8" xlink:href="#linear-gradient"/><linearGradient id="linear-gradient-129" x1="2248.54" y1="667.31" x2="2255.84" y2="667.31" xlink:href="#linear-gradient"/><linearGradient id="linear-gradient-130" x1="2241.85" y1="646.09" x2="2249.46" y2="646.09" xlink:href="#linear-gradient"/><linearGradient id="linear-gradient-131" x1="2234.25" y1="625.18" x2="2242.16" y2="625.18" xlink:href="#linear-gradient"/><linearGradient id="linear-gradient-132" x1="2225.75" y1="604.61" x2="2233.95" y2="604.61" xlink:href="#linear-gradient"/><linearGradient id="linear-gradient-133" x1="2216.39" y1="584.42" x2="2224.87" y2="584.42" xlink:href="#linear-gradient"/><linearGradient id="linear-gradient-134" x1="2206.2" y1="564.62" x2="2214.94" y2="564.62" xlink:href="#linear-gradient"/><linearGradient id="linear-gradient-135" x1="2195.2" y1="545.26" x2="2204.21" y2="545.26" xlink:href="#linear-gradient"/><linearGradient id="linear-gradient-136" x1="2183.44" y1="526.35" x2="2192.7" y2="526.35" xlink:href="#linear-gradient"/><linearGradient id="linear-gradient-137" x1="2170.93" y1="507.93" x2="2180.43" y2="507.93" xlink:href="#linear-gradient"/><linearGradient id="linear-gradient-138" x1="2157.71" y1="490.01" x2="2167.45" y2="490.01" xlink:href="#linear-gradient"/><linearGradient id="linear-gradient-139" x1="2143.81" y1="472.61" x2="2153.77" y2="472.61" xlink:href="#linear-gradient"/><linearGradient id="linear-gradient-140" x1="2129.26" y1="455.75" x2="2139.44" y2="455.75" xlink:href="#linear-gradient"/><linearGradient id="linear-gradient-141" x1="2114.08" y1="439.45" x2="2124.46" y2="439.45" xlink:href="#linear-gradient"/><linearGradient id="linear-gradient-142" x1="2098.3" y1="423.73" x2="2108.89" y2="423.73" xlink:href="#linear-gradient"/><linearGradient id="linear-gradient-143" x1="2081.96" y1="408.6" x2="2092.74" y2="408.6" xlink:href="#linear-gradient"/><linearGradient id="linear-gradient-144" x1="2065.1" y1="394.06" x2="2076.05" y2="394.06" xlink:href="#linear-gradient"/><linearGradient id="linear-gradient-145" x1="2047.75" y1="380.11" x2="2058.86" y2="380.11" xlink:href="#linear-gradient"/><linearGradient id="linear-gradient-146" x1="2029.94" y1="366.75" x2="2041.21" y2="366.75" xlink:href="#linear-gradient"/><linearGradient id="linear-gradient-147" x1="2011.7" y1="353.98" x2="2023.12" y2="353.98" xlink:href="#linear-gradient"/><linearGradient id="linear-gradient-148" x1="1993.07" y1="341.8" x2="2004.63" y2="341.8" xlink:href="#linear-gradient"/><linearGradient id="linear-gradient-149" x1="1974.08" y1="330.2" x2="1985.76" y2="330.2" xlink:href="#linear-gradient"/><linearGradient id="linear-gradient-150" x1="1954.74" y1="319.18" x2="1966.55" y2="319.18" xlink:href="#linear-gradient"/><linearGradient id="linear-gradient-151" x1="1935.09" y1="308.75" x2="1947.01" y2="308.75" xlink:href="#linear-gradient"/><linearGradient id="linear-gradient-152" x1="1915.14" y1="298.89" x2="1927.17" y2="298.89" xlink:href="#linear-gradient"/><linearGradient id="linear-gradient-153" x1="1894.92" y1="289.6" x2="1907.06" y2="289.6" xlink:href="#linear-gradient"/><linearGradient id="linear-gradient-154" x1="1874.45" y1="280.9" x2="1886.68" y2="280.9" xlink:href="#linear-gradient"/><linearGradient id="linear-gradient-155" x1="1853.75" y1="272.77" x2="1866.07" y2="272.77" xlink:href="#linear-gradient"/><linearGradient id="linear-gradient-156" x1="1832.83" y1="265.21" x2="1845.23" y2="265.21" xlink:href="#linear-gradient"/><linearGradient id="linear-gradient-157" x1="1811.71" y1="258.23" x2="1824.2" y2="258.23" xlink:href="#linear-gradient"/><linearGradient id="linear-gradient-158" x1="1790.42" y1="251.82" x2="1802.98" y2="251.82" xlink:href="#linear-gradient"/><linearGradient id="linear-gradient-159" x1="1768.96" y1="245.99" x2="1781.59" y2="245.99" xlink:href="#linear-gradient"/><linearGradient id="linear-gradient-160" x1="1747.36" y1="240.74" x2="1760.05" y2="240.74" xlink:href="#linear-gradient"/><linearGradient id="linear-gradient-161" x1="1725.62" y1="236.08" x2="1738.38" y2="236.08" xlink:href="#linear-gradient"/><linearGradient id="linear-gradient-162" x1="1703.77" y1="231.99" x2="1716.58" y2="231.99" xlink:href="#linear-gradient"/><linearGradient id="linear-gradient-163" x1="1681.82" y1="228.5" x2="1694.68" y2="228.5" xlink:href="#linear-gradient"/><linearGradient id="linear-gradient-164" x1="1660.39" y1="225.64" x2="1672.69" y2="225.64" xlink:href="#linear-gradient"/></defs><g id="Background"><rect class="cls-1" width="2475" height="1650"/></g><g id="Illustration"><path class="cls-2" d="M598.58,249.24c-124.45,73.83-212.4,16.82-287.62,95-234.65,243.94,62.7,336.4-75.42,373.82-150,40.63-56.69,219.94,27.72,271.76s147.17,83,27.25,136-145.26,114-90.59,206.87c36.64,62.25,78.86,110.4,154.23,95.28,93.41-18.75,178.3-41.1,275.09-26.19,89,13.71,167.11,53,250,85.36,105.56,41.21,262.52,62,372.41,25.24,111.45-37.25,229.48-120.29,350.5-114,85.34,4.45,154.71,69.4,243.73,67.74,92.52-1.73,178.9-40.08,267.26-63,209.15-54.24,56.68-193.8,144.61-298.05s105.23-165.47-29.44-266.6-57.95-205.78-17.52-279.59S2282.29,351.22,2120,313s-351,114.17-432.61,36.78-45.69-180-224-154.21-238.19,225.87-393.64,214.87S862.38,92.73,598.58,249.24Z"/><path class="cls-3" d="M221.44,948.23a7.57,7.57,0,0,1-3-12.29c10.21-10.86,27.39-33.2,38.73-69.59S301.87,749,404.4,748.35,573.49,915.47,626.66,1083s258.61,192.23,258.61,192.23l55.79,10s-190,5.81-285.4-108.92S532.05,861.06,419.77,886.23C312,910.4,309.76,978.26,221.44,948.23Z"/><path class="cls-3" d="M339.49,445.46c36.05,40,88.53,66.1,139.78,86,67,26.07,138.7,47.29,191.52,96.09C726,678.55,753,753.25,767.13,827s17.35,149.47,34.74,222.54c16.55,69.49,48.34,138.81,104.27,182.57-48.41-6.46-88.24-47-108-92.42-21-48.46-24.26-102.42-30.54-154.88S750.73,878,718.17,836.38c-63.87-81.65-186.67-86.5-269.4-149-42.81-32.31-73-79-93.6-128.52-14-33.75-23.91-69-32.43-104.56C320.38,444.48,332.7,437.92,339.49,445.46Z"/><path class="cls-4" d="M502.73,236.52c13.37-26.94,30.64-51.64,48.89-75.63a10,10,0,0,1,17.93,5.47c2.48,38.7,24.09,76.42,50.61,106,33.76,37.71,75.9,67.47,107.87,106.72,65.8,80.77,80.71,191.77,76.8,295.88s-24,207.81-17.4,311.79c3.13,49.57,12.73,99.86,37.9,142.69,24.71,42,66.32,76.13,114.5,83.08a2.31,2.31,0,0,1,1.91,2.92h0a2.31,2.31,0,0,1-1.69,1.62c-59.49,14.41-122.18-26.24-150.54-80.65-28.58-54.82-29.49-119.7-24.31-181.3S781,831.6,773.13,770.29a311.42,311.42,0,0,0-75.61-166c-37.35-42-85.26-72.91-127.71-109.73S488.65,411.54,480,356C473.71,315.31,484.41,273.42,502.73,236.52Z"/><path class="cls-5" d="M558.54,246.55a193.05,193.05,0,0,0,9.85,31.53,279.36,279.36,0,0,0,14.13,30c2.51,4.92,5.45,9.61,8.22,14.38s6,9.26,9,13.92c3.14,4.54,6.42,9,9.62,13.48l10.29,13c3.55,4.22,7.23,8.34,10.84,12.52s7.62,8,11.41,12c7.66,8,15.81,15.75,23.62,23.76C681.24,427,696.84,443.33,710.94,461a312.47,312.47,0,0,1,59.72,120.75c11.45,43.68,15.58,88.72,16.52,133.47a1.71,1.71,0,0,1-3.42.17v0L781.26,682c-1.26-11.07-2.45-22.15-3.86-33.19-3.52-22-7.17-43.95-13.42-65.23-2.65-10.78-6.65-21.12-10.18-31.6-4.31-10.17-8.31-20.48-13.58-30.19a316.28,316.28,0,0,0-35.9-55.47c-13.89-17.22-29.35-33.21-45.11-49l-11.89-11.8c-4-3.94-8-7.75-11.87-11.92s-7.9-8.1-11.61-12.38-7.41-8.55-11-12.9L602.5,354.86c-3.2-4.67-6.47-9.29-9.61-14-2.94-4.84-6-9.59-8.78-14.53s-5.58-9.86-8-15a243.19,243.19,0,0,1-13-31.32c-3.55-10.76-6.62-21.61-8-33a1.7,1.7,0,0,1,3.36-.56Z"/><path class="cls-4" d="M953.15,1283.71A5.47,5.47,0,0,0,949,1275c-48.29-1.88-250.09-20.34-241.54-197.32,9.7-201,24.74-258.09-69.27-327-85.59-62.75-161-54.61-219.81-26a4.38,4.38,0,0,0,1.89,8.29c39.25-.15,129.18,6.79,162.19,70.43,42.74,82.43,38.25,287.07,125.83,383.65,86.53,95.41,160.8,92.81,240.18,98.8a5.24,5.24,0,0,0,4.64-2.15Z"/><path class="cls-4" d="M240.54,1147.06c-5.15,3.34-11.56-1.85-9.48-7.71,11.91-33.56,42.29-97,104-107.24,84.62-14,154,12.25,261.05,133.19,104.1,117.56,292.36,129,341.06,120.77a4.76,4.76,0,0,1,5.25,3.14h0a4.78,4.78,0,0,1-3.74,6.39c-34.38,4.9-215.41,28.53-315-1.91C519.16,1261.74,340,1082.48,240.54,1147.06Z"/><path class="cls-5" d="M281.31,1095.36c12.41-9,26.26-15.15,40.72-19.62a162,162,0,0,1,44.73-7.17c30.4-.51,60.67,7.13,87.88,20.34,13.71,6.48,26.51,14.6,38.85,23.26l9.11,6.71,8.75,7.13,4.38,3.57,4.2,3.76,8.39,7.53c5.4,5.19,10.77,10.54,16,15.74L560,1172.2l7.83,7.8c2.69,2.51,5.45,4.94,8.17,7.42l16.37,14.81c22.51,18.88,46.13,36.48,71.67,50.8a307.93,307.93,0,0,0,81.63,31.41c28.58,6.61,58.08,8.86,87.59,9.75s59.2,0,88.86-.5a1.2,1.2,0,0,1,.1,2.39c-29.61,1.9-59.25,3.52-89,3.71s-59.74-1.78-89.16-7.83a300.72,300.72,0,0,1-84.43-30.82c-26.37-14.49-50.63-32.27-73.71-51.3l-16.76-14.9c-2.78-2.49-5.6-4.94-8.35-7.47l-8-7.83-31.7-31.08c-21.43-19.87-44.86-37.73-70.85-50.76a217.54,217.54,0,0,0-40.54-15.51,175.17,175.17,0,0,0-42.92-5.88,180.86,180.86,0,0,0-21.69,1.27,151.35,151.35,0,0,0-21.4,4,152.91,152.91,0,0,0-20.7,6.94,122.56,122.56,0,0,0-19.32,9.92l-.12.08a2,2,0,0,1-2.27-3.28Z"/><path class="cls-5" d="M227,936.27A63.07,63.07,0,0,0,240.91,931c2.27-1,4.39-2.36,6.53-3.6s4.14-2.76,6.15-4.19a87.07,87.07,0,0,0,20.1-21.51,112.61,112.61,0,0,0,12.4-26.67c.73-2.35,1.27-4.78,1.91-7.16l1.9-7.37,1-3.92,1.23-3.81c.78-2.57,1.76-5,2.75-7.5a158.51,158.51,0,0,1,35.19-52.44,123.68,123.68,0,0,1,25.85-19.13c2.44-1.2,4.76-2.6,7.3-3.62l7.6-3,7.93-2.21a26.15,26.15,0,0,1,4-.81l4.08-.64a50.07,50.07,0,0,1,8.21-.68,48.11,48.11,0,0,1,8.23.07c2.73.28,5.49.36,8.19.81l8,1.65a105.88,105.88,0,0,1,29.65,12.68C467.48,789,482.73,803.85,496,819.87c1.66,2,3.38,4,5,6l4.65,6.25c3,4.19,6.29,8.25,9,12.65l8.47,13c2.72,4.38,5.27,8.86,7.84,13.33,5.31,8.84,9.73,18.14,14.53,27.22,4.64,9.16,8.74,18.58,13,27.89a1.61,1.61,0,0,1-2.86,1.47l0-.06L548,914.25c-2.53-4.42-4.78-9-7.48-13.33-5.32-8.68-10.26-17.59-16-25.95a392.82,392.82,0,0,0-36.21-48.55c-13.31-15-28.07-28.76-45-38.56-2.14-1.17-4.19-2.53-6.39-3.55l-6.62-3a44.51,44.51,0,0,0-6.75-2.5l-3.42-1.12a19,19,0,0,0-3.45-.94l-7-1.4c-2.34-.39-4.71-.41-7.07-.65a39.75,39.75,0,0,0-7.07,0,40.61,40.61,0,0,0-7.05.62l-3.5.57a21.8,21.8,0,0,0-3.47.71l-6.85,1.89L368,781.1c-2.22.86-4.29,2.12-6.45,3.15a111.55,111.55,0,0,0-23.44,17,152.71,152.71,0,0,0-33.91,47.93c-1,2.25-2,4.5-2.79,6.8l-1.26,3.44-1,3.48-2.21,7.4c-.8,2.52-1.45,5.08-2.36,7.57a120.28,120.28,0,0,1-14.88,28c-12.76,17-31.41,29.71-52.35,32.9a1.3,1.3,0,0,1-.49-2.56Z"/><path class="cls-3" d="M2250.52,606.63c-50,28.76-112.11,37.87-170.91,41.13-76.89,4.26-156.94,2-226.93,34.16-73.1,33.56-125.47,100.61-164.38,171S1621,999.36,1579,1068c-40,65.25-95.35,125.25-166.85,151.22,51.43,9.52,105.45-18.5,140.64-58.21,37.52-42.35,58.74-96.21,82.58-147.53s52.73-103.15,99.7-134.69c92.17-61.9,218.8-26,323.8-62.1,54.32-18.67,100.6-56.16,138-99.74,25.49-29.7,47.26-62.27,67.77-95.67C2270.3,612,2259.93,601.21,2250.52,606.63Z"/><path class="cls-3" d="M2149.56,344.74c-4.66-31.88-14-62.77-24.64-93.25a10.71,10.71,0,0,0-20.07-.39c-15.39,38.58-49.93,69.79-86.77,91.13-46.91,27.17-99.71,43.46-145.3,72.79-93.84,60.37-145.91,168.42-176.54,275.71s-44.68,219.54-85.92,323.22c-19.67,49.43-46.16,97.43-86,132.67-39.14,34.6-92.83,55.46-144.19,46.52a2.48,2.48,0,0,0-2.92,2.34h0a2.51,2.51,0,0,0,1.18,2.21c55.78,34.45,133.11,13.9,180.08-32.07,47.32-46.31,69.81-112.06,85-176.5s25-131,53.38-190.84A333.48,333.48,0,0,1,1829,654.37c52-30.33,111-45.89,166.5-69.26S2105.71,527.6,2133,473.94C2152.92,434.59,2155.94,388.39,2149.56,344.74Z"/><path class="cls-5" d="M2092.87,328.82c-5.16,11.21-11.88,21.26-19,31.07a258,258,0,0,1-23.62,27.65c-4.13,4.46-8.69,8.47-13.09,12.65s-9.17,7.95-13.77,11.92c-4.76,3.76-9.63,7.38-14.44,11.08l-15,10.33c-5.13,3.24-10.35,6.32-15.53,9.48s-10.64,5.83-15.95,8.76c-10.66,5.75-21.47,10.73-32.07,16.25-21.29,10.8-42.33,21.92-62.18,34.82a339.37,339.37,0,0,0-54.93,44.46c-8.59,8.12-16.09,17.27-23.85,26.18-7.08,9.48-14.6,18.66-20.88,28.74-13.45,19.56-24.47,40.71-35.38,61.88-5.12,10.75-10,21.63-15,32.48l-13.69,33.11v0a2,2,0,0,1-3.75-1.43c15.75-45.28,34.89-89.81,61.06-130.53a334.31,334.31,0,0,1,101-103.25c20.25-13.34,41.56-24.76,62.9-35.76,10.62-5.57,21.5-10.79,31.94-16.35,5.19-2.82,10.52-5.41,15.6-8.42s10.16-6,15.18-9.13l14.78-9.77c4.75-3.5,9.56-6.93,14.27-10.5,4.55-3.75,9.3-7.27,13.75-11.16s9-7.7,13.15-11.87a300.77,300.77,0,0,0,24.38-25.72,208.13,208.13,0,0,0,20.58-28.73l.07-.12a2,2,0,0,1,3.55,1.84Z"/><path class="cls-4" d="M1529,1230.41a5.47,5.47,0,0,1,4.11-8.68c48.29-1.89,250.08-20.35,241.54-197.32-9.7-201-24.74-258.1,69.27-327,85.59-62.76,161-54.62,219.81-26,4.1,2,2.67,8.31-1.89,8.29-39.26-.14-129.18,6.79-162.19,70.44-42.74,82.42-38.25,287.07-125.83,383.64-86.53,95.42-160.8,92.81-240.18,98.81a5.29,5.29,0,0,1-4.64-2.15Z"/><path class="cls-4" d="M2241.56,1084.54c5.15,3.34,11.56-1.85,9.48-7.71-11.91-33.56-42.29-97-104-107.24-84.63-14-154,12.25-261.06,133.19-104.09,117.56-292.35,129-341.06,120.77a4.75,4.75,0,0,0-5.24,3.14h0a4.78,4.78,0,0,0,3.74,6.39c34.38,4.9,215.41,28.53,315-1.91C1962.93,1199.21,2142.08,1020,2241.56,1084.54Z"/><path class="cls-5" d="M2200.79,1032.84c-12.41-9-26.26-15.16-40.72-19.62a162,162,0,0,0-44.73-7.17c-30.4-.51-60.67,7.13-87.88,20.34-13.71,6.48-26.52,14.6-38.85,23.26l-9.11,6.71-8.76,7.13-4.37,3.57-4.2,3.76-8.39,7.53c-5.41,5.19-10.77,10.54-16,15.74l-15.67,15.59-7.84,7.8c-2.68,2.51-5.44,4.94-8.16,7.42l-16.37,14.8c-22.52,18.89-46.13,36.49-71.68,50.81a307.73,307.73,0,0,1-81.62,31.41c-28.59,6.6-58.08,8.86-87.59,9.74s-59.2,0-88.86-.49a1.2,1.2,0,0,0-.1,2.39c29.61,1.9,59.25,3.52,89,3.71s59.74-1.78,89.16-7.83a300.72,300.72,0,0,0,84.43-30.82c26.37-14.49,50.63-32.27,73.71-51.31l16.75-14.89c2.79-2.49,5.61-4.94,8.36-7.47l8-7.83L1961,1086c21.43-19.87,44.86-37.73,70.85-50.76a217.27,217.27,0,0,1,40.54-15.51,175.66,175.66,0,0,1,42.92-5.89,183,183,0,0,1,21.69,1.28,158.15,158.15,0,0,1,42.09,11,122.66,122.66,0,0,1,19.33,9.92l.12.08a2,2,0,0,0,2.27-3.28Z"/><path class="cls-3" d="M2260.66,885.71a7.57,7.57,0,0,0,3-12.29c-10.21-10.86-27.4-33.2-38.74-69.59s-44.73-117.36-147.25-118S1908.61,853,1855.44,1020.52s-258.62,192.23-258.62,192.23l-55.79,10s190.06,5.81,285.4-108.92,123.62-315.34,235.9-290.17C2170.11,847.88,2172.34,915.74,2260.66,885.71Z"/><path class="cls-5" d="M2255.11,873.75a63.07,63.07,0,0,1-13.92-5.25c-2.27-1-4.39-2.36-6.54-3.6s-4.13-2.76-6.14-4.2a86.67,86.67,0,0,1-20.1-21.5,112.21,112.21,0,0,1-12.4-26.67c-.73-2.35-1.27-4.78-1.91-7.16l-1.9-7.37-1-3.92-1.24-3.81c-.77-2.57-1.75-5-2.74-7.5A158.51,158.51,0,0,0,2152,730.33a123.59,123.59,0,0,0-25.85-19.13c-2.44-1.2-4.77-2.61-7.3-3.62l-7.61-3-7.92-2.21a26.15,26.15,0,0,0-4-.81l-4.08-.64a49,49,0,0,0-8.21-.68,48.11,48.11,0,0,0-8.23.07c-2.73.27-5.49.36-8.19.81l-8,1.65a105.75,105.75,0,0,0-29.65,12.68c-18.31,11.08-33.56,25.92-46.78,41.94-1.66,2-3.38,4-5,6l-4.64,6.25c-3,4.19-6.3,8.25-9,12.65l-8.47,13c-2.72,4.38-5.27,8.86-7.84,13.33-5.31,8.84-9.73,18.14-14.53,27.22-4.64,9.16-8.74,18.58-13,27.89a1.61,1.61,0,0,0,2.86,1.47l0-.06,7.51-13.35c2.53-4.43,4.79-9,7.48-13.33,5.32-8.68,10.26-17.59,16-25.95a391.81,391.81,0,0,1,36.21-48.55c13.3-15,28.07-28.76,45-38.56,2.14-1.17,4.19-2.54,6.38-3.55l6.63-3a45.65,45.65,0,0,1,6.75-2.51l3.42-1.11a19,19,0,0,1,3.45-.94l7-1.41c2.34-.38,4.71-.41,7.07-.64a38.83,38.83,0,0,1,7.07,0,40.61,40.61,0,0,1,7,.62l3.49.57a21.35,21.35,0,0,1,3.47.71l6.86,1.89,6.65,2.6c2.23.86,4.3,2.11,6.46,3.14A112,112,0,0,1,2144,738.78a152.6,152.6,0,0,1,33.91,47.93c1,2.25,2,4.5,2.78,6.8l1.27,3.44,1,3.48,2.21,7.4c.79,2.52,1.45,5.08,2.36,7.57a119.91,119.91,0,0,0,14.88,28c12.75,17,31.41,29.71,52.34,32.89a1.3,1.3,0,0,0,.5-2.55Z"/><path class="cls-6" d="M563.94,1029.46,568,1271.58a34.48,34.48,0,0,0,34.47,33.89h475.21a34.47,34.47,0,0,0,34.47-34.47V1044.4a34.47,34.47,0,0,0-33.36-34.45L599.51,994.44A34.45,34.45,0,0,0,563.94,1029.46Z"/><path class="cls-4" d="M603.27,1053.06l10.31,222.64a15.83,15.83,0,0,0,16.08,15.09l432.73-7.62a15.82,15.82,0,0,0,15.54-15.82V1074.26a15.82,15.82,0,0,0-15-15.8l-443-21.94A15.83,15.83,0,0,0,603.27,1053.06Z"/><path class="cls-3" d="M637.78,1073.93v16a10.11,10.11,0,0,0,10.29,10.12L1021.3,1094a10.12,10.12,0,0,0,10-10.12h0a10.11,10.11,0,0,0-9.85-10.11l-373.23-10A10.12,10.12,0,0,0,637.78,1073.93Z"/><path class="cls-3" d="M643.35,1134.52v14.71a10.12,10.12,0,0,0,10.48,10.11L1009.31,1147a10.12,10.12,0,0,0,9.77-10.11v-4.59a10.12,10.12,0,0,0-10.19-10.12l-355.48,2.26A10.12,10.12,0,0,0,643.35,1134.52Z"/><path class="cls-7" d="M1388.45,978.31l4.06,242.11a34.48,34.48,0,0,0,34.47,33.89h475.21a34.47,34.47,0,0,0,34.47-34.46V993.24a34.47,34.47,0,0,0-33.36-34.45L1424,943.28A34.46,34.46,0,0,0,1388.45,978.31Z"/><path class="cls-4" d="M1427.78,1001.9l10.31,222.65a15.82,15.82,0,0,0,16.08,15.08L1886.9,1232a15.82,15.82,0,0,0,15.54-15.82V1023.1a15.82,15.82,0,0,0-15-15.8l-443-21.93A15.82,15.82,0,0,0,1427.78,1001.9Z"/><path class="cls-3" d="M1462.29,1022.78v16a10.12,10.12,0,0,0,10.29,10.12l373.23-6.09a10.12,10.12,0,0,0,10-10.12h0a10.12,10.12,0,0,0-9.85-10.12l-373.23-10A10.12,10.12,0,0,0,1462.29,1022.78Z"/><path class="cls-3" d="M1467.86,1083.36v14.71a10.13,10.13,0,0,0,10.48,10.12l355.48-12.38a10.13,10.13,0,0,0,9.77-10.12v-4.59A10.13,10.13,0,0,0,1833.4,1071l-355.48,2.26A10.13,10.13,0,0,0,1467.86,1083.36Z"/><path class="cls-8" d="M891.47,1285.45a12.75,12.75,0,0,0,12.72,12.71h688.19a12.75,12.75,0,0,0,12.72-12.71L1610.83,890c0-7-8.24-20.65-23.34-19.62L914.92,853a32.06,32.06,0,0,0-32.9,32.8Z"/><path class="cls-9" d="M904,1273.25a12.08,12.08,0,0,0,12,12h659.71a12.08,12.08,0,0,0,12-12l5.41-359c-.64-21.61-19.58-29.37-31.06-28.91L917.55,868a22.49,22.49,0,0,0-23.1,23.07Z"/><path class="cls-1" d="M1580.69,1103.14h0a2.22,2.22,0,0,1-2.18-2.25l.43-29.12a2.25,2.25,0,0,1,2.24-2.18,2.21,2.21,0,0,1,2.18,2.25l-.42,29.12A2.22,2.22,0,0,1,1580.69,1103.14Z"/><path class="cls-1" d="M1581.74,1031.79h0a2.21,2.21,0,0,1-2.18-2.25L1581.16,918c0-6.49-2-11.67-5.83-15.36-7.21-6.9-18.69-6.53-19.18-6.53l-206.05-5.52a2.22,2.22,0,0,1,.06-4.43h.06l205.9,5.53c1.27-.08,13.87-.29,22.27,7.76,4.74,4.54,7.17,10.79,7.2,18.57L1584,1029.61A2.2,2.2,0,0,1,1581.74,1031.79Z"/><rect class="cls-10" x="835.64" y="1296.24" width="811.34" height="34.75" rx="5.85" transform="translate(2482.62 2627.23) rotate(180)"/><path class="cls-11" d="M761.23,777.42l-33.31-1.35C728.31,766.25,739.35,534,883,395.19l23.17,24C772,548.79,761.32,775.15,761.23,777.42Z"/><path class="cls-12" d="M1734.28,777.42l33.32-1.35c-.4-9.82-11.43-242.08-155.13-380.88l-23.16,24C1723.49,548.79,1734.19,775.15,1734.28,777.42Z"/><path class="cls-13" d="M1655.05,464c-11.74,13-31.55,10-45-5.16-201.92-228.37-517.57-228.37-719.5,0C877.09,474,857.27,477,845.53,464h0c-11.72-12.94-9.58-38.7,5.64-55.88,224-253.36,574.22-253.36,798.25,0,15.21,17.18,17.36,42.94,5.63,55.88Z"/><path class="cls-14" d="M1772.65,618.28a12,12,0,0,1,13.61,5.21L1835.51,698c14.2,22.38,23.69,48.34,23.69,74.85v67.78s65.58,51,65.58,125-45.48,174.13-102.91,190.81c-3.1,6.82-6.2,12.51-8.35,17.24a33.49,33.49,0,0,1-36,19.27l-13.35-2.24V630.07A12,12,0,0,1,1772.65,618.28Z"/><path class="cls-15" d="M1766.42,770.64a61.11,61.11,0,0,0-61.11-61.1h0a61.11,61.11,0,0,0-61.1,61.1v416.41a61.11,61.11,0,0,0,61.1,61.11h0a61.11,61.11,0,0,0,61.11-61.11Z"/><path class="cls-16" d="M1155.41,1438.06c-9.43-.23-233.19-6.56-431-87.37-85.58-35-146.72-109.21-176.8-214.75-22.36-78.44-19.85-145.88-19.73-148.71l33.32,1.39-16.66-.7,16.66.68c0,.65-2.36,65.68,18.73,139.08,27.64,96.21,80.49,160.86,157.08,192.14,192,78.44,417,84.86,419.25,84.91Z"/><rect class="cls-17" x="1141.81" y="1374.89" width="221.78" height="88.26" rx="42.8"/><rect class="cls-18" x="499.09" y="942.64" width="151.63" height="88.26" rx="42.37"/><path class="cls-19" d="M721.45,623.84a12,12,0,0,0-13.61,5.21l-49.26,74.53c-14.2,22.38-23.71,48.34-23.71,74.84v67.79s-65.55,50.94-65.55,125,45.48,174.13,102.91,190.8c3.1,6.83,6.2,12.52,8.35,17.25a33.49,33.49,0,0,0,36,19.27l13.33-2.25V635.63A12,12,0,0,0,721.45,623.84Z"/><path class="cls-20" d="M852.13,1193.84a61.1,61.1,0,0,1-61.1,61.1h0a61.1,61.1,0,0,1-61.11-61.1V777.43A61.11,61.11,0,0,1,791,716.33h0a61.11,61.11,0,0,1,61.1,61.1Z"/><g class="cls-21"><path class="cls-1" d="M1149.17,1239a6.53,6.53,0,0,1-2.33-.43l-25.58-9.94a6.43,6.43,0,0,1-4.09-6.22l.79-20.4a104.11,104.11,0,0,1-20.8-19.91l-20.36,1.7a6.38,6.38,0,0,1-6.39-3.8l-11.07-25.13a6.4,6.4,0,0,1,1.52-7.29l15-13.87a104,104,0,0,1-.65-28.79l-15.58-13.19a6.38,6.38,0,0,1-1.83-7.21l9.93-25.59a6.33,6.33,0,0,1,6.22-4.08l20.4.78a104.11,104.11,0,0,1,19.91-20.8l-1.69-20.35a6.4,6.4,0,0,1,3.8-6.4L1141.47,997a6.43,6.43,0,0,1,7.28,1.51l13.89,15a104,104,0,0,1,28.78-.65l13.19-15.58a6.4,6.4,0,0,1,7.21-1.83l25.59,9.94a6.39,6.39,0,0,1,4.08,6.21l-.78,20.4a104.11,104.11,0,0,1,20.8,19.91l20.36-1.69a6.37,6.37,0,0,1,6.39,3.8l11.07,25.13a6.42,6.42,0,0,1-1.52,7.29l-15,13.87a104,104,0,0,1,.65,28.79l15.58,13.18a6.42,6.42,0,0,1,1.83,7.22L1291,1175a6.43,6.43,0,0,1-6.22,4.09l-20.39-.79a103.85,103.85,0,0,1-19.91,20.8l1.69,20.36a6.4,6.4,0,0,1-3.8,6.39L1217.19,1237a6.4,6.4,0,0,1-7.28-1.51l-13.88-15a103.59,103.59,0,0,1-28.78.66l-13.19,15.58A6.43,6.43,0,0,1,1149.17,1239Zm1.43-5.19h0Zm-24.31-12.94,22.08,8.58,15.17-17.93,2.48.35a95,95,0,0,0,30.83-.7l2.45-.46,16,17.25,21.67-9.55-1.94-23.42,2-1.5a95.19,95.19,0,0,0,21.33-22.28l1.41-2.06,23.47.9,8.57-22.07-17.92-15.18.35-2.48a95.26,95.26,0,0,0-.7-30.83L1273,1097l17.24-16-9.54-21.67-23.42,2-1.51-2a94.76,94.76,0,0,0-22.28-21.32l-2.06-1.42.91-23.47-22.08-8.57-15.18,17.93-2.47-.35a95,95,0,0,0-30.83.69l-2.46.46-16-17.24-21.68,9.55,2,23.42-2,1.5a95.15,95.15,0,0,0-21.32,22.28l-1.41,2.06-23.47-.9L1066.9,1086l17.92,15.18-.35,2.47a95,95,0,0,0,.7,30.83l.46,2.46-17.24,16,9.54,21.67,23.42-2,1.5,2a95.15,95.15,0,0,0,22.28,21.32l2.06,1.41ZM1067,1154.17h0Zm224.66-74.43h0Zm-111.91,107.72a70.46,70.46,0,0,1-25.54-4.81,71.51,71.51,0,0,1-13.39-6.9,4.53,4.53,0,0,1,5-7.56,61.73,61.73,0,1,0-23.51-73.86A61.63,61.63,0,0,0,1119,1127a4.53,4.53,0,1,1-8.92,1.53,70.78,70.78,0,1,1,69.69,58.89Z"/><path class="cls-1" d="M1179.39,1145.87a29.41,29.41,0,0,1-3.61-.23h0a28.67,28.67,0,1,1,3.61.23Zm-.1-48.77a19.86,19.86,0,0,0-2.4,39.56h0a19.85,19.85,0,1,0,4.88-39.4A18.77,18.77,0,0,0,1179.29,1097.1Z"/><path class="cls-1" d="M1364.71,1071.57h-.33l-13.17-1a4.33,4.33,0,0,1-3.83-3.2l-2.32-8.87a51.37,51.37,0,0,1-11.5-5.82l-8.53,3.38a4.29,4.29,0,0,1-4.84-1.19l-8.61-10a4.3,4.3,0,0,1-.45-5l4.63-7.92a51.5,51.5,0,0,1-4-12.24l-8.42-3.64a4.32,4.32,0,0,1-2.58-4.27l1-13.17a4.3,4.3,0,0,1,3.2-3.83l8.87-2.33a51.3,51.3,0,0,1,5.82-11.49l-3.38-8.53a4.3,4.3,0,0,1,1.19-4.85l10-8.6a4.3,4.3,0,0,1,5-.46l7.92,4.64a51.06,51.06,0,0,1,12.24-4l3.64-8.42a4.33,4.33,0,0,1,4.27-2.58l13.17,1a4.3,4.3,0,0,1,3.83,3.2l2.32,8.87a50.54,50.54,0,0,1,11.5,5.82l8.53-3.39a4.28,4.28,0,0,1,4.84,1.2l8.61,10a4.32,4.32,0,0,1,.45,5l-4.63,7.93a51.36,51.36,0,0,1,4,12.24l8.42,3.64a4.31,4.31,0,0,1,2.58,4.26l-1,13.17a4.3,4.3,0,0,1-3.2,3.84l-8.87,2.32a51.58,51.58,0,0,1-5.82,11.5l3.38,8.52a4.3,4.3,0,0,1-1.2,4.86l-10,8.6a4.32,4.32,0,0,1-5,.45l-7.92-4.64a50.62,50.62,0,0,1-12.24,4l-3.64,8.42A4.3,4.3,0,0,1,1364.71,1071.57Zm-11.21-7.65,9.62.73,4.41-10.19,1.85-.29a44.21,44.21,0,0,0,13.71-4.51l1.67-.86,9.58,5.61,7.33-6.29-4.1-10.33,1.11-1.51a44.55,44.55,0,0,0,6.52-12.88l.56-1.79,10.74-2.81.73-9.63-10.19-4.4-.29-1.85a44.51,44.51,0,0,0-4.5-13.72l-.87-1.66L1407,978l-6.29-7.32-10.32,4.09-1.52-1.1A44.18,44.18,0,0,0,1376,967.1l-1.78-.57-2.82-10.74-9.62-.73-4.41,10.19-1.85.29a44.47,44.47,0,0,0-13.71,4.51l-1.67.86-9.59-5.61-7.32,6.29,4.1,10.33-1.11,1.51a44.55,44.55,0,0,0-6.52,12.88l-.57,1.79-10.73,2.81-.73,9.63,10.19,4.4.28,1.85a44.8,44.8,0,0,0,4.51,13.72l.86,1.66-5.6,9.59,6.29,7.32,10.32-4.09,1.52,1.11a44.68,44.68,0,0,0,12.88,6.52l1.78.56Zm48.82-14.15Zm-79.79,0h0ZM1403,1047h0Zm-86.28-6.55h0Zm101.49-22.06h0Zm.64-8.47h0Zm-112.85,0h0Zm.66-8.47h0ZM1402.36,970h0Zm-31.43-15.89Zm-8.27,90.84c-.89,0-1.79,0-2.69-.11a35.41,35.41,0,0,1-7.38-1.35,3.4,3.4,0,1,1,1.93-6.51,28.51,28.51,0,0,0,36.5-25.14,28.47,28.47,0,1,0-53.85,10.57,3.39,3.39,0,1,1-6.07,3,35.25,35.25,0,1,1,31.56,19.5Z"/></g><path class="cls-6" d="M976.19,465.82l4.07,242.12a34.46,34.46,0,0,0,34.46,33.89h475.21a34.47,34.47,0,0,0,34.47-34.47V480.76a34.47,34.47,0,0,0-33.35-34.45L1011.77,430.8A34.47,34.47,0,0,0,976.19,465.82Z"/><path class="cls-3" d="M999.9,489.42l10.65,222.65a16.12,16.12,0,0,0,16.61,15.08l447-7.62a16.07,16.07,0,0,0,16-15.82V510.62a16.06,16.06,0,0,0-15.53-15.8L1017,472.89C1007.4,472.42,999.45,480.09,999.9,489.42Z"/><path class="cls-22" d="M1194,539.33v11.56a7.3,7.3,0,0,0,7.42,7.3l269.15-4.39a7.3,7.3,0,0,0,7.18-7.3h0a7.29,7.29,0,0,0-7.1-7.29L1201.46,532A7.3,7.3,0,0,0,1194,539.33Z"/><path class="cls-22" d="M1194,601.83v10.61a7.3,7.3,0,0,0,7.55,7.3l256.36-8.93a7.3,7.3,0,0,0,7-7.3v-3.3a7.3,7.3,0,0,0-7.34-7.3l-256.36,1.63A7.29,7.29,0,0,0,1194,601.83Z"/><path class="cls-22" d="M1190,656.15v11.57a7.29,7.29,0,0,0,7.42,7.29l269.15-4.39a7.29,7.29,0,0,0,7.18-7.3h0a7.29,7.29,0,0,0-7.1-7.29l-269.16-7.18A7.3,7.3,0,0,0,1190,656.15Z"/><path class="cls-23" d="M1040,607.28c0,35,27.65,63.38,61.76,63.38s61.76-28.37,61.76-63.38-27.65-63.38-61.76-63.38S1040,572.27,1040,607.28Z"/><path class="cls-1" d="M1124.14,581.59c0,11.38-9.23,23.68-20.62,23.68s-20.62-12.3-20.62-23.68,9.23-19.46,20.62-19.46S1124.14,570.2,1124.14,581.59Z"/><path class="cls-1" d="M1077.94,649.1h50.32a12.17,12.17,0,0,0,11.6-8.47l2.71-8.46a12.16,12.16,0,0,0-7.35-15.14c-20.48-7.49-41.66-6.53-63.35.69a12.13,12.13,0,0,0-7.78,14.7l2.09,7.69A12.18,12.18,0,0,0,1077.94,649.1Z"/><path class="cls-24" d="M1040,557l4.07,242.11A34.46,34.46,0,0,0,1078.54,833h475.21a34.46,34.46,0,0,0,34.47-34.46V571.92a34.47,34.47,0,0,0-33.35-34.45L1075.59,522A34.46,34.46,0,0,0,1040,557Z"/><path class="cls-4" d="M1063.72,580.58l10.65,222.65A16.12,16.12,0,0,0,1091,818.31l447-7.62a16.07,16.07,0,0,0,16-15.82V601.78a16.06,16.06,0,0,0-15.53-15.8l-457.62-21.93C1071.22,563.59,1063.27,571.25,1063.72,580.58Z"/><path class="cls-25" d="M1257.79,630.49v11.57a7.29,7.29,0,0,0,7.41,7.29L1534.36,645a7.3,7.3,0,0,0,7.18-7.3h0a7.29,7.29,0,0,0-7.11-7.29l-269.15-7.18A7.29,7.29,0,0,0,1257.79,630.49Z"/><path class="cls-26" d="M1257.79,693v10.6a7.3,7.3,0,0,0,7.55,7.3L1521.69,702a7.3,7.3,0,0,0,7-7.29v-3.31a7.3,7.3,0,0,0-7.35-7.3L1265,685.7A7.29,7.29,0,0,0,1257.79,693Z"/><path class="cls-27" d="M1253.77,747.31v11.57a7.31,7.31,0,0,0,7.42,7.3l269.15-4.4a7.29,7.29,0,0,0,7.18-7.29h0a7.3,7.3,0,0,0-7.1-7.3L1261.26,740A7.29,7.29,0,0,0,1253.77,747.31Z"/><ellipse class="cls-28" cx="1165.58" cy="698.44" rx="61.76" ry="63.38"/><path class="cls-29" d="M1188,672.75c0,11.39-9.23,23.68-20.61,23.68s-20.62-12.29-20.62-23.68,9.23-19.46,20.62-19.46S1188,661.36,1188,672.75Z"/><path class="cls-30" d="M1141.75,740.26h50.33a12.17,12.17,0,0,0,11.6-8.47l2.71-8.46a12.17,12.17,0,0,0-7.35-15.14c-20.48-7.49-41.66-6.53-63.36.69a12.13,12.13,0,0,0-7.77,14.7l2.09,7.69A12.17,12.17,0,0,0,1141.75,740.26Z"/><g class="cls-31"><path class="cls-6" d="M2128,680.27a2.26,2.26,0,0,1-.83-4.37c2.74-1.08,5.5-2.27,8.18-3.52a2.26,2.26,0,0,1,1.92,4.1c-2.77,1.29-5.61,2.52-8.44,3.63A2.19,2.19,0,0,1,2128,680.27Z"/><path class="cls-6" d="M2082.9,690.44a2.26,2.26,0,0,1-.15-4.52l1.92-.14a150,150,0,0,0,15.35-2.06,2.26,2.26,0,0,1,.83,4.45,155.87,155.87,0,0,1-15.81,2.12l-2,.15Zm-28.67-.71-.28,0a152.12,152.12,0,0,1-17.65-3.2,2.26,2.26,0,1,1,1.06-4.4,148,148,0,0,0,17.14,3.11,2.26,2.26,0,0,1-.27,4.51Zm-44.5-12.56a2.22,2.22,0,0,1-.94-.21,156,156,0,0,1-15.85-8.41,2.27,2.27,0,0,1,2.36-3.87,148.69,148.69,0,0,0,15.37,8.16,2.27,2.27,0,0,1-.94,4.33Zm-38.59-25.46a2.24,2.24,0,0,1-1.52-.58,153.25,153.25,0,0,1-12.57-12.79,2.26,2.26,0,0,1,3.41-3,148.85,148.85,0,0,0,12.2,12.41,2.27,2.27,0,0,1,.15,3.2A2.25,2.25,0,0,1,1971.14,651.71ZM1942,615.82a2.26,2.26,0,0,1-2-1.12,153.86,153.86,0,0,1-8.11-16,2.26,2.26,0,1,1,4.15-1.81,147.79,147.79,0,0,0,7.87,15.53,2.27,2.27,0,0,1-2,3.4Zm-16.86-43A2.27,2.27,0,0,1,1923,571a156.67,156.67,0,0,1-2.86-17.69,2.26,2.26,0,1,1,4.5-.47,152.17,152.17,0,0,0,2.78,17.18,2.26,2.26,0,0,1-1.72,2.7A2.72,2.72,0,0,1,1925.16,572.78Zm-3.06-46.12h-.2a2.26,2.26,0,0,1-2.05-2.45,151.2,151.2,0,0,1,2.59-17.75,2.26,2.26,0,1,1,4.43.92,148.53,148.53,0,0,0-2.52,17.22A2.26,2.26,0,0,1,1922.1,526.66Z"/><path class="cls-6" d="M1933.19,481.64a2.21,2.21,0,0,1-.87-.17,2.26,2.26,0,0,1-1.22-3c1.18-2.83,2.46-5.64,3.8-8.36a2.26,2.26,0,1,1,4.06,2c-1.3,2.65-2.54,5.38-3.68,8.11A2.27,2.27,0,0,1,1933.19,481.64Z"/><path class="cls-6" d="M2020.46,398.12a2.27,2.27,0,0,1-.78-4.39c2.86-1.05,5.79-2,8.72-2.9a2.27,2.27,0,0,1,1.3,4.34c-2.84.85-5.69,1.79-8.46,2.81A2.33,2.33,0,0,1,2020.46,398.12Z"/><path class="cls-6" d="M2218.64,577.81a2.22,2.22,0,0,1-.57-.07,2.26,2.26,0,0,1-1.62-2.76,147,147,0,0,0,3.33-16.79,2.25,2.25,0,0,1,2.56-1.93,2.27,2.27,0,0,1,1.93,2.55,154.47,154.47,0,0,1-3.44,17.31A2.26,2.26,0,0,1,2218.64,577.81Zm4.63-45.24a2.27,2.27,0,0,1-2.26-2.16c-.08-1.66-.19-3.32-.33-5-.33-4-.83-8.08-1.47-12a2.26,2.26,0,1,1,4.46-.73c.67,4.08,1.18,8.25,1.53,12.4.14,1.72.25,3.43.33,5.14a2.26,2.26,0,0,1-2.15,2.37Zm-9-44.58a2.27,2.27,0,0,1-2.13-1.49,149.43,149.43,0,0,0-6.79-15.71,2.26,2.26,0,1,1,4-2,153.64,153.64,0,0,1,7,16.2,2.26,2.26,0,0,1-1.35,2.9A2.32,2.32,0,0,1,2214.3,488Zm-21.89-39.86a2.26,2.26,0,0,1-1.8-.89,149.68,149.68,0,0,0-11.18-13,2.27,2.27,0,0,1,3.26-3.15,154,154,0,0,1,11.51,13.36,2.26,2.26,0,0,1-.42,3.17A2.21,2.21,0,0,1,2192.41,448.13Zm-32.77-31.53a2.29,2.29,0,0,1-1.31-.42,150.57,150.57,0,0,0-14.52-9.08,2.26,2.26,0,1,1,2.18-4,153.77,153.77,0,0,1,15,9.35,2.26,2.26,0,0,1-1.31,4.11ZM2119,396.2a2.43,2.43,0,0,1-.7-.11,147.77,147.77,0,0,0-16.57-4.33,2.26,2.26,0,1,1,.89-4.44,154,154,0,0,1,17.07,4.46,2.26,2.26,0,0,1-.69,4.42Zm-62.26-6.47a2.26,2.26,0,0,1-.24-4.51c1.15-.12,2.31-.23,3.47-.33,4.24-.34,8.52-.52,12.7-.52h1.46a2.26,2.26,0,0,1,0,4.52h-1.44c-4.06,0-8.21.17-12.33.51-1.13.09-2.25.19-3.36.31Z"/><path class="cls-6" d="M2204.83,612.51a2.26,2.26,0,0,1-2-3.36c1.44-2.61,2.8-5.28,4.06-7.93a2.26,2.26,0,0,1,4.09,1.94c-1.3,2.73-2.7,5.48-4.19,8.18A2.25,2.25,0,0,1,2204.83,612.51Z"/><path class="cls-4" d="M2166.3,605.77a1.8,1.8,0,0,0,.24-2.09l-10.63-19.32a96.23,96.23,0,0,0,10.46-29.3l20.45-8.22a1.8,1.8,0,0,0,1.13-1.77l-1.32-26.42a1.82,1.82,0,0,0-1.31-1.65l-21.16-6.13a96.16,96.16,0,0,0-13.34-28.12l8.65-20.28a1.82,1.82,0,0,0-.45-2.05l-19.62-17.74a1.82,1.82,0,0,0-2.09-.25L2118,453.07a96,96,0,0,0-29.31-10.47l-8.22-20.44a1.8,1.8,0,0,0-1.77-1.14l-26.41,1.33a1.79,1.79,0,0,0-1.65,1.3l-6.14,21.17a96.1,96.1,0,0,0-28.11,13.34l-20.28-8.65a1.8,1.8,0,0,0-2.06.45l-17.74,19.61a1.8,1.8,0,0,0-.24,2.09L1986.7,491a96.23,96.23,0,0,0-10.46,29.3l-20.45,8.22a1.8,1.8,0,0,0-1.13,1.77l1.32,26.42a1.82,1.82,0,0,0,1.31,1.65l21.16,6.13a96,96,0,0,0,13.34,28.12l-8.65,20.28a1.82,1.82,0,0,0,.45,2l19.62,17.75a1.83,1.83,0,0,0,2.09.24l19.31-10.64a96,96,0,0,0,29.31,10.47l8.22,20.45a1.81,1.81,0,0,0,1.77,1.13l26.41-1.32a1.81,1.81,0,0,0,1.65-1.31l6.14-21.17a96.1,96.1,0,0,0,28.11-13.34l20.28,8.66a1.82,1.82,0,0,0,2.06-.46Z"/><path class="cls-5" d="M2071.27,564.56a27,27,0,1,1,7.91-1.19A26.77,26.77,0,0,1,2071.27,564.56Zm0-47a20.09,20.09,0,1,0,19.22,14.2h0A20.12,20.12,0,0,0,2071.29,517.58Z"/><path class="cls-5" d="M2070.82,604.55a67.3,67.3,0,0,1-67.09-63.86c-.06-1.14-.09-2.27-.09-3.4A67.22,67.22,0,0,1,2138,534h0q.09,1.69.09,3.39a67.38,67.38,0,0,1-.68,9.54q-.09.68-.21,1.35l-6.7-1.1a60.33,60.33,0,0,0,.8-9.79c0-1,0-2-.08-3.05a60.52,60.52,0,0,0-62-57.39l-1.39.06a60.5,60.5,0,0,0-57.4,60.32c0,1,0,2,.08,3.05a60.44,60.44,0,0,0,93.93,47.23l3.78,5.64a67.19,67.19,0,0,1-34,11.24C2073.08,604.52,2072,604.55,2070.82,604.55Z"/><path class="cls-4" d="M1984.88,431.34l-6.8-10.31a53.81,53.81,0,0,0,4.55-16.84l11-5.49a1,1,0,0,0,.56-1l-1.91-14.7a1,1,0,0,0-.81-.86l-12.09-2.49a53.8,53.8,0,0,0-8.7-15.11l3.93-11.71a1,1,0,0,0-.34-1.13l-11.74-9a1,1,0,0,0-1.18,0l-10.32,6.8a53.66,53.66,0,0,0-16.83-4.54l-5.5-11.06a1,1,0,0,0-1-.55l-14.7,1.91a1,1,0,0,0-.86.8L1909.67,348a54,54,0,0,0-15.11,8.7l-11.72-3.93a1,1,0,0,0-1.12.35l-9,11.74a1,1,0,0,0,0,1.18l6.8,10.31a54.06,54.06,0,0,0-4.54,16.84l-11.06,5.49a1,1,0,0,0-.55,1l1.91,14.7a1,1,0,0,0,.8.86l12.1,2.49a53.8,53.8,0,0,0,8.7,15.11l-3.93,11.71a1,1,0,0,0,.34,1.13l11.74,9a1,1,0,0,0,1.18,0l10.32-6.8a53.66,53.66,0,0,0,16.83,4.54l5.5,11.06a1,1,0,0,0,1,.55l14.69-1.91a1,1,0,0,0,.87-.8l2.48-12.09a54,54,0,0,0,15.11-8.7l11.71,3.93a1,1,0,0,0,1.13-.35l9-11.74A1,1,0,0,0,1984.88,431.34Z"/><path class="cls-5" d="M1928.76,415.27a16.58,16.58,0,0,1-6.58-1.37,16.56,16.56,0,1,1,22-21.28h0a16.57,16.57,0,0,1-15.39,22.65Zm0-26.33a9.76,9.76,0,1,0,9.08,6.17h0a9.75,9.75,0,0,0-5.2-5.37A9.87,9.87,0,0,0,1928.76,388.94Z"/><path class="cls-6" d="M1974.74,465.77a2.27,2.27,0,0,1-1.32-4.11,76.49,76.49,0,0,0,6.87-5.49,2.27,2.27,0,1,1,3,3.37,82.37,82.37,0,0,1-7.28,5.81A2.24,2.24,0,0,1,1974.74,465.77Z"/><path class="cls-6" d="M1928.77,480.43a2.28,2.28,0,0,1-2.29-2.26,2.25,2.25,0,0,1,2.24-2.27,76.43,76.43,0,0,0,18-2.13,2.27,2.27,0,0,1,1.06,4.41A81.63,81.63,0,0,1,1928.77,480.43Zm-29.68-5.76a2.28,2.28,0,0,1-.84-.16,82.49,82.49,0,0,1-16.83-9.19,2.26,2.26,0,1,1,2.62-3.69,77.35,77.35,0,0,0,15.9,8.68,2.26,2.26,0,0,1-.85,4.36Zm-37.2-30.76a2.24,2.24,0,0,1-1.9-1,81.33,81.33,0,0,1-7.22-14.12q-.62-1.54-1.17-3.12a2.26,2.26,0,0,1,4.27-1.49c.35,1,.72,2,1.11,2.95a77.26,77.26,0,0,0,6.82,13.34,2.26,2.26,0,0,1-.69,3.12A2.19,2.19,0,0,1,1861.89,443.91Z"/><path class="cls-6" d="M1849.37,397.22h-.11a2.26,2.26,0,0,1-2.15-2.37,82.41,82.41,0,0,1,1-9.25,2.26,2.26,0,1,1,4.47.73,78,78,0,0,0-.92,8.74A2.26,2.26,0,0,1,1849.37,397.22Z"/><path class="cls-6" d="M1880.87,337.54a2.26,2.26,0,0,1-1.36-4.07,80.16,80.16,0,0,1,7.74-5.17,2.26,2.26,0,1,1,2.29,3.9,78.74,78.74,0,0,0-7.31,4.88A2.21,2.21,0,0,1,1880.87,337.54Z"/><path class="cls-6" d="M2005,378.79a2.27,2.27,0,0,1-2.18-1.63c-.67-2.31-1.46-4.61-2.35-6.85a77.55,77.55,0,0,0-4.55-9.56,2.26,2.26,0,1,1,3.94-2.22,80.94,80.94,0,0,1,4.82,10.12c.94,2.36,1.77,4.8,2.49,7.24a2.26,2.26,0,0,1-2.17,2.9Zm-26.26-39.55a2.3,2.3,0,0,1-1.42-.5,77,77,0,0,0-15-9.54,2.26,2.26,0,0,1,2-4.07,81.92,81.92,0,0,1,15.92,10.09,2.26,2.26,0,0,1-1.43,4Zm-62.44-16.76a2.26,2.26,0,0,1-.35-4.5,81.34,81.34,0,0,1,18.84-.78,2.26,2.26,0,0,1-.34,4.51,77.32,77.32,0,0,0-17.79.74A2.19,2.19,0,0,1,1916.34,322.48Z"/><path class="cls-6" d="M2006.5,417.32a1.83,1.83,0,0,1-.47-.05,2.26,2.26,0,0,1-1.75-2.68,75.66,75.66,0,0,0,1.32-8.69,2.23,2.23,0,0,1,2.47-2,2.27,2.27,0,0,1,2,2.47,82.42,82.42,0,0,1-1.4,9.2A2.27,2.27,0,0,1,2006.5,417.32Z"/><path class="cls-5" d="M1928.47,437.69a39.21,39.21,0,0,1-38.8-34.1,40.45,40.45,0,0,1-.34-5.14,39.16,39.16,0,0,1,78-5h0a39.36,39.36,0,0,1,.2,8.33l-6.77-.56c.08-.88.11-1.77.11-2.66a33.25,33.25,0,0,0-.27-4.23h0a32.42,32.42,0,0,0-33.21-28.17c-.76,0-1.52.08-2.28.16l-.45,0-.33,0a32.36,32.36,0,0,0-28.19,32,33.49,33.49,0,0,0,.27,4.23,32.38,32.38,0,0,0,52.16,21.23l4.21,5.32a39.2,39.2,0,0,1-19.22,8.1A39.86,39.86,0,0,1,1928.47,437.69Z"/></g><path class="cls-32" d="M474.91,1037.26l-3.14-6a1.51,1.51,0,0,1,2.66-1.41h0l0,.07,3.08,5.83,0,.06a1.5,1.5,0,0,1-2.66,1.4Z"/><path class="cls-33" d="M465.56,1016.88l-2.09-6.42a1.52,1.52,0,1,1,2.89-.94h0l0,.08,2,6.25,0,.09a1.51,1.51,0,1,1-2.88.94Z"/><path class="cls-34" d="M460.15,995.05c-.3-2.23-.52-4.48-.66-6.73a1.54,1.54,0,1,1,3.07-.19h0q.19,3.27.63,6.52a1.53,1.53,0,0,1-3,.4Z"/><path class="cls-35" d="M459.93,972.53c.26-2.25.62-4.48,1.06-6.7a1.55,1.55,0,1,1,3,.61h0c-.43,2.13-.77,4.29-1,6.45a1.55,1.55,0,0,1-3.07-.36Z"/><path class="cls-36" d="M465.49,950.68q1.26-3.15,2.74-6.2a1.56,1.56,0,0,1,2.81,1.37h0c-1,2-1.84,4-2.65,6a1.56,1.56,0,0,1-2.9-1.15Z"/><path class="cls-37" d="M476.24,930.9l4-5.42a1.58,1.58,0,0,1,2.53,1.88h0l-.06.08-3.93,5.26-.06.07a1.57,1.57,0,1,1-2.51-1.87Z"/><path class="cls-38" d="M490.82,913.81l4.93-4.59a1.59,1.59,0,1,1,2.17,2.32h0l-.06.05L493,916.08l-.06,0a1.58,1.58,0,1,1-2.16-2.32Z"/><path class="cls-39" d="M508,899.4l5.51-3.84a1.6,1.6,0,1,1,1.83,2.63h0l-.05,0L509.87,902l-.05,0A1.6,1.6,0,0,1,508,899.4Z"/><path class="cls-40" d="M526.87,887.38l5.9-3.19a1.62,1.62,0,0,1,1.54,2.85h0l0,0-5.82,3.14,0,0a1.61,1.61,0,1,1-1.53-2.84Z"/><path class="cls-41" d="M546.88,877.42,553,874.8a1.63,1.63,0,0,1,1.28,3h0l0,0-6.09,2.58,0,0a1.63,1.63,0,0,1-1.27-3Z"/><path class="cls-42" d="M567.66,869.27l6.35-2.13a1.65,1.65,0,0,1,1,3.12h0l-6.28,2.1h0a1.64,1.64,0,0,1-1-3.11Z"/><path class="cls-43" d="M589,862.7l6.47-1.69a1.66,1.66,0,1,1,.84,3.21h0l-6.42,1.66h0a1.65,1.65,0,1,1-.83-3.2Z"/><path class="cls-44" d="M610.69,857.56l6.56-1.28a1.67,1.67,0,1,1,.64,3.28h0l-6.5,1.26h0a1.67,1.67,0,1,1-.64-3.27Z"/><path class="cls-45" d="M632.65,853.73l6.63-.91a1.69,1.69,0,0,1,.46,3.34h0l-6.58.89h0a1.68,1.68,0,1,1-.46-3.33Z"/><path class="cls-46" d="M654.79,851.12l6.66-.55a1.7,1.7,0,1,1,.28,3.39h0l-6.62.54h0a1.68,1.68,0,0,1-1.83-1.55A1.7,1.7,0,0,1,654.79,851.12Z"/><path class="cls-47" d="M677,849.68l6.68-.21a1.71,1.71,0,1,1,.11,3.42h0l-6.64.2h0a1.71,1.71,0,0,1-.11-3.42Z"/><path class="cls-48" d="M699.32,849.36l6.68.11a1.73,1.73,0,1,1-.06,3.46h0l-6.63-.13h0a1.72,1.72,0,1,1,.07-3.44Z"/><path class="cls-49" d="M721.59,850.12l6.67.44A1.74,1.74,0,0,1,728,854h0l-6.62-.45h0a1.74,1.74,0,0,1,.23-3.47Z"/><path class="cls-50" d="M743.79,851.93l6.64.69a1.75,1.75,0,0,1-.37,3.49h0l-6.61-.69h0a1.75,1.75,0,0,1,.37-3.49Z"/><path class="cls-51" d="M765.89,854.44l6.62.86a1.76,1.76,0,1,1-.45,3.5h0l-6.59-.87h0a1.76,1.76,0,0,1,.45-3.49Z"/><path class="cls-52" d="M787.93,857.51l6.59,1a1.78,1.78,0,1,1-.54,3.51h0l-6.57-1h0a1.77,1.77,0,1,1,.55-3.5Z"/><path class="cls-53" d="M809.88,861.13l6.57,1.19a1.79,1.79,0,1,1-.64,3.52h0l-6.55-1.2h0a1.78,1.78,0,0,1,.64-3.51Z"/><path class="cls-54" d="M831.74,865.27l6.53,1.35a1.8,1.8,0,1,1-.72,3.52h0L831,868.8h0a1.8,1.8,0,1,1,.73-3.52Z"/><path class="cls-55" d="M853.49,869.92l6.5,1.49a1.81,1.81,0,1,1-.8,3.53h0l-6.48-1.49h0a1.81,1.81,0,1,1,.81-3.52Z"/><path class="cls-56" d="M875.13,875l6.47,1.63a1.82,1.82,0,1,1-.88,3.53h0l-6.44-1.63h0a1.82,1.82,0,0,1,.89-3.53Z"/><path class="cls-57" d="M896.66,880.61l6.44,1.76a1.83,1.83,0,1,1-1,3.54h0l-6.41-1.75a1.83,1.83,0,1,1,.95-3.54Z"/><path class="cls-58" d="M918.08,886.61l6.4,1.88a1.84,1.84,0,1,1-1,3.54h0l-6.38-1.88a1.84,1.84,0,1,1,1-3.54Z"/><path class="cls-59" d="M939.38,893l6.36,2a1.85,1.85,0,1,1-1.11,3.54h0l-6.34-2a1.85,1.85,0,1,1,1.1-3.54Z"/><path class="cls-60" d="M960.56,899.77l6.33,2.1a1.87,1.87,0,0,1-1.18,3.55h0l-6.31-2.1a1.86,1.86,0,1,1,1.17-3.54Z"/><path class="cls-61" d="M981.62,906.88l6.3,2.2a1.88,1.88,0,0,1-1.24,3.55h0l-6.28-2.2a1.88,1.88,0,0,1,1.23-3.55Z"/><path class="cls-62" d="M1002.57,914.32l6.27,2.28a1.89,1.89,0,0,1-1.3,3.56h0l-6.25-2.29a1.88,1.88,0,1,1,1.29-3.54Z"/><path class="cls-63" d="M1023.41,922l6.24,2.37a1.91,1.91,0,0,1-1.36,3.56h0l-6.22-2.37a1.9,1.9,0,1,1,1.34-3.55Z"/><path class="cls-64" d="M1044.15,930l6.21,2.44A1.91,1.91,0,0,1,1049,936h0l-6.18-2.45a1.91,1.91,0,1,1,1.39-3.55Z"/><path class="cls-65" d="M1064.8,938.27l6.17,2.52a1.92,1.92,0,1,1-1.45,3.56h0l-6.16-2.52a1.92,1.92,0,1,1,1.45-3.56Z"/><path class="cls-66" d="M1085.35,946.73l6.15,2.57a1.94,1.94,0,0,1-1.5,3.57h0l-6.13-2.58a1.93,1.93,0,1,1,1.49-3.56Z"/><path class="cls-67" d="M1105.82,955.38l6.12,2.62a1.95,1.95,0,0,1-1.53,3.58h0l-6.11-2.63a1.94,1.94,0,1,1,1.53-3.57Z"/><path class="cls-68" d="M1126.21,964.19l6.1,2.68a2,2,0,0,1-1.57,3.59h0l-6.1-2.68a2,2,0,1,1,1.57-3.59Z"/><path class="cls-69" d="M1146.54,973.16l6.08,2.71a2,2,0,0,1-1.6,3.6h0l-6.07-2.72a2,2,0,1,1,1.6-3.59Z"/><path class="cls-70" d="M1166.81,982.25l6.07,2.74a2,2,0,0,1-1.63,3.61h0l-6.06-2.75a2,2,0,1,1,1.63-3.6Z"/><path class="cls-71" d="M1187,991.43l6.06,2.77a2,2,0,0,1-1.66,3.63h0l-6-2.77a2,2,0,1,1,1.65-3.62Z"/><path class="cls-72" d="M1207.22,1000.69l6,2.79a2,2,0,0,1-1.68,3.64h0l-6-2.8a2,2,0,1,1,1.68-3.63Z"/><path class="cls-73" d="M1227.38,1010l6,2.8a2,2,0,0,1,1,2.67,2,2,0,0,1-2.68,1h0l-6-2.8a2,2,0,0,1,1.69-3.66Z"/><path class="cls-74" d="M1247.53,1019.31l6,2.79a2,2,0,0,1-1.7,3.68h0l-6-2.8a2,2,0,0,1,1.7-3.67Z"/><path class="cls-75" d="M1267.69,1028.61l6,2.78a2,2,0,1,1-1.71,3.71h0l-6-2.79a2,2,0,0,1,1.71-3.7Z"/><path class="cls-76" d="M1287.86,1037.87l6.05,2.77a2,2,0,1,1-1.7,3.73h0l-6.06-2.78a2,2,0,1,1,1.71-3.72Z"/><path class="cls-77" d="M1308.05,1047.07l6.07,2.75a2.06,2.06,0,1,1-1.69,3.75h0l-6.07-2.75a2.06,2.06,0,0,1,1.7-3.75Z"/><path class="cls-78" d="M1328.29,1056.18l6.08,2.72a2.07,2.07,0,1,1-1.68,3.78h0l-6.08-2.72a2.07,2.07,0,0,1,1.69-3.78Z"/><path class="cls-79" d="M1348.57,1065.18l6.1,2.68a2.08,2.08,0,1,1-1.67,3.81h0l-6.1-2.68a2.08,2.08,0,0,1,1.67-3.81Z"/><path class="cls-80" d="M1368.91,1074l6.12,2.63a2.09,2.09,0,1,1-1.65,3.85h0l-6.13-2.64a2.09,2.09,0,0,1,1.66-3.84Z"/><path class="cls-81" d="M1389.32,1082.74l6.14,2.57a2.11,2.11,0,0,1-1.62,3.89h0l-6.14-2.59a2.1,2.1,0,1,1,1.63-3.87Z"/><path class="cls-82" d="M1409.81,1091.25l6.16,2.51a2.12,2.12,0,0,1-1.59,3.93h0l-6.17-2.52a2.11,2.11,0,1,1,1.61-3.91Z"/><path class="cls-83" d="M1430.37,1099.54l6.19,2.44a2.13,2.13,0,0,1-1.55,4h0l-6.2-2.46a2.13,2.13,0,1,1,1.57-4Z"/><path class="cls-84" d="M1451,1107.6l6.21,2.36a2.14,2.14,0,0,1-1.5,4h0l-6.23-2.37a2.14,2.14,0,1,1,1.53-4Z"/><path class="cls-85" d="M1471.79,1115.39l6.25,2.28a2.15,2.15,0,1,1-1.46,4h0l-6.26-2.29a2.15,2.15,0,1,1,1.48-4Z"/><path class="cls-86" d="M1492.66,1122.89l6.28,2.18a2.17,2.17,0,0,1-1.41,4.1h0l-6.29-2.2a2.16,2.16,0,1,1,1.43-4.07Z"/><path class="cls-87" d="M1513.63,1130.07l6.31,2.09a2.17,2.17,0,1,1-1.34,4.13h0l-6.34-2.11a2.17,2.17,0,1,1,1.38-4.11Z"/><path class="cls-88" d="M1534.71,1136.91l6.35,2h0a2.18,2.18,0,1,1-1.3,4.17h0l-6.37-2a2.19,2.19,0,0,1,1.31-4.17Z"/><path class="cls-89" d="M1555.91,1143.37l6.38,1.87h0a2.2,2.2,0,1,1-1.23,4.22h0l-6.4-1.88a2.19,2.19,0,1,1,1.23-4.21Z"/><path class="cls-90" d="M1577.22,1149.45l6.42,1.74h0a2.21,2.21,0,0,1-1.16,4.27h0l-6.44-1.76a2.2,2.2,0,0,1,1.16-4.25Z"/><path class="cls-91" d="M1598.65,1155.1l6.45,1.62h0A2.22,2.22,0,0,1,1604,1161h0l-6.47-1.62a2.22,2.22,0,1,1,1.08-4.3Z"/><path class="cls-92" d="M1620.18,1160.32l6.48,1.47h0a2.23,2.23,0,0,1-1,4.35h0l-6.5-1.48a2.23,2.23,0,1,1,1-4.35Z"/><path class="cls-93" d="M1641.82,1165.06l6.51,1.33h0a2.24,2.24,0,0,1-.9,4.39h0l-6.54-1.34a2.24,2.24,0,1,1,.9-4.38Z"/><path class="cls-94" d="M1663.56,1169.31l6.54,1.18h0a2.25,2.25,0,0,1-.79,4.44h0l-6.57-1.19a2.25,2.25,0,1,1,.81-4.43Z"/><path class="cls-95" d="M1685.39,1173.05l6.56,1h0a2.27,2.27,0,1,1-.69,4.48h0l-6.6-1a2.26,2.26,0,0,1,.69-4.47Z"/><path class="cls-96" d="M1707.3,1176.19l6.59.82h0a2.28,2.28,0,0,1-.56,4.52h0l-6.63-.83a2.27,2.27,0,0,1,.56-4.51Z"/><path class="cls-97" d="M1729.29,1178.7l6.62.63h0a2.29,2.29,0,1,1-.43,4.55h0l-6.65-.64a2.29,2.29,0,1,1,.44-4.55Z"/><path class="cls-98" d="M1751.35,1180.59l6.63.45h0a2.3,2.3,0,1,1-.31,4.58h0l-6.67-.45a2.3,2.3,0,0,1,.31-4.58Z"/><path class="cls-99" d="M1773.45,1181.85l6.64.26h0a2.31,2.31,0,0,1-.18,4.62h0l-6.68-.27a2.31,2.31,0,0,1,.18-4.61Z"/><path class="cls-100" d="M1795.58,1182.49l6.64.06h0a2.32,2.32,0,1,1,0,4.64h0l-6.68-.07a2.32,2.32,0,0,1,0-4.64Z"/><path class="cls-101" d="M1817.71,1182.48l6.64-.13h0a2.33,2.33,0,1,1,.09,4.66h0l-6.68.12a2.33,2.33,0,1,1-.08-4.65Z"/><path class="cls-102" d="M1839.84,1181.81l6.63-.32h0a2.34,2.34,0,1,1,.23,4.68h0l-6.67.32a2.34,2.34,0,1,1-.23-4.67Z"/><path class="cls-103" d="M1861.93,1180.49l6.62-.54h0a2.36,2.36,0,0,1,.38,4.7h0l-6.66.53a2.35,2.35,0,0,1-.37-4.69Z"/><path class="cls-104" d="M1884,1178.47l6.59-.74h0a2.36,2.36,0,0,1,.53,4.7h0l-6.64.74a2.36,2.36,0,0,1-.52-4.7Z"/><path class="cls-105" d="M1905.93,1175.75l6.56-1h0a2.37,2.37,0,1,1,.68,4.7h0l-6.61,1a2.37,2.37,0,0,1-.68-4.7Z"/><path class="cls-106" d="M1927.78,1172.29l6.53-1.18h0a2.39,2.39,0,1,1,.85,4.7h0l-6.58,1.18a2.38,2.38,0,1,1-.84-4.69Z"/><path class="cls-107" d="M1949.49,1168.08l6.48-1.42h0a2.4,2.4,0,1,1,1,4.69h0l-6.53,1.42a2.4,2.4,0,0,1-1-4.69Z"/><path class="cls-108" d="M1971,1163.07l6.42-1.66h0a2.41,2.41,0,1,1,1.21,4.67h0l-6.48,1.67a2.41,2.41,0,1,1-1.2-4.66Z"/><path class="cls-109" d="M1992.36,1157.24l6.35-1.92h0a2.42,2.42,0,0,1,1.41,4.64h0l-6.4,1.93a2.42,2.42,0,1,1-1.4-4.63Z"/><path class="cls-110" d="M2013.42,1150.54l6.26-2.18h0a2.43,2.43,0,1,1,1.6,4.59h0l-6.32,2.2a2.43,2.43,0,0,1-1.6-4.59Z"/><path class="cls-111" d="M2034.17,1142.94l6.15-2.46h0a2.45,2.45,0,0,1,1.82,4.54h0l-6.22,2.48a2.44,2.44,0,0,1-1.81-4.54Z"/><path class="cls-112" d="M2054.54,1134.4l6-2.76h0a2.46,2.46,0,0,1,2,4.47h0l-6.09,2.78a2.45,2.45,0,0,1-2-4.47Z"/><path class="cls-113" d="M2074.45,1124.87l5.88-3.06h0a2.47,2.47,0,0,1,2.28,4.38h0l-5.95,3.08a2.46,2.46,0,1,1-2.27-4.37Z"/><path class="cls-114" d="M2093.84,1114.32l5.7-3.37,0,0a2.48,2.48,0,0,1,2.53,4.27h0l-5.77,3.41a2.48,2.48,0,0,1-2.52-4.27Z"/><path class="cls-115" d="M2112.6,1102.71l5.49-3.69,0,0a2.49,2.49,0,0,1,2.78,4.13h0l-5.57,3.74a2.49,2.49,0,1,1-2.77-4.13Z"/><path class="cls-116" d="M2130.63,1090l5.25-4,0,0a2.5,2.5,0,1,1,3,4h0l-5.33,4.08a2.5,2.5,0,0,1-3-4Z"/><path class="cls-117" d="M2147.83,1076.24l5-4.35,0,0a2.51,2.51,0,1,1,3.31,3.78h0l-5.06,4.41a2.51,2.51,0,0,1-3.3-3.79Z"/><path class="cls-118" d="M2164.07,1061.36l4.68-4.67,0,0a2.53,2.53,0,1,1,3.58,3.57h0l-4.75,4.75a2.52,2.52,0,1,1-3.56-3.57Z"/><path class="cls-119" d="M2179.28,1045.42l4.35-5,0,0a2.54,2.54,0,1,1,3.82,3.34h0l-4.42,5.06a2.53,2.53,0,0,1-3.81-3.34Z"/><path class="cls-120" d="M2193.37,1028.49l4-5.26,0,0a2.55,2.55,0,0,1,4.05,3.09h0l-4.07,5.34a2.55,2.55,0,1,1-4-3.09Z"/><path class="cls-121" d="M2206.3,1010.65l3.64-5.52,0,0a2.56,2.56,0,0,1,4.28,2.82h0l-3.7,5.6a2.55,2.55,0,1,1-4.26-2.82Z"/><path class="cls-122" d="M2218,992l3.27-5.74,0,0a2.57,2.57,0,1,1,4.47,2.55h0l-3.32,5.83A2.57,2.57,0,1,1,2218,992Z"/><path class="cls-123" d="M2228.46,972.59l2.89-5.94,0,0a2.58,2.58,0,0,1,4.64,2.26h0l-2.95,6a2.58,2.58,0,1,1-4.63-2.26Z"/><path class="cls-124" d="M2237.67,952.57l2.51-6.12,0,0a2.59,2.59,0,0,1,4.8,2h0l-2.55,6.2a2.59,2.59,0,1,1-4.79-2Z"/><path class="cls-125" d="M2245.61,932l2.14-6.26,0,0a2.6,2.6,0,1,1,4.93,1.68h0l-2.18,6.35a2.6,2.6,0,0,1-4.92-1.69Z"/><path class="cls-126" d="M2252.31,911l1.77-6.37v0a2.62,2.62,0,1,1,5,1.4h0l-1.8,6.46a2.61,2.61,0,0,1-5-1.4Z"/><path class="cls-127" d="M2257.78,889.64l1.41-6.46v0a2.63,2.63,0,1,1,5.13,1.12h0l-1.43,6.55a2.63,2.63,0,0,1-5.13-1.12Z"/><path class="cls-128" d="M2262.05,868l1-6.53v-.05a2.64,2.64,0,0,1,5.21.84h0l-1.07,6.62a2.63,2.63,0,0,1-5.2-.84Z"/><path class="cls-129" d="M2265.12,846.16l.7-6.59v0a2.65,2.65,0,0,1,5.27.56h0l-.71,6.67a2.64,2.64,0,0,1-5.26-.56Z"/><path class="cls-130" d="M2267,824.18l.35-6.61v0a2.66,2.66,0,1,1,5.32.28h0l-.37,6.69a2.65,2.65,0,0,1-5.3-.28Z"/><path class="cls-131" d="M2267.82,802.12l0-6.62v0a2.68,2.68,0,0,1,5.35,0h0l0,6.7a2.67,2.67,0,0,1-5.34,0Z"/><path class="cls-132" d="M2267.52,780.05l-.3-6.61v0a2.68,2.68,0,1,1,5.36-.24h0l.3,6.69a2.68,2.68,0,0,1-5.36.24Z"/><path class="cls-133" d="M2266.16,758l-.61-6.59v0a2.7,2.7,0,0,1,5.37-.5h0l.61,6.67a2.69,2.69,0,0,1-5.36.49Z"/><path class="cls-134" d="M2263.75,736.08l-.92-6.56v0a2.71,2.71,0,1,1,5.36-.76h0l.93,6.63a2.7,2.7,0,1,1-5.35.75Z"/><path class="cls-135" d="M2260.32,714.28l-1.23-6.51v0a2.72,2.72,0,0,1,5.34-1h0l1.24,6.58a2.72,2.72,0,1,1-5.34,1Z"/><path class="cls-136" d="M2255.88,692.65l-1.52-6.45v0a2.73,2.73,0,0,1,5.31-1.26h0l1.53,6.52a2.72,2.72,0,0,1-5.3,1.24Z"/><path class="cls-137" d="M2250.46,671.25l-1.81-6.37v0a2.74,2.74,0,0,1,5.27-1.5h0l1.83,6.45a2.74,2.74,0,0,1-5.27,1.49Z"/><path class="cls-138" d="M2244.1,650.11l-2.1-6.29v0a2.75,2.75,0,1,1,5.22-1.74h0l2.1,6.36a2.74,2.74,0,1,1-5.21,1.73Z"/><path class="cls-139" d="M2236.8,629.26l-2.36-6.19v0a2.76,2.76,0,1,1,5.16-2h0l2.38,6.26a2.76,2.76,0,1,1-5.15,2Z"/><path class="cls-140" d="M2228.62,608.76l-2.63-6.09v0a2.77,2.77,0,1,1,5.09-2.2h0l2.65,6.15a2.77,2.77,0,1,1-5.09,2.19Z"/><path class="cls-141" d="M2219.56,588.61l-2.88-6v0a2.78,2.78,0,1,1,5-2.42h0l2.91,6a2.78,2.78,0,0,1-5,2.41Z"/><path class="cls-142" d="M2209.67,568.87l-3.13-5.85v0a2.8,2.8,0,0,1,4.93-2.64h0l3.15,5.9a2.79,2.79,0,1,1-4.92,2.63Z"/><path class="cls-143" d="M2199,549.54l-3.36-5.71,0,0a2.81,2.81,0,0,1,4.84-2.85h0l3.4,5.78a2.81,2.81,0,0,1-4.84,2.84Z"/><path class="cls-144" d="M2187.5,530.67l-3.59-5.57,0,0a2.82,2.82,0,0,1,4.74-3.06h0l3.62,5.63a2.82,2.82,0,0,1-4.74,3Z"/><path class="cls-145" d="M2175.27,512.27l-3.8-5.42,0,0a2.83,2.83,0,1,1,4.63-3.25h0l3.84,5.48a2.83,2.83,0,1,1-4.63,3.24Z"/><path class="cls-146" d="M2162.33,494.37l-4-5.27,0,0a2.84,2.84,0,0,1,4.52-3.45h0l4,5.32a2.84,2.84,0,1,1-4.52,3.44Z"/><path class="cls-147" d="M2148.7,477l-4.21-5.11,0,0a2.86,2.86,0,0,1,4.4-3.64h0l4.25,5.16a2.85,2.85,0,0,1-4.4,3.63Z"/><path class="cls-148" d="M2134.42,460.13l-4.41-4.94,0,0a2.87,2.87,0,0,1,4.28-3.81h0l4.45,5a2.86,2.86,0,1,1-4.27,3.81Z"/><path class="cls-149" d="M2119.5,443.84l-4.6-4.78,0,0a2.88,2.88,0,1,1,4.15-4h0l4.63,4.83a2.87,2.87,0,0,1-4.14,4Z"/><path class="cls-150" d="M2104,428.11l-4.77-4.6,0,0a2.89,2.89,0,1,1,4-4.16h0L2108,424a2.88,2.88,0,1,1-4,4.14Z"/><path class="cls-151" d="M2087.88,413l-4.93-4.43,0,0a2.9,2.9,0,0,1,3.87-4.31h0l5,4.47a2.9,2.9,0,0,1-3.88,4.31Z"/><path class="cls-152" d="M2071.25,398.42l-5.08-4.25,0,0a2.91,2.91,0,0,1,3.74-4.47h0L2075,394a2.91,2.91,0,0,1-3.74,4.46Z"/><path class="cls-153" d="M2054.13,384.45l-5.24-4.07,0,0a2.92,2.92,0,0,1,3.59-4.61h0l5.28,4.12a2.92,2.92,0,0,1-3.59,4.6Z"/><path class="cls-154" d="M2036.53,371.08l-5.36-3.9,0,0a2.94,2.94,0,0,1,3.45-4.75h0l5.4,3.93a2.93,2.93,0,1,1-3.45,4.74Z"/><path class="cls-155" d="M2018.5,358.28l-5.48-3.72,0,0a2.94,2.94,0,1,1,3.31-4.87h0l5.53,3.76a2.94,2.94,0,0,1-3.3,4.87Z"/><path class="cls-156" d="M2000.07,346.07l-5.6-3.55h0a3,3,0,1,1,3.16-5h0l5.65,3.58a3,3,0,1,1-3.17,5Z"/><path class="cls-157" d="M1981.27,334.44l-5.71-3.37,0,0a3,3,0,0,1,3-5.1h0l5.75,3.41a3,3,0,0,1-3,5.1Z"/><path class="cls-158" d="M1962.11,323.39l-5.81-3.2h0a3,3,0,1,1,2.88-5.22h0l5.85,3.24a3,3,0,1,1-2.87,5.2Z"/><path class="cls-159" d="M1942.64,312.92l-5.9-3h0a3,3,0,0,1,2.73-5.32h0l6,3.06a3,3,0,1,1-2.73,5.31Z"/><path class="cls-160" d="M1922.86,303l-6-2.85h0a3,3,0,1,1,2.58-5.42h0l6,2.89a3,3,0,1,1-2.59,5.4Z"/><path class="cls-161" d="M1902.8,293.7l-6.06-2.68h0a3,3,0,0,1,2.44-5.51h0l6.12,2.71a3,3,0,0,1-2.44,5.5Z"/><path class="cls-162" d="M1882.49,285l-6.14-2.51h0a3,3,0,0,1,2.29-5.6h0l6.19,2.54a3,3,0,0,1-2.3,5.59Z"/><path class="cls-163" d="M1861.94,276.78l-6.21-2.35h0a3,3,0,1,1,2.14-5.68h0l6.25,2.36a3,3,0,0,1-2.15,5.67Z"/><path class="cls-164" d="M1841.17,269.17,1834.9,267h0a3,3,0,1,1,2-5.75h0l6.32,2.19a3,3,0,1,1-2,5.75Z"/><path class="cls-165" d="M1820.2,262.14l-6.32-2h0a3.06,3.06,0,0,1,1.84-5.84h0l6.37,2a3.06,3.06,0,0,1-1.85,5.83Z"/><path class="cls-166" d="M1799.05,255.68l-6.38-1.82h0a3.07,3.07,0,1,1,1.68-5.9h0l6.42,1.85a3.06,3.06,0,0,1-1.69,5.89Z"/><path class="cls-167" d="M1777.73,249.8l-6.43-1.65h0a3.08,3.08,0,1,1,1.53-6h0l6.48,1.67a3.08,3.08,0,1,1-1.54,6Z"/><path class="cls-168" d="M1756.25,244.5l-6.47-1.48h0a3.09,3.09,0,0,1,1.38-6h0l6.52,1.5a3.09,3.09,0,1,1-1.39,6Z"/><path class="cls-169" d="M1734.64,239.77l-6.5-1.3h0a3.1,3.1,0,0,1,1.22-6.08h0l6.55,1.32a3.1,3.1,0,1,1-1.22,6.07Z"/><path class="cls-170" d="M1712.92,235.63l-6.54-1.13h0a3.11,3.11,0,1,1,1.06-6.13h0l6.58,1.14a3.11,3.11,0,1,1-1.06,6.13Z"/><path class="cls-171" d="M1691.09,232.07l-6.57-.95h0a3.13,3.13,0,0,1,.9-6.19h0l6.62,1a3.12,3.12,0,1,1-.9,6.17Z"/><path class="cls-172" d="M1669.17,229.11l-6-.71h0a3.14,3.14,0,1,1,.74-6.23h0l6,.71a3.14,3.14,0,0,1-.74,6.23Z"/><polygon class="cls-6" points="1633.42 186.79 1636.42 226.56 1608.2 211.5 1633.42 186.79"/><path class="cls-4" d="M1452.86,177.47l114.52,86.09a10.08,10.08,0,0,0,14.35-2.31L1663.84,143a4,4,0,0,0-4.1-6.28Z"/><polygon class="cls-6" points="1633.41 186.79 1452.86 177.47 1620.22 205.92 1621.52 216.91 1633.41 186.79"/><polygon class="cls-6" points="1612.31 217.19 1636.42 226.56 1620.22 205.92 1612.31 217.19"/></g></svg>