<svg xmlns="http://www.w3.org/2000/svg" xmlns:xlink="http://www.w3.org/1999/xlink" viewBox="0 0 757.63 722.21"><defs><style>.cls-1{fill:url(#linear-gradient);}.cls-2{fill:url(#linear-gradient-2);}.cls-3{fill:url(#linear-gradient-3);}.cls-4{fill:url(#linear-gradient-4);}.cls-5{fill:url(#linear-gradient-5);}.cls-6{fill:url(#linear-gradient-6);}.cls-7{fill:#ffc758;}.cls-8{fill:url(#linear-gradient-7);}.cls-9{fill:#e27923;}.cls-10{fill:url(#linear-gradient-8);}.cls-11{fill:url(#linear-gradient-9);}.cls-12{fill:url(#linear-gradient-10);}.cls-13{fill:url(#linear-gradient-11);}.cls-14{fill:url(#linear-gradient-12);}.cls-15{fill:url(#linear-gradient-13);}.cls-16{opacity:0.43;fill:url(#linear-gradient-14);}.cls-17{fill:url(#linear-gradient-15);}.cls-18{fill:url(#linear-gradient-16);}.cls-19{fill:url(#linear-gradient-17);}.cls-20{fill:url(#linear-gradient-18);}.cls-21{fill:url(#linear-gradient-19);}.cls-22{fill:url(#linear-gradient-20);}.cls-23{fill:url(#linear-gradient-21);}.cls-24{fill:url(#linear-gradient-22);}.cls-25{fill:url(#linear-gradient-23);}</style><linearGradient id="linear-gradient" x1="1291.69" y1="718.54" x2="1367.41" y2="718.54" gradientTransform="translate(-1140.73)" gradientUnits="userSpaceOnUse"><stop offset="0" stop-color="#4042e2"/><stop offset="1" stop-color="#4f52ff"/></linearGradient><linearGradient id="linear-gradient-2" x1="1291.69" y1="703.7" x2="1365.27" y2="703.7" gradientTransform="translate(-1140.73)" gradientUnits="userSpaceOnUse"><stop offset="0" stop-color="#09005d"/><stop offset="1" stop-color="#1a0f91"/></linearGradient><linearGradient id="linear-gradient-3" x1="1298.68" y1="682.98" x2="1320.01" y2="682.98" gradientTransform="translate(-1140.73)" gradientUnits="userSpaceOnUse"><stop offset="0" stop-color="#ff928e"/><stop offset="1" stop-color="#feb3b1"/></linearGradient><linearGradient id="linear-gradient-4" x1="1140.73" y1="716.91" x2="1169.75" y2="716.91" xlink:href="#linear-gradient"/><linearGradient id="linear-gradient-5" x1="1140.94" y1="694.57" x2="1183.54" y2="694.57" xlink:href="#linear-gradient-2"/><linearGradient id="linear-gradient-6" x1="1163.08" y1="665.2" x2="1188.57" y2="665.2" xlink:href="#linear-gradient-3"/><linearGradient id="linear-gradient-7" x1="1483.64" y1="133.09" x2="899.29" y2="641.33" xlink:href="#linear-gradient"/><linearGradient id="linear-gradient-8" x1="1279.87" y1="293.65" x2="1189.12" y2="374" xlink:href="#linear-gradient-3"/><linearGradient id="linear-gradient-9" x1="1434.93" y1="79.23" x2="853.21" y2="585.18" xlink:href="#linear-gradient"/><linearGradient id="linear-gradient-10" x1="1526.37" y1="184.37" x2="944.65" y2="690.32" xlink:href="#linear-gradient"/><linearGradient id="linear-gradient-11" x1="1449.97" y1="301.25" x2="1521.43" y2="301.25" xlink:href="#linear-gradient-3"/><linearGradient id="linear-gradient-12" x1="259.43" y1="108.51" x2="214.1" y2="205.84" gradientTransform="matrix(1, 0, 0, 1, 0, 0)" xlink:href="#linear-gradient-3"/><linearGradient id="linear-gradient-13" x1="1181.88" y1="353.6" x2="1556.1" y2="353.6" gradientTransform="translate(-1140.73)" gradientUnits="userSpaceOnUse"><stop offset="0" stop-color="#020039"/><stop offset="1" stop-color="#090056"/></linearGradient><linearGradient id="linear-gradient-14" x1="1535.5" y1="187.66" x2="1879" y2="187.66" gradientTransform="translate(-1140.73)" gradientUnits="userSpaceOnUse"><stop offset="0" stop-color="#dae3fe"/><stop offset="1" stop-color="#e9effd"/></linearGradient><linearGradient id="linear-gradient-15" x1="1516.14" y1="187.66" x2="1898.36" y2="187.66" xlink:href="#linear-gradient-13"/><linearGradient id="linear-gradient-16" x1="387.53" y1="111.26" x2="663.32" y2="111.26" gradientTransform="matrix(1, 0, 0, 1, 0, 0)" xlink:href="#linear-gradient-14"/><linearGradient id="linear-gradient-17" x1="1094.67" y1="1833.95" x2="1028.98" y2="1920.85" gradientTransform="translate(-1026.39 -1635.34) rotate(-8.21)" xlink:href="#linear-gradient-3"/><linearGradient id="linear-gradient-18" x1="223.19" y1="102.63" x2="451.11" y2="131.45" gradientTransform="matrix(1, 0, 0, 1, 0, 0)" xlink:href="#linear-gradient-2"/><linearGradient id="linear-gradient-19" x1="953.74" y1="1961.92" x2="1006.43" y2="1907.87" gradientTransform="translate(-1026.39 -1635.34) rotate(-8.21)" xlink:href="#linear-gradient-3"/><linearGradient id="linear-gradient-20" x1="1315.7" y1="334.11" x2="1224.96" y2="414.47" xlink:href="#linear-gradient-3"/><linearGradient id="linear-gradient-21" x1="401.53" y1="224.61" x2="378.86" y2="327.95" gradientTransform="matrix(1, 0, 0, 1, 0, 0)" xlink:href="#linear-gradient-3"/><linearGradient id="linear-gradient-22" x1="48.16" y1="408.69" x2="105.08" y2="408.69" gradientTransform="matrix(1, 0, 0, 1, 0, 0)" xlink:href="#linear-gradient-14"/><linearGradient id="linear-gradient-23" x1="115.5" y1="376.38" x2="123.37" y2="376.38" gradientTransform="matrix(1, 0, 0, 1, 0, 0)" xlink:href="#linear-gradient-14"/></defs><g id="Layer_2" data-name="Layer 2"><g id="Illustration"><path class="cls-1" d="M224.54,714.88c-13,1.12-35.49,2.94-53.23,3.72-10.67.47-16.82-.57-20.35-2,0,.4,0,.78,0,1.13a3.67,3.67,0,0,0,3.49,3.47,626,626,0,0,0,69.7.07,2.62,2.62,0,0,0,2.13-3.93A20.88,20.88,0,0,0,224.54,714.88Z"/><path class="cls-2" d="M171.31,718.6c17.74-.78,40.26-2.6,53.23-3.72-12.75-15.65-53.23-26.19-53.23-26.19H159.87A47.9,47.9,0,0,0,151,716.61C154.49,718,160.64,719.07,171.31,718.6Z"/><path class="cls-3" d="M158,670,159,691.19a4.83,4.83,0,0,0,4.12,4.55,18.76,18.76,0,0,0,8.59-.71,5.72,5.72,0,0,0,3.85-4.4l3.7-20.61Z"/><path class="cls-4" d="M9.45,718.45c-5.63-.79-8.17-3.71-9.24-6.84l0,.09C-.64,715,1.28,718.41,5.12,720a32.09,32.09,0,0,0,13.64,2.14c4.22-.17,8.1-1.92,10.23-4.72l0,0C24.78,719.51,18.83,719.75,9.45,718.45Z"/><path class="cls-5" d="M36,669.89H26.54c-14.36-.3-23.38,30-26.33,41.72,1.07,3.13,3.61,6,9.24,6.84,9.38,1.3,15.33,1.06,19.57-1,7.76-10.21,11.6-25.16,13.45-33.89A11.89,11.89,0,0,0,36,669.89Z"/><path class="cls-6" d="M27.76,650.24l-5.24,20.82a5.65,5.65,0,0,0,2.94,6.4c2.93,1.51,7,3.09,10.84,2.63a4.73,4.73,0,0,0,3.85-3.15L47.84,655Z"/><path class="cls-7" d="M21.51,656.25c6.51,5.78,27.7,6.55,27.7,6.55,76.32-183.18,107.54-209.2,107.54-209.2-11,69.14-1.78,222.2-1.78,222.2,12.6,5.56,28.83,0,28.83,0a1179.73,1179.73,0,0,1,39-289.72c-51.59-1.16-79-18.81-88-25.89C91.81,429.51,21.51,656.25,21.51,656.25Z"/><path class="cls-8" d="M147.91,149.54c-9.77,48.7-6.27,135.86-4,175.62.65,11.17-7.15,26.66-13.46,37.23a3.32,3.32,0,0,0,1.34,4.67c10.55,5.42,46.32,22.24,87.77,24.33a5.9,5.9,0,0,0,5.94-4.42C256.28,272.17,292,198.82,292,198.82,252.56,135.86,147.91,149.54,147.91,149.54Z"/><path class="cls-9" d="M162,449.26a2.41,2.41,0,0,1-1.27-.35,2.45,2.45,0,0,1-.82-3.36,76.62,76.62,0,0,1,30.26-26.27,2.44,2.44,0,1,1,2.13,4.4,73.07,73.07,0,0,0-28.21,24.41A2.44,2.44,0,0,1,162,449.26Z"/><path class="cls-10" d="M86.67,289.3C89.8,312,99.07,336.74,117.6,363l7.05-5.74s-8.14-33-3.51-70.46C109.7,284.59,96.2,286.89,86.67,289.3Z"/><path class="cls-11" d="M158.81,209.63l-10.9-60.09S75,205.23,86.67,289.3c9.53-2.41,23-4.71,34.47-2.48C124.47,259.84,134.42,230.55,158.81,209.63Z"/><path class="cls-12" d="M292,198.82l-28.13,60.57c4.55,36.56,24.2,52.38,45.38,58.44a128.45,128.45,0,0,1,9.44-39.44C291.62,250.44,292,198.82,292,198.82Z"/><path class="cls-13" d="M318.68,278.39a128.45,128.45,0,0,0-9.44,39.44c56.51,21.93,71.46-20.6,71.46-20.6l-10.44-1.84C346.67,297.88,330.2,290.27,318.68,278.39Z"/><path class="cls-14" d="M266.08,124,252.5,174a9.71,9.71,0,0,1-13,6.46,196.43,196.43,0,0,1-19.57-8.94,13.08,13.08,0,0,1-4.61-18.8l28.23-42.09Z"/><path class="cls-15" d="M406.6,263.83,58.68,390.46a26.65,26.65,0,0,0-15.14,36.06l1.06,2.32a24.76,24.76,0,0,0,32.94,12.23L415.36,284.79Z"/><ellipse class="cls-16" cx="566.52" cy="187.66" rx="171.75" ry="168.65"/><path class="cls-17" d="M566.52,0C461,0,375.41,84,375.41,187.66S461,375.33,566.52,375.33s191.11-84,191.11-187.67S672.07,0,566.52,0Zm0,347.76c-90,0-163-71.68-163-160.1s73-160.09,163-160.09,163,71.67,163,160.09S656.56,347.76,566.52,347.76Z"/><path class="cls-18" d="M389.94,210.85a1.23,1.23,0,0,1-1.22-1.07c-.56-4.43-1-9-1.19-13.45a1.23,1.23,0,0,1,1.17-1.28,1.19,1.19,0,0,1,1.28,1.16c.22,4.43.62,8.89,1.18,13.26a1.23,1.23,0,0,1-1.07,1.37Zm1.31-52.47-.22,0a1.23,1.23,0,0,1-1-1.42,172.14,172.14,0,0,1,10.31-35.28h0c27.54-66.81,92.77-110,166.17-110a181,181,0,0,1,96.22,27.5,1.23,1.23,0,1,1-1.3,2.08,178.6,178.6,0,0,0-94.92-27.12c-72.41,0-136.74,42.57-163.91,108.47a170.65,170.65,0,0,0-10.15,34.77A1.24,1.24,0,0,1,391.25,158.38Z"/><path class="cls-19" d="M295.78,86.11c.13.86-11.32,57-11.32,57l-31.9-7.21,2.95-54.79S293.71,71.76,295.78,86.11Z"/><path class="cls-20" d="M262.69,93.28,258.88,122a4.05,4.05,0,0,0,0,1.1c.32,2.25,2,9.91,9.73,7.72,7-2,13.46-3.7,17.9-2.34a4.05,4.05,0,0,1,2.79,4.68A175.7,175.7,0,0,1,282,159.3a4,4,0,0,1-4.9,2.39c-6.05-1.77-18.71-5.84-28.12-11.51a4.06,4.06,0,0,1-2-3.64c.3-7.25,1.15-29.29.44-35.47-.67-5.79-7.79-9.27-10.88-10.51a4,4,0,0,1-2.21-2.22c-1.43-3.59-3.41-11.9,7.05-15.3a4.05,4.05,0,0,0,2.57-5.24c-1.55-4.31-2.2-10.9,5.89-14.52s14.37.7,17.69,4.26a4.05,4.05,0,0,0,5.16.61,3.19,3.19,0,0,1,3.64.12A4,4,0,0,0,282,66.56c2-4,6-8.37,14-7C310.3,62,311.92,77.85,308.15,87.13S289,92.88,281.33,88.2c-5.85-3.56-13.44.17-16.74,2.16A4,4,0,0,0,262.69,93.28Z"/><path class="cls-21" d="M246.13,121.55s5.87-16.46-.17-20.49-15-1.94-13,10C235.4,125.87,246.13,121.55,246.13,121.55Z"/><path class="cls-22" d="M121.74,356.28l32.89-2.68,14.25,13.13s-3.37,4.66-13.91,2-25-3.34-25-3.34-14.55,6.56-14.73-5.71Z"/><path class="cls-23" d="M376.51,305c2.85,2.23,12.59-2.41,18.55-5.62a6.86,6.86,0,0,0,3.32-8.11c-1.43-4.52-3.83-10.36-6.77-11.1C386.72,279,364.79,295.86,376.51,305Z"/><path class="cls-24" d="M65.55,436.14a1.39,1.39,0,0,1-.4-.06c-13.57-4.69-16.72-12.7-17-18.59A20.63,20.63,0,0,1,61.64,397.6l41.77-16.29a1.23,1.23,0,0,1,.89,2.29L62.53,399.89a18.17,18.17,0,0,0-11.9,17.5c.32,7.46,5.48,13,15.32,16.37a1.22,1.22,0,0,1-.4,2.38Z"/><path class="cls-25" d="M116.73,378.66a1.21,1.21,0,0,1-1.14-.78,1.22,1.22,0,0,1,.69-1.59l5.42-2.11a1.23,1.23,0,0,1,.89,2.29l-5.42,2.11A1.11,1.11,0,0,1,116.73,378.66Z"/></g></g></svg>