<svg xmlns="http://www.w3.org/2000/svg" viewBox="0 0 500.5 424.65"><defs><style>.cls-1,.cls-9{fill:#2263f5;}.cls-2,.cls-4,.cls-6{fill:#fff;}.cls-2{opacity:0.7;isolation:isolate;}.cls-3,.cls-8{fill:#263238;}.cls-11,.cls-12,.cls-4,.cls-5,.cls-7,.cls-8,.cls-9{stroke:#263238;}.cls-10,.cls-11,.cls-12,.cls-4,.cls-5,.cls-7,.cls-8,.cls-9{stroke-linecap:round;stroke-linejoin:round;}.cls-10,.cls-11,.cls-12,.cls-5,.cls-7{fill:none;}.cls-5{stroke-width:0.72px;}.cls-10{stroke:#787878;}</style></defs><g id="Layer_2" data-name="Layer 2"><g id="Layer_1-2" data-name="Layer 1"><g id="freepik--background-simple--inject-15"><path class="cls-1" d="M93.81,396.88s55.17,33,122.11,5.73S307.66,316.1,344.13,272.7C363.24,250,393,238.45,416.26,219.76c74.38-59.73,55.38-168.2-7.44-201.42C354.43-10.42,289.3-5.22,206.75,33S64.77,95.51,17.61,178.69,25.57,351.16,93.81,396.88Z"/><path class="cls-2" d="M93.81,396.88s55.17,33,122.11,5.73S307.66,316.1,344.13,272.7C363.24,250,393,238.45,416.26,219.76c74.38-59.73,55.38-168.2-7.44-201.42C354.43-10.42,289.3-5.22,206.75,33S64.77,95.51,17.61,178.69,25.57,351.16,93.81,396.88Z"/></g><g id="freepik--Plants--inject-15"><path class="cls-3" d="M467,305.51c-4-.73-9.16,4.44-10.86,7.63-.12.22-1.33,3.26-1.75,4.41v-.11a63.16,63.16,0,0,0-.62-11.16,84.64,84.64,0,0,0-2-9.73c-.74-3-1.61-5.67-2.4-8-.44-1.24-.86-2.48-1.24-3.52h.07c.08,0,.36-4.89.34-5.2-.2-3.61-2.72-10.46-6.64-11.49a4.81,4.81,0,0,0-5.75,3.6c0,.17-.06.33-.08.5-.45,2.83,1.41,5.82,3.28,7.76s7.24,4.18,8.56,4.71c.39,1.12.81,2.35,1.23,3.72.74,2.38,1.54,5.07,2.22,8.06q.3,1.26.57,2.61c-.58-1.36-1.46-3.28-1.56-3.45-1.85-3.11-7.24-8.05-11.16-7.14a4.79,4.79,0,0,0-3.44,5.82c.05.17.1.34.16.5.9,2.72,3.93,4.51,6.5,5.37s8.51.37,9.81.23c.35,1.85.67,3.72.9,5.78a62.84,62.84,0,0,1,.37,11V318c-.18-.69-1.43-4.58-1.55-4.85-1.49-3.29-6.31-8.78-10.34-8.33a4.81,4.81,0,0,0-4.07,5.43c0,.17.06.34.1.51.61,2.79,3.42,5,5.88,6,2.81,1.3,9.64,1.31,9.92,1.31A86.17,86.17,0,0,1,451.86,329c-.56,2.65-1.24,5.32-1.92,8-.25-.9-1.41-4.51-1.52-4.76-1.49-3.3-6.31-8.79-10.34-8.33a4.79,4.79,0,0,0-4.07,5.43,4.59,4.59,0,0,0,.1.51c.61,2.79,3.42,5,5.88,6.05,2.69,1.24,9.06,1.3,9.91,1.31-.31,1.24-.63,2.41-1,3.62-1.07,4-2.16,7.9-3.11,11.83-.34,1.35-.64,2.69-.91,4-.42-1.39-1.24-3.82-1.24-4-1.5-3.3-6.32-8.79-10.35-8.32a4.77,4.77,0,0,0-4,5.39,2.74,2.74,0,0,0,0,.28c-3.4,1.08-5.89,6.77-6.28,9.92v1.73c-.24-1.24-.47-2.55-.67-3.85-.54-3.61-1-7.29-1.45-11l-.29-2.32c1.31-.42,6.13-2.07,8-3.72s3.72-4.24,3.46-6.83a4.38,4.38,0,0,0-4.6-4.12l-.45.05c-3.62.7-6.31,6.76-6.72,10v1.86q-.4-3-.94-5.94a76.32,76.32,0,0,0-2.48-10c.77-.24,6.2-2,8.22-3.81s3.72-4.25,3.46-6.84a4.35,4.35,0,0,0-4.56-4.11l-.49.05c-3.62.69-6.31,6.75-6.72,10,0,.23-.06,3.2,0,4.31v-.1a58.73,58.73,0,0,0-4.45-9.21,76.42,76.42,0,0,0-4.84-7.61c-1.62-2.28-3.23-4.28-4.67-6-.78-.93-1.52-1.79-2.21-2.57h.07c.06,0-1.3-4.25-1.41-4.51-1.35-3-5.73-8-9.39-7.58a4.36,4.36,0,0,0-3.7,4.92l.09.46c.55,2.54,3.1,4.48,5.34,5.51s7.43,1.18,8.77,1.24c.71.82,1.47,1.72,2.26,2.71,1.4,1.79,3,3.8,4.51,6.11.45.65.89,1.33,1.34,2-.94-.95-2.31-2.29-2.48-2.4-2.58-2-8.76-4.45-11.81-2.4a4.34,4.34,0,0,0-1,6,3,3,0,0,0,.31.39c1.66,2,4.82,2.54,7.26,2.48s7.34-2.48,8.39-3c.92,1.45,1.81,3,2.66,4.59a56.61,56.61,0,0,1,3.9,9.18c.06.2.11.4.17.59-.37-.53-2.71-3.43-2.9-3.6-2.34-2.31-8.22-5.38-11.48-3.72a4.36,4.36,0,0,0-1.66,5.94,3,3,0,0,0,.24.38c1.42,2.17,4.5,3.05,6.95,3.21,2.82.19,8.61-2,8.88-2.14a76.34,76.34,0,0,1,2.16,9.7c.39,2.48.7,5,1,7.44-.5-.69-2.67-3.37-2.84-3.55-2.35-2.3-8.22-5.38-11.48-3.71a4.37,4.37,0,0,0-1.43,6.32c1.43,2.16,4.5,3.05,7,3.2,2.67.17,8.1-1.85,8.81-2.12.12,1.13.25,2.25.36,3.38.38,3.72.76,7.44,1.24,11,.16,1.24.35,2.48.54,3.72-.8-1-2.26-2.83-2.41-3-2.35-2.31-8.22-5.38-11.48-3.72a4.36,4.36,0,0,0-1.67,5.94l.24.38c1.43,2.17,4.5,3.05,7,3.2s7.15-1.5,8.51-2c.35,2.07.76,4.11,1.24,6.09.24.86.41,1.75.67,2.55l.75,2.48c.57,1.64,1.09,3.17,1.65,4.69.27.72.53,1.44.8,2.15-.67-1.17-1.69-2.92-1.8-3.07-2-2.64-7.31-6.57-10.79-5.38a4.36,4.36,0,0,0-2.55,5.62,3.79,3.79,0,0,0,.18.42c1.09,2.36,4,3.72,6.38,4.23s8.09-.56,9-.76c.71,1.82,1.4,3.57,2.08,5.21s1.48,3.47,2.17,5h-6v3.93h1.42l2.33,27.56h18.6l2.32-27.56h1.08v-3.93h-5.29c-.14-2-.28-4.1-.39-6.39-.09-1.77-.15-3.63-.2-5.55,1-.09,7.16-.71,9.69-2.16,2.35-1.34,5-3.72,5.33-6.53a4.8,4.8,0,0,0-4-5.51,4.43,4.43,0,0,0-.51-.06c-4.05-.11-8.38,5.78-9.58,9.19-.09.22-.72,3-1,4.33v-8.92c0-.93.08-1.86.13-2.8s.18-1.85.25-2.79c.15-1.37.35-2.79.57-4.2,1.8.09,7,.25,9.44-.68s5.46-2.92,6.19-5.66a4.79,4.79,0,0,0-3-6.05,3.41,3.41,0,0,0-.55-.14c-4-.74-9.15,4.42-10.86,7.62-.06.1-.37.87-.72,1.76.27-1.4.54-2.81.85-4.21.87-3.92,1.87-7.89,2.85-11.86.21-.83.41-1.66.62-2.48,1.51.09,7.11.3,9.66-.68s5.46-2.9,6.19-5.65a4.79,4.79,0,0,0-3.05-6.06,4.42,4.42,0,0,0-.52-.14c-4-.72-9.16,4.44-10.86,7.64-.06.11-.4.94-.78,1.89.51-2.15,1-4.32,1.38-6.48A86.63,86.63,0,0,0,454.21,318c.88.06,7.19.4,9.91-.66,2.48-1,5.46-2.9,6.2-5.65a4.78,4.78,0,0,0-3-6.08Zm-33.29,86.25-2.7-5.88c-.66-1.47-1.31-3-2-4.63a41,41,0,0,0,6.2-3.8,45.1,45.1,0,0,0,7.52,1.84c0,2.14,0,4.21.09,6.2.06,2.25.15,4.35.25,6.29Zm9.8-27.4c-.1,1-.28,1.95-.31,2.89s-.14,1.86-.21,2.79c0,1.91-.14,3.72-.15,5.47V378c-.21-1.47-.57-3.72-.63-3.86-1-3.48-5-9.64-9-9.79a4.79,4.79,0,0,0-4.84,4.75,4.1,4.1,0,0,0,0,.5,6.18,6.18,0,0,0,.57,2.15,16.27,16.27,0,0,0-.76,4.85c0,.22.36,2.73.57,4-.39-1-.8-2-1.24-3-.58-1.47-1.15-3-1.72-4.55-.26-.8-.52-1.6-.79-2.48s-.46-1.63-.7-2.48c-.32-1.24-.62-2.48-.89-3.72,1.55-.52,6-2.08,7.76-3.72a11.15,11.15,0,0,0,3.24-4.81l.64.33c2.48,1.13,7.95,1.24,9.55,1.31q-.69,3.57-1.14,6.88Z"/><path class="cls-3" d="M462.18,296.71c2.17-1.6,4.5-4.25,4.53-7.1a4.8,4.8,0,0,0-4.56-5h-.51c-4,.36-7.66,6.7-8.46,10.22-.08.31-.61,5.2-.54,5.19S459.62,298.63,462.18,296.71Z"/><path class="cls-3" d="M409.35,311.12s5.45-3.47,7-5.9c1.31-2.07,2.48-5.07,1.52-7.5a4.35,4.35,0,0,0-5.5-2.77l-.44.17c-3.31,1.62-4.3,8.19-3.83,11.43C408.15,306.83,409.29,311.15,409.35,311.12Z"/></g><g id="freepik--Board--inject-15"><rect class="cls-4" x="206.92" y="75.19" width="258.66" height="155.92"/><rect class="cls-4" x="206.92" y="226.32" width="258.66" height="4.79"/><path class="cls-5" d="M423.87,180.86c.09.15,2-1.36,2.11-1.24.2.35-8,7.14-7.78,7.44.44.77,15.92-10.15,16.34-9.43s-18.69,12.58-18.19,13.45c.64,1.1,22.11-14,22.63-13.07s-23.86,14.38-23.3,15.35,25-15.82,25.62-14.79-26.64,15.41-26,16.55,27-17.05,27.65-16S414.49,198,415.09,199c.82,1.42,30.62-19.36,31.34-18.1s-32,17.79-31.27,19,31.22-19.84,32-18.49c.68,1.17-32.71,18.5-31.9,19.9s32.23-20.5,33.06-19.09-33,21.15-32.34,22.31c.84,1.45,34-21.49,34.78-20.08s-34.92,20.58-34,22.14,34.5-22.1,35.45-20.47c.78,1.37-36,19.71-35.24,21,.87,1.5,34.71-22,35.59-20.54s-36.13,19.83-35.31,21.23c1,1.64,34.85-22.06,35.69-20.6.73,1.24-36.13,19.93-35.34,21.3s34.95-22.06,35.76-20.64-34.95,21.78-34.05,23.35c.78,1.35,34.64-22.06,35.54-20.51S419.59,211,420.4,212.42s34.31-21.6,35.09-20.25-35,19.91-34.31,21.17c.91,1.56,33.88-21.35,34.65-20s-33,20.79-32.23,22.18,32-20.55,32.9-19c.72,1.24-33.53,17.7-32.7,19.13s31.94-20.11,32.76-18.67-33.36,17.7-32.63,19,31.81-20.27,32.64-18.84c.71,1.24-30.07,19.58-29.35,20.83s28.67-18.36,29.45-17c.59,1-27.37,17-26.71,18.14s25.75-16.23,26.33-15.21-26.48,14.32-25.87,15.37,25.06-16.12,25.77-14.88c.59,1-21.25,15-20.77,15.8s18.6-11.94,19.1-11c.37.64-14.25,10.17-13.9,10.78s10.68-6.9,11-6.34c.15.24-6.71,4.73-6.54,5s3.19-2.12,3.31-1.91-2.57,1.49-2.48,1.58,2-1.38,2.1-1.24"/><path class="cls-6" d="M432.66,207.25a4.31,4.31,0,0,0,1.74-.76,4.38,4.38,0,0,0,1.07-1.24,4.45,4.45,0,0,0,.69-2.48,4.16,4.16,0,0,0-.6-2.25,3.45,3.45,0,0,0-1.77-1.35,3.41,3.41,0,0,0,1.16-.87,3.29,3.29,0,0,0,.72-2.25,3.88,3.88,0,0,0-.7-2.33,4.71,4.71,0,0,0-4-1.63h-7.44v15.29h6.89A10.9,10.9,0,0,0,432.66,207.25Zm-6-12.39H430a5.81,5.81,0,0,1,1.81.23,1.39,1.39,0,0,1,.83,1.42,1.43,1.43,0,0,1-.63,1.34,3,3,0,0,1-1.61.38h-3.72Zm0,10V200.7h3.72a3.75,3.75,0,0,1,1.52.26,1.64,1.64,0,0,1,1,1.63,1.9,1.9,0,0,1-1,1.91,3.54,3.54,0,0,1-1.54.28Z"/><path class="cls-6" d="M438.75,206.45a6.24,6.24,0,0,0,4,1.39,5.49,5.49,0,0,0,4.25-1.65,3.76,3.76,0,0,0,1.1-2.05h-3a2.3,2.3,0,0,1-2.25,1.3,2.93,2.93,0,0,1-1.63-.42,2.7,2.7,0,0,1-1.18-2.39h8.23a14,14,0,0,0-.09-2.24,6,6,0,0,0-.9-2.35,4.66,4.66,0,0,0-2-1.66,6.22,6.22,0,0,0-2.65-.53,5.48,5.48,0,0,0-4.06,1.56,6.21,6.21,0,0,0-1.55,4.53A5.48,5.48,0,0,0,438.75,206.45Zm2.1-7.51a2.35,2.35,0,0,1,1.78-.65,2.57,2.57,0,0,1,1.74.61,2.48,2.48,0,0,1,.8,1.78h-5.1a3,3,0,0,1,.8-1.74Z"/><rect class="cls-6" x="439.11" y="193.05" width="6.64" height="1.55"/><path class="cls-5" d="M419,86.64c.08.17,2-1.36,2.09-1.23.2.35-8.34,7.68-8.11,8.08.4.68,17-10.81,17.36-10.06s-18.24,10.18-17.83,10.9S430.8,82.7,431.26,83.5s-20.1,12.1-19.66,12.85c.59,1,21.38-13.5,21.88-12.63s-23.67,16.12-23.09,17.12,26.82-17.18,27.55-15.91c.58,1-28.35,16.12-27.67,17.27s28.2-18,29-16.71c.63,1.09-29.63,18.36-29,19.42s30.68-19.38,31.4-18.13-32.05,17.78-31.33,19,31.23-20,32.07-18.52-32.65,18.36-32,19.52c.79,1.38,32.09-20.24,32.82-19S409.61,106,410.39,107.37s32.44-20.53,33.23-19.18-34,18-33.15,19.53,32.63-20.58,33.38-19.28S410,107.69,410.8,109.06,444.14,88,444.91,89.36s-34.8,18.66-34,20c.94,1.63,33.47-21.07,34.26-19.77s-34.54,20.31-33.78,21.62c.88,1.54,34.17-21.78,35.06-20.24.77,1.32-34.78,21.47-33.92,22.94s34.86-22.09,35.7-20.61S413.27,115.17,414,116.46s34.79-22.13,35.68-20.59-36.41,19.29-35.53,20.81S449,94.74,449.79,96.12s-35.42,20.51-34.71,21.77c.84,1.46,34.48-21.77,35.28-20.37s-35,20.27-34.13,21.72,33.9-21.43,34.72-20S416.23,118.57,417.06,120s33.27-21.26,34.16-19.72-32.36,20.39-31.53,21.83,31.34-19.71,32-18.5-30.25,18.76-29.55,20,28.88-18.38,29.61-17.14-29.59,16.3-29,17.42,28.22-17.89,28.9-16.69-27.27,16.51-26.67,17.57c.73,1.24,25.61-16.44,26.33-15.2.6,1-23.64,15.12-23.12,16s21.62-13.88,22.22-12.83c.45.75-21.19,12.11-20.64,13s19.54-12.51,20.07-11.59c.38.67-15.58,10.79-15.18,11.51s12.4-7.89,12.71-7.34c.16.28-6.74,5.35-6.59,5.62s2.19-1.46,2.28-1.31a24.43,24.43,0,0,1-2.16,1.23c.05.07,2-1.38,2.1-1.23"/><path class="cls-6" d="M427.56,118h5.32V104.63h3.72l.4-4.46h-4.12V97.69c0-1,.21-1.46,1.24-1.46H437V91.6h-3.72c-4,0-5.75,1.74-5.75,5.09v3.54h-2.79v4.51h2.76Z"/><path class="cls-5" d="M358.22,123.2c.08.15,2-1.37,2.1-1.24s-6.73,5.42-6.57,5.69c.36.62,12.61-8.07,13-7.43s-15.47,10.41-15.1,11.05,18.79-12.08,19.33-11.15-21.46,14.5-20.88,15.51,24.79-15.77,25.45-14.7-26.67,17.52-26,18.6,29-18.31,29.75-17.14-30.36,16.47-29.75,17.54c.8,1.39,29.27-18.78,30.08-17.36.64,1.1-30.82,17-30.12,18.25.8,1.4,30.07-19.3,30.92-17.84.7,1.24-31.34,19.74-30.67,20.88.78,1.36,32.45-20.38,33.16-19.14S349.72,146,350.48,147.39s34-21.66,34.92-20.16c.72,1.24-35.24,20-34.4,21.51,1,1.67,34.56-21.77,35.34-20.4s-35.95,19.47-35.07,21.07,34.62-22.1,35.52-20.52c.74,1.24-36.12,19.64-35.26,21.08s34.84-22,35.63-20.57-35.89,20.31-35.09,21.7C353,152.7,387,129,387.82,130.46s-36.4,19.41-35.55,20.92,34.88-22.15,35.76-20.64-34.71,22.08-33.91,23.41,34.59-21.79,35.37-20.42c.91,1.56-35.49,19.83-34.61,21.3s34.19-21.76,35.06-20.25c.74,1.24-34.35,20.4-33.47,21.92s33.13-21.26,34-19.67c.8,1.37-34,19-33.26,20.36S389.94,136.6,390.73,138s-33.06,19-32.23,20.32,31.65-20.13,32.46-18.74c.62,1.09-30,19.45-29.38,20.59s28.64-18.44,29.45-17-29.27,16.25-28.51,17.46S390.36,143.06,391,144.2s-26.48,16.34-25.79,17.45,24.59-15.77,25.27-14.58c.57,1-25.5,13.63-24.89,14.69s24.27-15.28,24.79-14.33S365.93,161,366.48,162s23-14.66,23.56-13.64c.47.81-22.74,13-22.19,13.91s21.07-13.64,21.72-12.53c.46.79-16.85,11.9-16.42,12.65s13.58-8.67,13.94-8c.2.34-8.16,6.32-8,6.64s3.58-2.38,3.72-2.14-3.57,1.89-3.49,2,3.23-2.15,3.36-1.93-2.6,1.5-2.55,1.6,2-1.38,2.1-1.24"/><path class="cls-6" d="M358.64,148.63a13.57,13.57,0,0,0,20.89-12,9.85,9.85,0,0,0,2.38-2.48,9.39,9.39,0,0,1-2.74.76,4.76,4.76,0,0,0,2.09-2.64,9.63,9.63,0,0,1-3,1.15,4.79,4.79,0,0,0-8.15,4.36,13.52,13.52,0,0,1-9.84-5,4.77,4.77,0,0,0,1.49,6.38,4.71,4.71,0,0,1-2.17-.6,4.79,4.79,0,0,0,3.83,4.75,4.64,4.64,0,0,1-2.16.07,4.77,4.77,0,0,0,4.46,3.33A9.56,9.56,0,0,1,358.64,148.63Z"/><path class="cls-5" d="M299.85,86.37c.09.15,2-1.39,2.1-1.24.23.41-8.4,7.79-8.16,8.2.42.74,17.11-11,17.58-10.16S292.77,94,293.11,94.69s19.2-12.4,19.76-11.42-20.62,11.47-20.16,12.26,20.53-13.21,21.07-12.2S290.88,99.08,291.4,100s26.22-16.69,26.89-15.52-28,18-27.28,19.21,29.85-19,30.63-17.69-31.12,20-30.37,21.26c.88,1.54,32.44-20.73,33.31-19.23s-34,18.19-33.17,19.69S324.16,87,324.88,88.37s-34.34,18-33.47,19.5,32.68-21,33.59-19.4c.72,1.24-33.77,20.77-32.88,22.31s34.09-21.8,35-20.21c.79,1.36-35.46,19.73-34.55,21.29s34.42-22,35.32-20.39c.77,1.32-35.47,20.63-34.58,22.15C294.07,115,328.09,91.42,329,93c.75,1.32-36,20.1-35.21,21.53s34.85-22.23,35.77-20.65c.74,1.32-36.31,19.68-35.58,20.93.93,1.62,34.94-22,35.75-20.64s-34.71,22-34,23.28S330.24,95.51,331.12,97s-34.95,20.45-34.18,21.78c.88,1.53,33.87-21.69,34.8-20.08.78,1.35-35.47,18.88-34.72,20.16s33.89-21.58,34.72-20.07S297.38,118.49,298.3,120c.73,1.24,33.1-21.07,34-19.6S298.19,119.17,299,120.64c.71,1.24,32.57-20.84,33.48-19.32.7,1.24-34.14,18-33.3,19.45.72,1.24,32.42-20.82,33.33-19.24.72,1.24-32.43,19.18-31.72,20.42.86,1.49,31.08-19.83,31.89-18.41.64,1.11-31.52,17.93-30.82,19.13.83,1.45,30.16-19.17,30.91-17.86S305,123.29,305.54,124.34s26.17-16.77,26.89-15.52c.61,1.06-26.31,14.88-25.72,15.93.7,1.24,24.79-15.91,25.47-14.71s-23.49,14.3-22.91,15.3,21.59-13.76,22.14-12.79-18.44,12.4-18,13.1,15.81-10.18,16.25-9.39-14.71,8.68-14.36,9.24,13-8.28,13.32-7.7c.2.33-6.85,5.61-6.69,5.89s2-1.38,2.09-1.24"/><rect class="cls-6" x="301.39" y="99.04" width="4.52" height="14.6"/><path class="cls-6" d="M303.63,97.13A2.7,2.7,0,1,0,301,94.41v0a2.69,2.69,0,0,0,2.68,2.7Z"/><path class="cls-6" d="M313.18,106c0-2,.94-3.27,2.75-3.27s2.48,1.17,2.48,3.27v7.67h4.5V104.4c0-3.91-2.22-5.8-5.31-5.8a5.09,5.09,0,0,0-4.4,2.47V99h-4.34v14.61h4.32Z"/><path class="cls-5" d="M312.68,180.73c.1.17,2-1.37,2.1-1.24s-5,3.43-4.85,3.71,8.33-5.38,8.58-4.95-11.69,8.07-11.39,8.59,15.57-10,16-9.25-18.29,12-17.8,12.9,21.33-13.63,21.91-12.64-22.61,12.51-22.14,13.31c.6,1.07,22.31-14.15,22.82-13.17s-23.72,13-23.12,14,23.34-14.87,24-13.83S303.4,195,304,196.12c.78,1.35,28.09-17.76,28.76-16.6s-29.48,16.86-28.85,17.94,29.25-18.69,30-17.35-30.59,18.71-30,19.83,31.34-19.83,32.08-18.52-32.45,20-31.67,21.38c.92,1.6,33.09-21.07,33.94-19.58.74,1.24-34.16,20.42-33.47,21.7s34.18-21.49,34.93-20.18-35.13,20.31-34.31,21.73S340,184.51,340.9,186s-35.41,20.94-34.71,22.2c1,1.7,35-22,35.75-20.64s-35.87,20.4-35.11,21.7c.91,1.56,35-22,35.75-20.64s-35,21.49-34.24,22.91c1,1.67,34.65-21.78,35.42-20.45.91,1.55-34.71,20.71-33.87,22.24s33.72-21.64,34.71-20c.76,1.33-33.75,20.3-33.06,21.5.83,1.45,32.75-20.83,33.58-19.39s-34,18.4-33.22,19.72,32.49-20.66,33.32-19.24c.71,1.24-32.76,18.84-31.94,20.25s31.39-19.73,32.08-18.54-30.37,18.69-29.6,20,29-18.23,29.66-17.12-26.9,17.36-26.24,18.52,25-16.11,25.73-14.87c.61,1-23,14.6-22.46,15.62s21-13.27,21.48-12.4S323,219.11,323.48,219.9s19.54-12.52,20.07-11.59c.32.56-12.93,10.37-12.57,11s8.18-5.25,8.42-4.85c.11.18-5,3.39-4.79,3.6s2-1.39,2.1-1.24"/><path class="cls-6" d="M324.73,189c3.2,0,3.57,0,4.84.07a6.82,6.82,0,0,1,2.23.41,4,4,0,0,1,2.27,2.28,6.71,6.71,0,0,1,.41,2.22c.06,1.24.07,1.65.07,4.85s0,3.57-.07,4.83a6.71,6.71,0,0,1-.41,2.22,4,4,0,0,1-2.3,2.3,6.51,6.51,0,0,1-2.23.4c-1.24.07-1.63.08-4.83.08s-3.59,0-4.85-.08a6.46,6.46,0,0,1-2.22-.4,3.86,3.86,0,0,1-1.38-.91,3.54,3.54,0,0,1-.89-1.38,6.47,6.47,0,0,1-.42-2.21c0-1.24-.06-1.65-.06-4.84s0-3.58.06-4.85a6.48,6.48,0,0,1,.42-2.22,3.57,3.57,0,0,1,.89-1.37,3.86,3.86,0,0,1,1.38-.91,6.71,6.71,0,0,1,2.22-.41c1.24-.06,1.65-.07,4.85-.07m0-2.16c-3.26,0-3.66,0-5,.08a9,9,0,0,0-2.9.55,5.92,5.92,0,0,0-2.12,1.39,5.75,5.75,0,0,0-1.39,2.12,9.27,9.27,0,0,0-.56,2.9v9.92a9.27,9.27,0,0,0,.56,2.9,5.67,5.67,0,0,0,1.39,2.12,5.79,5.79,0,0,0,2.12,1.39,8.73,8.73,0,0,0,2.9.56c1.24.06,1.68.07,5,.07s3.65,0,5-.07a8.79,8.79,0,0,0,2.91-.56,6,6,0,0,0,2.12-1.39,5.62,5.62,0,0,0,1.37-2.12,8.73,8.73,0,0,0,.56-2.9c.06-1.24.08-1.68.08-5s0-3.72-.08-5a8.73,8.73,0,0,0-.56-2.9,5.7,5.7,0,0,0-1.37-2.12,6,6,0,0,0-2.12-1.39,9,9,0,0,0-2.91-.55c-1.24,0-1.69-.08-5-.08"/><path class="cls-6" d="M324.73,192.63a6.2,6.2,0,1,0,6.2,6.19,6.2,6.2,0,0,0-6.2-6.19m0,10.15a4,4,0,1,1,4-4v0a4,4,0,0,1-4,4h0"/><path class="cls-6" d="M332.55,192.39a1.44,1.44,0,1,1-1.43-1.44h0a1.42,1.42,0,0,1,1.42,1.43h0"/><line class="cls-7" x1="398.37" y1="141.75" x2="415.92" y2="141.75"/><line class="cls-7" x1="398.37" y1="145.37" x2="415.92" y2="145.37"/><line class="cls-7" x1="398.37" y1="148.98" x2="415.92" y2="148.98"/><line class="cls-7" x1="398.37" y1="152.58" x2="415.92" y2="152.58"/><line class="cls-7" x1="342.12" y1="99.44" x2="395.28" y2="99.44"/><line class="cls-7" x1="336.45" y1="174.77" x2="351.67" y2="159.55"/><line class="cls-7" x1="432.94" y1="131.44" x2="432.94" y2="170.14"/><line class="cls-7" x1="355.03" y1="193.87" x2="372.57" y2="193.87"/><line class="cls-7" x1="355.03" y1="197.49" x2="372.57" y2="197.49"/><line class="cls-7" x1="355.03" y1="201.09" x2="372.57" y2="201.09"/><line class="cls-7" x1="355.03" y1="204.71" x2="372.57" y2="204.71"/><line class="cls-7" x1="303.94" y1="132.46" x2="321.48" y2="132.46"/><line class="cls-7" x1="303.94" y1="136.07" x2="321.48" y2="136.07"/><line class="cls-7" x1="303.94" y1="139.69" x2="321.48" y2="139.69"/><line class="cls-7" x1="303.94" y1="143.3" x2="321.48" y2="143.3"/><line class="cls-7" x1="386.51" y1="106.15" x2="404.05" y2="106.15"/><line class="cls-7" x1="386.51" y1="109.77" x2="404.05" y2="109.77"/><line class="cls-7" x1="386.51" y1="113.37" x2="404.05" y2="113.37"/><line class="cls-7" x1="386.51" y1="116.98" x2="404.05" y2="116.98"/><line class="cls-7" x1="390.63" y1="200.59" x2="408.18" y2="200.59"/><line class="cls-7" x1="390.63" y1="204.19" x2="408.18" y2="204.19"/><line class="cls-7" x1="390.63" y1="207.8" x2="408.18" y2="207.8"/><line class="cls-7" x1="390.63" y1="211.42" x2="408.18" y2="211.42"/><polygon class="cls-1" points="396.82 169.1 381.86 170.14 381.86 186.13 398.37 185.1 396.82 169.1"/><line class="cls-7" x1="384.87" y1="174.71" x2="394.5" y2="174.02"/><line class="cls-7" x1="384.52" y1="178.84" x2="394.85" y2="178.49"/><polygon class="cls-1" points="338.29 115.74 323.33 116.77 323.33 132.76 339.84 131.73 338.29 115.74"/><line class="cls-7" x1="326.33" y1="121.34" x2="335.98" y2="120.65"/><line class="cls-7" x1="325.98" y1="125.47" x2="336.31" y2="125.12"/><polygon class="cls-1" points="312.47 161.87 297.51 162.9 297.51 178.9 314.02 177.87 312.47 161.87"/><line class="cls-7" x1="300.51" y1="167.47" x2="310.15" y2="166.79"/><line class="cls-7" x1="300.16" y1="171.61" x2="310.49" y2="171.27"/></g><g id="freepik--Character--inject-15"><path class="cls-4" d="M291.62,197.28s2.81,5.15,2.81,7.43-13.11,30.7-13.35,31.67,1.4,6.09.47,9.84S277.1,254,277.1,254l-4.45-19.2a11.81,11.81,0,0,0,2.58-11.7c-2.34-6.8-2.34-21.31-2.34-21.31Z"/><path class="cls-4" d="M268.91,410.79s-1.17,11.89-.24,12.59,5.72.6,9,0c4.51-.81,7,.2,10.24.2s10.31.89,11.05-.61c1.44-2.87-7.12-5.62-11.8-8.43s-9.13-5.15-9.13-5.15Z"/><path class="cls-8" d="M233.32,232.4s-4.22,22.48-4.45,26.69-11.94,146.79-11.94,146.79l10.77.93,26.93-135.13,1.87-.46,12.4,139.52L279,408.87l.47-153.81-3.05-23.17Z"/><path class="cls-9" d="M244.09,160.75s-18.73-4-23.18-5.14-5.67,9.36-7,12.85-14.75,27.87-13.82,29.76,4.45,6.79,11.48,1.87S222.78,187,222.78,187s9.37,26.47,9.84,29.51-1.24,15.69,0,18.26,12.87,4.21,22.48,4,20.13-.46,21.53-4-.23-29.49-.23-29.49,14.51-2.58,16.86-6.09-2.81-8.43-7.44-17.57-5.85-20.13-9.37-22.24-26.46,1.87-28.52,1.87A14.64,14.64,0,0,1,244.09,160.75Z"/><polygon class="cls-8" points="247.6 167.08 250.88 175.51 246.43 226.78 257.2 245.04 263.53 223.97 254.16 174.8 259.31 164.73 252.28 161.7 246.9 165.91 247.6 167.08"/><path class="cls-9" d="M238.93,159.35l-.69,15,15.68-7.73,13.82,8.19-7.5-15.68a24.85,24.85,0,0,0-11.46-3.05A15.14,15.14,0,0,0,238.93,159.35Z"/><path class="cls-4" d="M242.22,143a65.36,65.36,0,0,1,.7,11.94c-.23,6.56.7,5.16,3.72,10.07s5.15,6.79,7.73,4,2.57-8.68,3.05-9.83.93-14.75.93-14.75S255.1,146.71,242.22,143Z"/><path class="cls-4" d="M259,115.34a62,62,0,0,1,3,18.71c0,10.27,0,13.64-3.42,15.5s-8.68,2-11.86,0a44.93,44.93,0,0,1-8.85-7c-2.22-2.42-8.26-9.86-9.07-14.88s8.87-11.47,16.91-14.69A12.18,12.18,0,0,1,259,115.34Z"/><path class="cls-3" d="M248.71,128.67c.23,1.17-.1,2.21-.72,2.33s-1.24-.73-1.52-1.91.1-2.2.72-2.33S248.45,127.55,248.71,128.67Z"/><path class="cls-7" d="M256,125.72a2.67,2.67,0,0,1,3-1"/><line class="cls-7" x1="256.04" y1="139.65" x2="259.34" y2="137.37"/><path class="cls-7" d="M243.37,125.72s1-3.55,5.58-2.28"/><path class="cls-7" d="M253.25,122.93s.26-2.54,3.81-2.54"/><path class="cls-7" d="M254.14,125.4s4,6.44,3.83,7.44-4.22,3.81-4.22,3.81"/><path class="cls-8" d="M234.89,137.27a2.62,2.62,0,0,0,1.81-2.81c0-2.42-1.24-3.82-1.24-7.24s10.66-8.86,16.12-8.26,10.46.61,13.48-2.41,3.62-6.44,2.42-6.2a28.1,28.1,0,0,0-4.23,1.61,15.4,15.4,0,0,0-2.41-12.27c-4.23-6-5.23-2-4.63-1s2.41,5.63,2.41,5.63-6.63-5-10.86-4.62-17.7,6.43-20.93,11.07-3.42,11.86-2.61,15.89,3.22,4.43,3.22,4.43l5.43,6.84Z"/><path class="cls-10" d="M227.64,126.54s.75-6.34,6.58-8.37,11.16-2,18.5-2,3.54-7.09.75-7.6"/><path class="cls-10" d="M227.12,117.92s1.24-5.32,12.16-5.82"/><path class="cls-4" d="M237.92,139.28s-2.62-6.2-6.85-4.42.4,10.26,4.82,10.06,5-2.81,5-2.81"/><path class="cls-4" d="M238.56,169s0-12.46,1.31-14.88,5.47-4.38,7.88-5.69,3.49,0,2.4,2a25,25,0,0,1-3.94,4.59s11.59-5.47,12.68-3.93,1.32,3.49,0,4.58a23.68,23.68,0,0,0-3.27,2.63c-.66.87.66,7.44-.66,9.62s-7.21,4.59-10.28,6.56-24.93,26-30.83,28.86-9.41,4.6-12.47.66-2.4-7.88,1.54-12.69S238.56,169,238.56,169Z"/><path class="cls-4" d="M216.93,405.88s-3.51,6.79-5.85,9.12-7.16,7-6.69,8.17,22.52,0,22.52,0,1.84.82,1.24-4.65c-.28-2.56-.47-11.71-.47-11.71Z"/><path class="cls-4" d="M276.4,205.25s.23-26.47-1.17-29.76"/></g><g id="freepik--Chair--inject-15"><path class="cls-8" d="M88.87,417a5.74,5.74,0,1,0-5.74,5.74A5.74,5.74,0,0,0,88.87,417Z"/><circle class="cls-4" cx="83.13" cy="416.96" r="2.88"/><path class="cls-8" d="M150.37,417a5.74,5.74,0,1,0-5.74,5.74,5.74,5.74,0,0,0,5.74-5.74Z"/><path class="cls-4" d="M147.5,417a2.88,2.88,0,1,0-2.88,2.87h0A2.87,2.87,0,0,0,147.5,417Z"/><circle class="cls-8" cx="164.72" cy="416.96" r="5.74"/><circle class="cls-4" cx="164.72" cy="416.96" r="2.88"/><path class="cls-8" d="M123.63,326.72h12.05v83.62H123.53V326.77Z"/><rect class="cls-8" x="120.34" y="366.48" width="18.61" height="43.91"/><path class="cls-8" d="M101.64,282.86h15.67v33.41H101.69V282.86Z"/><path class="cls-9" d="M140.19,282.88H79.44a10.68,10.68,0,0,1-10.66-10.69V272L70.2,212.6a10.64,10.64,0,0,1,10.65-10.4h50.2a10.64,10.64,0,0,1,10.54,9l9.19,59.37a10.68,10.68,0,0,1-10.59,12.28Z"/><line class="cls-7" x1="120.33" y1="328.89" x2="93.65" y2="346.46"/><path class="cls-8" d="M92.65,343.81l-4.55,3.06a3,3,0,0,0-.8,4.15,3.23,3.23,0,0,0,.38.45l.32.3a3,3,0,0,0,4,.17l4.17-3.45a2.92,2.92,0,0,0,.42-4.11l-.17-.19h0A2.93,2.93,0,0,0,92.65,343.81Z"/><rect class="cls-9" x="70.67" y="312.85" width="117.98" height="19.09" rx="9.14"/><path class="cls-9" d="M188.58,321.23a9.8,9.8,0,0,0-9.92-8.38h-51.2a9.81,9.81,0,0,0-9.92,8.38,9.54,9.54,0,0,0,8.32,10.63,8.88,8.88,0,0,0,1.15.07h52.07a9.55,9.55,0,0,0,9.57-9.52A11.5,11.5,0,0,0,188.58,321.23Z"/><path class="cls-8" d="M82.31,408.66h85.05a5,5,0,0,1,5,5v.24h-95v-.24A5,5,0,0,1,82.31,408.66Z"/><path class="cls-8" d="M124.5,408.66h25.94a5,5,0,0,1,5,5v.24H124.5v-5.19Z"/></g><g id="freepik--Table--inject-15"><rect class="cls-4" x="122.55" y="271.19" width="78.7" height="3.17"/><rect class="cls-4" x="144.74" y="271.19" width="78.7" height="3.17"/><rect class="cls-4" x="149.04" y="215.44" width="65.63" height="50.1"/><rect class="cls-8" x="151.76" y="215.44" width="65.63" height="50.1"/><rect class="cls-4" x="180.34" y="242.25" width="16.93" height="32.11"/><path class="cls-3" d="M91.67,271.78a1.73,1.73,0,0,0,1.73-1.7l.4-18.25,8.68-22.52,20.69,8.06a1.75,1.75,0,0,0,1.24-3.25l-22.32-8.68a1.8,1.8,0,0,0-1.33,0,1.72,1.72,0,0,0-.92,1l-9.37,24.43a1.52,1.52,0,0,0-.12.59L90,270a1.73,1.73,0,0,0,1.7,1.77h0Z"/><rect class="cls-8" x="80.29" y="266.76" width="22.77" height="6.58"/><path class="cls-3" d="M97.38,227.05a4.06,4.06,0,1,1,4.06,4.06h0A4.06,4.06,0,0,1,97.38,227.05Z"/><path class="cls-3" d="M88.17,252.44a4.06,4.06,0,1,1,4.06,4.06h0a4.05,4.05,0,0,1-4.06-4Z"/><polygon class="cls-3" points="125.08 231.97 140.35 231.02 130.81 252 121.48 239.85 125.08 231.97"/><path class="cls-4" d="M68.24,292.62,71.63,421.1a3.14,3.14,0,0,0,3.14,3h0a3.15,3.15,0,0,0,3.15-3.1l1.67-128.43Z"/><path class="cls-4" d="M109.74,292.62l3.4,128.48a3.14,3.14,0,0,0,3.14,3h0a3.15,3.15,0,0,0,3.15-3.1l1.67-128.43Z"/><path class="cls-4" d="M281,292.62l3.4,128.48a3.14,3.14,0,0,0,3.14,3h0a3.14,3.14,0,0,0,3.14-3.1l1.68-128.43Z"/><path class="cls-4" d="M322.46,292.62l3.41,128.48a3.14,3.14,0,0,0,3.14,3h0a3.13,3.13,0,0,0,3.13-3.1l1.69-128.43Z"/><rect class="cls-4" x="64.2" y="278.59" width="273.43" height="15.37"/><rect class="cls-4" x="64.2" y="278.59" width="57.21" height="15.37"/><rect class="cls-8" x="64.2" y="278.59" width="273.43" height="7.69"/><rect class="cls-4" x="61.02" y="273.29" width="279.77" height="8.47"/><rect class="cls-4" x="125.2" y="273.29" width="215.58" height="8.47"/></g><g id="freepik--Clock--inject-15"><circle class="cls-11" cx="113.43" cy="125.21" r="33.62"/><circle class="cls-12" cx="113.43" cy="125.23" r="27.86"/><polyline class="cls-7" points="95.67 125.22 113.44 125.22 113.44 150.86"/></g><g id="freepik--Floor--inject-15"><line class="cls-7" x1="1.64" y1="423.94" x2="500" y2="423.94"/></g></g></g></svg>