<svg xmlns="http://www.w3.org/2000/svg" viewBox="0 0 2311.66 1946.66"><defs><style>.cls-1{fill:#fff;}.cls-2{fill:#e7cfc7;}.cls-3{fill:#0056a7;}.cls-4{fill:#e59375;}.cls-5{fill:#4b9ebf;}.cls-6{fill:#231f20;}.cls-7{fill:#010814;}.cls-8{fill:#f7a483;}.cls-9{fill:#e79675;}.cls-10{fill:#09111c;}.cls-11{fill:#e1876f;}.cls-12{fill:#f8a07d;}.cls-13{fill:#e98b6f;}.cls-14{fill:#4fa6c9;}.cls-15{fill:#4592b1;}.cls-16{fill:#7ad0e2;}.cls-17{fill:#963222;}.cls-18{fill:#001940;}.cls-19{fill:#2c080d;}.cls-20{fill:#00264e;}.cls-21{fill:#a5c6c7;}.cls-22{fill:#cfeae6;}.cls-23,.cls-25,.cls-48{fill:none;stroke-miterlimit:10;}.cls-23{stroke:#cfeae6;}.cls-23,.cls-48{stroke-width:2.95px;}.cls-24{fill:#471f08;}.cls-25{stroke:#bcbec0;stroke-width:4.82px;}.cls-26{fill:#bfe5e5;}.cls-27{fill:#d83633;}.cls-28{fill:#a62724;}.cls-29{fill:#00153b;}.cls-30{fill:#002952;}.cls-31{fill:#370900;}.cls-32{fill:#101b26;}.cls-33{fill:#00b9c5;}.cls-34{fill:#d2e7f2;}.cls-35{fill:#c4a17e;}.cls-36{fill:#d7b089;}.cls-37{fill:#6b3f2c;}.cls-38{fill:#ca8268;}.cls-39{fill:#c93232;}.cls-40{fill:#24365f;}.cls-41{fill:#ddbe90;}.cls-42{fill:#3c2415;}.cls-43{fill:#010c18;}.cls-44{fill:#000210;}.cls-45{fill:#091420;}.cls-46{fill:#d1d3d4;}.cls-47{fill:#e6e7e8;}.cls-48{stroke:#e6e7e8;}.cls-49{fill:#1f3038;}.cls-50{fill:#b1775f;}.cls-51{fill:#0088ce;}.cls-52{fill:#0071ac;}</style></defs><g id="Layer_2" data-name="Layer 2"><g id="Capa_1" data-name="Capa 1"><rect class="cls-1" width="2311.66" height="1946.66"/><path class="cls-2" d="M1966.65,1612c0,44.16-392.41,80-876.47,80s-876.47-35.8-876.47-80,392.41-80,876.47-80S1966.65,1567.84,1966.65,1612Z"/><path class="cls-2" d="M1564,1735.45c0,40.19-212.12,72.78-473.8,72.78s-473.8-32.59-473.8-72.78,212.13-72.77,473.8-72.77S1564,1695.26,1564,1735.45Z"/><path class="cls-3" d="M1772.4,273.09c4.92,12.21-.94,28.3,4.25,39.17s19.3,11.58,24.5,21.77c17.68,34.6-2.34,41.82-.12,68.1,2.5,29.36,33,44.44,7.09,75.14-21.29,25.29-64.4,21.25-74.08-12.2.7-1,.72-.95,0,0-50.11,33-89.14-55.29-29-72.9-22-15.59-31.72-48.91-6.72-68.2-23.79-16.42-22.3-48.95,1.28-64,3.8-2.43-11.91-33.8,19.55-36.52C1741.84,221.51,1765.5,256,1772.4,273.09Z"/><path class="cls-4" d="M1769.36,434a44.22,44.22,0,0,1,45.43,43c.67,24.41-12.62,87.38-31.22,71.55-36.54-31.12-54.77-49.84-55.46-74.25S1745,434.68,1769.36,434Z"/><path class="cls-4" d="M1801,459.47l-42.32,14.07L1751,518.7s93.1,113.2,123.43,129c32.32,16.8,23.65-12.62,21.54-24.76C1896,622.91,1824.93,474.89,1801,459.47Z"/><path class="cls-4" d="M1893.23,651.43s79-39.32,129.84-83.38c0,0,4.81-15.38-8.64-11.95-12.87,3.29-140.34,36.39-148.52,46.9S1893.23,651.43,1893.23,651.43Z"/><path class="cls-4" d="M2078.69,557.58l-12.24,5.64s24.83-5.24,28.4-15.9c0,0,1.26-2-2.83-3.21,0,0-19.82,9-29.62,10.76,0,0,21.6-4.89,34.65-13,0,0,3.64-6.2-3.75-6.53,3.54-3.86-1.62-4.9-1.62-4.9s-5-.25-15.64,1.43a349.06,349.06,0,0,1-35.9,3.14s8.61-14.61.54-19l-14.52,20-12.11,20.2,3.58,13.18,24.82,3.71s21.52-1.65,31.86-6.34C2074.31,566.78,2103,551.33,2078.69,557.58Z"/><path class="cls-5" d="M1779.38,434s34.07,6.08,38.53,39.35c0,0,99,139.37,80.75,178.87-7.76,3-46.24,25.36-165.62-145.23C1733,507,1701.05,421.85,1779.38,434Z"/><path class="cls-5" d="M1864.26,592.88s51.47-22.09,145.17-41.85c0,0,16.08,16.09,14.48,26.77,0,0-112.59,76.31-129.12,74.93C1894.79,652.73,1857.31,626.19,1864.26,592.88Z"/><path class="cls-4" d="M1689.07,1568.8c21,9.75,44,8.4,44,8.4l-19.17-19.65s-16.57-36.9-18.3-48.8c-1.11-7.64,4.09-30,4.09-30l-28.68-6-4.37,15.79-16.82,21.22s-4,11.06,15.86,18.94A424.15,424.15,0,0,0,1689.07,1568.8Z"/><path class="cls-6" d="M1713.92,1557.55c-8.57,1.48-22.21-1.23-27.24-10.11-20.28-35.77-20-58.92-20-58.92-18.39,11.69-18.2,25.7-18.2,25.7l-.41,5.65-3.2,43.56,3,.62,17.35-32,11,37c45.23,18.94,59.89,9.27,59.89,9.27Z"/><path class="cls-7" d="M1820,1163.23s-115.82,320.78-122.73,334c0,0-34.18-5.41-31.72-13.34,5.9-19.17,17-161.62,23.45-192.44,10.32-49.48,19.5-80.12,62.65-138.66C1751.6,1152.74,1817.18,1123.48,1820,1163.23Z"/><path class="cls-8" d="M1770,778.77s17.79,62.63,25.74,102.27c14.06,70.13,19.72,250.77,19.72,250.77s-58.85,31.87-67,17c-39.55-72-44.18-52.22-99.09-295.93Z"/><path class="cls-7" d="M1652.65,860.6s22.29,184.63,93.57,289.26c0,0,21.53,56.93,73.73,13.37,0,0,6.5-300.66-44.21-393.66C1775.74,769.57,1630.86,762.41,1652.65,860.6Z"/><path class="cls-9" d="M1720.59,656.83c5.59-1,28.69,10.91,28.69,10.91s28.85,92.71,30.09,106.81-95.71,87.07-204,45.52c0,0,50.14-130.56,53.2-162.72S1720.59,656.83,1720.59,656.83Z"/><path class="cls-10" d="M1749.28,667.74s27.65,83.61,30.09,106.81c8.63,82.14-102.51,116.59-210.82,75,0,0-7-112.92,60-192.23C1628.56,657.35,1646.38,673.6,1749.28,667.74Z"/><path class="cls-10" d="M1646.88,910.52l-78.33-43s12.71,247.82,22.63,317.43c0,0,43.82,12.19,57.39,3.18,40.64-95.3,64.17-302.22,64.17-302.22Z"/><path class="cls-10" d="M1599.43,795s-37.59,10.85-29.82,80.5c7.6,68,132.7,74.48,144.38,4.73C1726.56,805.19,1665.68,765.42,1599.43,795Z"/><path class="cls-8" d="M1652.25,429.12h75.38c-3.42-11-10.52-39.39.47-58.72l-76.17-50S1665.47,404.31,1652.25,429.12Z"/><path class="cls-11" d="M1722.23,396.16c-.22-8.4,1.16-17.48,5.87-25.76l-76.17-50s5.52,34.2,6.08,65.39C1685.51,394.53,1696.83,397.91,1722.23,396.16Z"/><path class="cls-8" d="M1600.46,435.63c-33.94,16.59-15.08,56.46-15.08,56.46L1631.25,659s42.84,17.51,118,8.74c10.45-15,31.9-77.56,39.1-125.37,5.92-39.37,24.31-78.17,4.28-100.13-7.68-8.42-66.19-16.81-66.49-18.19h-70.42Z"/><path class="cls-8" d="M1739.82,377.24l4.56-11.12,11.45-32.82c1.62-5.22,2.62-12.41,1.06-17.68a53.65,53.65,0,0,1-.14-27.72c7.75-30-4.91-46.51-4.91-46.51-16.27-28.77-58-30.76-58-30.76-51.76.06-58.51,49.83-58.51,49.83-10,32.85,15.13,61.81,15.17,61.86,3.18,3.66,3.25,9.34,4.65,13.75a41.55,41.55,0,0,0,6.94,13c6.84,8.69,15.9,17.15,25.38,22.6,9,5.17,26.62,10.9,39.32,11.41C1732,383.3,1737.2,383.62,1739.82,377.24Z"/><path class="cls-3" d="M1655.27,341.88c.93-23.59,1.44-22.11,1.44-22.11.91-6.86,13.66,8.67,13.84-.31.81-41.14,16.73-59.94,22.73-62.8,16.28-7.77,33.13-9.39,46.26-6.36,20.6,4.74,18.39,32.36,18.39,32.36,22.84-100.35-91.71-73.73-91.71-73.73-55.72,11.64-52.68,63.75-52.68,63.75-9.57,55.29,43.58,90.12,43.58,90.12Z"/><path class="cls-12" d="M1659.28,334a11.11,11.11,0,0,1-7.28,1.82c-8-.52-14.25-8.34-14-17.45s7-16.06,15-15.54a14.06,14.06,0,0,1,9.67,5c3.64,4.22,3.38,11.63,2.21,16.69C1663.93,328.62,1662.14,332.05,1659.28,334Z"/><path class="cls-13" d="M1655.77,311.5c-.22-4.8-10.12-.73-8.8,2,.78,1.59,2.41,2.82,3.68,4a7,7,0,0,1,2.7,5.38c0,.27,0,1.1-.25,1.28-1.29.8-5.16-4.07-6-5.1-1.67-2-1.74-5.34-.77-7.69a4.77,4.77,0,0,1,5.47-3.31c2.17.24,4.38.5,4.11,3.19,0,.05-.12.49-.14.25Z"/><path class="cls-13" d="M1652.42,316.3c1.07-.95,2-.06,3,.72a4.61,4.61,0,0,1,1.59,2.91,11.17,11.17,0,0,1-1.61,7.91,6,6,0,0,1-5.32,2.49c-2.91-.23-3.65-2.84-3.63-5.31,0-.65,0-2.22.69-2.59s1.16.7,1.6,1.18a4.14,4.14,0,0,0,2.42,1.06,5.26,5.26,0,0,0,4.42-1.71,2.4,2.4,0,0,0,.49-.73c-.09,1.62-.19,2-.31,1.07a4.64,4.64,0,0,0-.5-1.17c-.61-1.14-1.71-2-2.41-3.06-.34-.51-.93-2.28-.4-2.77Z"/><path class="cls-1" d="M1659.58,335.73a4.9,4.9,0,1,1-4.65-5.15A4.9,4.9,0,0,1,1659.58,335.73Z"/><path class="cls-14" d="M1746.85,428.14l32.53,5.84s23.71,5.2,24.5,25.49c0,0,1.32,38.45-19.6,108C1784.28,567.44,1749.66,460.76,1746.85,428.14Z"/><path class="cls-14" d="M1738.55,426.87l14.66,2.25s28.45,55,35.17,113.25c-7.2,47.81-21.61,120.2-39.1,125.37-59.27,17.53-121.14-10-121.14-10l-28.35-113.18c76.14-29.63,37.66-116.65,37.66-116.65l16-3.83,67.28,68,17.82-65.2"/><path class="cls-14" d="M1768.62,464.41s29.75,41.2,34.93,62.43c3.41,13.95-20.91,45.36-40.55,50.91C1752.27,580.77,1752,467.19,1768.62,464.41Z"/><polygon class="cls-15" points="1710.6 443 1709.75 481.17 1695.69 467.43 1710.6 443"/><path class="cls-16" d="M1710.6,442.14s-42.64-17.46-53.21-34.84l-19.94,20.58,51.73,50.17L1710.6,443"/><path class="cls-16" d="M1748.56,444.08s-4.13-16-24.4-29.49l2.65,55.11S1738.05,441.5,1748.56,444.08Z"/><path class="cls-15" d="M1750.4,469.7l-1.84-25.62c-6.19-1.52-11.72,7.15-16.23,14.24Z"/><path class="cls-8" d="M1632.73,1584.2c22.54,5.23,44.8-.8,44.8-.8l-22.8-15.3s-23.79-32.71-27.93-44c-2.64-7.24-2.14-30.21-2.14-30.21h-29.3l-1,16.35-12.11,24.22s-1.68,11.67,19.4,15.28A424.52,424.52,0,0,0,1632.73,1584.2Z"/><path class="cls-6" d="M1654.73,1568.1c-8.07,3.2-22,3.35-28.73-4.31-27.19-30.85-31.68-53.56-31.68-53.56-15.61,15.23-12.53,28.9-12.53,28.9l.75,5.62,5.81,43.28h3l10.41-34.87,18.35,34c48.15,9.25,60.52-3.22,60.52-3.22Z"/><path class="cls-10" d="M1588.13,1159.09l64,18.94s-22,307-24.85,321.65c0,0-34.29,4.62-34.21-3.68.15-20-23.39-145.34-25.65-176.73C1563.55,1265.3,1548.88,1229.11,1588.13,1159.09Z"/><path class="cls-4" d="M1616.8,434a44.2,44.2,0,0,0-45.42,43c-.68,24.41,12.61,87.38,31.21,71.55,36.53-31.12,54.77-49.84,55.46-74.25S1641.21,434.68,1616.8,434Z"/><path class="cls-4" d="M1585.16,459.47l42.31,14.07,7.65,45.16s-93.1,113.2-123.43,129c-32.32,16.8-23.65-12.62-21.54-24.76C1490.15,622.91,1561.23,474.89,1585.16,459.47Z"/><path class="cls-4" d="M1492.93,651.43s-79-39.32-129.84-83.38c0,0-4.81-15.38,8.64-11.95,12.87,3.29,140.34,36.39,148.52,46.9S1492.93,651.43,1492.93,651.43Z"/><path class="cls-4" d="M1307.47,557.58l12.24,5.64s-24.83-5.24-28.41-15.9c0,0-1.25-2,2.84-3.21,0,0,19.82,9,29.62,10.76,0,0-21.6-4.89-34.65-13,0,0-3.64-6.2,3.75-6.53-3.54-3.86,1.62-4.9,1.62-4.9s5-.25,15.64,1.43A349.06,349.06,0,0,0,1346,535s-8.61-14.61-.54-19L1360,536l12.11,20.2-3.58,13.18-24.82,3.71s-21.52-1.65-31.86-6.34C1311.85,566.78,1283.2,551.33,1307.47,557.58Z"/><path class="cls-14" d="M1653.12,507C1533.74,677.56,1495.26,655.23,1487.5,652.2c-18.24-39.5,77.28-182.5,77.28-182.5,15.38-33.19,42-35.72,42-35.72l30.67-6.1L1657.13,453S1669.57,479.43,1653.12,507Z"/><path class="cls-5" d="M1521.9,592.88s-51.47-22.09-145.17-41.85c0,0-16.08,16.09-14.48,26.77,0,0,112.59,76.31,129.12,74.93C1491.37,652.73,1528.85,626.19,1521.9,592.88Z"/><path class="cls-3" d="M1592.92,273.09c-4.92,12.21.94,28.3-4.25,39.17s-19.3,11.58-24.51,21.77c-17.68,34.6,2.35,41.82.13,68.1-2.5,29.36-33,44.44-7.09,75.14,21.29,25.29,64.4,21.25,74.08-12.2-.71-1-.72-.95,0,0,50.11,33,89.15-55.29,29-72.9,22-15.59,31.72-48.91,6.71-68.2,23.8-16.42,22.31-48.95-1.27-64-3.8-2.43,11.91-33.8-19.55-36.52C1623.48,221.51,1599.82,256,1592.92,273.09Z"/><path class="cls-14" d="M1774.31,603.52s-6.74,125,43.6,190.67c0,0-138.2,60.45-268.1,1.78,12.1-38.08,9.36-38,50-125.75,0,0,20.36-44.43,14.77-66.7Z"/><path class="cls-17" d="M519.27,234s-44.46,0-36.73-50.54c0,0,26.78,25.29,55.45,14.82C538,198.23,540.16,232.18,519.27,234Z"/><path class="cls-4" d="M438.71,472.4l-14.14,3.08S385.92,641.8,400.46,681.29s37.92.39,45.22-3.18,71.92-186.6,71.92-186.6Z"/><path class="cls-18" d="M390,660.47,415.41,467.3c15.13-50.82,71-32.05,71-32.05,41.89,15.54,35.23,48.5,35.23,48.5L464.25,682.22s-10.86,30.13-50.66,26.12C413.59,708.34,384.61,701.42,390,660.47Z"/><path class="cls-19" d="M458.45,1509.07s-7.51,29.2-16.73,37.13-44.4,19.57-44.4,19.57l-19.5,2.8s-13.54,9.72,23.64,19.93,102.45-20.62,102.45-20.62l-14.72-59.7Z"/><path class="cls-19" d="M654.54,1572.64c6.56-10.22,20.32-66,20.32-66l30.38-.92,19,61.36s3,10.27-3.16,14.12c0,0-37.88,13.15-70.24-.63C650.85,1580.62,651.2,1577.88,654.54,1572.64Z"/><path class="cls-8" d="M466.19,726.39l-38.8-237.1S414,453.65,440.77,435.84L542.65,388h71.86L737,460.34,656.71,726.39Z"/><path class="cls-20" d="M656.71,726.39s22,50.23,27.31,165.73c0,0-165.59,51.94-217.54,0l-.29-165.73Z"/><path class="cls-20" d="M548.15,891.61c-.28,38.76,29.9,70.41,67.42,70.68s68.17-30.92,68.45-69.68-29.9-70.39-67.41-70.66S548.43,852.87,548.15,891.61Z"/><path class="cls-20" d="M684,901.16l18,330.05s-31.89,41.83-88.34-5.36l-61.3-303.6S582.09,820.22,684,901.16Z"/><path class="cls-20" d="M687.92,1192.67s31,59,26,155.52l5,180.4-51.2,1.53-53.82-303.34S642.44,1125,687.92,1192.67Z"/><path class="cls-20" d="M466.79,892.3c-3.93,38.56,9.84,71.54,47.17,75.35s70.78-24.36,74.72-62.92-23.14-72.89-60.47-76.7S470.73,853.75,466.79,892.3Z"/><path class="cls-20" d="M572.75,943.06l-38.3,301.68s-67.77,9-81-37.12c0,0-.85-212.94,13.32-315.32C466.79,892.3,558.61,847.58,572.75,943.06Z"/><path class="cls-20" d="M530.18,1218s12.25,45.19,1,118l-27.82,203.76-54.8-3.87,4.93-328.28S483.63,1162,530.18,1218Z"/><path class="cls-8" d="M726.3,489.49l14,3.73s21.79,167.18,5.44,205.95-31.72.31-38.84-3.59S646.6,505,646.6,505Z"/><path class="cls-18" d="M688.79,694.08,643,497.18c9.45-53.24,60.13-49.5,60.13-49.5,44.5,4.05,46.69,37.6,46.69,37.6l2.94,200.26s2.94,34.22-22.86,32.41C729.91,718,693,712.18,688.79,694.08Z"/><path class="cls-8" d="M614.87,335.58v76.8H533.65s20-30.45,10-76.8Z"/><path class="cls-11" d="M573.67,400.8c-7.33,4.71-22.88,14.74-31.76,8.87a8.36,8.36,0,0,1-3.85-6c5.22-12.16,12.4-36.42,5.57-68.13h71.24v7C606,365,594.57,387.32,573.67,400.8Z"/><path class="cls-12" d="M616.81,336.65s13.82-6,29.47-40.21c0,0,34-40.46,9.9-86.39,0,0-14.23-38.84-83.19-28C573,182.08,566.79,286.18,616.81,336.65Z"/><path class="cls-8" d="M531.89,357.42l-4.6-12-12.7-44.82a46.43,46.43,0,0,1-.66-19c1.12-6.3,1.83-12.88.19-19.53-8-32.22,8.5-50.51,8.5-50.51,18.2-30.4,63-31.4,63-31.4C641.08,181.6,647,235.1,647,235.1c9.81,35.44-17.86,65.79-17.92,65.86-2.21,2.42-.77,14.13-1.37,17.48-2.6,14.29-16,23.36-27.93,29.67-13.11,6.93-29,14.34-43.77,16C550.39,364.8,534.52,364.33,531.89,357.42Z"/><path class="cls-1" d="M669.9,720c-.17,7.89,11.83,90.53,6.79,91.59,0,0-137.1,31.6-210.21,0l-.29-85.15-38.8-237.1S414,453.65,440.77,435.84L542.65,388l-6.88,20.65,14.74,41.9,64-62.55L737,460.34q-10.26,34-20.49,68.06c-12.63,41.82-24.92,83.76-37.93,125.46C678.58,653.86,667.82,699.09,669.9,720Z"/><polygon class="cls-21" points="559.34 402.86 560.2 441.03 574.25 427.28 559.34 402.86"/><path class="cls-22" d="M541.45,464.41a5.44,5.44,0,1,0,5.44-5.45A5.44,5.44,0,0,0,541.45,464.41Z"/><path class="cls-22" d="M541.45,563.32a5.44,5.44,0,1,0,5.44-5.45A5.44,5.44,0,0,0,541.45,563.32Z"/><path class="cls-22" d="M541.45,662.21a5.44,5.44,0,1,0,5.44-5.44A5.44,5.44,0,0,0,541.45,662.21Z"/><path class="cls-22" d="M541.45,761.12a5.44,5.44,0,1,0,5.44-5.44A5.45,5.45,0,0,0,541.45,761.12Z"/><line class="cls-23" x1="559.34" y1="445.38" x2="559.34" y2="820.74"/><path class="cls-24" d="M467.32,819.36s70,32.8,213.3-.72C683,818.08,682,812,682,812l-1.36-13.8c-.62-4.42-3.09-4.21-3.09-4.21s-137.1,31.6-210.21,0c0,0-2.95-.51-3.07,3.91v17.2S464.25,818.5,467.32,819.36Z"/><path class="cls-25" d="M538.44,829.77a3.93,3.93,0,0,0,3.88,4H570.2a3.92,3.92,0,0,0,3.86-4V809.69a3.91,3.91,0,0,0-3.86-4H542.32a3.92,3.92,0,0,0-3.88,4Z"/><line class="cls-25" x1="574.06" y1="818.46" x2="559.3" y2="818.46"/><path class="cls-26" d="M559.34,402s44.95-17.46,55.53-34.84l13.28,25.31-47.38,45.44-21.43-35.05"/><path class="cls-17" d="M520.86,213.87c2-14.64,49.71-6.82,62.19-4.54,7.51,1.38,16.32,3.67,20.41,11.06,1.51,2.72,7.54,21.79.12,31.34a195.34,195.34,0,0,1,8.1,36.4l3.78.21c7.47,19.23,8.93,42.35,8.93,42.35s27.82-12,47.13-62.78C691.08,203.23,643,174.74,643,174.74c-44.08-19.13-88.08-13.9-88.08-13.9s-44.35,4-54.37-22.41C500.56,138.43,472.47,199.18,520.86,213.87Z"/><path class="cls-8" d="M620.77,306.18a12.31,12.31,0,0,0,7.8,2.79c8.84.28,16.55-7.65,17.23-17.7s-5.92-18.4-14.76-18.68a15.49,15.49,0,0,0-11.17,4.49c-4.44,4.24-5,12.42-4.23,18.11C616.24,299.73,617.82,303.69,620.77,306.18Z"/><path class="cls-13" d="M627,281.78c.76-5.25,11.2.29,9.45,3.18-1,1.68-2.94,2.83-4.47,4a7.75,7.75,0,0,0-3.54,5.61c-.06.3-.16,1.22.14,1.45,1.33,1,6.1-3.93,7.15-5,2.05-2,2.49-5.69,1.67-8.39s-2.65-4.27-5.68-4.22c-2.4,0-4.85.08-4.84,3.06,0,.07.08.57.12.3Z"/><path class="cls-13" d="M630.2,287.42c-1.05-1.17-2.16-.3-3.34.47a5.07,5.07,0,0,0-2.06,3,12.42,12.42,0,0,0,.93,8.86,6.66,6.66,0,0,0,5.59,3.33c3.22,0,4.3-2.75,4.56-5.47.07-.72.2-2.44-.5-2.92s-1.34.64-1.88,1.14a4.5,4.5,0,0,1-2.77.89,5.77,5.77,0,0,1-4.68-2.35,3,3,0,0,1-.45-.85c-.07,1.78,0,2.19.23,1.21a4.52,4.52,0,0,1,.67-1.22c.79-1.21,2.09-2,3-3.12.43-.53,1.25-2.4.73-3Z"/><path class="cls-18" d="M634.86,400,580.38,591.37l8.08,347.74s93.5,7,130.49-26.5L684,697.34l53-237Z"/><path class="cls-18" d="M514.19,401.32l-62,29.16s-35.32,9.32-28.1,45.91l20.41,202.68L410.64,912.61s29,34.84,86.79,14.37L522.88,586.2Z"/><path class="cls-26" d="M521.39,403.94s4.13-16,24.4-29.5l-2.65,55.11S531.89,401.36,521.39,403.94Z"/><path class="cls-21" d="M519.55,429.55l1.84-25.61c6.19-1.52,11.72,7.14,16.22,14.24Z"/><polygon class="cls-27" points="563.77 416.65 565.43 413.56 576.73 430.9 567.01 434.36 563.77 416.65"/><path class="cls-27" d="M537.61,418.18l-3.16-4.85s-12.08,10.14.6,21C535.05,434.36,535.05,425.39,537.61,418.18Z"/><path class="cls-27" d="M563.77,416.65s-9.58,8.52-26.16,1.53c-3.62,4.61-3.61,10.48-2.56,16.18l8.58,17.71h12L567,434.36S568.19,430.46,563.77,416.65Z"/><polygon class="cls-28" points="555.63 452.07 565.31 705.4 545.09 744.76 528.59 705.61 543.63 452.07 555.63 452.07"/><path class="cls-8" d="M622.62,612.62,647.52,593s37.51-5.5,56.24-3.14c0,0,6.18,8.61-41.12,9.93,0,0,33.18,10.59,43.83,18.48,0,0,1.71,9.82-28.63-4.44l-13.8-1,32.09,16s-1.25,6.11-30.47-1.83l-29.31,3.21Z"/><path class="cls-29" d="M463.11,616.27l160.51-19.19c8,9.8,15.76,27.6,12.33,46.22l-205,65S376.73,718,391,652.71C391,652.71,413.91,619.44,463.11,616.27Z"/><path class="cls-8" d="M463.11,616.27s28.84,15.55,39.66,16.78l16.78-29-22.93-14.87L480.9,585.6s-25.86-6.67-32.67,28.81Z"/><path class="cls-30" d="M750.09,672.44c9.69,58.65-33,43.84-33,43.84L499.63,638c6.13-33.7,19.92-39,19.92-39l186,35.5S740.57,645.52,750.09,672.44Z"/><path class="cls-31" d="M863,324.39s25.92,23.9,23.15,101.54V660.84s1.53,24.06,21.47,40c0,0-170.32,50-184.86-26.33V430.83s-7.9-102.52,31.57-120.94C754.32,309.89,824.19,281.1,863,324.39Z"/><path class="cls-8" d="M882,525.8c35.28,16.88,16.42,56.75,16.42,56.75l-45.87,166.9s-42.84,17.51-118,8.75c-10.45-15-31.91-77.56-39.1-125.37-5.92-39.38-24.31-78.17-4.28-100.13,7.68-8.42,66.2-16.82,66.49-18.2l69.08-.28Z"/><path class="cls-4" d="M831.13,951.05s-22.3,184.64-93.58,289.27c0,0-33.23,55.86-73.73,13.37,0,0-6.49-300.67,44.21-393.66C708,860,852.91,852.87,831.13,951.05Z"/><path class="cls-4" d="M726.5,519.58C702.09,518.9,669.66,543,669,567.42S681.61,654.8,700.2,639c36.54-31.12,54.78-49.84,55.46-74.25S750.91,520.26,726.5,519.58Z"/><path class="cls-4" d="M681.78,557l44.55-2,23.26,39.46S703,733.49,680.29,759c-24.19,27.23-26.59-3.34-28.95-15.45C651.34,743.59,664.93,580,681.78,557Z"/><path class="cls-4" d="M683.61,1669c-22.81,3.88-44.68-3.46-44.68-3.46l23.66-13.93s25.7-31.24,30.5-42.28c3.07-7.07,3.93-30,3.93-30l29.25,1.73.07,16.39L737,1622.33s1,11.74-20.28,14.1A423.54,423.54,0,0,1,683.61,1669Z"/><path class="cls-10" d="M662.59,1651.62c7.88,3.68,21.75,4.65,28.95-2.6,29-29.18,34.8-51.58,34.8-51.58,14.68,16.12,10.8,29.58,10.8,29.58l-1.09,5.57-8.36,42.86-3-.18-8.32-35.41L696,1672.7c-48.62,6.38-60.22-6.8-60.22-6.8Z"/><path class="cls-4" d="M663.82,1253.69s30,311.1,33.2,325.63c0,0,29.54,10,29.25,1.73-.65-20,28.47-148.23,30.38-179.66,3.05-50.45-5.16-84-31.41-151.85C725.24,1249.54,677,1216.06,663.82,1253.69Z"/><path class="cls-9" d="M763.18,747.29c-5.6-1-28.69,10.91-28.69,10.91S705.63,850.91,704.4,865s95.71,87.07,204,45.51c0,0-50.15-130.56-53.22-162.71S763.18,747.29,763.18,747.29Z"/><path class="cls-32" d="M734.49,758.2S706.83,841.81,704.4,865c-8.63,82.14,102.51,116.58,210.82,75,0,0,7-112.93-60-192.23C855.2,747.81,837.4,764.05,734.49,758.2Z"/><path class="cls-8" d="M836.89,1001l78.33-43s-12.71,247.81-22.63,317.42c0,0-43.82,12.2-57.39,3.19C794.57,1183.29,771,976.37,771,976.37Z"/><path class="cls-8" d="M884.34,885.46S921.93,896.3,914.15,966c-7.59,68-132.69,74.48-144.37,4.74C757.21,895.64,818.09,855.88,884.34,885.46Z"/><path class="cls-8" d="M831.52,519.58H756.13c3.43-11,10.53-39.39-.45-58.73l76.16-50S818.3,494.77,831.52,519.58Z"/><path class="cls-11" d="M761.55,486.62c.21-8.41-1.17-17.5-5.87-25.77l76.16-50s-5.52,34.2-6.08,65.4C798.26,485,786.94,488.37,761.55,486.62Z"/><path class="cls-8" d="M744,467.7l-4.57-11.12-11.45-32.82c-1.62-5.22-2.62-12.42-1.06-17.68a53.65,53.65,0,0,0,.14-27.72c-7.75-30,4.9-46.51,4.9-46.51C748.21,303.07,790,301.09,790,301.09c51.76.05,58.52,49.83,58.52,49.83,10,32.84-15.13,61.8-15.18,61.85-3.19,3.66-3.26,9.35-4.65,13.75a41.49,41.49,0,0,1-6.94,13c-6.83,8.69-15.9,17.14-25.38,22.59-9,5.17-26.63,10.9-39.33,11.41C751.75,473.75,746.58,474.08,744,467.7Z"/><path class="cls-31" d="M828.51,432.34c-.93-23.59-1.46-22.12-1.46-22.12-.89-6.86-13.65,8.68-13.84-.31-.8-41.14-16.72-59.93-22.71-62.8-16.29-7.77-33.13-9.39-46.27-6.36-20.59,4.74-18.39,32.36-18.39,32.36-22.85-100.34,91.71-73.73,91.71-73.73,55.72,11.65,52.68,63.76,52.68,63.76,9.57,55.29-43.59,90.12-43.59,90.12Z"/><path class="cls-12" d="M824.49,424.5a11.09,11.09,0,0,0,7.28,1.81c8-.51,14.25-8.34,14-17.45s-7-16.06-14.94-15.54a14,14,0,0,0-9.67,5c-3.64,4.21-3.38,11.63-2.22,16.69C819.84,419.07,821.62,422.5,824.49,424.5Z"/><path class="cls-13" d="M828,402c.22-4.8,10.13-.73,8.8,2-.77,1.59-2.41,2.81-3.68,4a7,7,0,0,0-2.71,5.37c0,.27,0,1.11.27,1.29,1.28.8,5.15-4.07,6-5.1,1.67-2,1.74-5.34.76-7.7a4.77,4.77,0,0,0-5.48-3.3c-2.16.23-4.36.5-4.1,3.19,0,.05.12.49.14.25Z"/><path class="cls-13" d="M831.35,406.76c-1.07-1-2-.07-3,.72a4.56,4.56,0,0,0-1.59,2.9,11.3,11.3,0,0,0,1.61,7.92,6,6,0,0,0,5.32,2.49c2.92-.23,3.64-2.84,3.63-5.31,0-.66,0-2.22-.69-2.6s-1.16.71-1.6,1.19a4.14,4.14,0,0,1-2.42,1.06,5.28,5.28,0,0,1-4.42-1.71,2.4,2.4,0,0,1-.49-.73c.09,1.61.19,2,.31,1.07a4.18,4.18,0,0,1,.5-1.17c.61-1.15,1.71-2,2.41-3.07.34-.5.93-2.27.4-2.76Z"/><path class="cls-1" d="M824.2,426.18a4.9,4.9,0,1,0,4.64-5.14A4.89,4.89,0,0,0,824.2,426.18Z"/><path class="cls-33" d="M745.22,517.32l-14.66,2.26s-28.45,55-35.17,113.25C702.58,680.64,717,753,734.49,758.2c59.27,17.52,121.14-10,121.14-10L884,635c-76.14-29.63-37.66-116.65-37.66-116.65l-16-3.84S773.77,556,745.22,517.32Z"/><path class="cls-33" d="M715.15,554.86s-29.74,41.21-34.94,62.43c-3.41,14,20.92,45.37,40.56,50.91C731.5,671.23,731.75,557.64,715.15,554.86Z"/><path class="cls-8" d="M851,1674.66c-22.54,5.23-44.8-.8-44.8-.8l22.8-15.31s23.79-32.71,27.92-44c2.65-7.25,2.15-30.21,2.15-30.21h29.31l1,16.35,12.1,24.21s1.69,11.67-19.4,15.29A424.52,424.52,0,0,1,851,1674.66Z"/><path class="cls-10" d="M829,1658.55c8.07,3.21,22,3.36,28.73-4.3,27.19-30.85,31.69-53.56,31.69-53.56,15.6,15.22,12.52,28.89,12.52,28.89l-.75,5.62-5.8,43.28h-3L882,1643.62l-18.36,34c-48.15,9.26-60.5-3.22-60.5-3.22Z"/><path class="cls-8" d="M895.64,1249.54l-64,19s24.64,301.25,27.48,315.85c0,0,29.38,8.3,29.31,0-.16-20,25.66-143.22,27.91-174.62C920.22,1355.76,934.89,1319.57,895.64,1249.54Z"/><path class="cls-32" d="M914.05,908.16l12.65,297.89s-162.27,37.55-274.93-14c0,0,10.3-254.83,56.11-339.35C707.88,852.75,904.86,834.53,914.05,908.16Z"/><path class="cls-8" d="M840,543.25c-13.77,20.16-6,39.71,5.12,61,11.33,21.64,80.33,36.6,77.06,12.41-6.44-47.57-11.3-74.66-32.5-86.79C871.71,519.58,853.75,523.07,840,543.25Z"/><path class="cls-8" d="M837.84,583.21l34.72-28,42.13,18s44.92,139.51,41.81,173.56C953.17,783,933.1,759.8,924,751.46,924,751.46,837.89,611.68,837.84,583.21Z"/><path class="cls-8" d="M955.68,744s5.48,98.19-9.53,163.81c0,0-19,11.29-20.51-2.5-2.55-23.43-22.23-138.79-17.22-179.71C910,712.35,955.68,744,955.68,744Z"/><path class="cls-8" d="M937.3,988.12s-5.12,2.5-1.66-9.49l4.05-18.71S935.62,991.09,925,997c0,0-1.92,1.74-4-2.39,0,0,9-26.56,9-37.36,0,0-2.35,32.48-14.36,41.82,0,0-6.08,2.58-6-3.82,0,0,9.22-23,10.07-41.27,0,0-7.18,31.74-13.82,40.54,0,0-6.76,1.41-5.32-6.13,0,0,5.17-19,9.09-40.93,0,0-12.39,10.5-21.84,5.59l28-40.89,9.81-6.91,20.51,2.5L948.53,932s1.46,25.42-6.08,49.27C942.45,981.31,940.47,987.36,937.3,988.12Z"/><polygon class="cls-34" points="708.9 659.84 769.75 793.77 645.88 782.33 590.03 650.9 708.9 659.84"/><path class="cls-4" d="M609.66,692.37c2.35,4.34,4.88,8.27,8.67,11.27,4.32,3.43,11.55,2.39,14.33,4.89,4.84,4.35,1.41,16.1-8.82,27.88-8.87,10.23-15.41-3.15-18.4-11.39-4.41-12.16-4.12-17.59.92-27.41Z"/><path class="cls-35" d="M1515,544l4.41-165.52c3.14-38.69-12-52.73-12-52.73-64.55-24.21-97.12,8.48-97.12,8.48V503.27C1438.25,529.46,1478.05,546.81,1515,544Z"/><path class="cls-8" d="M1340.44,526.09c-33.94,16.59-15.07,56.46-15.07,56.46l45.86,166.9s42.84,17.51,118,8.75c10.45-15,31.91-77.56,39.1-125.37,5.92-39.38,24.31-78.17,4.28-100.13-7.68-8.42-66.19-16.82-66.49-18.2h-70.42Z"/><path class="cls-36" d="M1495.94,378.43l-4.4,164.79A110.88,110.88,0,0,0,1515,544l4.41-165.52c3.14-38.69-12-52.73-12-52.73-23-8.63-41.91-10-56.76-8.24a138.22,138.22,0,0,1,33.33,8.24S1499.07,339.74,1495.94,378.43Z"/><path class="cls-37" d="M1446.85,751.21h0Z"/><path class="cls-4" d="M1527.32,529.45c21.8,11,25.27,36.36,21.67,59.42-3.76,24.12-46.92,74.78-57.51,52.77-20.81-43.25-30.54-76-21.28-98.64S1492.38,511.83,1527.32,529.45Z"/><path class="cls-4" d="M1549.77,565.32l-50.68-2.3-25.29,38.2s39.29,141.2,60.65,167.9c22.74,28.45,26.72-2,29.71-13.92C1564.16,755.2,1557.68,597.3,1549.77,565.32Z"/><path class="cls-38" d="M1561.78,979.91l3.11,21-12.21,27.81s5.16,4.62,10.87-4.5l10.88-22.93-1.53-23.63Z"/><path class="cls-38" d="M1567.37,987l4.27,20.76L1561,1036.22s5.4,4.32,10.59-5.11l9.58-23.51-2.85-23.49Z"/><path class="cls-4" d="M1590.81,991.65l-3.8-24.38L1582.83,937l-18.93-2.62-6.51,31.91L1555.82,983l-1.91,22.88-1,7.39s5.92,1.91,10.54-9.85l4.83-21.57,8.2,17-7,29.77s1.78,15.54,6.44,9.68l15.66-41.79Z"/><path class="cls-4" d="M1517.22,734.78s24.53,116,46.68,199.61c0,0,16.27,19.32,18.93,2.62,5.32-33.33-12.32-214-20.85-227.8S1517.22,734.78,1517.22,734.78Z"/><path class="cls-4" d="M1474.1,1673.34c22.81,3.89,44.68-3.46,44.68-3.46L1495.11,1656s-25.69-31.24-30.49-42.28c-3.07-7.07-3.94-30-3.94-30l-29.24,1.73-.07,16.39-10.65,24.89s-1,11.74,20.28,14.11A423.36,423.36,0,0,0,1474.1,1673.34Z"/><path class="cls-39" d="M1495.11,1656c-7.87,3.68-21.74,4.65-28.93-2.6-29-29.17-34.81-51.58-34.81-51.58-14.68,16.12-10.8,29.58-10.8,29.58l1.09,5.57,8.36,42.86,3-.17,8.33-35.42,20.33,32.84c48.62,6.38,60.22-6.81,60.22-6.81Z"/><path class="cls-4" d="M1493.89,1258s-30,311.12-33.21,325.64c0,0-29.53,10-29.24,1.73.65-20-28.47-148.24-30.38-179.66-3-50.45,5.16-84,31.41-151.85C1432.47,1253.88,1480.75,1220.4,1493.89,1258Z"/><path class="cls-4" d="M1383,938.79s-11.2,185.64,40.14,301.36c0,0,22.67,60.92,70.13,26.39,0,0,60.35-294.62,27.16-395.21C1520.42,871.33,1379.18,838.29,1383,938.79Z"/><path class="cls-9" d="M1460.57,747.29c5.6-1,28.69,10.91,28.69,10.91s28.86,92.71,30.09,106.81-95.71,87.07-204,45.51c0,0,50.15-130.56,53.22-162.71S1460.57,747.29,1460.57,747.29Z"/><path class="cls-40" d="M1489.26,758.2s27.66,83.61,30.09,106.81c8.63,82.14-102.51,116.58-210.81,75,0,0-7-112.93,60-192.23C1368.55,747.81,1386.35,764.05,1489.26,758.2Z"/><path class="cls-8" d="M1386.86,1001l-78.32-43s12.7,247.81,22.63,317.42c0,0,43.81,12.2,57.39,3.19,40.62-95.3,64.15-302.22,64.15-302.22Z"/><path class="cls-8" d="M1339.41,885.46S1301.82,896.3,1309.6,966c7.59,68,132.69,74.48,144.37,4.74C1466.55,895.64,1405.66,855.88,1339.41,885.46Z"/><path class="cls-8" d="M1392.23,519.58h75.39c-3.43-11-10.53-39.39.45-58.73l-76.16-50S1405.45,494.77,1392.23,519.58Z"/><path class="cls-11" d="M1462.2,486.62c-.21-8.41,1.18-17.5,5.87-25.77l-76.16-50s5.52,34.2,6.08,65.4C1425.49,485,1436.81,488.37,1462.2,486.62Z"/><path class="cls-8" d="M1479.79,467.7l4.57-11.12,11.45-32.82c1.62-5.22,2.62-12.42,1.07-17.68a53.63,53.63,0,0,1-.15-27.72c7.75-30-4.9-46.51-4.9-46.51-16.29-28.78-58-30.76-58-30.76-51.77.05-58.53,49.83-58.53,49.83-10,32.84,15.13,61.8,15.19,61.85,3.18,3.66,3.25,9.35,4.65,13.75a41.26,41.26,0,0,0,6.93,13c6.83,8.69,15.9,17.14,25.38,22.59,9,5.17,26.63,10.9,39.33,11.41C1472,473.75,1477.18,474.08,1479.79,467.7Z"/><path class="cls-35" d="M1395.24,432.34c.93-23.59,1.46-22.12,1.46-22.12.89-6.86,13.66,8.68,13.84-.31.8-41.14,16.72-59.93,22.72-62.8,16.28-7.77,33.13-9.39,46.26-6.36,20.59,4.74,18.39,32.36,18.39,32.36,22.85-100.34-91.71-73.73-91.71-73.73-55.72,11.65-52.68,63.76-52.68,63.76-9.57,55.29,43.59,90.12,43.59,90.12Z"/><path class="cls-12" d="M1399.26,424.5a11.09,11.09,0,0,1-7.28,1.81c-8-.51-14.25-8.34-14-17.45s7-16.06,14.94-15.54a14,14,0,0,1,9.67,5c3.64,4.21,3.38,11.63,2.23,16.69C1403.91,419.07,1402.13,422.5,1399.26,424.5Z"/><path class="cls-13" d="M1395.75,402c-.22-4.8-10.13-.73-8.79,2,.76,1.59,2.4,2.81,3.67,4a7,7,0,0,1,2.71,5.37c0,.27,0,1.11-.26,1.29-1.29.8-5.16-4.07-6-5.1-1.66-2-1.74-5.34-.76-7.7a4.77,4.77,0,0,1,5.48-3.3c2.17.23,4.36.5,4.1,3.19,0,.05-.12.49-.14.25Z"/><path class="cls-13" d="M1392.41,406.76c1.06-1,2-.07,3,.72a4.55,4.55,0,0,1,1.58,2.9,11.25,11.25,0,0,1-1.61,7.92,6,6,0,0,1-5.31,2.49c-2.92-.23-3.65-2.84-3.64-5.31,0-.66,0-2.22.69-2.6s1.17.71,1.6,1.19a4.14,4.14,0,0,0,2.42,1.06,5.28,5.28,0,0,0,4.42-1.71,2.23,2.23,0,0,0,.49-.73c-.09,1.61-.18,2-.31,1.07a4.18,4.18,0,0,0-.5-1.17c-.61-1.15-1.71-2-2.41-3.07-.34-.5-.92-2.27-.39-2.76Z"/><path class="cls-1" d="M1399.55,426.18a4.9,4.9,0,1,1-4.64-5.14A4.89,4.89,0,0,1,1399.55,426.18Z"/><path class="cls-14" d="M1508.6,554.86s29.75,41.21,34.94,62.43c3.41,14-20.92,45.37-40.56,50.91C1492.26,671.23,1492,557.64,1508.6,554.86Z"/><path class="cls-40" d="M1508.6,554.86s29.75,41.21,34.94,62.43c3.41,14-20.92,45.37-40.56,50.91C1492.26,671.23,1492,557.64,1508.6,554.86Z"/><path class="cls-40" d="M1478.53,517.32l16.92,2.26s27.09,55.34,33.82,113.59c-7.2,47.81-22.52,119.85-40,125-59.26,17.52-121.14-10-121.14-10L1339.78,635c76.13-29.63,37.65-116.65,37.65-116.65l16-3.84S1445.68,561.47,1478.53,517.32Z"/><path class="cls-8" d="M1372.71,1674.66c22.54,5.23,44.8-.8,44.8-.8l-22.8-15.31s-23.79-32.71-27.92-44c-2.65-7.25-2.15-30.21-2.15-30.21h-29.31l-1,16.35-12.1,24.21s-1.69,11.67,19.41,15.29A425.48,425.48,0,0,0,1372.71,1674.66Z"/><path class="cls-39" d="M1394.71,1658.55c-8.07,3.21-22,3.36-28.73-4.3-27.18-30.85-31.69-53.56-31.69-53.56-15.59,15.22-12.52,28.89-12.52,28.89l.75,5.62,5.8,43.28h3l10.41-34.86,18.36,34c48.15,9.26,60.5-3.22,60.5-3.22Z"/><path class="cls-8" d="M1328.12,1249.54l64,19s-24.64,301.25-27.48,315.85c0,0-29.38,8.3-29.31,0,.16-20-25.66-143.22-27.91-174.62C1303.53,1355.76,1288.87,1319.57,1328.12,1249.54Z"/><path class="cls-8" d="M1385.29,561.58c1.51,24.37-11.22,48.3-35.6,49.8s-87.76-9.63-72.56-28.74c29.85-37.59,47.94-56.45,72.31-58S1383.79,537.2,1385.29,561.58Z"/><path class="cls-8" d="M1366.7,597l-15.5-41.82-45.4-6.1s-110,96.9-124.68,127.76c-15.69,32.87,13.41,23.21,25.49,20.68C1206.61,697.54,1352.11,621.46,1366.7,597Z"/><path class="cls-8" d="M1178.61,698s54.78,77.07,105.8,121c0,0,22-2.19,15-14.18-11.85-20.37-60.6-115.74-72.58-136.18C1220.12,657.14,1178.61,698,1178.61,698Z"/><path class="cls-8" d="M1299.44,804.8l12-.26,28.34-12.81c-.14,15.9,1.49,32.09,1.49,32.09a307.12,307.12,0,0,1,23,27.26c5.64,5.2-.64,8.09-.64,8.09-10.57-3.14-30.52-18.69-30.52-18.69,10,10.32,29,25,29,25,3.86,5.11-2.57,6.64-2.57,6.64-15.2-.38-32.78-22.94-32.78-22.94,6.37,8.73,24.49,23.83,24.49,23.83.78,4.55-1.78,4.29-1.78,4.29-12.1,1.54-29-20.22-29-20.22l6.52,8c9.9,10.13.78,11.19.78,11.19l-6-4.5a82.59,82.59,0,0,1-24.95-31.87L1284.41,819Z"/><path class="cls-36" d="M1473.54,339.74l-39.81-43.51C1481,280.17,1509.3,328,1509.3,328l-9,11.7S1483.3,301.09,1473.54,339.74Z"/><path class="cls-40" d="M1527.23,1080.15c6.71-79.47,8.86-175.53-11.88-227.4,0,0-188.26,12.36-206.17,55.41,0,0-9.1,49.77-1.54,172C1307.64,1080.15,1438.7,1111.62,1527.23,1080.15Z"/><path class="cls-41" d="M1331.91,484.79c0,27.1,53,50.15,87.94,58.21-1.53-31.9-1.57-55.94-1.57-55.94-3.38-61.13-1.52-83.79,4-126.08,4.33-33,28.27-46.32,51.23-21.24-.93-1-1.15-4.53-1.61-5.91a49.22,49.22,0,0,0-2.46-6.19c-8-16.85-24.36-28.83-42.08-33.93A48.52,48.52,0,0,0,1408.3,292c-21.83,2.38-48.84,17.75-59.8,36.89-10.74,18.77-13.15,42.41-14.9,63.57a362.53,362.53,0,0,0-1.57,36.24S1332.46,451.6,1331.91,484.79Z"/><path class="cls-42" d="M1013.11,459.86c5,5,6.93,12.58,9.37,19.27,18.81-24.81,32.65-73.55,5.86-95.89C988.07,349.67,987.26,434.12,1013.11,459.86Z"/><path class="cls-38" d="M926.75,1127.23l-3.11,21L935.85,1176s-5.17,4.62-10.87-4.5l-10.88-22.93,1.53-23.62Z"/><path class="cls-38" d="M921.16,1134.32l-4.27,20.77,10.62,28.45s-5.4,4.32-10.59-5.11l-9.58-23.5,2.85-23.5Z"/><path class="cls-4" d="M897.72,1139l3.8-24.38,4.18-30.25,18.93-2.62,6.51,31.9,1.57,16.75,1.91,22.88,1,7.39s-5.93,1.9-10.54-9.85l-4.82-21.58-8.21,17,7,29.78s-1.78,15.54-6.44,9.67l-15.66-41.78Z"/><path class="cls-4" d="M970.55,878.27s-41.89,165.11-45.92,203.45c0,0-16.27,19.32-18.93,2.62-5.32-33.34,2.24-207.87,10.77-221.68S970.55,878.27,970.55,878.27Z"/><path class="cls-4" d="M936.55,679.35l-13.75,4.49S901,853.19,919.45,891s39.64-.19,46.55-4.47,51-196.09,51-196.09Z"/><path class="cls-43" d="M907,871.36l8.8-212.16c10-52.08,63.27-36.58,63.27-36.58,43.24,11.26,41.17,59.71,41.17,59.71L983,885.55s-7.79,31.07-47.79,31.07C935.21,916.62,905.7,912.64,907,871.36Z"/><rect class="cls-1" x="905.71" y="1079.27" width="19.32" height="33.61" transform="translate(-211.52 1973.22) rotate(-88.03)"/><path class="cls-43" d="M979.34,892.69s-18.55,124.72-45.16,201.11c0,0-22.82,2.14-35.83-1.24,0,0-2-178.83,12.74-236.68C911.09,855.88,984.63,857.41,979.34,892.69Z"/><path class="cls-19" d="M952.3,1681.62s-7.5,29.21-16.72,37.13-44.4,19.57-44.4,19.57l-19.5,2.8s-13.54,9.72,23.64,19.94,102.45-20.62,102.45-20.62l-14.72-59.71Z"/><path class="cls-19" d="M1151,1762c6.57-10.23,20.31-66,20.31-66l30.39-.92,19,61.36s3,10.27-3.15,14.12c0,0-37.9,13.15-70.25-.63C1147.29,1769.92,1147.63,1767.18,1151,1762Z"/><path class="cls-8" d="M962.62,915.69,923.84,678.6S910.46,643,937.2,625.14l101.89-47.89H1111l122.49,72.39-80.29,266.05Z"/><path class="cls-44" d="M1153.15,915.69s22,50.24,27.31,165.73c0,0-165.6,51.94-217.54,0l-.3-165.73Z"/><path class="cls-44" d="M1044.59,1080.92c-.28,38.75,29.9,70.4,67.41,70.67s68.17-30.91,68.46-69.67-29.91-70.39-67.42-70.67S1044.87,1042.17,1044.59,1080.92Z"/><path class="cls-44" d="M1180.39,1090.46l18,295.13s-31.89,76.75-88.34,29.57l-61.29-303.6S1078.53,1009.53,1180.39,1090.46Z"/><path class="cls-44" d="M1198.41,1385.59s17,55.41,11.93,151.91l5.05,180.39-62.51,1.24-42.51-303S1152.93,1317.86,1198.41,1385.59Z"/><path class="cls-44" d="M963.23,1081.61c-3.93,38.55,9.85,71.53,47.17,75.34s70.78-24.36,74.71-62.91-23.14-72.9-60.46-76.71S967.16,1043.05,963.23,1081.61Z"/><path class="cls-44" d="M1069.18,1132.37l-34.29,271.9s-74.35,33-87.56-13.16c0,0,1.73-207.13,15.9-309.5C963.23,1081.61,1055,1036.89,1069.18,1132.37Z"/><path class="cls-44" d="M1034.89,1393.16s10.43,39.89-.84,112.7L1008.25,1712l-65.86-3.49,4.94-328.28S988.34,1337.16,1034.89,1393.16Z"/><path class="cls-8" d="M1217.65,894.56c14,140.42,8.26,149.71,6.8,206,0,0,7.48,19.82,20.21,8.69s33-198.12,26.64-213C1261.78,874.11,1217.65,894.56,1217.65,894.56Z"/><path class="cls-8" d="M1226.52,1095l-19.75,19.74L1190,1139.32c8.31,5.59,17-8.17,17-8.17-5.43,21.67-16,40.8-16,40.8-2.55,7.77,4.78,7.19,4.78,7.19,8.2-8.41,18.68-33.22,18.68-33.22-3.94,14.78-14,38.33-14,38.33-.94,6.76,5.83,4.84,5.83,4.84,13.93-8.25,18.56-38.34,18.56-38.34-1.39,11.41-10.39,34.86-10.39,34.86,1.62,4.65,3.89,3.06,3.89,3.06,12-4.83,16.4-33.81,16.4-33.81l-1.92,10.8c-3.93,14.56,5.09,10.8,5.09,10.8l3.25-7.3a88,88,0,0,0,6.65-42.57l-.06-26.21Z"/><path class="cls-8" d="M1186.57,654c47.29-10.77,63.44,32.94,63.44,32.94s23.75,145.49,23.46,207.84c-.2,42.08-51.53,8.19-54.9.79-7.44-16.32-61.39-191.57-61.39-191.57S1154.37,662.83,1186.57,654Z"/><path class="cls-45" d="M1210.57,898l-61.33-198.84c1.37-49.43,49.74-56.8,49.74-56.8,45.49-4.36,55.45,34.78,55.45,34.78l22,199.05s7.46,44.75-18.39,45.4C1258,921.61,1214.67,926.31,1210.57,898Z"/><polygon class="cls-1" points="1254.39 1088.81 1250.61 1107.75 1217.65 1101.16 1221.43 1082.22 1254.39 1088.81"/><path class="cls-45" d="M1206.85,886s7.94,167,10.8,201.2l37.29,7.84s33.72-167.4,21.49-218.78C1276.43,876.21,1227.71,849.63,1206.85,886Z"/><path class="cls-8" d="M1111.3,524.88v76.81h-81.22s20-30.45,10-76.81Z"/><path class="cls-11" d="M1070.1,590.11c-7.31,4.7-22.87,14.73-31.75,8.87a8.41,8.41,0,0,1-3.86-6c5.22-12.17,12.41-36.43,5.58-68.14h71.23v7C1102.42,554.33,1091,576.62,1070.1,590.11Z"/><path class="cls-12" d="M1113.24,526s13.83-6,29.48-40.22c0,0,34-40.45,9.9-86.38,0,0-14.24-38.85-83.19-28C1069.43,371.39,1063.22,475.48,1113.24,526Z"/><path class="cls-8" d="M1028.32,546.73l-4.6-12L1011,489.87a46,46,0,0,1-.66-19c1.11-6.3,1.82-12.89.18-19.53-8-32.23,8.51-50.52,8.51-50.52,18.2-30.39,63-31.4,63-31.4,55.46,1.44,61.36,54.94,61.36,54.94,9.83,35.45-17.85,65.8-17.91,65.87-2.21,2.41-.78,14.12-1.38,17.47-2.59,14.3-16,23.37-27.93,29.67-13.1,6.93-29,14.34-43.77,16C1046.82,554.1,1031,553.64,1028.32,546.73Z"/><path class="cls-1" d="M1166.34,909.25c-.17,7.9,11.82,90.54,6.79,91.6,0,0-137.1,31.59-210.21,0l-.3-85.16L923.84,678.6S910.46,643,937.2,625.14l101.89-47.89-6.88,20.65,14.73,41.9,64-62.55,122.49,72.39q-10.26,34-20.5,68.06c-12.62,41.82-24.91,83.76-37.92,125.46C1175,843.16,1164.25,888.39,1166.34,909.25Z"/><polygon class="cls-46" points="1055.79 592.16 1056.63 630.33 1070.69 616.59 1055.79 592.16"/><path class="cls-47" d="M1037.88,653.71a5.45,5.45,0,1,0,5.45-5.44A5.45,5.45,0,0,0,1037.88,653.71Z"/><path class="cls-47" d="M1037.88,752.62a5.45,5.45,0,1,0,5.45-5.45A5.45,5.45,0,0,0,1037.88,752.62Z"/><path class="cls-47" d="M1037.88,851.52a5.45,5.45,0,1,0,5.45-5.45A5.45,5.45,0,0,0,1037.88,851.52Z"/><circle class="cls-47" cx="1043.33" cy="950.43" r="5.45" transform="translate(-284.29 471.61) rotate(-22.5)"/><line class="cls-48" x1="1055.79" y1="634.68" x2="1055.79" y2="1010.04"/><path class="cls-24" d="M963.77,1008.66s70,32.8,213.29-.72c2.36-.56,1.36-6.67,1.36-6.67l-1.36-13.79c-.63-4.42-3.09-4.21-3.09-4.21s-137.11,31.59-210.2,0c0,0-3-.52-3.08,3.91v17.19S960.69,1007.81,963.77,1008.66Z"/><path class="cls-25" d="M1034.89,1019.07a3.9,3.9,0,0,0,3.86,4h27.88a3.92,3.92,0,0,0,3.87-4V999a3.93,3.93,0,0,0-3.87-4h-27.88a3.91,3.91,0,0,0-3.86,4Z"/><line class="cls-25" x1="1070.5" y1="1007.77" x2="1055.73" y2="1007.77"/><path class="cls-47" d="M1055.79,591.3s44.94-17.46,55.51-34.84l13.29,25.31-47.39,45.44-21.41-35.05"/><path class="cls-42" d="M1099.89,409.69c1.52,2.73,7.55,21.79.13,31.34,15.65,12,8.09,36.4,8.09,36.4l3.8.21c22-5.68,14.59,35.87,14.59,35.88.16-.95,3.82-3.28,4.55-4,4.29-4.12,13.34-18.9,16.19-24.11,15.46-28.35,14-29.8,18.15-46.53,2.84-11.43,1.61-42.38-15-57.94C1150.37,381,1131,381,1099.89,409.69Z"/><path class="cls-8" d="M1117.2,495.48a12.34,12.34,0,0,0,7.81,2.79c8.84.28,16.55-7.64,17.23-17.7s-5.93-18.4-14.76-18.67a15.53,15.53,0,0,0-11.18,4.48c-4.44,4.24-5,12.42-4.22,18.11C1112.67,489,1114.26,493,1117.2,495.48Z"/><path class="cls-13" d="M1123.48,471.09c.77-5.26,11.2.29,9.45,3.18-1,1.67-3,2.83-4.47,4a7.81,7.81,0,0,0-3.55,5.61c-.05.31-.15,1.22.14,1.46,1.34,1,6.11-3.93,7.15-5,2-2,2.5-5.69,1.68-8.38-.87-2.86-2.66-4.28-5.68-4.23-2.4,0-4.86.08-4.85,3.07,0,.07.09.57.13.3Z"/><path class="cls-13" d="M1126.64,476.72c-1.06-1.17-2.16-.29-3.34.48a5,5,0,0,0-2.06,3,12.39,12.39,0,0,0,.93,8.87,6.64,6.64,0,0,0,5.58,3.32c3.22,0,4.3-2.75,4.56-5.46.07-.72.21-2.45-.49-2.93s-1.34.65-1.88,1.14a4.43,4.43,0,0,1-2.76.89,5.78,5.78,0,0,1-4.7-2.35,3.07,3.07,0,0,1-.44-.84c-.08,1.77,0,2.18.22,1.2a4.81,4.81,0,0,1,.67-1.22c.8-1.2,2.1-2,3-3.12.43-.52,1.26-2.4.73-3Z"/><path class="cls-45" d="M1131.3,589.28l-54.48,191.39,8.08,347.75s84.66-5.19,121.65-38.66l-26.09-203.12,53-237Z"/><path class="cls-49" d="M1131.3,589.28l-54.48,191.39.22,9.09,68.63-70.24s7.21-12.18-2.56-19.4l-16.21-15.51,11.56-8.29s16.22-7.87,14.25-22.61l-4.64-55.42Z"/><path class="cls-45" d="M1010.62,590.62l-62,29.17s-35.31,9.32-28.09,45.91l20.4,202.68-10.21,214.75s-8.75,39.91,63.19,33.15l25.45-340.77Z"/><path class="cls-47" d="M1017.83,593.24s4.13-16,24.39-29.5l-2.65,55.11S1028.33,590.66,1017.83,593.24Z"/><path class="cls-46" d="M1016,618.85l1.85-25.61c6.18-1.52,11.72,7.14,16.22,14.24Z"/><path class="cls-49" d="M1010.62,590.62l-16,7.52-11.55,53.37s-5.79,13.81,2.59,17.42l15.08,8.8L979.5,691.18s-11.18,7-4.3,17.32l42.63,83.22,1.34-14.23Z"/><path class="cls-50" d="M1117.84,503.54l-5.93-25.9-3.8-.21s-3.83,17.16-24.35,20.19c0,0-8.88,1.34-12.66,1.84-.49.08-6-5.33-6.66-5.79-6.07-3.95-13.37-5-20.46-5.58s-15-1.25-21.91,1.39c-.93.35-9.79,4.84-10.09,3.58,0,0,9.39,41.49,16,53.35,0,0,2.89,9.13,24.22,6.9,0,0,36.61-3.25,65-29.75C1122,520,1117.84,503.54,1117.84,503.54Zm-95.57-1.78c.84-4.31,1-7,4.7-7.71,7.31-1.35,15.29-.1,22.56.83,5.89.74,13.17,1.5,15.58,7.92,2.12,5.66.56,13.9-2.41,19.06-5,8.71-21.3,13.2-29.54,7.56C1026.14,524.61,1020.7,509.9,1022.27,501.76Z"/><polygon class="cls-51" points="1060.2 605.96 1061.86 602.86 1073.16 620.2 1063.44 623.66 1060.2 605.96"/><path class="cls-51" d="M1034.05,607.48l-3.17-4.85s-12.07,10.14.61,21C1031.49,623.66,1031.48,614.7,1034.05,607.48Z"/><path class="cls-51" d="M1060.2,606s-9.58,8.51-26.15,1.52c-3.62,4.62-3.61,10.49-2.56,16.18l8.58,17.71h12l11.39-17.71S1064.62,619.76,1060.2,606Z"/><polygon class="cls-52" points="1052.06 641.37 1061.75 894.71 1041.53 934.06 1025.02 894.91 1040.07 641.37 1052.06 641.37"/><path class="cls-42" d="M1096.71,406.23l18.5-9.2L1150.37,381s0-24.1-44.36-33.4c0,0-54.38-8.59-97.65,14.3,0,0-11.8,6.44-21.1.72C987.26,362.59,1002.29,425.54,1096.71,406.23Z"/></g></g></svg>