<svg xmlns="http://www.w3.org/2000/svg" viewBox="0 0 425.2 408.86"><defs><style>.cls-1{isolation:isolate;}.cls-2,.cls-36,.cls-7{fill:#fff;}.cls-20,.cls-22,.cls-28,.cls-29,.cls-3,.cls-34{fill:none;stroke:#2c343f;stroke-linecap:round;stroke-linejoin:round;}.cls-3{stroke-width:2.71px;}.cls-4{fill:#745615;}.cls-5{fill:#f7c7ad;}.cls-6{fill:#dadada;}.cls-15,.cls-16,.cls-6,.cls-8{mix-blend-mode:multiply;}.cls-7{opacity:0.5;}.cls-36,.cls-7{mix-blend-mode:soft-light;}.cls-8{fill:#ededed;}.cls-9{fill:#d42a26;}.cls-10{fill:#00b1c3;}.cls-11{fill:#ab251c;}.cls-12,.cls-16{fill:#c6c6c6;}.cls-13{fill:#dedede;}.cls-14{fill:#dc9f2e;}.cls-17{fill:#be7500;}.cls-18{fill:#464f5b;}.cls-19{fill:#f9b233;}.cls-20{stroke-width:3.09px;}.cls-21{fill:#232a33;}.cls-22{stroke-width:2.56px;}.cls-23{fill:#0d3953;}.cls-24{fill:#031b2b;}.cls-25{fill:#be1622;}.cls-26{fill:#432918;}.cls-27{fill:#00818d;}.cls-28{stroke-width:3.11px;}.cls-29{stroke-width:3.17px;}.cls-30{fill:#140600;}.cls-31{fill:#009ab0;}.cls-32{fill:#20150e;}.cls-33{fill:#8f2015;}.cls-34{stroke-width:3.62px;}.cls-35{fill:#3c444e;}.cls-36{opacity:0.2;}</style></defs><g class="cls-1"><g id="Layer_2" data-name="Layer 2"><g id="Capa_1" data-name="Capa 1"><rect class="cls-2" width="425.2" height="408.86"/><path class="cls-3" d="M162.46,158.49l-.08-4.67A8,8,0,0,0,159,148.2s-9.33-5.75-10.09-28.06c0,0-1.26-31-37.38-30.35l-16.82.31"/><path class="cls-3" d="M37.15,160.81l-.09-4.67a8,8,0,0,1,3.12-5.74s9.12-6.09,9-28.42c0,0,.11-31,36.23-31.7L102.28,90"/><rect class="cls-4" x="61.63" y="156.7" width="72.44" height="79.3" transform="translate(-3.62 1.85) rotate(-1.06)"/><path class="cls-5" d="M141.87,227.5c-18.13-1.7-27.13-6.89-28.67-7.85l-32.21.6c-1.51,1-10.32,6.53-28.36,8.91,0,0-34.45,1.93-32.33,64.41,0,0,26.16,11.22,78.34,10.15,52.19-.87,77.92-13.05,77.92-13.05C176.36,228.15,141.87,227.5,141.87,227.5Z"/><path class="cls-2" d="M52.63,229.16s-34.45,1.93-32.33,64.41c0,0,26.16,11.22,78.34,10.15,52.19-.87,77.92-13.05,77.92-13.05-.2-62.52-34.69-63.17-34.69-63.17s-33.62-1.76-44.4,12.74C97.47,240.24,86.49,222.86,52.63,229.16Z"/><rect class="cls-5" x="80.55" y="202.57" width="32.89" height="23.92" transform="translate(-3.96 1.83) rotate(-1.06)"/><path class="cls-6" d="M80.45,209.69h0c.37.42.75.84,1.14,1.24a38.4,38.4,0,0,0,3.3,2.95L85,214c.37.26.75.52,1.14.77.59.38,1.18.76,1.79,1.11.89.5,1.78,1,2.71,1.42.29.11,1.16.45,1.43.54.89.28,1.78.56,2.69.78s1.87.45,2.81.62a16.19,16.19,0,0,1,1.84.31,51.39,51.39,0,0,0,6.68.25c1,0,1.92-.07,2.87-.16.3,0,1.73-.27,1.87-.27.91-.22,1.8-.49,2.68-.79l-.3-16.28-32.88.61.12,6.74C80.55,209.76,80.57,209.82,80.45,209.69Z"/><path class="cls-5" d="M133.38,158.64c.53,28.33-15.8,51.6-36.46,52S59.08,188.35,58.55,160s15.9-46.39,36.56-46.77S132.86,130.32,133.38,158.64Z"/><path class="cls-7" d="M75.6,136.57a1.2,1.2,0,0,1,0-.2,26.69,26.69,0,0,1,20.45-10c16.15-.31,29.49,13.32,29.9,35.45.27,14.75-5.3,27.73-13.83,34.85C112.15,196.63,63.12,191.71,75.6,136.57Z"/><path class="cls-8" d="M90.88,199.45c-12.89-7.8-20.1-21.31-22.13-35.95-1.92-13.75,1.31-29.07,9.85-40.13a38.12,38.12,0,0,1,11.05-9.58c-18,3.19-31.58,20.46-31.1,46.24.53,28.32,17.7,51,38.37,50.59a29.35,29.35,0,0,0,16.6-5.69A39.54,39.54,0,0,1,90.88,199.45Z"/><path class="cls-9" d="M79.43,221.2c-3.46,2-12,6-26.8,8,0,0-34.45,1.93-32.33,64.41,0,0,26.16,11.22,78.34,10.15,52.19-.87,77.92-13.05,77.92-13.05-.2-62.52-34.69-63.17-34.69-63.17-14.83-1.39-23.56-5.12-27.09-6.95,0,0,19.14,40.62-16.23,78.15C98.55,298.7,63,263.43,79.43,221.2Z"/><path class="cls-10" d="M69,251.12a1.84,1.84,0,0,0,.05.25c.14.63.29,1.27.44,1.9l.28-.12C69.49,252.48,69.24,251.81,69,251.12Z"/><path class="cls-11" d="M141.87,227.5c-14.83-1.39-23.56-5.12-27.09-6.95,0,0,19.14,40.62-16.23,78.15,0,0-35.51-35.27-19.12-77.5-3.46,2-12,6-26.8,8a28.53,28.53,0,0,0,6.87,28.06s5.17-2.91,8-2.16l-9.85,7.52S60.52,291,91.71,303.85l15.67-.29S134,290,138,255.36c0,0-2.55-2.77-10.3-5a24.11,24.11,0,0,1,10.18-1S147.93,243.81,141.87,227.5Z"/><path class="cls-8" d="M141.87,227.5c-14.83-1.39-23.56-5.12-27.09-6.95,0,0,19.14,40.62-16.23,78.15,0,0-.35-.35-1-1h0c-4.43,1.46-9.19-1-12.84-3.29a62.43,62.43,0,0,1-11.91-9.57c-3.48-3.7-7.24-8.33-8.08-13.51-1.14-7,1.38-12.94,7.44-16.85a8.23,8.23,0,0,1,3.56-1.25,62.81,62.81,0,0,1,3.66-32c-3.46,2-12,6-26.8,8,0,0-.08.21-.2.61,4-.44,7.85-1.28,11.68.85,7.58,4.22,6.51,13.58,1.89,19.55a21,21,0,0,1-7.68,5.74c.38.43.77.87,1.18,1.31,0,0,5.17-2.91,8-2.16l-9.85,7.52S60.52,291,91.71,303.85l15.67-.29S134,290,138,255.36c0,0-2.55-2.77-10.3-5a24.11,24.11,0,0,1,10.18-1S147.93,243.81,141.87,227.5Z"/><path class="cls-8" d="M141.87,227.5a103.21,103.21,0,0,1-11.08-1.63,20.55,20.55,0,0,1,1.45,6.14c.33,4.89-1.16,10.38-4.84,13.84a22.73,22.73,0,0,1-7.52,4.65c0,.23,0,.46,0,.69,14.31,14.61-2,45-20.4,46.54-.29.33-.59.65-.89,1l-.1-.11.09,5.13,8.84-.16S134,290,138,255.36c0,0-2.55-2.77-10.3-5a24.11,24.11,0,0,1,10.18-1S147.93,243.81,141.87,227.5Z"/><rect class="cls-12" x="97.47" y="240.23" width="1.06" height="57.67" transform="translate(-5.43 2.04) rotate(-1.16)"/><path class="cls-13" d="M79.43,221.2s-14.88,5.68-7.29,24.13c0,0,1.32-19.73,25.66,1.74,0,0,1.29-16.61-7.92-19.95C89.88,227.12,79.51,225.75,79.43,221.2Z"/><path class="cls-13" d="M115.13,220.54s13.57,4.87,6.38,21.67c0,0-7.75-17.14-23.71,4.86,0,0-2.66-18.19,7.1-20.23C104.9,226.84,115.21,225.09,115.13,220.54Z"/><path class="cls-14" d="M73.13,114.1s25.87,35.32,56.1,43.59l-2.29,55.7s1,10.4-11.07,15.84c0,0,21.63,5.35,25.61-10.1l-3-67.9S131.93,80.59,73.13,114.1Z"/><path class="cls-14" d="M68.6,230.11l-1.32-71.27C65.37,128,90.74,124.42,90.74,124.42l-12.1-12.71S36.18,120.86,51,216.51C51,216.51,50.28,231,68.6,230.11Z"/><g class="cls-15"><path class="cls-12" d="M78.26,117.64a23.71,23.71,0,0,1,2.62-1.74,35.29,35.29,0,0,1,3.21-1.67c.63-.31,1.32-.59,2-.89s1.52-.58,2.35-.83,1.7-.51,2.62-.75c.45-.13.93-.2,1.41-.3s1-.2,1.47-.26a30.21,30.21,0,0,1,6.38-.31l1.69.13,1.71.28a14.48,14.48,0,0,1,1.71.37l.86.23.43.11.42.15,1.69.62c.56.21,1.09.5,1.64.76l.82.39c.27.14.52.31.78.47l1.55.95a29,29,0,0,1,5.32,4.79c.38.45.77.89,1.15,1.33s.66,1,1,1.41.67.93,1,1.4l.84,1.45.81,1.42c.23.49.45,1,.68,1.45a28.59,28.59,0,0,1,1.22,2.82l1,2.72c.27.9.49,1.77.73,2.6s.48,1.61.61,2.39l.42,2.18c.12.69.27,1.32.35,1.92s.13,1.15.19,1.64c.13,1,.19,1.78.24,2.3s.07.82.07.82-.09-.27-.28-.77-.46-1.24-.77-2.17l-.52-1.55c-.22-.56-.44-1.16-.69-1.8-.49-1.27-1-2.72-1.69-4.25-.33-.76-.67-1.56-1-2.38s-.81-1.63-1.23-2.48-.91-1.68-1.39-2.53l-.74-1.3-.84-1.26-.85-1.27c-.29-.43-.63-.81-.94-1.23l-1-1.23-1-1.15a30,30,0,0,0-4.73-4.13l-1.33-.82c-.22-.14-.44-.29-.67-.41l-.7-.35-.69-.35a7.36,7.36,0,0,0-.7-.33l-1.45-.58a27.47,27.47,0,0,0-5.91-1.41,33.39,33.39,0,0,0-5.79-.2,41.58,41.58,0,0,0-5.27.59,56.69,56.69,0,0,0-7.82,2c-.93.32-1.68.56-2.17.76Z"/></g><g class="cls-15"><path class="cls-12" d="M77,123.14a21.31,21.31,0,0,1,2.43-1.74c.81-.5,1.81-1.1,3-1.69A31.72,31.72,0,0,1,86.6,118a29.09,29.09,0,0,1,5.25-1.25,24.31,24.31,0,0,1,6.12-.15,21.79,21.79,0,0,1,6.45,1.6l.8.32.77.4c.5.26,1,.52,1.52.82a25.57,25.57,0,0,1,2.81,2c.44.37.89.73,1.31,1.12l1.2,1.22.59.62c.2.21.36.43.54.65l1,1.32a12.83,12.83,0,0,1,1,1.36l.88,1.37.22.35.2.35.37.71.74,1.39a14.72,14.72,0,0,1,.66,1.4l.59,1.4c.19.46.4.91.56,1.37s.31.91.46,1.36.3.89.44,1.33a12.66,12.66,0,0,1,.39,1.29c.22.86.43,1.68.63,2.48.09.4.19.79.28,1.17s.14.76.21,1.12c.12.74.25,1.43.36,2.08.24,1.3.33,2.46.43,3.4s.14,1.69.19,2.19.05.78.05.78l-.26-.74c-.16-.48-.41-1.18-.69-2.08s-.62-2-1.09-3.2l-.69-2c-.12-.35-.24-.7-.37-1.06l-.44-1.09c-.29-.73-.6-1.5-.91-2.3s-.71-1.58-1.08-2.4l-.56-1.25c-.19-.42-.43-.83-.64-1.24l-.66-1.26a13.22,13.22,0,0,0-.71-1.27l-.76-1.25-.38-.63-.19-.32-.22-.29L113.1,130a12,12,0,0,0-.89-1.2c-.33-.38-.65-.76-1-1.15-.17-.19-.32-.39-.49-.57l-.53-.53-1.06-1.06c-.37-.34-.76-.64-1.14-1a23.8,23.8,0,0,0-2.4-1.76c-.42-.25-.86-.47-1.28-.72-.21-.12-.42-.24-.64-.35l-.67-.29a14.07,14.07,0,0,0-1.34-.56l-1.36-.47c-.46-.15-.93-.23-1.39-.35l-.69-.17-.7-.11c-.46-.06-.92-.17-1.38-.19l-1.38-.12c-.45,0-.91,0-1.36,0s-.89,0-1.33,0a33.09,33.09,0,0,0-5,.56c-1.54.27-2.94.65-4.18,1s-2.32.72-3.2,1-1.57.58-2,.79Z"/></g><path class="cls-16" d="M73.06,126.68a6.54,6.54,0,0,0-1,.66,16.44,16.44,0,0,0-2.32,2.28,22.2,22.2,0,0,0-2.72,4.19,30.41,30.41,0,0,0-2.19,6.05,45.09,45.09,0,0,0-1.15,7.53,71.93,71.93,0,0,0,0,8.56c.18,3.11.28,6.21.35,9.42s.16,6.46.23,9.71.08,6.5.12,9.7,0,6.35,0,9.39-.06,6-.1,8.8-.11,5.43-.18,7.87c-.14,4.88-.33,8.95-.49,11.8s-.29,4.48-.29,4.48-.2-1.63-.46-4.47-.62-6.9-.93-11.77c-.16-2.43-.35-5.07-.48-7.86s-.32-5.74-.42-8.78-.26-6.2-.34-9.4-.17-6.45-.25-9.69-.09-6.51-.13-9.71,0-6.38,0-9.36c0-.77,0-1.55,0-2.32s0-1.53.07-2.28c.09-1.5.25-3,.44-4.39s.47-2.81.76-4.13a37.76,37.76,0,0,1,1.14-3.76,27.13,27.13,0,0,1,3.05-6.15,19.74,19.74,0,0,1,3.46-4A13.72,13.72,0,0,1,72,127.16,6.74,6.74,0,0,1,73.06,126.68Z"/><path class="cls-16" d="M64.94,130.37a7.22,7.22,0,0,0-.9.61,15.27,15.27,0,0,0-2.15,2.12,20.42,20.42,0,0,0-2.53,3.9,28.67,28.67,0,0,0-2,5.62,40.33,40.33,0,0,0-1.07,7,65.92,65.92,0,0,0,0,7.95c.16,2.9.25,5.77.32,8.76s.15,6,.22,9,.07,6,.11,9,0,5.91,0,8.74-.06,5.57-.09,8.17-.11,5-.17,7.32c-.13,4.54-.31,8.32-.46,11-.06,1.32-.15,2.36-.2,3.07s-.07,1.09-.07,1.09,0-.38-.12-1.09-.19-1.74-.31-3.06c-.24-2.64-.57-6.41-.86-10.94-.15-2.26-.32-4.72-.44-7.31s-.3-5.33-.39-8.16-.25-5.76-.33-8.73-.15-6-.22-9-.08-6-.12-9,0-5.94,0-8.71a49.51,49.51,0,0,1,.47-8.36c.18-1.32.43-2.6.7-3.83s.65-2.4,1.06-3.5a25.21,25.21,0,0,1,2.83-5.72,18.5,18.5,0,0,1,3.22-3.69,13.08,13.08,0,0,1,2.56-1.78A6.57,6.57,0,0,1,64.94,130.37Z"/><path class="cls-17" d="M164.68,160a3.22,3.22,0,0,1-3.17,3.27h0a3.23,3.23,0,0,1-3.29-3.15h0a3.22,3.22,0,0,1,3.17-3.27h0a3.21,3.21,0,0,1,3.29,3.15Z"/><path class="cls-18" d="M135.58,151.29a8.25,8.25,0,0,1,8.11-8.37h0a8.23,8.23,0,0,1,8.4,8.06l.34,18.47a8.23,8.23,0,0,1-8.1,8.37h0a8.23,8.23,0,0,1-8.4-8.06Z"/><path class="cls-16" d="M145.54,151.54c3.65,4.35,4.23,9.46,3.31,14.89-.78,4.66-4.15,9.41-9,10.17a8.24,8.24,0,0,0,12.56-7.15L152.09,151A8.26,8.26,0,0,0,136,148.46C139.52,148,143.17,148.72,145.54,151.54Z"/><path class="cls-7" d="M138.51,151.23a.86.86,0,0,1,.84-.87h0a.85.85,0,0,1,.87.84l.39,20.87a.86.86,0,0,1-.84.87h0a.86.86,0,0,1-.88-.84Z"/><path class="cls-19" d="M150.92,147.66l.46,25.16a13,13,0,0,0-.46-25.16Z"/><path class="cls-6" d="M157,164.94c-4.26-2.62-5.4-6.41-5.92-11l.35,18.86a13.19,13.19,0,0,0,8.08-6.85A8.58,8.58,0,0,1,157,164.94Z"/><path class="cls-20" d="M155.38,167s5.54,43.05-39.87,42.67"/><path class="cls-21" d="M117.15,209.8a3.78,3.78,0,0,1-3.71,3.84l-5.08.09A3.78,3.78,0,0,1,104.5,210h0a3.79,3.79,0,0,1,3.72-3.84l5.08-.09a3.78,3.78,0,0,1,3.85,3.69Z"/><path class="cls-17" d="M35,162.39a3.22,3.22,0,0,0,3.29,3.15h0a3.21,3.21,0,0,0,3.17-3.27h0a3.22,3.22,0,0,0-3.29-3.15h0A3.22,3.22,0,0,0,35,162.39Z"/><path class="cls-18" d="M63.74,152.62a8.23,8.23,0,0,0-8.4-8.06h0a8.24,8.24,0,0,0-8.11,8.36l.34,18.48a8.23,8.23,0,0,0,8.41,8h0a8.22,8.22,0,0,0,8.1-8.36Z"/><path class="cls-16" d="M53.8,153.24c-3.49,4.48-3.88,9.61-2.76,15,1,4.62,4.5,9.25,9.35,9.83a8.26,8.26,0,0,1-12.82-6.68l-.34-18.48a8.26,8.26,0,0,1,16-3.11C59.68,149.45,56.06,150.34,53.8,153.24Z"/><path class="cls-7" d="M60.82,152.67a.87.87,0,0,0-.88-.84h0a.86.86,0,0,0-.84.87l.38,20.87a.87.87,0,0,0,.88.84h0a.86.86,0,0,0,.84-.87Z"/><path class="cls-19" d="M48.28,149.56l.47,25.16a13,13,0,0,1-.47-25.16Z"/><path class="cls-6" d="M42.89,167.05c4.16-2.77,5.16-6.6,5.51-11.18l.35,18.85a13.13,13.13,0,0,1-8.32-6.54A8.71,8.71,0,0,0,42.89,167.05Z"/><path class="cls-22" d="M391.13,157.52v-4.21a7,7,0,0,0-3.2-5.12s-9.13-5.33-9.48-25.44c0,0-.68-27.95-36.43-27.95H325.37"/><path class="cls-22" d="M267.06,157.52v-4.21a7,7,0,0,1,3.19-5.12s9.14-5.33,9.48-25.44c0,0,.68-27.95,36.43-27.95h16.66"/><path class="cls-5" d="M375,227.85c-18.23-2-27.21-7.44-28.75-8.44H313.83c-1.54,1-10.52,6.39-28.75,8.44,0,0-34.75,1.3-33.77,64.3,0,0,26.15,11.8,78.75,11.7,52.6.1,78.75-11.7,78.75-11.7C409.79,229.15,375,227.85,375,227.85Z"/><path class="cls-2" d="M285.08,227.85s-34.75,1.3-33.77,64.3c0,0,26.15,11.8,78.75,11.7,52.6.1,78.75-11.7,78.75-11.7,1-63-33.77-64.3-33.77-64.3s-33.84-2.4-45,12C330.06,239.86,319.32,222.14,285.08,227.85Z"/><rect class="cls-5" x="313.49" y="201.89" width="33.15" height="24.11"/><path class="cls-6" d="M313.49,208.76h0c.36.43.73.86,1.12,1.27a37.48,37.48,0,0,0,3.27,3l.11.08c.37.28.75.54,1.13.81.59.39,1.18.78,1.79,1.14.88.53,1.78,1,2.7,1.49.29.11,1.16.47,1.43.56.89.31,1.78.61,2.69.84s1.88.49,2.83.68a17.35,17.35,0,0,1,1.85.35,52.11,52.11,0,0,0,6.72.38c1,0,1.93,0,2.9-.12.3,0,1.74-.24,1.88-.24a28,28,0,0,0,2.72-.74V201.89H313.49v6.8C313.58,208.84,313.6,208.89,313.49,208.76Z"/><path class="cls-5" d="M367.77,158.31c0,28.55-16.88,51.7-37.71,51.7s-37.71-23.15-37.71-51.7,16.88-46.45,37.71-46.45S367.77,129.76,367.77,158.31Z"/><path class="cls-7" d="M310,135l0-.19a26.94,26.94,0,0,1,20.8-9.74c16.27,0,29.47,14,29.47,36.28,0,14.87-5.87,27.85-14.59,34.86C345.67,196.19,296.35,190.31,310,135Z"/><path class="cls-8" d="M324.19,198.63c-12.85-8.09-19.86-21.84-21.64-36.63-1.67-13.9,1.87-29.27,10.69-40.26a38.34,38.34,0,0,1,11.3-9.44c-18.21,2.87-32.19,20-32.19,46,0,28.55,16.88,51.7,37.71,51.7a29.58,29.58,0,0,0,16.83-5.43A39.7,39.7,0,0,1,324.19,198.63Z"/><path class="cls-23" d="M312.24,220.34c-3.52,1.92-12.24,5.83-27.16,7.51,0,0-34.75,1.3-33.77,64.3,0,0,26.15,11.8,78.75,11.7,52.6.1,78.75-11.7,78.75-11.7,1-63-33.77-64.3-33.77-64.3-14.92-1.68-23.64-5.59-27.16-7.51,0,0,18.52,41.29-17.82,78.45C330.06,298.79,294.93,262.59,312.24,220.34Z"/><path class="cls-10" d="M301.16,250.3a2,2,0,0,1,0,.24c.14.65.27,1.29.42,1.93l.28-.12C301.64,251.67,301.4,251,301.16,250.3Z"/><path class="cls-24" d="M375,227.85c-14.92-1.68-23.64-5.59-27.16-7.51,0,0,2.58,19.52-17.82,78.45,0,0-17.75-49.91-17.82-78.45-3.52,1.92-12.24,5.83-27.16,7.51,0,0-1.18,12,6.4,28.41,0,0,5.27-2.83,8.1-2l-8.19,6a383.45,383.45,0,0,0,31.68,43.6h15.79s21.4-30,31.75-48c0,0-2.52-2.85-10.28-5.27a24.41,24.41,0,0,1,10.28-.81S376.64,239.86,375,227.85Z"/><path class="cls-25" d="M330.06,298.79c-8.85-25.12-9.27-30.28-9.27-30.28l3.53-18.21,10.1.25,5.07,18.37S332.57,292.86,330.06,298.79Z"/><path class="cls-25" d="M321.54,239.86h16.17s.72,8.64-5.53,12.61h-6S319.7,246.45,321.54,239.86Z"/><path class="cls-6" d="M337.71,239.86h-2.88a5.39,5.39,0,0,1,.37,1.93,5.53,5.53,0,0,1-5.48,5.47h-.09a5.53,5.53,0,0,1-5.48-5.47,5.39,5.39,0,0,1,.37-1.93h-3c-1.84,6.59,4.68,12.61,4.68,12.61h6C338.43,248.5,337.71,239.86,337.71,239.86Z"/><path class="cls-26" d="M330.38,122.85s33.22-19.77,36.45,47c0,0,11.62-32.64-8.95-57.57,0,0-21.58-23.14-55.43-2.32,0,0-7,4.26-13.06,2.32,0,0,3.1,5.63,7.81,6.76,0,0-5.61,4.17-12.19,2.84,0,0,3.08,7.94,7.34,9,0,0-8.52,14.88.94,39C293.29,169.87,293,105.82,330.38,122.85Z"/><path class="cls-16" d="M365.65,133.75s-.12-.33-.33-.94-.52-1.52-1-2.63-1-2.45-1.75-4l-1.24-2.35c-.49-.8-1-1.67-1.51-2.52s-1.13-1.75-1.82-2.61l-1-1.33-1.12-1.31-.57-.66-.63-.63c-.42-.42-.83-.86-1.28-1.27a35.1,35.1,0,0,0-2.85-2.37,31.8,31.8,0,0,0-3.17-2.12,35.45,35.45,0,0,0-3.51-1.69L343,107c-.3-.13-.62-.2-.94-.31-.63-.19-1.25-.4-1.89-.57l-1.95-.41-.49-.1-.49-.07c-.34-.05-.69-.11-1-.14-1.3-.16-2.65-.25-4-.28a32.23,32.23,0,0,0-3.95.23c-.32,0-.63.1-.95.15l-.48.08-.47.11-2,.43-1.88.47-1.85.54a57.53,57.53,0,0,0-6.86,2.61l-1.55.75c-.51.25-1,.54-1.47.8-1,.5-1.9,1.08-2.81,1.59a27.8,27.8,0,0,1-5.21,2.45,10.72,10.72,0,0,1-4.42.59c-.31,0-.61-.07-.88-.14l-.74-.21a10.51,10.51,0,0,1-1.11-.49l-.85-.53.9.42c.31.11.69.23,1.13.34l.73.11c.26,0,.55,0,.84,0a10.78,10.78,0,0,0,4.1-1,31.94,31.94,0,0,0,4.83-2.75,58.28,58.28,0,0,1,5.76-3.55,48.82,48.82,0,0,1,7-3l1.9-.62,2-.55c.66-.18,1.31-.32,2-.49l.52-.12.52-.09c.35-.06.7-.14,1.06-.18a33.59,33.59,0,0,1,4.25-.29,41.13,41.13,0,0,1,4.28.26c.36,0,.69.1,1,.15l.53.08.53.12,2.1.46c.69.19,1.36.43,2,.64.33.12.68.2,1,.34l1,.42a29.76,29.76,0,0,1,3.74,1.89,35.45,35.45,0,0,1,3.33,2.36,33.6,33.6,0,0,1,2.93,2.61c.44.46.85.94,1.28,1.4.2.24.41.47.62.7l.56.72,1.11,1.41,1,1.44c.66.93,1.17,1.91,1.7,2.82s.94,1.83,1.37,2.68.73,1.72,1.06,2.51.56,1.54.8,2.24.41,1.35.59,1.93c.36,1.17.52,2.1.67,2.74S365.65,133.75,365.65,133.75Z"/><path class="cls-16" d="M361.22,135.69l-.29-.85c-.19-.55-.44-1.37-.85-2.37-.2-.5-.4-1.06-.66-1.66s-.55-1.23-.85-1.92l-1.08-2.13c-.41-.73-.84-1.5-1.3-2.29a43.09,43.09,0,0,0-3.44-4.79c-.65-.82-1.41-1.57-2.16-2.37-.38-.39-.81-.73-1.21-1.12l-.62-.56-.66-.52a25.56,25.56,0,0,0-5.89-3.59l-.8-.35a5.93,5.93,0,0,0-.83-.32l-1.69-.54c-.57-.16-1.15-.26-1.73-.4-.29-.06-.6-.14-.86-.18l-.92-.13a27.69,27.69,0,0,0-7.1-.11c-.29,0-.57.08-.85.13l-.43.08-.19,0-.22,0-1.77.4-1.68.44c-.55.15-1.1.33-1.65.49a50,50,0,0,0-6.12,2.4c-1.88.92-3.57,1.92-5.18,2.89a24.75,24.75,0,0,1-4.64,2.28,8.9,8.9,0,0,1-4,.57,6.19,6.19,0,0,1-2.44-.76l-.75-.49.8.39a9.42,9.42,0,0,0,1,.31l.66.11c.23,0,.49,0,.75,0a9.09,9.09,0,0,0,3.66-.9,27.94,27.94,0,0,0,4.28-2.54,51.1,51.1,0,0,1,5.12-3.27,43.48,43.48,0,0,1,6.25-2.74c.57-.19,1.12-.39,1.7-.57l1.76-.51,1.75-.44.22-.06.25,0,.47-.09c.32-.06.64-.12.95-.15a29.85,29.85,0,0,1,7.67,0l.92.14c.34.06.63.14.95.21.63.15,1.27.27,1.88.45l1.83.61a6.85,6.85,0,0,1,.89.35l.87.39a25.58,25.58,0,0,1,6.22,4l.69.57.63.62c.42.41.85.8,1.23,1.23.75.87,1.51,1.7,2.14,2.59a37.24,37.24,0,0,1,3.27,5.16c.42.85.81,1.66,1.17,2.44s.62,1.55.91,2.26l.68,2c.21.63.35,1.22.5,1.74.31,1.05.44,1.89.57,2.46S361.22,135.69,361.22,135.69Z"/><path class="cls-16" d="M290.6,123.26a7.17,7.17,0,0,0,.67,1.1c.12.17.26.33.39.5s.28.31.43.45l.46.42.49.36.52.32.55.25a3.35,3.35,0,0,0,.56.19,2.82,2.82,0,0,0,.57.15l.58.11.6,0,.29,0,.3,0,.59,0c.2,0,.4-.07.6-.1l.59-.1,3.93-.7-3.48,2.12a5.43,5.43,0,0,0-.74.58,8.38,8.38,0,0,0-.7.75,14,14,0,0,0-1.22,1.72l-.52.94c-.17.31-.29.66-.44,1a19.65,19.65,0,0,0-.75,2,19.38,19.38,0,0,0-.58,2.11c-.08.36-.19.71-.25,1.08s-.11.72-.18,1.09c-.12.72-.28,1.44-.33,2.19L293.3,144c-.06.74-.08,1.49-.12,2.23s-.11,1.49-.07,2.24,0,1.5,0,2.25v1.13c0,.38,0,.75,0,1.13l.08,2.26c0,.76,0,1.52.1,2.27q.17,2.26.24,4.56c-.39-1.47-.75-3-1.07-4.45-.18-.75-.29-1.5-.41-2.26l-.34-2.27c-.12-.76-.18-1.52-.24-2.29s-.13-1.53-.17-2.3,0-1.54-.05-2.31,0-1.54,0-2.31l.2-2.32a22.67,22.67,0,0,1,.31-2.32c.06-.38.12-.77.19-1.15s.19-.76.29-1.14a20.26,20.26,0,0,1,.66-2.27l.4-1.12c.13-.37.34-.72.5-1.08s.33-.73.54-1.07l.63-1a12.53,12.53,0,0,1,1.53-1.89,12.21,12.21,0,0,1,.92-.84,7.47,7.47,0,0,1,1.14-.71l.45,1.43-.68.06a5.34,5.34,0,0,1-.69.05l-.69,0h-.35l-.34-.06-.69-.11-.67-.21a3.23,3.23,0,0,1-.65-.25c-.2-.11-.42-.19-.61-.32l-.58-.38-.52-.44-.48-.48c-.15-.18-.28-.36-.41-.53a7,7,0,0,1-.67-1.15A6.74,6.74,0,0,1,290.6,123.26Z"/><path class="cls-13" d="M312.24,220.34s-15.1,5.44-7.8,24.18c0,0,1.7-19.86,25.83,2.22,0,0,1.61-16.7-7.61-20.25C322.66,226.49,312.24,224.92,312.24,220.34Z"/><path class="cls-13" d="M348.22,220.34s13.59,5.16,6,21.95c0,0-7.49-17.42-24,4.45,0,0-2.34-18.37,7.53-20.25C337.8,226.49,348.22,224.92,348.22,220.34Z"/><path class="cls-27" d="M394.46,159.07a3.25,3.25,0,0,1-3.25,3.24h0a3.25,3.25,0,0,1-3.26-3.24h0a3.25,3.25,0,0,1,3.26-3.24h0a3.25,3.25,0,0,1,3.25,3.24Z"/><path class="cls-18" d="M365.3,149.76a8.31,8.31,0,0,1,8.32-8.28h0a8.3,8.3,0,0,1,8.32,8.28v18.62a8.3,8.3,0,0,1-8.32,8.28h0a8.31,8.31,0,0,1-8.32-8.28Z"/><path class="cls-16" d="M375.33,150.2c3.6,4.45,4.08,9.61,3.06,15.07-.88,4.68-4.36,9.4-9.24,10.08a8.31,8.31,0,0,0,12.79-7V149.76a8.32,8.32,0,0,0-16.13-2.83C369.33,146.49,373,147.32,375.33,150.2Z"/><path class="cls-7" d="M368.25,149.76a.86.86,0,0,1,.87-.86h0a.86.86,0,0,1,.86.86v21a.87.87,0,0,1-.86.87h0a.87.87,0,0,1-.87-.87Z"/><path class="cls-10" d="M380.82,146.39v25.36a13.14,13.14,0,0,0,0-25.36Z"/><path class="cls-6" d="M386.58,163.92c-4.24-2.72-5.33-6.56-5.76-11.17v19a13.22,13.22,0,0,0,8.26-6.74A9,9,0,0,1,386.58,163.92Z"/><path class="cls-28" d="M385,166s4.79,43.48-41,42.24"/><path class="cls-21" d="M345.63,208.38a3.81,3.81,0,0,1-3.81,3.8H336.7a3.8,3.8,0,0,1-3.81-3.8h0a3.8,3.8,0,0,1,3.81-3.79h5.12a3.8,3.8,0,0,1,3.81,3.79Z"/><path class="cls-27" d="M263.72,159.07a3.25,3.25,0,0,0,3.26,3.24h0a3.24,3.24,0,0,0,3.25-3.24h0a3.24,3.24,0,0,0-3.25-3.24h0a3.25,3.25,0,0,0-3.26,3.24Z"/><path class="cls-18" d="M292.88,149.76a8.3,8.3,0,0,0-8.32-8.28h0a8.31,8.31,0,0,0-8.32,8.28v18.62a8.31,8.31,0,0,0,8.32,8.28h0a8.3,8.3,0,0,0,8.32-8.28Z"/><path class="cls-16" d="M282.86,150.2c-3.6,4.45-4.09,9.61-3.07,15.07.88,4.68,4.37,9.4,9.25,10.08a8.32,8.32,0,0,1-12.8-7V149.76a8.32,8.32,0,0,1,16.13-2.83C288.86,146.49,285.19,147.32,282.86,150.2Z"/><path class="cls-7" d="M289.94,149.76a.86.86,0,0,0-.87-.86h0a.86.86,0,0,0-.87.86v21a.87.87,0,0,0,.87.87h0a.87.87,0,0,0,.87-.87Z"/><path class="cls-10" d="M277.37,146.39v25.36a13.14,13.14,0,0,1,0-25.36Z"/><path class="cls-6" d="M271.61,163.92c4.24-2.72,5.32-6.56,5.76-11.17v19A13.24,13.24,0,0,1,269.1,165,9,9,0,0,0,271.61,163.92Z"/><path class="cls-29" d="M290.3,155.72v-5.48a9.41,9.41,0,0,0-3.78-6.66s-10.82-6.94-11.22-33.1c0,0-.81-36.37-43.15-36.37H212.43"/><path class="cls-29" d="M143.39,155.72v-5.48a9.41,9.41,0,0,1,3.78-6.66s10.82-6.94,11.22-33.1c0,0,.81-36.37,43.15-36.37h19.72"/><rect class="cls-30" x="184.21" y="152.21" width="78.73" height="92.95"/><path class="cls-5" d="M264.67,236.15c-21.21-2.4-31.65-8.66-33.44-9.83H193.48c-1.79,1.17-12.23,7.43-33.44,9.83,0,0-40.41,1.51-39.28,74.78,0,0,30.42,13.72,91.59,13.6,61.18.12,91.6-13.6,91.6-13.6C305.08,237.66,264.67,236.15,264.67,236.15Z"/><path class="cls-2" d="M160,236.15s-40.41,1.51-39.28,74.78c0,0,30.42,13.72,91.59,13.6,61.18.12,91.6-13.6,91.6-13.6,1.13-73.27-39.28-74.78-39.28-74.78s-39.36-2.79-52.32,14C212.35,250.11,199.87,229.5,160,236.15Z"/><rect class="cls-5" x="193.08" y="205.95" width="38.55" height="28.04"/><path class="cls-6" d="M193.08,214h0c.42.51.85,1,1.31,1.48a45.24,45.24,0,0,0,3.8,3.53l.12.09q.66.48,1.32.93c.68.46,1.37.92,2.08,1.34,1,.61,2.07,1.2,3.14,1.73.34.13,1.35.55,1.66.66,1,.35,2.08.7,3.14,1s2.18.57,3.29.78a18.69,18.69,0,0,1,2.14.42,60.25,60.25,0,0,0,7.83.43c1.12,0,2.24,0,3.36-.13.36,0,2-.28,2.2-.28,1.07-.23,2.12-.53,3.16-.86V206H193.08v7.91C193.19,214,193.22,214.09,193.08,214Z"/><path class="cls-5" d="M256.22,155.26c0,33.21-19.64,60.13-43.87,60.13s-43.86-26.92-43.86-60.13,19.64-54,43.86-54S256.22,122.06,256.22,155.26Z"/><path class="cls-7" d="M189,128.14a1.85,1.85,0,0,1,0-.23,31.33,31.33,0,0,1,24.19-11.33c18.92,0,34.26,16.26,34.26,42.2,0,17.29-6.82,32.39-17,40.54C230.51,199.32,173.16,192.49,189,128.14Z"/><path class="cls-8" d="M205.52,202.17c-14.94-9.42-23.09-25.41-25.15-42.61-2-16.17,2.16-34,12.42-46.82a44.6,44.6,0,0,1,13.15-11c-21.18,3.34-37.45,23.28-37.45,53.5,0,33.21,19.64,60.13,43.86,60.13a34.39,34.39,0,0,0,19.58-6.31A46.35,46.35,0,0,1,205.52,202.17Z"/><path class="cls-23" d="M191.63,227.41c-4.09,2.23-14.24,6.78-31.59,8.74,0,0-40.41,1.51-39.28,74.78,0,0,30.42,13.72,91.59,13.6,61.18.12,91.6-13.6,91.6-13.6,1.13-73.27-39.28-74.78-39.28-74.78-17.36-2-27.5-6.51-31.59-8.74,0,0,21.54,48-20.73,91.23C212.35,318.64,171.5,276.54,191.63,227.41Z"/><path class="cls-10" d="M178.74,262.25l.06.29c.15.74.31,1.49.48,2.24l.33-.15C179.31,263.85,179,263.05,178.74,262.25Z"/><path class="cls-31" d="M264.67,236.15c-17.36-2-27.5-6.51-31.59-8.74,0,0,21.54,48-20.73,91.23,0,0-40.85-42.1-20.72-91.23-4.09,2.23-14.24,6.78-31.59,8.74a33.48,33.48,0,0,0,7.45,33s6.12-3.3,9.42-2.36l-11.71,8.6s2.76,33.33,39,49.1H222.6s31.44-15.31,36.91-55.81c0,0-2.92-3.31-11.95-6.13a28.44,28.44,0,0,1,11.95-.94S271.41,255.4,264.67,236.15Z"/><path class="cls-8" d="M264.67,236.15c-17.36-2-27.5-6.51-31.59-8.74,0,0,21.54,48-20.73,91.23,0,0-.39-.41-1.09-1.19h0c-5.21,1.61-10.73-1.33-15-4.14a72.79,72.79,0,0,1-13.76-11.48c-4-4.41-8.29-9.91-9.16-16-1.19-8.27,1.89-15.14,9.07-19.59a9.57,9.57,0,0,1,4.21-1.38,73.54,73.54,0,0,1,5-37.46c-4.09,2.23-14.24,6.78-31.59,8.74,0,0-.09.25-.23.71,4.66-.43,9.22-1.33,13.66,1.25,8.8,5.12,7.33,16,1.79,22.95a24.64,24.64,0,0,1-9.12,6.56c.43.52.87,1.05,1.35,1.57,0,0,6.12-3.3,9.42-2.36l-11.71,8.6s2.76,33.33,39,49.1H222.6s31.44-15.31,36.91-55.81c0,0-2.92-3.31-11.95-6.13a28.44,28.44,0,0,1,11.95-.94S271.41,255.4,264.67,236.15Z"/><path class="cls-8" d="M264.67,236.15a119.73,119.73,0,0,1-13-2.16,24.53,24.53,0,0,1,1.57,7.23c.28,5.74-1.6,12.15-6,16.12a26.46,26.46,0,0,1-8.92,5.28l-.06.81c16.46,17.43-3.38,52.7-24.92,54.1-.35.37-.7.74-1.07,1.11l-.12-.13v6H222.6s31.44-15.31,36.91-55.81c0,0-2.92-3.31-11.95-6.13a28.44,28.44,0,0,1,11.95-.94S271.41,255.4,264.67,236.15Z"/><rect class="cls-12" x="211.73" y="250.11" width="1.24" height="67.59"/><path class="cls-13" d="M191.63,227.41s-17.56,6.33-9.07,28.12c0,0,2-23.1,30,2.59,0,0,1.87-19.43-8.85-23.55C203.75,234.57,191.63,232.74,191.63,227.41Z"/><path class="cls-13" d="M233.48,227.41s15.8,6,7,25.53c0,0-8.71-20.26-27.89,5.18,0,0-2.72-21.37,8.76-23.55C221.36,234.57,233.48,232.74,233.48,227.41Z"/><path class="cls-26" d="M273.65,226.32s-.84-56.51-3.68-89.48c0,0,0-.35,0-1,.27-10.43-4.12-23-8.87-30.37a74.67,74.67,0,0,0-12.18-14.76c-16.47-15-54-15.92-64.7,7.38-10,7.07-49.88,42.53-2.68,133.84l11.55-4.61.66-17.62s-45.5-47.8-3.75-91.82l.14-.11a.67.67,0,0,1-.14.11c7.32-3.76,16.94-4.62,25-3.4,22.38,3.39,27.24,27.93,36.88,44.49,1.63,2.8,3.38,6,5.16,7.82,1.56,13.66,2.36,31.05,1.72,53.16,0,0,.69,26.51-18.93,48.41C239.83,268.38,283.29,282.83,273.65,226.32Z"/><path class="cls-32" d="M190.13,117.79a25.43,25.43,0,0,1,2.3-1.26c.78-.39,1.59-.73,2.4-1.06s1.65-.62,2.48-.91,1.7-.5,2.55-.75,1.73-.39,2.6-.57,1.76-.26,2.64-.39,1.78-.14,2.68-.22c.44,0,.89-.06,1.34-.06l1.35,0a24.46,24.46,0,0,1,2.7.17l2.69.34c.89.18,1.77.41,2.65.62a18.33,18.33,0,0,1,2.61.81c.85.33,1.73.58,2.56,1s1.64.79,2.45,1.2a18.5,18.5,0,0,1,2.35,1.41l2.28,1.51.1.07.14.15c.77.83,1.49,1.62,2.2,2.45s1.42,1.65,2.07,2.52,1.35,1.7,2,2.6l1.91,2.66q.9,1.36,1.77,2.76a32.3,32.3,0,0,1,1.62,2.88,29.45,29.45,0,0,1,1.47,3c.42,1,.85,2.07,1.25,3.12l1.14,2.84,1.24,2.93,1.25,2.93c.42,1,.85,1.94,1.3,2.9l1.33,2.9c.46.95.93,1.91,1.41,2.85s1,1.87,1.52,2.8l.83,1.36.93,1.3c-.4-.35-.81-.71-1.19-1.09l-1.1-1.2c-.69-.83-1.37-1.67-2-2.55s-1.24-1.76-1.84-2.66-1.18-1.81-1.73-2.74c-1.1-1.85-2.19-3.71-3.2-5.61l-1.48-2.86-.73-1.44-.36-.73-.18-.37-.09-.18,0-.09,0,0v0l-.05-.12c-.45-.91-.86-1.84-1.29-2.76a28.48,28.48,0,0,0-1.49-2.69c-.53-.89-1-1.78-1.65-2.62L236,132.27l-1.86-2.52c-.62-.85-1.3-1.65-1.95-2.47s-1.33-1.61-2-2.43-1.37-1.6-2-2.35l.25.22-2-1.39a15.51,15.51,0,0,0-2.09-1.3c-.72-.37-1.44-.78-2.16-1.18s-1.51-.64-2.26-1a16.12,16.12,0,0,0-2.32-.85l-2.38-.7-2.43-.5a20.68,20.68,0,0,0-2.47-.35l-1.25-.14c-.42,0-.83,0-1.25,0-.84,0-1.68-.13-2.52-.07s-1.69,0-2.54.09l-2.54.23c-.84.12-1.69.22-2.53.37s-1.69.29-2.52.5-1.68.39-2.51.62S191,117.51,190.13,117.79Z"/><path class="cls-16" d="M182.49,103.66s-48.23,35.63,4.11,126.26l6.48-2.58S140,158.32,182.49,103.66Z"/><g class="cls-15"><path class="cls-12" d="M190.13,99.61a34.3,34.3,0,0,1,3.9-2.49,51.48,51.48,0,0,1,4.77-2.38c.94-.43,2-.82,3-1.26s2.25-.8,3.49-1.15,2.52-.7,3.87-1c.68-.17,1.38-.27,2.08-.41s1.43-.26,2.17-.34a44.94,44.94,0,0,1,9.42-.29l2.49.25,2.5.45a22.48,22.48,0,0,1,2.52.6l1.25.36.63.18.62.23,2.47,1c.82.33,1.59.77,2.39,1.17l1.19.6c.4.21.76.47,1.14.71l2.26,1.44a42.6,42.6,0,0,1,7.7,7.21c.55.66,1.12,1.32,1.65,2l1.43,2.11c.47.7,1,1.38,1.39,2.09l1.19,2.15,1.16,2.11,1,2.15a43,43,0,0,1,1.72,4.19l1.39,4c.36,1.32.68,2.61,1,3.84s.66,2.39.83,3.54.39,2.21.56,3.23.37,1.95.46,2.83.17,1.69.24,2.43c.16,1.46.23,2.61.3,3.39s.08,1.2.08,1.2l-.4-1.14c-.25-.74-.64-1.83-1.07-3.22-.22-.69-.47-1.46-.73-2.29l-1-2.67c-.7-1.89-1.4-4-2.38-6.3-.47-1.14-.93-2.33-1.46-3.54s-1.15-2.42-1.75-3.68-1.29-2.5-2-3.77c-.34-.64-.69-1.29-1-1.94s-.8-1.24-1.2-1.87l-1.22-1.9c-.42-.63-.9-1.21-1.35-1.83l-1.39-1.83L245.93,108a43.37,43.37,0,0,0-6.84-6.21l-1.94-1.26c-.32-.2-.63-.43-1-.61l-1-.53-1-.53a9.78,9.78,0,0,0-1-.52l-2.1-.88a40.92,40.92,0,0,0-8.68-2.24,48.64,48.64,0,0,0-8.53-.45,61.39,61.39,0,0,0-7.76.71,84.77,84.77,0,0,0-11.58,2.68c-1.38.45-2.48.78-3.21,1.06Z"/></g><g class="cls-15"><path class="cls-12" d="M188.11,107.67a31.28,31.28,0,0,1,3.63-2.49,47.13,47.13,0,0,1,10.65-4.83,43.45,43.45,0,0,1,7.77-1.7,36.27,36.27,0,0,1,9-.05,32,32,0,0,1,9.45,2.54l1.17.49c.38.19.74.4,1.12.6.74.41,1.49.8,2.22,1.25a38.91,38.91,0,0,1,4.08,3c.64.56,1.29,1.1,1.9,1.69l1.73,1.83.86.92c.28.31.51.65.77,1,.5.66,1,1.31,1.5,2a20.5,20.5,0,0,1,1.37,2l1.27,2.06.32.5.27.53.54,1c.35.7.7,1.39,1,2.08a20.08,20.08,0,0,1,.93,2.08q.42,1,.84,2.07c.26.69.56,1.35.78,2s.43,1.36.64,2l.61,2a19.59,19.59,0,0,1,.55,1.91c.29,1.27.58,2.49.85,3.67.13.59.26,1.16.39,1.73s.18,1.12.27,1.66c.17,1.08.32,2.11.47,3.08.33,1.91.43,3.62.54,5s.17,2.49.22,3.23.06,1.15.06,1.15-.12-.38-.36-1.1-.58-1.75-1-3.08-.86-2.93-1.51-4.75c-.3-.91-.63-1.87-1-2.89-.16-.51-.33-1-.51-1.57s-.4-1.06-.62-1.6l-1.28-3.42c-.43-1.18-1-2.35-1.52-3.57l-.79-1.86c-.26-.62-.61-1.22-.91-1.84l-.94-1.88a21.24,21.24,0,0,0-1-1.88l-1.09-1.85-.55-1-.27-.47-.31-.45-1.25-1.8a20.74,20.74,0,0,0-1.28-1.79l-1.4-1.72c-.23-.28-.46-.58-.7-.85l-.77-.79-1.53-1.6c-.53-.51-1.11-1-1.66-1.44a32.92,32.92,0,0,0-3.48-2.65c-.61-.38-1.25-.72-1.86-1.1-.31-.18-.62-.37-.94-.54l-1-.44c-.66-.29-1.29-.64-2-.87l-2-.72c-.66-.23-1.36-.36-2-.55l-1-.27c-.34,0-.68-.12-1-.18-.69-.1-1.36-.28-2-.33l-2-.21c-.67,0-1.34,0-2-.08a18.49,18.49,0,0,0-2,0,47.91,47.91,0,0,0-7.34.69c-2.28.35-4.35.87-6.19,1.34s-3.44,1-4.74,1.44-2.33.82-3,1.1Z"/></g><path class="cls-33" d="M292.87,157.52a3.78,3.78,0,0,1-3.79,3.77h0a3.77,3.77,0,0,1-3.78-3.77h0a3.77,3.77,0,0,1,3.78-3.76h0a3.77,3.77,0,0,1,3.79,3.76Z"/><path class="cls-18" d="M259,146.69a9.65,9.65,0,0,1,9.67-9.62h0a9.65,9.65,0,0,1,9.68,9.62v21.66a9.64,9.64,0,0,1-9.68,9.62h0a9.64,9.64,0,0,1-9.67-9.62Z"/><path class="cls-16" d="M270.62,147.21c4.18,5.17,4.75,11.17,3.56,17.52-1,5.44-5.08,10.94-10.75,11.73a9.69,9.69,0,0,0,14.88-8.11V146.69a9.68,9.68,0,0,0-18.76-3.29C263.64,142.89,267.9,143.85,270.62,147.21Z"/><path class="cls-7" d="M262.38,146.69a1,1,0,0,1,1-1h0a1,1,0,0,1,1,1v24.47a1,1,0,0,1-1,1h0a1,1,0,0,1-1-1Z"/><path class="cls-9" d="M277,142.77v29.5a15.29,15.29,0,0,0,0-29.5Z"/><path class="cls-6" d="M283.7,163.16c-4.93-3.16-6.19-7.63-6.69-13v22.11a15.38,15.38,0,0,0,9.6-7.85A10.27,10.27,0,0,1,283.7,163.16Z"/><path class="cls-34" d="M281.81,165.54s5.56,50.57-47.65,49.13"/><path class="cls-21" d="M236.08,214.87a4.42,4.42,0,0,1-4.43,4.41h-6a4.42,4.42,0,0,1-4.43-4.41h0a4.42,4.42,0,0,1,4.43-4.41h6a4.43,4.43,0,0,1,4.43,4.41Z"/><path class="cls-33" d="M140.82,157.52a3.78,3.78,0,0,0,3.79,3.77h0a3.77,3.77,0,0,0,3.78-3.77h0a3.77,3.77,0,0,0-3.78-3.76h0a3.77,3.77,0,0,0-3.79,3.76Z"/><path class="cls-18" d="M174.73,146.69a9.65,9.65,0,0,0-9.67-9.62h0a9.65,9.65,0,0,0-9.68,9.62v21.66a9.64,9.64,0,0,0,9.68,9.62h0a9.64,9.64,0,0,0,9.67-9.62Z"/><path class="cls-16" d="M163.07,147.21c-4.18,5.17-4.75,11.17-3.56,17.52,1,5.44,5.08,10.94,10.75,11.73a9.69,9.69,0,0,1-14.88-8.11V146.69a9.68,9.68,0,0,1,18.76-3.29C170.05,142.89,165.79,143.85,163.07,147.21Z"/><path class="cls-7" d="M171.31,146.69a1,1,0,0,0-1-1h0a1,1,0,0,0-1,1v24.47a1,1,0,0,0,1,1h0a1,1,0,0,0,1-1Z"/><path class="cls-9" d="M156.69,142.77v29.5a15.28,15.28,0,0,1,0-29.5Z"/><path class="cls-6" d="M150,163.16c4.93-3.16,6.19-7.63,6.7-13v22.11a15.37,15.37,0,0,1-9.61-7.85A10.27,10.27,0,0,0,150,163.16Z"/><path class="cls-35" d="M305.62,360.56c0,3.45-3.82,6.24-8.53,6.24H124.85c-4.72,0-8.54-2.79-8.54-6.24l-7.6-85.72c0-3.44,3.82-6.23,8.54-6.23H308c4.71,0,8.53,2.79,8.53,6.23Z"/><path class="cls-36" d="M256.46,298.51a52.64,52.64,0,0,0,13,5.61,77.07,77.07,0,0,0,16.15,3.5c4.72.39,10,.48,14.44-1.3a20.87,20.87,0,0,0,5.58-3.37l2.7-21.32c0-1.31-1.45-2.37-3.24-2.37H242.25C243.58,287.25,249.83,294.28,256.46,298.51Z"/><path class="cls-16" d="M300,339.42c-9.91,4.82-20.74,6.16-31.67,6.14a160.76,160.76,0,0,1-40-5.61c-12.29-3.21-25-6.66-36.56-12.08-19.15-9-36.44-23.81-45.77-43.09a60.52,60.52,0,0,1-5.32-16.17h-23.4c-4.72,0-8.54,2.79-8.54,6.23l7.6,85.72c0,3.45,3.82,6.24,8.54,6.24H297.09c4.71,0,8.53-2.79,8.53-6.24L309,333.68A50.61,50.61,0,0,1,300,339.42Z"/></g></g></g></svg>