<svg xmlns="http://www.w3.org/2000/svg" xmlns:xlink="http://www.w3.org/1999/xlink" viewBox="0 0 2804.46 2800"><defs><style>.cls-1{isolation:isolate;}.cls-2{fill:url(#linear-gradient);}.cls-3{fill:#91b3fa;}.cls-10,.cls-11,.cls-12,.cls-13,.cls-14,.cls-15,.cls-16,.cls-18,.cls-19,.cls-36,.cls-4,.cls-9{fill:#fff;}.cls-4{mix-blend-mode:soft-light;}.cls-5{fill:#bdd0fb;}.cls-6{fill:url(#linear-gradient-2);}.cls-7{fill:url(#linear-gradient-3);}.cls-8{fill:url(#linear-gradient-4);}.cls-9{opacity:0.44;}.cls-10{opacity:0.43;}.cls-11{opacity:0.46;}.cls-12{opacity:0.38;}.cls-13{opacity:0.42;}.cls-14{opacity:0.58;}.cls-15{opacity:0.28;}.cls-16{opacity:0.47;}.cls-17{fill:url(#linear-gradient-5);}.cls-18{opacity:0.69;}.cls-20{fill:url(#linear-gradient-6);}.cls-21{fill:url(#linear-gradient-7);}.cls-22{fill:url(#linear-gradient-8);}.cls-23{fill:url(#linear-gradient-9);}.cls-24{fill:url(#linear-gradient-10);}.cls-25{fill:url(#linear-gradient-11);}.cls-26{fill:url(#linear-gradient-12);}.cls-27{fill:#ffcd52;}.cls-28{fill:url(#linear-gradient-13);}.cls-29{fill:url(#linear-gradient-14);}.cls-30{fill:url(#linear-gradient-15);}.cls-31{fill:url(#linear-gradient-16);}.cls-32{fill:url(#linear-gradient-17);}.cls-33{fill:url(#linear-gradient-18);}.cls-34{fill:url(#linear-gradient-19);}.cls-35{fill:url(#linear-gradient-20);}.cls-36{opacity:0.76;}.cls-37{fill:url(#linear-gradient-21);}.cls-38{fill:#7d97f4;}.cls-39{fill:url(#linear-gradient-22);}.cls-40{fill:url(#linear-gradient-23);}.cls-41{fill:url(#linear-gradient-24);}.cls-42{fill:url(#linear-gradient-25);}.cls-43{fill:url(#linear-gradient-26);}.cls-44{fill:url(#linear-gradient-27);}.cls-45{fill:url(#linear-gradient-28);}.cls-46{fill:url(#linear-gradient-29);}.cls-47{fill:url(#linear-gradient-30);}.cls-48{fill:url(#linear-gradient-31);}.cls-49{fill:url(#linear-gradient-32);}.cls-50{fill:url(#linear-gradient-33);}.cls-51{fill:url(#linear-gradient-34);}.cls-52{fill:url(#linear-gradient-35);}.cls-53{opacity:0.64;}.cls-54{fill:url(#linear-gradient-36);}.cls-55{fill:url(#linear-gradient-37);}.cls-56{fill:url(#linear-gradient-38);}.cls-57{fill:url(#linear-gradient-39);}.cls-58{fill:url(#linear-gradient-40);}.cls-59{fill:url(#linear-gradient-41);}.cls-60{fill:url(#linear-gradient-42);}.cls-61{fill:url(#linear-gradient-43);}.cls-62{fill:url(#linear-gradient-44);}.cls-63{fill:url(#linear-gradient-45);}.cls-64{fill:url(#linear-gradient-46);}.cls-65{fill:url(#linear-gradient-47);}.cls-66{fill:url(#linear-gradient-48);}.cls-67{fill:url(#linear-gradient-49);}</style><linearGradient id="linear-gradient" x1="3107.06" y1="3581" x2="673.96" y2="559.24" gradientUnits="userSpaceOnUse"><stop offset="0" stop-color="#dae3fe"/><stop offset="1" stop-color="#e9effd"/></linearGradient><linearGradient id="linear-gradient-2" x1="1485.12" y1="1999.19" x2="1485.12" y2="3210.54" gradientUnits="userSpaceOnUse"><stop offset="0" stop-color="#09005d"/><stop offset="1" stop-color="#1a0f91"/></linearGradient><linearGradient id="linear-gradient-3" x1="1401.14" y1="54.15" x2="1421.34" y2="2133.63" xlink:href="#linear-gradient-2"/><linearGradient id="linear-gradient-4" x1="1558.01" y1="1655.15" x2="1470.52" y2="2704.99" xlink:href="#linear-gradient-2"/><linearGradient id="linear-gradient-5" x1="1321.07" y1="1748.65" x2="2202.66" y2="1129.52" gradientUnits="userSpaceOnUse"><stop offset="0" stop-color="#ffe076"/><stop offset="1" stop-color="#ffcd4d"/></linearGradient><linearGradient id="linear-gradient-6" x1="2412.22" y1="2099.28" x2="2657.6" y2="1502.95" gradientTransform="translate(-51.04 10.83) rotate(-1.08)" xlink:href="#linear-gradient-2"/><linearGradient id="linear-gradient-7" x1="2181.07" y1="1465.78" x2="2392.33" y2="1942.78" gradientUnits="userSpaceOnUse"><stop offset="0" stop-color="#febbba"/><stop offset="1" stop-color="#ff928e"/></linearGradient><linearGradient id="linear-gradient-8" x1="2184.82" y1="1464.12" x2="2396.08" y2="1941.12" xlink:href="#linear-gradient-7"/><linearGradient id="linear-gradient-9" x1="2711.7" y1="2428.88" x2="2726.23" y2="2787.24" gradientUnits="userSpaceOnUse"><stop offset="0" stop-color="#4f52ff"/><stop offset="1" stop-color="#4042e2"/></linearGradient><linearGradient id="linear-gradient-10" x1="2420.21" y1="2990.92" x2="2512.77" y2="1909.11" xlink:href="#linear-gradient-7"/><linearGradient id="linear-gradient-11" x1="2463.69" y1="2400.41" x2="2441.9" y2="2795.09" xlink:href="#linear-gradient-9"/><linearGradient id="linear-gradient-12" x1="2606.41" y1="3007.02" x2="2698.99" y2="1924.92" xlink:href="#linear-gradient-7"/><linearGradient id="linear-gradient-13" x1="2726.37" y1="1902.05" x2="2228.44" y2="2573.51" xlink:href="#linear-gradient-9"/><linearGradient id="linear-gradient-14" x1="2410.06" y1="1924.57" x2="2427.45" y2="1797.37" xlink:href="#linear-gradient-7"/><linearGradient id="linear-gradient-15" x1="2318.15" y1="1627.15" x2="2301.8" y2="2029.54" xlink:href="#linear-gradient-7"/><linearGradient id="linear-gradient-16" x1="2135.47" y1="1623.69" x2="2120.24" y2="1998.55" xlink:href="#linear-gradient-7"/><linearGradient id="linear-gradient-17" x1="-5881.9" y1="2512.65" x2="-5765.46" y2="2646.52" gradientTransform="matrix(0.97, 0.26, -0.26, 0.97, 8722.42, 751.51)" xlink:href="#linear-gradient-7"/><linearGradient id="linear-gradient-18" x1="2289.47" y1="2055.68" x2="2537.03" y2="1454.03" gradientTransform="translate(-51.04 10.83) rotate(-1.08)" xlink:href="#linear-gradient-2"/><linearGradient id="linear-gradient-19" x1="-5852.81" y1="2487.35" x2="-5736.37" y2="2621.22" gradientTransform="matrix(0.97, 0.26, -0.26, 0.97, 8722.42, 751.51)" xlink:href="#linear-gradient-7"/><linearGradient id="linear-gradient-20" x1="718.47" y1="1470.74" x2="728.56" y2="1992.29" gradientUnits="userSpaceOnUse"><stop offset="0" stop-color="#ffd25f"/><stop offset="1" stop-color="#ff9b40"/></linearGradient><linearGradient id="linear-gradient-21" x1="707.73" y1="3456.12" x2="678.25" y2="2855.28" xlink:href="#linear-gradient-9"/><linearGradient id="linear-gradient-22" x1="1007.41" y1="860.92" x2="889.08" y2="1104.81" gradientTransform="translate(47.93 424.14) rotate(9.25)" xlink:href="#linear-gradient-2"/><linearGradient id="linear-gradient-23" x1="511.34" y1="1915.44" x2="760.87" y2="2518.22" xlink:href="#linear-gradient-7"/><linearGradient id="linear-gradient-24" x1="-6026.32" y1="1914.14" x2="-5776.78" y2="2516.92" gradientTransform="matrix(-1, 0, 0, 1, -5072.61, 0)" xlink:href="#linear-gradient-7"/><linearGradient id="linear-gradient-25" x1="732.99" y1="1993.34" x2="720.02" y2="2518.69" xlink:href="#linear-gradient-2"/><linearGradient id="linear-gradient-26" x1="894.32" y1="2282.26" x2="1030.68" y2="2282.26" gradientTransform="translate(6.02 20.3) rotate(0.44)" xlink:href="#linear-gradient-2"/><linearGradient id="linear-gradient-27" x1="972.77" y1="2063.57" x2="828.83" y2="2453.46" xlink:href="#linear-gradient-7"/><linearGradient id="linear-gradient-28" x1="-6326.48" y1="2242.68" x2="-6190.06" y2="2242.68" gradientTransform="matrix(-1, -0.02, -0.02, 1, -5728.54, -59.99)" xlink:href="#linear-gradient-2"/><linearGradient id="linear-gradient-29" x1="684.38" y1="1946.08" x2="540.36" y2="2336.17" xlink:href="#linear-gradient-7"/><linearGradient id="linear-gradient-30" x1="1033.78" y1="2056.05" x2="659.58" y2="2337.14" xlink:href="#linear-gradient-9"/><linearGradient id="linear-gradient-31" x1="695.39" y1="2308.16" x2="597.32" y2="2058.08" xlink:href="#linear-gradient-9"/><linearGradient id="linear-gradient-32" x1="730.39" y1="1965.21" x2="727.07" y2="1676.32" xlink:href="#linear-gradient-7"/><linearGradient id="linear-gradient-33" x1="886.08" y1="1254.54" x2="896.43" y2="1003.16" gradientTransform="translate(47.93 424.14) rotate(9.25)" xlink:href="#linear-gradient-7"/><linearGradient id="linear-gradient-34" x1="1008.27" y1="826.59" x2="875.13" y2="1101.03" gradientTransform="translate(47.93 424.14) rotate(9.25)" xlink:href="#linear-gradient-2"/><linearGradient id="linear-gradient-35" x1="369.48" y1="2186.63" x2="385.69" y2="1792.7" gradientTransform="translate(30.41 -280.48) rotate(-7.64)" xlink:href="#linear-gradient-7"/><linearGradient id="linear-gradient-36" x1="2652.72" y1="1179.67" x2="2665.38" y2="1179.67" xlink:href="#linear-gradient-9"/><linearGradient id="linear-gradient-37" x1="2123.93" y1="1114.17" x2="2647.23" y2="1114.17" xlink:href="#linear-gradient-9"/><linearGradient id="linear-gradient-38" x1="2124.58" y1="936.06" x2="2131.97" y2="936.06" xlink:href="#linear-gradient-9"/><linearGradient id="linear-gradient-39" x1="2230.72" y1="722.76" x2="2243.86" y2="722.76" xlink:href="#linear-gradient-9"/><linearGradient id="linear-gradient-40" x1="2250.67" y1="813.06" x2="2753.07" y2="813.06" xlink:href="#linear-gradient-9"/><linearGradient id="linear-gradient-41" x1="2743.37" y1="998.56" x2="2751.15" y2="998.56" xlink:href="#linear-gradient-9"/><linearGradient id="linear-gradient-42" x1="2165.52" y1="961.33" x2="2706.29" y2="961.33" xlink:href="#linear-gradient-9"/><linearGradient id="linear-gradient-43" x1="2201.97" y1="790.29" x2="2214.65" y2="790.29" xlink:href="#linear-gradient-9"/><linearGradient id="linear-gradient-44" x1="1780.48" y1="740.05" x2="2196.05" y2="740.05" xlink:href="#linear-gradient-9"/><linearGradient id="linear-gradient-45" x1="1780.88" y1="595.8" x2="1788.25" y2="595.8" xlink:href="#linear-gradient-9"/><linearGradient id="linear-gradient-46" x1="1865.83" y1="423.91" x2="1879" y2="423.91" xlink:href="#linear-gradient-9"/><linearGradient id="linear-gradient-47" x1="1885.62" y1="494.27" x2="2284.75" y2="494.27" xlink:href="#linear-gradient-9"/><linearGradient id="linear-gradient-48" x1="2275.65" y1="644.08" x2="2283.4" y2="644.08" xlink:href="#linear-gradient-9"/><linearGradient id="linear-gradient-49" x1="1814.39" y1="615.16" x2="2246.68" y2="615.16" xlink:href="#linear-gradient-9"/></defs><g class="cls-1"><g id="Layer_2" data-name="Layer 2"><g id="Illustration"><path class="cls-2" d="M2437.7,2389.33c-55.89,58.83-108.77,96.77-150.55,126.75C1796,2868.46,1214.93,2765.74,1091.43,2740.66c-182.38-37-534.91-108.64-789.78-408.37C-83.95,1878.84-23.9,1164.43,275.19,692.84c54.71-86.26,343.7-565,931.08-641.82,355.47-46.46,769.84,47.25,1069.91,298.65C2906.06,877.39,2861.22,1943.46,2437.7,2389.33Z"/><path class="cls-3" d="M30,13.83C27.4,2.81,42.9-4.52,52.4,3.18c96.42,78.19,328.08,312.33,270.35,721.49-72.44,513.36,51.4,700.68,205.56,814.95,0,0-211.71-53.74-344.9-243.81C-143.61,829.12,76,209.83,30,13.83Z"/><path class="cls-4" d="M103.36,174.18c12.06,57.15,22.81,114.47,31.12,172.05q13,86.31,19.83,173.1c4.28,57.84,7.31,115.75,7.48,173.67.47,57.92-1.93,115.8-4.59,173.9-2.27,58.08-4.95,116.58-.7,175.49s16.56,118.1,41.12,173.69c6.14,13.86,12.59,27.67,19.93,41,7,13.47,14.79,26.67,22.8,39.75a626.74,626.74,0,0,0,54.7,75.24c40.74,47.78,89.88,90.16,144,126,5.7,3.78,13.86,2.85,18.23-2.07s3.34-11.71-2.09-15.54l0,0c-12.88-9-25.63-18.21-37.85-27.83-6.21-4.73-12.16-9.69-18.21-14.54-5.83-5-11.9-9.91-17.54-15.1a622.86,622.86,0,0,1-63.6-65.37c-38.86-45.94-70-97.14-93.54-150.22a508.06,508.06,0,0,1-27.27-81.85A560.14,560.14,0,0,1,184,1040.79c-4.63-57.18-2.54-115.1-.75-173.19s3-116.5,1.43-174.86q-1-43.75-3.85-87.46c-.84-14.57-2-29.12-3.16-43.67q-1.95-21.81-4.23-43.59-9.39-87.11-25-173.52C137.72,287,125.23,229.72,110.19,173A3.53,3.53,0,0,0,106,170.7,3.06,3.06,0,0,0,103.36,174.18Z"/><path class="cls-5" d="M279.76,1281.45a24.28,24.28,0,0,1-39.73-6.76c-39.24-86.64-128-341.62,18.62-635.37C382.49,391.27,426.07,245,441.26,177.21c3.21-14.33,22.85-16.23,28.78-2.79C535.44,322.67,708.14,826.93,279.76,1281.45Z"/><path class="cls-4" d="M258.28,1272.31a6.88,6.88,0,0,1-1.29.1,6.72,6.72,0,0,1-6.63-6.83c.06-4.21,8.26-425.31,164.88-778a6.74,6.74,0,1,1,12.31,5.47C272.07,843.17,263.88,1261.6,263.82,1265.79A6.74,6.74,0,0,1,258.28,1272.31Z"/><polygon class="cls-6" points="1197.49 2053.27 1137.58 2590.59 1832.67 2590.59 1742.13 2053.27 1197.49 2053.27"/><path class="cls-7" d="M29.86,729.42V1960a186.69,186.69,0,0,0,181.87,186.63c449.48,11.59,2021.54,39.69,2449.41,33.38a137.36,137.36,0,0,0,135.24-133.45c8.25-285.89,21.65-973.35-27.94-1292.51a141.36,141.36,0,0,0-135.16-119.65c-376.6-12-2043.09-50.3-2470.76-40.7A135.7,135.7,0,0,0,29.86,729.42Z"/><path class="cls-3" d="M107.08,723.43V1892.59a108.15,108.15,0,0,0,106.54,108.15l2386,29.48a105.27,105.27,0,0,0,106.84-104.86l4-1158.72a77,77,0,0,0-75.11-77.25L192.52,640A83.41,83.41,0,0,0,107.08,723.43Z"/><path class="cls-3" d="M2724.39,2078.49h-.07L107,2033.9a3.67,3.67,0,1,1,.13-7.33l2617.31,44.59a3.67,3.67,0,0,1-.06,7.33Z"/><path class="cls-8" d="M1982.39,2700.52H965.08c-27.64,0-48.39-19.67-43.05-40.8l13.05-51.63c3.93-15.52,21-26.92,41.3-27.56l980.72-30.6c21.2-.66,40,10.59,44.58,26.73l23.53,82.22C2031.33,2680.25,2010.47,2700.52,1982.39,2700.52Z"/><path class="cls-3" d="M1512.71,2594.87a3.67,3.67,0,0,1,0-7.33l42-.61h0a3.66,3.66,0,0,1,.06,7.32l-42,.62Z"/><path class="cls-3" d="M959.7,2672.41a2.94,2.94,0,0,1-.59,0,3.65,3.65,0,0,1-3-4.19l6-37.55a42.22,42.22,0,0,1,41.16-35.63l445.74-6.52a3.7,3.7,0,0,1,3.72,3.61,3.66,3.66,0,0,1-3.61,3.72l-445.75,6.51a34.94,34.94,0,0,0-34,29.46l-6,37.55A3.67,3.67,0,0,1,959.7,2672.41Z"/><path class="cls-9" d="M2190.72,1083.84H1925.51a30.15,30.15,0,0,1,0-60.29h265.21a30.15,30.15,0,0,1,0,60.29Z"/><path class="cls-10" d="M2288.33,1036.4h286.25c18,0,32.53,53.54,32.53,119.58v704.19c0,66-14.57,119.59-32.53,119.59H2288.33c-18,0-32.53-53.54-32.53-119.59V1156C2255.8,1089.94,2270.36,1036.4,2288.33,1036.4Z"/><rect class="cls-11" x="1895.37" y="1117.33" width="325.49" height="237.78" rx="30.14"/><path class="cls-12" d="M1925.51,1408.32h265.21c16.65,0,30.14,32.53,30.14,72.65v427.79c0,40.12-13.49,72.64-30.14,72.64H1925.51c-16.65,0-30.14-32.52-30.14-72.64V1481C1895.37,1440.85,1908.86,1408.32,1925.51,1408.32Z"/><path class="cls-13" d="M2603.79,986.25H228a49.8,49.8,0,0,1-49.79-49.8V738.3a49.8,49.8,0,0,1,51.05-49.78L2605.05,748.6a49.79,49.79,0,0,1,48.53,49.78V936.45A49.8,49.8,0,0,1,2603.79,986.25Z"/><rect class="cls-14" x="971.97" y="1045.15" width="873.54" height="755.82" rx="36.52"/><path class="cls-15" d="M1843.24,1993.91l-1646-13.85a36.35,36.35,0,0,1-36-36.35v-58.08a50.26,50.26,0,0,1,50.26-50.26H1841a19.41,19.41,0,0,1,19.4,19.41v122.09A17,17,0,0,1,1843.24,1993.91Z"/><rect class="cls-16" x="161.21" y="1023.55" width="759.98" height="759.98" rx="34.41"/><path class="cls-17" d="M1394.49,1102.2l778.48-7a27.34,27.34,0,0,1,27.6,27.51l-3.4,597.37a27.34,27.34,0,0,1-28.15,27.19c-140.75-4.2-765.66-22.71-793.24-21.56-27.26,1.14-12.45-478.73-8.38-597.14A27.33,27.33,0,0,1,1394.49,1102.2Z"/><path class="cls-18" d="M2169.85,1724.78h-.15c-111.82-3.34-674.86-20.06-778.65-21.52l-1.39,0-.25-1.37c-9.76-55-9.56-279.77.5-572.49a4.82,4.82,0,0,1,4.79-4.65l778.47-7a4.83,4.83,0,0,1,4.88,4.85L2174.64,1720A4.83,4.83,0,0,1,2169.85,1724.78Zm-777.36-24.87c107.37,1.59,666,18.18,777.3,21.5h.12a1.43,1.43,0,0,0,1.36-1.46l3.41-597.37a1.39,1.39,0,0,0-.42-1,1.46,1.46,0,0,0-1.07-.43l-778.46,7a1.45,1.45,0,0,0-1.45,1.39C1383.3,1419.62,1383,1642.79,1392.49,1699.91Z"/><path class="cls-19" d="M1488.44,1648h510.32a20.54,20.54,0,0,0,17.7-31l-202-343.45a20.54,20.54,0,0,0-36.39,1.89l-97.55,213.75a20.53,20.53,0,0,1-32.56,6.61l-39.46-36.17a20.54,20.54,0,0,0-30.75,3.41l-106.14,152.65A20.53,20.53,0,0,0,1488.44,1648Z"/><circle class="cls-19" cx="1991.82" cy="1263.2" r="73.36" transform="translate(-331.79 858.39) rotate(-22.5)"/><path class="cls-20" d="M2659.82,1818c-17.92-66.25-73.27-120.68-134.94-134.44-11.33-2.53-17.89-14.07-15.23-25.37a2,2,0,0,1,0-.24c8.94-38.53-15.76-69.22-53-77.86s-72.94,8-81.88,46.58c-6,26,1.7,55.25,18.8,74.2,7,7.8,7.61,19.45.78,27.45-37.58,44-52.87,111.24-36.62,171.35,23.94,88.54,107.2,128.09,190.6,105.54S2683.76,1906.52,2659.82,1818Z"/><path class="cls-3" d="M2633.88,1902.48l-1.62-1.14c14.93-21.19,16.85-51.78,5-79.83-9.41-22.28-26.25-42.65-53-64.11-10-8-20.53-15.59-30.74-22.93-12.3-8.83-25-18-36.81-27.9-10.6-8.94-21.76-20-24.1-34.53-1.17-7.23-.08-14.94,1-22.39,1.65-11.65,3.21-22.67-3.62-31.1l1.54-1.24c7.37,9.1,5.68,21.06,4,32.62-1,7.3-2.11,14.86-1,21.79,2.24,13.87,13.1,24.63,23.43,33.33,11.73,9.89,24.41,19,36.68,27.82,10.24,7.35,20.83,15,30.83,23,27,21.68,44,42.3,53.57,64.89C2651.19,1849.41,2649.2,1880.73,2633.88,1902.48Z"/><path class="cls-3" d="M2594.22,1915.27l-1.86-.68c10.16-28.1,7.19-62.63-8.16-94.74-15.22-31.82-40.09-57.77-60-76.82l1.37-1.43c20.08,19.16,45.11,45.28,60.47,77.4C2601.56,1851.59,2604.56,1886.67,2594.22,1915.27Z"/><path class="cls-21" d="M2194.25,1551.8l-.69-22.88,23.92-47.49a31,31,0,0,0,.09-27.65l-27.09-54.7s-15.65,118.74-19.77,128.61,11.17,27.6,11.17,27.6Z"/><path class="cls-22" d="M2193.56,1528.92s72.75,198.31,196.7,260.3c0,0-41.25,67.31-62.78,71.39,0,0-132.42-169.47-145.92-308.32Z"/><path class="cls-23" d="M2692.08,2721.85l3.65,30.08c3.81,14.29,22.21,50.31,45.83,48,14.53-1.44,16.28-43.9,14.26-50.26-3.69-11.61-10.45-29-20.18-39.3h-33.36A10.27,10.27,0,0,0,2692.08,2721.85Z"/><path class="cls-24" d="M2430.76,2369.53l-5.63,33.13s18.86,191,22.21,267.42a59.79,59.79,0,0,1-8.86,34l-32.79,53.25,83.34-49.17,1.66-10.17-13.64-18.76,17.86-214a65.66,65.66,0,0,0-7.47-36.32l-17.23-32.38Z"/><path class="cls-25" d="M2400.2,2765.07h26.6a16,16,0,0,0,12.71-6.23c8.29-10.78,25.46-31.79,33.68-32.34,11.06-.74,9.64,38.57,9.64,38.57h6.2l7.85-48.85a28.93,28.93,0,0,0-15.17-30.22h0s-2.53,18.69-16.24,27-55.77,37.88-55.77,37.88a37.86,37.86,0,0,0-10.8.28C2390.5,2752.64,2391.68,2765.07,2400.2,2765.07Z"/><path class="cls-26" d="M2544.91,2385.27s110.47,209.56,128,257.4,23.72,87.76,23.95,91.54c.37,5.91,7.71,11.57,28,11.57,10.45,0,15.57-4.19,18.08-8.24a11.77,11.77,0,0,0,.44-11.43c-6.39-12.94-26.67-54.27-34.18-73-9-22.39-28.25-123.81-38.83-159.08s-22.54-73.52-68.61-108.75C2601.75,2385.27,2570.13,2354.29,2544.91,2385.27Z"/><path class="cls-27" d="M2475.12,2041.89c-16.18-68.56.1-120.21,17.19-152.05a51.4,51.4,0,0,0-21.52-70.12c-40-20.78-80.53-30.5-80.53-30.5s-79.19,57.9-69.8,103.21c5.51,26.57,55.67,159.1,55.67,159.1S2422.51,2073.48,2475.12,2041.89Z"/><path class="cls-28" d="M2538.3,2101.67c-11.6-34.94-63.18-59.78-63.18-59.78-52.61,31.59-99,9.64-99,9.64s-10.4,39.76-3.22,76.71,52.22,274.42,52.22,274.42c71,14.38,180.13-14.47,180.13-14.47C2560.05,2307.93,2549.9,2136.61,2538.3,2101.67Z"/><path class="cls-29" d="M2442,1709.42l23.17,104.07c2.22,9.16-6.14,7.66-15.41,5.92-15.18-2.86-34.74-8.76-41.28-20.57a11.35,11.35,0,0,1-1.18-3.92l-10-72.16a13,13,0,0,1,7.59-13.63l19.21-8.52A13,13,0,0,1,2442,1709.42Z"/><path class="cls-30" d="M2152.45,1640.68s61,211.84,306.88,191.93a28.47,28.47,0,0,1,30.77,26.12l.66,8.5a37.91,37.91,0,0,1-39.66,40.86c-81.79-4.14-257.43-36.26-317.63-230.59Z"/><path class="cls-31" d="M2133.47,1677.5s-11.72-34.48-14.66-56,7.89-69.94,17.2-83.54,10.87,19.74,15.06,35.41-2.9,38-2.9,38l4.28,29.3Z"/><path class="cls-32" d="M2394.53,1623.56s-58.58,85.35-22.15,109.13,78.13-36.88,78.13-36.88,13.1-46.35-1.8-61.71S2394.53,1623.56,2394.53,1623.56Z"/><path class="cls-33" d="M2419.11,1602.86s-25.49,6.54-28.86,18.2,36.73,21.64,47.92,22l9.89,46.58s25.79-44.48,14.77-69.68S2419.11,1602.86,2419.11,1602.86Z"/><path class="cls-34" d="M2438.73,1689.84s22.91-27.57,32.56-10.06-20.5,31.36-31.18,22.87Z"/><path class="cls-3" d="M247.28,2508H1180V2356.49H247.28C267.24,2356.49,267.24,2508,247.28,2508Z"/><path class="cls-35" d="M1180,2470.06v-69.32c0-24.44-18.43-44.25-41.17-44.25H251.21c-17.88,0-32.37-11.76-32.37-26.27,0-4.41,4.4-8,9.83-8h970.07c22.25,0,57.57,28.38,57.57,63.39v96.82c0,33-34.29,59.77-55.27,59.77H233.78c-8.26,0-14.94-5.42-14.94-12.12,0-12.22,12.2-22.13,27.27-22.13H1144.7C1164.18,2508,1180,2491,1180,2470.06Z"/><path class="cls-36" d="M1154.1,2390.94H279.58a3.37,3.37,0,1,1,0-6.73H1154.1a3.37,3.37,0,1,1,0,6.73Z"/><path class="cls-36" d="M1154.1,2413.42H279.58a3.37,3.37,0,1,1,0-6.73H1154.1a3.37,3.37,0,1,1,0,6.73Z"/><path class="cls-36" d="M1154.1,2435.91H279.58a3.37,3.37,0,1,1,0-6.73H1154.1a3.37,3.37,0,1,1,0,6.73Z"/><path class="cls-36" d="M1154.1,2458.39H279.58a3.37,3.37,0,1,1,0-6.73H1154.1a3.37,3.37,0,1,1,0,6.73Z"/><path class="cls-36" d="M1154.1,2480.87H279.58a3.37,3.37,0,1,1,0-6.73H1154.1a3.37,3.37,0,1,1,0,6.73Z"/><rect class="cls-37" x="46.81" y="2544.34" width="1244.79" height="253.11" rx="14.68"/><rect class="cls-38" x="187.49" y="2573.43" width="146.24" height="194.93" rx="24.37"/><rect class="cls-38" x="355.23" y="2573.43" width="54.87" height="194.93" rx="19.82"/><path class="cls-39" d="M676.51,1641.09c-.6,1.15-38.65,29.15-38.65,29.15s8.4,60.12,42.53,83.85c37.51,26.1,90.5-21.49,90.5-21.49s42.16,10,64.58-77.75c5.15-20.14-24.55-21.84-60.39-18.13C728.87,1641.5,676.51,1641.09,676.51,1641.09Z"/><path class="cls-27" d="M605.39,1846.19a160.72,160.72,0,0,1,48.79-22.7c6.56-1.78,42,8.51,63.82,8,30-.69,60.59-14.35,85.35-8.18,24.58,6.12,44.71,14.13,56.33,22.39,34.77,24.74,55.19,70.86,67.64,116.55-23.56,24.18-53.22,34.93-53.22,34.93l-5.48,222.08-131.31,67.19L587.42,2211.2l5.37-217S545.2,1972,541.71,1964,563.4,1875.07,605.39,1846.19Z"/><path class="cls-40" d="M543.92,1963s-63.78,176.82,81.66,249.5c30.2-4,18.59-54.17,18.59-54.17s-63.2-14-44.22-161.49C582.48,1982.45,543.92,1963,543.92,1963Z"/><path class="cls-41" d="M924.25,1963s43.89,184.58-81.66,249.5c-30.2-4-18.59-54.17-18.59-54.17s50.94-25.08,44.22-161.49C885.69,1982.45,924.25,1963,924.25,1963Z"/><rect class="cls-42" x="585.7" y="2030.42" width="287.96" height="194.47" rx="8.33"/><path class="cls-43" d="M1000,2282.55c-33-7.56-109.12-3.5-109.12-3.5l-3.1,8.39-5.13,41.7s72.54,13.08,108.29,13.05a34.09,34.09,0,0,0,10-1.5c1.09-1,2.16-2,3.17-3.1C1019.27,2321,1014.89,2296.69,1000,2282.55Z"/><path class="cls-44" d="M869,2276.7l12.9.55a24.88,24.88,0,0,1,18.12,9.37,30.58,30.58,0,0,1,6.65,20.91,24.11,24.11,0,0,1-7,15.91,19.51,19.51,0,0,1-15.09,5.73l-19.74-1.4Z"/><path class="cls-45" d="M435.27,2278.54c33.14-6.55,109.17-.15,109.17-.15l2.89,8.48,4.09,41.84s-72.84,10.85-108.58,9.72a34,34,0,0,1-10-1.81c-1.06-1-2.1-2.06-3.08-3.19C415,2316.41,420,2292.22,435.27,2278.54Z"/><path class="cls-46" d="M566.38,2276.72l-12.91.15a24.69,24.69,0,0,0-18.35,8.81,30.44,30.44,0,0,0-7.16,20.7,24.17,24.17,0,0,0,6.58,16.11,19.6,19.6,0,0,0,14.94,6.19l19.76-.79Z"/><path class="cls-47" d="M1009.18,2151.82c-14.95-34.4-51.5-40-82.61-23.9-.54.71-197.57,101.7-371.33,145.95a188.76,188.76,0,0,1,8.09,49.6c.1,3.71,0,7.38-.18,11,133.25-6.84,277.86-51.28,402.12-90.33C1003.81,2231.7,1025.74,2189.94,1009.18,2151.82Z"/><path class="cls-48" d="M869.9,2326.08a114.65,114.65,0,0,1,11.21-53.69c.23-.76.51-1.49.75-2.24-9.92-3.07-22.74-7.23-39.58-13-123.39-42.22-217.51-84.86-307.35-133.94-34.9-19.07-74.58-6.29-85.75,35-10,36.86,11.93,68.34,45.17,79.4,99.44,33.09,47.66,23.9,80.14,34.35,87.22,27,195.76,51.54,295.62,58.24C870,2328.87,870,2327.47,869.9,2326.08Z"/><path class="cls-49" d="M654.18,1823.49s13.27,57.51,77.7,56.31c65.62-1.19,71.47-56.49,71.47-56.49l-42.87-9.18-3.58-47.76-64.48,4.78-1.19,45.37Z"/><path class="cls-50" d="M701.48,1631.05s-73.89,143.13,13.76,177.86c61.82,24.49,100.58-95.05,89-127.43-17.87-50.06-29.65-44.12-29.65-44.12Z"/><path class="cls-51" d="M822,1618c36.51,10,5.31,89.2-49.65,70.48s-76.55-18.45-85.12-3.36-10.4,68.68-29,42.19c-20.37-29-31.73-87.33-6.75-106.12,22.32-16.79,27.53-42.83,54.3-41.93,35.54,1.2,63-14.55,79.07-3.19C803.33,1589.15,795.18,1610.65,822,1618Z"/><path class="cls-52" d="M683.89,1697.46s-15.75-17-18.28,3.48,5.58,46.75,15.07,32.33S683.89,1697.46,683.89,1697.46Z"/><path class="cls-3" d="M746.66,2112.39c1.53,10.32-4,19.69-14.32,21.21a18.88,18.88,0,0,1-21.44-15.91c-1.53-10.32,3.19-20.57,13.51-22.1S745.14,2102.08,746.66,2112.39Z"/><circle class="cls-19" cx="548.59" cy="1231.71" r="337.03"/><path class="cls-3" d="M270.81,1215.27l70.73-36.88v15.71a6.13,6.13,0,0,1-.9,3.26,7.22,7.22,0,0,1-2.94,2.55l-32.42,16.61a30.4,30.4,0,0,1-4.33,1.83c-1.52.5-3.14,1-4.86,1.38q2.58.63,4.86,1.38a29.33,29.33,0,0,1,4.33,1.84l32.42,16.69a7.29,7.29,0,0,1,2.94,2.55,6.13,6.13,0,0,1,.9,3.26v15.71l-70.73-37Z"/><path class="cls-3" d="M373.77,1279.91V1147.22h22.05v51a46.92,46.92,0,0,1,11.79-8.21,34.09,34.09,0,0,1,15.09-3.13,32.82,32.82,0,0,1,13.31,2.55,26.24,26.24,0,0,1,9.68,7.14,31.49,31.49,0,0,1,5.9,11,46.71,46.71,0,0,1,2,14.07v58.3H431.54v-58.3q0-8.4-3.88-13T416,1204a23,23,0,0,0-10.71,2.59,38.4,38.4,0,0,0-9.47,7.06v66.25Z"/><path class="cls-3" d="M505.39,1281.34q-11.88,0-18.31-6.74T480.65,1256v-51.16h-9.28a4.24,4.24,0,0,1-4.38-4.65v-8.74l14.73-2.42,4.65-25a4.41,4.41,0,0,1,1.65-2.77,5.26,5.26,0,0,1,3.26-1h11.43v28.84h24.11v15.72H502.71v49.65a9.71,9.71,0,0,0,2.14,6.69,7.26,7.26,0,0,0,5.72,2.41,10.25,10.25,0,0,0,3.43-.49,18.2,18.2,0,0,0,2.41-1c.69-.36,1.3-.7,1.84-1a3,3,0,0,1,1.6-.49,2.51,2.51,0,0,1,1.61.49,7.65,7.65,0,0,1,1.34,1.47l6.61,10.72a33.44,33.44,0,0,1-11.08,6.07A41.13,41.13,0,0,1,505.39,1281.34Z"/><path class="cls-3" d="M544.41,1279.91V1188.3h13.48a5.41,5.41,0,0,1,5.62,4l1.43,6.79a51.91,51.91,0,0,1,5-4.92,32.67,32.67,0,0,1,5.62-3.84,30.44,30.44,0,0,1,6.43-2.54,28.43,28.43,0,0,1,7.55-.94q8.65,0,14.24,4.69a28.22,28.22,0,0,1,8.35,12.45,28,28,0,0,1,5.36-7.81,29.28,29.28,0,0,1,7.05-5.31,32.6,32.6,0,0,1,8.17-3,39.56,39.56,0,0,1,8.71-1,36.52,36.52,0,0,1,13.48,2.32,25.85,25.85,0,0,1,9.91,6.79,30,30,0,0,1,6.12,10.89,47.46,47.46,0,0,1,2.1,14.74v58.3H651v-58.3q0-8.76-3.84-13.17T635.93,1204a16.64,16.64,0,0,0-6.29,1.17,14.89,14.89,0,0,0-5.09,3.35,15.08,15.08,0,0,0-3.44,5.49,21.19,21.19,0,0,0-1.25,7.59v58.3H597.71v-58.3q0-9.19-3.7-13.4c-2.47-2.79-6.12-4.2-10.94-4.2a17.75,17.75,0,0,0-8.89,2.37,30.07,30.07,0,0,0-7.72,6.48v67.05Z"/><path class="cls-3" d="M718.26,1147.22v132.69H696.2V1147.22Z"/><path class="cls-3" d="M751.83,1261.16v-15.71a6.13,6.13,0,0,1,.9-3.26,7.22,7.22,0,0,1,2.94-2.55L788.09,1223a42.76,42.76,0,0,1,9.2-3.22c-1.73-.41-3.35-.88-4.87-1.38a30.4,30.4,0,0,1-4.33-1.83l-32.42-16.61a7.15,7.15,0,0,1-2.94-2.55,6.13,6.13,0,0,1-.9-3.26v-15.71l70.72,36.88v8.93Z"/><circle class="cls-19" cx="1321.68" cy="1014.01" r="296.87"/><path class="cls-3" d="M1164.73,1014.49l85.8-44.74v19.07a7.49,7.49,0,0,1-1.08,3.95,8.88,8.88,0,0,1-3.58,3.09L1206.55,1016a34.72,34.72,0,0,1-5.26,2.22c-1.84.62-3.81,1.17-5.9,1.68,2.09.5,4.06,1.07,5.9,1.68a35.77,35.77,0,0,1,5.26,2.22l39.32,20.26a8.88,8.88,0,0,1,3.58,3.09,7.47,7.47,0,0,1,1.08,3.95v19.07l-85.8-44.85Z"/><path class="cls-3" d="M1299,1093.25a16.1,16.1,0,0,1-2.49,4.34,14.86,14.86,0,0,1-3.46,3.08,16.47,16.47,0,0,1-4.12,1.89,14.52,14.52,0,0,1-4.22.66h-11.27l63.26-161.85a15.29,15.29,0,0,1,5.31-7,14.16,14.16,0,0,1,8.34-2.44h11.38Z"/><path class="cls-3" d="M1384,1070.18v-19.07a7.47,7.47,0,0,1,1.08-3.95,8.88,8.88,0,0,1,3.58-3.09l39.33-20.26a51.29,51.29,0,0,1,11.15-3.9c-2.09-.51-4.06-1.06-5.9-1.68A34.61,34.61,0,0,1,1428,1016l-39.33-20.15a8.88,8.88,0,0,1-3.58-3.09,7.49,7.49,0,0,1-1.08-3.95V969.75l85.8,44.74v10.84Z"/><g class="cls-53"><path class="cls-54" d="M2656.08,1186a3.37,3.37,0,0,1-2.35-5.77c2-1.94,3.94-3.91,5.87-5.9a3.36,3.36,0,0,1,4.83,4.68q-3,3.06-6,6A3.38,3.38,0,0,1,2656.08,1186Z"/><path class="cls-55" d="M2446.23,1274.62a3.37,3.37,0,0,1-.08-6.73c5.45-.13,11-.41,16.45-.84a3.37,3.37,0,0,1,.53,6.71c-5.59.43-11.25.72-16.82.86Zm-16.66,0h-.1c-5.59-.16-11.25-.48-16.81-1a3.36,3.36,0,1,1,.56-6.7c5.44.45,11,.77,16.44.93a3.36,3.36,0,0,1-.09,6.72Zm49.85-2.55a3.36,3.36,0,0,1-.44-6.7c5.41-.72,10.88-1.6,16.27-2.61a3.36,3.36,0,0,1,1.24,6.61c-5.5,1-11.09,1.93-16.62,2.67Zm-83-.21-.46,0c-5.55-.77-11.14-1.69-16.61-2.74a3.37,3.37,0,1,1,1.27-6.61c5.35,1,10.82,1.93,16.26,2.68a3.37,3.37,0,0,1-.46,6.7Zm115.77-6a3.36,3.36,0,0,1-.8-6.63c5.3-1.3,10.64-2.76,15.89-4.35a3.36,3.36,0,1,1,2,6.44c-5.36,1.63-10.83,3.12-16.24,4.44A3.19,3.19,0,0,1,2512.15,1265.86Zm-148.47-.34a3.91,3.91,0,0,1-.82-.1c-5.41-1.35-10.87-2.86-16.22-4.49a3.37,3.37,0,0,1,2-6.44c5.23,1.6,10.57,3.08,15.88,4.39a3.37,3.37,0,0,1-.81,6.64Zm180.34-9.3a3.37,3.37,0,0,1-1.14-6.53c5.12-1.85,10.28-3.87,15.34-6a3.36,3.36,0,1,1,2.62,6.19c-5.17,2.19-10.44,4.26-15.67,6.15A3.28,3.28,0,0,1,2544,1256.22Zm-212.18-.43a3.39,3.39,0,0,1-1.16-.21c-5.25-1.92-10.51-4-15.65-6.19a3.36,3.36,0,0,1,2.64-6.19c5,2.14,10.18,4.18,15.32,6.06a3.37,3.37,0,0,1-1.15,6.53Zm242.86-12.54a3.37,3.37,0,0,1-1.48-6.39c4.93-2.4,9.85-5,14.62-7.6a3.37,3.37,0,0,1,3.26,5.89c-4.88,2.7-9.9,5.31-14.93,7.76A3.39,3.39,0,0,1,2574.7,1243.25Zm-273.49-.52a3.28,3.28,0,0,1-1.48-.35c-5-2.46-10-5.09-14.91-7.81a3.37,3.37,0,0,1,3.29-5.88c4.78,2.67,9.68,5.25,14.58,7.65a3.37,3.37,0,0,1-1.48,6.39Zm302.62-15.62a3.36,3.36,0,0,1-1.79-6.21c4.64-2.91,9.26-6,13.72-9.11a3.37,3.37,0,0,1,3.87,5.51c-4.56,3.2-9.27,6.33-14,9.3A3.33,3.33,0,0,1,2603.83,1227.11Zm-331.68-.62a3.37,3.37,0,0,1-1.79-.52c-4.72-3-9.42-6.13-14-9.36a3.36,3.36,0,1,1,3.89-5.49c4.46,3.16,9.06,6.24,13.68,9.16a3.36,3.36,0,0,1-1.8,6.21ZM2631.06,1208a3.37,3.37,0,0,1-2.08-6c4.31-3.39,8.58-6.93,12.67-10.52a3.37,3.37,0,0,1,4.44,5.06c-4.19,3.67-8.54,7.29-13,10.75A3.31,3.31,0,0,1,2631.06,1208Zm-386.06-.72a3.34,3.34,0,0,1-2.08-.73c-4.39-3.48-8.73-7.11-12.9-10.8a3.37,3.37,0,0,1,4.46-5c4.08,3.61,8.33,7.16,12.62,10.56a3.37,3.37,0,0,1-2.1,6Zm-24.91-22a3.35,3.35,0,0,1-2.37-1c-4-3.9-7.88-8-11.65-12.12a3.36,3.36,0,0,1,5-4.53c3.69,4.05,7.53,8,11.41,11.86a3.36,3.36,0,0,1-2.36,5.76Zm-22.4-24.58a3.37,3.37,0,0,1-2.61-1.23c-3.53-4.33-7-8.81-10.3-13.32a3.37,3.37,0,0,1,5.44-4c3.22,4.41,6.61,8.8,10.07,13a3.36,3.36,0,0,1-2.6,5.49ZM2178,1133.76a3.37,3.37,0,0,1-2.82-1.53c-3.06-4.7-6-9.52-8.81-14.34a3.36,3.36,0,0,1,5.83-3.36c2.72,4.71,5.62,9.43,8.62,14a3.36,3.36,0,0,1-2.82,5.2ZM2161.37,1105a3.37,3.37,0,0,1-3-1.84c-1.19-2.35-2.36-4.71-3.51-7.1-1.29-2.69-2.53-5.39-3.74-8.09a3.37,3.37,0,1,1,6.16-2.74q1.75,4,3.65,7.92,1.68,3.51,3.44,7a3.37,3.37,0,0,1-3,4.9Zm-13.54-30.42a3.36,3.36,0,0,1-3.14-2.16c-2-5.21-3.89-10.56-5.61-15.88a3.37,3.37,0,1,1,6.41-2.07c1.68,5.21,3.52,10.44,5.48,15.54a3.35,3.35,0,0,1-1.94,4.34A3.16,3.16,0,0,1,2147.83,1074.53Zm-10.24-31.69a3.37,3.37,0,0,1-3.25-2.5c-1.42-5.38-2.73-10.89-3.87-16.39a3.36,3.36,0,1,1,6.58-1.37c1.13,5.38,2.4,10.77,3.8,16a3.38,3.38,0,0,1-2.4,4.12A3.69,3.69,0,0,1,2137.59,1042.84Zm-6.78-32.6a3.35,3.35,0,0,1-3.32-2.86c-.84-5.51-1.54-11.13-2.09-16.7a3.37,3.37,0,0,1,6.7-.66c.53,5.45,1.22,11,2,16.35a3.36,3.36,0,0,1-2.82,3.83A2.92,2.92,0,0,1,2130.81,1010.24Zm-3.23-33.14a3.37,3.37,0,0,1-3.36-3.22c-.2-4.47-.29-9-.29-13.54v-3.29a3.43,3.43,0,0,1,3.4-3.33,3.36,3.36,0,0,1,3.33,3.4v3.22c0,4.42.09,8.87.28,13.25a3.37,3.37,0,0,1-3.22,3.51Z"/><path class="cls-56" d="M2128,943.62h-.22a3.36,3.36,0,0,1-3.14-3.58q.27-4.24.66-8.47a3.36,3.36,0,1,1,6.7.62q-.37,4.14-.65,8.29A3.36,3.36,0,0,1,2128,943.62Z"/></g><g class="cls-53"><path class="cls-57" d="M2234.08,728.84a3.37,3.37,0,0,1-2.21-5.91c2.14-1.85,4.3-3.69,6.49-5.49a3.37,3.37,0,1,1,4.28,5.2c-2.15,1.76-4.26,3.55-6.35,5.37A3.38,3.38,0,0,1,2234.08,728.84Z"/><path class="cls-58" d="M2749.24,980.45h-.19a3.35,3.35,0,0,1-3.17-3.54c.31-5.67.46-11.38.46-17a3.37,3.37,0,1,1,6.73,0c0,5.7-.16,11.54-.48,17.33A3.36,3.36,0,0,1,2749.24,980.45Zm0-34.29a3.37,3.37,0,0,1-3.36-3.18c-.31-5.63-.78-11.32-1.41-16.9a3.37,3.37,0,0,1,6.69-.75c.64,5.71,1.12,11.52,1.44,17.28a3.36,3.36,0,0,1-3.17,3.54Zm-3.79-34.08a3.37,3.37,0,0,1-3.32-2.81c-.93-5.54-2-11.13-3.28-16.64a3.37,3.37,0,1,1,6.57-1.48c1.27,5.62,2.4,11.35,3.35,17A3.36,3.36,0,0,1,2746,912,3.64,3.64,0,0,1,2745.44,912.08Zm-7.55-33.45a3.37,3.37,0,0,1-3.24-2.44c-1.55-5.44-3.26-10.88-5.1-16.18a3.37,3.37,0,0,1,6.37-2.2c1.87,5.42,3.62,11,5.2,16.53a3.36,3.36,0,0,1-2.31,4.16A3.3,3.3,0,0,1,2737.89,878.63Zm-11.19-32.41a3.37,3.37,0,0,1-3.12-2.09c-2.12-5.2-4.42-10.42-6.84-15.53a3.37,3.37,0,0,1,6.09-2.88c2.47,5.22,4.82,10.56,7,15.87a3.36,3.36,0,0,1-3.11,4.63Zm-14.67-31a3.37,3.37,0,0,1-3-1.76c-2.67-4.94-5.52-9.89-8.47-14.7a3.36,3.36,0,1,1,5.73-3.52c3,4.92,5.93,10,8.66,15a3.38,3.38,0,0,1-1.36,4.57A3.42,3.42,0,0,1,2712,815.22ZM2694.09,786a3.36,3.36,0,0,1-2.77-1.46c-3.19-4.61-6.57-9.21-10-13.66a3.37,3.37,0,1,1,5.31-4.14c3.54,4.55,7,9.25,10.26,14a3.37,3.37,0,0,1-2.77,5.28Zm-21-27a3.36,3.36,0,0,1-2.54-1.15c-3.69-4.24-7.55-8.43-11.48-12.47a3.36,3.36,0,0,1,4.82-4.69c4,4.12,8,8.41,11.73,12.74a3.36,3.36,0,0,1-2.53,5.57Zm-23.9-24.54a3.36,3.36,0,0,1-2.27-.89c-4.13-3.79-8.43-7.53-12.8-11.12a3.37,3.37,0,0,1,4.28-5.2c4.46,3.67,8.86,7.49,13.07,11.37a3.36,3.36,0,0,1-2.28,5.84ZM2254,712.88a3.37,3.37,0,0,1-2-6.08c4.63-3.4,9.42-6.72,14.25-9.87a3.36,3.36,0,1,1,3.68,5.63c-4.72,3.09-9.41,6.33-13.94,9.66A3.37,3.37,0,0,1,2254,712.88Zm368.64-.21a3.31,3.31,0,0,1-2-.65c-4.53-3.32-9.23-6.57-13.95-9.65a3.36,3.36,0,1,1,3.67-5.64c4.83,3.15,9.63,6.47,14.25,9.86a3.36,3.36,0,0,1-2,6.08Zm-339.93-18.53a3.36,3.36,0,0,1-1.68-6.28c5-2.88,10.12-5.66,15.24-8.25a3.37,3.37,0,0,1,3,6c-5,2.53-10,5.25-14.92,8.07A3.41,3.41,0,0,1,2282.75,694.14ZM2594,694a3.41,3.41,0,0,1-1.67-.45c-4.87-2.81-9.9-5.52-14.93-8.06a3.36,3.36,0,0,1,3-6c5.14,2.59,10.28,5.36,15.26,8.23A3.37,3.37,0,0,1,2594,694Zm-280.61-15.31a3.37,3.37,0,0,1-1.36-6.45c5.27-2.32,10.67-4.52,16.05-6.55a3.37,3.37,0,0,1,2.37,6.3c-5.27,2-10.55,4.14-15.71,6.41A3.25,3.25,0,0,1,2313.35,678.65Zm250-.13a3.42,3.42,0,0,1-1.35-.29c-5.13-2.25-10.42-4.39-15.72-6.37a3.36,3.36,0,1,1,2.36-6.3c5.41,2,10.81,4.21,16.06,6.51a3.37,3.37,0,0,1-1.35,6.45Zm-217.93-11.95a3.37,3.37,0,0,1-1-6.58c5.49-1.72,11.1-3.32,16.68-4.74a3.36,3.36,0,0,1,1.66,6.52c-5.46,1.39-11,3-16.31,4.64A3.29,3.29,0,0,1,2345.43,666.57Zm185.81-.06a3.46,3.46,0,0,1-1-.15c-5.36-1.68-10.85-3.23-16.33-4.62a3.36,3.36,0,1,1,1.66-6.52c5.59,1.42,11.21,3,16.68,4.72a3.36,3.36,0,0,1-1,6.57Zm-152.58-8.41a3.37,3.37,0,0,1-.65-6.67c5.65-1.11,11.41-2.08,17.1-2.87a3.36,3.36,0,1,1,.93,6.66c-5.57.78-11.2,1.73-16.73,2.81A2.94,2.94,0,0,1,2378.66,658.1Zm119.35,0a3.66,3.66,0,0,1-.65-.06c-5.53-1.09-11.16-2-16.73-2.8a3.37,3.37,0,0,1,.92-6.67c5.7.79,11.45,1.76,17.11,2.86a3.37,3.37,0,0,1-.65,6.67Zm-34-4.73h-.28c-5.6-.46-11.3-.78-16.94-.94a3.38,3.38,0,0,1-3.28-3.46,3.43,3.43,0,0,1,3.46-3.26c5.77.15,11.59.48,17.32,1a3.36,3.36,0,0,1-.28,6.71Zm-51.42,0a3.37,3.37,0,0,1-.28-6.72c5.75-.48,11.57-.8,17.31-1a3.42,3.42,0,0,1,3.46,3.27,3.36,3.36,0,0,1-3.27,3.46c-5.62.15-11.32.47-16.94.94Z"/><path class="cls-59" d="M2746.74,1006.09l-.47,0a3.36,3.36,0,0,1-2.86-3.8q.57-4.11,1-8.25a3.37,3.37,0,0,1,6.69.75c-.31,2.82-.67,5.63-1.06,8.44A3.36,3.36,0,0,1,2746.74,1006.09Z"/></g><path class="cls-60" d="M2706,1032.36a4.32,4.32,0,0,0-1.24-4.87l-40.2-34a229.42,229.42,0,0,0-1.63-74.34l38.64-35.77a4.32,4.32,0,0,0,1-4.92l-25.47-57.84a4.34,4.34,0,0,0-4.32-2.57l-52.47,4.36A229.23,229.23,0,0,0,2566.57,771l2-52.65a4.33,4.33,0,0,0-2.76-4.2l-58.91-22.89a4.32,4.32,0,0,0-4.87,1.24l-34,40.21a229.41,229.41,0,0,0-74.34,1.62l-35.77-38.64a4.34,4.34,0,0,0-4.92-1l-57.84,25.47a4.34,4.34,0,0,0-2.57,4.32l4.35,52.48a229.59,229.59,0,0,0-51.38,53.74l-52.65-2a4.34,4.34,0,0,0-4.2,2.76l-22.88,58.91a4.34,4.34,0,0,0,1.23,4.87l40.21,34.05a229.7,229.7,0,0,0,1.62,74.34l-38.63,35.77a4.31,4.31,0,0,0-1,4.92l25.47,57.83a4.3,4.3,0,0,0,4.32,2.57l52.47-4.35a229.43,229.43,0,0,0,53.75,51.38l-2,52.65a4.34,4.34,0,0,0,2.76,4.2l58.91,22.89a4.34,4.34,0,0,0,4.87-1.24l34-40.21a229.42,229.42,0,0,0,74.34-1.62L2513.9,1227a4.34,4.34,0,0,0,4.92,1l57.84-25.48a4.32,4.32,0,0,0,2.57-4.32l-4.36-52.47a229.62,229.62,0,0,0,51.39-53.74l52.64,2a4.33,4.33,0,0,0,4.21-2.75Z"/><path class="cls-3" d="M2436,1020.78a59.47,59.47,0,1,1,46.85-96h0a59.45,59.45,0,0,1-46.85,96Zm-.17-112.21a52.76,52.76,0,1,0,41.71,20.33h0A52.44,52.44,0,0,0,2442.39,909,54.23,54.23,0,0,0,2435.8,908.57Z"/><path class="cls-3" d="M2434.84,1116.8a155.74,155.74,0,1,1,152.51-187.06,3.82,3.82,0,0,1,.07.68,3.37,3.37,0,0,1-6.67.67,149.63,149.63,0,0,0-9.66-30.25h0q-1.43-3.26-3-6.42l0,0a2.4,2.4,0,0,0-.11-.23l0,0h0l0-.06a149.13,149.13,0,0,0-269.76,127c33.14,75.26,121.33,109.51,196.58,76.37a148.84,148.84,0,0,0,61.56-50.2,3.36,3.36,0,0,1,6.11,2,3.4,3.4,0,0,1-.61,1.94,156,156,0,0,1-126.94,65.69Z"/><g class="cls-53"><path class="cls-61" d="M2205.34,796.62a3.36,3.36,0,0,1-2.34-5.78q3-2.9,5.87-5.86a3.36,3.36,0,1,1,4.83,4.68q-3,3.06-6,6A3.33,3.33,0,0,1,2205.34,796.62Z"/><path class="cls-62" d="M2032.78,866.35c-4.56,0-9.18-.13-13.72-.38a3.36,3.36,0,0,1,.36-6.72c5.55.3,11.16.42,16.79.34h0a3.37,3.37,0,0,1,0,6.73C2035.13,866.34,2034,866.35,2032.78,866.35Zm20.47-.85a3.37,3.37,0,0,1-.27-6.72c5.55-.46,11.16-1.12,16.67-2a3.36,3.36,0,1,1,1,6.65c-5.66.87-11.42,1.55-17.13,2Zm-51-1-.42,0c-5.69-.7-11.42-1.61-17-2.7a3.37,3.37,0,1,1,1.28-6.61c5.46,1.06,11,2,16.58,2.63a3.37,3.37,0,0,1-.41,6.71Zm84.6-4.12a3.37,3.37,0,0,1-.74-6.65c5.45-1.22,10.91-2.65,16.25-4.24a3.36,3.36,0,0,1,1.92,6.45c-5.48,1.64-11.1,3.1-16.69,4.36A3.81,3.81,0,0,1,2086.89,860.35Zm-118-2.35a3.26,3.26,0,0,1-.87-.12c-5.52-1.46-11.08-3.14-16.51-5a3.36,3.36,0,0,1,2.16-6.37c5.3,1.8,10.7,3.43,16.08,4.86a3.37,3.37,0,0,1-.86,6.62Zm150.6-7.36a3.37,3.37,0,0,1-1.18-6.52c5.2-2,10.43-4.11,15.52-6.41a3.36,3.36,0,1,1,2.78,6.12c-5.23,2.38-10.6,4.59-15.94,6.59A3.28,3.28,0,0,1,2119.5,850.64Zm-182.81-3.59a3.28,3.28,0,0,1-1.3-.26c-5.27-2.2-10.55-4.62-15.68-7.18a3.37,3.37,0,0,1,3-6c5,2.5,10.13,4.85,15.26,7a3.36,3.36,0,0,1-1.29,6.47Zm213.8-10.46a3.36,3.36,0,0,1-1.59-6.33c4.9-2.64,9.78-5.48,14.5-8.44a3.37,3.37,0,0,1,3.59,5.7c-4.85,3-9.87,6-14.91,8.67A3.38,3.38,0,0,1,2150.49,836.59Zm-244.23-4.75a3.37,3.37,0,0,1-1.7-.46c-5-2.91-9.84-6-14.56-9.25a3.37,3.37,0,0,1,3.8-5.56c4.59,3.15,9.36,6.17,14.17,9a3.36,3.36,0,0,1-1.71,6.26Zm273-13.35a3.37,3.37,0,0,1-2-6.09c4.51-3.28,9-6.76,13.23-10.34a3.36,3.36,0,0,1,4.32,5.16c-4.38,3.68-8.95,7.25-13.58,10.63A3.41,3.41,0,0,1,2179.29,818.49Zm-301.09-5.86a3.37,3.37,0,0,1-2.09-.73c-4.51-3.56-8.93-7.32-13.16-11.15a3.37,3.37,0,0,1,4.53-5c4.11,3.73,8.42,7.38,12.81,10.85a3.37,3.37,0,0,1-2.09,6ZM1853,789.75a3.35,3.35,0,0,1-2.43-1c-4-4.13-7.82-8.46-11.49-12.86a3.37,3.37,0,0,1,5.17-4.31c3.57,4.29,7.33,8.49,11.18,12.51a3.36,3.36,0,0,1-2.43,5.69Zm-21.78-26.11a3.35,3.35,0,0,1-2.73-1.39c-3.35-4.63-6.58-9.44-9.63-14.31a3.37,3.37,0,0,1,5.71-3.57c3,4.75,6.12,9.43,9.37,13.93a3.36,3.36,0,0,1-2.72,5.34Zm-18-28.85a3.38,3.38,0,0,1-3-1.78c-1.72-3.24-3.41-6.56-5-9.9q-1.33-2.79-2.6-5.58a3.36,3.36,0,1,1,6.13-2.77c.82,1.82,1.67,3.63,2.54,5.45,1.55,3.24,3.19,6.48,4.87,9.63a3.37,3.37,0,0,1-3,4.95Zm-14-31a3.36,3.36,0,0,1-3.15-2.2c-2-5.37-3.83-10.88-5.44-16.37a3.36,3.36,0,1,1,6.45-1.9c1.58,5.34,3.36,10.7,5.3,15.93a3.37,3.37,0,0,1-3.16,4.54Zm-9.62-32.64a3.37,3.37,0,0,1-3.28-2.64c-1.23-5.56-2.29-11.27-3.15-17a3.37,3.37,0,1,1,6.66-1c.83,5.54,1.86,11.09,3.06,16.51a3.37,3.37,0,0,1-2.56,4A3,3,0,0,1,1789.66,671.12Zm-5-33.64a3.38,3.38,0,0,1-3.36-3.1c-.45-5.69-.71-11.49-.78-17.23a3.36,3.36,0,0,1,3.33-3.4,3.41,3.41,0,0,1,3.4,3.32c.07,5.59.32,11.24.76,16.78a3.36,3.36,0,0,1-3.08,3.62Z"/><path class="cls-63" d="M1784.25,603.36h-.2a3.36,3.36,0,0,1-3.16-3.56c.16-2.83.38-5.67.64-8.49a3.36,3.36,0,0,1,6.7.61q-.37,4.14-.62,8.28A3.37,3.37,0,0,1,1784.25,603.36Z"/></g><g class="cls-53"><path class="cls-64" d="M1869.2,430a3.37,3.37,0,0,1-2.21-5.91q3.21-2.79,6.53-5.48a3.36,3.36,0,1,1,4.24,5.22c-2.16,1.75-4.27,3.53-6.35,5.34A3.35,3.35,0,0,1,1869.2,430Z"/><path class="cls-65" d="M2281.23,626.47h-.13a3.36,3.36,0,0,1-3.24-3.48c.11-3,.16-6,.16-9q0-3.79-.12-7.57a3.37,3.37,0,0,1,6.73-.21c.08,2.59.12,5.19.12,7.78,0,3.07-.05,6.13-.17,9.19A3.35,3.35,0,0,1,2281.23,626.47ZM2280.18,593a3.36,3.36,0,0,1-3.35-3c-.54-5.44-1.27-11-2.19-16.37a3.37,3.37,0,1,1,6.64-1.12c.94,5.57,1.69,11.23,2.25,16.83a3.37,3.37,0,0,1-3,3.68Zm-5.56-33a3.37,3.37,0,0,1-3.27-2.58c-1.27-5.33-2.75-10.69-4.38-15.94a3.37,3.37,0,0,1,6.43-2c1.67,5.39,3.19,10.9,4.5,16.37a3.37,3.37,0,0,1-2.49,4.06A3.61,3.61,0,0,1,2274.62,560Zm-9.95-32a3.37,3.37,0,0,1-3.14-2.16c-2-5.09-4.15-10.2-6.48-15.2a3.36,3.36,0,1,1,6.1-2.84c2.39,5.13,4.63,10.38,6.66,15.61a3.37,3.37,0,0,1-1.93,4.36A3.46,3.46,0,0,1,2264.67,528Zm-14.13-30.36a3.36,3.36,0,0,1-2.95-1.74c-2.66-4.85-5.5-9.63-8.43-14.21a3.37,3.37,0,0,1,5.67-3.63c3,4.71,5.92,9.62,8.66,14.59a3.37,3.37,0,0,1-1.33,4.57A3.26,3.26,0,0,1,2250.54,497.68Zm-18-28.2a3.37,3.37,0,0,1-2.71-1.36c-3.27-4.43-6.72-8.78-10.26-12.94a3.37,3.37,0,1,1,5.13-4.36c3.63,4.28,7.18,8.75,10.54,13.3a3.36,3.36,0,0,1-2.7,5.36ZM2210.83,444a3.36,3.36,0,0,1-2.41-1c-3.82-3.92-7.83-7.77-11.91-11.43a3.36,3.36,0,1,1,4.49-5c4.19,3.76,8.31,7.71,12.25,11.75a3.36,3.36,0,0,1-2.42,5.71Zm-24.92-22.34a3.37,3.37,0,0,1-2.07-.71c-4.31-3.37-8.8-6.64-13.35-9.73a3.36,3.36,0,1,1,3.77-5.57c4.68,3.17,9.3,6.53,13.73,10a3.37,3.37,0,0,1-2.08,6ZM1889,414.46a3.37,3.37,0,0,1-1.94-6.12c4.59-3.23,9.36-6.36,14.19-9.31a3.37,3.37,0,0,1,3.5,5.75c-4.7,2.87-9.35,5.92-13.81,9.06A3.34,3.34,0,0,1,1889,414.46Zm269.22-11.6a3.4,3.4,0,0,1-1.7-.46c-4.73-2.76-9.62-5.4-14.54-7.84a3.37,3.37,0,0,1,3-6c5.05,2.51,10.07,5.22,14.93,8.06a3.36,3.36,0,0,1-1.69,6.27Zm-240.63-5.81a3.37,3.37,0,0,1-1.56-6.35q3.8-2,7.68-3.84c2.53-1.22,5.07-2.38,7.62-3.5a3.36,3.36,0,1,1,2.71,6.16c-2.48,1.09-5,2.23-7.42,3.41s-5,2.45-7.48,3.74A3.35,3.35,0,0,1,1917.58,397.05ZM2128.23,388a3.45,3.45,0,0,1-1.29-.26c-5.06-2.11-10.26-4.07-15.46-5.84a3.36,3.36,0,0,1,2.17-6.37c5.34,1.81,10.68,3.83,15.87,6a3.37,3.37,0,0,1-1.29,6.48Zm-180-4.39a3.37,3.37,0,0,1-1.15-6.53c5.31-1.92,10.74-3.68,16.15-5.24a3.37,3.37,0,0,1,1.86,6.47c-5.27,1.51-10.55,3.23-15.72,5.1A3.47,3.47,0,0,1,1948.23,383.58Zm148.31-6.38a3.7,3.7,0,0,1-.87-.11c-5.3-1.42-10.71-2.67-16.1-3.72a3.37,3.37,0,0,1,1.3-6.61c5.53,1.09,11.09,2.37,16.53,3.82a3.37,3.37,0,0,1-.86,6.62Zm-116.13-2.87a3.36,3.36,0,0,1-.71-6.65c5.51-1.19,11.13-2.2,16.71-3a3.37,3.37,0,0,1,1,6.66c-5.43.79-10.9,1.78-16.26,2.93A3.51,3.51,0,0,1,1980.41,374.33Zm83.28-3.56-.42,0c-5.46-.69-11-1.2-16.45-1.53a3.36,3.36,0,1,1,.39-6.71c5.62.33,11.3.86,16.9,1.57a3.36,3.36,0,0,1-.42,6.7Zm-50.15-1.26a3.36,3.36,0,0,1-.26-6.72c5.62-.43,11.32-.67,17-.72h0a3.37,3.37,0,0,1,0,6.73c-5.49.05-11,.29-16.5.7Z"/><path class="cls-66" d="M2279,651.62a3.71,3.71,0,0,1-.47,0,3.38,3.38,0,0,1-2.87-3.8q.57-4.11,1-8.23a3.36,3.36,0,1,1,6.69.7q-.45,4.23-1,8.45A3.38,3.38,0,0,1,2279,651.62Z"/></g><path class="cls-67" d="M2246.44,671.94a3.46,3.46,0,0,0-1-3.9l-32.14-27.21a183.56,183.56,0,0,0-1.3-59.43l30.89-28.59a3.47,3.47,0,0,0,.81-3.94l-20.36-46.23a3.46,3.46,0,0,0-3.45-2.06l-42,3.48A183.39,183.39,0,0,0,2135,463l1.62-42.09a3.47,3.47,0,0,0-2.2-3.36l-47.09-18.29a3.47,3.47,0,0,0-3.9,1l-27.22,32.14a183.5,183.5,0,0,0-59.42,1.3l-28.6-30.89a3.45,3.45,0,0,0-3.93-.81L1918,422.34a3.45,3.45,0,0,0-2.06,3.45l3.48,41.95a183.57,183.57,0,0,0-41.07,43l-42.09-1.62a3.48,3.48,0,0,0-3.36,2.21l-18.29,47.09a3.44,3.44,0,0,0,1,3.89l32.14,27.22a183.49,183.49,0,0,0,1.3,59.42l-30.89,28.6a3.47,3.47,0,0,0-.82,3.93l20.37,46.24a3.45,3.45,0,0,0,3.45,2.05l41.95-3.48a183,183,0,0,0,43,41.07l-1.62,42.09a3.46,3.46,0,0,0,2.2,3.36l47.09,18.29a3.46,3.46,0,0,0,3.9-1l27.21-32.14a183.55,183.55,0,0,0,59.43-1.29l28.6,30.88a3.47,3.47,0,0,0,3.93.82L2143.05,808a3.48,3.48,0,0,0,2.06-3.46l-3.48-41.94a183.42,183.42,0,0,0,41.07-43l42.09,1.62a3.47,3.47,0,0,0,3.36-2.2Z"/><path class="cls-3" d="M2030.63,663.39a48.78,48.78,0,0,1-6-.38,48.22,48.22,0,1,1,44-77.5h0a48.24,48.24,0,0,1-37.94,77.88Zm-.18-89.73a41.5,41.5,0,1,0,32.81,16h0a41.57,41.57,0,0,0-32.81-16Z"/><path class="cls-3" d="M2029.68,740.12a125.27,125.27,0,1,1,114.46-175.76h0a125.65,125.65,0,0,1,7.7,23.47c.14.64.29,1.29.42,1.94a3.92,3.92,0,0,1,.07.68,3.36,3.36,0,0,1-6.66.67,120.44,120.44,0,0,0-7.68-24h0a117.73,117.73,0,0,0-60.65-60.68c-1.62-.71-3.25-1.38-4.91-2a118.52,118.52,0,1,0,53.78,179.07,3.37,3.37,0,0,1,5.5,3.89,125.37,125.37,0,0,1-102,52.8Z"/></g></g></g></svg>