<?xml version="1.0" encoding="UTF-8"?>
<svg enable-background="new 0 0 970 500" version="1.1" viewBox="0 0 970 500" xml:space="preserve" xmlns="http://www.w3.org/2000/svg" xmlns:xlink="http://www.w3.org/1999/xlink">
<style type="text/css">
	.st0{display:none;}
	.st1{display:inline;fill:#FFFFFF;}
	.st2{fill:none;stroke:#F5F5F5;stroke-width:12;stroke-miterlimit:10;}
	.st3{display:inline;fill:none;}
	.st4{display:inline;}
	.st5{fill:#545757;}
	.st6{font-family:'Raleway-Medium';}
	.st7{font-size:4.9547px;}
	.st8{fill:#5044FF;}
	.st9{fill:#F6F5FF;}
	.st10{fill:#3E35C5;}
	.st11{display:none;fill:none;stroke:#5044FF;stroke-width:2;stroke-miterlimit:10;}
	.st12{enable-background:new    ;}
	.st13{fill:#2E2793;}
	.st14{fill:#FFD25F;}
	.st15{fill:#FFF5F9;}
	.st16{fill:#C5A249;}
	.st17{display:none;fill:none;stroke:#FF44A0;stroke-width:2;stroke-miterlimit:10;}
	.st18{fill:#937937;}
	.st19{fill:#852DEE;}
	.st20{fill:#F5F0FA;}
	.st21{fill:#6723B8;}
	.st22{display:none;fill:none;stroke:#852DEE;stroke-width:2;stroke-miterlimit:10;}
	.st23{fill:#632793;}
	.st24{fill:#61DD91;}
	.st25{fill:#FFF5F5;}
	.st26{fill:#4BAB70;}
	.st27{display:none;fill:none;stroke:#FF445B;stroke-width:2;stroke-miterlimit:10;}
	.st28{fill:#388054;}
	.st29{fill:none;}
	.st30{display:inline;fill:#545757;}
	.st31{fill:#44C4FF;}
	.st32{fill:#F5FBFF;}
	.st33{fill:#3598C5;}
	.st34{display:none;fill:none;stroke:#44C4FF;stroke-width:2;stroke-miterlimit:10;}
	.st35{fill:#277193;}
	.st36{fill:#474747;}
	.st37{font-family:'Raleway-Bold';}
	.st38{font-size:41.3634px;}
	.st39{fill:#BFBFBF;}
	.st40{font-size:8.6808px;}
	.st41{letter-spacing:1;}
</style>
<g class="st0">
	<rect class="st1" width="970" height="500"/>
</g>
		<polyline class="st2" points="130.3 205.5 308.2 292.1 476.1 205.5 652.4 292.1 821.8 206.5"/>
			<g class="st0">
				<rect class="st3" x="241.9" y="408.5" width="104.7" height="68.7"/>
				<text class="st4" transform="translate(241.94 412.09)"><tspan class="st5 st6 st7" x="0" y="0">Lorem ipsum dolor sit amet, consectetuer </tspan><tspan class="st5 st6 st7" x="0" y="8">adipiscing elit, sed diam nonummy nibh </tspan><tspan class="st5 st6 st7" x="0" y="16">euismod tincidunt ut laoreet dolore magna </tspan><tspan class="st5 st6 st7" x="0" y="24">aliquam erat volutpat. Ut wisi enim ad minim </tspan><tspan class="st5 st6 st7" x="0" y="32">veniam, quis nostrud exerci tation </tspan><tspan class="st5 st6 st7" x="0" y="40">ullamcorper suscipit lobortis nisl ut aliquip </tspan><tspan class="st5 st6 st7" x="0" y="48">ex ea commodo consequat.</tspan></text>
			</g>
						<path class="st8" d="m242.5 369 0.9-1.8c0.5 0.3 1 0.5 1.4 0.6s0.8 0.2 1.2 0.2c0.6 0 1-0.1 1.3-0.3s0.4-0.5 0.4-0.9-0.1-0.7-0.3-0.9-0.6-0.4-1.2-0.5c-1.2-0.3-2-0.7-2.5-1.1-0.5-0.5-0.8-1.2-0.8-2 0-0.9 0.3-1.6 1-2.3 0.7-0.6 1.6-0.9 2.9-0.9 0.5 0 1 0.1 1.5 0.2s1 0.3 1.4 0.5l-0.9 1.8c-0.4-0.2-0.8-0.4-1.1-0.5-0.4-0.1-0.7-0.2-1-0.2-0.5 0-0.9 0.1-1.1 0.3-0.3 0.2-0.4 0.5-0.4 0.8s0.1 0.6 0.4 0.8 0.7 0.3 1.3 0.5c1.1 0.3 1.9 0.7 2.4 1.2s0.8 1.2 0.8 2.1c0 1-0.3 1.8-1 2.4s-1.7 0.9-3 0.9c-0.6 0-1.2-0.1-1.8-0.2-0.7-0.1-1.3-0.4-1.8-0.7z"/>
						<path class="st8" d="m259.3 369.8h-6.3v-10.5h6v1.9h-3.7v2.4h3.5v1.9h-3.5v2.5h4v1.8z"/>
						<path class="st8" d="m270.8 369c-0.5 0.3-1.1 0.5-1.7 0.7s-1.3 0.3-2.1 0.3c-1.7 0-3-0.4-4-1.3s-1.5-2.2-1.5-4c0-1.6 0.5-2.9 1.5-4s2.4-1.6 4.2-1.6c0.7 0 1.3 0.1 1.8 0.2 0.6 0.1 1.1 0.3 1.7 0.6l-0.7 1.8c-0.5-0.2-0.9-0.4-1.4-0.4-0.4-0.1-0.9-0.1-1.4-0.1-1 0-1.8 0.3-2.4 0.9s-0.9 1.5-0.9 2.7 0.3 2.1 0.9 2.6 1.3 0.8 2.3 0.8c0.3 0 0.5 0 0.8-0.1 0.2 0 0.4-0.1 0.6-0.2v-2.1h-2.1v-1.8h4.4v5z"/>
						<path class="st8" d="m286 369.8h-2.3v-6.3-1.1c0-0.4 0-0.8 0.1-1.2h-0.1c-0.1 0.3-0.1 0.6-0.2 0.8s-0.1 0.4-0.2 0.6l-2.5 7.2h-1.8l-2.6-7.1c0-0.1-0.1-0.3-0.1-0.5-0.1-0.2-0.1-0.5-0.2-0.9h-0.1c0 0.5 0.1 1 0.1 1.4v1.3 5.9h-2.1v-10.5h3.3l2.2 6.3c0.1 0.2 0.2 0.5 0.2 0.7s0.1 0.5 0.2 0.7c0.1-0.3 0.1-0.5 0.2-0.8 0.1-0.2 0.1-0.4 0.2-0.6l2.2-6.3h3.3v10.4z"/>
						<path class="st8" d="m296 369.8h-6.2v-10.5h6v1.9h-3.8v2.4h3.5v1.9h-3.5v2.5h4v1.8z"/>
						<path class="st8" d="m308.3 369.8h-2.3l-4.4-6.7c-0.1-0.2-0.2-0.4-0.3-0.5s-0.2-0.3-0.2-0.4v0.7 1 5.9h-2.1v-10.5h2.5l4.2 6.5c0.1 0.1 0.2 0.3 0.3 0.4s0.2 0.3 0.2 0.4v-0.5-0.9-5.9h2.2v10.5z"/>
						<path class="st8" d="m319.3 361.1h-3v8.6h-2.3v-8.6h-3v-1.9h8.3v1.9z"/>
						<path class="st8" d="m320.9 369.8 3.8-10.5h2.7l3.8 10.5h-2.5l-0.7-2.2h-3.9l-0.7 2.2h-2.5zm3.7-4.1h2.8l-1.2-3.7c0-0.1-0.1-0.3-0.1-0.4s0-0.2-0.1-0.4c0 0.1-0.1 0.3-0.1 0.4s-0.1 0.2-0.1 0.4l-1.2 3.7z"/>
						<path class="st8" d="m341.1 361.1h-3v8.6h-2.3v-8.6h-3v-1.9h8.3v1.9z"/>
						<path class="st8" d="m346.1 369.8h-2.3v-10.5h2.3v10.5z"/>
						<path class="st8" d="m354.2 369.9c-1.5 0-2.7-0.5-3.7-1.5-0.9-1-1.4-2.3-1.4-3.8 0-1.7 0.5-3 1.4-4 1-1 2.2-1.5 3.8-1.5 1.5 0 2.7 0.5 3.6 1.5s1.4 2.3 1.4 3.9c0 1.7-0.5 3-1.4 4-0.9 0.9-2.2 1.4-3.7 1.4zm0-1.9c0.8 0 1.5-0.3 2-0.9s0.7-1.4 0.7-2.5-0.2-2-0.7-2.6-1.1-0.9-2-0.9c-0.8 0-1.5 0.3-2 0.9s-0.8 1.5-0.8 2.5c0 1.1 0.2 1.9 0.8 2.5s1.2 1 2 1z"/>
						<path class="st8" d="m371.8 369.8h-2.3l-4.4-6.7c-0.1-0.2-0.2-0.4-0.3-0.5s-0.2-0.3-0.2-0.4v0.7 1 5.9h-2.2v-10.5h2.5l4.2 6.5c0.1 0.1 0.2 0.3 0.3 0.4s0.2 0.3 0.2 0.4v-0.5-0.9-5.9h2.2v10.5z"/>
						<image transform="matrix(.24 0 0 .24 229.2 252.66)" width="657" height="507" overflow="visible" xlink:href="CCF7DE0C.png">
					</image>
						<path class="st8" d="m356.2 290.9-34.6 20.1c-7.4 4.3-19.4 4.3-26.8 0l-34.8-20.1c-3.7-2.2-5.6-5-5.6-7.8v4c0 2.8 1.9 5.7 5.6 7.8l34.8 20.1c7.4 4.3 19.4 4.3 26.8 0l34.6-20.1c3.7-2.1 5.5-4.9 5.5-7.7v-4c0 2.8-1.8 5.6-5.5 7.7z"/>
								<path class="st9" d="m356.1 275.4c7.4 4.3 7.5 11.2 0.1 15.5l-34.6 20.1c-7.4 4.3-19.4 4.3-26.8 0l-34.8-20.1c-7.4-4.3-7.5-11.2-0.1-15.5l34.6-20.1c7.4-4.3 19.4-4.3 26.8 0l34.8 20.1z"/>
						<path class="st10" d="m252.4 239.9c3.7-2.1 5.8 0.4 5.8 6.8 0 6.8-2.2 11.9-6.1 14.1-3.4 2-5.8-0.4-5.8-7 0-6.7 2.5-11.9 6.1-13.9zm-0.2 18.8c2.4-1.4 3.6-5.3 3.6-10.5 0-5-1.1-7.6-3.6-6.2-2.1 1.2-3.6 5-3.6 10.5 0.1 5.3 1.5 7.4 3.6 6.2"/>
						<path class="st10" d="m265.7 232.2c3.8-2.2 5.4-0.1 5.4 2.8 0 3.7-2.3 8.1-6 14.3l-1.4 2.3v0.1l7.9-4.5v2.3l-11.2 6.5v-1.7l1.9-3.1c4.5-7.5 6.5-11.2 6.5-14.3 0-2-0.9-3.4-3.5-1.9-1.6 0.9-2.9 2.6-3.7 3.9l-0.8-1.5c1.2-2.2 2.9-4.1 4.9-5.2z"/>
			<line class="st11" x1="241.8" x2="304" y1="397.9" y2="397.9"/>
					<g class="st12">
							<path class="st13" d="m314.8 285.4c0.9 0.5 0.9 1.4 0.1 1.9s-2.3 0.5-3.2 0-0.9-1.4 0-1.9c0.7-0.5 2.2-0.5 3.1 0zm-2.5 1.5c0.5 0.3 1.3 0.3 1.8 0s0.5-0.8 0-1.1-1.3-0.3-1.8 0-0.5 0.8 0 1.1"/>
							<path class="st13" d="m310.5 282.9c0.9 0.5 0.9 1.4 0.1 1.9s-2.3 0.5-3.2 0-0.9-1.4-0.1-1.9 2.3-0.5 3.2 0zm-2.5 1.5c0.5 0.3 1.3 0.3 1.8 0s0.5-0.8 0-1.1-1.3-0.3-1.8 0-0.5 0.8 0 1.1"/>
							<path class="st13" d="m306.2 280.4c0.9 0.5 0.9 1.4 0.1 1.9s-2.3 0.5-3.2 0-0.9-1.4 0-1.9c0.7-0.5 2.2-0.5 3.1 0zm-2.5 1.5c0.5 0.3 1.3 0.3 1.8 0s0.5-0.8 0-1.1-1.3-0.3-1.8 0c-0.5 0.4-0.5 0.8 0 1.1"/>
							<path class="st13" d="m322.8 283.4c2.1 1.2 2.2 3.2 0.1 4.4l-6.5 3.9c-2.1 1.2-5.5 1.2-7.6 0l-6.8-3.9-8.7-0.4c-0.1 0-0.2 0-0.3-0.1-0.1 0-0.1-0.1-0.1-0.1-0.1-0.1 0-0.2 0.1-0.3l3.7-2.2-1.3-0.7c-2.1-1.2-2.2-3.2-0.1-4.4l6.5-3.9c2.1-1.2 5.5-1.2 7.6 0l13.4 7.7zm-7.1 7.9 6.5-3.9c0.8-0.5 1.2-1.1 1.2-1.8s-0.5-1.3-1.3-1.8l-13.4-7.8c-0.9-0.5-2-0.7-3.1-0.7s-2.2 0.2-3.1 0.7l-6.5 3.9c-0.8 0.5-1.2 1.2-1.2 1.8 0 0.7 0.5 1.3 1.3 1.8l1.6 0.9 0.2 0.2c0 0.1-0.1 0.2-0.1 0.2l-3.3 1.9 7.8 0.4c0.1 0 0.2 0 0.3 0.1l6.9 4c0.9 0.5 2 0.7 3.1 0.7 1.1 0.1 2.2-0.1 3.1-0.6"/>
					</g>
						<path class="st14" d="m596.1 369.9c-1.5 0-2.7-0.5-3.7-1.5-0.9-1-1.4-2.3-1.4-3.8 0-1.7 0.5-3 1.4-4 1-1 2.2-1.5 3.8-1.5 1.5 0 2.7 0.5 3.6 1.5s1.4 2.3 1.4 3.9c0 1.7-0.5 3-1.4 4-0.9 0.9-2.2 1.4-3.7 1.4zm0-1.9c0.8 0 1.5-0.3 2-0.9s0.7-1.4 0.7-2.5-0.2-2-0.7-2.6-1.1-0.9-2-0.9c-0.8 0-1.5 0.3-2 0.9s-0.8 1.5-0.8 2.5c0 1.1 0.2 1.9 0.8 2.5s1.2 1 2 1z"/>
						<path class="st14" d="m606.6 366.3v3.5h-2.3v-10.5h3.6c1.3 0 2.3 0.3 3 0.9s1 1.4 1 2.6c0 1.1-0.4 2-1.1 2.6-0.8 0.7-1.8 1-3 1h-1.2zm0-5.3v3.5h1c0.6 0 1.1-0.1 1.5-0.4 0.3-0.3 0.5-0.7 0.5-1.3s-0.2-1-0.5-1.3-0.8-0.4-1.5-0.4h-1z"/>
						<path class="st14" d="m622 361.1h-3v8.6h-2.3v-8.6h-3v-1.9h8.3v1.9z"/>
						<path class="st14" d="m627 369.8h-2.3v-10.5h2.3v10.5z"/>
						<path class="st14" d="m642.6 369.8h-2.3v-6.3-1.1c0-0.4 0-0.8 0.1-1.2h-0.1c-0.1 0.3-0.1 0.6-0.2 0.8s-0.1 0.4-0.2 0.6l-2.5 7.2h-1.8l-2.6-7.1c0-0.1-0.1-0.3-0.1-0.5-0.1-0.2-0.1-0.5-0.2-0.9h-0.1c0 0.5 0.1 1 0.1 1.4v1.3 5.9h-2.1v-10.5h3.3l2.2 6.3c0.1 0.2 0.2 0.5 0.2 0.7s0.1 0.5 0.2 0.7c0.1-0.3 0.1-0.5 0.2-0.8 0.1-0.2 0.1-0.4 0.2-0.6l2.2-6.3h3.3v10.4z"/>
						<path class="st14" d="m648.6 369.8h-2.3v-10.5h2.3v10.5z"/>
						<path class="st14" d="m659.7 369.8h-8.3v-1.3l5.3-7.3h-4.9v-1.9h7.9v1.3l-5.2 7.4h5.2v1.8z"/>
						<path class="st14" d="m661.4 369.8 3.8-10.5h2.7l3.8 10.5h-2.5l-0.7-2.2h-3.9l-0.7 2.2h-2.5zm3.7-4.1h2.8l-1.2-3.7c0-0.1-0.1-0.3-0.1-0.4s0-0.2-0.1-0.4h-0.1c0 0.1 0 0.3-0.1 0.4 0 0.1-0.1 0.2-0.1 0.4l-1.1 3.7z"/>
						<path class="st14" d="m681.6 361.1h-3v8.6h-2.3v-8.6h-3v-1.9h8.3v1.9z"/>
						<path class="st14" d="m686.6 369.8h-2.3v-10.5h2.3v10.5z"/>
						<path class="st14" d="m694.7 369.9c-1.5 0-2.7-0.5-3.7-1.5-0.9-1-1.4-2.3-1.4-3.8 0-1.7 0.5-3 1.4-4 1-1 2.2-1.5 3.8-1.5 1.5 0 2.7 0.5 3.6 1.5s1.4 2.3 1.4 3.9c0 1.7-0.5 3-1.4 4-0.9 0.9-2.1 1.4-3.7 1.4zm0.1-1.9c0.8 0 1.5-0.3 2-0.9s0.7-1.4 0.7-2.5-0.2-2-0.7-2.6-1.1-0.9-2-0.9c-0.8 0-1.5 0.3-2 0.9s-0.8 1.5-0.8 2.5c0 1.1 0.2 1.9 0.8 2.5 0.5 0.6 1.1 1 2 1z"/>
						<path class="st14" d="m712.3 369.8h-2.3l-4.4-6.7c-0.1-0.2-0.2-0.4-0.3-0.5s-0.2-0.3-0.2-0.4v0.7 1 5.9h-2.2v-10.5h2.5l4.2 6.5c0.1 0.1 0.2 0.3 0.3 0.4s0.2 0.3 0.2 0.4v-0.5-0.9-5.9h2.2v10.5z"/>
						<image transform="matrix(.24 0 0 .24 572.4 252.66)" width="658" height="507" overflow="visible" xlink:href="CCF7DE0D.png">
					</image>
						<path class="st14" d="m699.5 290.9-34.6 20.1c-7.4 4.3-19.4 4.3-26.8 0l-34.8-20.1c-3.7-2.2-5.6-5-5.6-7.8v4c0 2.8 1.9 5.7 5.6 7.8l34.8 20.1c7.4 4.3 19.4 4.3 26.8 0l34.6-20.1c3.7-2.1 5.5-4.9 5.5-7.7v-4c0 2.8-1.8 5.6-5.5 7.7z"/>
								<path class="st15" d="m699.4 275.4c7.4 4.3 7.5 11.2 0.1 15.5l-34.6 20.1c-7.4 4.3-19.4 4.3-26.8 0l-34.8-20.1c-7.4-4.3-7.5-11.2-0.1-15.5l34.6-20.1c7.4-4.3 19.4-4.3 26.8 0l34.8 20.1z"/>
						<path class="st16" d="m595.8 240.1c3.7-2.1 5.8 0.4 5.8 6.8 0 6.8-2.2 11.9-6.1 14.1-3.4 2-5.8-0.4-5.8-7 0.1-6.6 2.6-11.8 6.1-13.9zm-0.1 18.8c2.4-1.4 3.6-5.3 3.6-10.5 0-5-1.1-7.6-3.6-6.2-2.1 1.2-3.6 5-3.6 10.5 0.1 5.3 1.5 7.5 3.6 6.2"/>
						<path class="st16" d="m613.4 242.9 2.5-1.4v2.1l-2.5 1.4v5.5l-2.2 1.3v-5.5l-8.1 4.7v-1.8l7.8-17.4 2.6-1.5-0.1 12.6zm-2.2-5.5c0-1 0-2.1 0.1-3.2h-0.1c-0.5 1.5-1 2.6-1.4 3.8l-4.3 9.3v0.1l5.7-3.3v-6.7"/>
			<line class="st17" x1="585.3" x2="647.4" y1="397.9" y2="397.9"/>
						<path class="st18" d="m655.5 280.7c2.5 1.5 2.6 3.8 0.2 5.3-2.5 1.5-6.5 1.5-9 0s-2.6-3.8-0.1-5.3c2.3-1.5 6.4-1.5 8.9 0zm-4.4 5.8c1.4 0 2.8-0.3 3.8-0.9s1.5-1.4 1.5-2.2-0.6-1.6-1.6-2.2c-1.1-0.6-2.5-0.9-3.8-0.9-1.4 0-2.7 0.3-3.8 0.9-1 0.6-1.5 1.4-1.5 2.2s0.6 1.6 1.6 2.2 2.5 0.9 3.8 0.9"/>
						<path class="st18" d="m663.5 288c0.1 0.1 0.1 0.3-0.1 0.4l-3 1.8c-0.2 0.1-0.4 0.1-0.6 0l-2.3-0.9c-0.9 0.3-1.8 0.6-2.8 0.7l-0.5 1.5c0 0.1-0.2 0.2-0.5 0.2h-4.3c-0.1 0-0.3 0-0.4-0.1-0.1 0-0.1-0.1-0.1-0.1l-0.5-1.4c-1.1-0.2-2.1-0.4-3.1-0.7l-2 0.8c-0.2 0.1-0.5 0.1-0.6 0l-3.1-1.8c-0.2-0.1-0.2-0.3-0.1-0.4l1.3-1.2c-0.6-0.6-1-1.2-1.3-1.9l-2.4-0.2c-0.1 0-0.2 0-0.3-0.1s-0.1-0.1-0.1-0.2l-0.1-2.5c0-0.1 0.2-0.3 0.4-0.3l2.5-0.2c0.3-0.6 0.7-1.2 1.3-1.8l-1.6-1.3c-0.1-0.1-0.1-0.3 0-0.4l3-1.8c0.2-0.1 0.4-0.1 0.6 0l2.4 1c0.9-0.3 1.8-0.5 2.7-0.6l0.4-1.7c0-0.1 0.2-0.3 0.5-0.3h4.3c0.1 0 0.3 0 0.4 0.1 0.1 0 0.1 0.1 0.1 0.2l0.6 1.9c0.9 0.1 1.7 0.3 2.5 0.6l2.6-1.1c0.2-0.1 0.5-0.1 0.6 0l3.1 1.8c0.2 0.1 0.2 0.3 0.1 0.4l-1.9 1.5c0.4 0.4 0.8 0.9 1 1.4l3.2 0.4c0.1 0 0.2 0 0.3 0.1l0.2 0.2 0.1 2.5c0 0.1-0.2 0.3-0.4 0.3l-3 0.4c-0.2 0.5-0.5 1-0.9 1.5l1.8 1.3zm-3.5 1.5 2.4-1.5-1.6-1.4c-0.1-0.1-0.1-0.2 0-0.3l0.1-0.1c0.4-0.5 0.7-1 0.9-1.5v-0.1c0-0.1 0.2-0.2 0.3-0.2l3-0.4-0.1-2.1-2.9-0.3h-0.1c-0.1 0-0.3 0-0.4-0.1-0.1 0-0.1-0.1-0.1-0.1v-0.1c-0.2-0.5-0.6-0.9-1-1.3l-0.1-0.1c-0.1-0.1-0.1-0.2 0-0.3l1.8-1.5-2.5-1.4-2.5 1.1c-0.2 0.1-0.4 0.1-0.6 0l-0.2-0.1c-0.7-0.2-1.5-0.4-2.3-0.6h-0.3c-0.1 0-0.2 0-0.2-0.1-0.1 0-0.1-0.1-0.1-0.2l-0.5-1.8h-3.5l-0.4 1.7c0 0.1-0.2 0.2-0.4 0.2h-0.2c-0.9 0.1-1.8 0.3-2.6 0.6-0.1 0-0.2 0.1-0.3 0.1-0.2 0.1-0.4 0-0.5 0l-2.3-1-2.4 1.4 1.5 1.2c0.1 0.1 0.1 0.2 0 0.3l-0.1 0.1c-0.6 0.5-1 1.1-1.3 1.7l-0.1 0.2c0 0.1-0.2 0.2-0.4 0.2l-2.4 0.2 0.1 2 2.3 0.2c0.1 0 0.2 0 0.3 0.1 0.1 0 0.1 0.1 0.1 0.2v0.1c0.3 0.6 0.7 1.2 1.2 1.8l0.2 0.2c0.1 0.1 0.1 0.2 0 0.3l-1.2 1.1 2.5 1.5 1.9-0.7c0.2-0.1 0.3-0.1 0.5 0 0.1 0 0.2 0.1 0.3 0.1 0.9 0.3 1.9 0.5 2.9 0.7h0.3c0.1 0 0.2 0 0.3 0.1 0.1 0 0.1 0.1 0.1 0.1l0.5 1.4h3.5l0.5-1.4c0-0.1 0.2-0.2 0.4-0.2h0.3c0.9-0.2 1.8-0.4 2.6-0.7l0.2-0.1c0.2-0.1 0.4-0.1 0.6 0l2 0.8"/>
			<g class="st0">
				<rect class="st3" x="416.8" y="323.8" width="101.9" height="68.7"/>
				<text class="st4" transform="translate(416.79 327.37)"><tspan class="st5 st6 st7" x="0" y="0">Lorem ipsum dolor sit amet, consectetuer </tspan><tspan class="st5 st6 st7" x="0" y="8">adipiscing elit, sed diam nonummy nibh </tspan><tspan class="st5 st6 st7" x="0" y="16">euismod tincidunt ut laoreet dolore magna </tspan><tspan class="st5 st6 st7" x="0" y="24">aliquam erat volutpat. Ut wisi enim ad </tspan><tspan class="st5 st6 st7" x="0" y="32">minim veniam, quis nostrud exerci tation </tspan><tspan class="st5 st6 st7" x="0" y="40">ullamcorper suscipit lobortis nisl ut aliquip </tspan><tspan class="st5 st6 st7" x="0" y="48">ex ea commodo consequat.</tspan></text>
			</g>
						<path class="st19" d="m439.4 286.3 0.9-1.8c0.5 0.3 1 0.5 1.4 0.6s0.8 0.2 1.2 0.2c0.6 0 1-0.1 1.3-0.3s0.4-0.5 0.4-0.9-0.1-0.7-0.3-0.9-0.6-0.4-1.2-0.5c-1.2-0.3-2-0.7-2.5-1.1-0.5-0.5-0.8-1.2-0.8-2 0-0.9 0.3-1.6 1-2.3 0.7-0.6 1.6-0.9 2.9-0.9 0.5 0 1 0.1 1.5 0.2s1 0.3 1.4 0.5l-0.9 1.8c-0.4-0.2-0.8-0.4-1.1-0.5-0.4-0.1-0.7-0.2-1-0.2-0.5 0-0.9 0.1-1.1 0.3-0.3 0.2-0.4 0.5-0.4 0.8s0.1 0.6 0.4 0.8 0.7 0.3 1.3 0.5c1.1 0.3 1.9 0.7 2.4 1.2s0.8 1.2 0.8 2.1c0 1-0.3 1.8-1 2.4s-1.7 0.9-3 0.9c-0.6 0-1.2-0.1-1.8-0.2-0.8-0.2-1.3-0.4-1.8-0.7z"/>
						<path class="st19" d="m457.2 278.4h-3v8.6h-2.3v-8.6h-3v-1.9h8.3v1.9z"/>
						<path class="st19" d="m464.3 287.2c-1.5 0-2.7-0.5-3.7-1.5-0.9-1-1.4-2.3-1.4-3.8 0-1.7 0.5-3 1.4-4 1-1 2.2-1.5 3.8-1.5 1.5 0 2.7 0.5 3.6 1.5s1.4 2.3 1.4 3.9c0 1.7-0.5 3-1.4 4-0.9 0.9-2.2 1.4-3.7 1.4zm0-2c0.8 0 1.5-0.3 2-0.9s0.7-1.4 0.7-2.5-0.2-2-0.7-2.6-1.1-0.9-2-0.9c-0.8 0-1.5 0.3-2 0.9s-0.8 1.5-0.8 2.5c0 1.1 0.2 1.9 0.8 2.5 0.6 0.7 1.2 1 2 1z"/>
						<path class="st19" d="m481 287h-2.6l-1.4-2.6c-0.2-0.4-0.5-0.7-0.7-1s-0.5-0.3-0.8-0.4h-0.7v3.9h-2.3v-10.5h3.7c1.3 0 2.2 0.2 2.8 0.7s1 1.2 1 2.2c0 0.7-0.2 1.3-0.6 1.8s-1 0.9-1.7 1.1c0.3 0.1 0.6 0.3 0.9 0.6s0.5 0.6 0.7 1l1.7 3.2zm-6.2-8.7v3.1h1.1c0.5 0 0.9-0.2 1.2-0.5s0.5-0.7 0.5-1.2-0.1-0.8-0.4-1.1c-0.3-0.2-0.7-0.4-1.3-0.4h-1.1z"/>
						<path class="st19" d="m482.4 287 3.8-10.5h2.7l3.8 10.5h-2.5l-0.7-2.2h-3.9l-0.7 2.2h-2.5zm3.7-4h2.8l-1.2-3.7c0-0.1-0.1-0.3-0.1-0.4s0-0.2-0.1-0.4h-0.1c0 0.1 0 0.3-0.1 0.4 0 0.1-0.1 0.2-0.1 0.4l-1.1 3.7z"/>
						<path class="st19" d="m503.8 286.2c-0.5 0.3-1.1 0.5-1.7 0.7s-1.3 0.3-2.1 0.3c-1.7 0-3-0.4-4-1.3s-1.5-2.2-1.5-4c0-1.6 0.5-2.9 1.5-4s2.4-1.6 4.2-1.6c0.7 0 1.3 0.1 1.8 0.2 0.6 0.1 1.1 0.3 1.7 0.6l-0.7 1.8c-0.5-0.2-0.9-0.4-1.4-0.4-0.4-0.1-0.9-0.1-1.4-0.1-1 0-1.8 0.3-2.4 0.9s-0.9 1.5-0.9 2.7 0.3 2.1 0.9 2.6 1.3 0.8 2.3 0.8c0.3 0 0.5 0 0.8-0.1 0.2 0 0.4-0.1 0.6-0.2v-2.1h-2.1v-1.8h4.4v5z"/>
						<path class="st19" d="m513.4 287h-6.2v-10.5h6v1.9h-3.7v2.4h3.5v1.9h-3.5v2.5h4v1.8z"/>
						<image transform="matrix(.24 0 0 .24 396.96 167.94)" width="658" height="507" overflow="visible" xlink:href="CCF7DE0B.png">
					</image>
						<path class="st19" d="m524 206.2-34.6 20.1c-7.4 4.3-19.4 4.3-26.8 0l-34.8-20.1c-3.7-2.2-5.6-5-5.6-7.8v4c0 2.8 1.9 5.7 5.6 7.8l34.8 20.1c7.4 4.3 19.4 4.3 26.8 0l34.6-20.1c3.7-2.1 5.5-4.9 5.5-7.7v-4c0 2.8-1.8 5.6-5.5 7.7z"/>
								<path class="st20" d="m524 190.7c7.4 4.3 7.5 11.2 0.1 15.5l-34.6 20.1c-7.4 4.3-19.4 4.3-26.8 0l-34.8-20.1c-7.4-4.3-7.5-11.2-0.1-15.5l34.6-20.1c7.4-4.3 19.4-4.3 26.8 0l34.8 20.1z"/>
						<path class="st21" d="m420.1 155.1c3.7-2.1 5.8 0.4 5.8 6.8 0 6.8-2.2 11.9-6.1 14.1-3.4 2-5.8-0.4-5.8-7 0-6.7 2.6-11.9 6.1-13.9zm-0.1 18.8c2.4-1.4 3.6-5.3 3.6-10.5 0-5-1.1-7.6-3.6-6.2-2.1 1.2-3.6 5-3.6 10.5 0.1 5.3 1.5 7.4 3.6 6.2"/>
						<path class="st21" d="m433.3 147.5c3.4-2 5-0.5 5 1.9 0 2.1-1.1 4.5-3.2 6.6v0.1c2.2-0.8 3.9 0.1 3.9 2.9 0 3.2-2.2 7.3-6.4 9.7-2 1.1-3.7 1.4-4.6 1.3l0.6-2.5c0.7 0.1 2.2 0 3.9-1 3-1.8 4-4.5 3.9-6.2 0-2.8-2.2-2.7-4.5-1.4l-1.3 0.8v-2l1.3-0.8c1.7-1 3.9-3.3 3.9-5.7 0-1.6-0.9-2.5-3.1-1.3-1.4 0.8-2.7 2.3-3.5 3.4l-0.6-1.6c1-1.3 2.8-3.1 4.7-4.2z"/>
			<line class="st22" x1="415.9" x2="478" y1="313" y2="313"/>
						<path class="st23" d="m482.7 193c4.3 2.5 4.4 6.5 0.2 8.9-4.1 2.5-11 2.5-15.2 0s-4.4-6.5-0.2-8.9c4.1-2.5 10.9-2.5 15.2 0zm-7.4 10.2c2.5 0 5-0.6 6.9-1.7s2.8-2.6 2.8-4.1-1-2.9-3-4c-1.9-1.1-4.5-1.7-7-1.7s-5 0.6-6.9 1.7-2.8 2.6-2.8 4.1 1 2.9 3 4.1c2 1 4.5 1.6 7 1.6"/>
					<g class="st12">
							<path class="st23" d="m477.1 198.7c0 0.2-0.2 0.4-0.6 0.7s-1 0.4-1.6 0.4-1.3-0.2-2-0.5l-0.9 0.5-0.5-0.3 0.9-0.5c-0.4-0.2-0.7-0.5-0.9-0.8s-0.4-0.6-0.4-0.8l0.9-0.2c0 0.2 0.1 0.5 0.3 0.7s0.4 0.5 0.8 0.7l1.9-1.1-0.7-0.7c-0.2-0.2-0.2-0.4-0.2-0.7 0-0.2 0.2-0.4 0.6-0.6 0.4-0.3 1-0.4 1.6-0.4s1.3 0.2 1.9 0.5l0.9-0.6 0.5 0.3-0.9 0.5c0.3 0.2 0.6 0.4 0.8 0.6s0.4 0.4 0.4 0.7l-0.9 0.2c-0.2-0.4-0.5-0.8-1-1.1l-1.9 1.1c0.3 0.3 0.5 0.6 0.7 0.8s0.3 0.4 0.3 0.6zm-2.3 0.4c0.3 0 0.6 0 0.9-0.2 0.2-0.1 0.3-0.3 0.3-0.5-0.1-0.2-0.2-0.4-0.5-0.7l-1.8 1c0.3 0.3 0.7 0.4 1.1 0.4m1-2.2 1.8-1.1c-0.4-0.2-0.8-0.3-1.1-0.3s-0.6 0.1-0.8 0.2-0.3 0.3-0.3 0.5c-0.1 0.2 0.1 0.5 0.4 0.7"/>
							<path class="st23" d="m485.6 191.2c6 3.4 6.1 9 0.3 12.4s-15.3 3.4-21.2 0c-6-3.4-6.1-9-0.3-12.5 5.7-3.3 15.2-3.3 21.2 0.1zm-10.2 14.5c3.6 0 7.1-0.8 9.8-2.4s4-3.7 3.9-5.8-1.5-4.2-4.3-5.8-6.4-2.4-10-2.4-7.2 0.8-9.8 2.4c-2.7 1.6-4 3.7-3.9 5.8s1.5 4.2 4.3 5.8 6.4 2.4 10 2.4"/>
					</g>
			<g class="st0">
				<rect class="st3" x="761.9" y="323.8" width="104.1" height="68.7"/>
				<text class="st4" transform="translate(761.86 327.37)"><tspan class="st5 st6 st7" x="0" y="0">Lorem ipsum dolor sit amet, consectetuer </tspan><tspan class="st5 st6 st7" x="0" y="8">adipiscing elit, sed diam nonummy nibh </tspan><tspan class="st5 st6 st7" x="0" y="16">euismod tincidunt ut laoreet dolore magna </tspan><tspan class="st5 st6 st7" x="0" y="24">aliquam erat volutpat. Ut wisi enim ad minim </tspan><tspan class="st5 st6 st7" x="0" y="32">veniam, quis nostrud exerci tation </tspan><tspan class="st5 st6 st7" x="0" y="40">ullamcorper suscipit lobortis nisl ut aliquip </tspan><tspan class="st5 st6 st7" x="0" y="48">ex ea commodo consequat.</tspan></text>
			</g>
						<path class="st24" d="m785.1 288 3.8-10.5h2.7l3.8 10.5h-2.5l-0.7-2.2h-3.9l-0.7 2.2h-2.5zm3.7-4h2.8l-1.2-3.7c0-0.1-0.1-0.3-0.1-0.4s0-0.2-0.1-0.4h-0.1c0 0.1 0 0.3-0.1 0.4 0 0.1-0.1 0.2-0.1 0.4l-1.1 3.7z"/>
						<path class="st24" d="m807.4 288h-2.3l-4.4-6.7c-0.1-0.2-0.2-0.4-0.3-0.5s-0.2-0.3-0.2-0.4v0.7 1 5.9h-2.2v-10.5h2.5l4.2 6.5c0.1 0.1 0.2 0.3 0.3 0.4s0.2 0.3 0.2 0.4v-0.5-0.9-5.9h2.2v10.5z"/>
						<path class="st24" d="m810 288 3.8-10.5h2.7l3.8 10.5h-2.5l-0.7-2.2h-3.9l-0.7 2.2h-2.5zm3.7-4h2.8l-1.2-3.7c0-0.1-0.1-0.3-0.1-0.4s0-0.2-0.1-0.4h-0.1c0 0.1 0 0.3-0.1 0.4 0 0.1-0.1 0.2-0.1 0.4l-1.1 3.7z"/>
						<path class="st24" d="m829.1 288h-6.2v-10.5h2.3v8.6h3.9v1.9z"/>
						<path class="st24" d="m839.6 277.5-3.4 6.8v3.7h-2.3v-3.7l-3.3-6.8h2.6l1.7 4s0 0.1 0.1 0.3c0 0.1 0.1 0.3 0.2 0.6 0-0.2 0.1-0.3 0.1-0.5 0-0.1 0.1-0.2 0.1-0.4l1.8-4h2.4z"/>
						<path class="st24" d="m841.3 287.3 0.9-1.8c0.5 0.3 1 0.5 1.4 0.6s0.8 0.2 1.2 0.2c0.6 0 1-0.1 1.3-0.3s0.4-0.5 0.4-0.9-0.1-0.7-0.3-0.9-0.6-0.4-1.2-0.5c-1.2-0.3-2-0.7-2.5-1.1-0.5-0.5-0.8-1.2-0.8-2 0-0.9 0.3-1.6 1-2.3 0.7-0.6 1.6-0.9 2.9-0.9 0.5 0 1 0.1 1.5 0.2s1 0.3 1.4 0.5l-0.9 1.8c-0.4-0.2-0.8-0.4-1.1-0.5-0.4-0.1-0.7-0.2-1-0.2-0.5 0-0.9 0.1-1.1 0.3-0.3 0.2-0.4 0.5-0.4 0.8s0.1 0.6 0.4 0.8c0.2 0.2 0.7 0.3 1.3 0.5 1.1 0.3 1.9 0.7 2.4 1.2s0.8 1.2 0.8 2.1c0 1-0.3 1.8-1 2.4s-1.7 0.9-3 0.9c-0.6 0-1.2-0.1-1.8-0.2-0.8-0.2-1.4-0.4-1.8-0.7z"/>
						<path class="st24" d="M854.1,288h-2.3v-10.5h2.3V288z"/>
						<path class="st24" d="m856.9 287.3 0.9-1.8c0.5 0.3 1 0.5 1.4 0.6s0.8 0.2 1.2 0.2c0.6 0 1-0.1 1.3-0.3s0.4-0.5 0.4-0.9-0.1-0.7-0.3-0.9-0.6-0.4-1.2-0.5c-1.2-0.3-2-0.7-2.5-1.1-0.5-0.5-0.8-1.2-0.8-2 0-0.9 0.3-1.6 1-2.3 0.7-0.6 1.6-0.9 2.9-0.9 0.5 0 1 0.1 1.5 0.2s1 0.3 1.4 0.5l-0.9 1.8c-0.4-0.2-0.8-0.4-1.1-0.5-0.4-0.1-0.7-0.2-1-0.2-0.5 0-0.9 0.1-1.1 0.3-0.3 0.2-0.4 0.5-0.4 0.8s0.1 0.6 0.4 0.8c0.2 0.2 0.7 0.3 1.3 0.5 1.1 0.3 1.9 0.7 2.4 1.2s0.8 1.2 0.8 2.1c0 1-0.3 1.8-1 2.4s-1.7 0.9-3 0.9c-0.6 0-1.2-0.1-1.8-0.2-0.7-0.2-1.3-0.4-1.8-0.7z"/>
						<image transform="matrix(.24 0 0 .24 742.08 167.94)" width="657" height="507" overflow="visible" xlink:href="CCF7DE14.png">
					</image>
						<path class="st24" d="m869.1 206.2-34.6 20.1c-7.4 4.3-19.4 4.3-26.8 0l-34.8-20.1c-3.7-2.2-5.6-5-5.6-7.8v4c0 2.8 1.9 5.7 5.6 7.8l34.8 20.1c7.4 4.3 19.4 4.3 26.8 0l34.6-20.1c3.7-2.1 5.5-4.9 5.5-7.7v-4c0 2.8-1.8 5.6-5.5 7.7z"/>
								<path class="st25" d="m869 190.7c7.4 4.3 7.5 11.2 0.1 15.5l-34.6 20.1c-7.4 4.3-19.4 4.3-26.8 0l-34.8-20.1c-7.4-4.3-7.5-11.2-0.1-15.5l34.6-20.1c7.4-4.3 19.4-4.3 26.8 0l34.8 20.1z"/>
						<path class="st26" d="m765.2 155.1c3.7-2.1 5.8 0.4 5.8 6.8 0 6.8-2.2 11.9-6.1 14.1-3.4 2-5.8-0.4-5.8-7 0-6.7 2.5-11.9 6.1-13.9zm-0.1 18.8c2.4-1.4 3.6-5.3 3.6-10.5 0-5-1.1-7.6-3.6-6.2-2.1 1.2-3.6 5-3.6 10.5 0 5.3 1.4 7.4 3.6 6.2"/>
						<path class="st26" d="m783.6 144.8v2.3l-6.7 3.9-0.7 5.6c0.4-0.3 0.8-0.6 1.4-1 1.3-0.8 2.7-1.2 3.8-1.1 1.4 0.1 2.5 1.2 2.5 3.7 0 3.9-2.7 8.4-6.5 10.6-1.9 1.1-3.5 1.4-4.4 1.3l0.6-2.4c0.7 0.1 2.2-0.1 3.8-1 2.2-1.3 4.1-4.1 4.1-6.8 0-2.6-1.6-3.6-5.1-1.5-1 0.6-1.8 1.1-2.4 1.6l1.1-10.3 8.5-4.9z"/>
			<line class="st27" x1="761.6" x2="823.8" y1="313" y2="313"/>
						<path class="st28" d="m835.9 200.6c0.1 0.1 0.2 0.1 0.2 0.2 0 0.2-0.2 0.3-0.5 0.3l-17.5-0.4c-0.1 0-0.2 0-0.3-0.1s-0.1-0.1-0.1-0.2l-0.1-3.6c0-0.2 0.2-0.3 0.5-0.3 0.1 0 0.3 0 0.4 0.1s0.2 0.1 0.2 0.2l0.1 3.3 17 0.4c-0.1 0 0 0 0.1 0.1z"/>
						<path class="st28" d="m834.6 196.1c1.1 0.6 1.5 1.5 1.3 2.4 0 0.2-0.3 0.3-0.6 0.2-0.1 0-0.2 0-0.3-0.1s-0.2-0.2-0.1-0.3c0.2-0.6-0.1-1.3-1-1.8l-10.5-6c-1.4-0.8-3.6-0.8-4.9 0l-10.1 6c-1.3 0.8-1.3 2.1 0.1 2.9l10.5 6c1.4 0.8 3.6 0.8 4.9 0l3.9-2.4c0.2-0.1 0.5-0.1 0.7 0s0.2 0.3 0 0.4l-3.9 2.4c-1.7 1-4.6 1-6.3 0l-10.5-6c-1.8-1-1.8-2.7-0.1-3.7l10.1-6c1.7-1 4.6-1 6.3 0l10.5 6z"/>
			<rect class="st29" x="73.5" y="323.8" width="105.2" height="68.7"/>
			<text class="st0" transform="translate(73.463 327.37)"><tspan class="st30 st6 st7" x="0" y="0">Lorem ipsum dolor sit amet, consectetuer </tspan><tspan class="st30 st6 st7" x="0" y="8">adipiscing elit, sed diam nonummy nibh </tspan><tspan class="st30 st6 st7" x="0" y="16">euismod tincidunt ut laoreet dolore magna </tspan><tspan class="st30 st6 st7" x="0" y="24">aliquam erat volutpat. Ut wisi enim ad minim </tspan><tspan class="st30 st6 st7" x="0" y="32">veniam, quis nostrud exerci tation </tspan><tspan class="st30 st6 st7" x="0" y="40">ullamcorper suscipit lobortis nisl ut aliquip ex </tspan><tspan class="st30 st6 st7" x="0" y="48">ea commodo consequat.</tspan></text>
						<path class="st31" d="m58.9 289v-10.5h3.7c1.9 0 3.3 0.4 4.2 1.3s1.4 2.1 1.4 3.8c0 1.6-0.5 2.9-1.5 3.9s-2.4 1.5-4.1 1.5h-3.7zm2.3-8.6v6.8h1.2c1 0 1.9-0.3 2.5-0.9s0.9-1.5 0.9-2.6c0-1-0.3-1.8-0.9-2.4s-1.4-0.9-2.5-0.9h-1.2z"/>
						<path class="st31" d="m70 289 3.8-10.5h2.7l3.8 10.5h-2.5l-0.7-2.2h-3.9l-0.7 2.2h-2.5zm3.7-4h2.8l-1.2-3.7c0-0.1-0.1-0.3-0.1-0.4s0-0.2-0.1-0.4h-0.1c0 0.1-0.1 0.3-0.1 0.4s-0.1 0.2-0.1 0.4l-1.1 3.7z"/>
						<path class="st31" d="m90.2 280.4h-3v8.6h-2.3v-8.6h-3v-1.9h8.3v1.9z"/>
						<path class="st31" d="m91.8 289 3.8-10.5h2.7l3.8 10.5h-2.5l-0.7-2.2h-3.9l-0.7 2.2h-2.5zm3.7-4h2.8l-1.2-3.7c0-0.1-0.1-0.3-0.1-0.4s0-0.2-0.1-0.4h-0.1c0 0.1-0.1 0.3-0.1 0.4s-0.1 0.2-0.1 0.4l-1.1 3.7z"/>
						<path class="st31" d="m117.8 288.5c-0.6 0.3-1.1 0.4-1.6 0.6-0.5 0.1-1.1 0.2-1.7 0.2-1.6 0-2.9-0.5-3.9-1.4-0.9-0.9-1.4-2.2-1.4-3.9 0-1.6 0.5-2.9 1.5-4s2.4-1.6 4-1.6c0.6 0 1.1 0 1.5 0.1 0.5 0.1 0.9 0.2 1.4 0.4l-0.7 1.9c-0.4-0.1-0.7-0.3-1-0.3s-0.7-0.1-1.1-0.1c-0.9 0-1.6 0.3-2.3 0.9-0.6 0.6-1 1.5-1 2.5 0 1.1 0.3 1.9 0.8 2.5 0.6 0.6 1.3 0.9 2.3 0.9 0.3 0 0.6 0 1-0.1s0.8-0.2 1.2-0.4l1 1.8z"/>
						<path class="st31" d="m125.1 289.2c-1.5 0-2.7-0.5-3.7-1.5-0.9-1-1.4-2.3-1.4-3.8 0-1.7 0.5-3 1.4-4 1-1 2.2-1.5 3.8-1.5 1.5 0 2.7 0.5 3.6 1.5s1.4 2.3 1.4 3.9c0 1.7-0.5 3-1.4 4-0.9 0.9-2.2 1.4-3.7 1.4zm0-2c0.8 0 1.5-0.3 2-0.9s0.7-1.4 0.7-2.5-0.2-2-0.7-2.6-1.1-0.9-2-0.9c-0.8 0-1.5 0.3-2 0.9s-0.8 1.5-0.8 2.5c0 1.1 0.2 1.9 0.8 2.5 0.5 0.7 1.2 1 2 1z"/>
						<path class="st31" d="m139.5 289h-6.2v-10.5h2.3v8.6h3.9v1.9z"/>
						<path class="st31" d="m148.4 289h-6.2v-10.5h2.3v8.6h3.9v1.9z"/>
						<path class="st31" d="m157.3 289h-6.2v-10.5h6v1.9h-3.7v2.4h3.5v1.9h-3.5v2.5h4v1.8z"/>
						<path class="st31" d="m168.2 288.5c-0.6 0.3-1.1 0.4-1.6 0.6-0.5 0.1-1.1 0.2-1.7 0.2-1.6 0-2.9-0.5-3.9-1.4-0.9-0.9-1.4-2.2-1.4-3.9 0-1.6 0.5-2.9 1.5-4s2.4-1.6 4-1.6c0.6 0 1.1 0 1.5 0.1 0.5 0.1 0.9 0.2 1.4 0.4l-0.7 1.9c-0.4-0.1-0.7-0.3-1-0.3s-0.7-0.1-1.1-0.1c-0.9 0-1.6 0.3-2.3 0.9-0.6 0.6-1 1.5-1 2.5 0 1.1 0.3 1.9 0.8 2.5 0.6 0.6 1.3 0.9 2.3 0.9 0.3 0 0.6 0 1-0.1s0.8-0.2 1.2-0.4l1 1.8z"/>
						<path class="st31" d="m178.3 280.4h-3v8.6h-2.3v-8.6h-3v-1.9h8.3v1.9z"/>
						<path class="st31" d="M183.3,289H181v-10.5h2.3V289z"/>
						<path class="st31" d="m191.4 289.2c-1.5 0-2.7-0.5-3.7-1.5-0.9-1-1.4-2.3-1.4-3.8 0-1.7 0.5-3 1.4-4 1-1 2.2-1.5 3.8-1.5 1.5 0 2.7 0.5 3.6 1.5s1.4 2.3 1.4 3.9c0 1.7-0.5 3-1.4 4-0.9 0.9-2.2 1.4-3.7 1.4zm0-2c0.8 0 1.5-0.3 2-0.9s0.7-1.4 0.7-2.5-0.2-2-0.7-2.6-1.1-0.9-2-0.9c-0.8 0-1.5 0.3-2 0.9s-0.8 1.5-0.8 2.5c0 1.1 0.2 1.9 0.8 2.5 0.6 0.7 1.2 1 2 1z"/>
						<path class="st31" d="m209 289h-2.3l-4.4-6.7c-0.1-0.2-0.2-0.4-0.3-0.5s-0.2-0.3-0.2-0.4v0.7 1 5.9h-2.2v-10.5h2.5l4.2 6.5c0.1 0.1 0.2 0.3 0.3 0.4s0.2 0.3 0.2 0.4v-0.5-0.9-5.9h2.2v10.5z"/>
						<image transform="matrix(.24 0 0 .24 53.756 167.94)" width="657" height="507" overflow="visible" xlink:href="CCF7DE17.png">
					</image>
						<path class="st31" d="m180.7 206.2-34.6 20.1c-7.4 4.3-19.4 4.3-26.8 0l-34.8-20.1c-3.7-2.2-5.6-5-5.6-7.8v4c0 2.8 1.9 5.7 5.6 7.8l34.8 20.1c7.4 4.3 19.4 4.3 26.8 0l34.6-20.1c3.7-2.1 5.5-4.9 5.5-7.7v-4c0 2.8-1.8 5.6-5.5 7.7z"/>
								<path class="st32" d="m180.6 190.7c7.4 4.3 7.5 11.2 0.1 15.5l-34.6 20.1c-7.4 4.3-19.4 4.3-26.8 0l-34.8-20.1c-7.4-4.3-7.5-11.2-0.1-15.5l34.6-20.1c7.4-4.3 19.4-4.3 26.8 0l34.8 20.1z"/>
						<path class="st33" d="m76.1 154.1c3.7-2.1 5.8 0.4 5.8 6.8 0 6.8-2.2 11.9-6.1 14.1-3.4 2-5.8-0.4-5.8-7 0-6.7 2.5-11.9 6.1-13.9zm-0.1 18.8c2.4-1.4 3.6-5.3 3.6-10.5 0-5-1.1-7.6-3.6-6.2-2.1 1.2-3.6 5-3.6 10.5 0 5.3 1.4 7.4 3.6 6.2"/>
						<polygon class="st33" points="91.5 145.5 91.6 165.7 89.3 167 89.2 149.4 89.2 149.4 86.1 153.1 85.7 151.3 89.5 146.7"/>
			<line class="st34" x1="73.9" x2="136.1" y1="312" y2="312"/>
						<polygon class="st35" points="147.8 206.1 148 206.1 153 206.1 153 206.7 148.5 206.7 148.5 206.3 147.8 206.3"/>
					<g class="st12">
							<polygon class="st35" points="147.5 206.3 147.8 206.3 148.5 206.3 148.5 206.7 148.4 209.3 147.4 209.3 147.5 206.6"/>
							<polygon class="st35" points="145.9 205.6 145.9 205.1 146.5 205.2 148 206.1 147.8 206.1 147.8 206.3 147.5 206.3 147.5 206.6"/>
							<polygon class="st35" points="144.9 204.8 145.3 204.8 145.9 204.8 145.9 205.1 145.9 205.6 145.8 207.8 144.8 207.8 144.9 205.1"/>
							<polygon class="st35" points="145.3 204.6 145.5 204.6 150.5 204.6 150.4 205.2 146.5 205.2 145.9 205.1 145.9 204.8 145.3 204.8"/>
							<path class="st35" d="m121.5 190.8c6.2-3.5 16.2-3.5 22.3 0.1 6 3.5 6 9.2 0.1 12.7l-0.7-0.4c5.5-3.3 5.5-8.6-0.1-11.9-5.7-3.4-15.1-3.4-20.9-0.1h-0.1c-5.7 3.3-5.8 8.7-0.2 12.1 5.6 3.3 14.7 3.4 20.5 0.3l0.7 0.4c-6.2 3.3-16 3.2-22-0.3-5.9-3.5-5.9-9.3 0.4-12.9z"/>
							<polygon class="st35" points="132.1 197.5 132.9 197.1 135.6 198.7 136.3 199.1 138.9 200.7 139.6 201.1 143.2 203.2 143.9 203.6 145.5 204.6 145.3 204.6 145.3 204.8 144.9 204.8 144.9 205.1 143.2 204 142.5 203.6 138.9 201.5 138.2 201.1 135.6 199.5 134.9 199.1"/>
							<path class="st35" d="m129.1 195.3c1.9-1.1 5.1-1.1 6.9 0 1.8 1 1.9 2.7 0.3 3.8l-0.7-0.4c1.2-0.9 1.1-2.2-0.3-3-0.7-0.4-1.7-0.7-2.8-0.7-1 0-2 0.2-2.8 0.7-1.5 0.9-1.6 2.3-0.1 3.2 1.4 0.8 3.6 0.9 5.1 0.2l0.7 0.4c-1.9 0.9-4.8 0.8-6.6-0.2-1.7-1.1-1.7-2.9 0.3-4z"/>
							<path class="st35" d="m125.7 193.4s0.1-0.1 0 0c3.9-2.2 10-2.2 13.7 0 1.8 1.1 2.8 2.5 2.7 4 0 1.4-0.9 2.7-2.6 3.7l-0.7-0.4c1.4-0.9 2.2-2.1 2.3-3.3 0-1.3-0.8-2.6-2.5-3.6-3.3-2-8.8-2-12.2-0.1h-0.1c-3.4 1.9-3.4 5.1-0.1 7.1 1.6 1 3.8 1.5 6.1 1.5 2.1 0 4.2-0.4 5.8-1.2l0.7 0.4c-1.8 0.9-4.1 1.4-6.5 1.4-2.6 0-5-0.6-6.8-1.7-3.6-2.1-3.6-5.7 0.2-7.8z"/>
					</g>
	<g class="st0">
		<g class="st4">
				<text class="st36 st37 st38" transform="translate(55.546 93.777)">New Project Process</text>
			<text class="st39 st37 st40 st41" transform="translate(472.88 93.777)">COMPANYNAME</text>
		</g>
	</g>
</svg>
