<svg width="229" height="278" viewBox="0 0 229 278" fill="none" xmlns="http://www.w3.org/2000/svg">
<path d="M86.3105 35.3794H23.8221C17.7333 35.3991 11.9006 37.8355 7.60209 42.1549C3.30359 46.4742 0.889873 52.3241 0.889905 58.4227C0.800479 61.407 1.31028 64.3789 2.38906 67.1622C3.46783 69.9454 5.09362 72.4834 7.17002 74.6255C9.24642 76.7676 11.7312 78.4703 14.4769 79.6326C17.2226 80.7949 20.1733 81.3931 23.1542 81.3917H86.9785L86.3105 35.3794Z" fill="#073042"/>
<path d="M228.654 240.168H23.748C17.6849 240.128 11.8823 237.694 7.60192 233.392C3.32153 229.091 0.909381 223.272 0.889948 217.199V58.2739C0.873863 61.4289 1.50478 64.5535 2.74361 67.4543C3.98244 70.355 5.80278 72.97 8.09186 75.1373C10.3809 77.3047 13.09 78.9781 16.0511 80.0539C19.0123 81.1297 22.1625 81.585 25.3065 81.3916H195.257C195.257 81.3916 228.654 78.4926 228.654 103.692V240.168Z" fill="#4285F4"/>
<path d="M120.449 129.634C118.548 129.612 116.667 130.016 114.942 130.816C113.217 131.616 111.692 132.792 110.479 134.257C109.266 135.722 108.394 137.441 107.929 139.287C107.463 141.132 107.415 143.059 107.788 144.926C108.161 146.793 108.945 148.553 110.083 150.077C111.222 151.602 112.686 152.852 114.369 153.737C116.052 154.623 117.911 155.12 119.81 155.194C121.709 155.268 123.601 154.916 125.347 154.164C128.113 153.069 130.407 151.036 131.829 148.42C133.25 145.804 133.71 142.771 133.127 139.85C132.543 136.929 130.955 134.306 128.638 132.439C126.321 130.572 123.422 129.579 120.449 129.634V129.634Z" fill="black"/>
<path d="M133.066 158.773C136.482 156.198 139.015 152.623 140.314 148.543C141.614 144.464 141.616 140.08 140.32 135.999C139.025 131.919 136.495 128.342 133.082 125.763C129.668 123.185 125.539 121.732 121.265 121.606H121.933C123.143 121.493 124.36 121.493 125.57 121.606V108.821C125.599 108.097 125.436 107.378 125.097 106.738C124.758 106.098 124.255 105.56 123.64 105.178C123.022 104.812 122.317 104.619 121.599 104.619C120.881 104.619 120.177 104.812 119.559 105.178C118.944 105.56 118.441 106.098 118.102 106.738C117.763 107.378 117.6 108.097 117.629 108.821V121.829C113.598 122.47 109.846 124.289 106.845 127.059C103.843 129.828 101.726 133.425 100.758 137.396C99.7908 141.367 100.017 145.536 101.407 149.379C102.798 153.222 105.292 156.568 108.575 158.996L70.7998 239.87H95.4389L112.879 202.704C113.62 201.166 114.779 199.868 116.223 198.961C117.667 198.054 119.338 197.573 121.043 197.575C122.739 197.569 124.401 198.049 125.834 198.958C127.267 199.866 128.411 201.166 129.132 202.704L147.092 239.87H172.028L133.066 158.773ZM120.449 155.13C117.938 155.112 115.488 154.353 113.405 152.947C111.323 151.541 109.701 149.55 108.743 147.226C107.784 144.901 107.531 142.344 108.016 139.876C108.501 137.408 109.702 135.138 111.469 133.351C113.24 131.545 115.509 130.309 117.985 129.803C120.461 129.297 123.032 129.542 125.368 130.509C127.704 131.475 129.698 133.117 131.096 135.226C132.494 137.335 133.231 139.814 133.214 142.345C133.214 145.736 131.869 148.988 129.475 151.386C127.081 153.783 123.835 155.13 120.449 155.13V155.13Z" fill="#3870B2"/>
<path d="M72.8036 46.678H160.451V62.8083H72.8036V46.678Z" fill="white"/>
<path d="M113.621 129.634C116.554 129.654 119.389 130.691 121.645 132.568C123.901 134.445 125.438 137.047 125.995 139.931C126.552 142.815 126.094 145.803 124.7 148.387C123.306 150.971 121.061 152.992 118.348 154.106C115.634 155.22 112.619 155.358 109.815 154.497C107.011 153.636 104.591 151.829 102.968 149.383C101.344 146.937 100.616 144.004 100.907 141.081C101.199 138.158 102.492 135.426 104.567 133.351C106.982 130.97 110.233 129.635 113.621 129.634V129.634ZM118.668 122.201V108.821C118.697 108.097 118.534 107.378 118.195 106.738C117.856 106.098 117.353 105.56 116.738 105.178C116.12 104.812 115.416 104.619 114.698 104.619C113.979 104.619 113.275 104.812 112.657 105.178C112.042 105.56 111.539 106.098 111.2 106.738C110.861 107.378 110.698 108.097 110.727 108.821V121.829C106.696 122.47 102.945 124.289 99.9429 127.059C96.9413 129.828 94.8237 133.425 93.8563 137.396C92.8889 141.367 93.1148 145.536 94.5055 149.379C95.8962 153.222 98.3898 156.568 101.673 158.996L54.25 261.204C53.367 263.002 52.9773 265.003 53.1207 267.001C53.2642 269 53.9357 270.924 55.0663 272.577C56.2141 274.215 57.7706 275.524 59.5806 276.371C61.3907 277.219 63.391 277.577 65.3821 277.409C67.3724 277.217 69.2753 276.496 70.8935 275.32C72.5117 274.143 73.7861 272.555 74.5847 270.719L106.2 202.704C106.948 201.171 108.108 199.879 109.551 198.972C110.994 198.066 112.661 197.582 114.364 197.575C116.06 197.569 117.722 198.049 119.155 198.958C120.588 199.866 121.732 201.166 122.453 202.704L154.885 270.347C156.184 273.028 158.493 275.083 161.304 276.058C164.116 277.034 167.199 276.852 169.876 275.55C172.553 274.249 174.604 271.936 175.578 269.12C176.552 266.304 176.37 263.216 175.071 260.535L126.238 158.773C129.283 156.387 131.594 153.189 132.907 149.547C134.22 145.905 134.48 141.966 133.659 138.182C132.893 134.417 131.1 130.937 128.48 128.13C125.86 125.322 122.516 123.296 118.816 122.275" fill="#073042"/>
<path d="M147.76 60.8757C146.57 60.9039 145.399 60.5732 144.399 59.9265C143.399 59.2798 142.617 58.3469 142.153 57.2491C141.688 56.1512 141.565 54.939 141.797 53.7698C142.029 52.6006 142.607 51.5283 143.456 50.6921C144.296 49.8582 145.364 49.2913 146.524 49.0623C147.685 48.8333 148.887 48.9525 149.981 49.4048C151.074 49.8572 152.01 50.6227 152.671 51.6053C153.332 52.588 153.689 53.7442 153.697 54.9291C153.697 56.5062 153.072 58.0188 151.958 59.134C150.845 60.2492 149.335 60.8757 147.76 60.8757V60.8757ZM81.7835 60.8757C80.5999 60.8887 79.4395 60.5469 78.4512 59.8944C77.463 59.2419 76.692 58.3084 76.2373 57.2138C75.7826 56.1192 75.6649 54.9134 75.8994 53.7513C76.1339 52.5892 76.7099 51.5239 77.5533 50.6921C78.0857 50.0424 78.7479 49.5116 79.4974 49.1337C80.2469 48.7559 81.0671 48.5394 81.9052 48.4981C82.7432 48.4569 83.5807 48.5919 84.3636 48.8944C85.1465 49.1968 85.8574 49.6601 86.4508 50.2544C87.0441 50.8487 87.5066 51.5608 87.8086 52.3449C88.1106 53.1291 88.2454 53.9678 88.2042 54.8072C88.163 55.6467 87.9469 56.4682 87.5696 57.2189C87.1924 57.9696 86.6624 58.6329 86.0138 59.1661C85.4585 59.7197 84.7981 60.1562 84.0715 60.4499C83.3449 60.7435 82.5669 60.8883 81.7835 60.8757V60.8757ZM149.912 24.8241L161.787 4.1594C162.01 3.59785 162.026 2.97458 161.83 2.40268C161.634 1.83079 161.24 1.34816 160.719 1.0424C160.198 0.736637 159.585 0.627993 158.991 0.736185C158.398 0.844376 157.862 1.16224 157.482 1.63208L145.459 22.5941C135.821 18.258 125.375 16.0162 114.809 16.0162C104.243 16.0162 93.7968 18.258 84.1584 22.5941L72.0615 1.63208C71.8428 1.25269 71.5295 0.936727 71.1522 0.715194C70.7749 0.493661 70.3466 0.374162 69.9093 0.368408C69.4764 0.393875 69.0557 0.521661 68.6816 0.741303C68.3075 0.960945 67.9907 1.2662 67.757 1.63208C67.5356 2.01628 67.419 2.4521 67.419 2.89574C67.419 3.33938 67.5356 3.7752 67.757 4.1594L79.7055 24.8241C69.4055 30.4713 60.6731 38.6007 54.298 48.4773C47.9228 58.354 44.1058 69.6664 43.1921 81.3918H186.426C185.512 69.6664 181.695 58.354 175.32 48.4773C168.945 38.6007 160.212 30.4713 149.912 24.8241" fill="#3DDC84"/>
<path d="M208.096 125.471H198.671C198.356 125.471 198.054 125.597 197.831 125.82C197.609 126.043 197.484 126.345 197.484 126.661V275.699C197.483 276.002 197.598 276.294 197.805 276.515C198.012 276.736 198.295 276.869 198.597 276.888H208.319C213.778 276.869 219.007 274.683 222.86 270.81C226.713 266.936 228.876 261.691 228.876 256.224V104.807C228.876 107.533 228.338 110.232 227.292 112.749C226.246 115.266 224.713 117.551 222.781 119.472C220.85 121.392 218.558 122.911 216.037 123.941C213.517 124.971 210.818 125.491 208.096 125.471V125.471Z" fill="#073042"/>
</svg>
