<svg width="285" height="350" viewBox="0 0 285 350" fill="none" xmlns="http://www.w3.org/2000/svg">
<path d="M91.3966 349.552C68.9786 339.664 53.7458 318.36 51.7475 293.961C53.0578 268.864 66.3361 245.926 87.4219 232.243C83.9603 240.671 84.8012 250.265 89.6058 257.973C95.0765 265.604 104.489 269.267 113.705 267.359C126.831 263.674 134.518 250.068 130.827 236.953C129.517 232.363 126.896 228.198 123.315 225.059C108.464 213.001 101.006 194.052 103.659 175.115C106.204 165.085 111.762 156.014 119.613 149.168C113.716 164.867 130.347 180.359 141.507 187.98C161.315 199.842 180.381 212.881 198.638 227.021C218.588 242.72 229.464 267.294 227.761 292.435C223.273 319.189 204.316 341.277 178.481 349.563C230.163 338.083 283.451 297.09 284.466 238.948C283.451 192.428 255.639 150.683 213.129 131.669H211.239C212.179 133.948 212.637 136.401 212.55 138.876C212.692 137.273 212.692 135.682 212.55 134.079C212.779 135.965 212.779 137.862 212.55 139.748C209.318 152.973 195.952 161.117 182.674 157.89C177.367 156.581 172.628 153.605 169.221 149.309C152.186 127.505 169.221 102.691 172.071 78.7062C173.818 48.038 159.786 18.7217 134.889 0.79834C147.349 21.5345 130.751 48.7685 118.685 64.2606C106.597 79.7528 89.1253 91.2983 74.8861 104.817C59.5441 119.066 45.4796 134.733 32.8565 151.479C5.56838 184.764 -5.14377 228.667 3.73389 270.75C15.9093 311.307 49.6727 341.779 91.3093 349.683H91.5386L91.3966 349.552Z" fill="#DD4814"/>
</svg>
