<?xml version="1.0" encoding="UTF-8"?>
<svg width="49px" height="32px" viewBox="0 0 49 32" version="1.1" xmlns="http://www.w3.org/2000/svg" xmlns:xlink="http://www.w3.org/1999/xlink">
    <title>Logo -light blue</title>
    <g id="Desktop" stroke="none" stroke-width="1" fill="none" fill-rule="evenodd">
        <g id="3.Main-page" transform="translate(-86.000000, -183.000000)" fill="#102A51">
            <g id="Logo--light-blue-3-Copy" transform="translate(86.000000, 183.000000)">
                <path d="M0.0317132537,1.38218087e-12 C1.90063366,1.99759192 4.27626596,2.99638788 7.15861013,2.99638788 C8.59036257,2.99638788 11.7525446,3.15134287 14.4000246,3.54004929 C15.1282933,3.6158006 15.8389459,3.75111591 16.526654,3.94090253 C16.8723091,4.02625354 17.1875876,4.11789711 17.4637333,4.21643797 L17.4637333,4.21643797 L17.4550113,4.2348837 C20.1607567,5.20450986 22.4493165,7.03636939 23.9819059,9.39512994 C26.1498677,6.05700059 29.8337039,3.77364026 34.071552,3.49694297 C36.6325663,3.14938088 39.5625552,3.00902691 40.9251769,3.00902691 C43.807507,3.00902691 46.1830974,2.01023057 48.0519481,0.0126378746 C48.0519481,3.66198442 46.4823739,5.8281633 43.3432256,6.5111745 C46.1693542,8.87510221 47.9632472,12.4090115 47.9632472,16.3576376 C47.9632472,23.4760386 42.1332353,29.2466428 34.9415512,29.2466428 C33.3788887,29.2466428 31.880516,28.9741906 30.4922736,28.4746595 L30.4918569,23.9864875 C31.8007965,24.7360907 33.3205549,25.1651245 34.9415512,25.1651245 C39.8558687,25.1651245 43.8397102,21.2218783 43.8397102,16.3576376 C43.8397102,11.4933969 39.8558687,7.55015065 34.9415512,7.55015065 C30.1728128,7.55015065 26.2802392,11.2632319 26.0538009,15.9278536 L26.0433922,15.9280041 L26.043,25.737 C26.044316,25.7435386 26.0440616,25.7495848 26.0438012,25.7556266 L26.0432159,25.7678813 C25.8774961,29.5049836 23.4021262,31.5827508 18.6172075,32 C20.8049767,29.8562271 21.8988614,27.7687232 21.8988614,25.7374881 L21.8988614,25.7374881 L21.9193214,16.4551064 L21.9198551,16.3576376 L21.918,16.2516323 L21.9198551,15.9280041 L21.9094464,15.9278536 C21.6830081,11.2632319 17.7904344,7.55015065 13.0216961,7.55015065 C8.10737857,7.55015065 4.12353709,11.4933969 4.12353709,16.3576376 C4.12353709,21.2218783 8.10737857,25.1651245 13.0216961,25.1651245 C14.642498,25.1651245 16.1620863,24.7361936 17.4709196,23.9867571 C17.4707756,26.3226616 16.8724949,27.7821341 14.4659698,28.8532668 C14.2335811,28.956702 13.8276494,29.169434 13.0235534,29.2323523 L12.823,29.2436323 L12.7098858,29.2430201 C5.6622506,29.0790958 0,23.3728734 0,16.3576376 C0,12.3913526 1.80997411,8.84350204 4.65697383,6.47915801 C1.57341965,5.77673444 0.0317132537,3.61677112 0.0317132537,1.38218087e-12 Z M13.1145444,12.0613025 C15.5444558,12.0613025 17.5177823,14.003092 17.5476154,16.4097134 C17.5445781,16.5056699 17.543074,16.5995469 17.5415932,16.6928903 C17.4235533,19.0183675 15.4865994,20.8687894 13.1145444,20.8687894 C10.6660377,20.8687894 8.68113072,18.8971663 8.68113072,16.465046 C8.68113072,14.0329256 10.6660377,12.0613025 13.1145444,12.0613025 Z M35.0343995,12.0613025 C37.4829063,12.0613025 39.4678132,14.0329256 39.4678132,16.465046 C39.4678132,18.8971663 37.4829063,20.8687894 35.0343995,20.8687894 C32.5858927,20.8687894 30.6009858,18.8971663 30.6009858,16.465046 C30.6009858,14.0329256 32.5858927,12.0613025 35.0343995,12.0613025 Z" id="Logo--light-blue"></path>
            </g>
        </g>
    </g>
</svg>