<svg width="300" height="306" viewBox="0 0 300 306" fill="none" xmlns="http://www.w3.org/2000/svg">
<path d="M299.272 156.641C299.285 146.253 298.406 135.883 296.646 125.646H152.891V184.355H235.227C233.543 193.731 229.977 202.67 224.744 210.631C219.512 218.592 212.722 225.412 204.783 230.678V268.787H253.922C282.694 242.259 299.272 203.028 299.272 156.641Z" fill="#4285F4"/>
<path d="M152.891 305.605C194.027 305.605 228.664 292.097 253.922 268.808L204.783 230.699C191.106 239.973 173.491 245.265 152.891 245.265C113.131 245.265 79.3831 218.462 67.3152 182.343H16.6938V221.617C29.3813 246.863 48.8361 268.087 72.8863 282.918C96.9366 297.749 124.636 305.603 152.891 305.605V305.605Z" fill="#34A853"/>
<path d="M67.3152 182.343C60.9354 163.417 60.9354 142.921 67.3152 123.994V84.7209H16.6939C6.02072 105.959 0.462158 129.399 0.462158 153.169C0.462158 176.938 6.02072 200.378 16.6939 221.617L67.3152 182.343Z" fill="#FBBC04"/>
<path d="M152.891 61.0722C174.63 60.717 195.635 68.9306 211.367 83.9375L254.875 40.4298C227.286 14.5174 190.738 0.29098 152.891 0.733024C124.636 0.734311 96.9366 8.58886 72.8863 23.4198C48.8361 38.2507 29.3813 59.4742 16.6938 84.7209L67.3152 123.994C79.3831 87.8755 113.131 61.0722 152.891 61.0722V61.0722Z" fill="#EA4335"/>
</svg>
