<svg width="534" height="534" viewBox="0 0 534 534" fill="none" xmlns="http://www.w3.org/2000/svg">
<path d="M267.086 0.333313C155.725 0.333313 123.156 0.448194 116.825 0.973367C93.9721 2.87302 79.7514 6.47127 64.2588 14.1847C52.3193 20.1134 42.9031 26.9858 33.6101 36.6195C16.6855 54.1881 6.42827 75.8023 2.71513 101.495C0.909849 113.968 0.384676 116.511 0.278001 180.221C0.236972 201.458 0.278001 229.407 0.278001 266.895C0.278001 378.166 0.401088 410.702 0.934467 417.021C2.78078 439.259 6.26825 453.25 13.6535 468.553C27.7675 497.848 54.7236 519.84 86.4802 528.046C97.476 530.877 109.621 532.436 125.212 533.174C131.817 533.462 199.146 533.667 266.516 533.667C333.886 533.667 401.256 533.585 407.697 533.256C425.75 532.407 436.233 531 447.824 528.005C463.57 523.967 478.245 516.54 490.823 506.243C503.402 495.946 513.581 483.028 520.65 468.389C527.892 453.455 531.564 438.93 533.226 417.854C533.587 413.259 533.739 339.993 533.739 266.826C533.739 193.646 533.574 120.516 533.213 115.921C531.531 94.5033 527.859 80.1021 520.384 64.8803C514.25 52.4198 507.439 43.1144 497.551 33.5997C479.908 16.745 458.327 6.48768 432.606 2.77865C420.145 0.97747 417.663 0.444092 353.904 0.333313H267.086Z" fill="url(#paint0_radial_512_17)"/>
<path d="M267.086 0.333313C155.725 0.333313 123.156 0.448194 116.825 0.973367C93.9721 2.87302 79.7514 6.47127 64.2588 14.1847C52.3193 20.1134 42.9031 26.9858 33.6101 36.6195C16.6855 54.1881 6.42827 75.8023 2.71513 101.495C0.909849 113.968 0.384676 116.511 0.278001 180.221C0.236972 201.458 0.278001 229.407 0.278001 266.895C0.278001 378.166 0.401088 410.702 0.934467 417.021C2.78078 439.259 6.26825 453.25 13.6535 468.553C27.7675 497.848 54.7236 519.84 86.4802 528.046C97.476 530.877 109.621 532.436 125.212 533.174C131.817 533.462 199.146 533.667 266.516 533.667C333.886 533.667 401.256 533.585 407.697 533.256C425.75 532.407 436.233 531 447.824 528.005C463.57 523.967 478.245 516.54 490.823 506.243C503.402 495.946 513.581 483.028 520.65 468.389C527.892 453.455 531.564 438.93 533.226 417.854C533.587 413.259 533.739 339.993 533.739 266.826C533.739 193.646 533.574 120.516 533.213 115.921C531.531 94.5033 527.859 80.1021 520.384 64.8803C514.25 52.4198 507.439 43.1144 497.551 33.5997C479.908 16.745 458.327 6.48768 432.606 2.77865C420.145 0.97747 417.663 0.444092 353.904 0.333313H267.086Z" fill="url(#paint1_radial_512_17)"/>
<path d="M266.963 70.0828C213.477 70.0828 206.765 70.3167 185.758 71.2727C164.792 72.2328 150.481 75.552 137.959 80.4222C125.006 85.4523 114.019 92.1811 103.072 103.132C92.1175 114.078 85.3887 125.066 80.3421 138.015C75.4597 150.541 72.1363 164.856 71.1926 185.814C70.2572 206.821 70.011 213.537 70.011 267.023C70.011 320.508 70.249 327.2 71.2008 348.207C72.165 369.173 75.4843 383.484 80.3503 396.006C85.3846 408.959 92.1134 419.946 103.064 430.893C114.007 441.848 124.994 448.593 137.939 453.623C150.469 458.493 164.784 461.812 185.746 462.772C206.753 463.728 213.461 463.962 266.943 463.962C320.432 463.962 327.124 463.728 348.131 462.772C369.097 461.812 383.424 458.493 395.954 453.623C408.903 448.593 419.874 441.848 430.817 430.893C441.772 419.946 448.5 408.959 453.547 396.01C458.388 383.484 461.712 369.169 462.697 348.211C463.64 327.204 463.886 320.508 463.886 267.023C463.886 213.537 463.64 206.825 462.697 185.818C461.712 164.852 458.388 150.541 453.547 138.019C448.5 125.066 441.772 114.078 430.817 103.132C419.862 92.177 408.907 85.4482 395.942 80.4222C383.387 75.552 369.068 72.2328 348.102 71.2727C327.095 70.3167 320.408 70.0828 266.906 70.0828H266.963ZM249.296 105.573C254.539 105.565 260.39 105.573 266.963 105.573C319.546 105.573 325.778 105.762 346.543 106.705C365.745 107.583 376.166 110.792 383.108 113.488C392.299 117.057 398.851 121.324 405.74 128.217C412.633 135.11 416.9 141.675 420.478 150.865C423.173 157.799 426.386 168.22 427.26 187.422C428.203 208.183 428.408 214.419 428.408 266.977C428.408 319.536 428.203 325.772 427.26 346.533C426.382 365.735 423.173 376.156 420.478 383.09C416.908 392.28 412.633 398.825 405.74 405.713C398.847 412.606 392.303 416.873 383.108 420.443C376.174 423.151 365.745 426.351 346.543 427.229C325.782 428.173 319.546 428.378 266.963 428.378C214.376 428.378 208.144 428.173 187.383 427.229C168.181 426.343 157.76 423.134 150.814 420.439C141.623 416.869 135.059 412.602 128.166 405.709C121.273 398.816 117.006 392.268 113.428 383.073C110.732 376.14 107.52 365.718 106.646 346.516C105.702 325.756 105.513 319.519 105.513 266.928C105.513 214.337 105.702 208.133 106.646 187.373C107.524 168.171 110.732 157.75 113.428 150.808C116.998 141.617 121.273 135.052 128.166 128.16C135.059 121.267 141.623 117 150.814 113.422C157.756 110.714 168.181 107.514 187.383 106.632C205.551 105.811 212.591 105.565 249.296 105.524V105.573ZM372.088 138.273C367.413 138.273 362.844 139.659 358.957 142.257C355.071 144.854 352.042 148.545 350.253 152.864C348.465 157.183 347.997 161.935 348.91 166.52C349.822 171.104 352.074 175.315 355.38 178.62C358.686 181.925 362.897 184.175 367.482 185.086C372.067 185.997 376.819 185.527 381.137 183.737C385.456 181.947 389.146 178.917 391.742 175.03C394.338 171.142 395.722 166.572 395.721 161.898C395.721 148.851 385.135 138.265 372.088 138.265V138.273ZM266.963 165.886C211.11 165.886 165.826 211.17 165.826 267.023C165.826 322.876 211.11 368.139 266.963 368.139C322.816 368.139 368.088 322.876 368.088 267.023C368.088 211.17 322.812 165.886 266.959 165.886H266.963ZM266.963 201.376C303.216 201.376 332.61 230.765 332.61 267.023C332.61 303.276 303.216 332.669 266.963 332.669C230.706 332.669 201.316 303.276 201.316 267.023C201.316 230.765 230.706 201.376 266.963 201.376V201.376Z" fill="white"/>
<defs>
<radialGradient id="paint0_radial_512_17" cx="0" cy="0" r="1" gradientUnits="userSpaceOnUse" gradientTransform="translate(141.966 574.745) rotate(-90) scale(528.573 491.748)">
<stop stop-color="#FFDD55"/>
<stop offset="0.1" stop-color="#FFDD55"/>
<stop offset="0.5" stop-color="#FF543E"/>
<stop offset="1" stop-color="#C837AB"/>
</radialGradient>
<radialGradient id="paint1_radial_512_17" cx="0" cy="0" r="1" gradientUnits="userSpaceOnUse" gradientTransform="translate(-89.1007 38.7538) rotate(78.6776) scale(236.277 974.188)">
<stop stop-color="#3771C8"/>
<stop offset="0.128" stop-color="#3771C8"/>
<stop offset="1" stop-color="#6600FF" stop-opacity="0"/>
</radialGradient>
</defs>
</svg>
