<svg width="174" height="371" viewBox="0 0 174 371" fill="none" xmlns="http://www.w3.org/2000/svg">
<path d="M118.778 41.318C103.215 22.8583 89.8141 4.11018 87.0763 0.216325C86.788 -0.0721083 86.3556 -0.0721083 86.0675 0.216325C83.3295 4.11018 69.9284 22.8583 54.3656 41.318C-79.2142 211.637 75.4042 326.578 75.4042 326.578L76.701 327.444C77.8537 345.182 80.7358 370.709 80.7358 370.709H86.4997H92.2637C92.2637 370.709 95.1458 345.326 96.2986 327.444L97.5954 326.434C97.7394 326.578 252.358 211.637 118.778 41.318ZM86.4997 323.982C86.4997 323.982 79.5831 318.069 77.7097 315.042V314.752L86.0675 129.29C86.0675 128.713 86.9322 128.713 86.9322 129.29L95.2898 314.752V315.042C93.4165 318.069 86.4997 323.982 86.4997 323.982Z" fill="#001E2B"/>
</svg>
