<svg width="658" height="534" viewBox="0 0 658 534" fill="none" xmlns="http://www.w3.org/2000/svg">
<path d="M207.26 533.664C454.911 533.664 590.341 328.498 590.341 150.584C590.341 144.757 590.222 138.957 589.96 133.181C616.31 114.114 639.052 90.5056 657.12 63.4615C632.996 74.1858 607.035 81.4044 579.804 84.6591C607.599 67.9891 628.94 41.6231 639.008 10.1901C612.577 25.8697 583.663 36.9224 553.513 42.8717C528.944 16.7017 493.967 0.333374 455.234 0.333374C380.882 0.333374 320.588 60.6296 320.588 134.953C320.588 145.519 321.77 155.796 324.08 165.653C212.18 160.022 112.955 106.447 46.5474 24.9817C34.5871 45.5271 28.2957 68.8796 28.3161 92.6528C28.3161 139.364 52.0857 180.601 88.2313 204.725C66.851 204.073 45.9396 198.298 27.2547 187.886C27.2348 188.452 27.2348 189.002 27.2348 189.605C27.2348 254.81 73.6445 309.251 135.251 321.587C123.68 324.739 111.741 326.333 99.7484 326.326C91.2556 326.32 82.7827 325.507 74.4439 323.897C91.5851 377.393 141.289 416.322 200.218 417.41C154.136 453.529 96.0863 475.042 32.9956 475.042C22.1413 475.042 11.4192 474.425 0.879883 473.179C60.467 511.372 131.221 533.658 207.267 533.658" fill="#1DA1F2"/>
</svg>
