<svg width="502" height="195" viewBox="0 0 502 195" fill="none" xmlns="http://www.w3.org/2000/svg">
<path fill-rule="evenodd" clip-rule="evenodd" d="M306.796 35.1265C303.903 38.6182 300.298 41.4533 296.22 43.4424C291.556 46.0203 287.059 47.7667 282.229 50.012C279.128 50.9661 276.432 52.9207 274.563 55.5694C272.695 58.218 271.759 61.4111 271.903 64.648V194.376C279.147 195.236 286.493 194.323 293.305 191.715C304.215 186.227 306.713 180.988 306.796 157.204V41.7792V35.1265Z" fill="black"/>
<path fill-rule="evenodd" clip-rule="evenodd" d="M285.477 3.60921C275.983 8.84824 271.903 17.58 271.903 41.7793C275.53 38.5066 279.739 35.9401 284.311 34.2118C288.862 32.5208 293.152 30.1972 297.053 27.3096C305.381 21.239 306.713 13.3388 306.713 0.0333638C299.438 -0.218217 292.187 0.997981 285.394 3.60921" fill="black"/>
<path fill-rule="evenodd" clip-rule="evenodd" d="M437.959 97.8285L502 0.864862C502 0.864862 474.935 -3.79205 461.61 8.59867C454.894 15.4322 448.817 22.8643 443.456 30.8022L419.888 65.3964C418.722 67.1427 417.223 69.1386 414.808 69.1386C412.393 69.1386 410.977 67.1427 409.811 65.3964L386.244 30.8022C380.882 22.8643 374.805 15.4322 368.089 8.59867C354.764 -3.79205 327.699 0.864862 327.699 0.864862L391.74 97.8285L327.866 194.459C327.866 194.459 356.014 198.118 369.505 185.728C375.738 179.341 381.318 172.348 386.16 164.855L409.728 130.261C410.894 128.514 412.393 126.518 414.725 126.518C417.056 126.518 418.639 128.514 419.805 130.261L443.372 164.855C448.489 172.331 454.287 179.319 460.694 185.728C474.102 198.118 501.75 194.459 501.75 194.459L437.959 97.8285Z" fill="black"/>
<path fill-rule="evenodd" clip-rule="evenodd" d="M225.517 9.34711C220.347 14.411 216.735 20.8454 215.107 27.8916L188.625 132.007L166.473 46.8519C164.449 36.8228 160.335 27.3311 154.397 18.9936C147.571 12.438 138.468 8.77627 128.998 8.77627C119.527 8.77627 110.424 12.438 103.598 18.9936C97.6354 27.3266 93.493 36.8178 91.4393 46.8519L69.3706 132.007L42.8049 27.8916C41.1871 20.8598 37.6066 14.4298 32.4784 9.34711C23.2199 2.27245 11.5902 -0.973271 0 0.282753L51.1327 194.792C59.5839 195.496 68.0896 194.449 76.1161 191.715C87.1921 185.977 92.3553 181.653 99.1009 155.125C105.014 131.591 121.669 62.2364 123.168 57.33C123.918 54.8352 124.917 49.0141 129.164 49.0141C133.411 49.0141 134.327 54.8352 135.077 57.33C136.659 62.2364 153.315 131.591 159.228 155.125C165.89 181.653 171.136 185.977 182.129 191.715C190.156 194.449 198.661 195.496 207.112 194.792L257.995 0.282753C246.405 -0.973271 234.775 2.27245 225.517 9.34711" fill="black"/>
</svg>
