<svg width="295" height="295" viewBox="0 0 295 295" fill="none" xmlns="http://www.w3.org/2000/svg">
<path d="M19.5068 147.333C19.5068 197.993 48.9939 241.627 91.6367 262.367L30.6212 95.3133C23.2945 111.679 19.5072 129.405 19.5068 147.333ZM147.435 275.173C162.292 275.173 176.582 272.567 189.965 267.92L189.057 266.22L149.704 158.553L111.37 269.96C122.712 273.36 134.847 275.173 147.435 275.173ZM165.014 87.38L211.286 224.853L224.102 182.24C229.545 164.56 233.742 151.867 233.742 140.873C233.742 125.007 228.071 114.127 223.308 105.74C216.73 95.0867 210.719 86.1333 210.719 75.7067C210.719 63.92 219.565 53.04 232.267 53.04H233.855C210.283 31.415 179.434 19.4401 147.435 19.4933C126.248 19.4894 105.392 24.7489 86.7432 34.7987C68.0946 44.8485 52.2385 59.3734 40.6014 77.0667L48.7671 77.2933C62.1497 77.2933 82.7906 75.5933 82.7906 75.5933C89.8221 75.2533 90.616 85.34 83.6979 86.1333C83.6979 86.1333 76.7798 87.04 68.9544 87.38L115.68 225.873L143.693 142.007L123.732 87.38C119.261 87.1335 114.798 86.7555 110.35 86.2467C103.432 85.7933 104.225 75.2533 111.144 75.5933C111.144 75.5933 132.238 77.2933 144.827 77.2933C158.209 77.2933 178.85 75.5933 178.85 75.5933C185.768 75.2533 186.676 85.34 179.758 86.1333C179.758 86.1333 172.84 86.9267 165.014 87.38ZM211.74 257.833C231.093 246.588 247.154 230.465 258.319 211.074C269.484 191.684 275.361 169.705 275.364 147.333C275.364 125.12 269.693 104.267 259.713 86.02C261.74 106.095 258.698 126.357 250.867 144.953L211.74 257.833ZM147.435 294.667C108.333 294.667 70.8323 279.144 43.1828 251.514C15.5333 223.883 0 186.409 0 147.333C0 108.258 15.5333 70.7833 43.1828 43.1529C70.8323 15.5226 108.333 0 147.435 0C186.538 0 224.038 15.5226 251.688 43.1529C279.337 70.7833 294.871 108.258 294.871 147.333C294.871 186.409 279.337 223.883 251.688 251.514C224.038 279.144 186.538 294.667 147.435 294.667Z" fill="black"/>
</svg>
